G04 -- output software:jlccam v1.3.0 *
G04 -- dbname:*
G04 -- stepname:set*
G04 -- layer:ko*
*
G04 -- format*
%FSLAX26Y26*%
%MOIN*%
*
G04 -- apertures*
%ADD10C,0.005904*%
*
G75*
G90*
*
G54D10*
%LPD*%
D10*
X1554938Y462598D02*
G03Y462598I-374014D01*
X472419Y1566929D02*
G03X393679Y1488188J-78740D01*
X1881867Y0D02*
G03X1960608Y78740J78740D01*
X393679D02*
G03X472419Y0I78740D01*
X1960608Y1488188D02*
G03X1881867Y1566929I-78740D01*
G01*
X393679Y1488188D02*
Y78740D01*
X472419Y0D02*
X1881867D01*
X1960608Y78740D02*
Y1488188D01*
X1881867Y1566929D02*
X472419D01*
D10*
X1554938Y2029527D02*
G03Y2029527I-374014D01*
X472419Y3133858D02*
G03X393679Y3055117J-78740D01*
X1881867Y1566929D02*
G03X1960608Y1645669J78740D01*
X393679D02*
G03X472419Y1566929I78740D01*
X1960608Y3055117D02*
G03X1881867Y3133858I-78740D01*
G01*
X393679Y3055117D02*
Y1645669D01*
X472419Y1566929D02*
X1881867D01*
X1960608Y1645669D02*
Y3055117D01*
X1881867Y3133858D02*
X472419D01*
D10*
X1554938Y3596456D02*
G03Y3596456I-374014D01*
X472419Y4700787D02*
G03X393679Y4622046J-78740D01*
X1881867Y3133858D02*
G03X1960608Y3212598J78740D01*
X393679D02*
G03X472419Y3133858I78740D01*
X1960608Y4622046D02*
G03X1881867Y4700787I-78740D01*
G01*
X393679Y4622046D02*
Y3212598D01*
X472419Y3133858D02*
X1881867D01*
X1960608Y3212598D02*
Y4622046D01*
X1881867Y4700787D02*
X472419D01*
D10*
X1554938Y5163385D02*
G03Y5163385I-374014D01*
X472419Y6267716D02*
G03X393679Y6188975J-78740D01*
X1881867Y4700787D02*
G03X1960608Y4779527J78740D01*
X393679D02*
G03X472419Y4700787I78740D01*
X1960608Y6188975D02*
G03X1881867Y6267716I-78740D01*
G01*
X393679Y6188975D02*
Y4779527D01*
X472419Y4700787D02*
X1881867D01*
X1960608Y4779527D02*
Y6188975D01*
X1881867Y6267716D02*
X472419D01*
D10*
X1554938Y6730314D02*
G03Y6730314I-374014D01*
X472419Y7834645D02*
G03X393679Y7755904J-78740D01*
X1881867Y6267716D02*
G03X1960608Y6346456J78740D01*
X393679D02*
G03X472419Y6267716I78740D01*
X1960608Y7755904D02*
G03X1881867Y7834645I-78740D01*
G01*
X393679Y7755904D02*
Y6346456D01*
X472419Y6267716D02*
X1881867D01*
X1960608Y6346456D02*
Y7755904D01*
X1881867Y7834645D02*
X472419D01*
D10*
X1554938Y8297243D02*
G03Y8297243I-374014D01*
X472419Y9401574D02*
G03X393679Y9322833J-78740D01*
X1881867Y7834645D02*
G03X1960608Y7913385J78740D01*
X393679D02*
G03X472419Y7834645I78740D01*
X1960608Y9322833D02*
G03X1881867Y9401574I-78740D01*
G01*
X393679Y9322833D02*
Y7913385D01*
X472419Y7834645D02*
X1881867D01*
X1960608Y7913385D02*
Y9322833D01*
X1881867Y9401574D02*
X472419D01*
D10*
X3121845Y462598D02*
G03Y462598I-374014D01*
X2039326Y1566929D02*
G03X1960586Y1488188J-78740D01*
X3448774Y0D02*
G03X3527515Y78740J78740D01*
X1960586D02*
G03X2039326Y0I78740D01*
X3527515Y1488188D02*
G03X3448774Y1566929I-78740D01*
G01*
X1960586Y1488188D02*
Y78740D01*
X2039326Y0D02*
X3448774D01*
X3527515Y78740D02*
Y1488188D01*
X3448774Y1566929D02*
X2039326D01*
D10*
X3121845Y2029527D02*
G03Y2029527I-374014D01*
X2039326Y3133858D02*
G03X1960586Y3055117J-78740D01*
X3448774Y1566929D02*
G03X3527515Y1645669J78740D01*
X1960586D02*
G03X2039326Y1566929I78740D01*
X3527515Y3055117D02*
G03X3448774Y3133858I-78740D01*
G01*
X1960586Y3055117D02*
Y1645669D01*
X2039326Y1566929D02*
X3448774D01*
X3527515Y1645669D02*
Y3055117D01*
X3448774Y3133858D02*
X2039326D01*
D10*
X3121845Y3596456D02*
G03Y3596456I-374014D01*
X2039326Y4700787D02*
G03X1960586Y4622046J-78740D01*
X3448774Y3133858D02*
G03X3527515Y3212598J78740D01*
X1960586D02*
G03X2039326Y3133858I78740D01*
X3527515Y4622046D02*
G03X3448774Y4700787I-78740D01*
G01*
X1960586Y4622046D02*
Y3212598D01*
X2039326Y3133858D02*
X3448774D01*
X3527515Y3212598D02*
Y4622046D01*
X3448774Y4700787D02*
X2039326D01*
D10*
X3121845Y5163385D02*
G03Y5163385I-374014D01*
X2039326Y6267716D02*
G03X1960586Y6188975J-78740D01*
X3448774Y4700787D02*
G03X3527515Y4779527J78740D01*
X1960586D02*
G03X2039326Y4700787I78740D01*
X3527515Y6188975D02*
G03X3448774Y6267716I-78740D01*
G01*
X1960586Y6188975D02*
Y4779527D01*
X2039326Y4700787D02*
X3448774D01*
X3527515Y4779527D02*
Y6188975D01*
X3448774Y6267716D02*
X2039326D01*
D10*
X3121845Y6730314D02*
G03Y6730314I-374014D01*
X2039326Y7834645D02*
G03X1960586Y7755904J-78740D01*
X3448774Y6267716D02*
G03X3527515Y6346456J78740D01*
X1960586D02*
G03X2039326Y6267716I78740D01*
X3527515Y7755904D02*
G03X3448774Y7834645I-78740D01*
G01*
X1960586Y7755904D02*
Y6346456D01*
X2039326Y6267716D02*
X3448774D01*
X3527515Y6346456D02*
Y7755904D01*
X3448774Y7834645D02*
X2039326D01*
D10*
X3121845Y8297243D02*
G03Y8297243I-374014D01*
X2039326Y9401574D02*
G03X1960586Y9322833J-78740D01*
X3448774Y7834645D02*
G03X3527515Y7913385J78740D01*
X1960586D02*
G03X2039326Y7834645I78740D01*
X3527515Y9322833D02*
G03X3448774Y9401574I-78740D01*
G01*
X1960586Y9322833D02*
Y7913385D01*
X2039326Y7834645D02*
X3448774D01*
X3527515Y7913385D02*
Y9322833D01*
X3448774Y9401574D02*
X2039326D01*
D10*
X4688752Y462598D02*
G03Y462598I-374014D01*
X3606233Y1566929D02*
G03X3527493Y1488188J-78740D01*
X5015681Y0D02*
G03X5094422Y78740J78740D01*
X3527493D02*
G03X3606233Y0I78740D01*
X5094422Y1488188D02*
G03X5015681Y1566929I-78740D01*
G01*
X3527493Y1488188D02*
Y78740D01*
X3606233Y0D02*
X5015681D01*
X5094422Y78740D02*
Y1488188D01*
X5015681Y1566929D02*
X3606233D01*
D10*
X4688752Y2029527D02*
G03Y2029527I-374014D01*
X3606233Y3133858D02*
G03X3527493Y3055117J-78740D01*
X5015681Y1566929D02*
G03X5094422Y1645669J78740D01*
X3527493D02*
G03X3606233Y1566929I78740D01*
X5094422Y3055117D02*
G03X5015681Y3133858I-78740D01*
G01*
X3527493Y3055117D02*
Y1645669D01*
X3606233Y1566929D02*
X5015681D01*
X5094422Y1645669D02*
Y3055117D01*
X5015681Y3133858D02*
X3606233D01*
D10*
X4688752Y3596456D02*
G03Y3596456I-374014D01*
X3606233Y4700787D02*
G03X3527493Y4622046J-78740D01*
X5015681Y3133858D02*
G03X5094422Y3212598J78740D01*
X3527493D02*
G03X3606233Y3133858I78740D01*
X5094422Y4622046D02*
G03X5015681Y4700787I-78740D01*
G01*
X3527493Y4622046D02*
Y3212598D01*
X3606233Y3133858D02*
X5015681D01*
X5094422Y3212598D02*
Y4622046D01*
X5015681Y4700787D02*
X3606233D01*
D10*
X4688752Y5163385D02*
G03Y5163385I-374014D01*
X3606233Y6267716D02*
G03X3527493Y6188975J-78740D01*
X5015681Y4700787D02*
G03X5094422Y4779527J78740D01*
X3527493D02*
G03X3606233Y4700787I78740D01*
X5094422Y6188975D02*
G03X5015681Y6267716I-78740D01*
G01*
X3527493Y6188975D02*
Y4779527D01*
X3606233Y4700787D02*
X5015681D01*
X5094422Y4779527D02*
Y6188975D01*
X5015681Y6267716D02*
X3606233D01*
D10*
X4688752Y6730314D02*
G03Y6730314I-374014D01*
X3606233Y7834645D02*
G03X3527493Y7755904J-78740D01*
X5015681Y6267716D02*
G03X5094422Y6346456J78740D01*
X3527493D02*
G03X3606233Y6267716I78740D01*
X5094422Y7755904D02*
G03X5015681Y7834645I-78740D01*
G01*
X3527493Y7755904D02*
Y6346456D01*
X3606233Y6267716D02*
X5015681D01*
X5094422Y6346456D02*
Y7755904D01*
X5015681Y7834645D02*
X3606233D01*
D10*
X4688752Y8297243D02*
G03Y8297243I-374014D01*
X3606233Y9401574D02*
G03X3527493Y9322833J-78740D01*
X5015681Y7834645D02*
G03X5094422Y7913385J78740D01*
X3527493D02*
G03X3606233Y7834645I78740D01*
X5094422Y9322833D02*
G03X5015681Y9401574I-78740D01*
G01*
X3527493Y9322833D02*
Y7913385D01*
X3606233Y7834645D02*
X5015681D01*
X5094422Y7913385D02*
Y9322833D01*
X5015681Y9401574D02*
X3606233D01*
%LPD*%
G01*
D10*
X393679Y78740D02*
Y78740D01*
Y1488188D02*
Y1488188D01*
Y1645669D02*
Y1645669D01*
Y3055117D02*
Y3055117D01*
Y3212598D02*
Y3212598D01*
Y4622046D02*
Y4622046D01*
Y4779527D02*
Y4779527D01*
Y6188975D02*
Y6188975D01*
Y6346456D02*
Y6346456D01*
Y7755904D02*
Y7755904D01*
Y7913385D02*
Y7913385D01*
Y9322833D02*
Y9322833D01*
X5094421Y78740D02*
Y78740D01*
Y1488188D02*
Y1488188D01*
Y1645669D02*
Y1645669D01*
Y3055117D02*
Y3055117D01*
Y3212598D02*
Y3212598D01*
Y4622046D02*
Y4622046D01*
Y4779527D02*
Y4779527D01*
Y6188975D02*
Y6188975D01*
Y6346456D02*
Y6346456D01*
Y7755904D02*
Y7755904D01*
Y7913385D02*
Y7913385D01*
Y9322833D02*
Y9322833D01*
X78740Y9401574D02*
G03X0Y9322833J-78740D01*
Y78740D02*
G03X78740Y0I78740D01*
X5409381Y9401574D02*
G02X5488121Y9322833J-78740D01*
Y78740D02*
G02X5409381Y0I-78739D01*
G01*
X393700D02*
X393679Y78740D01*
Y9322833D02*
X393700Y9401574D01*
X5094421Y0D02*
Y78740D01*
Y9322833D02*
Y9401574D01*
X393679Y1488188D02*
Y1645669D01*
Y3055117D02*
Y3212598D01*
Y4622046D02*
Y4779527D01*
Y6188975D02*
Y6346456D01*
Y7755904D02*
Y7913385D01*
X5094421Y1488188D02*
Y1645669D01*
Y3055117D02*
Y3212598D01*
Y4622046D02*
Y4779527D01*
Y6188975D02*
Y6346456D01*
Y7755904D02*
Y7913385D01*
X393700Y9401574D02*
X78740D01*
Y0D02*
X393700D01*
X5094421Y9401574D02*
X5409381D01*
Y0D02*
X5094421D01*
X0Y9322833D02*
Y78740D01*
X5488121Y9322833D02*
Y78740D01*
M02*
