M48
; DRILL file {KiCad (6.0.2)} date Sat Jun 18 21:44:08 2022
; FORMAT={-:-/ absolute / inch / decimal}
; #@! TF.CreationDate,2022-06-18T21:44:08-04:00
; #@! TF.GenerationSoftware,Kicad,Pcbnew,(6.0.2)
; #@! TF.FileFunction,Plated,1,2,PTH
FMAT,2
INCH
; #@! TA.AperFunction,Plated,PTH,ViaDrill
T1C0.0157
; #@! TA.AperFunction,Plated,PTH,ComponentDrill
T2C0.0197
; #@! TA.AperFunction,Plated,PTH,ComponentDrill
T3C0.0291
; #@! TA.AperFunction,Plated,PTH,ComponentDrill
T4C0.1378
%
G90
G05
T1
X-0.6535Y1.4823
X-0.4764Y1.065
X-0.4331Y0.5453
X-0.4016Y1.6457
X-0.3396Y1.8583
X-0.315Y1.6432
X-0.2569Y1.8558
X-0.2283Y1.6457
X-0.189Y1.3839
X-0.1339Y1.939
X-0.126Y1.6634
X-0.0039Y1.8484
X-0.0039Y1.7421
X-0.0039Y1.372
X0.0315Y1.4114
X0.0748Y1.8484
X0.0748Y1.5217
X0.189Y1.6501
X0.2835Y1.6476
X0.311Y1.3012
X0.378Y1.6476
X0.4528Y0.565
X0.5748Y0.9665
X0.6614Y1.4823
T2
X-0.6833Y1.7795
X-0.653Y1.8526
X-0.653Y1.7065
X-0.5799Y1.8829
X-0.5799Y1.6762
X-0.5068Y1.8526
X-0.5068Y1.7065
X-0.4766Y1.7795
X0.4766Y1.7795
X0.5068Y1.8526
X0.5068Y1.7065
X0.5799Y1.8829
X0.5799Y1.6762
X0.653Y1.8526
X0.653Y1.7065
X0.6833Y1.7795
T3
X-0.1319Y1.7815
X0.124Y1.7815
T4
X-0.5799Y1.7795
X0.5799Y1.7795
T0
M30
