G04 #@! TF.GenerationSoftware,KiCad,Pcbnew,(6.0.2)*
G04 #@! TF.CreationDate,2022-06-18T21:44:04-04:00*
G04 #@! TF.ProjectId,Foras Promineo CLR PCB,466f7261-7320-4507-926f-6d696e656f20,rev?*
G04 #@! TF.SameCoordinates,PX4c4b400PY6a92b70*
G04 #@! TF.FileFunction,Copper,L1,Top*
G04 #@! TF.FilePolarity,Positive*
%FSLAX46Y46*%
G04 Gerber Fmt 4.6, Leading zero omitted, Abs format (unit mm)*
G04 Created by KiCad (PCBNEW (6.0.2)) date 2022-06-18 21:44:04*
%MOMM*%
%LPD*%
G01*
G04 APERTURE LIST*
G04 Aperture macros list*
%AMRoundRect*
0 Rectangle with rounded corners*
0 $1 Rounding radius*
0 $2 $3 $4 $5 $6 $7 $8 $9 X,Y pos of 4 corners*
0 Add a 4 corners polygon primitive as box body*
4,1,4,$2,$3,$4,$5,$6,$7,$8,$9,$2,$3,0*
0 Add four circle primitives for the rounded corners*
1,1,$1+$1,$2,$3*
1,1,$1+$1,$4,$5*
1,1,$1+$1,$6,$7*
1,1,$1+$1,$8,$9*
0 Add four rect primitives between the rounded corners*
20,1,$1+$1,$2,$3,$4,$5,0*
20,1,$1+$1,$4,$5,$6,$7,0*
20,1,$1+$1,$6,$7,$8,$9,0*
20,1,$1+$1,$8,$9,$2,$3,0*%
%AMRotRect*
0 Rectangle, with rotation*
0 The origin of the aperture is its center*
0 $1 length*
0 $2 width*
0 $3 Rotation angle, in degrees counterclockwise*
0 Add horizontal line*
21,1,$1,$2,0,0,$3*%
G04 Aperture macros list end*
G04 #@! TA.AperFunction,SMDPad,CuDef*
%ADD10RotRect,1.750000X3.500000X280.000000*%
G04 #@! TD*
G04 #@! TA.AperFunction,SMDPad,CuDef*
%ADD11RotRect,1.750000X3.500000X45.000000*%
G04 #@! TD*
G04 #@! TA.AperFunction,SMDPad,CuDef*
%ADD12RotRect,1.750000X3.500000X330.857000*%
G04 #@! TD*
G04 #@! TA.AperFunction,SMDPad,CuDef*
%ADD13RotRect,1.750000X3.500000X80.000000*%
G04 #@! TD*
G04 #@! TA.AperFunction,SMDPad,CuDef*
%ADD14RotRect,1.750000X3.500000X30.000000*%
G04 #@! TD*
G04 #@! TA.AperFunction,SMDPad,CuDef*
%ADD15RotRect,1.750000X3.500000X135.000000*%
G04 #@! TD*
G04 #@! TA.AperFunction,SMDPad,CuDef*
%ADD16RoundRect,0.237500X-0.237500X0.300000X-0.237500X-0.300000X0.237500X-0.300000X0.237500X0.300000X0*%
G04 #@! TD*
G04 #@! TA.AperFunction,ComponentPad*
%ADD17C,0.800000*%
G04 #@! TD*
G04 #@! TA.AperFunction,ComponentPad*
%ADD18C,7.000000*%
G04 #@! TD*
G04 #@! TA.AperFunction,SMDPad,CuDef*
%ADD19RoundRect,0.237500X0.237500X-0.300000X0.237500X0.300000X-0.237500X0.300000X-0.237500X-0.300000X0*%
G04 #@! TD*
G04 #@! TA.AperFunction,ComponentPad*
%ADD20C,1.248000*%
G04 #@! TD*
G04 #@! TA.AperFunction,ViaPad*
%ADD21C,0.800000*%
G04 #@! TD*
G04 #@! TA.AperFunction,Conductor*
%ADD22C,0.600000*%
G04 #@! TD*
G04 APERTURE END LIST*
D10*
G04 #@! TO.P,D2,1,K*
G04 #@! TO.N,/LED_2*
X12487989Y24591572D03*
G04 #@! TO.P,D2,2,A*
G04 #@! TO.N,Net-(D2-Pad2)*
X12132011Y26610428D03*
G04 #@! TD*
D11*
G04 #@! TO.P,D3,1,K*
G04 #@! TO.N,/LED_3*
X10013784Y15790784D03*
G04 #@! TO.P,D3,2,A*
G04 #@! TO.N,Net-(D3-Pad2)*
X8564216Y14341216D03*
G04 #@! TD*
D12*
G04 #@! TO.P,D1,1,K*
G04 #@! TO.N,/LED_1*
X6982242Y33848834D03*
G04 #@! TO.P,D1,2,A*
G04 #@! TO.N,Net-(D1-Pad2)*
X5191758Y34847166D03*
G04 #@! TD*
D13*
G04 #@! TO.P,D5,1,K*
G04 #@! TO.N,/LED_5*
X-12243011Y25839428D03*
G04 #@! TO.P,D5,2,A*
G04 #@! TO.N,Net-(D5-Pad2)*
X-12598989Y23820572D03*
G04 #@! TD*
D14*
G04 #@! TO.P,D6,1,K*
G04 #@! TO.N,/LED_6*
X-5762324Y34526500D03*
G04 #@! TO.P,D6,2,A*
G04 #@! TO.N,Net-(D6-Pad2)*
X-7537676Y33501500D03*
G04 #@! TD*
D15*
G04 #@! TO.P,D4,1,K*
G04 #@! TO.N,/LED_4*
X-9563784Y15315784D03*
G04 #@! TO.P,D4,2,A*
G04 #@! TO.N,Net-(D4-Pad2)*
X-8114216Y13866216D03*
G04 #@! TD*
D16*
G04 #@! TO.P,C1,1*
G04 #@! TO.N,Net-(C1-Pad1)*
X-16600000Y40212500D03*
G04 #@! TO.P,C1,2*
G04 #@! TO.N,GND*
X-16600000Y38487500D03*
G04 #@! TD*
G04 #@! TO.P,C2,1*
G04 #@! TO.N,Net-(C2-Pad1)*
X16800000Y40212500D03*
G04 #@! TO.P,C2,2*
G04 #@! TO.N,GND*
X16800000Y38487500D03*
G04 #@! TD*
D17*
G04 #@! TO.P,H1,1,1*
G04 #@! TO.N,Net-(C1-Pad1)*
X-12873845Y43343845D03*
X-14730000Y47825000D03*
X-14730000Y42575000D03*
D18*
X-14730000Y45200000D03*
D17*
X-17355000Y45200000D03*
X-16586155Y47056155D03*
X-12873845Y47056155D03*
X-12105000Y45200000D03*
X-16586155Y43343845D03*
G04 #@! TD*
G04 #@! TO.P,H2,1,1*
G04 #@! TO.N,Net-(C2-Pad1)*
X16586155Y43343845D03*
X12873845Y47056155D03*
X12873845Y43343845D03*
X12105000Y45200000D03*
X14730000Y47825000D03*
D18*
X14730000Y45200000D03*
D17*
X16586155Y47056155D03*
X17355000Y45200000D03*
X14730000Y42575000D03*
G04 #@! TD*
D19*
G04 #@! TO.P,R2,1*
G04 #@! TO.N,Net-(D1-Pad2)*
X4800000Y39337500D03*
G04 #@! TO.P,R2,2*
G04 #@! TO.N,Net-(C5-Pad1)*
X4800000Y41062500D03*
G04 #@! TD*
G04 #@! TO.P,R4,1*
G04 #@! TO.N,Net-(D2-Pad2)*
X7200000Y39337500D03*
G04 #@! TO.P,R4,2*
G04 #@! TO.N,Net-(C5-Pad1)*
X7200000Y41062500D03*
G04 #@! TD*
G04 #@! TO.P,R6,1*
G04 #@! TO.N,Net-(D3-Pad2)*
X9600000Y39337500D03*
G04 #@! TO.P,R6,2*
G04 #@! TO.N,Net-(C5-Pad1)*
X9600000Y41062500D03*
G04 #@! TD*
G04 #@! TO.P,R8,1*
G04 #@! TO.N,Net-(D4-Pad2)*
X-10200000Y39287500D03*
G04 #@! TO.P,R8,2*
G04 #@! TO.N,Net-(C5-Pad1)*
X-10200000Y41012500D03*
G04 #@! TD*
G04 #@! TO.P,R10,1*
G04 #@! TO.N,Net-(D5-Pad2)*
X-8000000Y39287500D03*
G04 #@! TO.P,R10,2*
G04 #@! TO.N,Net-(C5-Pad1)*
X-8000000Y41012500D03*
G04 #@! TD*
G04 #@! TO.P,R12,1*
G04 #@! TO.N,Net-(D6-Pad2)*
X-5800000Y39287500D03*
G04 #@! TO.P,R12,2*
G04 #@! TO.N,Net-(C5-Pad1)*
X-5800000Y41012500D03*
G04 #@! TD*
G04 #@! TO.P,C5,1*
G04 #@! TO.N,Net-(C5-Pad1)*
X-8600000Y44487500D03*
G04 #@! TO.P,C5,2*
G04 #@! TO.N,GND*
X-8600000Y46212500D03*
G04 #@! TD*
G04 #@! TO.P,C6,1*
G04 #@! TO.N,Net-(C5-Pad1)*
X-6500000Y44487500D03*
G04 #@! TO.P,C6,2*
G04 #@! TO.N,GND*
X-6500000Y46212500D03*
G04 #@! TD*
D20*
G04 #@! TO.P,J1,S1*
G04 #@! TO.N,N/C*
X-3350000Y45250000D03*
G04 #@! TO.P,J1,S2*
X3150000Y45250000D03*
G04 #@! TD*
D21*
G04 #@! TO.N,GND*
X16800000Y37650000D03*
X-16600000Y37650000D03*
X-6525000Y47137500D03*
X-8625000Y47200000D03*
G04 #@! TO.N,/LED_6*
X-4800000Y35150000D03*
G04 #@! TO.N,/LED_5*
X1900000Y46950000D03*
X1900000Y38650000D03*
X-12100000Y27050000D03*
G04 #@! TO.N,/LED_4*
X-11000000Y13850000D03*
G04 #@! TO.N,/LED_3*
X11500000Y14350000D03*
G04 #@! TO.N,/LED_2*
X-100000Y44250000D03*
X14600000Y24550000D03*
X-100000Y34850000D03*
G04 #@! TO.N,/LED_1*
X800000Y35850000D03*
X-100000Y46950000D03*
X7900000Y33050000D03*
G04 #@! TO.N,Net-(C5-Pad1)*
X4800000Y41912500D03*
X-8000000Y41737500D03*
X-3400000Y49250000D03*
X7200000Y41850000D03*
X-5800000Y41800000D03*
X9600000Y41850000D03*
X-3200000Y42250000D03*
X-10200000Y41800000D03*
G04 #@! TD*
D22*
G04 #@! TO.N,GND*
X-6500000Y46212500D02*
X-6500000Y47112500D01*
X-16625000Y37675000D02*
X-16600000Y37650000D01*
X16775000Y38575000D02*
X16775000Y37675000D01*
X16775000Y37675000D02*
X16800000Y37650000D01*
X-8600000Y46275000D02*
X-8600000Y47175000D01*
X-16625000Y38575000D02*
X-16625000Y37675000D01*
G04 #@! TO.N,Net-(D1-Pad2)*
X5191758Y34847166D02*
X5191758Y38945742D01*
X5191758Y38945742D02*
X4800000Y39337500D01*
G04 #@! TO.N,Net-(D2-Pad2)*
X12132011Y26610428D02*
X12132011Y34405489D01*
X12132011Y34405489D02*
X7200000Y39337500D01*
G04 #@! TO.N,Net-(D3-Pad2)*
X19100000Y29950000D02*
X19100000Y15550000D01*
X9600000Y39337500D02*
X9712500Y39337500D01*
X19100000Y15550000D02*
X16400000Y12850000D01*
X9712500Y39337500D02*
X19100000Y29950000D01*
X16400000Y12850000D02*
X10055432Y12850000D01*
X10055432Y12850000D02*
X8564216Y14341216D01*
G04 #@! TO.N,Net-(D4-Pad2)*
X-10200000Y39287500D02*
X-19200000Y30287500D01*
X-19200000Y15750000D02*
X-16100000Y12650000D01*
X-9330432Y12650000D02*
X-8114216Y13866216D01*
X-19200000Y30287500D02*
X-19200000Y15750000D01*
X-16100000Y12650000D02*
X-9330432Y12650000D01*
G04 #@! TO.N,Net-(D5-Pad2)*
X-14270572Y23820572D02*
X-15300000Y24850000D01*
X-12598989Y23820572D02*
X-14270572Y23820572D01*
X-15300000Y31987500D02*
X-8000000Y39287500D01*
X-15300000Y24850000D02*
X-15300000Y31987500D01*
G04 #@! TO.N,Net-(D6-Pad2)*
X-9000000Y34963824D02*
X-9000000Y36087500D01*
X-7537676Y33501500D02*
X-9000000Y34963824D01*
X-9000000Y36087500D02*
X-5800000Y39287500D01*
G04 #@! TO.N,Net-(C1-Pad1)*
X-16600000Y40125000D02*
X-16600000Y43330000D01*
X-16600000Y43330000D02*
X-14730000Y45200000D01*
G04 #@! TO.N,/LED_6*
X-5138824Y35150000D02*
X-5762324Y34526500D01*
X-4800000Y35150000D02*
X-5138824Y35150000D01*
G04 #@! TO.N,/LED_5*
X-12243011Y26906989D02*
X-12100000Y27050000D01*
X-12243011Y25839428D02*
X-12243011Y26906989D01*
X1900000Y38650000D02*
X1900000Y46950000D01*
G04 #@! TO.N,/LED_4*
X-9563784Y15286216D02*
X-11000000Y13850000D01*
X-9563784Y15315784D02*
X-9563784Y15286216D01*
G04 #@! TO.N,/LED_3*
X10013784Y15790784D02*
X10059216Y15790784D01*
X10059216Y15790784D02*
X11500000Y14350000D01*
G04 #@! TO.N,/LED_2*
X-100000Y34850000D02*
X-100000Y44250000D01*
X14558428Y24591572D02*
X14600000Y24550000D01*
X12487989Y24591572D02*
X14558428Y24591572D01*
G04 #@! TO.N,/LED_1*
X-100000Y46450000D02*
X-100000Y46950000D01*
X800000Y35850000D02*
X726511Y35923489D01*
X726511Y45623489D02*
X-100000Y46450000D01*
X726511Y35923489D02*
X726511Y45623489D01*
X7101166Y33848834D02*
X7900000Y33050000D01*
X6982242Y33848834D02*
X7101166Y33848834D01*
G04 #@! TO.N,Net-(C5-Pad1)*
X-5800000Y41012500D02*
X-5800000Y41800000D01*
X-8000000Y40950000D02*
X-8000000Y41737500D01*
X7200000Y41062500D02*
X7200000Y41850000D01*
X4800000Y41125000D02*
X4800000Y41912500D01*
X9600000Y41062500D02*
X9600000Y41850000D01*
X-10200000Y41012500D02*
X-10200000Y41800000D01*
G04 #@! TO.N,Net-(C2-Pad1)*
X16800000Y43130000D02*
X14730000Y45200000D01*
X16800000Y40125000D02*
X16800000Y43130000D01*
G04 #@! TD*
G04 #@! TA.AperFunction,Conductor*
G04 #@! TO.N,Net-(C5-Pad1)*
G36*
X17987153Y51493579D02*
G01*
X18000000Y51491024D01*
X18012171Y51493445D01*
X18024581Y51493445D01*
X18024581Y51492802D01*
X18035326Y51493473D01*
X18239491Y51478871D01*
X18257285Y51476313D01*
X18483101Y51427190D01*
X18500350Y51422125D01*
X18583148Y51391243D01*
X18716877Y51341365D01*
X18733226Y51333898D01*
X18936049Y51223148D01*
X18951173Y51213429D01*
X19136176Y51074937D01*
X19149762Y51063164D01*
X19313164Y50899762D01*
X19324937Y50886176D01*
X19463429Y50701173D01*
X19473148Y50686049D01*
X19583898Y50483226D01*
X19591367Y50466873D01*
X19672125Y50250350D01*
X19677190Y50233101D01*
X19726313Y50007285D01*
X19728871Y49989491D01*
X19743473Y49785326D01*
X19742802Y49774581D01*
X19743445Y49774581D01*
X19743445Y49762171D01*
X19741024Y49750000D01*
X19743445Y49737830D01*
X19743579Y49737156D01*
X19746000Y49712575D01*
X19746000Y30306344D01*
X19725998Y30238223D01*
X19672342Y30191730D01*
X19602068Y30181626D01*
X19537488Y30211120D01*
X19524551Y30224091D01*
X19495603Y30257687D01*
X19489324Y30265596D01*
X19484352Y30272402D01*
X19481478Y30276336D01*
X19470735Y30287079D01*
X19464377Y30293926D01*
X19438259Y30324237D01*
X19432400Y30331037D01*
X19424866Y30335920D01*
X19418104Y30341819D01*
X19418108Y30341824D01*
X19407014Y30350800D01*
X10312404Y39445410D01*
X10278378Y39507722D01*
X10275499Y39534505D01*
X10275499Y39689832D01*
X10272601Y39720500D01*
X10270055Y39727751D01*
X10232083Y39835879D01*
X10232082Y39835881D01*
X10228961Y39844768D01*
X10217588Y39860167D01*
X10156303Y39943140D01*
X10150711Y39950711D01*
X10112463Y39978961D01*
X10052345Y40023365D01*
X10052343Y40023366D01*
X10044768Y40028961D01*
X10035881Y40032082D01*
X10035879Y40032083D01*
X9927748Y40070056D01*
X9927746Y40070057D01*
X9920500Y40072601D01*
X9912856Y40073324D01*
X9912854Y40073324D01*
X9904879Y40074078D01*
X9889833Y40075500D01*
X9600147Y40075500D01*
X9310168Y40075499D01*
X9307218Y40075220D01*
X9307213Y40075220D01*
X9287150Y40073324D01*
X9287149Y40073324D01*
X9279500Y40072601D01*
X9272252Y40070056D01*
X9272249Y40070055D01*
X9164121Y40032083D01*
X9164119Y40032082D01*
X9155232Y40028961D01*
X9147657Y40023366D01*
X9147655Y40023365D01*
X9087537Y39978961D01*
X9049289Y39950711D01*
X9043697Y39943140D01*
X8982413Y39860167D01*
X8971039Y39844768D01*
X8967918Y39835881D01*
X8967917Y39835879D01*
X8929945Y39727751D01*
X8927399Y39720500D01*
X8924500Y39689833D01*
X8924501Y38985168D01*
X8924780Y38982218D01*
X8924780Y38982213D01*
X8926676Y38962150D01*
X8927399Y38954500D01*
X8929944Y38947252D01*
X8929945Y38947249D01*
X8967668Y38839832D01*
X8971039Y38830232D01*
X8976634Y38822657D01*
X8976635Y38822655D01*
X9014676Y38771152D01*
X9049289Y38724289D01*
X9056860Y38718697D01*
X9147655Y38651635D01*
X9147657Y38651634D01*
X9155232Y38646039D01*
X9164119Y38642918D01*
X9164121Y38642917D01*
X9272252Y38604944D01*
X9272254Y38604943D01*
X9279500Y38602399D01*
X9287144Y38601676D01*
X9287146Y38601676D01*
X9295121Y38600922D01*
X9310167Y38599500D01*
X9333403Y38599500D01*
X9690495Y38599501D01*
X9758615Y38579499D01*
X9779590Y38562596D01*
X18562595Y29779592D01*
X18596621Y29717280D01*
X18599500Y29690497D01*
X18599500Y15809504D01*
X18579498Y15741383D01*
X18562595Y15720409D01*
X16229591Y13387405D01*
X16167279Y13353379D01*
X16140496Y13350500D01*
X10636113Y13350500D01*
X10567992Y13370502D01*
X10521499Y13424158D01*
X10511395Y13494432D01*
X10540889Y13559012D01*
X10547018Y13565595D01*
X10576110Y13594687D01*
X10609238Y13644266D01*
X10611659Y13656438D01*
X10616408Y13667903D01*
X10620124Y13666364D01*
X10642538Y13709238D01*
X10688794Y13734495D01*
X10687097Y13738592D01*
X10698562Y13743341D01*
X10710734Y13745762D01*
X10760313Y13778890D01*
X10899096Y13917673D01*
X10961408Y13951699D01*
X11032223Y13946634D01*
X11071478Y13921406D01*
X11071718Y13921718D01*
X11197159Y13825464D01*
X11343238Y13764956D01*
X11500000Y13744318D01*
X11508188Y13745396D01*
X11648574Y13763878D01*
X11656762Y13764956D01*
X11802841Y13825464D01*
X11928282Y13921718D01*
X12024536Y14047159D01*
X12085044Y14193238D01*
X12105682Y14350000D01*
X12085044Y14506762D01*
X12024536Y14652841D01*
X11930573Y14775297D01*
X11928282Y14778282D01*
X11928990Y14778825D01*
X11898301Y14835026D01*
X11903366Y14905841D01*
X11932327Y14950904D01*
X12025678Y15044255D01*
X12058806Y15093834D01*
X12074367Y15172066D01*
X12062906Y15229684D01*
X12061227Y15238127D01*
X12061227Y15238128D01*
X12058806Y15250297D01*
X12025678Y15299877D01*
X9522877Y17802678D01*
X9473297Y17835806D01*
X9461128Y17838227D01*
X9461127Y17838227D01*
X9407237Y17848946D01*
X9395066Y17851367D01*
X9316834Y17835806D01*
X9267255Y17802678D01*
X8001890Y16537313D01*
X7968762Y16487734D01*
X7966341Y16475562D01*
X7961592Y16464097D01*
X7957876Y16465636D01*
X7935462Y16422762D01*
X7889206Y16397505D01*
X7890903Y16393408D01*
X7879438Y16388659D01*
X7867266Y16386238D01*
X7817687Y16353110D01*
X6552322Y15087745D01*
X6519194Y15038166D01*
X6503633Y14959934D01*
X6519194Y14881703D01*
X6552322Y14832123D01*
X9055123Y12329322D01*
X9104703Y12296194D01*
X9116872Y12293773D01*
X9116873Y12293773D01*
X9170763Y12283054D01*
X9182934Y12280633D01*
X9261166Y12296194D01*
X9310745Y12329322D01*
X9498123Y12516700D01*
X9560435Y12550726D01*
X9631250Y12545661D01*
X9670624Y12522048D01*
X9710040Y12487238D01*
X9715729Y12481890D01*
X9726939Y12470680D01*
X9730525Y12467992D01*
X9730528Y12467990D01*
X9735109Y12464556D01*
X9742950Y12458173D01*
X9747237Y12454387D01*
X9777820Y12427377D01*
X9785945Y12423562D01*
X9789115Y12421480D01*
X9802102Y12413677D01*
X9805426Y12411857D01*
X9812608Y12406474D01*
X9821009Y12403325D01*
X9821010Y12403324D01*
X9856168Y12390144D01*
X9865485Y12386217D01*
X9899466Y12370263D01*
X9899469Y12370262D01*
X9907595Y12366447D01*
X9916469Y12365065D01*
X9920082Y12363961D01*
X9934739Y12360115D01*
X9938442Y12359301D01*
X9946852Y12356148D01*
X9993275Y12352698D01*
X10003288Y12351548D01*
X10016441Y12349500D01*
X10031636Y12349500D01*
X10040974Y12349154D01*
X10089824Y12345524D01*
X10098600Y12347397D01*
X10107557Y12348008D01*
X10107557Y12348002D01*
X10121750Y12349500D01*
X16329819Y12349500D01*
X16341704Y12348172D01*
X16341745Y12348682D01*
X16350691Y12347962D01*
X16359447Y12345981D01*
X16402980Y12348682D01*
X16412264Y12349258D01*
X16420067Y12349500D01*
X16435940Y12349500D01*
X16446052Y12350948D01*
X16456106Y12351978D01*
X16484097Y12353715D01*
X16502538Y12354859D01*
X16510982Y12357907D01*
X16514694Y12358676D01*
X16529399Y12362343D01*
X16533027Y12363404D01*
X16541918Y12364677D01*
X16584282Y12383939D01*
X16593637Y12387746D01*
X16628943Y12400491D01*
X16628947Y12400493D01*
X16637387Y12403540D01*
X16644635Y12408835D01*
X16647975Y12410611D01*
X16661089Y12418274D01*
X16664261Y12420303D01*
X16672428Y12424016D01*
X16679223Y12429871D01*
X16679226Y12429873D01*
X16707675Y12454387D01*
X16715596Y12460676D01*
X16722402Y12465648D01*
X16726336Y12468522D01*
X16737079Y12479265D01*
X16743926Y12485623D01*
X16774237Y12511741D01*
X16781037Y12517600D01*
X16785920Y12525134D01*
X16791819Y12531896D01*
X16791824Y12531892D01*
X16800800Y12542986D01*
X19404280Y15146466D01*
X19413624Y15153932D01*
X19413292Y15154322D01*
X19420128Y15160140D01*
X19427720Y15164930D01*
X19462756Y15204601D01*
X19468102Y15210288D01*
X19479321Y15221507D01*
X19485450Y15229684D01*
X19491832Y15237523D01*
X19522623Y15272388D01*
X19524369Y15270846D01*
X19568807Y15308581D01*
X19639179Y15317981D01*
X19703461Y15287843D01*
X19741245Y15227736D01*
X19746000Y15193449D01*
X19746000Y13787425D01*
X19743579Y13762847D01*
X19741024Y13750000D01*
X19743445Y13737829D01*
X19743445Y13725419D01*
X19742802Y13725419D01*
X19743473Y13714674D01*
X19728871Y13510509D01*
X19726313Y13492715D01*
X19677190Y13266899D01*
X19672125Y13249650D01*
X19591367Y13033127D01*
X19583898Y13016774D01*
X19473148Y12813951D01*
X19463429Y12798827D01*
X19324937Y12613824D01*
X19313164Y12600238D01*
X19149762Y12436836D01*
X19136176Y12425063D01*
X19111344Y12406474D01*
X18960794Y12293773D01*
X18951173Y12286571D01*
X18936049Y12276852D01*
X18733226Y12166102D01*
X18716877Y12158635D01*
X18588683Y12110821D01*
X18500350Y12077875D01*
X18483101Y12072810D01*
X18257285Y12023687D01*
X18239491Y12021129D01*
X18035326Y12006527D01*
X18024581Y12007198D01*
X18024581Y12006555D01*
X18012171Y12006555D01*
X18000000Y12008976D01*
X17987153Y12006421D01*
X17962575Y12004000D01*
X-8151255Y12004000D01*
X-8219376Y12024002D01*
X-8265869Y12077658D01*
X-8275973Y12147932D01*
X-8246479Y12212512D01*
X-8240350Y12219095D01*
X-6102322Y14357123D01*
X-6069194Y14406703D01*
X-6053633Y14484934D01*
X-6069194Y14563166D01*
X-6102322Y14612745D01*
X-7367687Y15878110D01*
X-7417266Y15911238D01*
X-7429438Y15913659D01*
X-7440903Y15918408D01*
X-7439364Y15922124D01*
X-7482238Y15944538D01*
X-7507495Y15990794D01*
X-7511592Y15989097D01*
X-7516341Y16000562D01*
X-7518762Y16012734D01*
X-7551890Y16062313D01*
X-8817255Y17327678D01*
X-8866834Y17360806D01*
X-8945066Y17376367D01*
X-8957237Y17373946D01*
X-9011127Y17363227D01*
X-9011128Y17363227D01*
X-9023297Y17360806D01*
X-9072877Y17327678D01*
X-11575678Y14824877D01*
X-11608806Y14775297D01*
X-11624367Y14697066D01*
X-11608806Y14618834D01*
X-11575678Y14569255D01*
X-11444080Y14437657D01*
X-11410054Y14375345D01*
X-11415119Y14304530D01*
X-11433212Y14271859D01*
X-11519507Y14159396D01*
X-11519509Y14159392D01*
X-11524536Y14152841D01*
X-11585044Y14006762D01*
X-11586122Y13998574D01*
X-11592293Y13951699D01*
X-11605682Y13850000D01*
X-11585044Y13693238D01*
X-11524536Y13547159D01*
X-11428282Y13421718D01*
X-11369305Y13376464D01*
X-11369304Y13376463D01*
X-11327437Y13319125D01*
X-11323215Y13248254D01*
X-11357979Y13186351D01*
X-11420691Y13153070D01*
X-11446008Y13150500D01*
X-15840496Y13150500D01*
X-15908617Y13170502D01*
X-15929591Y13187405D01*
X-18662595Y15920409D01*
X-18696621Y15982721D01*
X-18699500Y16009504D01*
X-18699500Y30027996D01*
X-18679498Y30096117D01*
X-18662595Y30117091D01*
X-10267091Y38512595D01*
X-10204779Y38546621D01*
X-10177996Y38549500D01*
X-9927377Y38549501D01*
X-9910168Y38549501D01*
X-9907218Y38549780D01*
X-9907213Y38549780D01*
X-9887150Y38551676D01*
X-9887149Y38551676D01*
X-9879500Y38552399D01*
X-9872252Y38554944D01*
X-9872249Y38554945D01*
X-9764121Y38592917D01*
X-9764119Y38592918D01*
X-9755232Y38596039D01*
X-9747656Y38601635D01*
X-9739330Y38606043D01*
X-9738456Y38604393D01*
X-9682602Y38624818D01*
X-9613326Y38609282D01*
X-9563447Y38558758D01*
X-9548801Y38489288D01*
X-9574039Y38422929D01*
X-9585325Y38409989D01*
X-15604280Y32391034D01*
X-15613624Y32383568D01*
X-15613292Y32383178D01*
X-15620128Y32377360D01*
X-15627720Y32372570D01*
X-15633662Y32365842D01*
X-15633663Y32365841D01*
X-15662755Y32332900D01*
X-15668102Y32327212D01*
X-15679320Y32315994D01*
X-15682009Y32312406D01*
X-15682010Y32312405D01*
X-15685450Y32307816D01*
X-15691832Y32299977D01*
X-15699916Y32290823D01*
X-15722623Y32265112D01*
X-15726437Y32256989D01*
X-15728508Y32253836D01*
X-15736327Y32240824D01*
X-15738144Y32237505D01*
X-15743526Y32230324D01*
X-15746675Y32221923D01*
X-15746676Y32221922D01*
X-15759856Y32186764D01*
X-15763783Y32177447D01*
X-15779737Y32143466D01*
X-15779738Y32143463D01*
X-15783553Y32135337D01*
X-15784935Y32126463D01*
X-15786039Y32122850D01*
X-15789885Y32108193D01*
X-15790699Y32104490D01*
X-15793852Y32096080D01*
X-15797302Y32049657D01*
X-15798452Y32039644D01*
X-15800500Y32026491D01*
X-15800500Y32011296D01*
X-15800846Y32001959D01*
X-15804476Y31953108D01*
X-15802603Y31944332D01*
X-15801992Y31935375D01*
X-15801998Y31935375D01*
X-15800500Y31921182D01*
X-15800500Y24920181D01*
X-15801828Y24908296D01*
X-15801318Y24908255D01*
X-15802038Y24899309D01*
X-15804019Y24890553D01*
X-15803463Y24881593D01*
X-15800742Y24837736D01*
X-15800500Y24829933D01*
X-15800500Y24814060D01*
X-15799865Y24809626D01*
X-15799052Y24803950D01*
X-15798022Y24793894D01*
X-15795141Y24747462D01*
X-15792093Y24739018D01*
X-15791324Y24735306D01*
X-15787657Y24720601D01*
X-15786596Y24716973D01*
X-15785323Y24708082D01*
X-15766061Y24665718D01*
X-15762254Y24656363D01*
X-15749509Y24621057D01*
X-15749507Y24621053D01*
X-15746460Y24612613D01*
X-15741165Y24605365D01*
X-15739389Y24602025D01*
X-15731726Y24588911D01*
X-15729697Y24585739D01*
X-15725984Y24577572D01*
X-15720129Y24570777D01*
X-15720127Y24570774D01*
X-15695613Y24542325D01*
X-15689325Y24534405D01*
X-15681478Y24523664D01*
X-15670735Y24512921D01*
X-15664377Y24506075D01*
X-15632400Y24468963D01*
X-15624866Y24464080D01*
X-15618104Y24458181D01*
X-15618108Y24458176D01*
X-15607014Y24449200D01*
X-14685739Y23527925D01*
X-14651713Y23465613D01*
X-14650748Y23416950D01*
X-14675228Y23278118D01*
X-14675093Y23271930D01*
X-14674208Y23231397D01*
X-14673927Y23218503D01*
X-14641802Y23145495D01*
X-14632840Y23136915D01*
X-14632838Y23136913D01*
X-14593151Y23098921D01*
X-14584184Y23090337D01*
X-14528609Y23068725D01*
X-11042886Y22454098D01*
X-11036698Y22454233D01*
X-10995679Y22455128D01*
X-10995678Y22455128D01*
X-10983272Y22455399D01*
X-10910263Y22487524D01*
X-10855105Y22545142D01*
X-10833493Y22600716D01*
X-10639886Y23698716D01*
X-10255351Y23698716D01*
X-10255343Y23696795D01*
X-10255343Y23696780D01*
X-10254453Y23492852D01*
X-10254179Y23430170D01*
X-10252617Y23072141D01*
X-10211636Y22446901D01*
X-10132562Y21825330D01*
X-10015690Y21209745D01*
X-9861455Y20602443D01*
X-9860877Y20600636D01*
X-9860874Y20600627D01*
X-9805913Y20428930D01*
X-9670433Y20005690D01*
X-9669737Y20003901D01*
X-9669732Y20003886D01*
X-9605004Y19837439D01*
X-9443336Y19421712D01*
X-9442543Y19419993D01*
X-9442538Y19419980D01*
X-9298958Y19108531D01*
X-9181012Y18852686D01*
X-9180105Y18850997D01*
X-9180100Y18850988D01*
X-9096220Y18694881D01*
X-8884439Y18300737D01*
X-8554723Y17767922D01*
X-8193095Y17256230D01*
X-7800903Y16767569D01*
X-7799597Y16766131D01*
X-7799590Y16766123D01*
X-7385302Y16310029D01*
X-7379611Y16303763D01*
X-7378218Y16302406D01*
X-7126471Y16057166D01*
X-6930789Y15866541D01*
X-6456114Y15457534D01*
X-5957354Y15078268D01*
X-5955752Y15077198D01*
X-5955747Y15077194D01*
X-5593317Y14835026D01*
X-5436371Y14730158D01*
X-4895108Y14414503D01*
X-4893374Y14413629D01*
X-4337319Y14133354D01*
X-4337305Y14133348D01*
X-4335584Y14132480D01*
X-3759887Y13885141D01*
X-3170164Y13673409D01*
X-2568615Y13498073D01*
X-1957484Y13359788D01*
X-1339051Y13259070D01*
X-1337147Y13258878D01*
X-1337145Y13258878D01*
X-717540Y13196487D01*
X-717536Y13196487D01*
X-715622Y13196294D01*
X-713714Y13196219D01*
X-713699Y13196218D01*
X-91436Y13171770D01*
X-91432Y13171770D01*
X-89524Y13171695D01*
X380786Y13181957D01*
X534986Y13185321D01*
X534988Y13185321D01*
X536908Y13185363D01*
X1107427Y13232769D01*
X1159424Y13237090D01*
X1159425Y13237090D01*
X1161337Y13237249D01*
X1781433Y13327159D01*
X1783318Y13327551D01*
X2392998Y13454364D01*
X2393014Y13454368D01*
X2394885Y13454757D01*
X2999402Y13619568D01*
X3592731Y13820976D01*
X4172657Y14058230D01*
X4737017Y14330445D01*
X5283707Y14636606D01*
X5767455Y14947763D01*
X5809071Y14974531D01*
X5809075Y14974534D01*
X5810686Y14975570D01*
X6315989Y15346073D01*
X6383430Y15402163D01*
X6796246Y15745499D01*
X6796260Y15745512D01*
X6797730Y15746734D01*
X7254114Y16176056D01*
X7683436Y16632440D01*
X7684658Y16633910D01*
X7684671Y16633924D01*
X8082867Y17112702D01*
X8082868Y17112703D01*
X8084097Y17114181D01*
X8454600Y17619484D01*
X8507429Y17701615D01*
X8792532Y18144859D01*
X8793564Y18146463D01*
X9099725Y18693153D01*
X9371940Y19257513D01*
X9609194Y19837439D01*
X9810602Y20430768D01*
X9975413Y21035285D01*
X9975802Y21037156D01*
X9975806Y21037172D01*
X10102619Y21646852D01*
X10102619Y21646855D01*
X10103011Y21648737D01*
X10192921Y22268833D01*
X10244807Y22893262D01*
X10258866Y23430170D01*
X10239731Y24056459D01*
X10214945Y24326205D01*
X10182576Y24678479D01*
X10182574Y24678494D01*
X10182398Y24680411D01*
X10109564Y25153620D01*
X10087371Y25297810D01*
X10087370Y25297813D01*
X10087080Y25299700D01*
X9977297Y25805331D01*
X9954542Y25910136D01*
X9954540Y25910144D01*
X9954134Y25912014D01*
X9784054Y26515071D01*
X9767988Y26561079D01*
X9578110Y27104804D01*
X9578108Y27104809D01*
X9577476Y27106619D01*
X9335171Y27684452D01*
X9269882Y27816846D01*
X9190951Y27976902D01*
X9058041Y28246416D01*
X8747121Y28790413D01*
X8599277Y29015913D01*
X8404622Y29312812D01*
X8404611Y29312827D01*
X8403571Y29314414D01*
X8122736Y29690497D01*
X8029827Y29814918D01*
X8029818Y29814929D01*
X8028672Y29816464D01*
X7623823Y30294691D01*
X7612409Y30306615D01*
X7191855Y30745931D01*
X7190534Y30747311D01*
X7179169Y30757817D01*
X6731833Y31171330D01*
X6731827Y31171335D01*
X6730422Y31172634D01*
X6245202Y31569076D01*
X6120304Y31658990D01*
X5738252Y31934027D01*
X5738250Y31934028D01*
X5736685Y31935155D01*
X5599637Y32021626D01*
X5208404Y32268476D01*
X5208398Y32268479D01*
X5206768Y32269508D01*
X4657428Y32570887D01*
X4642402Y32577974D01*
X4092460Y32837342D01*
X4090713Y32838166D01*
X3508739Y33070351D01*
X3095058Y33206762D01*
X2915498Y33265972D01*
X2915494Y33265973D01*
X2913675Y33266573D01*
X2911826Y33267060D01*
X2911822Y33267061D01*
X2695526Y33324007D01*
X2307743Y33426102D01*
X2305857Y33426477D01*
X2305849Y33426479D01*
X1990573Y33489191D01*
X1693201Y33548342D01*
X1691314Y33548599D01*
X1691301Y33548601D01*
X1181650Y33617961D01*
X1072343Y33632837D01*
X1070437Y33632979D01*
X1070424Y33632980D01*
X637224Y33665172D01*
X447485Y33679272D01*
X92020Y33683925D01*
X-177110Y33687449D01*
X-177120Y33687449D01*
X-179042Y33687474D01*
X-180952Y33687382D01*
X-180967Y33687382D01*
X-802991Y33657503D01*
X-802999Y33657502D01*
X-804901Y33657411D01*
X-1427758Y33589197D01*
X-1429661Y33588870D01*
X-2023145Y33486891D01*
X-2045289Y33483086D01*
X-2655190Y33339474D01*
X-3255186Y33158895D01*
X-3256975Y33158235D01*
X-3256984Y33158232D01*
X-3841224Y32942695D01*
X-3841236Y32942690D01*
X-3843039Y32942025D01*
X-4416556Y32689671D01*
X-4973597Y32402776D01*
X-5512085Y32082410D01*
X-5728358Y31935155D01*
X-5949227Y31784770D01*
X-6030010Y31729767D01*
X-6525441Y31346163D01*
X-6526884Y31344898D01*
X-6526898Y31344886D01*
X-6995065Y30934315D01*
X-6996530Y30933030D01*
X-7441518Y30491907D01*
X-7858747Y30024442D01*
X-8246660Y29532377D01*
X-8603809Y29017549D01*
X-8604798Y29015919D01*
X-8604802Y29015913D01*
X-8927854Y28483539D01*
X-8927861Y28483526D01*
X-8928862Y28481877D01*
X-9220608Y27927361D01*
X-9221398Y27925607D01*
X-9221403Y27925597D01*
X-9369916Y27595908D01*
X-9477956Y27356068D01*
X-9478638Y27354267D01*
X-9478640Y27354263D01*
X-9504690Y27285505D01*
X-9699948Y26770130D01*
X-9700525Y26768273D01*
X-9700526Y26768269D01*
X-9779720Y26513222D01*
X-9885756Y26171733D01*
X-10034685Y25563108D01*
X-10035026Y25561222D01*
X-10141622Y24971736D01*
X-10146181Y24946527D01*
X-10146406Y24944625D01*
X-10146407Y24944619D01*
X-10156454Y24859729D01*
X-10219828Y24324289D01*
X-10224208Y24247159D01*
X-10247216Y23841968D01*
X-10255351Y23698716D01*
X-10639886Y23698716D01*
X-10522750Y24363026D01*
X-10524051Y24422641D01*
X-10529048Y24433998D01*
X-10531735Y24446116D01*
X-10527810Y24446986D01*
X-10534036Y24494985D01*
X-10510646Y24542193D01*
X-10514376Y24544569D01*
X-10507710Y24555033D01*
X-10499127Y24563998D01*
X-10477515Y24619572D01*
X-10166772Y26381882D01*
X-10168073Y26441497D01*
X-10200198Y26514505D01*
X-10209160Y26523085D01*
X-10209162Y26523087D01*
X-10248849Y26561079D01*
X-10257816Y26569663D01*
X-10313391Y26591275D01*
X-11407763Y26784243D01*
X-11471374Y26815769D01*
X-11507844Y26876683D01*
X-11510804Y26924774D01*
X-11495396Y27041812D01*
X-11494318Y27050000D01*
X-11514956Y27206762D01*
X-11575464Y27352841D01*
X-11671718Y27478282D01*
X-11797159Y27574536D01*
X-11943238Y27635044D01*
X-12100000Y27655682D01*
X-12256762Y27635044D01*
X-12402841Y27574536D01*
X-12528282Y27478282D01*
X-12624536Y27352841D01*
X-12685044Y27206762D01*
X-12691322Y27159070D01*
X-12693249Y27144435D01*
X-12721971Y27079507D01*
X-12781235Y27040415D01*
X-12840051Y27036794D01*
X-13333626Y27123824D01*
X-13799114Y27205902D01*
X-13805302Y27205767D01*
X-13846321Y27204872D01*
X-13846322Y27204872D01*
X-13858728Y27204601D01*
X-13870086Y27199603D01*
X-13870087Y27199603D01*
X-13872428Y27198573D01*
X-13931737Y27172476D01*
X-13950494Y27152882D01*
X-13977064Y27125127D01*
X-13986895Y27114858D01*
X-14008507Y27059284D01*
X-14319250Y25296974D01*
X-14319115Y25290786D01*
X-14318364Y25256388D01*
X-14317949Y25237359D01*
X-14312952Y25226002D01*
X-14310265Y25213884D01*
X-14314190Y25213014D01*
X-14307964Y25165015D01*
X-14331354Y25117807D01*
X-14327624Y25115431D01*
X-14334290Y25104967D01*
X-14342873Y25096002D01*
X-14364485Y25040428D01*
X-14365560Y25034331D01*
X-14385131Y24923341D01*
X-14416659Y24859729D01*
X-14477573Y24823259D01*
X-14548534Y24825512D01*
X-14598312Y24856126D01*
X-14762595Y25020409D01*
X-14796621Y25082721D01*
X-14799500Y25109504D01*
X-14799500Y31727996D01*
X-14779498Y31796117D01*
X-14762595Y31817091D01*
X-8067091Y38512595D01*
X-8004779Y38546621D01*
X-7977996Y38549500D01*
X-7727377Y38549501D01*
X-7710168Y38549501D01*
X-7707218Y38549780D01*
X-7707213Y38549780D01*
X-7687150Y38551676D01*
X-7687149Y38551676D01*
X-7679500Y38552399D01*
X-7672252Y38554944D01*
X-7672249Y38554945D01*
X-7564121Y38592917D01*
X-7564119Y38592918D01*
X-7555232Y38596039D01*
X-7547656Y38601635D01*
X-7539330Y38606043D01*
X-7538456Y38604393D01*
X-7482602Y38624818D01*
X-7413326Y38609282D01*
X-7363447Y38558758D01*
X-7348801Y38489288D01*
X-7374039Y38422929D01*
X-7385325Y38409989D01*
X-9304280Y36491034D01*
X-9313624Y36483568D01*
X-9313292Y36483178D01*
X-9320128Y36477360D01*
X-9327720Y36472570D01*
X-9333662Y36465842D01*
X-9333663Y36465841D01*
X-9362756Y36432899D01*
X-9368103Y36427211D01*
X-9379320Y36415994D01*
X-9382009Y36412406D01*
X-9382010Y36412405D01*
X-9385450Y36407816D01*
X-9391832Y36399977D01*
X-9422623Y36365112D01*
X-9426437Y36356989D01*
X-9428508Y36353836D01*
X-9436327Y36340824D01*
X-9438144Y36337505D01*
X-9443526Y36330324D01*
X-9446675Y36321923D01*
X-9446676Y36321922D01*
X-9459856Y36286764D01*
X-9463783Y36277447D01*
X-9479737Y36243466D01*
X-9479738Y36243463D01*
X-9483553Y36235337D01*
X-9484935Y36226463D01*
X-9486039Y36222850D01*
X-9489885Y36208193D01*
X-9490699Y36204490D01*
X-9493852Y36196080D01*
X-9497302Y36149657D01*
X-9498452Y36139644D01*
X-9500500Y36126491D01*
X-9500500Y36111296D01*
X-9500846Y36101959D01*
X-9504476Y36053108D01*
X-9502603Y36044332D01*
X-9501992Y36035375D01*
X-9501998Y36035375D01*
X-9500500Y36021182D01*
X-9500500Y35034005D01*
X-9501828Y35022120D01*
X-9501318Y35022079D01*
X-9502038Y35013133D01*
X-9504019Y35004377D01*
X-9501402Y34962204D01*
X-9500742Y34951560D01*
X-9500500Y34943757D01*
X-9500500Y34927884D01*
X-9499865Y34923450D01*
X-9499052Y34917774D01*
X-9498022Y34907718D01*
X-9495141Y34861286D01*
X-9492093Y34852842D01*
X-9491324Y34849130D01*
X-9487657Y34834425D01*
X-9486596Y34830797D01*
X-9485323Y34821906D01*
X-9466061Y34779542D01*
X-9462254Y34770187D01*
X-9449509Y34734881D01*
X-9449507Y34734877D01*
X-9446460Y34726437D01*
X-9441165Y34719189D01*
X-9439389Y34715849D01*
X-9431726Y34702735D01*
X-9429697Y34699563D01*
X-9425984Y34691396D01*
X-9420129Y34684601D01*
X-9420127Y34684598D01*
X-9402074Y34663647D01*
X-9372760Y34598984D01*
X-9371797Y34573160D01*
X-9372316Y34565247D01*
X-9372315Y34565243D01*
X-9373127Y34552861D01*
X-9369138Y34541110D01*
X-9369138Y34541109D01*
X-9362034Y34520183D01*
X-9353960Y34496397D01*
X-7584212Y31431103D01*
X-7544896Y31386272D01*
X-7473358Y31350994D01*
X-7460979Y31350182D01*
X-7460977Y31350182D01*
X-7421393Y31347587D01*
X-7393765Y31345776D01*
X-7382015Y31349765D01*
X-7382012Y31349765D01*
X-7343161Y31362953D01*
X-7343157Y31362955D01*
X-7337300Y31364943D01*
X-6627660Y31774654D01*
X-5792915Y32256594D01*
X-5792910Y32256597D01*
X-5787552Y32259691D01*
X-5742720Y32299007D01*
X-5737231Y32310138D01*
X-5729675Y32319985D01*
X-5726484Y32317536D01*
X-5693732Y32353150D01*
X-5642524Y32365576D01*
X-5643102Y32369968D01*
X-5630796Y32371588D01*
X-5618413Y32370776D01*
X-5606663Y32374765D01*
X-5606660Y32374765D01*
X-5567809Y32387953D01*
X-5567805Y32387955D01*
X-5561948Y32389943D01*
X-4930017Y32754789D01*
X-4017563Y33281594D01*
X-4017558Y33281597D01*
X-4012200Y33284691D01*
X-3967368Y33324007D01*
X-3953149Y33352841D01*
X-3937577Y33384418D01*
X-3937576Y33384420D01*
X-3932090Y33395546D01*
X-3926873Y33475139D01*
X-3946040Y33531603D01*
X-4082795Y33768470D01*
X3372237Y33768470D01*
X3378644Y33688964D01*
X3414989Y33617961D01*
X3424437Y33609922D01*
X3424438Y33609921D01*
X3448795Y33589197D01*
X3460403Y33579320D01*
X3465806Y33576308D01*
X3465808Y33576306D01*
X4789644Y32838166D01*
X5023361Y32707851D01*
X5080106Y32689531D01*
X5092476Y32690528D01*
X5104803Y32689092D01*
X5104338Y32685097D01*
X5151715Y32675245D01*
X5188643Y32637656D01*
X5192118Y32640406D01*
X5199819Y32630674D01*
X5205473Y32619629D01*
X5214921Y32611590D01*
X5214922Y32611589D01*
X5239460Y32590711D01*
X5250887Y32580988D01*
X5256290Y32577976D01*
X5256292Y32577974D01*
X6780167Y31728297D01*
X6813845Y31709519D01*
X6870590Y31691199D01*
X6906445Y31694088D01*
X6937728Y31696609D01*
X6937730Y31696609D01*
X6950096Y31697606D01*
X6985598Y31715779D01*
X7010054Y31728297D01*
X7010055Y31728298D01*
X7021099Y31733951D01*
X7059740Y31779365D01*
X7146728Y31935375D01*
X7236333Y32096080D01*
X7443898Y32468344D01*
X7494541Y32518099D01*
X7564046Y32532577D01*
X7602163Y32523391D01*
X7743238Y32464956D01*
X7900000Y32444318D01*
X7908188Y32445396D01*
X8048574Y32463878D01*
X8056762Y32464956D01*
X8202841Y32525464D01*
X8328282Y32621718D01*
X8424536Y32747159D01*
X8485044Y32893238D01*
X8505682Y33050000D01*
X8491273Y33159447D01*
X8486122Y33198574D01*
X8485044Y33206762D01*
X8424536Y33352841D01*
X8328282Y33478282D01*
X8202841Y33574536D01*
X8200462Y33575521D01*
X8153285Y33624999D01*
X8139849Y33694713D01*
X8155229Y33744097D01*
X8780426Y34865374D01*
X8783443Y34870785D01*
X8801763Y34927530D01*
X8795356Y35007036D01*
X8759011Y35078039D01*
X8713597Y35116680D01*
X8708194Y35119692D01*
X8708192Y35119694D01*
X7156050Y35985132D01*
X7150639Y35988149D01*
X7093894Y36006469D01*
X7081524Y36005472D01*
X7069197Y36006908D01*
X7069662Y36010903D01*
X7022285Y36020755D01*
X6985357Y36058344D01*
X6981882Y36055594D01*
X6974181Y36065326D01*
X6968527Y36076371D01*
X6923113Y36115012D01*
X6917710Y36118024D01*
X6917708Y36118026D01*
X5756897Y36765267D01*
X5707141Y36815911D01*
X5692258Y36875316D01*
X5692258Y38875566D01*
X5693586Y38887446D01*
X5693075Y38887487D01*
X5693795Y38896435D01*
X5695776Y38905190D01*
X5692500Y38957997D01*
X5692258Y38965799D01*
X5692258Y38981682D01*
X5691621Y38986132D01*
X5690810Y38991800D01*
X5689780Y39001851D01*
X5687455Y39039322D01*
X5687455Y39039323D01*
X5686899Y39048281D01*
X5683851Y39056725D01*
X5683086Y39060418D01*
X5679411Y39075158D01*
X5678354Y39078774D01*
X5677081Y39087660D01*
X5657825Y39130012D01*
X5654013Y39139375D01*
X5638218Y39183129D01*
X5632920Y39190381D01*
X5631141Y39193727D01*
X5623484Y39206831D01*
X5621456Y39210002D01*
X5617742Y39218170D01*
X5611426Y39225500D01*
X5587368Y39253421D01*
X5581083Y39261337D01*
X5576110Y39268144D01*
X5576104Y39268151D01*
X5573235Y39272078D01*
X5562499Y39282814D01*
X5556141Y39289661D01*
X5530017Y39319980D01*
X5530015Y39319982D01*
X5524158Y39326779D01*
X5518172Y39330659D01*
X5480485Y39389731D01*
X5475499Y39424827D01*
X5475499Y39689832D01*
X5475499Y39689833D01*
X6524500Y39689833D01*
X6524501Y38985168D01*
X6524780Y38982218D01*
X6524780Y38982213D01*
X6526676Y38962150D01*
X6527399Y38954500D01*
X6529944Y38947252D01*
X6529945Y38947249D01*
X6567668Y38839832D01*
X6571039Y38830232D01*
X6576634Y38822657D01*
X6576635Y38822655D01*
X6614676Y38771152D01*
X6649289Y38724289D01*
X6656860Y38718697D01*
X6747655Y38651635D01*
X6747657Y38651634D01*
X6755232Y38646039D01*
X6764119Y38642918D01*
X6764121Y38642917D01*
X6872252Y38604944D01*
X6872254Y38604943D01*
X6879500Y38602399D01*
X6887144Y38601676D01*
X6887146Y38601676D01*
X6895121Y38600922D01*
X6910167Y38599500D01*
X6927359Y38599500D01*
X7177997Y38599501D01*
X7246116Y38579499D01*
X7267091Y38562596D01*
X11594606Y34235081D01*
X11628632Y34172769D01*
X11631511Y34145986D01*
X11631511Y27719994D01*
X11611509Y27651873D01*
X11557853Y27605380D01*
X11527391Y27595908D01*
X11377675Y27569509D01*
X10202391Y27362275D01*
X10196624Y27360032D01*
X10196623Y27360032D01*
X10158511Y27345211D01*
X10146816Y27340663D01*
X10137849Y27332079D01*
X10098162Y27294087D01*
X10098160Y27294085D01*
X10089198Y27285505D01*
X10057073Y27212497D01*
X10056802Y27200092D01*
X10056802Y27200091D01*
X10056004Y27163510D01*
X10055772Y27152882D01*
X10366515Y25390572D01*
X10388127Y25334998D01*
X10396710Y25326033D01*
X10403376Y25315569D01*
X10399987Y25313410D01*
X10422257Y25270404D01*
X10416415Y25218074D01*
X10420735Y25217116D01*
X10418048Y25204998D01*
X10413051Y25193641D01*
X10412780Y25181236D01*
X10412780Y25181235D01*
X10411918Y25141718D01*
X10411750Y25134026D01*
X10722493Y23371716D01*
X10744105Y23316142D01*
X10799263Y23258524D01*
X10872272Y23226399D01*
X10884678Y23226128D01*
X10884679Y23226128D01*
X10925698Y23225233D01*
X10931886Y23225098D01*
X14417609Y23839725D01*
X14473184Y23861337D01*
X14524448Y23910413D01*
X14587488Y23943071D01*
X14600005Y23944279D01*
X14600000Y23944318D01*
X14756762Y23964956D01*
X14902841Y24025464D01*
X15028282Y24121718D01*
X15124536Y24247159D01*
X15185044Y24393238D01*
X15192412Y24449200D01*
X15204604Y24541812D01*
X15205682Y24550000D01*
X15185044Y24706762D01*
X15124536Y24852841D01*
X15028282Y24978282D01*
X14902841Y25074536D01*
X14756762Y25135044D01*
X14600000Y25155682D01*
X14493935Y25141718D01*
X14423788Y25152657D01*
X14370689Y25199785D01*
X14353404Y25244760D01*
X14352522Y25249765D01*
X14253485Y25811428D01*
X14244141Y25835455D01*
X14236371Y25855436D01*
X14236371Y25855437D01*
X14231873Y25867002D01*
X14223290Y25875967D01*
X14216624Y25886431D01*
X14220013Y25888590D01*
X14197743Y25931596D01*
X14203585Y25983926D01*
X14199265Y25984884D01*
X14201952Y25997002D01*
X14206949Y26008359D01*
X14208250Y26067974D01*
X13897507Y27830284D01*
X13888163Y27854311D01*
X13880393Y27874292D01*
X13880393Y27874293D01*
X13875895Y27885858D01*
X13820737Y27943476D01*
X13747728Y27975601D01*
X13735322Y27975872D01*
X13735321Y27975872D01*
X13694302Y27976767D01*
X13688114Y27976902D01*
X12780390Y27816846D01*
X12709832Y27824715D01*
X12654728Y27869482D01*
X12632511Y27940932D01*
X12632511Y34335308D01*
X12633839Y34347193D01*
X12633329Y34347234D01*
X12634049Y34356180D01*
X12636030Y34364936D01*
X12632753Y34417753D01*
X12632511Y34425556D01*
X12632511Y34441429D01*
X12631063Y34451541D01*
X12630033Y34461595D01*
X12628206Y34491037D01*
X12627152Y34508027D01*
X12624104Y34516471D01*
X12623335Y34520183D01*
X12619668Y34534888D01*
X12618607Y34538516D01*
X12617334Y34547407D01*
X12598072Y34589771D01*
X12594265Y34599126D01*
X12581520Y34634432D01*
X12581518Y34634436D01*
X12578471Y34642876D01*
X12573176Y34650124D01*
X12571400Y34653464D01*
X12563737Y34666578D01*
X12561708Y34669750D01*
X12557995Y34677917D01*
X12552140Y34684712D01*
X12552138Y34684715D01*
X12527624Y34713164D01*
X12521335Y34721085D01*
X12516363Y34727891D01*
X12513489Y34731825D01*
X12502746Y34742568D01*
X12496388Y34749415D01*
X12464411Y34786526D01*
X12456877Y34791409D01*
X12450115Y34797308D01*
X12450119Y34797313D01*
X12439025Y34806289D01*
X7912404Y39332910D01*
X7878378Y39395222D01*
X7875499Y39422005D01*
X7875499Y39689832D01*
X7872601Y39720500D01*
X7870055Y39727751D01*
X7832083Y39835879D01*
X7832082Y39835881D01*
X7828961Y39844768D01*
X7817588Y39860167D01*
X7756303Y39943140D01*
X7750711Y39950711D01*
X7712463Y39978961D01*
X7652345Y40023365D01*
X7652343Y40023366D01*
X7644768Y40028961D01*
X7635881Y40032082D01*
X7635879Y40032083D01*
X7527748Y40070056D01*
X7527746Y40070057D01*
X7520500Y40072601D01*
X7512856Y40073324D01*
X7512854Y40073324D01*
X7504879Y40074078D01*
X7489833Y40075500D01*
X7200147Y40075500D01*
X6910168Y40075499D01*
X6907218Y40075220D01*
X6907213Y40075220D01*
X6887150Y40073324D01*
X6887149Y40073324D01*
X6879500Y40072601D01*
X6872252Y40070056D01*
X6872249Y40070055D01*
X6764121Y40032083D01*
X6764119Y40032082D01*
X6755232Y40028961D01*
X6747657Y40023366D01*
X6747655Y40023365D01*
X6687537Y39978961D01*
X6649289Y39950711D01*
X6643697Y39943140D01*
X6582413Y39860167D01*
X6571039Y39844768D01*
X6567918Y39835881D01*
X6567917Y39835879D01*
X6529945Y39727751D01*
X6527399Y39720500D01*
X6524500Y39689833D01*
X5475499Y39689833D01*
X5472601Y39720500D01*
X5470055Y39727751D01*
X5432083Y39835879D01*
X5432082Y39835881D01*
X5428961Y39844768D01*
X5417588Y39860167D01*
X5356303Y39943140D01*
X5350711Y39950711D01*
X5312463Y39978961D01*
X5252345Y40023365D01*
X5252343Y40023366D01*
X5244768Y40028961D01*
X5235881Y40032082D01*
X5235879Y40032083D01*
X5127748Y40070056D01*
X5127746Y40070057D01*
X5120500Y40072601D01*
X5112856Y40073324D01*
X5112854Y40073324D01*
X5104879Y40074078D01*
X5089833Y40075500D01*
X4800147Y40075500D01*
X4510168Y40075499D01*
X4507218Y40075220D01*
X4507213Y40075220D01*
X4487150Y40073324D01*
X4487149Y40073324D01*
X4479500Y40072601D01*
X4472252Y40070056D01*
X4472249Y40070055D01*
X4364121Y40032083D01*
X4364119Y40032082D01*
X4355232Y40028961D01*
X4347657Y40023366D01*
X4347655Y40023365D01*
X4287537Y39978961D01*
X4249289Y39950711D01*
X4243697Y39943140D01*
X4182413Y39860167D01*
X4171039Y39844768D01*
X4167918Y39835881D01*
X4167917Y39835879D01*
X4129945Y39727751D01*
X4127399Y39720500D01*
X4124500Y39689833D01*
X4124501Y38985168D01*
X4124780Y38982218D01*
X4124780Y38982213D01*
X4126676Y38962150D01*
X4127399Y38954500D01*
X4129944Y38947252D01*
X4129945Y38947249D01*
X4167668Y38839832D01*
X4171039Y38830232D01*
X4176634Y38822657D01*
X4176635Y38822655D01*
X4214676Y38771152D01*
X4249289Y38724289D01*
X4256860Y38718697D01*
X4347655Y38651635D01*
X4347657Y38651634D01*
X4355232Y38646039D01*
X4364119Y38642918D01*
X4364121Y38642917D01*
X4472252Y38604944D01*
X4472254Y38604943D01*
X4479500Y38602399D01*
X4487144Y38601676D01*
X4487146Y38601676D01*
X4495121Y38600922D01*
X4510167Y38599500D01*
X4565258Y38599500D01*
X4633379Y38579498D01*
X4679872Y38525842D01*
X4691258Y38473500D01*
X4691258Y36190744D01*
X4675307Y36129383D01*
X3390557Y33825215D01*
X3372237Y33768470D01*
X-4082795Y33768470D01*
X-4497641Y34487004D01*
X-4514379Y34555999D01*
X-4491159Y34623091D01*
X-4465226Y34649967D01*
X-4378264Y34716695D01*
X-4371718Y34721718D01*
X-4275464Y34847159D01*
X-4274287Y34850000D01*
X-705682Y34850000D01*
X-685044Y34693238D01*
X-624536Y34547159D01*
X-528282Y34421718D01*
X-402841Y34325464D01*
X-256762Y34264956D01*
X-100000Y34244318D01*
X-91812Y34245396D01*
X48574Y34263878D01*
X56762Y34264956D01*
X202841Y34325464D01*
X328282Y34421718D01*
X424536Y34547159D01*
X485044Y34693238D01*
X505682Y34850000D01*
X495363Y34928381D01*
X486122Y34998574D01*
X485044Y35006762D01*
X478700Y35022079D01*
X439593Y35116491D01*
X432004Y35187081D01*
X463783Y35250568D01*
X524842Y35286795D01*
X595793Y35284261D01*
X604206Y35281123D01*
X643238Y35264956D01*
X800000Y35244318D01*
X808188Y35245396D01*
X948574Y35263878D01*
X956762Y35264956D01*
X1102841Y35325464D01*
X1228282Y35421718D01*
X1324536Y35547159D01*
X1385044Y35693238D01*
X1405682Y35850000D01*
X1385044Y36006762D01*
X1324536Y36152841D01*
X1253048Y36246006D01*
X1227448Y36312226D01*
X1227011Y36322710D01*
X1227011Y38169442D01*
X1247013Y38237563D01*
X1300669Y38284056D01*
X1370943Y38294160D01*
X1435523Y38264666D01*
X1452974Y38246145D01*
X1466692Y38228267D01*
X1466695Y38228264D01*
X1471718Y38221718D01*
X1597159Y38125464D01*
X1743238Y38064956D01*
X1900000Y38044318D01*
X1908188Y38045396D01*
X2048574Y38063878D01*
X2056762Y38064956D01*
X2202841Y38125464D01*
X2328282Y38221718D01*
X2424536Y38347159D01*
X2485044Y38493238D01*
X2505682Y38650000D01*
X2485044Y38806762D01*
X2424536Y38952841D01*
X2419506Y38959396D01*
X2417381Y38963077D01*
X2400500Y39026078D01*
X2400500Y44528117D01*
X2420502Y44596238D01*
X2474158Y44642731D01*
X2544432Y44652835D01*
X2600561Y44630053D01*
X2717336Y44545211D01*
X2735479Y44532029D01*
X2741507Y44529345D01*
X2741509Y44529344D01*
X2744265Y44528117D01*
X2893812Y44461534D01*
X2900261Y44460163D01*
X2900265Y44460162D01*
X2985247Y44442099D01*
X3063342Y44425500D01*
X3236658Y44425500D01*
X3314753Y44442099D01*
X3399735Y44460162D01*
X3399739Y44460163D01*
X3406188Y44461534D01*
X3555735Y44528117D01*
X3558491Y44529344D01*
X3558493Y44529345D01*
X3564521Y44532029D01*
X3582665Y44545211D01*
X3699398Y44630023D01*
X3704737Y44633902D01*
X3721785Y44652835D01*
X3816290Y44757793D01*
X3816291Y44757794D01*
X3820709Y44762701D01*
X3860652Y44831884D01*
X3904064Y44907075D01*
X3904065Y44907076D01*
X3907368Y44912798D01*
X3960925Y45077632D01*
X3973787Y45200000D01*
X11024422Y45200000D01*
X11044722Y44812662D01*
X11045235Y44809422D01*
X11045236Y44809414D01*
X11067042Y44671736D01*
X11105398Y44429567D01*
X11205786Y44054913D01*
X11344786Y43692806D01*
X11520875Y43347211D01*
X11732124Y43021916D01*
X11976219Y42720484D01*
X12250484Y42446219D01*
X12551916Y42202124D01*
X12877211Y41990875D01*
X13222806Y41814786D01*
X13403792Y41745312D01*
X13565271Y41683326D01*
X13584913Y41675786D01*
X13959567Y41575398D01*
X14163201Y41543146D01*
X14339414Y41515236D01*
X14339422Y41515235D01*
X14342662Y41514722D01*
X14730000Y41494422D01*
X15117338Y41514722D01*
X15120578Y41515235D01*
X15120586Y41515236D01*
X15296799Y41543146D01*
X15500433Y41575398D01*
X15875087Y41675786D01*
X15894730Y41683326D01*
X16128346Y41773003D01*
X16199110Y41778742D01*
X16261743Y41745312D01*
X16296360Y41683326D01*
X16299500Y41655372D01*
X16299500Y40926133D01*
X16279498Y40858012D01*
X16262595Y40837038D01*
X16256860Y40831303D01*
X16249289Y40825711D01*
X16171039Y40719768D01*
X16127399Y40595500D01*
X16124500Y40564833D01*
X16124501Y39860168D01*
X16127399Y39829500D01*
X16129944Y39822252D01*
X16129945Y39822249D01*
X16163131Y39727751D01*
X16171039Y39705232D01*
X16176634Y39697657D01*
X16176635Y39697655D01*
X16219343Y39639833D01*
X16249289Y39599289D01*
X16256860Y39593697D01*
X16347655Y39526635D01*
X16347657Y39526634D01*
X16355232Y39521039D01*
X16364119Y39517918D01*
X16364121Y39517917D01*
X16472252Y39479944D01*
X16472254Y39479943D01*
X16479500Y39477399D01*
X16487143Y39476677D01*
X16487145Y39476676D01*
X16500222Y39475440D01*
X16566157Y39449114D01*
X16607393Y39391320D01*
X16610837Y39320407D01*
X16575396Y39258889D01*
X16512322Y39226298D01*
X16500216Y39224559D01*
X16479500Y39222601D01*
X16472252Y39220056D01*
X16472249Y39220055D01*
X16364121Y39182083D01*
X16364119Y39182082D01*
X16355232Y39178961D01*
X16347657Y39173366D01*
X16347655Y39173365D01*
X16301636Y39139375D01*
X16249289Y39100711D01*
X16243697Y39093140D01*
X16194165Y39026078D01*
X16171039Y38994768D01*
X16167918Y38985881D01*
X16167917Y38985879D01*
X16133364Y38887487D01*
X16127399Y38870500D01*
X16124500Y38839833D01*
X16124501Y38135168D01*
X16124780Y38132219D01*
X16124780Y38132213D01*
X16126676Y38112150D01*
X16127399Y38104500D01*
X16171039Y37980232D01*
X16176636Y37972655D01*
X16176636Y37972654D01*
X16202902Y37937093D01*
X16227285Y37870415D01*
X16219381Y37822606D01*
X16220254Y37822372D01*
X16218115Y37814387D01*
X16214956Y37806762D01*
X16194318Y37650000D01*
X16214956Y37493238D01*
X16275464Y37347159D01*
X16371718Y37221718D01*
X16497159Y37125464D01*
X16643238Y37064956D01*
X16800000Y37044318D01*
X16808188Y37045396D01*
X16948574Y37063878D01*
X16956762Y37064956D01*
X17102841Y37125464D01*
X17228282Y37221718D01*
X17324536Y37347159D01*
X17385044Y37493238D01*
X17405682Y37650000D01*
X17385044Y37806762D01*
X17381885Y37814387D01*
X17379746Y37822372D01*
X17381102Y37822735D01*
X17374452Y37884610D01*
X17397098Y37937093D01*
X17423364Y37972654D01*
X17423364Y37972655D01*
X17428961Y37980232D01*
X17472601Y38104500D01*
X17475500Y38135167D01*
X17475499Y38839832D01*
X17472601Y38870500D01*
X17466636Y38887487D01*
X17432083Y38985879D01*
X17432082Y38985881D01*
X17428961Y38994768D01*
X17405836Y39026078D01*
X17356303Y39093140D01*
X17350711Y39100711D01*
X17298364Y39139375D01*
X17252345Y39173365D01*
X17252343Y39173366D01*
X17244768Y39178961D01*
X17235881Y39182082D01*
X17235879Y39182083D01*
X17127748Y39220056D01*
X17127746Y39220057D01*
X17120500Y39222601D01*
X17112857Y39223323D01*
X17112855Y39223324D01*
X17099778Y39224560D01*
X17033843Y39250886D01*
X16992607Y39308680D01*
X16989163Y39379593D01*
X17024604Y39441111D01*
X17087678Y39473702D01*
X17099784Y39475441D01*
X17120500Y39477399D01*
X17127748Y39479944D01*
X17127751Y39479945D01*
X17235879Y39517917D01*
X17235881Y39517918D01*
X17244768Y39521039D01*
X17252343Y39526634D01*
X17252345Y39526635D01*
X17343140Y39593697D01*
X17350711Y39599289D01*
X17380657Y39639833D01*
X17423365Y39697655D01*
X17423366Y39697657D01*
X17428961Y39705232D01*
X17436870Y39727751D01*
X17470056Y39822252D01*
X17470057Y39822254D01*
X17472601Y39829500D01*
X17475500Y39860167D01*
X17475499Y40564832D01*
X17472601Y40595500D01*
X17428961Y40719768D01*
X17350711Y40825711D01*
X17343140Y40831303D01*
X17337405Y40837038D01*
X17303379Y40899350D01*
X17300500Y40926133D01*
X17300500Y42485013D01*
X17320502Y42553134D01*
X17337405Y42574108D01*
X17483781Y42720484D01*
X17727876Y43021916D01*
X17939125Y43347211D01*
X18115214Y43692806D01*
X18254214Y44054913D01*
X18354602Y44429567D01*
X18392958Y44671736D01*
X18414764Y44809414D01*
X18414765Y44809422D01*
X18415278Y44812662D01*
X18435578Y45200000D01*
X18415278Y45587338D01*
X18414394Y45592925D01*
X18379672Y45812145D01*
X18354602Y45970433D01*
X18254214Y46345087D01*
X18115214Y46707194D01*
X17939125Y47052789D01*
X17727876Y47378084D01*
X17483781Y47679516D01*
X17209516Y47953781D01*
X16908084Y48197876D01*
X16582789Y48409125D01*
X16237194Y48585214D01*
X15875087Y48724214D01*
X15500433Y48824602D01*
X15296799Y48856854D01*
X15120586Y48884764D01*
X15120578Y48884765D01*
X15117338Y48885278D01*
X14730000Y48905578D01*
X14342662Y48885278D01*
X14339422Y48884765D01*
X14339414Y48884764D01*
X14163201Y48856854D01*
X13959567Y48824602D01*
X13584913Y48724214D01*
X13222806Y48585214D01*
X12877211Y48409125D01*
X12551916Y48197876D01*
X12250484Y47953781D01*
X11976219Y47679516D01*
X11732124Y47378084D01*
X11520875Y47052789D01*
X11344786Y46707194D01*
X11205786Y46345087D01*
X11105398Y45970433D01*
X11080328Y45812145D01*
X11045607Y45592925D01*
X11044722Y45587338D01*
X11024422Y45200000D01*
X3973787Y45200000D01*
X3979042Y45250000D01*
X3960925Y45422368D01*
X3942218Y45479944D01*
X3909410Y45580918D01*
X3909409Y45580920D01*
X3907368Y45587202D01*
X3896019Y45606860D01*
X3824012Y45731578D01*
X3820709Y45737299D01*
X3744219Y45822249D01*
X3709152Y45861195D01*
X3709150Y45861196D01*
X3704737Y45866098D01*
X3640068Y45913083D01*
X3569863Y45964090D01*
X3569862Y45964091D01*
X3564521Y45967971D01*
X3558493Y45970655D01*
X3558491Y45970656D01*
X3412214Y46035783D01*
X3406188Y46038466D01*
X3399739Y46039837D01*
X3399735Y46039838D01*
X3311444Y46058604D01*
X3236658Y46074500D01*
X3063342Y46074500D01*
X2988556Y46058604D01*
X2900265Y46039838D01*
X2900261Y46039837D01*
X2893812Y46038466D01*
X2887786Y46035783D01*
X2741509Y45970656D01*
X2741507Y45970655D01*
X2735479Y45967971D01*
X2730138Y45964091D01*
X2730137Y45964090D01*
X2600561Y45869947D01*
X2533693Y45846089D01*
X2464542Y45862169D01*
X2415062Y45913083D01*
X2400500Y45971883D01*
X2400500Y46573922D01*
X2417381Y46636923D01*
X2419506Y46640604D01*
X2424536Y46647159D01*
X2485044Y46793238D01*
X2505682Y46950000D01*
X2485044Y47106762D01*
X2424536Y47252841D01*
X2328282Y47378282D01*
X2202841Y47474536D01*
X2056762Y47535044D01*
X1900000Y47555682D01*
X1743238Y47535044D01*
X1597159Y47474536D01*
X1471718Y47378282D01*
X1375464Y47252841D01*
X1314956Y47106762D01*
X1294318Y46950000D01*
X1314956Y46793238D01*
X1375464Y46647159D01*
X1380494Y46640604D01*
X1382619Y46636923D01*
X1399500Y46573922D01*
X1399500Y45936863D01*
X1379498Y45868742D01*
X1325842Y45822249D01*
X1255568Y45812145D01*
X1190988Y45841639D01*
X1171757Y45862537D01*
X1168548Y45866930D01*
X1158235Y45884581D01*
X1156209Y45887750D01*
X1152495Y45895917D01*
X1146640Y45902712D01*
X1146638Y45902715D01*
X1122124Y45931164D01*
X1115835Y45939085D01*
X1110863Y45945891D01*
X1107989Y45949825D01*
X1097246Y45960568D01*
X1090888Y45967415D01*
X1090409Y45967971D01*
X1058911Y46004526D01*
X1051377Y46009409D01*
X1044615Y46015308D01*
X1044619Y46015313D01*
X1033525Y46024289D01*
X480002Y46577812D01*
X445976Y46640124D01*
X452688Y46715123D01*
X485044Y46793238D01*
X505682Y46950000D01*
X485044Y47106762D01*
X424536Y47252841D01*
X328282Y47378282D01*
X202841Y47474536D01*
X56762Y47535044D01*
X-100000Y47555682D01*
X-256762Y47535044D01*
X-402841Y47474536D01*
X-528282Y47378282D01*
X-624536Y47252841D01*
X-685044Y47106762D01*
X-705682Y46950000D01*
X-685044Y46793238D01*
X-624536Y46647159D01*
X-619506Y46640604D01*
X-617381Y46636923D01*
X-600500Y46573922D01*
X-600500Y46520181D01*
X-601828Y46508296D01*
X-601318Y46508255D01*
X-602038Y46499309D01*
X-604019Y46490553D01*
X-603463Y46481593D01*
X-600742Y46437736D01*
X-600500Y46429933D01*
X-600500Y46414060D01*
X-599865Y46409626D01*
X-599052Y46403950D01*
X-598022Y46393894D01*
X-595141Y46347462D01*
X-592093Y46339018D01*
X-591324Y46335306D01*
X-587657Y46320601D01*
X-586596Y46316973D01*
X-585323Y46308082D01*
X-566061Y46265718D01*
X-562254Y46256363D01*
X-549509Y46221057D01*
X-549507Y46221053D01*
X-546460Y46212613D01*
X-541165Y46205365D01*
X-539389Y46202025D01*
X-531726Y46188911D01*
X-529697Y46185739D01*
X-525984Y46177572D01*
X-520129Y46170777D01*
X-520127Y46170774D01*
X-495613Y46142325D01*
X-489325Y46134405D01*
X-481478Y46123664D01*
X-470735Y46112921D01*
X-464377Y46106075D01*
X-432400Y46068963D01*
X-424866Y46064080D01*
X-418104Y46058181D01*
X-418108Y46058176D01*
X-407014Y46049200D01*
X189106Y45453080D01*
X223132Y45390768D01*
X226011Y45363985D01*
X226011Y44952784D01*
X206009Y44884663D01*
X152353Y44838170D01*
X82079Y44828066D01*
X67399Y44831078D01*
X64390Y44831884D01*
X56762Y44835044D01*
X48578Y44836121D01*
X48576Y44836122D01*
X-91812Y44854604D01*
X-100000Y44855682D01*
X-256762Y44835044D01*
X-402841Y44774536D01*
X-528282Y44678282D01*
X-624536Y44552841D01*
X-685044Y44406762D01*
X-705682Y44250000D01*
X-685044Y44093238D01*
X-624536Y43947159D01*
X-619506Y43940604D01*
X-617381Y43936923D01*
X-600500Y43873922D01*
X-600500Y35226078D01*
X-617381Y35163077D01*
X-619506Y35159396D01*
X-624536Y35152841D01*
X-652190Y35086079D01*
X-678699Y35022079D01*
X-685044Y35006762D01*
X-686122Y34998574D01*
X-695363Y34928381D01*
X-705682Y34850000D01*
X-4274287Y34850000D01*
X-4214956Y34993238D01*
X-4213489Y35004377D01*
X-4195396Y35141812D01*
X-4194318Y35150000D01*
X-4214956Y35306762D01*
X-4275464Y35452841D01*
X-4371718Y35578282D01*
X-4497159Y35674536D01*
X-4643238Y35735044D01*
X-4800000Y35755682D01*
X-4956762Y35735044D01*
X-4964391Y35731884D01*
X-5065655Y35689939D01*
X-5136245Y35682350D01*
X-5199732Y35714129D01*
X-5222992Y35743348D01*
X-5229490Y35754604D01*
X-5715788Y36596897D01*
X-5755104Y36641728D01*
X-5826642Y36677006D01*
X-5839021Y36677818D01*
X-5839023Y36677818D01*
X-5878607Y36680413D01*
X-5906235Y36682224D01*
X-5917985Y36678235D01*
X-5917988Y36678235D01*
X-5956839Y36665047D01*
X-5956843Y36665045D01*
X-5962700Y36663057D01*
X-6498286Y36353836D01*
X-7507085Y35771406D01*
X-7507090Y35771403D01*
X-7512448Y35768309D01*
X-7557280Y35728993D01*
X-7562769Y35717862D01*
X-7570325Y35708015D01*
X-7573516Y35710464D01*
X-7606268Y35674850D01*
X-7657476Y35662424D01*
X-7656898Y35658032D01*
X-7669204Y35656412D01*
X-7681587Y35657224D01*
X-7693337Y35653235D01*
X-7693340Y35653235D01*
X-7732191Y35640047D01*
X-7732195Y35640045D01*
X-7738052Y35638057D01*
X-8270772Y35330491D01*
X-8310500Y35307554D01*
X-8379495Y35290816D01*
X-8446587Y35314036D01*
X-8490474Y35369844D01*
X-8499500Y35416673D01*
X-8499500Y35827996D01*
X-8479498Y35896117D01*
X-8462595Y35917091D01*
X-5867091Y38512595D01*
X-5804779Y38546621D01*
X-5777996Y38549500D01*
X-5527377Y38549501D01*
X-5510168Y38549501D01*
X-5507218Y38549780D01*
X-5507213Y38549780D01*
X-5487150Y38551676D01*
X-5487149Y38551676D01*
X-5479500Y38552399D01*
X-5472252Y38554944D01*
X-5472249Y38554945D01*
X-5364121Y38592917D01*
X-5364119Y38592918D01*
X-5355232Y38596039D01*
X-5347657Y38601634D01*
X-5347655Y38601635D01*
X-5256860Y38668697D01*
X-5249289Y38674289D01*
X-5186126Y38759805D01*
X-5176635Y38772655D01*
X-5176634Y38772657D01*
X-5171039Y38780232D01*
X-5164597Y38798574D01*
X-5129944Y38897252D01*
X-5129943Y38897254D01*
X-5127399Y38904500D01*
X-5124500Y38935167D01*
X-5124501Y39639832D01*
X-5127399Y39670500D01*
X-5133146Y39686866D01*
X-5167917Y39785879D01*
X-5167918Y39785881D01*
X-5171039Y39794768D01*
X-5191336Y39822249D01*
X-5243697Y39893140D01*
X-5249289Y39900711D01*
X-5256860Y39906303D01*
X-5347655Y39973365D01*
X-5347657Y39973366D01*
X-5355232Y39978961D01*
X-5364119Y39982082D01*
X-5364121Y39982083D01*
X-5472252Y40020056D01*
X-5472254Y40020057D01*
X-5479500Y40022601D01*
X-5487144Y40023324D01*
X-5487146Y40023324D01*
X-5495121Y40024078D01*
X-5510167Y40025500D01*
X-5799853Y40025500D01*
X-6089832Y40025499D01*
X-6092782Y40025220D01*
X-6092787Y40025220D01*
X-6112850Y40023324D01*
X-6112851Y40023324D01*
X-6120500Y40022601D01*
X-6127748Y40020056D01*
X-6127751Y40020055D01*
X-6235879Y39982083D01*
X-6235881Y39982082D01*
X-6244768Y39978961D01*
X-6252343Y39973366D01*
X-6252345Y39973365D01*
X-6343140Y39906303D01*
X-6350711Y39900711D01*
X-6356303Y39893140D01*
X-6408663Y39822249D01*
X-6428961Y39794768D01*
X-6432082Y39785881D01*
X-6432083Y39785879D01*
X-6466854Y39686866D01*
X-6472601Y39670500D01*
X-6475500Y39639833D01*
X-6475500Y39372004D01*
X-6495502Y39303883D01*
X-6512405Y39282909D01*
X-7184989Y38610325D01*
X-7247301Y38576299D01*
X-7318116Y38581364D01*
X-7374952Y38623911D01*
X-7399763Y38690431D01*
X-7384672Y38759805D01*
X-7377431Y38771152D01*
X-7376635Y38772656D01*
X-7371039Y38780232D01*
X-7364597Y38798574D01*
X-7329944Y38897252D01*
X-7329943Y38897254D01*
X-7327399Y38904500D01*
X-7324500Y38935167D01*
X-7324501Y39639832D01*
X-7327399Y39670500D01*
X-7333146Y39686866D01*
X-7367917Y39785879D01*
X-7367918Y39785881D01*
X-7371039Y39794768D01*
X-7391336Y39822249D01*
X-7443697Y39893140D01*
X-7449289Y39900711D01*
X-7456860Y39906303D01*
X-7547655Y39973365D01*
X-7547657Y39973366D01*
X-7555232Y39978961D01*
X-7564119Y39982082D01*
X-7564121Y39982083D01*
X-7672252Y40020056D01*
X-7672254Y40020057D01*
X-7679500Y40022601D01*
X-7687144Y40023324D01*
X-7687146Y40023324D01*
X-7695121Y40024078D01*
X-7710167Y40025500D01*
X-7999853Y40025500D01*
X-8289832Y40025499D01*
X-8292782Y40025220D01*
X-8292787Y40025220D01*
X-8312850Y40023324D01*
X-8312851Y40023324D01*
X-8320500Y40022601D01*
X-8327748Y40020056D01*
X-8327751Y40020055D01*
X-8435879Y39982083D01*
X-8435881Y39982082D01*
X-8444768Y39978961D01*
X-8452343Y39973366D01*
X-8452345Y39973365D01*
X-8543140Y39906303D01*
X-8550711Y39900711D01*
X-8556303Y39893140D01*
X-8608663Y39822249D01*
X-8628961Y39794768D01*
X-8632082Y39785881D01*
X-8632083Y39785879D01*
X-8666854Y39686866D01*
X-8672601Y39670500D01*
X-8675500Y39639833D01*
X-8675500Y39372004D01*
X-8695502Y39303883D01*
X-8712405Y39282909D01*
X-9384989Y38610325D01*
X-9447301Y38576299D01*
X-9518116Y38581364D01*
X-9574952Y38623911D01*
X-9599763Y38690431D01*
X-9584672Y38759805D01*
X-9577431Y38771152D01*
X-9576635Y38772656D01*
X-9571039Y38780232D01*
X-9564597Y38798574D01*
X-9529944Y38897252D01*
X-9529943Y38897254D01*
X-9527399Y38904500D01*
X-9524500Y38935167D01*
X-9524501Y39639832D01*
X-9527399Y39670500D01*
X-9533146Y39686866D01*
X-9567917Y39785879D01*
X-9567918Y39785881D01*
X-9571039Y39794768D01*
X-9591336Y39822249D01*
X-9643697Y39893140D01*
X-9649289Y39900711D01*
X-9656860Y39906303D01*
X-9747655Y39973365D01*
X-9747657Y39973366D01*
X-9755232Y39978961D01*
X-9764119Y39982082D01*
X-9764121Y39982083D01*
X-9872252Y40020056D01*
X-9872254Y40020057D01*
X-9879500Y40022601D01*
X-9887144Y40023324D01*
X-9887146Y40023324D01*
X-9895121Y40024078D01*
X-9910167Y40025500D01*
X-10199853Y40025500D01*
X-10489832Y40025499D01*
X-10492782Y40025220D01*
X-10492787Y40025220D01*
X-10512850Y40023324D01*
X-10512851Y40023324D01*
X-10520500Y40022601D01*
X-10527748Y40020056D01*
X-10527751Y40020055D01*
X-10635879Y39982083D01*
X-10635881Y39982082D01*
X-10644768Y39978961D01*
X-10652343Y39973366D01*
X-10652345Y39973365D01*
X-10743140Y39906303D01*
X-10750711Y39900711D01*
X-10756303Y39893140D01*
X-10808663Y39822249D01*
X-10828961Y39794768D01*
X-10832082Y39785881D01*
X-10832083Y39785879D01*
X-10866854Y39686866D01*
X-10872601Y39670500D01*
X-10875500Y39639833D01*
X-10875500Y39372004D01*
X-10895502Y39303883D01*
X-10912405Y39282909D01*
X-19504280Y30691034D01*
X-19513624Y30683568D01*
X-19513292Y30683178D01*
X-19520128Y30677360D01*
X-19527720Y30672570D01*
X-19533663Y30665841D01*
X-19538337Y30661863D01*
X-19603177Y30632945D01*
X-19673358Y30643673D01*
X-19726599Y30690641D01*
X-19746000Y30757817D01*
X-19746000Y45200000D01*
X-18435578Y45200000D01*
X-18415278Y44812662D01*
X-18414765Y44809422D01*
X-18414764Y44809414D01*
X-18392958Y44671736D01*
X-18354602Y44429567D01*
X-18254214Y44054913D01*
X-18115214Y43692806D01*
X-17939125Y43347211D01*
X-17727876Y43021916D01*
X-17483781Y42720484D01*
X-17209516Y42446219D01*
X-17147205Y42395761D01*
X-17106854Y42337348D01*
X-17100500Y42297841D01*
X-17100500Y40926133D01*
X-17120502Y40858012D01*
X-17137405Y40837038D01*
X-17143140Y40831303D01*
X-17150711Y40825711D01*
X-17228961Y40719768D01*
X-17272601Y40595500D01*
X-17275500Y40564833D01*
X-17275499Y39860168D01*
X-17272601Y39829500D01*
X-17270056Y39822252D01*
X-17270055Y39822249D01*
X-17236869Y39727751D01*
X-17228961Y39705232D01*
X-17223366Y39697657D01*
X-17223365Y39697655D01*
X-17180657Y39639833D01*
X-17150711Y39599289D01*
X-17143140Y39593697D01*
X-17052345Y39526635D01*
X-17052343Y39526634D01*
X-17044768Y39521039D01*
X-17035881Y39517918D01*
X-17035879Y39517917D01*
X-16927748Y39479944D01*
X-16927746Y39479943D01*
X-16920500Y39477399D01*
X-16912857Y39476677D01*
X-16912855Y39476676D01*
X-16899778Y39475440D01*
X-16833843Y39449114D01*
X-16792607Y39391320D01*
X-16789163Y39320407D01*
X-16824604Y39258889D01*
X-16887678Y39226298D01*
X-16899784Y39224559D01*
X-16920500Y39222601D01*
X-16927748Y39220056D01*
X-16927751Y39220055D01*
X-17035879Y39182083D01*
X-17035881Y39182082D01*
X-17044768Y39178961D01*
X-17052343Y39173366D01*
X-17052345Y39173365D01*
X-17098364Y39139375D01*
X-17150711Y39100711D01*
X-17156303Y39093140D01*
X-17205835Y39026078D01*
X-17228961Y38994768D01*
X-17232082Y38985881D01*
X-17232083Y38985879D01*
X-17266636Y38887487D01*
X-17272601Y38870500D01*
X-17275500Y38839833D01*
X-17275499Y38135168D01*
X-17275220Y38132219D01*
X-17275220Y38132213D01*
X-17273324Y38112150D01*
X-17272601Y38104500D01*
X-17228961Y37980232D01*
X-17223364Y37972655D01*
X-17223364Y37972654D01*
X-17197098Y37937093D01*
X-17172715Y37870415D01*
X-17180619Y37822606D01*
X-17179746Y37822372D01*
X-17181885Y37814387D01*
X-17185044Y37806762D01*
X-17205682Y37650000D01*
X-17185044Y37493238D01*
X-17124536Y37347159D01*
X-17028282Y37221718D01*
X-16902841Y37125464D01*
X-16756762Y37064956D01*
X-16600000Y37044318D01*
X-16591812Y37045396D01*
X-16451426Y37063878D01*
X-16443238Y37064956D01*
X-16297159Y37125464D01*
X-16171718Y37221718D01*
X-16075464Y37347159D01*
X-16014956Y37493238D01*
X-15994318Y37650000D01*
X-16014956Y37806762D01*
X-16018115Y37814387D01*
X-16020254Y37822372D01*
X-16018898Y37822735D01*
X-16025548Y37884610D01*
X-16002902Y37937093D01*
X-15976636Y37972654D01*
X-15976636Y37972655D01*
X-15971039Y37980232D01*
X-15927399Y38104500D01*
X-15924500Y38135167D01*
X-15924501Y38839832D01*
X-15927399Y38870500D01*
X-15933364Y38887487D01*
X-15967917Y38985879D01*
X-15967918Y38985881D01*
X-15971039Y38994768D01*
X-15994164Y39026078D01*
X-16043697Y39093140D01*
X-16049289Y39100711D01*
X-16101636Y39139375D01*
X-16147655Y39173365D01*
X-16147657Y39173366D01*
X-16155232Y39178961D01*
X-16164119Y39182082D01*
X-16164121Y39182083D01*
X-16272252Y39220056D01*
X-16272254Y39220057D01*
X-16279500Y39222601D01*
X-16287143Y39223323D01*
X-16287145Y39223324D01*
X-16300222Y39224560D01*
X-16366157Y39250886D01*
X-16407393Y39308680D01*
X-16410837Y39379593D01*
X-16375396Y39441111D01*
X-16312322Y39473702D01*
X-16300216Y39475441D01*
X-16279500Y39477399D01*
X-16272252Y39479944D01*
X-16272249Y39479945D01*
X-16164121Y39517917D01*
X-16164119Y39517918D01*
X-16155232Y39521039D01*
X-16147657Y39526634D01*
X-16147655Y39526635D01*
X-16056860Y39593697D01*
X-16049289Y39599289D01*
X-16019343Y39639833D01*
X-15976635Y39697655D01*
X-15976634Y39697657D01*
X-15971039Y39705232D01*
X-15963130Y39727751D01*
X-15929944Y39822252D01*
X-15929943Y39822254D01*
X-15927399Y39829500D01*
X-15924500Y39860167D01*
X-15924501Y40564832D01*
X-15927399Y40595500D01*
X-15971039Y40719768D01*
X-16049289Y40825711D01*
X-16056860Y40831303D01*
X-16062595Y40837038D01*
X-16096621Y40899350D01*
X-16099500Y40926133D01*
X-16099500Y41578599D01*
X-16079498Y41646720D01*
X-16025842Y41693213D01*
X-15955568Y41703317D01*
X-15928346Y41696230D01*
X-15878177Y41676972D01*
X-15875087Y41675786D01*
X-15500433Y41575398D01*
X-15296799Y41543146D01*
X-15120586Y41515236D01*
X-15120578Y41515235D01*
X-15117338Y41514722D01*
X-14730000Y41494422D01*
X-14342662Y41514722D01*
X-14339422Y41515235D01*
X-14339414Y41515236D01*
X-14163201Y41543146D01*
X-13959567Y41575398D01*
X-13584913Y41675786D01*
X-13565270Y41683326D01*
X-13403792Y41745312D01*
X-13222806Y41814786D01*
X-12877211Y41990875D01*
X-12551916Y42202124D01*
X-12250484Y42446219D01*
X-11976219Y42720484D01*
X-11732124Y43021916D01*
X-11520875Y43347211D01*
X-11344786Y43692806D01*
X-11205786Y44054913D01*
X-11105398Y44429567D01*
X-11067042Y44671736D01*
X-11045236Y44809414D01*
X-11045235Y44809422D01*
X-11044722Y44812662D01*
X-11024422Y45200000D01*
X-11027042Y45250000D01*
X-4179042Y45250000D01*
X-4160925Y45077632D01*
X-4107368Y44912798D01*
X-4104065Y44907076D01*
X-4104064Y44907075D01*
X-4060652Y44831884D01*
X-4020709Y44762701D01*
X-4016291Y44757794D01*
X-4016290Y44757793D01*
X-3921784Y44652835D01*
X-3904737Y44633902D01*
X-3899398Y44630023D01*
X-3782664Y44545211D01*
X-3764521Y44532029D01*
X-3758493Y44529345D01*
X-3758491Y44529344D01*
X-3755735Y44528117D01*
X-3606188Y44461534D01*
X-3599739Y44460163D01*
X-3599735Y44460162D01*
X-3514753Y44442099D01*
X-3436658Y44425500D01*
X-3263342Y44425500D01*
X-3185247Y44442099D01*
X-3100265Y44460162D01*
X-3100261Y44460163D01*
X-3093812Y44461534D01*
X-2944265Y44528117D01*
X-2941509Y44529344D01*
X-2941507Y44529345D01*
X-2935479Y44532029D01*
X-2917335Y44545211D01*
X-2800602Y44630023D01*
X-2795263Y44633902D01*
X-2778215Y44652835D01*
X-2683710Y44757793D01*
X-2683709Y44757794D01*
X-2679291Y44762701D01*
X-2639348Y44831884D01*
X-2595936Y44907075D01*
X-2595935Y44907076D01*
X-2592632Y44912798D01*
X-2539075Y45077632D01*
X-2520958Y45250000D01*
X-2539075Y45422368D01*
X-2557782Y45479944D01*
X-2590590Y45580918D01*
X-2590591Y45580920D01*
X-2592632Y45587202D01*
X-2603981Y45606860D01*
X-2675988Y45731578D01*
X-2679291Y45737299D01*
X-2755781Y45822249D01*
X-2790848Y45861195D01*
X-2790850Y45861196D01*
X-2795263Y45866098D01*
X-2859932Y45913083D01*
X-2930137Y45964090D01*
X-2930138Y45964091D01*
X-2935479Y45967971D01*
X-2941507Y45970655D01*
X-2941509Y45970656D01*
X-3087786Y46035783D01*
X-3093812Y46038466D01*
X-3100261Y46039837D01*
X-3100265Y46039838D01*
X-3188556Y46058604D01*
X-3263342Y46074500D01*
X-3436658Y46074500D01*
X-3511444Y46058604D01*
X-3599735Y46039838D01*
X-3599739Y46039837D01*
X-3606188Y46038466D01*
X-3612214Y46035783D01*
X-3758491Y45970656D01*
X-3758493Y45970655D01*
X-3764521Y45967971D01*
X-3769862Y45964091D01*
X-3769863Y45964090D01*
X-3840068Y45913083D01*
X-3904737Y45866098D01*
X-3909150Y45861196D01*
X-3909152Y45861195D01*
X-3944219Y45822249D01*
X-4020709Y45737299D01*
X-4024012Y45731578D01*
X-4096018Y45606860D01*
X-4107368Y45587202D01*
X-4109409Y45580920D01*
X-4109410Y45580918D01*
X-4142218Y45479944D01*
X-4160925Y45422368D01*
X-4179042Y45250000D01*
X-11027042Y45250000D01*
X-11044722Y45587338D01*
X-11045606Y45592925D01*
X-11080328Y45812145D01*
X-11105398Y45970433D01*
X-11205786Y46345087D01*
X-11290139Y46564833D01*
X-9275500Y46564833D01*
X-9275499Y45860168D01*
X-9272601Y45829500D01*
X-9270056Y45822252D01*
X-9270055Y45822249D01*
X-9240222Y45737299D01*
X-9228961Y45705232D01*
X-9150711Y45599289D01*
X-9143140Y45593697D01*
X-9052345Y45526635D01*
X-9052343Y45526634D01*
X-9044768Y45521039D01*
X-9035881Y45517918D01*
X-9035879Y45517917D01*
X-8927748Y45479944D01*
X-8927746Y45479943D01*
X-8920500Y45477399D01*
X-8912856Y45476676D01*
X-8912854Y45476676D01*
X-8904879Y45475922D01*
X-8889833Y45474500D01*
X-8600147Y45474500D01*
X-8310168Y45474501D01*
X-8307218Y45474780D01*
X-8307213Y45474780D01*
X-8287150Y45476676D01*
X-8287149Y45476676D01*
X-8279500Y45477399D01*
X-8272252Y45479944D01*
X-8272249Y45479945D01*
X-8164121Y45517917D01*
X-8164119Y45517918D01*
X-8155232Y45521039D01*
X-8147657Y45526634D01*
X-8147655Y45526635D01*
X-8056860Y45593697D01*
X-8049289Y45599289D01*
X-7971039Y45705232D01*
X-7959777Y45737299D01*
X-7929944Y45822252D01*
X-7929943Y45822254D01*
X-7927399Y45829500D01*
X-7924500Y45860167D01*
X-7924501Y46564832D01*
X-7924501Y46564833D01*
X-7175500Y46564833D01*
X-7175499Y45860168D01*
X-7172601Y45829500D01*
X-7170056Y45822252D01*
X-7170055Y45822249D01*
X-7140222Y45737299D01*
X-7128961Y45705232D01*
X-7050711Y45599289D01*
X-7043140Y45593697D01*
X-6952345Y45526635D01*
X-6952343Y45526634D01*
X-6944768Y45521039D01*
X-6935881Y45517918D01*
X-6935879Y45517917D01*
X-6827748Y45479944D01*
X-6827746Y45479943D01*
X-6820500Y45477399D01*
X-6812856Y45476676D01*
X-6812854Y45476676D01*
X-6804879Y45475922D01*
X-6789833Y45474500D01*
X-6500147Y45474500D01*
X-6210168Y45474501D01*
X-6207218Y45474780D01*
X-6207213Y45474780D01*
X-6187150Y45476676D01*
X-6187149Y45476676D01*
X-6179500Y45477399D01*
X-6172252Y45479944D01*
X-6172249Y45479945D01*
X-6064121Y45517917D01*
X-6064119Y45517918D01*
X-6055232Y45521039D01*
X-6047657Y45526634D01*
X-6047655Y45526635D01*
X-5956860Y45593697D01*
X-5949289Y45599289D01*
X-5871039Y45705232D01*
X-5859777Y45737299D01*
X-5829944Y45822252D01*
X-5829943Y45822254D01*
X-5827399Y45829500D01*
X-5824500Y45860167D01*
X-5824501Y46564832D01*
X-5825727Y46577812D01*
X-5826676Y46587850D01*
X-5826676Y46587851D01*
X-5827399Y46595500D01*
X-5834540Y46615835D01*
X-5867917Y46710879D01*
X-5867918Y46710881D01*
X-5871039Y46719768D01*
X-5876635Y46727345D01*
X-5876637Y46727348D01*
X-5942141Y46816035D01*
X-5966523Y46882713D01*
X-5957198Y46939110D01*
X-5943117Y46973105D01*
X-5943116Y46973110D01*
X-5939956Y46980738D01*
X-5919318Y47137500D01*
X-5939956Y47294262D01*
X-6000464Y47440341D01*
X-6096718Y47565782D01*
X-6222159Y47662036D01*
X-6368238Y47722544D01*
X-6407371Y47727696D01*
X-6516812Y47742104D01*
X-6525000Y47743182D01*
X-6533188Y47742104D01*
X-6642628Y47727696D01*
X-6681762Y47722544D01*
X-6827841Y47662036D01*
X-6953282Y47565782D01*
X-7049536Y47440341D01*
X-7110044Y47294262D01*
X-7130682Y47137500D01*
X-7110044Y46980738D01*
X-7106884Y46973109D01*
X-7074836Y46895739D01*
X-7067247Y46825150D01*
X-7089894Y46772662D01*
X-7123362Y46727349D01*
X-7123363Y46727347D01*
X-7128961Y46719768D01*
X-7132082Y46710881D01*
X-7132083Y46710879D01*
X-7165460Y46615835D01*
X-7172601Y46595500D01*
X-7175500Y46564833D01*
X-7924501Y46564833D01*
X-7925727Y46577812D01*
X-7926676Y46587850D01*
X-7926676Y46587851D01*
X-7927399Y46595500D01*
X-7934540Y46615835D01*
X-7967917Y46710879D01*
X-7967918Y46710881D01*
X-7971039Y46719768D01*
X-7976637Y46727348D01*
X-8043697Y46818140D01*
X-8049289Y46825711D01*
X-8049700Y46826015D01*
X-8081475Y46884204D01*
X-8074763Y46959204D01*
X-8043117Y47035605D01*
X-8043116Y47035610D01*
X-8039956Y47043238D01*
X-8019318Y47200000D01*
X-8039956Y47356762D01*
X-8100464Y47502841D01*
X-8196718Y47628282D01*
X-8322159Y47724536D01*
X-8468238Y47785044D01*
X-8625000Y47805682D01*
X-8781762Y47785044D01*
X-8927841Y47724536D01*
X-9053282Y47628282D01*
X-9149536Y47502841D01*
X-9210044Y47356762D01*
X-9230682Y47200000D01*
X-9210044Y47043238D01*
X-9206885Y47035611D01*
X-9206884Y47035608D01*
X-9158250Y46918196D01*
X-9150661Y46847606D01*
X-9173307Y46795120D01*
X-9223363Y46727349D01*
X-9223365Y46727345D01*
X-9228961Y46719768D01*
X-9232082Y46710881D01*
X-9232083Y46710879D01*
X-9265460Y46615835D01*
X-9272601Y46595500D01*
X-9275500Y46564833D01*
X-11290139Y46564833D01*
X-11344786Y46707194D01*
X-11520875Y47052789D01*
X-11732124Y47378084D01*
X-11976219Y47679516D01*
X-12116177Y47819474D01*
X-5545965Y47819474D01*
X-5544193Y47812094D01*
X-5544193Y47812092D01*
X-5508926Y47665196D01*
X-5506667Y47655788D01*
X-5503186Y47649044D01*
X-5442715Y47531884D01*
X-5429459Y47506200D01*
X-5424467Y47500478D01*
X-5424466Y47500476D01*
X-5365350Y47432711D01*
X-5318798Y47379347D01*
X-5181073Y47282552D01*
X-5024234Y47221403D01*
X-4895846Y47204500D01*
X-4807791Y47204500D01*
X-4750323Y47211455D01*
X-4690423Y47218703D01*
X-4690420Y47218704D01*
X-4682882Y47219616D01*
X-4675781Y47222299D01*
X-4675778Y47222300D01*
X-4532514Y47276435D01*
X-4525411Y47279119D01*
X-4424353Y47348574D01*
X-4392939Y47370164D01*
X-4392937Y47370165D01*
X-4386680Y47374466D01*
X-4381165Y47380655D01*
X-4297521Y47474536D01*
X-4274696Y47500154D01*
X-4271143Y47506864D01*
X-4199479Y47642214D01*
X-4199478Y47642216D01*
X-4195926Y47648925D01*
X-4172521Y47742104D01*
X-4156768Y47804820D01*
X-4156768Y47804824D01*
X-4154917Y47812191D01*
X-4154879Y47819474D01*
X3954035Y47819474D01*
X3955807Y47812094D01*
X3955807Y47812092D01*
X3991074Y47665196D01*
X3993333Y47655788D01*
X3996814Y47649044D01*
X4057285Y47531884D01*
X4070541Y47506200D01*
X4075533Y47500478D01*
X4075534Y47500476D01*
X4134650Y47432711D01*
X4181202Y47379347D01*
X4318927Y47282552D01*
X4475766Y47221403D01*
X4604154Y47204500D01*
X4692209Y47204500D01*
X4749677Y47211455D01*
X4809577Y47218703D01*
X4809580Y47218704D01*
X4817118Y47219616D01*
X4824219Y47222299D01*
X4824222Y47222300D01*
X4967486Y47276435D01*
X4974589Y47279119D01*
X5075647Y47348574D01*
X5107061Y47370164D01*
X5107063Y47370165D01*
X5113320Y47374466D01*
X5118835Y47380655D01*
X5202479Y47474536D01*
X5225304Y47500154D01*
X5228857Y47506864D01*
X5300521Y47642214D01*
X5300522Y47642216D01*
X5304074Y47648925D01*
X5327479Y47742104D01*
X5343232Y47804820D01*
X5343232Y47804824D01*
X5345083Y47812191D01*
X5345965Y47980526D01*
X5306667Y48144212D01*
X5229459Y48293800D01*
X5118798Y48420653D01*
X4981073Y48517448D01*
X4824234Y48578597D01*
X4695846Y48595500D01*
X4607791Y48595500D01*
X4550323Y48588545D01*
X4490423Y48581297D01*
X4490420Y48581296D01*
X4482882Y48580384D01*
X4475781Y48577701D01*
X4475778Y48577700D01*
X4332514Y48523565D01*
X4325411Y48520881D01*
X4186680Y48425534D01*
X4074696Y48299846D01*
X3995926Y48151075D01*
X3954917Y47987809D01*
X3954035Y47819474D01*
X-4154879Y47819474D01*
X-4154035Y47980526D01*
X-4193333Y48144212D01*
X-4270541Y48293800D01*
X-4381202Y48420653D01*
X-4518927Y48517448D01*
X-4675766Y48578597D01*
X-4804154Y48595500D01*
X-4892209Y48595500D01*
X-4949677Y48588545D01*
X-5009577Y48581297D01*
X-5009580Y48581296D01*
X-5017118Y48580384D01*
X-5024219Y48577701D01*
X-5024222Y48577700D01*
X-5167486Y48523565D01*
X-5174589Y48520881D01*
X-5313320Y48425534D01*
X-5425304Y48299846D01*
X-5504074Y48151075D01*
X-5545083Y47987809D01*
X-5545965Y47819474D01*
X-12116177Y47819474D01*
X-12250484Y47953781D01*
X-12551916Y48197876D01*
X-12877211Y48409125D01*
X-13222806Y48585214D01*
X-13584913Y48724214D01*
X-13959567Y48824602D01*
X-14163201Y48856854D01*
X-14339414Y48884764D01*
X-14339422Y48884765D01*
X-14342662Y48885278D01*
X-14730000Y48905578D01*
X-15117338Y48885278D01*
X-15120578Y48884765D01*
X-15120586Y48884764D01*
X-15296799Y48856854D01*
X-15500433Y48824602D01*
X-15875087Y48724214D01*
X-16237194Y48585214D01*
X-16582789Y48409125D01*
X-16908084Y48197876D01*
X-17209516Y47953781D01*
X-17483781Y47679516D01*
X-17727876Y47378084D01*
X-17939125Y47052789D01*
X-18115214Y46707194D01*
X-18254214Y46345087D01*
X-18354602Y45970433D01*
X-18379672Y45812145D01*
X-18414393Y45592925D01*
X-18415278Y45587338D01*
X-18435578Y45200000D01*
X-19746000Y45200000D01*
X-19746000Y49712575D01*
X-19743579Y49737156D01*
X-19743445Y49737830D01*
X-19741024Y49750000D01*
X-19743445Y49762171D01*
X-19743445Y49774581D01*
X-19742802Y49774581D01*
X-19743473Y49785326D01*
X-19728871Y49989491D01*
X-19726313Y50007285D01*
X-19677190Y50233101D01*
X-19672125Y50250350D01*
X-19591367Y50466873D01*
X-19583898Y50483226D01*
X-19473148Y50686049D01*
X-19463429Y50701173D01*
X-19324937Y50886176D01*
X-19313164Y50899762D01*
X-19149762Y51063164D01*
X-19136176Y51074937D01*
X-18951173Y51213429D01*
X-18936049Y51223148D01*
X-18733226Y51333898D01*
X-18716877Y51341365D01*
X-18583148Y51391243D01*
X-18500350Y51422125D01*
X-18483101Y51427190D01*
X-18257285Y51476313D01*
X-18239491Y51478871D01*
X-18035326Y51493473D01*
X-18024581Y51492802D01*
X-18024581Y51493445D01*
X-18012171Y51493445D01*
X-18000000Y51491024D01*
X-17987153Y51493579D01*
X-17962575Y51496000D01*
X17962575Y51496000D01*
X17987153Y51493579D01*
G37*
G04 #@! TD.AperFunction*
G04 #@! TD*
M02*
