M48
; DRILL file {KiCad 7.0.2} date Wed Aug 16 09:20:50 2023
; FORMAT={-:-/ absolute / inch / decimal}
; #@! TF.CreationDate,2023-08-16T09:20:50-04:00
; #@! TF.GenerationSoftware,Kicad,Pcbnew,7.0.2
; #@! TF.FileFunction,Plated,1,2,PTH
FMAT,2
INCH
; #@! TA.AperFunction,Plated,PTH,ViaDrill
T1C0.0157
; #@! TA.AperFunction,Plated,PTH,ComponentDrill
T2C0.0291
; #@! TA.AperFunction,Plated,PTH,ComponentDrill
T3C0.1063
%
G90
G05
T1
X-0.6661Y0.028
X-0.4764Y0.1425
X-0.4331Y-0.3772
X-0.4016Y0.7232
X-0.3396Y0.9358
X-0.315Y0.7208
X-0.2569Y0.9334
X-0.2283Y0.7232
X-0.189Y0.4614
X-0.1339Y1.0165
X-0.126Y0.7409
X-0.0039Y0.926
X-0.0039Y0.8197
X-0.0039Y0.4496
X0.0315Y0.489
X0.0748Y0.926
X0.0748Y0.5992
X0.189Y0.7277
X0.2835Y0.7252
X0.311Y0.3787
X0.378Y0.7252
X0.4528Y-0.3575
X0.5748Y0.0441
X0.6691Y0.038
T2
X-0.1319Y0.859
X0.124Y0.859
T3
X-0.5799Y-0.202
X0.5799Y-0.202
T0
M30
