G04 #@! TF.GenerationSoftware,KiCad,Pcbnew,7.0.2*
G04 #@! TF.CreationDate,2023-08-25T12:46:11-04:00*
G04 #@! TF.ProjectId,Foras Promineo CLR PCB,466f7261-7320-4507-926f-6d696e656f20,rev?*
G04 #@! TF.SameCoordinates,PX3969440PY5f5e100*
G04 #@! TF.FileFunction,Soldermask,Top*
G04 #@! TF.FilePolarity,Negative*
%FSLAX46Y46*%
G04 Gerber Fmt 4.6, Leading zero omitted, Abs format (unit mm)*
G04 Created by KiCad (PCBNEW 7.0.2) date 2023-08-25 12:46:11*
%MOMM*%
%LPD*%
G01*
G04 APERTURE LIST*
G04 Aperture macros list*
%AMRoundRect*
0 Rectangle with rounded corners*
0 $1 Rounding radius*
0 $2 $3 $4 $5 $6 $7 $8 $9 X,Y pos of 4 corners*
0 Add a 4 corners polygon primitive as box body*
4,1,4,$2,$3,$4,$5,$6,$7,$8,$9,$2,$3,0*
0 Add four circle primitives for the rounded corners*
1,1,$1+$1,$2,$3*
1,1,$1+$1,$4,$5*
1,1,$1+$1,$6,$7*
1,1,$1+$1,$8,$9*
0 Add four rect primitives between the rounded corners*
20,1,$1+$1,$2,$3,$4,$5,0*
20,1,$1+$1,$4,$5,$6,$7,0*
20,1,$1+$1,$6,$7,$8,$9,0*
20,1,$1+$1,$8,$9,$2,$3,0*%
%AMRotRect*
0 Rectangle, with rotation*
0 The origin of the aperture is its center*
0 $1 length*
0 $2 width*
0 $3 Rotation angle, in degrees counterclockwise*
0 Add horizontal line*
21,1,$1,$2,0,0,$3*%
G04 Aperture macros list end*
%ADD10RotRect,1.750000X3.500000X280.000000*%
%ADD11RotRect,1.750000X3.500000X45.000000*%
%ADD12RotRect,1.750000X3.500000X330.857000*%
%ADD13RotRect,1.750000X3.500000X80.000000*%
%ADD14RotRect,1.750000X3.500000X30.000000*%
%ADD15RotRect,1.750000X3.500000X135.000000*%
%ADD16RoundRect,0.237500X0.237500X-0.300000X0.237500X0.300000X-0.237500X0.300000X-0.237500X-0.300000X0*%
%ADD17C,4.700000*%
%ADD18C,3.000000*%
%ADD19C,0.890000*%
%ADD20C,1.248000*%
G04 APERTURE END LIST*
D10*
G04 #@! TO.C,D2*
X32250313Y13065072D03*
X31894335Y15083928D03*
G04 #@! TD*
D11*
G04 #@! TO.C,D3*
X29776108Y4264284D03*
X28326540Y2814716D03*
G04 #@! TD*
D12*
G04 #@! TO.C,D1*
X26744566Y22322334D03*
X24954082Y23320666D03*
G04 #@! TD*
D13*
G04 #@! TO.C,D5*
X7519313Y14312928D03*
X7163335Y12294072D03*
G04 #@! TD*
D14*
G04 #@! TO.C,D6*
X14000000Y23000000D03*
X12224648Y21975000D03*
G04 #@! TD*
D15*
G04 #@! TO.C,D4*
X10475216Y4124784D03*
X11924784Y2675216D03*
G04 #@! TD*
D16*
G04 #@! TO.C,C1*
X2880000Y9827670D03*
X2880000Y11552670D03*
G04 #@! TD*
G04 #@! TO.C,C2*
X36795000Y10082670D03*
X36795000Y11807670D03*
G04 #@! TD*
D17*
G04 #@! TO.C,H1*
X5270700Y6550000D03*
G04 #@! TD*
G04 #@! TO.C,H2*
X34730000Y6550000D03*
G04 #@! TD*
D16*
G04 #@! TO.C,R2*
X24600000Y27587500D03*
X24600000Y29312500D03*
G04 #@! TD*
G04 #@! TO.C,R4*
X27000000Y27587500D03*
X27000000Y29312500D03*
G04 #@! TD*
G04 #@! TO.C,R6*
X29400000Y27587500D03*
X29400000Y29312500D03*
G04 #@! TD*
G04 #@! TO.C,R8*
X9600000Y27537500D03*
X9600000Y29262500D03*
G04 #@! TD*
G04 #@! TO.C,R10*
X11800000Y27537500D03*
X11800000Y29262500D03*
G04 #@! TD*
G04 #@! TO.C,R12*
X14000000Y27537500D03*
X14000000Y29262500D03*
G04 #@! TD*
G04 #@! TO.C,C5*
X11200000Y32737500D03*
X11200000Y34462500D03*
G04 #@! TD*
D18*
G04 #@! TO.C,REF\u002A\u002A*
X2000000Y37000000D03*
G04 #@! TD*
D16*
G04 #@! TO.C,C6*
X13300000Y32737500D03*
X13300000Y34462500D03*
G04 #@! TD*
D18*
G04 #@! TO.C,REF\u002A\u002A*
X36000000Y37000000D03*
G04 #@! TD*
G04 #@! TO.C,REF\u002A\u002A*
X2000000Y2000000D03*
G04 #@! TD*
D19*
G04 #@! TO.C,J1*
X14950000Y36150000D03*
X24450000Y36150000D03*
D20*
X16450000Y33500000D03*
X22950000Y33500000D03*
G04 #@! TD*
M02*
