G04 #@! TF.GenerationSoftware,KiCad,Pcbnew,7.0.2*
G04 #@! TF.CreationDate,2023-08-16T09:20:42-04:00*
G04 #@! TF.ProjectId,Foras Promineo CLR PCB,466f7261-7320-4507-926f-6d696e656f20,rev?*
G04 #@! TF.SameCoordinates,PX4c4b400PY543a756*
G04 #@! TF.FileFunction,Copper,L1,Top*
G04 #@! TF.FilePolarity,Positive*
%FSLAX46Y46*%
G04 Gerber Fmt 4.6, Leading zero omitted, Abs format (unit mm)*
G04 Created by KiCad (PCBNEW 7.0.2) date 2023-08-16 09:20:42*
%MOMM*%
%LPD*%
G01*
G04 APERTURE LIST*
G04 Aperture macros list*
%AMRoundRect*
0 Rectangle with rounded corners*
0 $1 Rounding radius*
0 $2 $3 $4 $5 $6 $7 $8 $9 X,Y pos of 4 corners*
0 Add a 4 corners polygon primitive as box body*
4,1,4,$2,$3,$4,$5,$6,$7,$8,$9,$2,$3,0*
0 Add four circle primitives for the rounded corners*
1,1,$1+$1,$2,$3*
1,1,$1+$1,$4,$5*
1,1,$1+$1,$6,$7*
1,1,$1+$1,$8,$9*
0 Add four rect primitives between the rounded corners*
20,1,$1+$1,$2,$3,$4,$5,0*
20,1,$1+$1,$4,$5,$6,$7,0*
20,1,$1+$1,$6,$7,$8,$9,0*
20,1,$1+$1,$8,$9,$2,$3,0*%
%AMRotRect*
0 Rectangle, with rotation*
0 The origin of the aperture is its center*
0 $1 length*
0 $2 width*
0 $3 Rotation angle, in degrees counterclockwise*
0 Add horizontal line*
21,1,$1,$2,0,0,$3*%
G04 Aperture macros list end*
G04 #@! TA.AperFunction,ComponentPad*
%ADD10C,4.700000*%
G04 #@! TD*
G04 #@! TA.AperFunction,SMDPad,CuDef*
%ADD11RotRect,1.750000X3.500000X280.000000*%
G04 #@! TD*
G04 #@! TA.AperFunction,SMDPad,CuDef*
%ADD12RotRect,1.750000X3.500000X45.000000*%
G04 #@! TD*
G04 #@! TA.AperFunction,SMDPad,CuDef*
%ADD13RotRect,1.750000X3.500000X330.857000*%
G04 #@! TD*
G04 #@! TA.AperFunction,SMDPad,CuDef*
%ADD14RotRect,1.750000X3.500000X80.000000*%
G04 #@! TD*
G04 #@! TA.AperFunction,SMDPad,CuDef*
%ADD15RotRect,1.750000X3.500000X30.000000*%
G04 #@! TD*
G04 #@! TA.AperFunction,SMDPad,CuDef*
%ADD16RotRect,1.750000X3.500000X135.000000*%
G04 #@! TD*
G04 #@! TA.AperFunction,SMDPad,CuDef*
%ADD17RoundRect,0.237500X0.237500X-0.300000X0.237500X0.300000X-0.237500X0.300000X-0.237500X-0.300000X0*%
G04 #@! TD*
G04 #@! TA.AperFunction,ComponentPad*
%ADD18C,1.248000*%
G04 #@! TD*
G04 #@! TA.AperFunction,ViaPad*
%ADD19C,0.800000*%
G04 #@! TD*
G04 #@! TA.AperFunction,Conductor*
%ADD20C,0.600000*%
G04 #@! TD*
G04 #@! TA.AperFunction,Conductor*
%ADD21C,0.250000*%
G04 #@! TD*
G04 APERTURE END LIST*
D10*
G04 #@! TO.P,H2,1,1*
G04 #@! TO.N,Net-(C2-Pad1)*
X14730000Y-5130000D03*
G04 #@! TD*
G04 #@! TO.P,H1,1,1*
G04 #@! TO.N,Net-(C1-Pad1)*
X-14730000Y-5130000D03*
G04 #@! TD*
D11*
G04 #@! TO.P,D2,1,K*
G04 #@! TO.N,/LED_2*
X12487989Y1161402D03*
G04 #@! TO.P,D2,2,A*
G04 #@! TO.N,Net-(D2-A)*
X12132011Y3180258D03*
G04 #@! TD*
D12*
G04 #@! TO.P,D3,1,K*
G04 #@! TO.N,/LED_3*
X10013784Y-7639386D03*
G04 #@! TO.P,D3,2,A*
G04 #@! TO.N,Net-(D3-A)*
X8564216Y-9088954D03*
G04 #@! TD*
D13*
G04 #@! TO.P,D1,1,K*
G04 #@! TO.N,/LED_1*
X6982242Y10418664D03*
G04 #@! TO.P,D1,2,A*
G04 #@! TO.N,Net-(D1-A)*
X5191758Y11416996D03*
G04 #@! TD*
D14*
G04 #@! TO.P,D5,1,K*
G04 #@! TO.N,/LED_5*
X-12243011Y2409258D03*
G04 #@! TO.P,D5,2,A*
G04 #@! TO.N,Net-(D5-A)*
X-12598989Y390402D03*
G04 #@! TD*
D15*
G04 #@! TO.P,D6,1,K*
G04 #@! TO.N,/LED_6*
X-5762324Y11096330D03*
G04 #@! TO.P,D6,2,A*
G04 #@! TO.N,Net-(D6-A)*
X-7537676Y10071330D03*
G04 #@! TD*
D16*
G04 #@! TO.P,D4,2,A*
G04 #@! TO.N,Net-(D4-A)*
X-8114216Y-9563954D03*
G04 #@! TO.P,D4,1,K*
G04 #@! TO.N,/LED_4*
X-9563784Y-8114386D03*
G04 #@! TD*
D17*
G04 #@! TO.P,C1,1*
G04 #@! TO.N,Net-(C1-Pad1)*
X-16920000Y-1852500D03*
G04 #@! TO.P,C1,2*
G04 #@! TO.N,GND*
X-16920000Y-127500D03*
G04 #@! TD*
G04 #@! TO.P,C2,1*
G04 #@! TO.N,Net-(C2-Pad1)*
X16995000Y-1597500D03*
G04 #@! TO.P,C2,2*
G04 #@! TO.N,GND*
X16995000Y127500D03*
G04 #@! TD*
G04 #@! TO.P,R2,1*
G04 #@! TO.N,Net-(D1-A)*
X4800000Y15907330D03*
G04 #@! TO.P,R2,2*
G04 #@! TO.N,Net-(J1-Pin_1)*
X4800000Y17632330D03*
G04 #@! TD*
G04 #@! TO.P,R4,1*
G04 #@! TO.N,Net-(D2-A)*
X7200000Y15907330D03*
G04 #@! TO.P,R4,2*
G04 #@! TO.N,Net-(J1-Pin_1)*
X7200000Y17632330D03*
G04 #@! TD*
G04 #@! TO.P,R6,1*
G04 #@! TO.N,Net-(D3-A)*
X9600000Y15907330D03*
G04 #@! TO.P,R6,2*
G04 #@! TO.N,Net-(J1-Pin_1)*
X9600000Y17632330D03*
G04 #@! TD*
G04 #@! TO.P,R8,1*
G04 #@! TO.N,Net-(D4-A)*
X-10200000Y15857330D03*
G04 #@! TO.P,R8,2*
G04 #@! TO.N,Net-(J1-Pin_1)*
X-10200000Y17582330D03*
G04 #@! TD*
G04 #@! TO.P,R10,1*
G04 #@! TO.N,Net-(D5-A)*
X-8000000Y15857330D03*
G04 #@! TO.P,R10,2*
G04 #@! TO.N,Net-(J1-Pin_1)*
X-8000000Y17582330D03*
G04 #@! TD*
G04 #@! TO.P,R12,1*
G04 #@! TO.N,Net-(D6-A)*
X-5800000Y15857330D03*
G04 #@! TO.P,R12,2*
G04 #@! TO.N,Net-(J1-Pin_1)*
X-5800000Y17582330D03*
G04 #@! TD*
G04 #@! TO.P,C5,1*
G04 #@! TO.N,Net-(J1-Pin_1)*
X-8600000Y21057330D03*
G04 #@! TO.P,C5,2*
G04 #@! TO.N,GND*
X-8600000Y22782330D03*
G04 #@! TD*
G04 #@! TO.P,C6,1*
G04 #@! TO.N,Net-(J1-Pin_1)*
X-6500000Y21057330D03*
G04 #@! TO.P,C6,2*
G04 #@! TO.N,GND*
X-6500000Y22782330D03*
G04 #@! TD*
D18*
G04 #@! TO.P,J1,S1*
G04 #@! TO.N,N/C*
X-3350000Y21819830D03*
G04 #@! TO.P,J1,S2*
X3150000Y21819830D03*
G04 #@! TD*
D19*
G04 #@! TO.N,GND*
X16995000Y965000D03*
X-16920000Y710000D03*
X-6525000Y23707330D03*
X-8625000Y23769830D03*
G04 #@! TO.N,/LED_6*
X-4800000Y11719830D03*
G04 #@! TO.N,/LED_5*
X1900000Y23519830D03*
X1900000Y15219830D03*
X-12100000Y3619830D03*
G04 #@! TO.N,/LED_4*
X-11000000Y-9580170D03*
G04 #@! TO.N,/LED_3*
X11500000Y-9080170D03*
G04 #@! TO.N,/LED_2*
X-100000Y20819830D03*
X14600000Y1119830D03*
X-100000Y11419830D03*
G04 #@! TO.N,/LED_1*
X800000Y12419830D03*
X-100000Y23519830D03*
X7900000Y9619830D03*
G04 #@! TO.N,Net-(J1-Pin_1)*
X4800000Y18482330D03*
X-8000000Y18307330D03*
X-3400000Y25819830D03*
X7200000Y18419830D03*
X-5800000Y18369830D03*
X9600000Y18419830D03*
X-3200000Y18819830D03*
X-10200000Y18369830D03*
G04 #@! TD*
D20*
G04 #@! TO.N,Net-(D4-A)*
X-14449830Y-10780170D02*
X-9330432Y-10780170D01*
X-18190000Y-7040000D02*
X-14449830Y-10780170D01*
X-18190000Y7867330D02*
X-18190000Y-7040000D01*
X-10200000Y15857330D02*
X-18190000Y7867330D01*
X-9330432Y-10780170D02*
X-8114216Y-9563954D01*
G04 #@! TO.N,Net-(D1-A)*
X4810000Y15897330D02*
X4800000Y15907330D01*
X4810000Y11798754D02*
X4810000Y15897330D01*
X5191758Y11416996D02*
X4810000Y11798754D01*
D21*
G04 #@! TO.N,Net-(C1-Pad1)*
X-16920000Y-2940000D02*
X-14730000Y-5130000D01*
X-16920000Y-1852500D02*
X-16920000Y-2940000D01*
G04 #@! TO.N,Net-(C2-Pad1)*
X16995000Y-2865000D02*
X14730000Y-5130000D01*
X16995000Y-1597500D02*
X16995000Y-2865000D01*
D20*
G04 #@! TO.N,GND*
X-6500000Y22782330D02*
X-6500000Y23682330D01*
X17020000Y40000D02*
X17020000Y940000D01*
X17020000Y940000D02*
X16995000Y965000D01*
X-8600000Y22844830D02*
X-8600000Y23744830D01*
G04 #@! TO.N,Net-(D2-A)*
X12132011Y3180258D02*
X12132011Y10975319D01*
X12132011Y10975319D02*
X7200000Y15907330D01*
G04 #@! TO.N,Net-(D3-A)*
X19100000Y6519830D02*
X19100000Y-7880170D01*
X9600000Y15907330D02*
X9712500Y15907330D01*
X19100000Y-7880170D02*
X16400000Y-10580170D01*
X9712500Y15907330D02*
X19100000Y6519830D01*
X16400000Y-10580170D02*
X10055432Y-10580170D01*
X10055432Y-10580170D02*
X8564216Y-9088954D01*
G04 #@! TO.N,Net-(D5-A)*
X-14270572Y390402D02*
X-15300000Y1419830D01*
X-12598989Y390402D02*
X-14270572Y390402D01*
X-15300000Y8557330D02*
X-8000000Y15857330D01*
X-15300000Y1419830D02*
X-15300000Y8557330D01*
G04 #@! TO.N,Net-(D6-A)*
X-9000000Y11533654D02*
X-9000000Y12657330D01*
X-7537676Y10071330D02*
X-9000000Y11533654D01*
X-9000000Y12657330D02*
X-5800000Y15857330D01*
G04 #@! TO.N,/LED_6*
X-5138824Y11719830D02*
X-5762324Y11096330D01*
X-4800000Y11719830D02*
X-5138824Y11719830D01*
G04 #@! TO.N,/LED_5*
X-12243011Y3476819D02*
X-12100000Y3619830D01*
X-12243011Y2409258D02*
X-12243011Y3476819D01*
X1900000Y15219830D02*
X1900000Y23519830D01*
G04 #@! TO.N,/LED_4*
X-9563784Y-8143954D02*
X-11000000Y-9580170D01*
X-9563784Y-8114386D02*
X-9563784Y-8143954D01*
G04 #@! TO.N,/LED_3*
X10013784Y-7639386D02*
X10059216Y-7639386D01*
X10059216Y-7639386D02*
X11500000Y-9080170D01*
G04 #@! TO.N,/LED_2*
X-100000Y11419830D02*
X-100000Y20819830D01*
X14558428Y1161402D02*
X14600000Y1119830D01*
X12487989Y1161402D02*
X14558428Y1161402D01*
G04 #@! TO.N,/LED_1*
X-100000Y23019830D02*
X-100000Y23519830D01*
X800000Y12419830D02*
X726511Y12493319D01*
X726511Y22193319D02*
X-100000Y23019830D01*
X726511Y12493319D02*
X726511Y22193319D01*
X7101166Y10418664D02*
X7900000Y9619830D01*
X6982242Y10418664D02*
X7101166Y10418664D01*
G04 #@! TO.N,Net-(J1-Pin_1)*
X-5800000Y17582330D02*
X-5800000Y18369830D01*
X-8000000Y17519830D02*
X-8000000Y18307330D01*
X7200000Y17632330D02*
X7200000Y18419830D01*
X4800000Y17694830D02*
X4800000Y18482330D01*
X9600000Y17632330D02*
X9600000Y18419830D01*
X-10200000Y17582330D02*
X-10200000Y18369830D01*
G04 #@! TD*
G04 #@! TA.AperFunction,Conductor*
G04 #@! TO.N,Net-(J1-Pin_1)*
G36*
X18004487Y28065009D02*
G01*
X18025448Y28063510D01*
X18239429Y28048206D01*
X18257202Y28045651D01*
X18482970Y27996538D01*
X18500195Y27991481D01*
X18716669Y27910740D01*
X18733016Y27903274D01*
X18935782Y27792555D01*
X18950905Y27782836D01*
X19135847Y27644390D01*
X19149433Y27632617D01*
X19312786Y27469264D01*
X19324559Y27455678D01*
X19463005Y27270736D01*
X19472724Y27255613D01*
X19583443Y27052847D01*
X19590912Y27036494D01*
X19671647Y26820035D01*
X19676710Y26802791D01*
X19725818Y26577044D01*
X19728376Y26559250D01*
X19745179Y26324320D01*
X19745500Y26315331D01*
X19745499Y6876987D01*
X19725497Y6808866D01*
X19671841Y6762373D01*
X19601567Y6752269D01*
X19536987Y6781763D01*
X19524274Y6794476D01*
X19492909Y6830674D01*
X19487265Y6837678D01*
X19479224Y6848419D01*
X19479223Y6848420D01*
X19479221Y6848423D01*
X19469722Y6857922D01*
X19463604Y6864494D01*
X19431129Y6901973D01*
X19427248Y6904467D01*
X19406275Y6921369D01*
X10789845Y15537799D01*
X10776774Y15555951D01*
X10776381Y15555646D01*
X10301891Y16168166D01*
X10275986Y16234268D01*
X10275500Y16245328D01*
X10275500Y16257133D01*
X10275500Y16260086D01*
X10272725Y16289679D01*
X10229116Y16414305D01*
X10150711Y16520541D01*
X10044475Y16598946D01*
X10044474Y16598947D01*
X9919850Y16642555D01*
X9893192Y16645055D01*
X9893185Y16645056D01*
X9890256Y16645330D01*
X9309744Y16645330D01*
X9306815Y16645056D01*
X9306807Y16645055D01*
X9280149Y16642555D01*
X9155525Y16598947D01*
X9049289Y16520541D01*
X8970883Y16414305D01*
X8927275Y16289681D01*
X8927274Y16289679D01*
X8927275Y16289679D01*
X8924500Y16260086D01*
X8924500Y15554574D01*
X8924774Y15551645D01*
X8924775Y15551638D01*
X8927275Y15524980D01*
X8970883Y15400356D01*
X8970884Y15400355D01*
X9049289Y15294119D01*
X9155525Y15215714D01*
X9280151Y15172105D01*
X9309744Y15169330D01*
X9405560Y15169330D01*
X9464068Y15154923D01*
X10018949Y14863991D01*
X10063068Y14840859D01*
X10093654Y14818362D01*
X18562595Y6349421D01*
X18596621Y6287109D01*
X18599500Y6260326D01*
X18599500Y-7620666D01*
X18579498Y-7688787D01*
X18562595Y-7709761D01*
X16229591Y-10042765D01*
X16167279Y-10076791D01*
X16140496Y-10079670D01*
X10828186Y-10079670D01*
X10760065Y-10059668D01*
X10713572Y-10006012D01*
X10706361Y-9985837D01*
X10662324Y-9819059D01*
X10664273Y-9748089D01*
X10704281Y-9689439D01*
X10714142Y-9682131D01*
X10723812Y-9675669D01*
X10723997Y-9675545D01*
X10758973Y-9659275D01*
X11067617Y-9569963D01*
X11138610Y-9570241D01*
X11179341Y-9591034D01*
X11197159Y-9604706D01*
X11343238Y-9665214D01*
X11500000Y-9685852D01*
X11656762Y-9665214D01*
X11802841Y-9604706D01*
X11928282Y-9508452D01*
X12024536Y-9383011D01*
X12085044Y-9236932D01*
X12105682Y-9080170D01*
X12085044Y-8923408D01*
X12024536Y-8777329D01*
X12004614Y-8751366D01*
X11979014Y-8685145D01*
X11982593Y-8643105D01*
X12066152Y-8320151D01*
X12068034Y-8294758D01*
X12070108Y-8279508D01*
X12074367Y-8258104D01*
X12072001Y-8246210D01*
X12071164Y-8240699D01*
X12071039Y-8240219D01*
X12069348Y-8232871D01*
X12058806Y-8179872D01*
X12025681Y-8130296D01*
X12017886Y-8122501D01*
X12008792Y-8113407D01*
X12004237Y-8108091D01*
X12001850Y-8106020D01*
X11995330Y-8099945D01*
X9522877Y-5627491D01*
X9473297Y-5594363D01*
X9395066Y-5578803D01*
X9316833Y-5594364D01*
X9267251Y-5627494D01*
X8001892Y-6892853D01*
X7968761Y-6942437D01*
X7968346Y-6944524D01*
X7935436Y-7007432D01*
X7873740Y-7042562D01*
X7869354Y-7043516D01*
X7867267Y-7043931D01*
X7817683Y-7077062D01*
X6552324Y-8342421D01*
X6519194Y-8392003D01*
X6503633Y-8470236D01*
X6519193Y-8548467D01*
X6552321Y-8598047D01*
X9055122Y-11100848D01*
X9104702Y-11133976D01*
X9120263Y-11137071D01*
X9182934Y-11149537D01*
X9261166Y-11133976D01*
X9310745Y-11100848D01*
X9387620Y-11023971D01*
X9449931Y-10989946D01*
X9488169Y-10987588D01*
X9772519Y-11013555D01*
X9805086Y-11020976D01*
X9813099Y-11023964D01*
X9813101Y-11023966D01*
X9859575Y-11041299D01*
X9867849Y-11044726D01*
X9912975Y-11065335D01*
X9916361Y-11065821D01*
X9917531Y-11065990D01*
X9943635Y-11072652D01*
X9947949Y-11074261D01*
X9988510Y-11077161D01*
X9997404Y-11077798D01*
X10006349Y-11078759D01*
X10019633Y-11080670D01*
X10033052Y-11080670D01*
X10042040Y-11080990D01*
X10091505Y-11084529D01*
X10095233Y-11083717D01*
X10096006Y-11083550D01*
X10122789Y-11080670D01*
X10501686Y-11080670D01*
X10513145Y-11081192D01*
X10540082Y-11083652D01*
X10541519Y-11083758D01*
X10549510Y-11084295D01*
X10550546Y-11084347D01*
X10550569Y-11084342D01*
X10550574Y-11084343D01*
X10558123Y-11083017D01*
X10560685Y-11082568D01*
X10582473Y-11080670D01*
X16332643Y-11080670D01*
X16359426Y-11083550D01*
X16360383Y-11083758D01*
X16363927Y-11084529D01*
X16413391Y-11080990D01*
X16422380Y-11080670D01*
X16435798Y-11080670D01*
X16435799Y-11080670D01*
X16449097Y-11078757D01*
X16458009Y-11077799D01*
X16507483Y-11074261D01*
X16511798Y-11072651D01*
X16537897Y-11065990D01*
X16542457Y-11065335D01*
X16565349Y-11054879D01*
X16587561Y-11044736D01*
X16595862Y-11041297D01*
X16642331Y-11023966D01*
X16646015Y-11021207D01*
X16669190Y-11007458D01*
X16673372Y-11005548D01*
X16710845Y-10973077D01*
X16717844Y-10967436D01*
X16728593Y-10959391D01*
X16738096Y-10949887D01*
X16744669Y-10943768D01*
X16782143Y-10911298D01*
X16784635Y-10907418D01*
X16801533Y-10886449D01*
X19406279Y-8281703D01*
X19427248Y-8264805D01*
X19431128Y-8262313D01*
X19463601Y-8224835D01*
X19469717Y-8218266D01*
X19479221Y-8208763D01*
X19487266Y-8198014D01*
X19492907Y-8191015D01*
X19524277Y-8154813D01*
X19584003Y-8116430D01*
X19655000Y-8116431D01*
X19714725Y-8154816D01*
X19744218Y-8219397D01*
X19745500Y-8237327D01*
X19745500Y-9675669D01*
X19745179Y-9684658D01*
X19728376Y-9919589D01*
X19725818Y-9937383D01*
X19676710Y-10163130D01*
X19671645Y-10180380D01*
X19590912Y-10396833D01*
X19583443Y-10413186D01*
X19472724Y-10615952D01*
X19463005Y-10631075D01*
X19324559Y-10816017D01*
X19312786Y-10829603D01*
X19149433Y-10992956D01*
X19135847Y-11004729D01*
X18950905Y-11143175D01*
X18935782Y-11152894D01*
X18733016Y-11263613D01*
X18716663Y-11271082D01*
X18563548Y-11328190D01*
X18544840Y-11335169D01*
X18500210Y-11351815D01*
X18482960Y-11356880D01*
X18257213Y-11405988D01*
X18239419Y-11408546D01*
X18004488Y-11425349D01*
X17995499Y-11425670D01*
X-8150755Y-11425670D01*
X-8218876Y-11405668D01*
X-8265369Y-11352012D01*
X-8275473Y-11281738D01*
X-8245979Y-11217158D01*
X-8239850Y-11210575D01*
X-6102322Y-9073047D01*
X-6069194Y-9023467D01*
X-6069195Y-9023467D01*
X-6053633Y-8945236D01*
X-6069194Y-8867004D01*
X-6102322Y-8817425D01*
X-6102323Y-8817424D01*
X-6102325Y-8817421D01*
X-7367684Y-7552062D01*
X-7368347Y-7551619D01*
X-7417266Y-7518932D01*
X-7417267Y-7518931D01*
X-7417268Y-7518931D01*
X-7419354Y-7518516D01*
X-7482263Y-7485607D01*
X-7517393Y-7423911D01*
X-7518348Y-7419519D01*
X-7518762Y-7417436D01*
X-7551890Y-7367857D01*
X-7551891Y-7367856D01*
X-7551893Y-7367853D01*
X-8817252Y-6102494D01*
X-8866834Y-6069364D01*
X-8878794Y-6066985D01*
X-8945066Y-6053803D01*
X-8945067Y-6053803D01*
X-9023298Y-6069363D01*
X-9072878Y-6102491D01*
X-11575679Y-8605292D01*
X-11608807Y-8654872D01*
X-11618301Y-8702606D01*
X-11624367Y-8733104D01*
X-11620043Y-8754843D01*
X-11608806Y-8811338D01*
X-11606289Y-8815104D01*
X-11590832Y-8847390D01*
X-11495459Y-9151420D01*
X-11494154Y-9222405D01*
X-11515717Y-9265835D01*
X-11524536Y-9277328D01*
X-11585045Y-9423408D01*
X-11605682Y-9580170D01*
X-11585045Y-9736931D01*
X-11524536Y-9883012D01*
X-11428282Y-10008452D01*
X-11369304Y-10053708D01*
X-11327437Y-10111046D01*
X-11323215Y-10181917D01*
X-11357980Y-10243820D01*
X-11420692Y-10277101D01*
X-11446008Y-10279670D01*
X-14190326Y-10279670D01*
X-14258447Y-10259668D01*
X-14279421Y-10242765D01*
X-17652596Y-6869590D01*
X-17686622Y-6807278D01*
X-17689501Y-6780504D01*
X-17689501Y-2597750D01*
X-17669499Y-2529632D01*
X-17615843Y-2483139D01*
X-17545569Y-2473035D01*
X-17480989Y-2502529D01*
X-17452354Y-2538404D01*
X-17263138Y-2892761D01*
X-17248696Y-2962273D01*
X-17248764Y-2963090D01*
X-17249265Y-2968807D01*
X-17239508Y-3005219D01*
X-17237130Y-3015947D01*
X-17230374Y-3054260D01*
X-17219024Y-3081660D01*
X-17213803Y-3101145D01*
X-17214593Y-3101356D01*
X-17204308Y-3128774D01*
X-17097128Y-4128006D01*
X-17105189Y-4187339D01*
X-17106084Y-4189242D01*
X-17107305Y-4192997D01*
X-17107308Y-4193007D01*
X-17204029Y-4490685D01*
X-17205256Y-4494462D01*
X-17205997Y-4498346D01*
X-17206001Y-4498362D01*
X-17264649Y-4805806D01*
X-17264651Y-4805820D01*
X-17265392Y-4809706D01*
X-17265641Y-4813658D01*
X-17265642Y-4813669D01*
X-17285294Y-5126042D01*
X-17285543Y-5130000D01*
X-17285294Y-5133957D01*
X-17265642Y-5446330D01*
X-17265641Y-5446339D01*
X-17265392Y-5450294D01*
X-17264651Y-5454180D01*
X-17264649Y-5454193D01*
X-17206001Y-5761637D01*
X-17205998Y-5761649D01*
X-17205256Y-5765538D01*
X-17106084Y-6070758D01*
X-16969439Y-6361142D01*
X-16967316Y-6364488D01*
X-16967315Y-6364489D01*
X-16799601Y-6628766D01*
X-16799595Y-6628775D01*
X-16797478Y-6632110D01*
X-16794959Y-6635155D01*
X-16794956Y-6635159D01*
X-16666093Y-6790928D01*
X-16592911Y-6879390D01*
X-16523550Y-6944524D01*
X-16369605Y-7089088D01*
X-16358964Y-7099080D01*
X-16099328Y-7287716D01*
X-15818097Y-7442324D01*
X-15519706Y-7560466D01*
X-15208861Y-7640277D01*
X-14890464Y-7680500D01*
X-14886505Y-7680500D01*
X-14573495Y-7680500D01*
X-14569536Y-7680500D01*
X-14251139Y-7640277D01*
X-13940294Y-7560466D01*
X-13641903Y-7442324D01*
X-13360672Y-7287716D01*
X-13101036Y-7099080D01*
X-12867089Y-6879390D01*
X-12662522Y-6632110D01*
X-12490561Y-6361142D01*
X-12353916Y-6070758D01*
X-12254744Y-5765538D01*
X-12194608Y-5450294D01*
X-12174457Y-5130000D01*
X-12194608Y-4809706D01*
X-12254744Y-4494462D01*
X-12353916Y-4189242D01*
X-12490561Y-3898858D01*
X-12662522Y-3627890D01*
X-12867089Y-3380610D01*
X-13101036Y-3160920D01*
X-13360672Y-2972284D01*
X-13641903Y-2817676D01*
X-13645573Y-2816223D01*
X-13645577Y-2816221D01*
X-13936625Y-2700986D01*
X-13936635Y-2700982D01*
X-13940294Y-2699534D01*
X-13991923Y-2686278D01*
X-14247304Y-2620707D01*
X-14247314Y-2620705D01*
X-14251139Y-2619723D01*
X-14255064Y-2619227D01*
X-14255075Y-2619225D01*
X-14565605Y-2579996D01*
X-14565615Y-2579995D01*
X-14569536Y-2579500D01*
X-14890464Y-2579500D01*
X-14894385Y-2579995D01*
X-14894396Y-2579996D01*
X-15204934Y-2619226D01*
X-15204949Y-2619228D01*
X-15208861Y-2619723D01*
X-15212674Y-2620701D01*
X-15212690Y-2620705D01*
X-15398357Y-2668376D01*
X-15447420Y-2671080D01*
X-16208982Y-2562846D01*
X-16273611Y-2533458D01*
X-16312091Y-2473795D01*
X-16312207Y-2402798D01*
X-16302403Y-2378757D01*
X-16299621Y-2373546D01*
X-16290481Y-2359071D01*
X-16288165Y-2353796D01*
X-16286228Y-2348466D01*
X-16286225Y-2348462D01*
X-16266387Y-2293899D01*
X-16265739Y-2290814D01*
X-16261357Y-2275090D01*
X-16247275Y-2234849D01*
X-16244500Y-2205256D01*
X-16244500Y-1499744D01*
X-16247275Y-1470151D01*
X-16290884Y-1345525D01*
X-16369289Y-1239289D01*
X-16475525Y-1160884D01*
X-16475526Y-1160883D01*
X-16600150Y-1117275D01*
X-16619613Y-1115450D01*
X-16685569Y-1089175D01*
X-16726850Y-1031413D01*
X-16730349Y-960503D01*
X-16694955Y-898958D01*
X-16631906Y-866318D01*
X-16619613Y-864550D01*
X-16619487Y-864538D01*
X-16600151Y-862725D01*
X-16475525Y-819116D01*
X-16369289Y-740711D01*
X-16290884Y-634475D01*
X-16247275Y-509849D01*
X-16244500Y-480256D01*
X-16244500Y225256D01*
X-16247275Y254849D01*
X-16290884Y379475D01*
X-16290885Y379477D01*
X-16322944Y422917D01*
X-16347301Y489605D01*
X-16337972Y545957D01*
X-16334956Y553239D01*
X-16333774Y562216D01*
X-16314318Y710000D01*
X-16334956Y866762D01*
X-16395464Y1012841D01*
X-16395465Y1012842D01*
X-16395465Y1012843D01*
X-16491718Y1138283D01*
X-16617158Y1234536D01*
X-16763239Y1295045D01*
X-16920000Y1315682D01*
X-17076762Y1295045D01*
X-17222843Y1234536D01*
X-17348283Y1138283D01*
X-17444537Y1012842D01*
X-17447093Y1006670D01*
X-17491642Y951390D01*
X-17559006Y928970D01*
X-17627797Y946529D01*
X-17676174Y998492D01*
X-17689501Y1054890D01*
X-17689501Y7607828D01*
X-17669499Y7675949D01*
X-17652601Y7696918D01*
X-10653958Y14695561D01*
X-10632834Y14712558D01*
X-10028838Y15099432D01*
X-9960878Y15119330D01*
X-9912698Y15119330D01*
X-9909744Y15119330D01*
X-9880151Y15122105D01*
X-9755525Y15165714D01*
X-9749027Y15170511D01*
X-9682340Y15194869D01*
X-9613070Y15179308D01*
X-9563210Y15128766D01*
X-9548589Y15059291D01*
X-9573850Y14992941D01*
X-9585109Y14980037D01*
X-15606279Y8958867D01*
X-15627246Y8941969D01*
X-15631126Y8939476D01*
X-15663602Y8901997D01*
X-15669724Y8895422D01*
X-15679222Y8885924D01*
X-15687269Y8875174D01*
X-15692907Y8868177D01*
X-15725379Y8830701D01*
X-15727294Y8826508D01*
X-15741028Y8803360D01*
X-15743795Y8799664D01*
X-15761125Y8753202D01*
X-15764566Y8744896D01*
X-15785166Y8699789D01*
X-15785822Y8695222D01*
X-15792480Y8669135D01*
X-15794091Y8664817D01*
X-15797630Y8615349D01*
X-15798590Y8606418D01*
X-15800500Y8593129D01*
X-15800500Y8579711D01*
X-15800821Y8570723D01*
X-15804359Y8521258D01*
X-15803380Y8516759D01*
X-15800500Y8489974D01*
X-15800500Y1487190D01*
X-15803379Y1460410D01*
X-15804359Y1455906D01*
X-15800821Y1406440D01*
X-15800500Y1397451D01*
X-15800500Y1384032D01*
X-15798590Y1370742D01*
X-15797630Y1361811D01*
X-15794091Y1312346D01*
X-15792482Y1308032D01*
X-15785822Y1281939D01*
X-15785166Y1277376D01*
X-15785166Y1277375D01*
X-15785165Y1277373D01*
X-15770850Y1246027D01*
X-15764569Y1232275D01*
X-15761128Y1223965D01*
X-15743798Y1177501D01*
X-15741034Y1173809D01*
X-15727291Y1150646D01*
X-15725379Y1146458D01*
X-15692909Y1108986D01*
X-15687267Y1101984D01*
X-15679226Y1091242D01*
X-15679222Y1091238D01*
X-15679221Y1091237D01*
X-15669725Y1081741D01*
X-15663608Y1075171D01*
X-15631128Y1037687D01*
X-15627251Y1035195D01*
X-15606277Y1018293D01*
X-15360644Y772660D01*
X-15340430Y746234D01*
X-15338773Y743343D01*
X-14695116Y4877D01*
X-14665435Y-59617D01*
X-14666014Y-99790D01*
X-14675229Y-152050D01*
X-14674099Y-203770D01*
X-14673927Y-211667D01*
X-14641802Y-284675D01*
X-14584184Y-339833D01*
X-14528609Y-361445D01*
X-11042886Y-976072D01*
X-11042886Y-976071D01*
X-11042885Y-976072D01*
X-11041639Y-976044D01*
X-10983272Y-974771D01*
X-10910263Y-942646D01*
X-10855105Y-885028D01*
X-10833493Y-829454D01*
X-10687238Y0D01*
X-9759514Y0D01*
X-9759449Y-2026D01*
X-9739528Y-623257D01*
X-9739527Y-623278D01*
X-9739462Y-625294D01*
X-9739270Y-627287D01*
X-9739268Y-627314D01*
X-9679582Y-1246026D01*
X-9679580Y-1246048D01*
X-9679389Y-1248019D01*
X-9679073Y-1249976D01*
X-9679070Y-1249996D01*
X-9579860Y-1863639D01*
X-9579857Y-1863655D01*
X-9579540Y-1865615D01*
X-9579096Y-1867562D01*
X-9579095Y-1867565D01*
X-9440775Y-2473590D01*
X-9440769Y-2473612D01*
X-9440328Y-2475545D01*
X-9439758Y-2477466D01*
X-9439756Y-2477473D01*
X-9265192Y-3065637D01*
X-9262323Y-3075303D01*
X-9046257Y-3662424D01*
X-9045444Y-3664261D01*
X-9045443Y-3664263D01*
X-8814639Y-4185652D01*
X-8793018Y-4234494D01*
X-8792090Y-4236274D01*
X-8792086Y-4236281D01*
X-8504580Y-4787377D01*
X-8503647Y-4789165D01*
X-8387963Y-4979999D01*
X-8180388Y-5322417D01*
X-8180377Y-5322435D01*
X-8179333Y-5324156D01*
X-8178180Y-5325809D01*
X-8178176Y-5325815D01*
X-8088625Y-5454193D01*
X-7821407Y-5837268D01*
X-7820151Y-5838843D01*
X-7820145Y-5838851D01*
X-7609899Y-6102491D01*
X-7431342Y-6326394D01*
X-7429987Y-6327886D01*
X-7429981Y-6327893D01*
X-7239571Y-6537556D01*
X-7010741Y-6789524D01*
X-6561330Y-7224753D01*
X-6084957Y-7630295D01*
X-5583581Y-8004483D01*
X-5059260Y-8345778D01*
X-4514149Y-8652778D01*
X-4512325Y-8653656D01*
X-4512320Y-8653659D01*
X-4255517Y-8777329D01*
X-3950489Y-8924223D01*
X-3370595Y-9158996D01*
X-2776851Y-9356132D01*
X-2171696Y-9514823D01*
X-1557617Y-9634414D01*
X-937138Y-9714416D01*
X-312808Y-9754500D01*
X-310794Y-9754500D01*
X310794Y-9754500D01*
X312808Y-9754500D01*
X937138Y-9714416D01*
X1557617Y-9634414D01*
X2171696Y-9514823D01*
X2776851Y-9356132D01*
X3370595Y-9158996D01*
X3950489Y-8924223D01*
X4514149Y-8652778D01*
X5059260Y-8345778D01*
X5583581Y-8004483D01*
X6084957Y-7630295D01*
X6561330Y-7224753D01*
X7010741Y-6789524D01*
X7431342Y-6326394D01*
X7821407Y-5837268D01*
X8179333Y-5324156D01*
X8297031Y-5130000D01*
X12174457Y-5130000D01*
X12174706Y-5133957D01*
X12194358Y-5446330D01*
X12194359Y-5446339D01*
X12194608Y-5450294D01*
X12195349Y-5454180D01*
X12195351Y-5454193D01*
X12253999Y-5761637D01*
X12254002Y-5761649D01*
X12254744Y-5765538D01*
X12353916Y-6070758D01*
X12490561Y-6361142D01*
X12492684Y-6364488D01*
X12492685Y-6364489D01*
X12660399Y-6628766D01*
X12660405Y-6628775D01*
X12662522Y-6632110D01*
X12665041Y-6635155D01*
X12665044Y-6635159D01*
X12793907Y-6790928D01*
X12867089Y-6879390D01*
X12936450Y-6944524D01*
X13090395Y-7089088D01*
X13101036Y-7099080D01*
X13360672Y-7287716D01*
X13641903Y-7442324D01*
X13940294Y-7560466D01*
X14251139Y-7640277D01*
X14569536Y-7680500D01*
X14573495Y-7680500D01*
X14886505Y-7680500D01*
X14890464Y-7680500D01*
X15208861Y-7640277D01*
X15519706Y-7560466D01*
X15818097Y-7442324D01*
X16099328Y-7287716D01*
X16358964Y-7099080D01*
X16592911Y-6879390D01*
X16797478Y-6632110D01*
X16969439Y-6361142D01*
X17106084Y-6070758D01*
X17205256Y-5765538D01*
X17265392Y-5450294D01*
X17285543Y-5130000D01*
X17265392Y-4809706D01*
X17205256Y-4494462D01*
X17125039Y-4247580D01*
X17120103Y-4191073D01*
X17120561Y-4187820D01*
X17281107Y-3047801D01*
X17289560Y-3026356D01*
X17288803Y-3026154D01*
X17294023Y-3006667D01*
X17305371Y-2979268D01*
X17305586Y-2978048D01*
X17305588Y-2978045D01*
X17312131Y-2940932D01*
X17314505Y-2930224D01*
X17324264Y-2893807D01*
X17320979Y-2856256D01*
X17320500Y-2845276D01*
X17320500Y-2776802D01*
X17321442Y-2761424D01*
X17321462Y-2761260D01*
X17321614Y-2760182D01*
X17321728Y-2759097D01*
X17321865Y-2757984D01*
X17323122Y-2745845D01*
X17323296Y-2743642D01*
X17323236Y-2744213D01*
X17323413Y-2741411D01*
X17322281Y-2734749D01*
X17320500Y-2713639D01*
X17320500Y-2702325D01*
X17335353Y-2642976D01*
X17615374Y-2118555D01*
X17624519Y-2104071D01*
X17626835Y-2098796D01*
X17628772Y-2093466D01*
X17628775Y-2093462D01*
X17648613Y-2038899D01*
X17649261Y-2035814D01*
X17653643Y-2020090D01*
X17667725Y-1979849D01*
X17670500Y-1950256D01*
X17670500Y-1244744D01*
X17667725Y-1215151D01*
X17624116Y-1090525D01*
X17545711Y-984289D01*
X17439475Y-905884D01*
X17439474Y-905883D01*
X17314850Y-862275D01*
X17295387Y-860450D01*
X17229431Y-834175D01*
X17188150Y-776413D01*
X17184651Y-705503D01*
X17220045Y-643958D01*
X17283094Y-611318D01*
X17295387Y-609550D01*
X17295513Y-609538D01*
X17314849Y-607725D01*
X17439475Y-564116D01*
X17545711Y-485711D01*
X17624116Y-379475D01*
X17667725Y-254849D01*
X17670500Y-225256D01*
X17670500Y480256D01*
X17667725Y509849D01*
X17649399Y562220D01*
X17643928Y583825D01*
X17641711Y597612D01*
X17591970Y731467D01*
X17584637Y787185D01*
X17598387Y932934D01*
X17598498Y934371D01*
X17599053Y942259D01*
X17599129Y943663D01*
X17599598Y953500D01*
X17600527Y963828D01*
X17600682Y965000D01*
X17580044Y1121762D01*
X17519536Y1267841D01*
X17519535Y1267842D01*
X17519535Y1267843D01*
X17423282Y1393283D01*
X17297842Y1489536D01*
X17151761Y1550045D01*
X16995000Y1570682D01*
X16838238Y1550045D01*
X16692157Y1489536D01*
X16566717Y1393283D01*
X16470464Y1267843D01*
X16409955Y1121762D01*
X16392934Y992468D01*
X16389318Y965000D01*
X16392127Y943663D01*
X16392979Y937189D01*
X16393639Y922612D01*
X16401131Y874961D01*
X16401582Y871841D01*
X16410816Y801707D01*
X16414969Y786949D01*
X16417932Y768101D01*
X16408752Y697700D01*
X16394842Y673713D01*
X16365883Y634475D01*
X16322275Y509851D01*
X16320377Y489605D01*
X16319500Y480256D01*
X16319500Y-225256D01*
X16319774Y-228185D01*
X16319775Y-228192D01*
X16322275Y-254850D01*
X16365883Y-379474D01*
X16365884Y-379475D01*
X16444289Y-485711D01*
X16550525Y-564116D01*
X16675151Y-607725D01*
X16694472Y-609536D01*
X16694613Y-609550D01*
X16760569Y-635825D01*
X16801849Y-693587D01*
X16805348Y-764497D01*
X16769954Y-826043D01*
X16706905Y-858682D01*
X16694613Y-860450D01*
X16675149Y-862275D01*
X16550525Y-905883D01*
X16444289Y-984289D01*
X16365883Y-1090525D01*
X16322275Y-1215149D01*
X16320012Y-1239289D01*
X16319500Y-1244744D01*
X16319500Y-1950256D01*
X16319774Y-1953185D01*
X16319775Y-1953192D01*
X16322275Y-1979850D01*
X16355145Y-2073786D01*
X16356806Y-2078877D01*
X16362108Y-2096383D01*
X16365486Y-2104080D01*
X16374618Y-2118546D01*
X16517189Y-2385551D01*
X16531631Y-2455064D01*
X16506200Y-2521349D01*
X16448969Y-2563362D01*
X16422485Y-2569822D01*
X15515858Y-2689158D01*
X15468081Y-2686278D01*
X15212700Y-2620708D01*
X15212689Y-2620706D01*
X15208861Y-2619723D01*
X15204936Y-2619227D01*
X15204925Y-2619225D01*
X14894395Y-2579996D01*
X14894385Y-2579995D01*
X14890464Y-2579500D01*
X14569536Y-2579500D01*
X14565615Y-2579995D01*
X14565604Y-2579996D01*
X14255074Y-2619225D01*
X14255060Y-2619227D01*
X14251139Y-2619723D01*
X14247316Y-2620704D01*
X14247303Y-2620707D01*
X13944114Y-2698553D01*
X13944111Y-2698553D01*
X13940294Y-2699534D01*
X13936638Y-2700981D01*
X13936624Y-2700986D01*
X13645576Y-2816221D01*
X13645565Y-2816225D01*
X13641903Y-2817676D01*
X13638444Y-2819577D01*
X13638441Y-2819579D01*
X13366997Y-2968807D01*
X13360672Y-2972284D01*
X13357468Y-2974611D01*
X13357463Y-2974615D01*
X13104239Y-3158592D01*
X13104230Y-3158599D01*
X13101036Y-3160920D01*
X13098158Y-3163622D01*
X13098149Y-3163630D01*
X12869975Y-3377899D01*
X12869968Y-3377906D01*
X12867089Y-3380610D01*
X12864572Y-3383652D01*
X12864564Y-3383661D01*
X12665044Y-3624840D01*
X12665035Y-3624851D01*
X12662522Y-3627890D01*
X12660410Y-3631216D01*
X12660399Y-3631233D01*
X12492685Y-3895510D01*
X12492680Y-3895518D01*
X12490561Y-3898858D01*
X12488876Y-3902437D01*
X12488873Y-3902444D01*
X12366559Y-4162374D01*
X12353916Y-4189242D01*
X12352693Y-4193007D01*
X12352690Y-4193014D01*
X12255971Y-4490685D01*
X12254744Y-4494462D01*
X12254003Y-4498346D01*
X12253999Y-4498362D01*
X12195351Y-4805806D01*
X12195349Y-4805820D01*
X12194608Y-4809706D01*
X12194359Y-4813658D01*
X12194358Y-4813669D01*
X12174706Y-5126042D01*
X12174457Y-5130000D01*
X8297031Y-5130000D01*
X8503647Y-4789165D01*
X8793018Y-4234494D01*
X9046257Y-3662424D01*
X9262323Y-3075303D01*
X9440328Y-2475545D01*
X9579540Y-1865615D01*
X9679389Y-1248019D01*
X9739462Y-625294D01*
X9759514Y0D01*
X9739462Y625294D01*
X9679389Y1248019D01*
X9579540Y1865615D01*
X9440328Y2475545D01*
X9262323Y3075303D01*
X9046257Y3662424D01*
X8793018Y4234494D01*
X8503647Y4789165D01*
X8179333Y5324156D01*
X7821407Y5837268D01*
X7431342Y6326394D01*
X7010741Y6789524D01*
X6561330Y7224753D01*
X6084957Y7630295D01*
X5743395Y7885210D01*
X5585196Y8003278D01*
X5585189Y8003283D01*
X5583581Y8004483D01*
X5581894Y8005582D01*
X5581887Y8005586D01*
X5189457Y8261029D01*
X5059260Y8345778D01*
X4986204Y8386922D01*
X4515919Y8651781D01*
X4514149Y8652778D01*
X4512336Y8653651D01*
X4512319Y8653660D01*
X3952309Y8923347D01*
X3952296Y8923353D01*
X3950489Y8924223D01*
X3948627Y8924977D01*
X3372464Y9158240D01*
X3372445Y9158247D01*
X3370595Y9158996D01*
X2894744Y9316989D01*
X2778749Y9355502D01*
X2778743Y9355504D01*
X2776851Y9356132D01*
X2369059Y9463068D01*
X2173641Y9514313D01*
X2173639Y9514314D01*
X2171696Y9514823D01*
X2169727Y9515207D01*
X2169716Y9515209D01*
X1559593Y9634030D01*
X1559568Y9634035D01*
X1557617Y9634414D01*
X1555648Y9634668D01*
X1555635Y9634670D01*
X939138Y9714159D01*
X939111Y9714162D01*
X937138Y9714416D01*
X935118Y9714546D01*
X935115Y9714546D01*
X314819Y9754371D01*
X314815Y9754372D01*
X312808Y9754500D01*
X-312808Y9754500D01*
X-314815Y9754372D01*
X-314820Y9754371D01*
X-935116Y9714546D01*
X-935122Y9714546D01*
X-937138Y9714416D01*
X-939109Y9714162D01*
X-939139Y9714159D01*
X-1555636Y9634670D01*
X-1555654Y9634668D01*
X-1557617Y9634414D01*
X-1559564Y9634035D01*
X-1559594Y9634030D01*
X-2169717Y9515209D01*
X-2169735Y9515205D01*
X-2171696Y9514823D01*
X-2173634Y9514316D01*
X-2173642Y9514313D01*
X-2774915Y9356640D01*
X-2774925Y9356638D01*
X-2776851Y9356132D01*
X-2778736Y9355507D01*
X-2778750Y9355502D01*
X-3368674Y9159634D01*
X-3368680Y9159633D01*
X-3370595Y9158996D01*
X-3372436Y9158251D01*
X-3372465Y9158240D01*
X-3948628Y8924977D01*
X-3948643Y8924971D01*
X-3950489Y8924223D01*
X-3952286Y8923358D01*
X-3952310Y8923347D01*
X-4512320Y8653660D01*
X-4512350Y8653645D01*
X-4514149Y8652778D01*
X-4515911Y8651787D01*
X-4515920Y8651781D01*
X-5057498Y8346771D01*
X-5057514Y8346762D01*
X-5059260Y8345778D01*
X-5060948Y8344680D01*
X-5060955Y8344675D01*
X-5581888Y8005586D01*
X-5581910Y8005572D01*
X-5583581Y8004483D01*
X-5585176Y8003294D01*
X-5585197Y8003278D01*
X-6083344Y7631499D01*
X-6084957Y7630295D01*
X-6086471Y7629007D01*
X-6086490Y7628991D01*
X-6559792Y7226063D01*
X-6559805Y7226053D01*
X-6561330Y7224753D01*
X-6562764Y7223365D01*
X-6562783Y7223347D01*
X-7009291Y6790929D01*
X-7009303Y6790917D01*
X-7010741Y6789524D01*
X-7012081Y6788050D01*
X-7012098Y6788031D01*
X-7429981Y6327894D01*
X-7430000Y6327872D01*
X-7431342Y6326394D01*
X-7432590Y6324830D01*
X-7432602Y6324815D01*
X-7820145Y5838852D01*
X-7820163Y5838829D01*
X-7821407Y5837268D01*
X-7822550Y5835630D01*
X-7822566Y5835608D01*
X-8178176Y5325816D01*
X-8178190Y5325796D01*
X-8179333Y5324156D01*
X-8180368Y5322450D01*
X-8180388Y5322418D01*
X-8389433Y4977574D01*
X-8503647Y4789165D01*
X-8504571Y4787396D01*
X-8504580Y4787378D01*
X-8792086Y4236282D01*
X-8792096Y4236263D01*
X-8793018Y4234494D01*
X-8793831Y4232658D01*
X-8793837Y4232645D01*
X-9045443Y3664264D01*
X-9045449Y3664251D01*
X-9046257Y3662424D01*
X-9046948Y3660547D01*
X-9046953Y3660534D01*
X-9258999Y3084335D01*
X-9262323Y3075303D01*
X-9262895Y3073379D01*
X-9262898Y3073367D01*
X-9439756Y2477474D01*
X-9439760Y2477459D01*
X-9440328Y2475545D01*
X-9440768Y2473621D01*
X-9440775Y2473591D01*
X-9557906Y1960402D01*
X-9579540Y1865615D01*
X-9579856Y1863661D01*
X-9579860Y1863640D01*
X-9679070Y1249997D01*
X-9679074Y1249973D01*
X-9679389Y1248019D01*
X-9679579Y1246053D01*
X-9679582Y1246027D01*
X-9739268Y627315D01*
X-9739270Y627286D01*
X-9739462Y625294D01*
X-9739527Y623281D01*
X-9739528Y623258D01*
X-9752385Y222303D01*
X-9759514Y0D01*
X-10687238Y0D01*
X-10522750Y932856D01*
X-10524051Y992471D01*
X-10524908Y994418D01*
X-10534036Y1064821D01*
X-10503651Y1128987D01*
X-10500630Y1132259D01*
X-10499127Y1133828D01*
X-10477515Y1189402D01*
X-10166772Y2951712D01*
X-10168073Y3011327D01*
X-10200198Y3084335D01*
X-10257816Y3139493D01*
X-10257817Y3139494D01*
X-10313390Y3161105D01*
X-11181662Y3314206D01*
X-11212337Y3323776D01*
X-11430506Y3423903D01*
X-11484074Y3470497D01*
X-11503949Y3538655D01*
X-11502871Y3554865D01*
X-11494318Y3619830D01*
X-11514956Y3776592D01*
X-11575464Y3922671D01*
X-11575465Y3922672D01*
X-11575465Y3922673D01*
X-11671718Y4048113D01*
X-11797158Y4144366D01*
X-11943239Y4204875D01*
X-12100000Y4225512D01*
X-12256762Y4204875D01*
X-12402843Y4144366D01*
X-12528280Y4048115D01*
X-12624538Y3922668D01*
X-12626769Y3917281D01*
X-12671319Y3862002D01*
X-12680059Y3856452D01*
X-13008509Y3666350D01*
X-13077486Y3649537D01*
X-13093506Y3651315D01*
X-13799116Y3775733D01*
X-13858728Y3774431D01*
X-13931737Y3742306D01*
X-13986896Y3684688D01*
X-14008508Y3629115D01*
X-14319251Y1866802D01*
X-14317897Y1804769D01*
X-14336409Y1736228D01*
X-14389037Y1688576D01*
X-14395961Y1685483D01*
X-14625594Y1591086D01*
X-14696204Y1583686D01*
X-14759605Y1615636D01*
X-14795669Y1676791D01*
X-14799500Y1707624D01*
X-14799500Y8297827D01*
X-14779498Y8365948D01*
X-14762600Y8386917D01*
X-8453954Y14695564D01*
X-8432832Y14712559D01*
X-7828838Y15099432D01*
X-7760878Y15119330D01*
X-7712698Y15119330D01*
X-7709744Y15119330D01*
X-7680151Y15122105D01*
X-7555525Y15165714D01*
X-7549027Y15170511D01*
X-7482340Y15194869D01*
X-7413070Y15179308D01*
X-7363210Y15128766D01*
X-7348589Y15059291D01*
X-7373850Y14992941D01*
X-7385109Y14980037D01*
X-9306279Y13058867D01*
X-9327246Y13041969D01*
X-9331126Y13039476D01*
X-9363602Y13001997D01*
X-9369724Y12995422D01*
X-9379222Y12985924D01*
X-9387269Y12975174D01*
X-9392907Y12968177D01*
X-9425379Y12930701D01*
X-9427294Y12926508D01*
X-9441028Y12903360D01*
X-9443795Y12899664D01*
X-9461125Y12853202D01*
X-9464566Y12844896D01*
X-9485166Y12799789D01*
X-9485822Y12795222D01*
X-9492480Y12769135D01*
X-9494091Y12764817D01*
X-9497630Y12715349D01*
X-9498590Y12706418D01*
X-9500500Y12693129D01*
X-9500500Y12679711D01*
X-9500821Y12670723D01*
X-9504359Y12621258D01*
X-9503380Y12616759D01*
X-9500500Y12589974D01*
X-9500500Y12140667D01*
X-9500790Y12132118D01*
X-9502102Y12112826D01*
X-9501538Y12108460D01*
X-9500500Y12092318D01*
X-9500500Y11601014D01*
X-9503379Y11574234D01*
X-9504359Y11569730D01*
X-9500821Y11520264D01*
X-9500500Y11511275D01*
X-9500500Y11497856D01*
X-9498590Y11484566D01*
X-9497630Y11475635D01*
X-9494091Y11426170D01*
X-9492482Y11421856D01*
X-9485822Y11395763D01*
X-9485166Y11391200D01*
X-9485166Y11391199D01*
X-9485165Y11391197D01*
X-9469759Y11357462D01*
X-9464569Y11346099D01*
X-9461128Y11337789D01*
X-9443798Y11291325D01*
X-9441034Y11287633D01*
X-9427291Y11264470D01*
X-9425379Y11260282D01*
X-9411003Y11243692D01*
X-9381510Y11179112D01*
X-9381266Y11177323D01*
X-9374941Y11128361D01*
X-9373772Y11120466D01*
X-9373682Y11119927D01*
X-9364970Y11098115D01*
X-9362669Y11091882D01*
X-9353961Y11066227D01*
X-9352886Y11064366D01*
X-9344999Y11048114D01*
X-9341284Y11038815D01*
X-9337591Y11033347D01*
X-9329324Y11021110D01*
X-9329666Y11020880D01*
X-9322164Y11011154D01*
X-8846795Y10187791D01*
X-7586689Y8005222D01*
X-7584212Y8000933D01*
X-7544896Y7956102D01*
X-7509127Y7938464D01*
X-7473359Y7920824D01*
X-7393766Y7915606D01*
X-7393766Y7915607D01*
X-7393765Y7915606D01*
X-7337300Y7934773D01*
X-5787552Y8829521D01*
X-5742720Y8868837D01*
X-5741783Y8870740D01*
X-5693717Y8922989D01*
X-5625033Y8940959D01*
X-5620542Y8940746D01*
X-5618413Y8940606D01*
X-5561948Y8959773D01*
X-4012200Y9854521D01*
X-3967368Y9893837D01*
X-3932090Y9965376D01*
X-3926873Y10044969D01*
X-3946040Y10101433D01*
X-3946040Y10101434D01*
X-4082795Y10338301D01*
X3372237Y10338301D01*
X3378643Y10258795D01*
X3414990Y10187790D01*
X3460402Y10149150D01*
X4598967Y9514313D01*
X5023361Y9277681D01*
X5080106Y9259361D01*
X5082223Y9259532D01*
X5151729Y9245067D01*
X5202382Y9195319D01*
X5204503Y9191353D01*
X5205472Y9189460D01*
X5250886Y9150818D01*
X6379987Y8521258D01*
X6813845Y8279349D01*
X6870590Y8261029D01*
X6950096Y8267436D01*
X7021099Y8303781D01*
X7059740Y8349195D01*
X7357288Y8882843D01*
X7390755Y8921536D01*
X7552864Y9045603D01*
X7619113Y9071118D01*
X7677658Y9061950D01*
X7743236Y9034786D01*
X7775909Y9030485D01*
X7900000Y9014148D01*
X8056762Y9034786D01*
X8202841Y9095294D01*
X8328282Y9191548D01*
X8424536Y9316989D01*
X8485044Y9463068D01*
X8505682Y9619830D01*
X8485044Y9776592D01*
X8436480Y9893836D01*
X8424535Y9922674D01*
X8336575Y10037305D01*
X8310974Y10103525D01*
X8310579Y10110774D01*
X8299698Y10536994D01*
X8315607Y10601565D01*
X8783443Y11440615D01*
X8801763Y11497360D01*
X8795356Y11576866D01*
X8759011Y11647869D01*
X8759009Y11647871D01*
X8713597Y11686511D01*
X7150640Y12557979D01*
X7093891Y12576300D01*
X7091772Y12576129D01*
X7022265Y12590597D01*
X6971614Y12640346D01*
X6969495Y12644310D01*
X6968526Y12646202D01*
X6923113Y12684843D01*
X5401280Y13533381D01*
X5393390Y13538167D01*
X5372394Y13551980D01*
X5374070Y13554529D01*
X5333519Y13586729D01*
X5310616Y13653930D01*
X5310500Y13659331D01*
X5310500Y14835033D01*
X5313879Y14864015D01*
X5454707Y15459851D01*
X5454707Y15459855D01*
X5455272Y15462242D01*
X5457131Y15474144D01*
X5462690Y15496307D01*
X5472725Y15524981D01*
X5475500Y15554574D01*
X6524500Y15554574D01*
X6524774Y15551645D01*
X6524775Y15551638D01*
X6527275Y15524980D01*
X6570883Y15400356D01*
X6570884Y15400355D01*
X6649289Y15294119D01*
X6755525Y15215714D01*
X6880151Y15172105D01*
X6909744Y15169330D01*
X6960877Y15169330D01*
X7028836Y15149432D01*
X7587575Y14791546D01*
X7632823Y14762564D01*
X7653958Y14745558D01*
X11594606Y10804910D01*
X11628632Y10742598D01*
X11631511Y10715815D01*
X11631511Y5039024D01*
X11615510Y4977574D01*
X11151245Y4146513D01*
X11100561Y4096798D01*
X11063126Y4083877D01*
X10202389Y3932105D01*
X10146816Y3910494D01*
X10089198Y3855335D01*
X10057073Y3782327D01*
X10055771Y3722714D01*
X10366514Y1960402D01*
X10388127Y1904828D01*
X10389594Y1903295D01*
X10422253Y1840256D01*
X10415646Y1769568D01*
X10413907Y1765417D01*
X10413051Y1763472D01*
X10411749Y1703858D01*
X10722492Y-58454D01*
X10744104Y-114027D01*
X10744105Y-114028D01*
X10799263Y-171646D01*
X10872272Y-203771D01*
X10929390Y-205017D01*
X10931884Y-205072D01*
X10931884Y-205071D01*
X10931886Y-205072D01*
X14417609Y409555D01*
X14473184Y431167D01*
X14523674Y479502D01*
X14586713Y512159D01*
X14594359Y513406D01*
X14599997Y514149D01*
X14600000Y514148D01*
X14756762Y534786D01*
X14902841Y595294D01*
X15028282Y691548D01*
X15124536Y816989D01*
X15185044Y963068D01*
X15205682Y1119830D01*
X15185044Y1276592D01*
X15124536Y1422671D01*
X15124535Y1422672D01*
X15124535Y1422673D01*
X15028282Y1548113D01*
X14902842Y1644366D01*
X14741437Y1711222D01*
X14741703Y1711865D01*
X14692893Y1733458D01*
X14686700Y1739060D01*
X14330370Y2083553D01*
X14295297Y2145281D01*
X14293866Y2152239D01*
X14253485Y2381258D01*
X14231873Y2436832D01*
X14231872Y2436833D01*
X14231872Y2436834D01*
X14230405Y2438366D01*
X14197746Y2501405D01*
X14204353Y2572093D01*
X14206066Y2576185D01*
X14206949Y2578189D01*
X14208250Y2637804D01*
X14027257Y3664264D01*
X13897507Y4400115D01*
X13875895Y4455688D01*
X13875895Y4455689D01*
X13820737Y4513306D01*
X13747728Y4545431D01*
X13746453Y4545459D01*
X13688114Y4546733D01*
X13168779Y4455161D01*
X13098220Y4463031D01*
X13048406Y4500666D01*
X12660017Y4987479D01*
X12633169Y5053204D01*
X12632511Y5066060D01*
X12632511Y10907963D01*
X12635391Y10934748D01*
X12636370Y10939246D01*
X12632832Y10988712D01*
X12632511Y10997700D01*
X12632511Y11011118D01*
X12630601Y11024400D01*
X12629639Y11033347D01*
X12627959Y11056835D01*
X12626102Y11082802D01*
X12624493Y11087116D01*
X12617831Y11113220D01*
X12617176Y11117776D01*
X12596578Y11162878D01*
X12593135Y11171191D01*
X12575807Y11217650D01*
X12573047Y11221337D01*
X12559301Y11244504D01*
X12557389Y11248691D01*
X12524920Y11286162D01*
X12519276Y11293167D01*
X12511235Y11303908D01*
X12511234Y11303909D01*
X12511232Y11303912D01*
X12501733Y11313411D01*
X12495615Y11319983D01*
X12463140Y11357462D01*
X12459259Y11359956D01*
X12438286Y11376858D01*
X8361077Y15454067D01*
X8345516Y15472997D01*
X7896844Y16142217D01*
X7875524Y16209936D01*
X7875500Y16212382D01*
X7875500Y16257133D01*
X7875500Y16260086D01*
X7872725Y16289679D01*
X7829116Y16414305D01*
X7750711Y16520541D01*
X7644475Y16598946D01*
X7644474Y16598947D01*
X7519850Y16642555D01*
X7493192Y16645055D01*
X7493185Y16645056D01*
X7490256Y16645330D01*
X6909744Y16645330D01*
X6906815Y16645056D01*
X6906807Y16645055D01*
X6880149Y16642555D01*
X6755525Y16598947D01*
X6649289Y16520541D01*
X6570883Y16414305D01*
X6527275Y16289681D01*
X6527274Y16289679D01*
X6527275Y16289679D01*
X6524500Y16260086D01*
X6524500Y15554574D01*
X5475500Y15554574D01*
X5475500Y16260086D01*
X5472725Y16289679D01*
X5429116Y16414305D01*
X5350711Y16520541D01*
X5244475Y16598946D01*
X5244474Y16598947D01*
X5119850Y16642555D01*
X5093192Y16645055D01*
X5093185Y16645056D01*
X5090256Y16645330D01*
X4509744Y16645330D01*
X4506815Y16645056D01*
X4506807Y16645055D01*
X4480149Y16642555D01*
X4355525Y16598947D01*
X4249289Y16520541D01*
X4170883Y16414305D01*
X4127275Y16289681D01*
X4127274Y16289679D01*
X4127275Y16289679D01*
X4124500Y16260086D01*
X4124500Y15554574D01*
X4124774Y15551645D01*
X4124775Y15551638D01*
X4127275Y15524979D01*
X4139718Y15489419D01*
X4146514Y15456124D01*
X4146519Y15456035D01*
X4305189Y14865153D01*
X4309500Y14832476D01*
X4309500Y13454587D01*
X4305895Y13432595D01*
X4306468Y13432521D01*
X4074876Y11640824D01*
X4059965Y11595615D01*
X3390557Y10395047D01*
X3372237Y10338301D01*
X-4082795Y10338301D01*
X-4497641Y11056835D01*
X-4514379Y11125830D01*
X-4491159Y11192922D01*
X-4465230Y11219795D01*
X-4371718Y11291548D01*
X-4275464Y11416989D01*
X-4274286Y11419834D01*
X-705683Y11419834D01*
X-685045Y11263069D01*
X-624536Y11116988D01*
X-528283Y10991548D01*
X-402843Y10895295D01*
X-402842Y10895295D01*
X-402841Y10895294D01*
X-256762Y10834786D01*
X-100000Y10814148D01*
X56762Y10834786D01*
X202841Y10895294D01*
X328282Y10991548D01*
X424536Y11116989D01*
X485044Y11263068D01*
X505682Y11419830D01*
X503354Y11437505D01*
X502882Y11453561D01*
X499006Y11484566D01*
X471829Y11701990D01*
X483227Y11772064D01*
X530702Y11824853D01*
X599180Y11843596D01*
X638324Y11835433D01*
X643237Y11834787D01*
X643238Y11834786D01*
X800000Y11814148D01*
X956762Y11834786D01*
X1102841Y11895294D01*
X1228282Y11991548D01*
X1324536Y12116989D01*
X1385044Y12263068D01*
X1405682Y12419830D01*
X1385044Y12576592D01*
X1376742Y12596633D01*
X1370256Y12617051D01*
X1367816Y12627837D01*
X1367816Y12627842D01*
X1245909Y13166727D01*
X1230116Y13236541D01*
X1227011Y13264342D01*
X1227011Y14739273D01*
X1247013Y14807394D01*
X1300669Y14853887D01*
X1370943Y14863991D01*
X1435523Y14834497D01*
X1452968Y14815983D01*
X1471718Y14791548D01*
X1471720Y14791546D01*
X1597157Y14695295D01*
X1597158Y14695295D01*
X1597159Y14695294D01*
X1743238Y14634786D01*
X1900000Y14614148D01*
X2056762Y14634786D01*
X2202841Y14695294D01*
X2328282Y14791548D01*
X2424536Y14916989D01*
X2485044Y15063068D01*
X2505682Y15219830D01*
X2503354Y15237505D01*
X2502882Y15253561D01*
X2497812Y15294119D01*
X2405194Y16035070D01*
X2403900Y16045426D01*
X2403965Y16045435D01*
X2400500Y16069198D01*
X2400500Y21097947D01*
X2420502Y21166068D01*
X2474158Y21212561D01*
X2544432Y21222665D01*
X2600560Y21199884D01*
X2735479Y21101859D01*
X2893812Y21031364D01*
X3063342Y20995330D01*
X3063343Y20995330D01*
X3236657Y20995330D01*
X3236658Y20995330D01*
X3406188Y21031364D01*
X3564521Y21101859D01*
X3704737Y21203732D01*
X3820709Y21332531D01*
X3907368Y21482628D01*
X3960925Y21647462D01*
X3979042Y21819830D01*
X3960925Y21992198D01*
X3907368Y22157032D01*
X3820709Y22307129D01*
X3704737Y22435928D01*
X3685115Y22450184D01*
X3605464Y22508054D01*
X3564521Y22537801D01*
X3406188Y22608296D01*
X3236658Y22644330D01*
X3063342Y22644330D01*
X2893812Y22608297D01*
X2893812Y22608296D01*
X2735477Y22537800D01*
X2600561Y22439778D01*
X2533693Y22415919D01*
X2464541Y22432000D01*
X2415061Y22482914D01*
X2400500Y22541714D01*
X2400500Y22670080D01*
X2404081Y22692220D01*
X2403654Y22692273D01*
X2405319Y22705588D01*
X2502273Y23481224D01*
X2502273Y23481226D01*
X2502468Y23483141D01*
X2503450Y23493733D01*
X2503585Y23495643D01*
X2503540Y23495155D01*
X2503597Y23496102D01*
X2503596Y23496103D01*
X2504203Y23506180D01*
X2505051Y23515046D01*
X2505682Y23519830D01*
X2505681Y23519833D01*
X2505682Y23519835D01*
X2485044Y23676592D01*
X2455400Y23748159D01*
X2424536Y23822671D01*
X2424535Y23822672D01*
X2424535Y23822673D01*
X2328282Y23948113D01*
X2202842Y24044366D01*
X2056761Y24104875D01*
X1900000Y24125512D01*
X1743238Y24104875D01*
X1597157Y24044366D01*
X1471717Y23948113D01*
X1375464Y23822673D01*
X1314955Y23676592D01*
X1294318Y23519832D01*
X1296645Y23502149D01*
X1297118Y23486091D01*
X1297726Y23481227D01*
X1297726Y23481226D01*
X1394681Y22705588D01*
X1396101Y22694234D01*
X1396034Y22694226D01*
X1399500Y22670465D01*
X1399500Y22508054D01*
X1379498Y22439933D01*
X1325842Y22393440D01*
X1255568Y22383336D01*
X1190988Y22412830D01*
X1172638Y22432537D01*
X1167552Y22439330D01*
X1153801Y22462504D01*
X1151889Y22466691D01*
X1119420Y22504162D01*
X1113776Y22511167D01*
X1105735Y22521908D01*
X1105734Y22521909D01*
X1105732Y22521912D01*
X1096233Y22531411D01*
X1090115Y22537983D01*
X1057640Y22575462D01*
X1053759Y22577956D01*
X1032786Y22594858D01*
X560435Y23067209D01*
X526409Y23129521D01*
X523678Y23150197D01*
X522975Y23164682D01*
X506279Y23508735D01*
X506488Y23513693D01*
X506454Y23513958D01*
X505915Y23519949D01*
X505039Y23524713D01*
X496209Y23591781D01*
X485044Y23676592D01*
X424536Y23822671D01*
X424535Y23822672D01*
X424535Y23822673D01*
X328282Y23948113D01*
X202842Y24044366D01*
X56761Y24104875D01*
X-100000Y24125512D01*
X-256762Y24104875D01*
X-402843Y24044366D01*
X-528283Y23948113D01*
X-624536Y23822673D01*
X-685045Y23676592D01*
X-705682Y23519832D01*
X-705682Y23519830D01*
X-702558Y23496102D01*
X-685045Y23363068D01*
X-660034Y23302686D01*
X-654377Y23285708D01*
X-649549Y23266841D01*
X-637204Y23241080D01*
X-615549Y23195890D01*
X-612873Y23190307D01*
X-600500Y23135856D01*
X-600500Y23087190D01*
X-603379Y23060410D01*
X-604359Y23055906D01*
X-600821Y23006440D01*
X-600500Y22997451D01*
X-600500Y22984032D01*
X-598590Y22970742D01*
X-597630Y22961811D01*
X-594091Y22912346D01*
X-592482Y22908032D01*
X-585822Y22881939D01*
X-585166Y22877376D01*
X-564569Y22832275D01*
X-561128Y22823965D01*
X-543798Y22777501D01*
X-541034Y22773809D01*
X-527291Y22750646D01*
X-525379Y22746458D01*
X-492909Y22708986D01*
X-487267Y22701984D01*
X-479226Y22691242D01*
X-479222Y22691238D01*
X-479221Y22691237D01*
X-469725Y22681741D01*
X-463608Y22675171D01*
X-431128Y22637687D01*
X-427253Y22635197D01*
X-406280Y22618296D01*
X-95113Y22307129D01*
X189106Y22022911D01*
X223131Y21960598D01*
X226011Y21933815D01*
X226011Y21523342D01*
X206009Y21455221D01*
X152353Y21408728D01*
X82079Y21398624D01*
X61634Y21404233D01*
X-100000Y21425512D01*
X-256762Y21404875D01*
X-402843Y21344366D01*
X-528283Y21248113D01*
X-624536Y21122673D01*
X-685045Y20976592D01*
X-705682Y20819832D01*
X-703355Y20802149D01*
X-702882Y20786091D01*
X-603899Y19994234D01*
X-603966Y19994226D01*
X-600500Y19970465D01*
X-600500Y12269585D01*
X-604082Y12247443D01*
X-603655Y12247389D01*
X-605195Y12235071D01*
X-605195Y12235070D01*
X-616065Y12148112D01*
X-702275Y11458425D01*
X-702471Y11456503D01*
X-703454Y11445882D01*
X-703591Y11443946D01*
X-703543Y11444472D01*
X-704209Y11433433D01*
X-705058Y11424576D01*
X-705683Y11419834D01*
X-4274286Y11419834D01*
X-4214956Y11563068D01*
X-4194318Y11719830D01*
X-4214956Y11876592D01*
X-4275464Y12022671D01*
X-4275465Y12022672D01*
X-4275465Y12022673D01*
X-4371718Y12148113D01*
X-4497158Y12244366D01*
X-4643239Y12304875D01*
X-4800000Y12325512D01*
X-4956762Y12304875D01*
X-5065655Y12259769D01*
X-5136245Y12252180D01*
X-5199732Y12283959D01*
X-5222992Y12313178D01*
X-5266800Y12389055D01*
X-5715788Y13166727D01*
X-5755104Y13211558D01*
X-5755106Y13211559D01*
X-5826642Y13246837D01*
X-5906235Y13252055D01*
X-5962701Y13232887D01*
X-7512449Y12338139D01*
X-7557280Y12298824D01*
X-7558220Y12296917D01*
X-7606289Y12244668D01*
X-7674975Y12226702D01*
X-7679467Y12226916D01*
X-7681585Y12227055D01*
X-7738052Y12207887D01*
X-7770769Y12188999D01*
X-7839765Y12172264D01*
X-7861293Y12175165D01*
X-8383762Y12292137D01*
X-8445867Y12326538D01*
X-8479514Y12389055D01*
X-8474021Y12459839D01*
X-8445331Y12504186D01*
X-6253954Y14695564D01*
X-6232832Y14712559D01*
X-5628838Y15099432D01*
X-5560878Y15119330D01*
X-5512698Y15119330D01*
X-5509744Y15119330D01*
X-5480151Y15122105D01*
X-5355525Y15165714D01*
X-5249289Y15244119D01*
X-5170884Y15350355D01*
X-5127275Y15474981D01*
X-5124500Y15504574D01*
X-5124500Y16210086D01*
X-5127275Y16239679D01*
X-5170884Y16364305D01*
X-5249289Y16470541D01*
X-5355525Y16548946D01*
X-5355526Y16548947D01*
X-5480150Y16592555D01*
X-5506808Y16595055D01*
X-5506815Y16595056D01*
X-5509744Y16595330D01*
X-6090256Y16595330D01*
X-6093185Y16595056D01*
X-6093193Y16595055D01*
X-6119851Y16592555D01*
X-6244475Y16548947D01*
X-6350711Y16470541D01*
X-6429117Y16364305D01*
X-6472725Y16239681D01*
X-6473232Y16234268D01*
X-6475500Y16210086D01*
X-6475500Y16207133D01*
X-6475500Y16162384D01*
X-6495502Y16094263D01*
X-6496844Y16092219D01*
X-6945516Y15422999D01*
X-6961077Y15404069D01*
X-7185207Y15179939D01*
X-7247519Y15145913D01*
X-7318334Y15150978D01*
X-7375170Y15193525D01*
X-7399981Y15260045D01*
X-7384890Y15329419D01*
X-7375680Y15343857D01*
X-7370884Y15350355D01*
X-7327275Y15474981D01*
X-7324500Y15504574D01*
X-7324500Y16210086D01*
X-7327275Y16239679D01*
X-7370884Y16364305D01*
X-7449289Y16470541D01*
X-7555525Y16548946D01*
X-7555526Y16548947D01*
X-7680150Y16592555D01*
X-7706808Y16595055D01*
X-7706815Y16595056D01*
X-7709744Y16595330D01*
X-8290256Y16595330D01*
X-8293185Y16595056D01*
X-8293193Y16595055D01*
X-8319851Y16592555D01*
X-8444475Y16548947D01*
X-8550711Y16470541D01*
X-8629117Y16364305D01*
X-8672725Y16239681D01*
X-8673232Y16234268D01*
X-8675500Y16210086D01*
X-8675500Y16207133D01*
X-8675500Y16162384D01*
X-8695502Y16094263D01*
X-8696844Y16092219D01*
X-9145516Y15422999D01*
X-9161077Y15404069D01*
X-9385207Y15179939D01*
X-9447519Y15145913D01*
X-9518334Y15150978D01*
X-9575170Y15193525D01*
X-9599981Y15260045D01*
X-9584890Y15329419D01*
X-9575680Y15343857D01*
X-9570884Y15350355D01*
X-9527275Y15474981D01*
X-9524500Y15504574D01*
X-9524500Y16210086D01*
X-9527275Y16239679D01*
X-9570884Y16364305D01*
X-9649289Y16470541D01*
X-9755525Y16548946D01*
X-9755526Y16548947D01*
X-9880150Y16592555D01*
X-9906808Y16595055D01*
X-9906815Y16595056D01*
X-9909744Y16595330D01*
X-10490256Y16595330D01*
X-10493185Y16595056D01*
X-10493193Y16595055D01*
X-10519851Y16592555D01*
X-10644475Y16548947D01*
X-10750711Y16470541D01*
X-10829117Y16364305D01*
X-10872725Y16239681D01*
X-10873232Y16234268D01*
X-10875500Y16210086D01*
X-10875500Y16207133D01*
X-10875500Y16162384D01*
X-10895502Y16094263D01*
X-10896844Y16092219D01*
X-11345518Y15422996D01*
X-11361079Y15404066D01*
X-18496279Y8268867D01*
X-18517246Y8251969D01*
X-18521126Y8249476D01*
X-18553602Y8211997D01*
X-18559724Y8205422D01*
X-18569222Y8195924D01*
X-18577269Y8185174D01*
X-18582907Y8178177D01*
X-18615379Y8140701D01*
X-18617294Y8136508D01*
X-18631028Y8113360D01*
X-18633795Y8109664D01*
X-18651125Y8063202D01*
X-18654566Y8054896D01*
X-18675166Y8009789D01*
X-18675822Y8005222D01*
X-18682480Y7979135D01*
X-18684091Y7974817D01*
X-18687630Y7925349D01*
X-18688590Y7916418D01*
X-18690500Y7903129D01*
X-18690500Y7889711D01*
X-18690821Y7880723D01*
X-18694359Y7831258D01*
X-18693380Y7826759D01*
X-18690500Y7799974D01*
X-18690500Y-6972640D01*
X-18693379Y-6999420D01*
X-18694359Y-7003924D01*
X-18694359Y-7003926D01*
X-18694359Y-7003927D01*
X-18690821Y-7053390D01*
X-18690500Y-7062379D01*
X-18690500Y-7075798D01*
X-18688590Y-7089088D01*
X-18687630Y-7098019D01*
X-18684091Y-7147484D01*
X-18682482Y-7151798D01*
X-18675822Y-7177891D01*
X-18675166Y-7182454D01*
X-18675166Y-7182455D01*
X-18675165Y-7182457D01*
X-18656492Y-7223346D01*
X-18654569Y-7227555D01*
X-18651128Y-7235865D01*
X-18633798Y-7282329D01*
X-18631034Y-7286021D01*
X-18617291Y-7309184D01*
X-18615379Y-7313372D01*
X-18582909Y-7350844D01*
X-18577267Y-7357846D01*
X-18569226Y-7368588D01*
X-18569222Y-7368592D01*
X-18569221Y-7368593D01*
X-18559725Y-7378089D01*
X-18553606Y-7384661D01*
X-18525208Y-7417435D01*
X-18521128Y-7422143D01*
X-18517251Y-7424635D01*
X-18496277Y-7441537D01*
X-14851369Y-11086445D01*
X-14834467Y-11107418D01*
X-14831973Y-11111299D01*
X-14794494Y-11143774D01*
X-14787922Y-11149892D01*
X-14778423Y-11159391D01*
X-14778420Y-11159393D01*
X-14778419Y-11159394D01*
X-14767678Y-11167435D01*
X-14760672Y-11173080D01*
X-14724474Y-11204446D01*
X-14686091Y-11264172D01*
X-14686091Y-11335169D01*
X-14724475Y-11394895D01*
X-14789056Y-11424388D01*
X-14806987Y-11425670D01*
X-17995499Y-11425670D01*
X-18004488Y-11425349D01*
X-18239420Y-11408546D01*
X-18257214Y-11405988D01*
X-18482961Y-11356880D01*
X-18500205Y-11351817D01*
X-18716664Y-11271082D01*
X-18733017Y-11263613D01*
X-18935783Y-11152894D01*
X-18950906Y-11143175D01*
X-19135848Y-11004729D01*
X-19149434Y-10992956D01*
X-19312787Y-10829603D01*
X-19324560Y-10816017D01*
X-19463006Y-10631075D01*
X-19472725Y-10615952D01*
X-19583444Y-10413186D01*
X-19590910Y-10396839D01*
X-19671651Y-10180365D01*
X-19676708Y-10163140D01*
X-19725821Y-9937372D01*
X-19728376Y-9919601D01*
X-19745181Y-9684630D01*
X-19745500Y-9675694D01*
X-19745500Y-9635295D01*
X-19745500Y-9635294D01*
X-19745501Y21819830D01*
X-4179042Y21819830D01*
X-4160925Y21647462D01*
X-4160924Y21647459D01*
X-4107370Y21482632D01*
X-4107369Y21482630D01*
X-4107368Y21482628D01*
X-4020709Y21332531D01*
X-3904737Y21203732D01*
X-3764521Y21101859D01*
X-3606188Y21031364D01*
X-3436658Y20995330D01*
X-3436657Y20995330D01*
X-3263343Y20995330D01*
X-3263342Y20995330D01*
X-3093812Y21031364D01*
X-2935479Y21101859D01*
X-2795263Y21203732D01*
X-2679291Y21332531D01*
X-2592632Y21482628D01*
X-2539075Y21647462D01*
X-2520958Y21819830D01*
X-2539075Y21992198D01*
X-2592632Y22157032D01*
X-2679291Y22307129D01*
X-2795263Y22435928D01*
X-2814885Y22450184D01*
X-2894536Y22508054D01*
X-2935479Y22537801D01*
X-3093812Y22608296D01*
X-3263342Y22644330D01*
X-3436658Y22644330D01*
X-3606188Y22608297D01*
X-3606188Y22608296D01*
X-3764523Y22537800D01*
X-3904737Y22435929D01*
X-3994915Y22335776D01*
X-4011093Y22317808D01*
X-4020708Y22307130D01*
X-4107370Y22157029D01*
X-4128916Y22090714D01*
X-4160925Y21992198D01*
X-4179042Y21819830D01*
X-19745501Y21819830D01*
X-19745501Y22429574D01*
X-9275500Y22429574D01*
X-9275226Y22426645D01*
X-9275225Y22426638D01*
X-9272725Y22399980D01*
X-9229117Y22275356D01*
X-9229116Y22275355D01*
X-9150711Y22169119D01*
X-9044475Y22090714D01*
X-8919849Y22047105D01*
X-8890256Y22044330D01*
X-8887302Y22044330D01*
X-8312698Y22044330D01*
X-8309744Y22044330D01*
X-8280151Y22047105D01*
X-8155525Y22090714D01*
X-8049289Y22169119D01*
X-7970884Y22275355D01*
X-7927275Y22399981D01*
X-7924500Y22429574D01*
X-7175500Y22429574D01*
X-7175226Y22426645D01*
X-7175225Y22426638D01*
X-7172725Y22399980D01*
X-7129117Y22275356D01*
X-7129116Y22275355D01*
X-7050711Y22169119D01*
X-6944475Y22090714D01*
X-6819849Y22047105D01*
X-6790256Y22044330D01*
X-6787302Y22044330D01*
X-6212698Y22044330D01*
X-6209744Y22044330D01*
X-6180151Y22047105D01*
X-6055525Y22090714D01*
X-5949289Y22169119D01*
X-5870884Y22275355D01*
X-5827275Y22399981D01*
X-5824500Y22429574D01*
X-5824500Y23135086D01*
X-5827275Y23164679D01*
X-5836243Y23190307D01*
X-5841958Y23206640D01*
X-5848366Y23235352D01*
X-5848683Y23238420D01*
X-5848956Y23241080D01*
X-5928560Y23499342D01*
X-5933592Y23548289D01*
X-5921613Y23675264D01*
X-5921502Y23676701D01*
X-5920947Y23684589D01*
X-5920871Y23685993D01*
X-5920402Y23695830D01*
X-5919473Y23706158D01*
X-5919318Y23707330D01*
X-5939956Y23864092D01*
X-6000464Y24010171D01*
X-6000465Y24010172D01*
X-6000465Y24010173D01*
X-6096718Y24135613D01*
X-6222158Y24231866D01*
X-6368239Y24292375D01*
X-6525000Y24313012D01*
X-6681762Y24292375D01*
X-6827843Y24231866D01*
X-6953283Y24135613D01*
X-7049536Y24010173D01*
X-7110045Y23864092D01*
X-7130682Y23707332D01*
X-7130682Y23707330D01*
X-7129168Y23695830D01*
X-7127021Y23679519D01*
X-7126361Y23664942D01*
X-7118869Y23617291D01*
X-7118418Y23614171D01*
X-7109184Y23544039D01*
X-7105031Y23529281D01*
X-7095098Y23466103D01*
X-7099159Y23409421D01*
X-7150173Y23243909D01*
X-7150178Y23243894D01*
X-7151046Y23241074D01*
X-7151645Y23238199D01*
X-7151650Y23238176D01*
X-7156766Y23213584D01*
X-7161193Y23197640D01*
X-7172725Y23164681D01*
X-7172726Y23164679D01*
X-7172725Y23164679D01*
X-7175500Y23135086D01*
X-7175500Y22429574D01*
X-7924500Y22429574D01*
X-7924500Y23135086D01*
X-7927275Y23164679D01*
X-7940058Y23201211D01*
X-7946806Y23233816D01*
X-7946874Y23234770D01*
X-8031712Y23543804D01*
X-8035649Y23588988D01*
X-8021613Y23737764D01*
X-8021613Y23737778D01*
X-8021502Y23739201D01*
X-8020947Y23747089D01*
X-8020871Y23748493D01*
X-8020402Y23758330D01*
X-8019473Y23768658D01*
X-8019318Y23769830D01*
X-8039956Y23926592D01*
X-8100464Y24072671D01*
X-8100465Y24072672D01*
X-8100465Y24072673D01*
X-8196718Y24198113D01*
X-8322158Y24294366D01*
X-8468239Y24354875D01*
X-8625000Y24375512D01*
X-8781762Y24354875D01*
X-8927843Y24294366D01*
X-9053283Y24198113D01*
X-9149536Y24072673D01*
X-9210045Y23926592D01*
X-9228082Y23789580D01*
X-9230682Y23769830D01*
X-9229168Y23758330D01*
X-9227021Y23742019D01*
X-9226361Y23727442D01*
X-9218869Y23679791D01*
X-9218418Y23676671D01*
X-9209184Y23606539D01*
X-9205031Y23591781D01*
X-9191066Y23502961D01*
X-9194032Y23450036D01*
X-9252411Y23237378D01*
X-9252414Y23237366D01*
X-9253128Y23234764D01*
X-9253617Y23232107D01*
X-9253617Y23232104D01*
X-9256811Y23214725D01*
X-9261805Y23195890D01*
X-9272725Y23164682D01*
X-9272725Y23164679D01*
X-9275500Y23135086D01*
X-9275500Y22429574D01*
X-19745501Y22429574D01*
X-19745501Y24385381D01*
X-5545500Y24385381D01*
X-5505080Y24221391D01*
X-5492862Y24198112D01*
X-5426589Y24071838D01*
X-5371958Y24010173D01*
X-5314589Y23945417D01*
X-5175589Y23849472D01*
X-5017666Y23789580D01*
X-4892069Y23774330D01*
X-4888259Y23774330D01*
X-4811741Y23774330D01*
X-4807931Y23774330D01*
X-4682334Y23789580D01*
X-4524411Y23849472D01*
X-4385411Y23945417D01*
X-4273411Y24071839D01*
X-4194920Y24221391D01*
X-4154500Y24385381D01*
X3954500Y24385381D01*
X3994920Y24221391D01*
X4007138Y24198112D01*
X4073411Y24071838D01*
X4128042Y24010173D01*
X4185411Y23945417D01*
X4324411Y23849472D01*
X4482334Y23789580D01*
X4607931Y23774330D01*
X4611741Y23774330D01*
X4688259Y23774330D01*
X4692069Y23774330D01*
X4817666Y23789580D01*
X4975589Y23849472D01*
X5114589Y23945417D01*
X5226589Y24071839D01*
X5305080Y24221391D01*
X5345500Y24385381D01*
X5345500Y24554279D01*
X5305080Y24718269D01*
X5226589Y24867821D01*
X5226588Y24867823D01*
X5114588Y24994244D01*
X4975588Y25090189D01*
X4817665Y25150081D01*
X4695854Y25164871D01*
X4695844Y25164872D01*
X4692069Y25165330D01*
X4607931Y25165330D01*
X4604156Y25164872D01*
X4604145Y25164871D01*
X4482334Y25150081D01*
X4324411Y25090189D01*
X4185411Y24994244D01*
X4073411Y24867823D01*
X3994920Y24718270D01*
X3994920Y24718269D01*
X3954500Y24554279D01*
X3954500Y24385381D01*
X-4154500Y24385381D01*
X-4154500Y24554279D01*
X-4194920Y24718269D01*
X-4273411Y24867821D01*
X-4273412Y24867823D01*
X-4385412Y24994244D01*
X-4524412Y25090189D01*
X-4682335Y25150081D01*
X-4804146Y25164871D01*
X-4804156Y25164872D01*
X-4807931Y25165330D01*
X-4892069Y25165330D01*
X-4895844Y25164872D01*
X-4895855Y25164871D01*
X-5017666Y25150081D01*
X-5175589Y25090189D01*
X-5314589Y24994244D01*
X-5426589Y24867823D01*
X-5505081Y24718270D01*
X-5505080Y24718269D01*
X-5545500Y24554279D01*
X-5545500Y24385381D01*
X-19745501Y24385381D01*
X-19745501Y26315331D01*
X-19745180Y26324319D01*
X-19735747Y26456202D01*
X-19728376Y26559263D01*
X-19725821Y26577031D01*
X-19676708Y26802805D01*
X-19671652Y26820022D01*
X-19590908Y27036506D01*
X-19583444Y27052847D01*
X-19472725Y27255613D01*
X-19463010Y27270731D01*
X-19324554Y27455686D01*
X-19312794Y27469257D01*
X-19149427Y27632624D01*
X-19135856Y27644384D01*
X-18950901Y27782840D01*
X-18935783Y27792555D01*
X-18733017Y27903274D01*
X-18716676Y27910738D01*
X-18500192Y27991482D01*
X-18482975Y27996538D01*
X-18257201Y28045651D01*
X-18239432Y28048206D01*
X-18023866Y28063624D01*
X-18004487Y28065009D01*
X-17995499Y28065330D01*
X-17955125Y28065330D01*
X17955125Y28065330D01*
X17995499Y28065330D01*
X18004487Y28065009D01*
G37*
G04 #@! TD.AperFunction*
G04 #@! TD*
G04 #@! TA.AperFunction,Conductor*
G04 #@! TO.N,Net-(D1-A)*
G36*
X5111091Y13403861D02*
G01*
X5269818Y13373479D01*
X5277298Y13368558D01*
X5279305Y13361462D01*
X5192348Y11429116D01*
X5188553Y11421005D01*
X5180134Y11417954D01*
X5178793Y11418092D01*
X4283424Y11562795D01*
X4275804Y11567498D01*
X4273688Y11575845D01*
X4508682Y13393869D01*
X4513141Y13401634D01*
X4520285Y13404069D01*
X5108892Y13404069D01*
X5111091Y13403861D01*
G37*
G04 #@! TD.AperFunction*
G04 #@! TD*
G04 #@! TA.AperFunction,Conductor*
G04 #@! TO.N,Net-(D1-A)*
G36*
X4807615Y15901799D02*
G01*
X5251513Y15521081D01*
X5255562Y15513095D01*
X5255282Y15509510D01*
X5112129Y14903839D01*
X5106891Y14896576D01*
X5100743Y14894830D01*
X4518973Y14894830D01*
X4510700Y14898257D01*
X4507673Y14903496D01*
X4344990Y15509326D01*
X4346154Y15518205D01*
X4348673Y15521241D01*
X4792385Y15901800D01*
X4800893Y15904583D01*
X4807615Y15901799D01*
G37*
G04 #@! TD.AperFunction*
G04 #@! TD*
G04 #@! TA.AperFunction,Conductor*
G04 #@! TO.N,Net-(C1-Pad1)*
G36*
X-16794184Y-2687243D02*
G01*
X-15406928Y-2884401D01*
X-15399220Y-2888957D01*
X-15397363Y-2892641D01*
X-14737061Y-5107319D01*
X-14737981Y-5116226D01*
X-14744930Y-5121874D01*
X-14752793Y-5121454D01*
X-16873043Y-4233511D01*
X-16879350Y-4227154D01*
X-16880155Y-4223971D01*
X-17043612Y-2700075D01*
X-17041086Y-2691483D01*
X-17033226Y-2687194D01*
X-17031978Y-2687127D01*
X-16795830Y-2687127D01*
X-16794184Y-2687243D01*
G37*
G04 #@! TD.AperFunction*
G04 #@! TD*
G04 #@! TA.AperFunction,Conductor*
G04 #@! TO.N,Net-(C1-Pad1)*
G36*
X-16912385Y-1858031D02*
G01*
X-16470205Y-2237275D01*
X-16466156Y-2245262D01*
X-16467501Y-2251667D01*
X-16791695Y-2858811D01*
X-16798615Y-2864495D01*
X-16802016Y-2865000D01*
X-17037984Y-2865000D01*
X-17046257Y-2861573D01*
X-17048305Y-2858811D01*
X-17372500Y-2251667D01*
X-17373374Y-2242755D01*
X-17369798Y-2237277D01*
X-16927616Y-1858031D01*
X-16919106Y-1855247D01*
X-16912385Y-1858031D01*
G37*
G04 #@! TD.AperFunction*
G04 #@! TD*
G04 #@! TA.AperFunction,Conductor*
G04 #@! TO.N,Net-(C2-Pad1)*
G36*
X17114809Y-2721620D02*
G01*
X17118236Y-2729893D01*
X17118122Y-2731525D01*
X16900936Y-4273727D01*
X16896389Y-4281441D01*
X16893619Y-4282988D01*
X14752978Y-5121993D01*
X14744025Y-5121822D01*
X14737816Y-5115369D01*
X14737574Y-5107511D01*
X15445401Y-2912449D01*
X15451200Y-2905629D01*
X15455005Y-2904442D01*
X16869240Y-2718292D01*
X16870767Y-2718193D01*
X17106536Y-2718193D01*
X17114809Y-2721620D01*
G37*
G04 #@! TD.AperFunction*
G04 #@! TD*
G04 #@! TA.AperFunction,Conductor*
G04 #@! TO.N,Net-(C2-Pad1)*
G36*
X17002615Y-1603031D02*
G01*
X17444795Y-1982275D01*
X17448844Y-1990262D01*
X17447499Y-1996667D01*
X17123305Y-2603811D01*
X17116385Y-2609495D01*
X17112984Y-2610000D01*
X16877016Y-2610000D01*
X16868743Y-2606573D01*
X16866695Y-2603811D01*
X16542500Y-1996667D01*
X16541626Y-1987755D01*
X16545202Y-1982277D01*
X16987384Y-1603031D01*
X16995894Y-1600247D01*
X17002615Y-1603031D01*
G37*
G04 #@! TD.AperFunction*
G04 #@! TD*
G04 #@! TA.AperFunction,Conductor*
G04 #@! TO.N,GND*
G36*
X-6137822Y23707363D02*
G01*
X-6129559Y23703915D01*
X-6126153Y23695634D01*
X-6126205Y23694564D01*
X-6199000Y22922904D01*
X-6203188Y22914989D01*
X-6210648Y22912303D01*
X-6789996Y22912303D01*
X-6798269Y22915730D01*
X-6801554Y22922186D01*
X-6801667Y22922904D01*
X-6922881Y23693850D01*
X-6920781Y23702553D01*
X-6913140Y23707223D01*
X-6911364Y23707365D01*
X-6525000Y23708330D01*
X-6137822Y23707363D01*
G37*
G04 #@! TD.AperFunction*
G04 #@! TD*
G04 #@! TA.AperFunction,Conductor*
G04 #@! TO.N,GND*
G36*
X-6200364Y23678903D02*
G01*
X-6197456Y23674076D01*
X-6045339Y23180550D01*
X-6046177Y23171635D01*
X-6048903Y23168223D01*
X-6492384Y22787863D01*
X-6500895Y22785078D01*
X-6507617Y22787863D01*
X-6951098Y23168223D01*
X-6955147Y23176210D01*
X-6954663Y23180544D01*
X-6802545Y23674076D01*
X-6796832Y23680973D01*
X-6791363Y23682330D01*
X-6208637Y23682330D01*
X-6200364Y23678903D01*
G37*
G04 #@! TD.AperFunction*
G04 #@! TD*
G04 #@! TA.AperFunction,Conductor*
G04 #@! TO.N,GND*
G36*
X17382178Y965033D02*
G01*
X17390441Y961585D01*
X17393847Y953304D01*
X17393795Y952234D01*
X17321000Y180574D01*
X17316812Y172659D01*
X17309352Y169973D01*
X16730004Y169973D01*
X16721731Y173400D01*
X16718446Y179856D01*
X16718333Y180574D01*
X16597119Y951520D01*
X16599219Y960223D01*
X16606860Y964893D01*
X16608636Y965035D01*
X16995000Y966000D01*
X17382178Y965033D01*
G37*
G04 #@! TD.AperFunction*
G04 #@! TD*
G04 #@! TA.AperFunction,Conductor*
G04 #@! TO.N,GND*
G36*
X17210787Y1164241D02*
G01*
X17213481Y1160043D01*
X17449081Y526030D01*
X17448751Y517082D01*
X17445734Y513077D01*
X17004543Y134378D01*
X16996034Y131590D01*
X16988081Y135593D01*
X16656337Y518387D01*
X16597461Y586323D01*
X16594634Y594819D01*
X16598641Y602827D01*
X16598867Y603017D01*
X16782869Y752868D01*
X17194242Y1164242D01*
X17202514Y1167668D01*
X17210787Y1164241D01*
G37*
G04 #@! TD.AperFunction*
G04 #@! TD*
G04 #@! TA.AperFunction,Conductor*
G04 #@! TO.N,GND*
G36*
X-8237822Y23769863D02*
G01*
X-8229559Y23766415D01*
X-8226153Y23758134D01*
X-8226205Y23757064D01*
X-8299000Y22985404D01*
X-8303188Y22977489D01*
X-8310648Y22974803D01*
X-8889996Y22974803D01*
X-8898269Y22978230D01*
X-8901554Y22984686D01*
X-8901667Y22985404D01*
X-9022881Y23756350D01*
X-9020781Y23765053D01*
X-9013140Y23769723D01*
X-9011364Y23769865D01*
X-8625000Y23770830D01*
X-8237822Y23769863D01*
G37*
G04 #@! TD.AperFunction*
G04 #@! TD*
G04 #@! TA.AperFunction,Conductor*
G04 #@! TO.N,GND*
G36*
X-8300648Y23741403D02*
G01*
X-8297638Y23736227D01*
X-8145042Y23180368D01*
X-8146157Y23171483D01*
X-8148708Y23168390D01*
X-8592383Y22787863D01*
X-8600894Y22785078D01*
X-8607617Y22787863D01*
X-9051293Y23168390D01*
X-9055342Y23176377D01*
X-9054960Y23180362D01*
X-8902362Y23736228D01*
X-8896867Y23743298D01*
X-8891079Y23744830D01*
X-8308921Y23744830D01*
X-8300648Y23741403D01*
G37*
G04 #@! TD.AperFunction*
G04 #@! TD*
G04 #@! TA.AperFunction,Conductor*
G04 #@! TO.N,Net-(D2-A)*
G36*
X12434651Y4940329D02*
G01*
X12435524Y4939353D01*
X13001043Y4230523D01*
X13003524Y4221918D01*
X13000863Y4215710D01*
X12139536Y3188235D01*
X12131595Y3184096D01*
X12123054Y3186785D01*
X12123043Y3186793D01*
X11264414Y3908250D01*
X11260285Y3916196D01*
X11261726Y3922911D01*
X11828662Y4937762D01*
X11835689Y4943313D01*
X11838877Y4943756D01*
X12426378Y4943756D01*
X12434651Y4940329D01*
G37*
G04 #@! TD.AperFunction*
G04 #@! TD*
G04 #@! TA.AperFunction,Conductor*
G04 #@! TO.N,Net-(D2-A)*
G36*
X7675107Y16100420D02*
G01*
X7680328Y16096134D01*
X8173123Y15361103D01*
X8174884Y15352323D01*
X8171678Y15346315D01*
X7760871Y14935508D01*
X7752598Y14932081D01*
X7746287Y14933929D01*
X7072813Y15365305D01*
X7067695Y15372653D01*
X7067767Y15377971D01*
X7197868Y15902297D01*
X7203186Y15909498D01*
X7204754Y15910288D01*
X7666152Y16100436D01*
X7675107Y16100420D01*
G37*
G04 #@! TD.AperFunction*
G04 #@! TD*
G04 #@! TA.AperFunction,Conductor*
G04 #@! TO.N,Net-(D3-A)*
G36*
X10080678Y16118164D02*
G01*
X10243453Y15908037D01*
X10606324Y15439607D01*
X10608682Y15430968D01*
X10605348Y15424169D01*
X10194457Y15013278D01*
X10186184Y15009851D01*
X10180752Y15011189D01*
X9995017Y15108572D01*
X9504414Y15365802D01*
X9498678Y15372679D01*
X9498354Y15378354D01*
X9507085Y15424169D01*
X9598161Y15902102D01*
X9603076Y15909586D01*
X9604778Y15910545D01*
X10066566Y16121640D01*
X10075515Y16121962D01*
X10080678Y16118164D01*
G37*
G04 #@! TD.AperFunction*
G04 #@! TD*
G04 #@! TA.AperFunction,Conductor*
G04 #@! TO.N,Net-(D3-A)*
G36*
X10414371Y-9705673D02*
G01*
X10421137Y-9711539D01*
X10421985Y-9713786D01*
X10571147Y-10278700D01*
X10571535Y-10281687D01*
X10571535Y-10867352D01*
X10568108Y-10875625D01*
X10559835Y-10879052D01*
X10558771Y-10879004D01*
X9365289Y-10770012D01*
X9357362Y-10765846D01*
X9355779Y-10763369D01*
X8574937Y-9113718D01*
X8574496Y-9104776D01*
X8580507Y-9098139D01*
X8589210Y-9097614D01*
X10414371Y-9705673D01*
G37*
G04 #@! TD.AperFunction*
G04 #@! TD*
G04 #@! TA.AperFunction,Conductor*
G04 #@! TO.N,Net-(D4-A)*
G36*
X-10666153Y16050436D02*
G01*
X-10204766Y15860293D01*
X-10198423Y15853973D01*
X-10197868Y15852294D01*
X-10067769Y15327975D01*
X-10069103Y15319120D01*
X-10072814Y15315305D01*
X-10746288Y14883929D01*
X-10755103Y14882352D01*
X-10760872Y14885508D01*
X-11171679Y15296315D01*
X-11175106Y15304588D01*
X-11173124Y15311103D01*
X-11170306Y15315305D01*
X-10680329Y16046135D01*
X-10672876Y16051098D01*
X-10666153Y16050436D01*
G37*
G04 #@! TD.AperFunction*
G04 #@! TD*
G04 #@! TA.AperFunction,Conductor*
G04 #@! TO.N,Net-(D5-A)*
G36*
X-14167619Y1553457D02*
G01*
X-14165156Y1552058D01*
X-13268457Y886855D01*
X-12619509Y405442D01*
X-12614906Y397760D01*
X-12617083Y389074D01*
X-12624210Y384567D01*
X-14433714Y26663D01*
X-14442495Y28420D01*
X-14444804Y30453D01*
X-15183857Y878366D01*
X-15186710Y886855D01*
X-15183311Y894326D01*
X-14768426Y1309211D01*
X-14764607Y1311755D01*
X-14176571Y1553481D01*
X-14167619Y1553457D01*
G37*
G04 #@! TD.AperFunction*
G04 #@! TD*
G04 #@! TA.AperFunction,Conductor*
G04 #@! TO.N,Net-(D5-A)*
G36*
X-8466153Y16050436D02*
G01*
X-8004766Y15860293D01*
X-7998423Y15853973D01*
X-7997868Y15852294D01*
X-7867769Y15327975D01*
X-7869103Y15319120D01*
X-7872814Y15315305D01*
X-8546288Y14883929D01*
X-8555103Y14882352D01*
X-8560872Y14885508D01*
X-8971679Y15296315D01*
X-8975106Y15304588D01*
X-8973124Y15311103D01*
X-8970306Y15315305D01*
X-8480329Y16046135D01*
X-8472876Y16051098D01*
X-8466153Y16050436D01*
G37*
G04 #@! TD.AperFunction*
G04 #@! TD*
G04 #@! TA.AperFunction,Conductor*
G04 #@! TO.N,Net-(D6-A)*
G36*
X-8698736Y12152067D02*
G01*
X-7795174Y11949773D01*
X-7787849Y11944622D01*
X-7786132Y11939897D01*
X-7541061Y10095797D01*
X-7543368Y10087145D01*
X-7551118Y10082658D01*
X-7559110Y10084495D01*
X-9165981Y11146422D01*
X-9170993Y11153842D01*
X-9171134Y11154684D01*
X-9298295Y12139151D01*
X-9295956Y12147795D01*
X-9288190Y12152254D01*
X-9286691Y12152350D01*
X-8701292Y12152350D01*
X-8698736Y12152067D01*
G37*
G04 #@! TD.AperFunction*
G04 #@! TD*
G04 #@! TA.AperFunction,Conductor*
G04 #@! TO.N,Net-(D6-A)*
G36*
X-6266153Y16050436D02*
G01*
X-5804766Y15860293D01*
X-5798423Y15853973D01*
X-5797868Y15852294D01*
X-5667769Y15327975D01*
X-5669103Y15319120D01*
X-5672814Y15315305D01*
X-6346288Y14883929D01*
X-6355103Y14882352D01*
X-6360872Y14885508D01*
X-6771679Y15296315D01*
X-6775106Y15304588D01*
X-6773124Y15311103D01*
X-6770306Y15315305D01*
X-6280329Y16046135D01*
X-6272876Y16051098D01*
X-6266153Y16050436D01*
G37*
G04 #@! TD.AperFunction*
G04 #@! TD*
G04 #@! TA.AperFunction,Conductor*
G04 #@! TO.N,/LED_6*
G36*
X-5076036Y11995900D02*
G01*
X-4800965Y11722200D01*
X-4798397Y11718358D01*
X-4651900Y11362363D01*
X-4651921Y11353409D01*
X-4658268Y11347091D01*
X-4659487Y11346667D01*
X-5253932Y11175737D01*
X-5262830Y11176744D01*
X-5265438Y11178708D01*
X-5674771Y11588041D01*
X-5678198Y11596314D01*
X-5674771Y11604587D01*
X-5673028Y11606023D01*
X-5090812Y11997318D01*
X-5082036Y11999087D01*
X-5076036Y11995900D01*
G37*
G04 #@! TD.AperFunction*
G04 #@! TD*
G04 #@! TA.AperFunction,Conductor*
G04 #@! TO.N,/LED_5*
G36*
X-12097829Y3619925D02*
G01*
X-11740577Y3470980D01*
X-11734260Y3464634D01*
X-11734015Y3456379D01*
X-11940297Y2856174D01*
X-11946227Y2849464D01*
X-11951362Y2848277D01*
X-12530640Y2848277D01*
X-12538913Y2851704D01*
X-12542340Y2859977D01*
X-12542322Y2860628D01*
X-12508652Y3464634D01*
X-12500615Y3608811D01*
X-12496733Y3616879D01*
X-12488964Y3619858D01*
X-12102352Y3620825D01*
X-12097829Y3619925D01*
G37*
G04 #@! TD.AperFunction*
G04 #@! TD*
G04 #@! TA.AperFunction,Conductor*
G04 #@! TO.N,/LED_5*
G36*
X-12305777Y3825606D02*
G01*
X-11887869Y3407698D01*
X-11465361Y3213791D01*
X-11295227Y3135708D01*
X-11289137Y3129142D01*
X-11289473Y3120194D01*
X-11293124Y3115687D01*
X-12234322Y2415541D01*
X-12243005Y2413352D01*
X-12250692Y2417945D01*
X-12250699Y2417954D01*
X-12772066Y3120194D01*
X-12995627Y3421313D01*
X-12997806Y3429996D01*
X-12993206Y3437679D01*
X-12992104Y3438405D01*
X-12319911Y3827460D01*
X-12311034Y3828638D01*
X-12305777Y3825606D01*
G37*
G04 #@! TD.AperFunction*
G04 #@! TD*
G04 #@! TA.AperFunction,Conductor*
G04 #@! TO.N,/LED_5*
G36*
X2286781Y23519864D02*
G01*
X2295044Y23516416D01*
X2298450Y23508135D01*
X2298360Y23506713D01*
X2201281Y22730079D01*
X2196854Y22722295D01*
X2189671Y22719830D01*
X1610329Y22719830D01*
X1602056Y22723257D01*
X1598719Y22730079D01*
X1582538Y22859519D01*
X1501639Y23506715D01*
X1504014Y23515347D01*
X1511798Y23519774D01*
X1513204Y23519864D01*
X1900000Y23520830D01*
X2286781Y23519864D01*
G37*
G04 #@! TD.AperFunction*
G04 #@! TD*
G04 #@! TA.AperFunction,Conductor*
G04 #@! TO.N,/LED_5*
G36*
X2197944Y16016403D02*
G01*
X2201281Y16009581D01*
X2298360Y15232948D01*
X2295985Y15224314D01*
X2288201Y15219887D01*
X2286779Y15219797D01*
X1900000Y15218830D01*
X1513220Y15219797D01*
X1504955Y15223245D01*
X1501549Y15231526D01*
X1501638Y15232936D01*
X1598718Y16009581D01*
X1603146Y16017365D01*
X1610329Y16019830D01*
X2189671Y16019830D01*
X2197944Y16016403D01*
G37*
G04 #@! TD.AperFunction*
G04 #@! TD*
G04 #@! TA.AperFunction,Conductor*
G04 #@! TO.N,/LED_4*
G36*
X-10639144Y-8809656D02*
G01*
X-10229487Y-9219313D01*
X-10226060Y-9227586D01*
X-10228525Y-9234769D01*
X-10709041Y-9852577D01*
X-10716825Y-9857004D01*
X-10725459Y-9854629D01*
X-10726528Y-9853688D01*
X-11000707Y-9580877D01*
X-11273519Y-9306697D01*
X-11276925Y-9298416D01*
X-11273477Y-9290151D01*
X-11272417Y-9289217D01*
X-10654600Y-8808693D01*
X-10645966Y-8806319D01*
X-10639144Y-8809656D01*
G37*
G04 #@! TD.AperFunction*
G04 #@! TD*
G04 #@! TA.AperFunction,Conductor*
G04 #@! TO.N,/LED_4*
G36*
X-9576518Y-8121907D02*
G01*
X-9570594Y-8128622D01*
X-9570563Y-8136117D01*
X-10178929Y-9959830D01*
X-10184798Y-9966594D01*
X-10193333Y-9967352D01*
X-10785009Y-9793142D01*
X-10789977Y-9790191D01*
X-11210100Y-9370068D01*
X-11212991Y-9365297D01*
X-11403952Y-8756555D01*
X-11403158Y-8747635D01*
X-11396582Y-8741985D01*
X-9585454Y-8121347D01*
X-9576518Y-8121907D01*
G37*
G04 #@! TD.AperFunction*
G04 #@! TD*
G04 #@! TA.AperFunction,Conductor*
G04 #@! TO.N,/LED_3*
G36*
X11154599Y-8308694D02*
G01*
X11772407Y-8789210D01*
X11776834Y-8796994D01*
X11774459Y-8805628D01*
X11773518Y-8806697D01*
X11500707Y-9080877D01*
X11226527Y-9353688D01*
X11218246Y-9357094D01*
X11209981Y-9353646D01*
X11209040Y-9352577D01*
X10728524Y-8734769D01*
X10726149Y-8726135D01*
X10729485Y-8719314D01*
X11139144Y-8309655D01*
X11147416Y-8306229D01*
X11154599Y-8308694D01*
G37*
G04 #@! TD.AperFunction*
G04 #@! TD*
G04 #@! TA.AperFunction,Conductor*
G04 #@! TO.N,/LED_3*
G36*
X11859579Y-8254648D02*
G01*
X11866342Y-8260516D01*
X11867203Y-8268677D01*
X11712929Y-8864950D01*
X11709875Y-8870292D01*
X11289996Y-9290171D01*
X11284975Y-9293137D01*
X10662297Y-9473321D01*
X10653398Y-9472329D01*
X10647993Y-9465922D01*
X10587955Y-9293137D01*
X10020882Y-7661141D01*
X10021404Y-7652204D01*
X10028094Y-7646251D01*
X10035634Y-7646204D01*
X11859579Y-8254648D01*
G37*
G04 #@! TD.AperFunction*
G04 #@! TD*
G04 #@! TA.AperFunction,Conductor*
G04 #@! TO.N,/LED_2*
G36*
X286781Y20819864D02*
G01*
X295044Y20816416D01*
X298450Y20808135D01*
X298360Y20806713D01*
X201281Y20030079D01*
X196854Y20022295D01*
X189671Y20019830D01*
X-389671Y20019830D01*
X-397944Y20023257D01*
X-401281Y20030079D01*
X-417462Y20159519D01*
X-498361Y20806715D01*
X-495986Y20815347D01*
X-488202Y20819774D01*
X-486796Y20819864D01*
X-100000Y20820830D01*
X286781Y20819864D01*
G37*
G04 #@! TD.AperFunction*
G04 #@! TD*
G04 #@! TA.AperFunction,Conductor*
G04 #@! TO.N,/LED_2*
G36*
X197944Y12216403D02*
G01*
X201281Y12209581D01*
X298360Y11432948D01*
X295985Y11424314D01*
X288201Y11419887D01*
X286779Y11419797D01*
X-100000Y11418830D01*
X-486780Y11419797D01*
X-495045Y11423245D01*
X-498451Y11431526D01*
X-498362Y11432936D01*
X-401282Y12209581D01*
X-396854Y12217365D01*
X-389671Y12219830D01*
X189671Y12219830D01*
X197944Y12216403D01*
G37*
G04 #@! TD.AperFunction*
G04 #@! TD*
G04 #@! TA.AperFunction,Conductor*
G04 #@! TO.N,/LED_2*
G36*
X14595973Y1516098D02*
G01*
X14599999Y1508099D01*
X14600031Y1507267D01*
X14601000Y1119830D01*
X14600034Y733773D01*
X14596586Y725508D01*
X14588305Y722102D01*
X14586275Y722285D01*
X13817910Y859679D01*
X13810369Y864508D01*
X13808269Y871196D01*
X13808269Y1450534D01*
X13811696Y1458807D01*
X13819107Y1462202D01*
X14587471Y1518906D01*
X14595973Y1516098D01*
G37*
G04 #@! TD.AperFunction*
G04 #@! TD*
G04 #@! TA.AperFunction,Conductor*
G04 #@! TO.N,/LED_2*
G36*
X14122332Y1998845D02*
G01*
X14803575Y1340233D01*
X14807141Y1332019D01*
X14803855Y1323689D01*
X14803716Y1323548D01*
X14387868Y907700D01*
X14387867Y907698D01*
X14364505Y617975D01*
X14360424Y610004D01*
X14351903Y607253D01*
X14349505Y607701D01*
X12515087Y1153832D01*
X12508135Y1159477D01*
X12507211Y1168384D01*
X12512856Y1175336D01*
X12512939Y1175380D01*
X14108826Y2000826D01*
X14117748Y2001582D01*
X14122332Y1998845D01*
G37*
G04 #@! TD.AperFunction*
G04 #@! TD*
G04 #@! TA.AperFunction,Conductor*
G04 #@! TO.N,/LED_1*
G36*
X288874Y23519850D02*
G01*
X297141Y23516409D01*
X300539Y23508717D01*
X324012Y23025006D01*
X320990Y23016577D01*
X320599Y23016166D01*
X-88317Y22607250D01*
X-96590Y22603823D01*
X-104863Y22607250D01*
X-107141Y22610467D01*
X-464227Y23355645D01*
X-464712Y23364587D01*
X-458732Y23371252D01*
X-458208Y23371487D01*
X-102877Y23519633D01*
X-98357Y23520533D01*
X288874Y23519850D01*
G37*
G04 #@! TD.AperFunction*
G04 #@! TD*
G04 #@! TA.AperFunction,Conductor*
G04 #@! TO.N,/LED_1*
G36*
X1025435Y13201785D02*
G01*
X1028573Y13196095D01*
X1115852Y12810282D01*
X1167381Y12582499D01*
X1165864Y12573673D01*
X1160471Y12569118D01*
X802175Y12419737D01*
X797644Y12418836D01*
X412071Y12419800D01*
X403806Y12423248D01*
X400400Y12431529D01*
X400407Y12431895D01*
X426129Y13193907D01*
X429833Y13202060D01*
X437822Y13205212D01*
X1017162Y13205212D01*
X1025435Y13201785D01*
G37*
G04 #@! TD.AperFunction*
G04 #@! TD*
G04 #@! TA.AperFunction,Conductor*
G04 #@! TO.N,/LED_1*
G36*
X7554599Y10391306D02*
G01*
X8172407Y9910790D01*
X8176834Y9903006D01*
X8174459Y9894372D01*
X8173518Y9893303D01*
X7900707Y9619123D01*
X7626527Y9346312D01*
X7618246Y9342906D01*
X7609981Y9346354D01*
X7609040Y9347423D01*
X7128524Y9965231D01*
X7126149Y9973865D01*
X7129485Y9980686D01*
X7539144Y10390345D01*
X7547416Y10393771D01*
X7554599Y10391306D01*
G37*
G04 #@! TD.AperFunction*
G04 #@! TD*
G04 #@! TA.AperFunction,Conductor*
G04 #@! TO.N,/LED_1*
G36*
X8087585Y10608327D02*
G01*
X8092379Y10600763D01*
X8092548Y10599057D01*
X8112002Y9836984D01*
X8108788Y9828626D01*
X8108579Y9828412D01*
X7688415Y9408248D01*
X7687253Y9407230D01*
X7236570Y9062310D01*
X7227917Y9060003D01*
X7220168Y9064490D01*
X7217934Y9069583D01*
X7083533Y9836984D01*
X6983555Y10407836D01*
X6985504Y10416574D01*
X6993060Y10421377D01*
X8078848Y10610285D01*
X8087585Y10608327D01*
G37*
G04 #@! TD.AperFunction*
G04 #@! TD*
M02*
