G04 #@! TF.GenerationSoftware,KiCad,Pcbnew,7.0.2*
G04 #@! TF.CreationDate,2023-08-16T09:20:42-04:00*
G04 #@! TF.ProjectId,Foras Promineo CLR PCB,466f7261-7320-4507-926f-6d696e656f20,rev?*
G04 #@! TF.SameCoordinates,PX4c4b400PY543a756*
G04 #@! TF.FileFunction,Copper,L2,Bot*
G04 #@! TF.FilePolarity,Positive*
%FSLAX46Y46*%
G04 Gerber Fmt 4.6, Leading zero omitted, Abs format (unit mm)*
G04 Created by KiCad (PCBNEW 7.0.2) date 2023-08-16 09:20:42*
%MOMM*%
%LPD*%
G01*
G04 APERTURE LIST*
G04 #@! TA.AperFunction,ComponentPad*
%ADD10C,4.700000*%
G04 #@! TD*
G04 #@! TA.AperFunction,SMDPad,CuDef*
%ADD11R,0.600000X2.000000*%
G04 #@! TD*
G04 #@! TA.AperFunction,ComponentPad*
%ADD12C,1.248000*%
G04 #@! TD*
G04 #@! TA.AperFunction,ViaPad*
%ADD13C,0.800000*%
G04 #@! TD*
G04 #@! TA.AperFunction,Conductor*
%ADD14C,0.600000*%
G04 #@! TD*
G04 APERTURE END LIST*
D10*
G04 #@! TO.P,H2,1,1*
G04 #@! TO.N,Net-(C2-Pad1)*
X14730000Y-5130000D03*
G04 #@! TD*
G04 #@! TO.P,H1,1,1*
G04 #@! TO.N,Net-(C1-Pad1)*
X-14730000Y-5130000D03*
G04 #@! TD*
D11*
G04 #@! TO.P,J1,1,Pin_1*
G04 #@! TO.N,Net-(J1-Pin_1)*
X-2100000Y25844830D03*
G04 #@! TO.P,J1,2,Pin_2*
X-2100000Y18794830D03*
G04 #@! TO.P,J1,3,Pin_3*
G04 #@! TO.N,GND*
X-1100000Y25844830D03*
G04 #@! TO.P,J1,4,Pin_4*
X-1100000Y18794830D03*
G04 #@! TO.P,J1,5,Pin_5*
G04 #@! TO.N,/LED_1*
X-100000Y25844830D03*
G04 #@! TO.P,J1,6,Pin_6*
G04 #@! TO.N,/LED_2*
X-100000Y18794830D03*
G04 #@! TO.P,J1,7,Pin_7*
G04 #@! TO.N,/LED_3*
X900000Y25844830D03*
G04 #@! TO.P,J1,8,Pin_8*
G04 #@! TO.N,/LED_4*
X900000Y18794830D03*
G04 #@! TO.P,J1,9,Pin_9*
G04 #@! TO.N,/LED_5*
X1900000Y25844830D03*
G04 #@! TO.P,J1,10,Pin_10*
G04 #@! TO.N,/LED_6*
X1900000Y18794830D03*
D12*
G04 #@! TO.P,J1,S1*
G04 #@! TO.N,N/C*
X-3350000Y21819830D03*
G04 #@! TO.P,J1,S2*
X3150000Y21819830D03*
G04 #@! TD*
D13*
G04 #@! TO.N,GND*
X16995000Y965000D03*
X-16920000Y710000D03*
X-6525000Y23707330D03*
X-8625000Y23769830D03*
G04 #@! TO.N,/LED_6*
X-4800000Y11719830D03*
G04 #@! TO.N,/LED_5*
X1900000Y23519830D03*
X1900000Y15219830D03*
X-12100000Y3619830D03*
G04 #@! TO.N,/LED_4*
X-11000000Y-9580170D03*
G04 #@! TO.N,/LED_3*
X11500000Y-9080170D03*
G04 #@! TO.N,/LED_2*
X-100000Y20819830D03*
X14600000Y1119830D03*
X-100000Y11419830D03*
G04 #@! TO.N,/LED_1*
X800000Y12419830D03*
X-100000Y23519830D03*
X7900000Y9619830D03*
G04 #@! TO.N,Net-(J1-Pin_1)*
X4800000Y18482330D03*
X-8000000Y18307330D03*
X-3400000Y25819830D03*
X7200000Y18419830D03*
X-5800000Y18369830D03*
X9600000Y18419830D03*
X-3200000Y18819830D03*
X-10200000Y18369830D03*
G04 #@! TD*
D14*
G04 #@! TO.N,/LED_4*
X-2069830Y13750000D02*
X900000Y16719830D01*
X-6320000Y13750000D02*
X-2069830Y13750000D01*
X900000Y16719830D02*
X900000Y18794830D01*
X-14010000Y6060000D02*
X-6320000Y13750000D01*
X-10390000Y-4580000D02*
X-14010000Y-960000D01*
X-10390000Y-8970170D02*
X-10390000Y-4580000D01*
X-14010000Y-960000D02*
X-14010000Y6060000D01*
X-11000000Y-9580170D02*
X-10390000Y-8970170D01*
G04 #@! TO.N,/LED_6*
X-2900000Y11719830D02*
X-4800000Y11719830D01*
X1900000Y16519830D02*
X-2900000Y11719830D01*
X1900000Y18794830D02*
X1900000Y16519830D01*
G04 #@! TO.N,/LED_5*
X-2600000Y10719830D02*
X-7300000Y10719830D01*
X1900000Y25844830D02*
X1900000Y23519830D01*
X-12100000Y5919830D02*
X-12100000Y3619830D01*
X1900000Y15219830D02*
X-2600000Y10719830D01*
X-7300000Y10719830D02*
X-12100000Y5919830D01*
G04 #@! TO.N,/LED_3*
X1500000Y27519830D02*
X800000Y26819830D01*
X11500000Y-9080170D02*
X13000000Y-10580170D01*
X17200000Y27519830D02*
X1500000Y27519830D01*
X19200000Y25519830D02*
X17200000Y27519830D01*
X16400000Y-10580170D02*
X19200000Y-7780170D01*
X13000000Y-10580170D02*
X16400000Y-10580170D01*
X19200000Y-7780170D02*
X19200000Y25519830D01*
G04 #@! TO.N,/LED_2*
X4300000Y11419830D02*
X-100000Y11419830D01*
X14600000Y1119830D02*
X4300000Y11419830D01*
X-100000Y18794830D02*
X-100000Y20819830D01*
G04 #@! TO.N,/LED_1*
X800000Y12419830D02*
X5100000Y12419830D01*
X-100000Y25844830D02*
X-100000Y23519830D01*
X5100000Y12419830D02*
X7900000Y9619830D01*
G04 #@! TO.N,Net-(J1-Pin_1)*
X-2100000Y18794830D02*
X-3175000Y18794830D01*
X-2100000Y25844830D02*
X-3375000Y25844830D01*
X-3375000Y25844830D02*
X-3400000Y25819830D01*
X-3175000Y18794830D02*
X-3200000Y18819830D01*
G04 #@! TD*
G04 #@! TA.AperFunction,Conductor*
G04 #@! TO.N,GND*
G36*
X1025248Y28045328D02*
G01*
X1071741Y27991672D01*
X1081845Y27921398D01*
X1052351Y27856818D01*
X1046223Y27850235D01*
X384131Y27188143D01*
X384124Y27188136D01*
X381091Y27185102D01*
X378497Y27181683D01*
X378494Y27181678D01*
X351765Y27146431D01*
X294665Y27104239D01*
X237477Y27099815D01*
X237477Y27099330D01*
X231210Y27099330D01*
X226790Y27098988D01*
X225070Y27099330D01*
X-425069Y27099330D01*
X-499301Y27084565D01*
X-583485Y27028315D01*
X-639734Y26944132D01*
X-654500Y26869897D01*
X-654500Y24375027D01*
X-657875Y24354162D01*
X-657239Y24354082D01*
X-755858Y23565123D01*
X-756054Y23563201D01*
X-757347Y23549283D01*
X-757484Y23547347D01*
X-757436Y23547873D01*
X-757514Y23545958D01*
X-757822Y23536122D01*
X-758671Y23525073D01*
X-759308Y23519831D01*
X-740150Y23362049D01*
X-683788Y23213436D01*
X-683787Y23213435D01*
X-593498Y23082629D01*
X-474529Y22977231D01*
X-333793Y22903367D01*
X-179471Y22865330D01*
X-179469Y22865330D01*
X-20531Y22865330D01*
X-20529Y22865330D01*
X133793Y22903367D01*
X274529Y22977231D01*
X393498Y23082629D01*
X483787Y23213435D01*
X540149Y23362048D01*
X559307Y23519830D01*
X556560Y23542446D01*
X556042Y23563640D01*
X555855Y23565131D01*
X555856Y23565135D01*
X458777Y24341768D01*
X457483Y24352124D01*
X457757Y24352159D01*
X454500Y24374497D01*
X454500Y24464331D01*
X474502Y24532452D01*
X528158Y24578945D01*
X580495Y24590331D01*
X1219500Y24590331D01*
X1287621Y24570329D01*
X1334114Y24516673D01*
X1345500Y24464331D01*
X1345500Y24375027D01*
X1342125Y24354162D01*
X1342761Y24354082D01*
X1244142Y23565123D01*
X1243946Y23563201D01*
X1242653Y23549283D01*
X1242516Y23547347D01*
X1242564Y23547873D01*
X1242486Y23545958D01*
X1242178Y23536122D01*
X1241329Y23525073D01*
X1240692Y23519831D01*
X1259850Y23362049D01*
X1316212Y23213436D01*
X1316213Y23213435D01*
X1406502Y23082629D01*
X1525471Y22977231D01*
X1666207Y22903367D01*
X1820529Y22865330D01*
X1820531Y22865330D01*
X1979469Y22865330D01*
X1979471Y22865330D01*
X2133793Y22903367D01*
X2274529Y22977231D01*
X2393498Y23082629D01*
X2483787Y23213435D01*
X2540149Y23362048D01*
X2559307Y23519830D01*
X2556560Y23542446D01*
X2556042Y23563640D01*
X2555855Y23565131D01*
X2555856Y23565135D01*
X2458777Y24341768D01*
X2457483Y24352124D01*
X2457757Y24352159D01*
X2454500Y24374497D01*
X2454500Y24385381D01*
X3954500Y24385381D01*
X3994920Y24221391D01*
X4034165Y24146616D01*
X4073411Y24071838D01*
X4185411Y23945417D01*
X4324411Y23849472D01*
X4482334Y23789580D01*
X4607931Y23774330D01*
X4611741Y23774330D01*
X4688259Y23774330D01*
X4692069Y23774330D01*
X4817666Y23789580D01*
X4975589Y23849472D01*
X5114589Y23945417D01*
X5226589Y24071839D01*
X5305080Y24221391D01*
X5345500Y24385381D01*
X5345500Y24554279D01*
X5305080Y24718269D01*
X5226589Y24867821D01*
X5226588Y24867823D01*
X5114588Y24994244D01*
X4975588Y25090189D01*
X4817665Y25150081D01*
X4695854Y25164871D01*
X4695844Y25164872D01*
X4692069Y25165330D01*
X4607931Y25165330D01*
X4604156Y25164872D01*
X4604145Y25164871D01*
X4482334Y25150081D01*
X4324411Y25090189D01*
X4185411Y24994244D01*
X4073411Y24867823D01*
X4009227Y24745529D01*
X3994920Y24718269D01*
X3954500Y24554279D01*
X3954500Y24385381D01*
X2454500Y24385381D01*
X2454500Y25898264D01*
X2454499Y25898272D01*
X2454499Y26839330D01*
X2474501Y26907451D01*
X2528157Y26953944D01*
X2580499Y26965330D01*
X16918129Y26965330D01*
X16986250Y26945328D01*
X17007224Y26928425D01*
X18608595Y25327054D01*
X18642621Y25264742D01*
X18645500Y25237959D01*
X18645500Y-7498299D01*
X18625498Y-7566420D01*
X18608595Y-7587394D01*
X16207224Y-9988765D01*
X16144912Y-10022791D01*
X16118129Y-10025670D01*
X13281873Y-10025670D01*
X13213752Y-10005668D01*
X13192778Y-9988766D01*
X12496802Y-9292791D01*
X12484437Y-9275654D01*
X12483931Y-9276049D01*
X12460171Y-9245500D01*
X12011162Y-8668202D01*
X12006936Y-8662438D01*
X11993498Y-8642969D01*
X11989399Y-8639338D01*
X11980977Y-8631144D01*
X11973976Y-8623664D01*
X11971577Y-8622052D01*
X11958292Y-8611779D01*
X11874529Y-8537571D01*
X11733793Y-8463707D01*
X11579471Y-8425670D01*
X11420529Y-8425670D01*
X11266207Y-8463707D01*
X11266206Y-8463707D01*
X11266204Y-8463708D01*
X11125472Y-8537570D01*
X11006501Y-8642969D01*
X10916212Y-8773775D01*
X10859850Y-8922389D01*
X10840693Y-9080169D01*
X10840693Y-9080170D01*
X10841353Y-9085603D01*
X10859850Y-9237950D01*
X10916212Y-9386564D01*
X10961357Y-9451968D01*
X11004743Y-9514823D01*
X11006503Y-9517372D01*
X11047663Y-9553837D01*
X11059382Y-9565691D01*
X11068275Y-9575966D01*
X11100863Y-9601312D01*
X11107061Y-9606460D01*
X11125852Y-9623107D01*
X11143497Y-9634472D01*
X11694318Y-10062888D01*
X11694148Y-10063105D01*
X11712247Y-10076599D01*
X12599691Y-10964043D01*
X12602681Y-10967136D01*
X12646772Y-11014346D01*
X12682083Y-11035819D01*
X12692749Y-11043078D01*
X12725679Y-11068049D01*
X12742402Y-11074644D01*
X12761647Y-11084203D01*
X12773906Y-11091657D01*
X12777010Y-11093545D01*
X12816805Y-11104695D01*
X12829024Y-11108804D01*
X12867479Y-11123969D01*
X12885370Y-11125808D01*
X12906467Y-11129817D01*
X12923786Y-11134670D01*
X12965115Y-11134670D01*
X12977998Y-11135330D01*
X13019109Y-11139556D01*
X13036821Y-11136502D01*
X13058230Y-11134670D01*
X16388371Y-11134670D01*
X16392673Y-11134743D01*
X16393997Y-11134788D01*
X16457239Y-11136949D01*
X16497411Y-11127158D01*
X16510053Y-11124755D01*
X16551009Y-11119127D01*
X16567503Y-11111962D01*
X16587857Y-11105117D01*
X16605333Y-11100859D01*
X16641364Y-11080599D01*
X16652894Y-11074872D01*
X16690818Y-11058400D01*
X16704763Y-11047054D01*
X16722528Y-11034962D01*
X16738199Y-11026152D01*
X16767426Y-10996923D01*
X16776999Y-10988285D01*
X16809058Y-10962204D01*
X16819430Y-10947508D01*
X16833267Y-10931082D01*
X19530404Y-8233945D01*
X19592717Y-8199919D01*
X19663533Y-8204984D01*
X19720368Y-8247531D01*
X19745179Y-8314051D01*
X19745500Y-8323040D01*
X19745500Y-9675669D01*
X19745179Y-9684658D01*
X19728376Y-9919589D01*
X19725818Y-9937383D01*
X19676710Y-10163130D01*
X19671645Y-10180380D01*
X19590912Y-10396833D01*
X19583443Y-10413186D01*
X19472724Y-10615952D01*
X19463005Y-10631075D01*
X19324559Y-10816017D01*
X19312786Y-10829603D01*
X19149433Y-10992956D01*
X19135847Y-11004729D01*
X18950905Y-11143175D01*
X18935782Y-11152894D01*
X18733016Y-11263613D01*
X18716663Y-11271082D01*
X18500210Y-11351815D01*
X18482960Y-11356880D01*
X18257213Y-11405988D01*
X18239419Y-11408546D01*
X18004488Y-11425349D01*
X17995499Y-11425670D01*
X-17995499Y-11425670D01*
X-18004488Y-11425349D01*
X-18239420Y-11408546D01*
X-18257214Y-11405988D01*
X-18482961Y-11356880D01*
X-18500205Y-11351817D01*
X-18716664Y-11271082D01*
X-18733017Y-11263613D01*
X-18935783Y-11152894D01*
X-18950906Y-11143175D01*
X-19135848Y-11004729D01*
X-19149434Y-10992956D01*
X-19312787Y-10829603D01*
X-19324560Y-10816017D01*
X-19463006Y-10631075D01*
X-19472725Y-10615952D01*
X-19583444Y-10413186D01*
X-19590910Y-10396839D01*
X-19671651Y-10180365D01*
X-19676708Y-10163140D01*
X-19725821Y-9937372D01*
X-19728376Y-9919601D01*
X-19745181Y-9684630D01*
X-19745500Y-9675694D01*
X-19745500Y-9635295D01*
X-19745500Y-9635294D01*
X-19745500Y-5130000D01*
X-17339260Y-5130000D01*
X-17320236Y-5444512D01*
X-17319553Y-5448241D01*
X-17319551Y-5448254D01*
X-17286555Y-5628304D01*
X-17263440Y-5754437D01*
X-17169700Y-6055256D01*
X-17168139Y-6058724D01*
X-17168138Y-6058727D01*
X-17047672Y-6326394D01*
X-17040385Y-6342584D01*
X-16877379Y-6612229D01*
X-16683059Y-6860259D01*
X-16460259Y-7083059D01*
X-16212229Y-7277379D01*
X-15942584Y-7440385D01*
X-15655256Y-7569700D01*
X-15354437Y-7663440D01*
X-15044512Y-7720236D01*
X-14730000Y-7739260D01*
X-14415488Y-7720236D01*
X-14105563Y-7663440D01*
X-13804744Y-7569700D01*
X-13517416Y-7440385D01*
X-13247771Y-7277379D01*
X-12999741Y-7083059D01*
X-12776941Y-6860259D01*
X-12582621Y-6612229D01*
X-12419615Y-6342584D01*
X-12290300Y-6055256D01*
X-12196560Y-5754437D01*
X-12139764Y-5444512D01*
X-12120740Y-5130000D01*
X-12139764Y-4815488D01*
X-12196560Y-4505563D01*
X-12290300Y-4204744D01*
X-12419615Y-3917416D01*
X-12582621Y-3647771D01*
X-12776941Y-3399741D01*
X-12999741Y-3176941D01*
X-13127058Y-3077194D01*
X-13244780Y-2984964D01*
X-13244784Y-2984961D01*
X-13247771Y-2982621D01*
X-13517416Y-2819615D01*
X-13804744Y-2690300D01*
X-13835687Y-2680657D01*
X-14101926Y-2597693D01*
X-14101932Y-2597691D01*
X-14105563Y-2596560D01*
X-14109309Y-2595873D01*
X-14109315Y-2595872D01*
X-14411746Y-2540449D01*
X-14411759Y-2540447D01*
X-14415488Y-2539764D01*
X-14419282Y-2539534D01*
X-14419286Y-2539534D01*
X-14726198Y-2520970D01*
X-14730000Y-2520740D01*
X-14733802Y-2520970D01*
X-15040715Y-2539534D01*
X-15040721Y-2539534D01*
X-15044512Y-2539764D01*
X-15048240Y-2540447D01*
X-15048255Y-2540449D01*
X-15350686Y-2595872D01*
X-15350696Y-2595874D01*
X-15354437Y-2596560D01*
X-15358065Y-2597690D01*
X-15358075Y-2597693D01*
X-15651621Y-2689167D01*
X-15651626Y-2689168D01*
X-15655256Y-2690300D01*
X-15658720Y-2691858D01*
X-15658728Y-2691862D01*
X-15939117Y-2818054D01*
X-15939126Y-2818058D01*
X-15942584Y-2819615D01*
X-15945835Y-2821580D01*
X-15945844Y-2821585D01*
X-16208976Y-2980654D01*
X-16208982Y-2980657D01*
X-16212229Y-2982621D01*
X-16215210Y-2984955D01*
X-16215221Y-2984964D01*
X-16457257Y-3174588D01*
X-16457268Y-3174597D01*
X-16460259Y-3176941D01*
X-16462954Y-3179635D01*
X-16462962Y-3179643D01*
X-16680357Y-3397038D01*
X-16680365Y-3397046D01*
X-16683059Y-3399741D01*
X-16685403Y-3402732D01*
X-16685412Y-3402743D01*
X-16875036Y-3644779D01*
X-16875045Y-3644790D01*
X-16877379Y-3647771D01*
X-16879343Y-3651018D01*
X-16879346Y-3651024D01*
X-17038415Y-3914156D01*
X-17038420Y-3914165D01*
X-17040385Y-3917416D01*
X-17041942Y-3920874D01*
X-17041946Y-3920883D01*
X-17168138Y-4201272D01*
X-17168142Y-4201280D01*
X-17169700Y-4204744D01*
X-17170832Y-4208374D01*
X-17170833Y-4208379D01*
X-17262307Y-4501925D01*
X-17262310Y-4501935D01*
X-17263440Y-4505563D01*
X-17264126Y-4509304D01*
X-17264128Y-4509314D01*
X-17319551Y-4811745D01*
X-17319553Y-4811760D01*
X-17320236Y-4815488D01*
X-17339260Y-5130000D01*
X-19745500Y-5130000D01*
X-19745500Y6040892D01*
X-14569387Y6040892D01*
X-14566332Y6023173D01*
X-14564500Y6001765D01*
X-14564500Y-948370D01*
X-14564573Y-952672D01*
X-14566779Y-1017241D01*
X-14556993Y-1057402D01*
X-14554585Y-1070072D01*
X-14548958Y-1111009D01*
X-14541795Y-1127500D01*
X-14534948Y-1147859D01*
X-14530689Y-1165334D01*
X-14510437Y-1201352D01*
X-14504699Y-1212905D01*
X-14488230Y-1250818D01*
X-14476880Y-1264769D01*
X-14464795Y-1282525D01*
X-14455982Y-1298199D01*
X-14426757Y-1327424D01*
X-14418122Y-1336992D01*
X-14392034Y-1369058D01*
X-14377344Y-1379427D01*
X-14360911Y-1393270D01*
X-10981405Y-4772776D01*
X-10947379Y-4835088D01*
X-10944500Y-4861871D01*
X-10944500Y-8643795D01*
X-10964502Y-8711916D01*
X-10993144Y-8743253D01*
X-11356515Y-9025874D01*
X-11374145Y-9037229D01*
X-11392931Y-9053872D01*
X-11399117Y-9059009D01*
X-11431735Y-9084380D01*
X-11431796Y-9084430D01*
X-11433235Y-9085603D01*
X-11443974Y-9094516D01*
X-11445427Y-9095777D01*
X-11445034Y-9095450D01*
X-11446440Y-9096747D01*
X-11460370Y-9109804D01*
X-11475200Y-9126757D01*
X-11493499Y-9142969D01*
X-11583788Y-9273775D01*
X-11640150Y-9422389D01*
X-11659307Y-9580170D01*
X-11640150Y-9737950D01*
X-11583788Y-9886564D01*
X-11510928Y-9992119D01*
X-11493498Y-10017371D01*
X-11374529Y-10122769D01*
X-11233793Y-10196633D01*
X-11079471Y-10234670D01*
X-11079469Y-10234670D01*
X-10920531Y-10234670D01*
X-10920529Y-10234670D01*
X-10766207Y-10196633D01*
X-10625471Y-10122769D01*
X-10506502Y-10017371D01*
X-10493041Y-9997868D01*
X-10488856Y-9992158D01*
X-10023688Y-9394086D01*
X-10023688Y-9394085D01*
X-10017280Y-9385847D01*
X-10016826Y-9386200D01*
X-10000664Y-9365274D01*
X-9955824Y-9323398D01*
X-9934342Y-9288069D01*
X-9927091Y-9277418D01*
X-9918018Y-9265452D01*
X-9902121Y-9244491D01*
X-9895525Y-9227761D01*
X-9885971Y-9208526D01*
X-9876625Y-9193160D01*
X-9865474Y-9153358D01*
X-9861369Y-9141150D01*
X-9846201Y-9102690D01*
X-9845177Y-9092727D01*
X-9844362Y-9084802D01*
X-9840353Y-9063702D01*
X-9835500Y-9046384D01*
X-9835500Y-9005046D01*
X-9834839Y-8992161D01*
X-9830614Y-8951061D01*
X-9833668Y-8933347D01*
X-9835500Y-8911940D01*
X-9835500Y-4591629D01*
X-9835427Y-4587327D01*
X-9835388Y-4586168D01*
X-9833221Y-4522761D01*
X-9843009Y-4482597D01*
X-9845415Y-4469942D01*
X-9851043Y-4428991D01*
X-9858208Y-4412497D01*
X-9865053Y-4392140D01*
X-9869311Y-4374667D01*
X-9889566Y-4338643D01*
X-9895304Y-4327091D01*
X-9911770Y-4289182D01*
X-9911772Y-4289179D01*
X-9923120Y-4275230D01*
X-9935209Y-4257467D01*
X-9944019Y-4241799D01*
X-9973240Y-4212578D01*
X-9981884Y-4203001D01*
X-9983291Y-4201272D01*
X-10007966Y-4170942D01*
X-10007968Y-4170941D01*
X-10007969Y-4170939D01*
X-10022662Y-4160567D01*
X-10039093Y-4146726D01*
X-13418595Y-767224D01*
X-13452621Y-704912D01*
X-13455500Y-678129D01*
X-13455500Y0D01*
X-9759514Y0D01*
X-9759449Y-2026D01*
X-9739528Y-623257D01*
X-9739527Y-623278D01*
X-9739462Y-625294D01*
X-9739270Y-627287D01*
X-9739268Y-627314D01*
X-9679582Y-1246026D01*
X-9679580Y-1246048D01*
X-9679389Y-1248019D01*
X-9679073Y-1249976D01*
X-9679070Y-1249996D01*
X-9579860Y-1863639D01*
X-9579857Y-1863655D01*
X-9579540Y-1865615D01*
X-9579096Y-1867562D01*
X-9579095Y-1867565D01*
X-9440775Y-2473590D01*
X-9440769Y-2473612D01*
X-9440328Y-2475545D01*
X-9439758Y-2477466D01*
X-9439756Y-2477473D01*
X-9404075Y-2597693D01*
X-9262323Y-3075303D01*
X-9261627Y-3077194D01*
X-9051650Y-3647771D01*
X-9046257Y-3662424D01*
X-9045444Y-3664261D01*
X-9045443Y-3664263D01*
X-8804741Y-4208011D01*
X-8793018Y-4234494D01*
X-8792090Y-4236274D01*
X-8792086Y-4236281D01*
X-8512197Y-4772776D01*
X-8503647Y-4789165D01*
X-8485388Y-4819285D01*
X-8180388Y-5322417D01*
X-8180377Y-5322435D01*
X-8179333Y-5324156D01*
X-8178180Y-5325809D01*
X-8178176Y-5325815D01*
X-8092768Y-5448254D01*
X-7821407Y-5837268D01*
X-7820151Y-5838843D01*
X-7820145Y-5838851D01*
X-7440244Y-6315232D01*
X-7431342Y-6326394D01*
X-7429987Y-6327886D01*
X-7429981Y-6327893D01*
X-7171755Y-6612229D01*
X-7010741Y-6789524D01*
X-7009291Y-6790928D01*
X-6705213Y-7085411D01*
X-6561330Y-7224753D01*
X-6084957Y-7630295D01*
X-5583581Y-8004483D01*
X-5059260Y-8345778D01*
X-4514149Y-8652778D01*
X-4512325Y-8653656D01*
X-4512320Y-8653659D01*
X-4262897Y-8773775D01*
X-3950489Y-8924223D01*
X-3370595Y-9158996D01*
X-2776851Y-9356132D01*
X-2171696Y-9514823D01*
X-1557617Y-9634414D01*
X-937138Y-9714416D01*
X-312808Y-9754500D01*
X-310794Y-9754500D01*
X310794Y-9754500D01*
X312808Y-9754500D01*
X937138Y-9714416D01*
X1557617Y-9634414D01*
X2171696Y-9514823D01*
X2776851Y-9356132D01*
X3370595Y-9158996D01*
X3950489Y-8924223D01*
X4514149Y-8652778D01*
X5059260Y-8345778D01*
X5583581Y-8004483D01*
X6084957Y-7630295D01*
X6561330Y-7224753D01*
X7010741Y-6789524D01*
X7431342Y-6326394D01*
X7821407Y-5837268D01*
X8179333Y-5324156D01*
X8297031Y-5130000D01*
X12120740Y-5130000D01*
X12139764Y-5444512D01*
X12140447Y-5448241D01*
X12140449Y-5448254D01*
X12173445Y-5628304D01*
X12196560Y-5754437D01*
X12290300Y-6055256D01*
X12291861Y-6058724D01*
X12291862Y-6058727D01*
X12412328Y-6326394D01*
X12419615Y-6342584D01*
X12582621Y-6612229D01*
X12776941Y-6860259D01*
X12999741Y-7083059D01*
X13247771Y-7277379D01*
X13517416Y-7440385D01*
X13804744Y-7569700D01*
X14105563Y-7663440D01*
X14415488Y-7720236D01*
X14730000Y-7739260D01*
X15044512Y-7720236D01*
X15354437Y-7663440D01*
X15655256Y-7569700D01*
X15942584Y-7440385D01*
X16212229Y-7277379D01*
X16460259Y-7083059D01*
X16683059Y-6860259D01*
X16877379Y-6612229D01*
X17040385Y-6342584D01*
X17169700Y-6055256D01*
X17263440Y-5754437D01*
X17320236Y-5444512D01*
X17339260Y-5130000D01*
X17320236Y-4815488D01*
X17263440Y-4505563D01*
X17169700Y-4204744D01*
X17040385Y-3917416D01*
X16877379Y-3647771D01*
X16683059Y-3399741D01*
X16460259Y-3176941D01*
X16332942Y-3077194D01*
X16215220Y-2984964D01*
X16215216Y-2984961D01*
X16212229Y-2982621D01*
X15942584Y-2819615D01*
X15655256Y-2690300D01*
X15624313Y-2680657D01*
X15358074Y-2597693D01*
X15358068Y-2597691D01*
X15354437Y-2596560D01*
X15350691Y-2595873D01*
X15350685Y-2595872D01*
X15048254Y-2540449D01*
X15048241Y-2540447D01*
X15044512Y-2539764D01*
X15040718Y-2539534D01*
X15040714Y-2539534D01*
X14733802Y-2520970D01*
X14730000Y-2520740D01*
X14726198Y-2520970D01*
X14419285Y-2539534D01*
X14419279Y-2539534D01*
X14415488Y-2539764D01*
X14411760Y-2540447D01*
X14411745Y-2540449D01*
X14109314Y-2595872D01*
X14109304Y-2595874D01*
X14105563Y-2596560D01*
X14101935Y-2597690D01*
X14101925Y-2597693D01*
X13808379Y-2689167D01*
X13808374Y-2689168D01*
X13804744Y-2690300D01*
X13801280Y-2691858D01*
X13801272Y-2691862D01*
X13520883Y-2818054D01*
X13520874Y-2818058D01*
X13517416Y-2819615D01*
X13514165Y-2821580D01*
X13514156Y-2821585D01*
X13251024Y-2980654D01*
X13251018Y-2980657D01*
X13247771Y-2982621D01*
X13244790Y-2984955D01*
X13244779Y-2984964D01*
X13002743Y-3174588D01*
X13002732Y-3174597D01*
X12999741Y-3176941D01*
X12997046Y-3179635D01*
X12997038Y-3179643D01*
X12779643Y-3397038D01*
X12779635Y-3397046D01*
X12776941Y-3399741D01*
X12774597Y-3402732D01*
X12774588Y-3402743D01*
X12584964Y-3644779D01*
X12584955Y-3644790D01*
X12582621Y-3647771D01*
X12580657Y-3651018D01*
X12580654Y-3651024D01*
X12421585Y-3914156D01*
X12421580Y-3914165D01*
X12419615Y-3917416D01*
X12418058Y-3920874D01*
X12418054Y-3920883D01*
X12291862Y-4201272D01*
X12291858Y-4201280D01*
X12290300Y-4204744D01*
X12289168Y-4208374D01*
X12289167Y-4208379D01*
X12197693Y-4501925D01*
X12197690Y-4501935D01*
X12196560Y-4505563D01*
X12195874Y-4509304D01*
X12195872Y-4509314D01*
X12140449Y-4811745D01*
X12140447Y-4811760D01*
X12139764Y-4815488D01*
X12120740Y-5130000D01*
X8297031Y-5130000D01*
X8503647Y-4789165D01*
X8793018Y-4234494D01*
X9046257Y-3662424D01*
X9262323Y-3075303D01*
X9440328Y-2475545D01*
X9579540Y-1865615D01*
X9679389Y-1248019D01*
X9739462Y-625294D01*
X9759514Y0D01*
X9739462Y625294D01*
X9679389Y1248019D01*
X9579540Y1865615D01*
X9440328Y2475545D01*
X9262323Y3075303D01*
X9046257Y3662424D01*
X8793018Y4234494D01*
X8503647Y4789165D01*
X8179333Y5324156D01*
X7821407Y5837268D01*
X7431342Y6326394D01*
X7010741Y6789524D01*
X6561330Y7224753D01*
X6084957Y7630295D01*
X5583581Y8004483D01*
X5581894Y8005582D01*
X5581887Y8005586D01*
X5321420Y8175131D01*
X5059260Y8345778D01*
X4514149Y8652778D01*
X4512336Y8653651D01*
X4512319Y8653660D01*
X3952309Y8923347D01*
X3952296Y8923353D01*
X3950489Y8924223D01*
X3948627Y8924977D01*
X3372464Y9158240D01*
X3372445Y9158247D01*
X3370595Y9158996D01*
X2905445Y9313436D01*
X2778749Y9355502D01*
X2778743Y9355504D01*
X2776851Y9356132D01*
X2372941Y9462050D01*
X2173641Y9514313D01*
X2173639Y9514314D01*
X2171696Y9514823D01*
X2169727Y9515207D01*
X2169716Y9515209D01*
X1559593Y9634030D01*
X1559568Y9634035D01*
X1557617Y9634414D01*
X1555648Y9634668D01*
X1555635Y9634670D01*
X939138Y9714159D01*
X939111Y9714162D01*
X937138Y9714416D01*
X935118Y9714546D01*
X935115Y9714546D01*
X314819Y9754371D01*
X314815Y9754372D01*
X312808Y9754500D01*
X-312808Y9754500D01*
X-314815Y9754372D01*
X-314820Y9754371D01*
X-935116Y9714546D01*
X-935122Y9714546D01*
X-937138Y9714416D01*
X-939109Y9714162D01*
X-939139Y9714159D01*
X-1555636Y9634670D01*
X-1555654Y9634668D01*
X-1557617Y9634414D01*
X-1559564Y9634035D01*
X-1559594Y9634030D01*
X-2169717Y9515209D01*
X-2169735Y9515205D01*
X-2171696Y9514823D01*
X-2173634Y9514316D01*
X-2173642Y9514313D01*
X-2774915Y9356640D01*
X-2774925Y9356638D01*
X-2776851Y9356132D01*
X-2778736Y9355507D01*
X-2778750Y9355502D01*
X-3368674Y9159634D01*
X-3368680Y9159633D01*
X-3370595Y9158996D01*
X-3372436Y9158251D01*
X-3372465Y9158240D01*
X-3948628Y8924977D01*
X-3948643Y8924971D01*
X-3950489Y8924223D01*
X-3952286Y8923358D01*
X-3952310Y8923347D01*
X-4512320Y8653660D01*
X-4512350Y8653645D01*
X-4514149Y8652778D01*
X-4515911Y8651787D01*
X-4515920Y8651781D01*
X-5057498Y8346771D01*
X-5057514Y8346762D01*
X-5059260Y8345778D01*
X-5060948Y8344680D01*
X-5060955Y8344675D01*
X-5581888Y8005586D01*
X-5581910Y8005572D01*
X-5583581Y8004483D01*
X-5585176Y8003294D01*
X-5585197Y8003278D01*
X-6083344Y7631499D01*
X-6084957Y7630295D01*
X-6086471Y7629007D01*
X-6086490Y7628991D01*
X-6559792Y7226063D01*
X-6559805Y7226053D01*
X-6561330Y7224753D01*
X-6562764Y7223365D01*
X-6562783Y7223347D01*
X-7009291Y6790929D01*
X-7009303Y6790917D01*
X-7010741Y6789524D01*
X-7012081Y6788050D01*
X-7012098Y6788031D01*
X-7429981Y6327894D01*
X-7430000Y6327872D01*
X-7431342Y6326394D01*
X-7432590Y6324830D01*
X-7432602Y6324815D01*
X-7820145Y5838852D01*
X-7820163Y5838829D01*
X-7821407Y5837268D01*
X-7822550Y5835630D01*
X-7822566Y5835608D01*
X-8178176Y5325816D01*
X-8178190Y5325796D01*
X-8179333Y5324156D01*
X-8180368Y5322450D01*
X-8180388Y5322418D01*
X-8502596Y4790899D01*
X-8503647Y4789165D01*
X-8504571Y4787396D01*
X-8504580Y4787378D01*
X-8792086Y4236282D01*
X-8792096Y4236263D01*
X-8793018Y4234494D01*
X-8793831Y4232658D01*
X-8793837Y4232645D01*
X-9045443Y3664264D01*
X-9045449Y3664251D01*
X-9046257Y3662424D01*
X-9046948Y3660547D01*
X-9046953Y3660534D01*
X-9261627Y3077195D01*
X-9262323Y3075303D01*
X-9262895Y3073379D01*
X-9262898Y3073367D01*
X-9439756Y2477474D01*
X-9439760Y2477459D01*
X-9440328Y2475545D01*
X-9440768Y2473621D01*
X-9440775Y2473591D01*
X-9525412Y2102767D01*
X-9579540Y1865615D01*
X-9579856Y1863661D01*
X-9579860Y1863640D01*
X-9679070Y1249997D01*
X-9679074Y1249973D01*
X-9679389Y1248019D01*
X-9679579Y1246053D01*
X-9679582Y1246027D01*
X-9739268Y627315D01*
X-9739270Y627286D01*
X-9739462Y625294D01*
X-9739527Y623281D01*
X-9739528Y623258D01*
X-9744592Y465330D01*
X-9759514Y0D01*
X-13455500Y0D01*
X-13455500Y5778129D01*
X-13435498Y5846250D01*
X-13418595Y5867224D01*
X-6127224Y13158595D01*
X-6064912Y13192621D01*
X-6038129Y13195500D01*
X-2512701Y13195500D01*
X-2444580Y13175498D01*
X-2398087Y13121842D01*
X-2387983Y13051568D01*
X-2417477Y12986988D01*
X-2423606Y12980405D01*
X-3092776Y12311235D01*
X-3155088Y12277209D01*
X-3181871Y12274330D01*
X-3944805Y12274330D01*
X-3965668Y12277704D01*
X-3965747Y12277068D01*
X-4689194Y12367499D01*
X-4703718Y12370187D01*
X-4720528Y12374330D01*
X-4720529Y12374330D01*
X-4735999Y12374330D01*
X-4751627Y12375303D01*
X-4754707Y12375688D01*
X-4756641Y12375885D01*
X-4770558Y12377177D01*
X-4772474Y12377312D01*
X-4771969Y12377266D01*
X-4773861Y12377342D01*
X-4787627Y12377787D01*
X-4791630Y12377001D01*
X-4793214Y12376690D01*
X-4817485Y12374330D01*
X-4879471Y12374330D01*
X-5033793Y12336293D01*
X-5033794Y12336293D01*
X-5033796Y12336292D01*
X-5174528Y12262430D01*
X-5293499Y12157031D01*
X-5383788Y12026225D01*
X-5440150Y11877611D01*
X-5459307Y11719830D01*
X-5440150Y11562050D01*
X-5395762Y11445010D01*
X-5390308Y11374224D01*
X-5423990Y11311725D01*
X-5486115Y11277358D01*
X-5513574Y11274330D01*
X-7288371Y11274330D01*
X-7292673Y11274403D01*
X-7300743Y11274679D01*
X-7357239Y11276609D01*
X-7357240Y11276609D01*
X-7357243Y11276609D01*
X-7397404Y11266823D01*
X-7410072Y11264415D01*
X-7451009Y11258788D01*
X-7467507Y11251622D01*
X-7487860Y11244778D01*
X-7505332Y11240520D01*
X-7541357Y11220265D01*
X-7552905Y11214530D01*
X-7590822Y11198060D01*
X-7604778Y11186706D01*
X-7622528Y11174625D01*
X-7638198Y11165813D01*
X-7667426Y11136587D01*
X-7676997Y11127950D01*
X-7709058Y11101865D01*
X-7719432Y11087169D01*
X-7733271Y11070742D01*
X-12483846Y6320167D01*
X-12486937Y6317179D01*
X-12534177Y6273059D01*
X-12555652Y6237745D01*
X-12562908Y6227084D01*
X-12587880Y6194153D01*
X-12594480Y6177417D01*
X-12604033Y6158184D01*
X-12613376Y6142819D01*
X-12624529Y6103020D01*
X-12628638Y6090801D01*
X-12643800Y6052351D01*
X-12645639Y6034460D01*
X-12649650Y6013358D01*
X-12654500Y5996047D01*
X-12654500Y5954715D01*
X-12655161Y5941830D01*
X-12659387Y5900722D01*
X-12656332Y5883003D01*
X-12654500Y5861595D01*
X-12654500Y4475027D01*
X-12657875Y4454162D01*
X-12657239Y4454082D01*
X-12755858Y3665123D01*
X-12756054Y3663201D01*
X-12757347Y3649283D01*
X-12757484Y3647347D01*
X-12757436Y3647873D01*
X-12757514Y3645958D01*
X-12757822Y3636122D01*
X-12758671Y3625073D01*
X-12759308Y3619831D01*
X-12740150Y3462049D01*
X-12683788Y3313436D01*
X-12683787Y3313435D01*
X-12593498Y3182629D01*
X-12474529Y3077231D01*
X-12333793Y3003367D01*
X-12179471Y2965330D01*
X-12179469Y2965330D01*
X-12020531Y2965330D01*
X-12020529Y2965330D01*
X-11866207Y3003367D01*
X-11725471Y3077231D01*
X-11606502Y3182629D01*
X-11516213Y3313435D01*
X-11459851Y3462048D01*
X-11440693Y3619830D01*
X-11443440Y3642446D01*
X-11443958Y3663640D01*
X-11444145Y3665131D01*
X-11444144Y3665135D01*
X-11541223Y4441768D01*
X-11542517Y4452124D01*
X-11542243Y4452159D01*
X-11545500Y4474497D01*
X-11545500Y5637959D01*
X-11525498Y5706080D01*
X-11508595Y5727054D01*
X-7107224Y10128425D01*
X-7044912Y10162451D01*
X-7018129Y10165330D01*
X-2611629Y10165330D01*
X-2607327Y10165257D01*
X-2606003Y10165212D01*
X-2542761Y10163051D01*
X-2502589Y10172842D01*
X-2489947Y10175245D01*
X-2448991Y10180873D01*
X-2432497Y10188038D01*
X-2412143Y10194883D01*
X-2394667Y10199141D01*
X-2358636Y10219401D01*
X-2347106Y10225128D01*
X-2309182Y10241600D01*
X-2295237Y10252946D01*
X-2277472Y10265038D01*
X-2261801Y10273848D01*
X-2232574Y10303077D01*
X-2223001Y10311715D01*
X-2190942Y10337796D01*
X-2180570Y10352492D01*
X-2166733Y10368918D01*
X-968222Y11567429D01*
X-905912Y11601453D01*
X-835097Y11596388D01*
X-778261Y11553841D01*
X-753450Y11487321D01*
X-754048Y11463145D01*
X-759308Y11419831D01*
X-740150Y11262050D01*
X-683788Y11113436D01*
X-659581Y11078367D01*
X-593498Y10982629D01*
X-474529Y10877231D01*
X-333793Y10803367D01*
X-179471Y10765330D01*
X-78040Y10765330D01*
X-68979Y10765004D01*
X-54696Y10763974D01*
X-51632Y10764357D01*
X-36005Y10765330D01*
X-20530Y10765330D01*
X-20529Y10765330D01*
X-3715Y10769476D01*
X10802Y10772163D01*
X721938Y10861053D01*
X721940Y10861054D01*
X732295Y10862348D01*
X732329Y10862073D01*
X754664Y10865330D01*
X4018129Y10865330D01*
X4086250Y10845328D01*
X4107224Y10828425D01*
X13603197Y1332452D01*
X13615566Y1315313D01*
X13616072Y1315706D01*
X13623685Y1305918D01*
X13623687Y1305914D01*
X14006724Y813436D01*
X14088836Y707863D01*
X14093071Y702086D01*
X14106502Y682629D01*
X14110598Y679000D01*
X14119021Y670806D01*
X14126023Y663325D01*
X14126026Y663323D01*
X14128422Y661713D01*
X14141709Y651438D01*
X14225471Y577231D01*
X14366207Y503367D01*
X14520529Y465330D01*
X14520531Y465330D01*
X14679469Y465330D01*
X14679471Y465330D01*
X14833793Y503367D01*
X14974529Y577231D01*
X15093498Y682629D01*
X15183787Y813435D01*
X15240149Y962048D01*
X15259307Y1119830D01*
X15240149Y1277612D01*
X15183787Y1426225D01*
X15093498Y1557031D01*
X15052331Y1593502D01*
X15040615Y1605354D01*
X15031722Y1615629D01*
X14999126Y1640982D01*
X14992930Y1646127D01*
X14974148Y1662767D01*
X14956511Y1674127D01*
X14405681Y2102548D01*
X14405851Y2102767D01*
X14387750Y2116261D01*
X7753776Y8750235D01*
X7719750Y8812547D01*
X7724815Y8883362D01*
X7767362Y8940198D01*
X7833882Y8965009D01*
X7842871Y8965330D01*
X7979469Y8965330D01*
X7979471Y8965330D01*
X8133793Y9003367D01*
X8274529Y9077231D01*
X8393498Y9182629D01*
X8483787Y9313435D01*
X8540149Y9462048D01*
X8559307Y9619830D01*
X8540149Y9777612D01*
X8483787Y9926225D01*
X8393498Y10057031D01*
X8352331Y10093502D01*
X8340615Y10105354D01*
X8331722Y10115629D01*
X8299126Y10140982D01*
X8292930Y10146127D01*
X8274148Y10162767D01*
X8256511Y10174127D01*
X7705681Y10602548D01*
X7705851Y10602767D01*
X7687750Y10616261D01*
X5500321Y12803690D01*
X5497331Y12806783D01*
X5453226Y12854008D01*
X5417910Y12875485D01*
X5407246Y12882742D01*
X5374320Y12907711D01*
X5357591Y12914308D01*
X5338353Y12923864D01*
X5322992Y12933205D01*
X5283192Y12944357D01*
X5270969Y12948468D01*
X5232520Y12963630D01*
X5214630Y12965469D01*
X5193528Y12969480D01*
X5176216Y12974330D01*
X5176214Y12974330D01*
X5134884Y12974330D01*
X5121999Y12974991D01*
X5117562Y12975448D01*
X5080892Y12979218D01*
X5063173Y12976162D01*
X5041763Y12974330D01*
X1655195Y12974330D01*
X1634332Y12977704D01*
X1634253Y12977068D01*
X910806Y13067499D01*
X896282Y13070187D01*
X879472Y13074330D01*
X879471Y13074330D01*
X864001Y13074330D01*
X848373Y13075303D01*
X845293Y13075688D01*
X843359Y13075885D01*
X833040Y13076839D01*
X767089Y13103126D01*
X725819Y13160895D01*
X722333Y13231806D01*
X755729Y13291380D01*
X1687379Y14223030D01*
X1704514Y14235393D01*
X1704120Y14235899D01*
X1715438Y14244702D01*
X2256511Y14665536D01*
X2274150Y14676896D01*
X2274526Y14677230D01*
X2274529Y14677231D01*
X2292953Y14693555D01*
X2299131Y14698685D01*
X2314949Y14710988D01*
X2331726Y14724035D01*
X2333198Y14725235D01*
X2343869Y14734086D01*
X2345323Y14735346D01*
X2344938Y14735027D01*
X2346336Y14736316D01*
X2360377Y14749473D01*
X2375202Y14766421D01*
X2393498Y14782629D01*
X2483787Y14913435D01*
X2540149Y15062048D01*
X2559307Y15219830D01*
X2540149Y15377612D01*
X2483787Y15526225D01*
X2393498Y15657031D01*
X2274529Y15762429D01*
X2226790Y15787485D01*
X2198095Y15802545D01*
X2147073Y15851914D01*
X2130841Y15921030D01*
X2154553Y15987950D01*
X2167550Y16003201D01*
X2283885Y16119536D01*
X2286952Y16122499D01*
X2334173Y16166599D01*
X2334173Y16166600D01*
X2334176Y16166602D01*
X2355656Y16201927D01*
X2362905Y16212577D01*
X2387880Y16245509D01*
X2394476Y16262237D01*
X2404037Y16281485D01*
X2413374Y16296839D01*
X2413375Y16296840D01*
X2424528Y16336649D01*
X2428634Y16348856D01*
X2443799Y16387310D01*
X2445638Y16405203D01*
X2449649Y16426305D01*
X2454500Y16443616D01*
X2454500Y16484954D01*
X2455161Y16497839D01*
X2459386Y16538939D01*
X2456332Y16556653D01*
X2454500Y16578060D01*
X2454500Y18482331D01*
X4140693Y18482331D01*
X4159850Y18324550D01*
X4216212Y18175936D01*
X4293866Y18063436D01*
X4306502Y18045129D01*
X4425471Y17939731D01*
X4566207Y17865867D01*
X4720529Y17827830D01*
X4720531Y17827830D01*
X4879469Y17827830D01*
X4879471Y17827830D01*
X5033793Y17865867D01*
X5174529Y17939731D01*
X5293498Y18045129D01*
X5383787Y18175935D01*
X5440149Y18324548D01*
X5451718Y18419830D01*
X6540693Y18419830D01*
X6559850Y18262050D01*
X6616212Y18113436D01*
X6693866Y18000936D01*
X6706502Y17982629D01*
X6825471Y17877231D01*
X6966207Y17803367D01*
X7120529Y17765330D01*
X7120531Y17765330D01*
X7279469Y17765330D01*
X7279471Y17765330D01*
X7433793Y17803367D01*
X7574529Y17877231D01*
X7693498Y17982629D01*
X7783787Y18113435D01*
X7840149Y18262048D01*
X7859307Y18419830D01*
X7859307Y18419831D01*
X8940693Y18419831D01*
X8959850Y18262050D01*
X9016212Y18113436D01*
X9093866Y18000936D01*
X9106502Y17982629D01*
X9225471Y17877231D01*
X9366207Y17803367D01*
X9520529Y17765330D01*
X9520531Y17765330D01*
X9679469Y17765330D01*
X9679471Y17765330D01*
X9833793Y17803367D01*
X9974529Y17877231D01*
X10093498Y17982629D01*
X10183787Y18113435D01*
X10240149Y18262048D01*
X10259307Y18419830D01*
X10240149Y18577612D01*
X10183787Y18726225D01*
X10093498Y18857031D01*
X9974529Y18962429D01*
X9833793Y19036293D01*
X9679471Y19074330D01*
X9520529Y19074330D01*
X9366207Y19036293D01*
X9366206Y19036293D01*
X9366204Y19036292D01*
X9225472Y18962430D01*
X9106501Y18857031D01*
X9016212Y18726225D01*
X8959850Y18577611D01*
X8940693Y18419831D01*
X7859307Y18419831D01*
X7840149Y18577612D01*
X7783787Y18726225D01*
X7693498Y18857031D01*
X7574529Y18962429D01*
X7433793Y19036293D01*
X7279471Y19074330D01*
X7120529Y19074330D01*
X6966207Y19036293D01*
X6966206Y19036293D01*
X6966204Y19036292D01*
X6825472Y18962430D01*
X6706501Y18857031D01*
X6616212Y18726225D01*
X6559850Y18577611D01*
X6540693Y18419830D01*
X5451718Y18419830D01*
X5459307Y18482330D01*
X5440149Y18640112D01*
X5383787Y18788725D01*
X5293498Y18919531D01*
X5174529Y19024929D01*
X5033793Y19098793D01*
X4879471Y19136830D01*
X4720529Y19136830D01*
X4566207Y19098793D01*
X4566206Y19098793D01*
X4566204Y19098792D01*
X4425472Y19024930D01*
X4306501Y18919531D01*
X4216212Y18788725D01*
X4159850Y18640111D01*
X4140693Y18482331D01*
X2454500Y18482331D01*
X2454500Y18848264D01*
X2454499Y18848272D01*
X2454499Y19819899D01*
X2439734Y19894131D01*
X2383484Y19978315D01*
X2299301Y20034564D01*
X2299296Y20034565D01*
X2225067Y20049330D01*
X2225066Y20049330D01*
X1574931Y20049330D01*
X1500699Y20034565D01*
X1470000Y20014052D01*
X1402247Y19992838D01*
X1333780Y20011622D01*
X1329997Y20014053D01*
X1299301Y20034564D01*
X1299296Y20034565D01*
X1225067Y20049330D01*
X1225066Y20049330D01*
X607936Y20049330D01*
X539815Y20069332D01*
X493322Y20122988D01*
X482909Y20190955D01*
X555856Y20774526D01*
X555857Y20774540D01*
X556050Y20776438D01*
X557342Y20790322D01*
X557477Y20792237D01*
X557432Y20791744D01*
X557510Y20793665D01*
X557819Y20803529D01*
X558670Y20814587D01*
X559307Y20819834D01*
X540149Y20977612D01*
X483787Y21126225D01*
X393498Y21257031D01*
X344301Y21300616D01*
X274529Y21362429D01*
X133793Y21436293D01*
X-20529Y21474330D01*
X-179471Y21474330D01*
X-333793Y21436293D01*
X-333794Y21436293D01*
X-333796Y21436292D01*
X-474528Y21362430D01*
X-593499Y21257031D01*
X-683788Y21126225D01*
X-740150Y20977611D01*
X-759308Y20819830D01*
X-756562Y20797222D01*
X-756044Y20776021D01*
X-755857Y20774528D01*
X-665207Y20049329D01*
X-657482Y19987535D01*
X-657758Y19987501D01*
X-654500Y19965167D01*
X-654500Y17769762D01*
X-639735Y17695530D01*
X-583485Y17611346D01*
X-545501Y17585966D01*
X-499301Y17555096D01*
X-425067Y17540330D01*
X219500Y17540331D01*
X287621Y17520329D01*
X334114Y17466673D01*
X345500Y17414331D01*
X345500Y17001702D01*
X325498Y16933581D01*
X308595Y16912607D01*
X-2262606Y14341405D01*
X-2324918Y14307380D01*
X-2351701Y14304500D01*
X-6308389Y14304500D01*
X-6312690Y14304573D01*
X-6328394Y14305110D01*
X-6377239Y14306778D01*
X-6377240Y14306778D01*
X-6377242Y14306778D01*
X-6417397Y14296993D01*
X-6430068Y14294585D01*
X-6471012Y14288957D01*
X-6487511Y14281791D01*
X-6507866Y14274946D01*
X-6525334Y14270689D01*
X-6561352Y14250438D01*
X-6572899Y14244702D01*
X-6610819Y14228230D01*
X-6624770Y14216880D01*
X-6642527Y14204795D01*
X-6658198Y14195984D01*
X-6687426Y14166757D01*
X-6696997Y14158120D01*
X-6729058Y14132035D01*
X-6739432Y14117339D01*
X-6753271Y14100912D01*
X-14393846Y6460337D01*
X-14396937Y6457349D01*
X-14444177Y6413229D01*
X-14465652Y6377915D01*
X-14472908Y6367254D01*
X-14497880Y6334323D01*
X-14504480Y6317587D01*
X-14514033Y6298354D01*
X-14523376Y6282989D01*
X-14534529Y6243190D01*
X-14538638Y6230971D01*
X-14553800Y6192521D01*
X-14555639Y6174630D01*
X-14559650Y6153528D01*
X-14564500Y6136217D01*
X-14564500Y6094885D01*
X-14565161Y6082000D01*
X-14569387Y6040892D01*
X-19745500Y6040892D01*
X-19745501Y18369830D01*
X-10859307Y18369830D01*
X-10840150Y18212050D01*
X-10783788Y18063436D01*
X-10728011Y17982630D01*
X-10693498Y17932629D01*
X-10574529Y17827231D01*
X-10433793Y17753367D01*
X-10279471Y17715330D01*
X-10279469Y17715330D01*
X-10120531Y17715330D01*
X-10120529Y17715330D01*
X-9966207Y17753367D01*
X-9825471Y17827231D01*
X-9706502Y17932629D01*
X-9616213Y18063435D01*
X-9559851Y18212048D01*
X-9548282Y18307330D01*
X-8659307Y18307330D01*
X-8640150Y18149550D01*
X-8583788Y18000936D01*
X-8536639Y17932630D01*
X-8493498Y17870129D01*
X-8374529Y17764731D01*
X-8233793Y17690867D01*
X-8079471Y17652830D01*
X-8079469Y17652830D01*
X-7920531Y17652830D01*
X-7920529Y17652830D01*
X-7766207Y17690867D01*
X-7625471Y17764731D01*
X-7506502Y17870129D01*
X-7416213Y18000935D01*
X-7359851Y18149548D01*
X-7340693Y18307330D01*
X-7348282Y18369830D01*
X-6459307Y18369830D01*
X-6440150Y18212050D01*
X-6383788Y18063436D01*
X-6328011Y17982630D01*
X-6293498Y17932629D01*
X-6174529Y17827231D01*
X-6033793Y17753367D01*
X-5879471Y17715330D01*
X-5879469Y17715330D01*
X-5720531Y17715330D01*
X-5720529Y17715330D01*
X-5566207Y17753367D01*
X-5425471Y17827231D01*
X-5306502Y17932629D01*
X-5216213Y18063435D01*
X-5159851Y18212048D01*
X-5140693Y18369830D01*
X-5159851Y18527612D01*
X-5216213Y18676225D01*
X-5306502Y18807031D01*
X-5320949Y18819830D01*
X-3859307Y18819830D01*
X-3840150Y18662050D01*
X-3783788Y18513436D01*
X-3750431Y18465111D01*
X-3693498Y18382629D01*
X-3574529Y18277231D01*
X-3433793Y18203367D01*
X-3279471Y18165330D01*
X-3195117Y18165330D01*
X-3182258Y18164672D01*
X-3180429Y18164485D01*
X-3162862Y18162682D01*
X-3140697Y18164773D01*
X-3128863Y18165330D01*
X-3120440Y18165330D01*
X-3102425Y18168384D01*
X-2792332Y18197637D01*
X-2722635Y18184121D01*
X-2671309Y18135069D01*
X-2654500Y18072194D01*
X-2654500Y17769762D01*
X-2639735Y17695530D01*
X-2583485Y17611346D01*
X-2545501Y17585966D01*
X-2499301Y17555096D01*
X-2425067Y17540330D01*
X-1774934Y17540331D01*
X-1774932Y17540331D01*
X-1725445Y17550175D01*
X-1700699Y17555096D01*
X-1616516Y17611346D01*
X-1560266Y17695529D01*
X-1545500Y17769763D01*
X-1545501Y18771585D01*
X-1545207Y18780183D01*
X-1544623Y18788725D01*
X-1541592Y18833026D01*
X-1542865Y18839152D01*
X-1545501Y18864789D01*
X-1545501Y19819899D01*
X-1560266Y19894131D01*
X-1616516Y19978315D01*
X-1700699Y20034564D01*
X-1700704Y20034565D01*
X-1774933Y20049330D01*
X-1774934Y20049330D01*
X-2425069Y20049330D01*
X-2499301Y20034565D01*
X-2583485Y19978315D01*
X-2639734Y19894132D01*
X-2654500Y19819897D01*
X-2654500Y19544110D01*
X-2674502Y19475989D01*
X-2728158Y19429496D01*
X-2798432Y19419392D01*
X-2800071Y19419639D01*
X-3066940Y19461599D01*
X-3077519Y19463730D01*
X-3101460Y19469631D01*
X-3120529Y19474330D01*
X-3120530Y19474330D01*
X-3141066Y19474330D01*
X-3155843Y19475200D01*
X-3166013Y19476401D01*
X-3168419Y19476614D01*
X-3167791Y19476541D01*
X-3170190Y19476662D01*
X-3187616Y19477361D01*
X-3191033Y19476690D01*
X-3215306Y19474330D01*
X-3279471Y19474330D01*
X-3433793Y19436293D01*
X-3433794Y19436293D01*
X-3433796Y19436292D01*
X-3574528Y19362430D01*
X-3693499Y19257031D01*
X-3783788Y19126225D01*
X-3840150Y18977611D01*
X-3859307Y18819830D01*
X-5320949Y18819830D01*
X-5425471Y18912429D01*
X-5566207Y18986293D01*
X-5720529Y19024330D01*
X-5879471Y19024330D01*
X-6033793Y18986293D01*
X-6033794Y18986293D01*
X-6033796Y18986292D01*
X-6174528Y18912430D01*
X-6293499Y18807031D01*
X-6383788Y18676225D01*
X-6440150Y18527611D01*
X-6459307Y18369830D01*
X-7348282Y18369830D01*
X-7359851Y18465112D01*
X-7416213Y18613725D01*
X-7506502Y18744531D01*
X-7625471Y18849929D01*
X-7766207Y18923793D01*
X-7920529Y18961830D01*
X-8079471Y18961830D01*
X-8233793Y18923793D01*
X-8233794Y18923793D01*
X-8233796Y18923792D01*
X-8374528Y18849930D01*
X-8493499Y18744531D01*
X-8583788Y18613725D01*
X-8640150Y18465111D01*
X-8659307Y18307330D01*
X-9548282Y18307330D01*
X-9540693Y18369830D01*
X-9559851Y18527612D01*
X-9616213Y18676225D01*
X-9706502Y18807031D01*
X-9825471Y18912429D01*
X-9966207Y18986293D01*
X-10120529Y19024330D01*
X-10279471Y19024330D01*
X-10433793Y18986293D01*
X-10433794Y18986293D01*
X-10433796Y18986292D01*
X-10574528Y18912430D01*
X-10693499Y18807031D01*
X-10783788Y18676225D01*
X-10840150Y18527611D01*
X-10859307Y18369830D01*
X-19745501Y18369830D01*
X-19745501Y21819830D01*
X-4233339Y21819830D01*
X-4214036Y21636172D01*
X-4156971Y21460544D01*
X-4064638Y21300618D01*
X-4064636Y21300616D01*
X-3941069Y21163381D01*
X-3791670Y21054836D01*
X-3622967Y20979725D01*
X-3442334Y20941330D01*
X-3442332Y20941330D01*
X-3257668Y20941330D01*
X-3257666Y20941330D01*
X-3077033Y20979725D01*
X-2908330Y21054836D01*
X-2758931Y21163381D01*
X-2635364Y21300616D01*
X-2543030Y21460544D01*
X-2485964Y21636173D01*
X-2466661Y21819830D01*
X2266661Y21819830D01*
X2285964Y21636172D01*
X2343029Y21460544D01*
X2435362Y21300618D01*
X2435364Y21300616D01*
X2558931Y21163381D01*
X2708330Y21054836D01*
X2877033Y20979725D01*
X3057666Y20941330D01*
X3057668Y20941330D01*
X3242332Y20941330D01*
X3242334Y20941330D01*
X3422967Y20979725D01*
X3591670Y21054836D01*
X3741069Y21163381D01*
X3864636Y21300616D01*
X3956970Y21460544D01*
X4014036Y21636173D01*
X4033339Y21819830D01*
X4014036Y22003487D01*
X3956970Y22179116D01*
X3956970Y22179117D01*
X3864637Y22339043D01*
X3741068Y22476280D01*
X3591671Y22584823D01*
X3591670Y22584824D01*
X3422967Y22659935D01*
X3242334Y22698330D01*
X3057666Y22698330D01*
X2937243Y22672734D01*
X2877032Y22659935D01*
X2708329Y22584823D01*
X2558931Y22476280D01*
X2435362Y22339043D01*
X2343029Y22179117D01*
X2285964Y22003489D01*
X2266661Y21819830D01*
X-2466661Y21819830D01*
X-2485964Y22003487D01*
X-2543030Y22179116D01*
X-2543030Y22179117D01*
X-2635363Y22339043D01*
X-2758932Y22476280D01*
X-2908329Y22584823D01*
X-2908330Y22584824D01*
X-3077033Y22659935D01*
X-3257666Y22698330D01*
X-3442334Y22698330D01*
X-3562757Y22672734D01*
X-3622968Y22659935D01*
X-3791671Y22584823D01*
X-3941069Y22476280D01*
X-4064638Y22339043D01*
X-4156971Y22179117D01*
X-4214036Y22003489D01*
X-4233339Y21819830D01*
X-19745501Y21819830D01*
X-19745501Y24385381D01*
X-5545500Y24385381D01*
X-5505080Y24221391D01*
X-5465835Y24146616D01*
X-5426589Y24071838D01*
X-5314589Y23945417D01*
X-5175589Y23849472D01*
X-5017666Y23789580D01*
X-4892069Y23774330D01*
X-4888259Y23774330D01*
X-4811741Y23774330D01*
X-4807931Y23774330D01*
X-4682334Y23789580D01*
X-4524411Y23849472D01*
X-4385411Y23945417D01*
X-4273411Y24071839D01*
X-4194920Y24221391D01*
X-4154500Y24385381D01*
X-4154500Y24554279D01*
X-4194920Y24718269D01*
X-4273411Y24867821D01*
X-4273412Y24867823D01*
X-4385412Y24994244D01*
X-4524412Y25090189D01*
X-4682335Y25150081D01*
X-4804146Y25164871D01*
X-4804156Y25164872D01*
X-4807931Y25165330D01*
X-4892069Y25165330D01*
X-4895844Y25164872D01*
X-4895855Y25164871D01*
X-5017666Y25150081D01*
X-5175589Y25090189D01*
X-5314589Y24994244D01*
X-5426589Y24867823D01*
X-5490773Y24745529D01*
X-5505080Y24718269D01*
X-5545500Y24554279D01*
X-5545500Y24385381D01*
X-19745501Y24385381D01*
X-19745501Y25819830D01*
X-4059307Y25819830D01*
X-4040150Y25662050D01*
X-3983788Y25513436D01*
X-3983787Y25513435D01*
X-3893498Y25382629D01*
X-3774529Y25277231D01*
X-3633793Y25203367D01*
X-3479471Y25165330D01*
X-3479469Y25165330D01*
X-3320530Y25165330D01*
X-3320529Y25165330D01*
X-3277502Y25175936D01*
X-3266950Y25178062D01*
X-2800068Y25251469D01*
X-2729670Y25242290D01*
X-2675407Y25196507D01*
X-2654511Y25128655D01*
X-2654500Y25126998D01*
X-2654500Y24819762D01*
X-2639735Y24745530D01*
X-2583485Y24661346D01*
X-2545501Y24635966D01*
X-2499301Y24605096D01*
X-2425067Y24590330D01*
X-1774934Y24590331D01*
X-1774932Y24590331D01*
X-1725445Y24600175D01*
X-1700699Y24605096D01*
X-1616516Y24661346D01*
X-1560266Y24745529D01*
X-1545500Y24819763D01*
X-1545501Y25821585D01*
X-1545207Y25830183D01*
X-1545017Y25832961D01*
X-1541592Y25883026D01*
X-1542865Y25889152D01*
X-1545501Y25914789D01*
X-1545501Y26869899D01*
X-1560266Y26944131D01*
X-1616516Y27028315D01*
X-1700699Y27084564D01*
X-1700704Y27084565D01*
X-1774933Y27099330D01*
X-1774934Y27099330D01*
X-2425069Y27099330D01*
X-2499301Y27084565D01*
X-2583485Y27028315D01*
X-2639734Y26944132D01*
X-2654500Y26869897D01*
X-2654500Y26548601D01*
X-2674502Y26480480D01*
X-2728158Y26433987D01*
X-2792334Y26423158D01*
X-3302422Y26471279D01*
X-3320432Y26474330D01*
X-3320529Y26474330D01*
X-3328848Y26474330D01*
X-3340682Y26474887D01*
X-3362869Y26476980D01*
X-3364299Y26477089D01*
X-3374805Y26477829D01*
X-3376265Y26477907D01*
X-3375868Y26477880D01*
X-3377310Y26477925D01*
X-3387638Y26478182D01*
X-3395235Y26476690D01*
X-3419507Y26474330D01*
X-3479471Y26474330D01*
X-3633793Y26436293D01*
X-3633794Y26436293D01*
X-3633796Y26436292D01*
X-3774528Y26362430D01*
X-3893499Y26257031D01*
X-3983788Y26126225D01*
X-4040150Y25977611D01*
X-4059307Y25819830D01*
X-19745501Y25819830D01*
X-19745501Y26315331D01*
X-19745180Y26324319D01*
X-19742454Y26362430D01*
X-19728376Y26559263D01*
X-19725821Y26577031D01*
X-19676708Y26802805D01*
X-19671652Y26820022D01*
X-19590908Y27036506D01*
X-19583444Y27052847D01*
X-19566124Y27084565D01*
X-19472726Y27255613D01*
X-19463010Y27270731D01*
X-19324554Y27455686D01*
X-19312794Y27469257D01*
X-19149427Y27632624D01*
X-19135856Y27644384D01*
X-18950901Y27782840D01*
X-18935783Y27792555D01*
X-18830150Y27850235D01*
X-18733015Y27903275D01*
X-18716676Y27910738D01*
X-18500192Y27991482D01*
X-18482975Y27996538D01*
X-18257201Y28045651D01*
X-18239432Y28048206D01*
X-18023783Y28063629D01*
X-18004487Y28065009D01*
X-17995499Y28065330D01*
X-17955125Y28065330D01*
X957127Y28065330D01*
X1025248Y28045328D01*
G37*
G04 #@! TD.AperFunction*
G04 #@! TD*
G04 #@! TA.AperFunction,Conductor*
G04 #@! TO.N,/LED_4*
G36*
X-10639144Y-8809656D02*
G01*
X-10229487Y-9219313D01*
X-10226060Y-9227586D01*
X-10228525Y-9234769D01*
X-10709041Y-9852577D01*
X-10716825Y-9857004D01*
X-10725459Y-9854629D01*
X-10726528Y-9853688D01*
X-11000707Y-9580877D01*
X-11273519Y-9306697D01*
X-11276925Y-9298416D01*
X-11273477Y-9290151D01*
X-11272417Y-9289217D01*
X-10654600Y-8808693D01*
X-10645966Y-8806319D01*
X-10639144Y-8809656D01*
G37*
G04 #@! TD.AperFunction*
G04 #@! TD*
G04 #@! TA.AperFunction,Conductor*
G04 #@! TO.N,/LED_6*
G36*
X-4786894Y12118192D02*
G01*
X-4010248Y12021111D01*
X-4002465Y12016685D01*
X-4000000Y12009502D01*
X-4000000Y11430159D01*
X-4003427Y11421886D01*
X-4010249Y11418549D01*
X-4786883Y11321470D01*
X-4795517Y11323845D01*
X-4799944Y11331629D01*
X-4800034Y11333036D01*
X-4801000Y11719830D01*
X-4800034Y12106613D01*
X-4796586Y12114875D01*
X-4788305Y12118281D01*
X-4786894Y12118192D01*
G37*
G04 #@! TD.AperFunction*
G04 #@! TD*
G04 #@! TA.AperFunction,Conductor*
G04 #@! TO.N,/LED_5*
G36*
X2197944Y24316403D02*
G01*
X2201281Y24309581D01*
X2298360Y23532948D01*
X2295985Y23524314D01*
X2288201Y23519887D01*
X2286779Y23519797D01*
X1900000Y23518830D01*
X1513220Y23519797D01*
X1504955Y23523245D01*
X1501549Y23531526D01*
X1501638Y23532936D01*
X1598718Y24309581D01*
X1603146Y24317365D01*
X1610329Y24319830D01*
X2189671Y24319830D01*
X2197944Y24316403D01*
G37*
G04 #@! TD.AperFunction*
G04 #@! TD*
G04 #@! TA.AperFunction,Conductor*
G04 #@! TO.N,/LED_5*
G36*
X-11802056Y4416403D02*
G01*
X-11798719Y4409581D01*
X-11701640Y3632948D01*
X-11704015Y3624314D01*
X-11711799Y3619887D01*
X-11713221Y3619797D01*
X-12100000Y3618830D01*
X-12486780Y3619797D01*
X-12495045Y3623245D01*
X-12498451Y3631526D01*
X-12498362Y3632936D01*
X-12401282Y4409581D01*
X-12396854Y4417365D01*
X-12389671Y4419830D01*
X-11810329Y4419830D01*
X-11802056Y4416403D01*
G37*
G04 #@! TD.AperFunction*
G04 #@! TD*
G04 #@! TA.AperFunction,Conductor*
G04 #@! TO.N,/LED_5*
G36*
X1625458Y15494290D02*
G01*
X1626527Y15493349D01*
X1900707Y15220537D01*
X2173518Y14946358D01*
X2176924Y14938077D01*
X2173476Y14929812D01*
X2172407Y14928871D01*
X1554599Y14448355D01*
X1545965Y14445980D01*
X1539143Y14449317D01*
X1129486Y14858974D01*
X1126059Y14867247D01*
X1128524Y14874430D01*
X1171599Y14929812D01*
X1609041Y15492239D01*
X1616824Y15496665D01*
X1625458Y15494290D01*
G37*
G04 #@! TD.AperFunction*
G04 #@! TD*
G04 #@! TA.AperFunction,Conductor*
G04 #@! TO.N,/LED_3*
G36*
X11790018Y-8806693D02*
G01*
X11790959Y-8807762D01*
X12271475Y-9425570D01*
X12273850Y-9434204D01*
X12270513Y-9441026D01*
X11860856Y-9850683D01*
X11852583Y-9854110D01*
X11845400Y-9851645D01*
X11227592Y-9371129D01*
X11223165Y-9363345D01*
X11225540Y-9354711D01*
X11226481Y-9353642D01*
X11499293Y-9079463D01*
X11499293Y-9079462D01*
X11773472Y-8806650D01*
X11781753Y-8803245D01*
X11790018Y-8806693D01*
G37*
G04 #@! TD.AperFunction*
G04 #@! TD*
G04 #@! TA.AperFunction,Conductor*
G04 #@! TO.N,/LED_2*
G36*
X-86894Y11818192D02*
G01*
X689752Y11721111D01*
X697535Y11716685D01*
X700000Y11709502D01*
X700000Y11130159D01*
X696573Y11121886D01*
X689751Y11118549D01*
X-86883Y11021470D01*
X-95517Y11023845D01*
X-99944Y11031629D01*
X-100034Y11033036D01*
X-101000Y11419830D01*
X-100034Y11806613D01*
X-96586Y11814875D01*
X-88305Y11818281D01*
X-86894Y11818192D01*
G37*
G04 #@! TD.AperFunction*
G04 #@! TD*
G04 #@! TA.AperFunction,Conductor*
G04 #@! TO.N,/LED_2*
G36*
X14254599Y1891306D02*
G01*
X14872407Y1410790D01*
X14876834Y1403006D01*
X14874459Y1394372D01*
X14873518Y1393303D01*
X14600707Y1119123D01*
X14326527Y846312D01*
X14318246Y842906D01*
X14309981Y846354D01*
X14309040Y847423D01*
X13828524Y1465231D01*
X13826149Y1473865D01*
X13829485Y1480686D01*
X14239144Y1890345D01*
X14247416Y1893771D01*
X14254599Y1891306D01*
G37*
G04 #@! TD.AperFunction*
G04 #@! TD*
G04 #@! TA.AperFunction,Conductor*
G04 #@! TO.N,/LED_2*
G36*
X286781Y20819864D02*
G01*
X295044Y20816416D01*
X298450Y20808135D01*
X298360Y20806713D01*
X201281Y20030079D01*
X196854Y20022295D01*
X189671Y20019830D01*
X-389671Y20019830D01*
X-397944Y20023257D01*
X-401281Y20030079D01*
X-417462Y20159519D01*
X-498361Y20806715D01*
X-495986Y20815347D01*
X-488202Y20819774D01*
X-486796Y20819864D01*
X-100000Y20820830D01*
X286781Y20819864D01*
G37*
G04 #@! TD.AperFunction*
G04 #@! TD*
G04 #@! TA.AperFunction,Conductor*
G04 #@! TO.N,/LED_1*
G36*
X813106Y12818192D02*
G01*
X1589752Y12721111D01*
X1597535Y12716685D01*
X1600000Y12709502D01*
X1600000Y12130159D01*
X1596573Y12121886D01*
X1589751Y12118549D01*
X813117Y12021470D01*
X804483Y12023845D01*
X800056Y12031629D01*
X799966Y12033036D01*
X799000Y12419830D01*
X799966Y12806613D01*
X803414Y12814875D01*
X811695Y12818281D01*
X813106Y12818192D01*
G37*
G04 #@! TD.AperFunction*
G04 #@! TD*
G04 #@! TA.AperFunction,Conductor*
G04 #@! TO.N,/LED_1*
G36*
X197944Y24316403D02*
G01*
X201281Y24309581D01*
X298360Y23532948D01*
X295985Y23524314D01*
X288201Y23519887D01*
X286779Y23519797D01*
X-100000Y23518830D01*
X-486780Y23519797D01*
X-495045Y23523245D01*
X-498451Y23531526D01*
X-498362Y23532936D01*
X-401282Y24309581D01*
X-396854Y24317365D01*
X-389671Y24319830D01*
X189671Y24319830D01*
X197944Y24316403D01*
G37*
G04 #@! TD.AperFunction*
G04 #@! TD*
G04 #@! TA.AperFunction,Conductor*
G04 #@! TO.N,/LED_1*
G36*
X7554599Y10391306D02*
G01*
X8172407Y9910790D01*
X8176834Y9903006D01*
X8174459Y9894372D01*
X8173518Y9893303D01*
X7900707Y9619123D01*
X7626527Y9346312D01*
X7618246Y9342906D01*
X7609981Y9346354D01*
X7609040Y9347423D01*
X7128524Y9965231D01*
X7126149Y9973865D01*
X7129485Y9980686D01*
X7539144Y10390345D01*
X7547416Y10393771D01*
X7554599Y10391306D01*
G37*
G04 #@! TD.AperFunction*
G04 #@! TD*
G04 #@! TA.AperFunction,Conductor*
G04 #@! TO.N,Net-(J1-Pin_1)*
G36*
X-3186528Y19217712D02*
G01*
X-2414856Y19096384D01*
X-2407215Y19091714D01*
X-2404973Y19084826D01*
X-2404973Y18505478D01*
X-2408400Y18497205D01*
X-2415574Y18493830D01*
X-3187234Y18421035D01*
X-3195793Y18423669D01*
X-3199981Y18431584D01*
X-3200033Y18432634D01*
X-3201000Y18819830D01*
X-3200035Y19206185D01*
X-3196587Y19214447D01*
X-3188306Y19217853D01*
X-3186528Y19217712D01*
G37*
G04 #@! TD.AperFunction*
G04 #@! TD*
G04 #@! TA.AperFunction,Conductor*
G04 #@! TO.N,Net-(J1-Pin_1)*
G36*
X-3387241Y26218627D02*
G01*
X-2615572Y26145830D01*
X-2607659Y26141643D01*
X-2604973Y26134183D01*
X-2604973Y25554835D01*
X-2608400Y25546562D01*
X-2614856Y25543277D01*
X-3386518Y25421950D01*
X-3395223Y25424050D01*
X-3399893Y25431691D01*
X-3400035Y25433468D01*
X-3401000Y25819830D01*
X-3400033Y26207010D01*
X-3396585Y26215272D01*
X-3388304Y26218678D01*
X-3387241Y26218627D01*
G37*
G04 #@! TD.AperFunction*
G04 #@! TD*
M02*
