G04 #@! TF.GenerationSoftware,KiCad,Pcbnew,7.0.2*
G04 #@! TF.CreationDate,2023-08-25T12:46:11-04:00*
G04 #@! TF.ProjectId,Foras Promineo CLR PCB,466f7261-7320-4507-926f-6d696e656f20,rev?*
G04 #@! TF.SameCoordinates,PX3969440PY5f5e100*
G04 #@! TF.FileFunction,Legend,Top*
G04 #@! TF.FilePolarity,Positive*
%FSLAX46Y46*%
G04 Gerber Fmt 4.6, Leading zero omitted, Abs format (unit mm)*
G04 Created by KiCad (PCBNEW 7.0.2) date 2023-08-25 12:46:11*
%MOMM*%
%LPD*%
G01*
G04 APERTURE LIST*
%ADD10C,0.120000*%
%ADD11C,0.150000*%
G04 APERTURE END LIST*
D10*
X24795000Y34000000D02*
X38005000Y34000000D01*
X38005000Y30840000D01*
X24795000Y30840000D01*
X24795000Y34000000D01*
D11*
X20610714Y38668393D02*
X20360714Y38668393D01*
X20360714Y38275536D02*
X20360714Y39025536D01*
X20360714Y39025536D02*
X20717857Y39025536D01*
X21146428Y39025536D02*
X21289285Y39025536D01*
X21289285Y39025536D02*
X21360714Y38989822D01*
X21360714Y38989822D02*
X21432142Y38918393D01*
X21432142Y38918393D02*
X21467857Y38775536D01*
X21467857Y38775536D02*
X21467857Y38525536D01*
X21467857Y38525536D02*
X21432142Y38382679D01*
X21432142Y38382679D02*
X21360714Y38311250D01*
X21360714Y38311250D02*
X21289285Y38275536D01*
X21289285Y38275536D02*
X21146428Y38275536D01*
X21146428Y38275536D02*
X21075000Y38311250D01*
X21075000Y38311250D02*
X21003571Y38382679D01*
X21003571Y38382679D02*
X20967857Y38525536D01*
X20967857Y38525536D02*
X20967857Y38775536D01*
X20967857Y38775536D02*
X21003571Y38918393D01*
X21003571Y38918393D02*
X21075000Y38989822D01*
X21075000Y38989822D02*
X21146428Y39025536D01*
X22217856Y38275536D02*
X21967856Y38632679D01*
X21789285Y38275536D02*
X21789285Y39025536D01*
X21789285Y39025536D02*
X22074999Y39025536D01*
X22074999Y39025536D02*
X22146428Y38989822D01*
X22146428Y38989822D02*
X22182142Y38954108D01*
X22182142Y38954108D02*
X22217856Y38882679D01*
X22217856Y38882679D02*
X22217856Y38775536D01*
X22217856Y38775536D02*
X22182142Y38704108D01*
X22182142Y38704108D02*
X22146428Y38668393D01*
X22146428Y38668393D02*
X22074999Y38632679D01*
X22074999Y38632679D02*
X21789285Y38632679D01*
X22503571Y38489822D02*
X22860714Y38489822D01*
X22432142Y38275536D02*
X22682142Y39025536D01*
X22682142Y39025536D02*
X22932142Y38275536D01*
X23146428Y38311250D02*
X23253571Y38275536D01*
X23253571Y38275536D02*
X23432142Y38275536D01*
X23432142Y38275536D02*
X23503571Y38311250D01*
X23503571Y38311250D02*
X23539285Y38346965D01*
X23539285Y38346965D02*
X23574999Y38418393D01*
X23574999Y38418393D02*
X23574999Y38489822D01*
X23574999Y38489822D02*
X23539285Y38561250D01*
X23539285Y38561250D02*
X23503571Y38596965D01*
X23503571Y38596965D02*
X23432142Y38632679D01*
X23432142Y38632679D02*
X23289285Y38668393D01*
X23289285Y38668393D02*
X23217856Y38704108D01*
X23217856Y38704108D02*
X23182142Y38739822D01*
X23182142Y38739822D02*
X23146428Y38811250D01*
X23146428Y38811250D02*
X23146428Y38882679D01*
X23146428Y38882679D02*
X23182142Y38954108D01*
X23182142Y38954108D02*
X23217856Y38989822D01*
X23217856Y38989822D02*
X23289285Y39025536D01*
X23289285Y39025536D02*
X23467856Y39025536D01*
X23467856Y39025536D02*
X23574999Y38989822D01*
X24467857Y38275536D02*
X24467857Y39025536D01*
X24467857Y39025536D02*
X24753571Y39025536D01*
X24753571Y39025536D02*
X24825000Y38989822D01*
X24825000Y38989822D02*
X24860714Y38954108D01*
X24860714Y38954108D02*
X24896428Y38882679D01*
X24896428Y38882679D02*
X24896428Y38775536D01*
X24896428Y38775536D02*
X24860714Y38704108D01*
X24860714Y38704108D02*
X24825000Y38668393D01*
X24825000Y38668393D02*
X24753571Y38632679D01*
X24753571Y38632679D02*
X24467857Y38632679D01*
X25646428Y38275536D02*
X25396428Y38632679D01*
X25217857Y38275536D02*
X25217857Y39025536D01*
X25217857Y39025536D02*
X25503571Y39025536D01*
X25503571Y39025536D02*
X25575000Y38989822D01*
X25575000Y38989822D02*
X25610714Y38954108D01*
X25610714Y38954108D02*
X25646428Y38882679D01*
X25646428Y38882679D02*
X25646428Y38775536D01*
X25646428Y38775536D02*
X25610714Y38704108D01*
X25610714Y38704108D02*
X25575000Y38668393D01*
X25575000Y38668393D02*
X25503571Y38632679D01*
X25503571Y38632679D02*
X25217857Y38632679D01*
X26110714Y39025536D02*
X26253571Y39025536D01*
X26253571Y39025536D02*
X26325000Y38989822D01*
X26325000Y38989822D02*
X26396428Y38918393D01*
X26396428Y38918393D02*
X26432143Y38775536D01*
X26432143Y38775536D02*
X26432143Y38525536D01*
X26432143Y38525536D02*
X26396428Y38382679D01*
X26396428Y38382679D02*
X26325000Y38311250D01*
X26325000Y38311250D02*
X26253571Y38275536D01*
X26253571Y38275536D02*
X26110714Y38275536D01*
X26110714Y38275536D02*
X26039286Y38311250D01*
X26039286Y38311250D02*
X25967857Y38382679D01*
X25967857Y38382679D02*
X25932143Y38525536D01*
X25932143Y38525536D02*
X25932143Y38775536D01*
X25932143Y38775536D02*
X25967857Y38918393D01*
X25967857Y38918393D02*
X26039286Y38989822D01*
X26039286Y38989822D02*
X26110714Y39025536D01*
X26753571Y38275536D02*
X26753571Y39025536D01*
X26753571Y39025536D02*
X27003571Y38489822D01*
X27003571Y38489822D02*
X27253571Y39025536D01*
X27253571Y39025536D02*
X27253571Y38275536D01*
X27610714Y38275536D02*
X27610714Y39025536D01*
X27967857Y38275536D02*
X27967857Y39025536D01*
X27967857Y39025536D02*
X28396428Y38275536D01*
X28396428Y38275536D02*
X28396428Y39025536D01*
X28753571Y38668393D02*
X29003571Y38668393D01*
X29110714Y38275536D02*
X28753571Y38275536D01*
X28753571Y38275536D02*
X28753571Y39025536D01*
X28753571Y39025536D02*
X29110714Y39025536D01*
X29574999Y39025536D02*
X29717856Y39025536D01*
X29717856Y39025536D02*
X29789285Y38989822D01*
X29789285Y38989822D02*
X29860713Y38918393D01*
X29860713Y38918393D02*
X29896428Y38775536D01*
X29896428Y38775536D02*
X29896428Y38525536D01*
X29896428Y38525536D02*
X29860713Y38382679D01*
X29860713Y38382679D02*
X29789285Y38311250D01*
X29789285Y38311250D02*
X29717856Y38275536D01*
X29717856Y38275536D02*
X29574999Y38275536D01*
X29574999Y38275536D02*
X29503571Y38311250D01*
X29503571Y38311250D02*
X29432142Y38382679D01*
X29432142Y38382679D02*
X29396428Y38525536D01*
X29396428Y38525536D02*
X29396428Y38775536D01*
X29396428Y38775536D02*
X29432142Y38918393D01*
X29432142Y38918393D02*
X29503571Y38989822D01*
X29503571Y38989822D02*
X29574999Y39025536D01*
X30789285Y38561250D02*
X31360714Y38561250D01*
X32717856Y38346965D02*
X32682142Y38311250D01*
X32682142Y38311250D02*
X32574999Y38275536D01*
X32574999Y38275536D02*
X32503571Y38275536D01*
X32503571Y38275536D02*
X32396428Y38311250D01*
X32396428Y38311250D02*
X32324999Y38382679D01*
X32324999Y38382679D02*
X32289285Y38454108D01*
X32289285Y38454108D02*
X32253571Y38596965D01*
X32253571Y38596965D02*
X32253571Y38704108D01*
X32253571Y38704108D02*
X32289285Y38846965D01*
X32289285Y38846965D02*
X32324999Y38918393D01*
X32324999Y38918393D02*
X32396428Y38989822D01*
X32396428Y38989822D02*
X32503571Y39025536D01*
X32503571Y39025536D02*
X32574999Y39025536D01*
X32574999Y39025536D02*
X32682142Y38989822D01*
X32682142Y38989822D02*
X32717856Y38954108D01*
X33396428Y38275536D02*
X33039285Y38275536D01*
X33039285Y38275536D02*
X33039285Y39025536D01*
X34074999Y38275536D02*
X33824999Y38632679D01*
X33646428Y38275536D02*
X33646428Y39025536D01*
X33646428Y39025536D02*
X33932142Y39025536D01*
X33932142Y39025536D02*
X34003571Y38989822D01*
X34003571Y38989822D02*
X34039285Y38954108D01*
X34039285Y38954108D02*
X34074999Y38882679D01*
X34074999Y38882679D02*
X34074999Y38775536D01*
X34074999Y38775536D02*
X34039285Y38704108D01*
X34039285Y38704108D02*
X34003571Y38668393D01*
X34003571Y38668393D02*
X33932142Y38632679D01*
X33932142Y38632679D02*
X33646428Y38632679D01*
X24914285Y37060536D02*
X24664285Y37417679D01*
X24485714Y37060536D02*
X24485714Y37810536D01*
X24485714Y37810536D02*
X24771428Y37810536D01*
X24771428Y37810536D02*
X24842857Y37774822D01*
X24842857Y37774822D02*
X24878571Y37739108D01*
X24878571Y37739108D02*
X24914285Y37667679D01*
X24914285Y37667679D02*
X24914285Y37560536D01*
X24914285Y37560536D02*
X24878571Y37489108D01*
X24878571Y37489108D02*
X24842857Y37453393D01*
X24842857Y37453393D02*
X24771428Y37417679D01*
X24771428Y37417679D02*
X24485714Y37417679D01*
X25235714Y37453393D02*
X25485714Y37453393D01*
X25592857Y37060536D02*
X25235714Y37060536D01*
X25235714Y37060536D02*
X25235714Y37810536D01*
X25235714Y37810536D02*
X25592857Y37810536D01*
X25807142Y37810536D02*
X26057142Y37060536D01*
X26057142Y37060536D02*
X26307142Y37810536D01*
X26557142Y37131965D02*
X26592856Y37096250D01*
X26592856Y37096250D02*
X26557142Y37060536D01*
X26557142Y37060536D02*
X26521428Y37096250D01*
X26521428Y37096250D02*
X26557142Y37131965D01*
X26557142Y37131965D02*
X26557142Y37060536D01*
X26557142Y37524822D02*
X26592856Y37489108D01*
X26592856Y37489108D02*
X26557142Y37453393D01*
X26557142Y37453393D02*
X26521428Y37489108D01*
X26521428Y37489108D02*
X26557142Y37524822D01*
X26557142Y37524822D02*
X26557142Y37453393D01*
X27735714Y37453393D02*
X27485714Y37453393D01*
X27485714Y37060536D02*
X27485714Y37810536D01*
X27485714Y37810536D02*
X27842857Y37810536D01*
X28128571Y37060536D02*
X28128571Y37810536D01*
X28128571Y37810536D02*
X28378571Y37274822D01*
X28378571Y37274822D02*
X28628571Y37810536D01*
X28628571Y37810536D02*
X28628571Y37060536D01*
X29521429Y37739108D02*
X29557143Y37774822D01*
X29557143Y37774822D02*
X29628572Y37810536D01*
X29628572Y37810536D02*
X29807143Y37810536D01*
X29807143Y37810536D02*
X29878572Y37774822D01*
X29878572Y37774822D02*
X29914286Y37739108D01*
X29914286Y37739108D02*
X29950000Y37667679D01*
X29950000Y37667679D02*
X29950000Y37596250D01*
X29950000Y37596250D02*
X29914286Y37489108D01*
X29914286Y37489108D02*
X29485714Y37060536D01*
X29485714Y37060536D02*
X29950000Y37060536D01*
X25824999Y35916965D02*
X25789285Y35881250D01*
X25789285Y35881250D02*
X25682142Y35845536D01*
X25682142Y35845536D02*
X25610714Y35845536D01*
X25610714Y35845536D02*
X25503571Y35881250D01*
X25503571Y35881250D02*
X25432142Y35952679D01*
X25432142Y35952679D02*
X25396428Y36024108D01*
X25396428Y36024108D02*
X25360714Y36166965D01*
X25360714Y36166965D02*
X25360714Y36274108D01*
X25360714Y36274108D02*
X25396428Y36416965D01*
X25396428Y36416965D02*
X25432142Y36488393D01*
X25432142Y36488393D02*
X25503571Y36559822D01*
X25503571Y36559822D02*
X25610714Y36595536D01*
X25610714Y36595536D02*
X25682142Y36595536D01*
X25682142Y36595536D02*
X25789285Y36559822D01*
X25789285Y36559822D02*
X25824999Y36524108D01*
X26146428Y35845536D02*
X26146428Y36595536D01*
X26574999Y35845536D02*
X26253571Y36274108D01*
X26574999Y36595536D02*
X26146428Y36166965D01*
X26932142Y35881250D02*
X26932142Y35845536D01*
X26932142Y35845536D02*
X26896428Y35774108D01*
X26896428Y35774108D02*
X26860714Y35738393D01*
X27825000Y35845536D02*
X27825000Y36595536D01*
X27825000Y36595536D02*
X28253571Y35845536D01*
X28253571Y35845536D02*
X28253571Y36595536D01*
X28860714Y36238393D02*
X28967857Y36202679D01*
X28967857Y36202679D02*
X29003571Y36166965D01*
X29003571Y36166965D02*
X29039285Y36095536D01*
X29039285Y36095536D02*
X29039285Y35988393D01*
X29039285Y35988393D02*
X29003571Y35916965D01*
X29003571Y35916965D02*
X28967857Y35881250D01*
X28967857Y35881250D02*
X28896428Y35845536D01*
X28896428Y35845536D02*
X28610714Y35845536D01*
X28610714Y35845536D02*
X28610714Y36595536D01*
X28610714Y36595536D02*
X28860714Y36595536D01*
X28860714Y36595536D02*
X28932143Y36559822D01*
X28932143Y36559822D02*
X28967857Y36524108D01*
X28967857Y36524108D02*
X29003571Y36452679D01*
X29003571Y36452679D02*
X29003571Y36381250D01*
X29003571Y36381250D02*
X28967857Y36309822D01*
X28967857Y36309822D02*
X28932143Y36274108D01*
X28932143Y36274108D02*
X28860714Y36238393D01*
X28860714Y36238393D02*
X28610714Y36238393D01*
X24985713Y35380536D02*
X25057142Y35380536D01*
X25057142Y35380536D02*
X25128570Y35344822D01*
X25128570Y35344822D02*
X25164285Y35309108D01*
X25164285Y35309108D02*
X25199999Y35237679D01*
X25199999Y35237679D02*
X25235713Y35094822D01*
X25235713Y35094822D02*
X25235713Y34916250D01*
X25235713Y34916250D02*
X25199999Y34773393D01*
X25199999Y34773393D02*
X25164285Y34701965D01*
X25164285Y34701965D02*
X25128570Y34666250D01*
X25128570Y34666250D02*
X25057142Y34630536D01*
X25057142Y34630536D02*
X24985713Y34630536D01*
X24985713Y34630536D02*
X24914285Y34666250D01*
X24914285Y34666250D02*
X24878570Y34701965D01*
X24878570Y34701965D02*
X24842856Y34773393D01*
X24842856Y34773393D02*
X24807142Y34916250D01*
X24807142Y34916250D02*
X24807142Y35094822D01*
X24807142Y35094822D02*
X24842856Y35237679D01*
X24842856Y35237679D02*
X24878570Y35309108D01*
X24878570Y35309108D02*
X24914285Y35344822D01*
X24914285Y35344822D02*
X24985713Y35380536D01*
X25664285Y35059108D02*
X25592856Y35094822D01*
X25592856Y35094822D02*
X25557142Y35130536D01*
X25557142Y35130536D02*
X25521428Y35201965D01*
X25521428Y35201965D02*
X25521428Y35237679D01*
X25521428Y35237679D02*
X25557142Y35309108D01*
X25557142Y35309108D02*
X25592856Y35344822D01*
X25592856Y35344822D02*
X25664285Y35380536D01*
X25664285Y35380536D02*
X25807142Y35380536D01*
X25807142Y35380536D02*
X25878571Y35344822D01*
X25878571Y35344822D02*
X25914285Y35309108D01*
X25914285Y35309108D02*
X25949999Y35237679D01*
X25949999Y35237679D02*
X25949999Y35201965D01*
X25949999Y35201965D02*
X25914285Y35130536D01*
X25914285Y35130536D02*
X25878571Y35094822D01*
X25878571Y35094822D02*
X25807142Y35059108D01*
X25807142Y35059108D02*
X25664285Y35059108D01*
X25664285Y35059108D02*
X25592856Y35023393D01*
X25592856Y35023393D02*
X25557142Y34987679D01*
X25557142Y34987679D02*
X25521428Y34916250D01*
X25521428Y34916250D02*
X25521428Y34773393D01*
X25521428Y34773393D02*
X25557142Y34701965D01*
X25557142Y34701965D02*
X25592856Y34666250D01*
X25592856Y34666250D02*
X25664285Y34630536D01*
X25664285Y34630536D02*
X25807142Y34630536D01*
X25807142Y34630536D02*
X25878571Y34666250D01*
X25878571Y34666250D02*
X25914285Y34701965D01*
X25914285Y34701965D02*
X25949999Y34773393D01*
X25949999Y34773393D02*
X25949999Y34916250D01*
X25949999Y34916250D02*
X25914285Y34987679D01*
X25914285Y34987679D02*
X25878571Y35023393D01*
X25878571Y35023393D02*
X25807142Y35059108D01*
X26807142Y35416250D02*
X26164285Y34451965D01*
X27021428Y35309108D02*
X27057142Y35344822D01*
X27057142Y35344822D02*
X27128571Y35380536D01*
X27128571Y35380536D02*
X27307142Y35380536D01*
X27307142Y35380536D02*
X27378571Y35344822D01*
X27378571Y35344822D02*
X27414285Y35309108D01*
X27414285Y35309108D02*
X27449999Y35237679D01*
X27449999Y35237679D02*
X27449999Y35166250D01*
X27449999Y35166250D02*
X27414285Y35059108D01*
X27414285Y35059108D02*
X26985713Y34630536D01*
X26985713Y34630536D02*
X27449999Y34630536D01*
X27914285Y35380536D02*
X27985714Y35380536D01*
X27985714Y35380536D02*
X28057142Y35344822D01*
X28057142Y35344822D02*
X28092857Y35309108D01*
X28092857Y35309108D02*
X28128571Y35237679D01*
X28128571Y35237679D02*
X28164285Y35094822D01*
X28164285Y35094822D02*
X28164285Y34916250D01*
X28164285Y34916250D02*
X28128571Y34773393D01*
X28128571Y34773393D02*
X28092857Y34701965D01*
X28092857Y34701965D02*
X28057142Y34666250D01*
X28057142Y34666250D02*
X27985714Y34630536D01*
X27985714Y34630536D02*
X27914285Y34630536D01*
X27914285Y34630536D02*
X27842857Y34666250D01*
X27842857Y34666250D02*
X27807142Y34701965D01*
X27807142Y34701965D02*
X27771428Y34773393D01*
X27771428Y34773393D02*
X27735714Y34916250D01*
X27735714Y34916250D02*
X27735714Y35094822D01*
X27735714Y35094822D02*
X27771428Y35237679D01*
X27771428Y35237679D02*
X27807142Y35309108D01*
X27807142Y35309108D02*
X27842857Y35344822D01*
X27842857Y35344822D02*
X27914285Y35380536D01*
X28450000Y35309108D02*
X28485714Y35344822D01*
X28485714Y35344822D02*
X28557143Y35380536D01*
X28557143Y35380536D02*
X28735714Y35380536D01*
X28735714Y35380536D02*
X28807143Y35344822D01*
X28807143Y35344822D02*
X28842857Y35309108D01*
X28842857Y35309108D02*
X28878571Y35237679D01*
X28878571Y35237679D02*
X28878571Y35166250D01*
X28878571Y35166250D02*
X28842857Y35059108D01*
X28842857Y35059108D02*
X28414285Y34630536D01*
X28414285Y34630536D02*
X28878571Y34630536D01*
X29128571Y35380536D02*
X29592857Y35380536D01*
X29592857Y35380536D02*
X29342857Y35094822D01*
X29342857Y35094822D02*
X29450000Y35094822D01*
X29450000Y35094822D02*
X29521429Y35059108D01*
X29521429Y35059108D02*
X29557143Y35023393D01*
X29557143Y35023393D02*
X29592857Y34951965D01*
X29592857Y34951965D02*
X29592857Y34773393D01*
X29592857Y34773393D02*
X29557143Y34701965D01*
X29557143Y34701965D02*
X29521429Y34666250D01*
X29521429Y34666250D02*
X29450000Y34630536D01*
X29450000Y34630536D02*
X29235714Y34630536D01*
X29235714Y34630536D02*
X29164286Y34666250D01*
X29164286Y34666250D02*
X29128571Y34701965D01*
X25499286Y31958750D02*
X25606429Y31923036D01*
X25606429Y31923036D02*
X25785000Y31923036D01*
X25785000Y31923036D02*
X25856429Y31958750D01*
X25856429Y31958750D02*
X25892143Y31994465D01*
X25892143Y31994465D02*
X25927857Y32065893D01*
X25927857Y32065893D02*
X25927857Y32137322D01*
X25927857Y32137322D02*
X25892143Y32208750D01*
X25892143Y32208750D02*
X25856429Y32244465D01*
X25856429Y32244465D02*
X25785000Y32280179D01*
X25785000Y32280179D02*
X25642143Y32315893D01*
X25642143Y32315893D02*
X25570714Y32351608D01*
X25570714Y32351608D02*
X25535000Y32387322D01*
X25535000Y32387322D02*
X25499286Y32458750D01*
X25499286Y32458750D02*
X25499286Y32530179D01*
X25499286Y32530179D02*
X25535000Y32601608D01*
X25535000Y32601608D02*
X25570714Y32637322D01*
X25570714Y32637322D02*
X25642143Y32673036D01*
X25642143Y32673036D02*
X25820714Y32673036D01*
X25820714Y32673036D02*
X25927857Y32637322D01*
X26249286Y31923036D02*
X26249286Y32673036D01*
X26249286Y32673036D02*
X26677857Y31923036D01*
X26677857Y31923036D02*
X26677857Y32673036D01*
X27035000Y31994465D02*
X27070714Y31958750D01*
X27070714Y31958750D02*
X27035000Y31923036D01*
X27035000Y31923036D02*
X26999286Y31958750D01*
X26999286Y31958750D02*
X27035000Y31994465D01*
X27035000Y31994465D02*
X27035000Y31923036D01*
X27035000Y32387322D02*
X27070714Y32351608D01*
X27070714Y32351608D02*
X27035000Y32315893D01*
X27035000Y32315893D02*
X26999286Y32351608D01*
X26999286Y32351608D02*
X27035000Y32387322D01*
X27035000Y32387322D02*
X27035000Y32315893D01*
G04 #@! TO.C,D2*
X34315775Y14039741D02*
X34142127Y15024549D01*
X34142127Y15024549D02*
X34376605Y15065893D01*
X34376605Y15065893D02*
X34525561Y15043805D01*
X34525561Y15043805D02*
X34635890Y14966551D01*
X34635890Y14966551D02*
X34699323Y14881029D01*
X34699323Y14881029D02*
X34779295Y14701716D01*
X34779295Y14701716D02*
X34804102Y14561029D01*
X34804102Y14561029D02*
X34790282Y14365177D01*
X34790282Y14365177D02*
X34759924Y14263117D01*
X34759924Y14263117D02*
X34682671Y14152788D01*
X34682671Y14152788D02*
X34550253Y14081086D01*
X34550253Y14081086D02*
X34315775Y14039741D01*
X35096577Y15096137D02*
X35135204Y15151301D01*
X35135204Y15151301D02*
X35220726Y15214735D01*
X35220726Y15214735D02*
X35455204Y15256080D01*
X35455204Y15256080D02*
X35557264Y15225722D01*
X35557264Y15225722D02*
X35612429Y15187095D01*
X35612429Y15187095D02*
X35675862Y15101573D01*
X35675862Y15101573D02*
X35692400Y15007782D01*
X35692400Y15007782D02*
X35670311Y14858826D01*
X35670311Y14858826D02*
X35206792Y14196851D01*
X35206792Y14196851D02*
X35816434Y14304348D01*
G04 #@! TO.C,D3*
X26167533Y574468D02*
X25460426Y1281574D01*
X25460426Y1281574D02*
X25628785Y1449933D01*
X25628785Y1449933D02*
X25763472Y1517277D01*
X25763472Y1517277D02*
X25898159Y1517277D01*
X25898159Y1517277D02*
X25999174Y1483605D01*
X25999174Y1483605D02*
X26167533Y1382590D01*
X26167533Y1382590D02*
X26268548Y1281574D01*
X26268548Y1281574D02*
X26369563Y1113216D01*
X26369563Y1113216D02*
X26403235Y1012200D01*
X26403235Y1012200D02*
X26403235Y877513D01*
X26403235Y877513D02*
X26335892Y742826D01*
X26335892Y742826D02*
X26167533Y574468D01*
X26100189Y1921338D02*
X26537922Y2359070D01*
X26537922Y2359070D02*
X26571594Y1853994D01*
X26571594Y1853994D02*
X26672609Y1955009D01*
X26672609Y1955009D02*
X26773624Y1988681D01*
X26773624Y1988681D02*
X26840968Y1988681D01*
X26840968Y1988681D02*
X26941983Y1955009D01*
X26941983Y1955009D02*
X27110342Y1786651D01*
X27110342Y1786651D02*
X27144014Y1685635D01*
X27144014Y1685635D02*
X27144014Y1618292D01*
X27144014Y1618292D02*
X27110342Y1517277D01*
X27110342Y1517277D02*
X26908311Y1315246D01*
X26908311Y1315246D02*
X26807296Y1281574D01*
X26807296Y1281574D02*
X26739953Y1281574D01*
G04 #@! TO.C,D1*
X29406933Y20553552D02*
X28533526Y21040543D01*
X28533526Y21040543D02*
X28649476Y21248497D01*
X28649476Y21248497D02*
X28760637Y21350079D01*
X28760637Y21350079D02*
X28890199Y21386881D01*
X28890199Y21386881D02*
X28996570Y21382092D01*
X28996570Y21382092D02*
X29186124Y21330922D01*
X29186124Y21330922D02*
X29310896Y21261352D01*
X29310896Y21261352D02*
X29454069Y21127001D01*
X29454069Y21127001D02*
X29514061Y21039030D01*
X29514061Y21039030D02*
X29550862Y20909469D01*
X29550862Y20909469D02*
X29522883Y20761506D01*
X29522883Y20761506D02*
X29406933Y20553552D01*
X30149014Y21884458D02*
X29870734Y21385368D01*
X30009874Y21634913D02*
X29136467Y22121904D01*
X29136467Y22121904D02*
X29214859Y21969152D01*
X29214859Y21969152D02*
X29251661Y21839591D01*
X29251661Y21839591D02*
X29246872Y21733219D01*
G04 #@! TO.C,D5*
X4889746Y13016286D02*
X3904938Y13189934D01*
X3904938Y13189934D02*
X3946283Y13424412D01*
X3946283Y13424412D02*
X4017985Y13556830D01*
X4017985Y13556830D02*
X4128314Y13634083D01*
X4128314Y13634083D02*
X4230374Y13664441D01*
X4230374Y13664441D02*
X4426226Y13678261D01*
X4426226Y13678261D02*
X4566913Y13653454D01*
X4566913Y13653454D02*
X4746226Y13573483D01*
X4746226Y13573483D02*
X4831748Y13510049D01*
X4831748Y13510049D02*
X4909002Y13399720D01*
X4909002Y13399720D02*
X4931090Y13250764D01*
X4931090Y13250764D02*
X4889746Y13016286D01*
X4161276Y14643698D02*
X4078586Y14174742D01*
X4078586Y14174742D02*
X4539273Y14045157D01*
X4539273Y14045157D02*
X4500646Y14100321D01*
X4500646Y14100321D02*
X4470289Y14202382D01*
X4470289Y14202382D02*
X4511634Y14436860D01*
X4511634Y14436860D02*
X4575067Y14522382D01*
X4575067Y14522382D02*
X4630232Y14561008D01*
X4630232Y14561008D02*
X4732292Y14591366D01*
X4732292Y14591366D02*
X4966770Y14550021D01*
X4966770Y14550021D02*
X5052292Y14486588D01*
X5052292Y14486588D02*
X5090919Y14431423D01*
X5090919Y14431423D02*
X5121276Y14329363D01*
X5121276Y14329363D02*
X5079932Y14094885D01*
X5079932Y14094885D02*
X5016498Y14009363D01*
X5016498Y14009363D02*
X4961334Y13970736D01*
G04 #@! TO.C,D6*
X9954424Y20153813D02*
X9454424Y21019839D01*
X9454424Y21019839D02*
X9660621Y21138886D01*
X9660621Y21138886D02*
X9808148Y21169076D01*
X9808148Y21169076D02*
X9938246Y21134216D01*
X9938246Y21134216D02*
X10027104Y21075547D01*
X10027104Y21075547D02*
X10163582Y20934399D01*
X10163582Y20934399D02*
X10235010Y20810681D01*
X10235010Y20810681D02*
X10289009Y20621915D01*
X10289009Y20621915D02*
X10295389Y20515626D01*
X10295389Y20515626D02*
X10260529Y20385529D01*
X10260529Y20385529D02*
X10160621Y20272861D01*
X10160621Y20272861D02*
X9954424Y20153813D01*
X10691603Y21734124D02*
X10526646Y21638886D01*
X10526646Y21638886D02*
X10467977Y21550028D01*
X10467977Y21550028D02*
X10450547Y21484979D01*
X10450547Y21484979D02*
X10439497Y21313642D01*
X10439497Y21313642D02*
X10493496Y21124875D01*
X10493496Y21124875D02*
X10683972Y20794961D01*
X10683972Y20794961D02*
X10772831Y20736292D01*
X10772831Y20736292D02*
X10837879Y20718862D01*
X10837879Y20718862D02*
X10944168Y20725242D01*
X10944168Y20725242D02*
X11109125Y20820480D01*
X11109125Y20820480D02*
X11167794Y20909338D01*
X11167794Y20909338D02*
X11185224Y20974387D01*
X11185224Y20974387D02*
X11178844Y21080675D01*
X11178844Y21080675D02*
X11059796Y21286872D01*
X11059796Y21286872D02*
X10970938Y21345541D01*
X10970938Y21345541D02*
X10905889Y21362971D01*
X10905889Y21362971D02*
X10799601Y21356591D01*
X10799601Y21356591D02*
X10634644Y21261353D01*
X10634644Y21261353D02*
X10575975Y21172494D01*
X10575975Y21172494D02*
X10558545Y21107446D01*
X10558545Y21107446D02*
X10564925Y21001157D01*
G04 #@! TO.C,D4*
X8644209Y5109968D02*
X7937102Y5817074D01*
X7937102Y5817074D02*
X8105461Y5985433D01*
X8105461Y5985433D02*
X8240148Y6052777D01*
X8240148Y6052777D02*
X8374835Y6052777D01*
X8374835Y6052777D02*
X8475850Y6019105D01*
X8475850Y6019105D02*
X8644209Y5918090D01*
X8644209Y5918090D02*
X8745224Y5817074D01*
X8745224Y5817074D02*
X8846239Y5648716D01*
X8846239Y5648716D02*
X8879911Y5547700D01*
X8879911Y5547700D02*
X8879911Y5413013D01*
X8879911Y5413013D02*
X8812568Y5278326D01*
X8812568Y5278326D02*
X8644209Y5109968D01*
X9182957Y6591525D02*
X9654361Y6120120D01*
X8745224Y6692540D02*
X9081942Y6019105D01*
X9081942Y6019105D02*
X9519674Y6456838D01*
G04 #@! TO.C,C1*
X1817380Y10523504D02*
X1865000Y10475885D01*
X1865000Y10475885D02*
X1912619Y10333028D01*
X1912619Y10333028D02*
X1912619Y10237790D01*
X1912619Y10237790D02*
X1865000Y10094933D01*
X1865000Y10094933D02*
X1769761Y9999695D01*
X1769761Y9999695D02*
X1674523Y9952076D01*
X1674523Y9952076D02*
X1484047Y9904457D01*
X1484047Y9904457D02*
X1341190Y9904457D01*
X1341190Y9904457D02*
X1150714Y9952076D01*
X1150714Y9952076D02*
X1055476Y9999695D01*
X1055476Y9999695D02*
X960238Y10094933D01*
X960238Y10094933D02*
X912619Y10237790D01*
X912619Y10237790D02*
X912619Y10333028D01*
X912619Y10333028D02*
X960238Y10475885D01*
X960238Y10475885D02*
X1007857Y10523504D01*
X1912619Y11475885D02*
X1912619Y10904457D01*
X1912619Y11190171D02*
X912619Y11190171D01*
X912619Y11190171D02*
X1055476Y11094933D01*
X1055476Y11094933D02*
X1150714Y10999695D01*
X1150714Y10999695D02*
X1198333Y10904457D01*
G04 #@! TO.C,C2*
X35732380Y10778504D02*
X35780000Y10730885D01*
X35780000Y10730885D02*
X35827619Y10588028D01*
X35827619Y10588028D02*
X35827619Y10492790D01*
X35827619Y10492790D02*
X35780000Y10349933D01*
X35780000Y10349933D02*
X35684761Y10254695D01*
X35684761Y10254695D02*
X35589523Y10207076D01*
X35589523Y10207076D02*
X35399047Y10159457D01*
X35399047Y10159457D02*
X35256190Y10159457D01*
X35256190Y10159457D02*
X35065714Y10207076D01*
X35065714Y10207076D02*
X34970476Y10254695D01*
X34970476Y10254695D02*
X34875238Y10349933D01*
X34875238Y10349933D02*
X34827619Y10492790D01*
X34827619Y10492790D02*
X34827619Y10588028D01*
X34827619Y10588028D02*
X34875238Y10730885D01*
X34875238Y10730885D02*
X34922857Y10778504D01*
X34922857Y11159457D02*
X34875238Y11207076D01*
X34875238Y11207076D02*
X34827619Y11302314D01*
X34827619Y11302314D02*
X34827619Y11540409D01*
X34827619Y11540409D02*
X34875238Y11635647D01*
X34875238Y11635647D02*
X34922857Y11683266D01*
X34922857Y11683266D02*
X35018095Y11730885D01*
X35018095Y11730885D02*
X35113333Y11730885D01*
X35113333Y11730885D02*
X35256190Y11683266D01*
X35256190Y11683266D02*
X35827619Y11111838D01*
X35827619Y11111838D02*
X35827619Y11730885D01*
G04 #@! TO.C,R2*
X23462619Y28433334D02*
X22986428Y28100001D01*
X23462619Y27861906D02*
X22462619Y27861906D01*
X22462619Y27861906D02*
X22462619Y28242858D01*
X22462619Y28242858D02*
X22510238Y28338096D01*
X22510238Y28338096D02*
X22557857Y28385715D01*
X22557857Y28385715D02*
X22653095Y28433334D01*
X22653095Y28433334D02*
X22795952Y28433334D01*
X22795952Y28433334D02*
X22891190Y28385715D01*
X22891190Y28385715D02*
X22938809Y28338096D01*
X22938809Y28338096D02*
X22986428Y28242858D01*
X22986428Y28242858D02*
X22986428Y27861906D01*
X22557857Y28814287D02*
X22510238Y28861906D01*
X22510238Y28861906D02*
X22462619Y28957144D01*
X22462619Y28957144D02*
X22462619Y29195239D01*
X22462619Y29195239D02*
X22510238Y29290477D01*
X22510238Y29290477D02*
X22557857Y29338096D01*
X22557857Y29338096D02*
X22653095Y29385715D01*
X22653095Y29385715D02*
X22748333Y29385715D01*
X22748333Y29385715D02*
X22891190Y29338096D01*
X22891190Y29338096D02*
X23462619Y28766668D01*
X23462619Y28766668D02*
X23462619Y29385715D01*
G04 #@! TO.C,R4*
X26833333Y25337381D02*
X26500000Y25813572D01*
X26261905Y25337381D02*
X26261905Y26337381D01*
X26261905Y26337381D02*
X26642857Y26337381D01*
X26642857Y26337381D02*
X26738095Y26289762D01*
X26738095Y26289762D02*
X26785714Y26242143D01*
X26785714Y26242143D02*
X26833333Y26146905D01*
X26833333Y26146905D02*
X26833333Y26004048D01*
X26833333Y26004048D02*
X26785714Y25908810D01*
X26785714Y25908810D02*
X26738095Y25861191D01*
X26738095Y25861191D02*
X26642857Y25813572D01*
X26642857Y25813572D02*
X26261905Y25813572D01*
X27690476Y26004048D02*
X27690476Y25337381D01*
X27452381Y26385000D02*
X27214286Y25670715D01*
X27214286Y25670715D02*
X27833333Y25670715D01*
G04 #@! TO.C,R6*
X31462619Y28633334D02*
X30986428Y28300001D01*
X31462619Y28061906D02*
X30462619Y28061906D01*
X30462619Y28061906D02*
X30462619Y28442858D01*
X30462619Y28442858D02*
X30510238Y28538096D01*
X30510238Y28538096D02*
X30557857Y28585715D01*
X30557857Y28585715D02*
X30653095Y28633334D01*
X30653095Y28633334D02*
X30795952Y28633334D01*
X30795952Y28633334D02*
X30891190Y28585715D01*
X30891190Y28585715D02*
X30938809Y28538096D01*
X30938809Y28538096D02*
X30986428Y28442858D01*
X30986428Y28442858D02*
X30986428Y28061906D01*
X30462619Y29490477D02*
X30462619Y29300001D01*
X30462619Y29300001D02*
X30510238Y29204763D01*
X30510238Y29204763D02*
X30557857Y29157144D01*
X30557857Y29157144D02*
X30700714Y29061906D01*
X30700714Y29061906D02*
X30891190Y29014287D01*
X30891190Y29014287D02*
X31272142Y29014287D01*
X31272142Y29014287D02*
X31367380Y29061906D01*
X31367380Y29061906D02*
X31415000Y29109525D01*
X31415000Y29109525D02*
X31462619Y29204763D01*
X31462619Y29204763D02*
X31462619Y29395239D01*
X31462619Y29395239D02*
X31415000Y29490477D01*
X31415000Y29490477D02*
X31367380Y29538096D01*
X31367380Y29538096D02*
X31272142Y29585715D01*
X31272142Y29585715D02*
X31034047Y29585715D01*
X31034047Y29585715D02*
X30938809Y29538096D01*
X30938809Y29538096D02*
X30891190Y29490477D01*
X30891190Y29490477D02*
X30843571Y29395239D01*
X30843571Y29395239D02*
X30843571Y29204763D01*
X30843571Y29204763D02*
X30891190Y29109525D01*
X30891190Y29109525D02*
X30938809Y29061906D01*
X30938809Y29061906D02*
X31034047Y29014287D01*
G04 #@! TO.C,R8*
X8462619Y28233334D02*
X7986428Y27900001D01*
X8462619Y27661906D02*
X7462619Y27661906D01*
X7462619Y27661906D02*
X7462619Y28042858D01*
X7462619Y28042858D02*
X7510238Y28138096D01*
X7510238Y28138096D02*
X7557857Y28185715D01*
X7557857Y28185715D02*
X7653095Y28233334D01*
X7653095Y28233334D02*
X7795952Y28233334D01*
X7795952Y28233334D02*
X7891190Y28185715D01*
X7891190Y28185715D02*
X7938809Y28138096D01*
X7938809Y28138096D02*
X7986428Y28042858D01*
X7986428Y28042858D02*
X7986428Y27661906D01*
X7891190Y28804763D02*
X7843571Y28709525D01*
X7843571Y28709525D02*
X7795952Y28661906D01*
X7795952Y28661906D02*
X7700714Y28614287D01*
X7700714Y28614287D02*
X7653095Y28614287D01*
X7653095Y28614287D02*
X7557857Y28661906D01*
X7557857Y28661906D02*
X7510238Y28709525D01*
X7510238Y28709525D02*
X7462619Y28804763D01*
X7462619Y28804763D02*
X7462619Y28995239D01*
X7462619Y28995239D02*
X7510238Y29090477D01*
X7510238Y29090477D02*
X7557857Y29138096D01*
X7557857Y29138096D02*
X7653095Y29185715D01*
X7653095Y29185715D02*
X7700714Y29185715D01*
X7700714Y29185715D02*
X7795952Y29138096D01*
X7795952Y29138096D02*
X7843571Y29090477D01*
X7843571Y29090477D02*
X7891190Y28995239D01*
X7891190Y28995239D02*
X7891190Y28804763D01*
X7891190Y28804763D02*
X7938809Y28709525D01*
X7938809Y28709525D02*
X7986428Y28661906D01*
X7986428Y28661906D02*
X8081666Y28614287D01*
X8081666Y28614287D02*
X8272142Y28614287D01*
X8272142Y28614287D02*
X8367380Y28661906D01*
X8367380Y28661906D02*
X8415000Y28709525D01*
X8415000Y28709525D02*
X8462619Y28804763D01*
X8462619Y28804763D02*
X8462619Y28995239D01*
X8462619Y28995239D02*
X8415000Y29090477D01*
X8415000Y29090477D02*
X8367380Y29138096D01*
X8367380Y29138096D02*
X8272142Y29185715D01*
X8272142Y29185715D02*
X8081666Y29185715D01*
X8081666Y29185715D02*
X7986428Y29138096D01*
X7986428Y29138096D02*
X7938809Y29090477D01*
X7938809Y29090477D02*
X7891190Y28995239D01*
G04 #@! TO.C,R10*
X11157142Y25137381D02*
X10823809Y25613572D01*
X10585714Y25137381D02*
X10585714Y26137381D01*
X10585714Y26137381D02*
X10966666Y26137381D01*
X10966666Y26137381D02*
X11061904Y26089762D01*
X11061904Y26089762D02*
X11109523Y26042143D01*
X11109523Y26042143D02*
X11157142Y25946905D01*
X11157142Y25946905D02*
X11157142Y25804048D01*
X11157142Y25804048D02*
X11109523Y25708810D01*
X11109523Y25708810D02*
X11061904Y25661191D01*
X11061904Y25661191D02*
X10966666Y25613572D01*
X10966666Y25613572D02*
X10585714Y25613572D01*
X12109523Y25137381D02*
X11538095Y25137381D01*
X11823809Y25137381D02*
X11823809Y26137381D01*
X11823809Y26137381D02*
X11728571Y25994524D01*
X11728571Y25994524D02*
X11633333Y25899286D01*
X11633333Y25899286D02*
X11538095Y25851667D01*
X12728571Y26137381D02*
X12823809Y26137381D01*
X12823809Y26137381D02*
X12919047Y26089762D01*
X12919047Y26089762D02*
X12966666Y26042143D01*
X12966666Y26042143D02*
X13014285Y25946905D01*
X13014285Y25946905D02*
X13061904Y25756429D01*
X13061904Y25756429D02*
X13061904Y25518334D01*
X13061904Y25518334D02*
X13014285Y25327858D01*
X13014285Y25327858D02*
X12966666Y25232620D01*
X12966666Y25232620D02*
X12919047Y25185000D01*
X12919047Y25185000D02*
X12823809Y25137381D01*
X12823809Y25137381D02*
X12728571Y25137381D01*
X12728571Y25137381D02*
X12633333Y25185000D01*
X12633333Y25185000D02*
X12585714Y25232620D01*
X12585714Y25232620D02*
X12538095Y25327858D01*
X12538095Y25327858D02*
X12490476Y25518334D01*
X12490476Y25518334D02*
X12490476Y25756429D01*
X12490476Y25756429D02*
X12538095Y25946905D01*
X12538095Y25946905D02*
X12585714Y26042143D01*
X12585714Y26042143D02*
X12633333Y26089762D01*
X12633333Y26089762D02*
X12728571Y26137381D01*
G04 #@! TO.C,R12*
X16062619Y27757143D02*
X15586428Y27423810D01*
X16062619Y27185715D02*
X15062619Y27185715D01*
X15062619Y27185715D02*
X15062619Y27566667D01*
X15062619Y27566667D02*
X15110238Y27661905D01*
X15110238Y27661905D02*
X15157857Y27709524D01*
X15157857Y27709524D02*
X15253095Y27757143D01*
X15253095Y27757143D02*
X15395952Y27757143D01*
X15395952Y27757143D02*
X15491190Y27709524D01*
X15491190Y27709524D02*
X15538809Y27661905D01*
X15538809Y27661905D02*
X15586428Y27566667D01*
X15586428Y27566667D02*
X15586428Y27185715D01*
X16062619Y28709524D02*
X16062619Y28138096D01*
X16062619Y28423810D02*
X15062619Y28423810D01*
X15062619Y28423810D02*
X15205476Y28328572D01*
X15205476Y28328572D02*
X15300714Y28233334D01*
X15300714Y28233334D02*
X15348333Y28138096D01*
X15157857Y29090477D02*
X15110238Y29138096D01*
X15110238Y29138096D02*
X15062619Y29233334D01*
X15062619Y29233334D02*
X15062619Y29471429D01*
X15062619Y29471429D02*
X15110238Y29566667D01*
X15110238Y29566667D02*
X15157857Y29614286D01*
X15157857Y29614286D02*
X15253095Y29661905D01*
X15253095Y29661905D02*
X15348333Y29661905D01*
X15348333Y29661905D02*
X15491190Y29614286D01*
X15491190Y29614286D02*
X16062619Y29042858D01*
X16062619Y29042858D02*
X16062619Y29661905D01*
G04 #@! TO.C,C5*
X11567380Y36633334D02*
X11615000Y36585715D01*
X11615000Y36585715D02*
X11662619Y36442858D01*
X11662619Y36442858D02*
X11662619Y36347620D01*
X11662619Y36347620D02*
X11615000Y36204763D01*
X11615000Y36204763D02*
X11519761Y36109525D01*
X11519761Y36109525D02*
X11424523Y36061906D01*
X11424523Y36061906D02*
X11234047Y36014287D01*
X11234047Y36014287D02*
X11091190Y36014287D01*
X11091190Y36014287D02*
X10900714Y36061906D01*
X10900714Y36061906D02*
X10805476Y36109525D01*
X10805476Y36109525D02*
X10710238Y36204763D01*
X10710238Y36204763D02*
X10662619Y36347620D01*
X10662619Y36347620D02*
X10662619Y36442858D01*
X10662619Y36442858D02*
X10710238Y36585715D01*
X10710238Y36585715D02*
X10757857Y36633334D01*
X10662619Y37538096D02*
X10662619Y37061906D01*
X10662619Y37061906D02*
X11138809Y37014287D01*
X11138809Y37014287D02*
X11091190Y37061906D01*
X11091190Y37061906D02*
X11043571Y37157144D01*
X11043571Y37157144D02*
X11043571Y37395239D01*
X11043571Y37395239D02*
X11091190Y37490477D01*
X11091190Y37490477D02*
X11138809Y37538096D01*
X11138809Y37538096D02*
X11234047Y37585715D01*
X11234047Y37585715D02*
X11472142Y37585715D01*
X11472142Y37585715D02*
X11567380Y37538096D01*
X11567380Y37538096D02*
X11615000Y37490477D01*
X11615000Y37490477D02*
X11662619Y37395239D01*
X11662619Y37395239D02*
X11662619Y37157144D01*
X11662619Y37157144D02*
X11615000Y37061906D01*
X11615000Y37061906D02*
X11567380Y37014287D01*
G04 #@! TO.C,C6*
X13667380Y36633334D02*
X13715000Y36585715D01*
X13715000Y36585715D02*
X13762619Y36442858D01*
X13762619Y36442858D02*
X13762619Y36347620D01*
X13762619Y36347620D02*
X13715000Y36204763D01*
X13715000Y36204763D02*
X13619761Y36109525D01*
X13619761Y36109525D02*
X13524523Y36061906D01*
X13524523Y36061906D02*
X13334047Y36014287D01*
X13334047Y36014287D02*
X13191190Y36014287D01*
X13191190Y36014287D02*
X13000714Y36061906D01*
X13000714Y36061906D02*
X12905476Y36109525D01*
X12905476Y36109525D02*
X12810238Y36204763D01*
X12810238Y36204763D02*
X12762619Y36347620D01*
X12762619Y36347620D02*
X12762619Y36442858D01*
X12762619Y36442858D02*
X12810238Y36585715D01*
X12810238Y36585715D02*
X12857857Y36633334D01*
X12762619Y37490477D02*
X12762619Y37300001D01*
X12762619Y37300001D02*
X12810238Y37204763D01*
X12810238Y37204763D02*
X12857857Y37157144D01*
X12857857Y37157144D02*
X13000714Y37061906D01*
X13000714Y37061906D02*
X13191190Y37014287D01*
X13191190Y37014287D02*
X13572142Y37014287D01*
X13572142Y37014287D02*
X13667380Y37061906D01*
X13667380Y37061906D02*
X13715000Y37109525D01*
X13715000Y37109525D02*
X13762619Y37204763D01*
X13762619Y37204763D02*
X13762619Y37395239D01*
X13762619Y37395239D02*
X13715000Y37490477D01*
X13715000Y37490477D02*
X13667380Y37538096D01*
X13667380Y37538096D02*
X13572142Y37585715D01*
X13572142Y37585715D02*
X13334047Y37585715D01*
X13334047Y37585715D02*
X13238809Y37538096D01*
X13238809Y37538096D02*
X13191190Y37490477D01*
X13191190Y37490477D02*
X13143571Y37395239D01*
X13143571Y37395239D02*
X13143571Y37204763D01*
X13143571Y37204763D02*
X13191190Y37109525D01*
X13191190Y37109525D02*
X13238809Y37061906D01*
X13238809Y37061906D02*
X13334047Y37014287D01*
G04 #@! TO.C,D2*
X34229858Y11916365D02*
X30783031Y11308596D01*
G04 #@! TO.C,D3*
X29581654Y6544704D02*
X32056528Y4069830D01*
G04 #@! TO.C,D1*
X28885076Y23132485D02*
X27180607Y20075560D01*
G04 #@! TO.C,D5*
X6052031Y16069404D02*
X9498858Y15461635D01*
G04 #@! TO.C,D6*
X14402388Y25253044D02*
X16152388Y22221956D01*
G04 #@! TO.C,D4*
X8194796Y3930330D02*
X10669670Y6405204D01*
D10*
G04 #@! TO.C,C1*
X2370000Y10543903D02*
X2370000Y10836437D01*
X3390000Y10543903D02*
X3390000Y10836437D01*
G04 #@! TO.C,C2*
X36285000Y10798903D02*
X36285000Y11091437D01*
X37305000Y10798903D02*
X37305000Y11091437D01*
G04 #@! TO.C,R2*
X24090000Y28303733D02*
X24090000Y28596267D01*
X25110000Y28303733D02*
X25110000Y28596267D01*
G04 #@! TO.C,R4*
X26490000Y28303733D02*
X26490000Y28596267D01*
X27510000Y28303733D02*
X27510000Y28596267D01*
G04 #@! TO.C,R6*
X28890000Y28303733D02*
X28890000Y28596267D01*
X29910000Y28303733D02*
X29910000Y28596267D01*
G04 #@! TO.C,R8*
X9090000Y28253733D02*
X9090000Y28546267D01*
X10110000Y28253733D02*
X10110000Y28546267D01*
G04 #@! TO.C,R10*
X11290000Y28253733D02*
X11290000Y28546267D01*
X12310000Y28253733D02*
X12310000Y28546267D01*
G04 #@! TO.C,R12*
X13490000Y28253733D02*
X13490000Y28546267D01*
X14510000Y28253733D02*
X14510000Y28546267D01*
G04 #@! TO.C,C5*
X10690000Y33453733D02*
X10690000Y33746267D01*
X11710000Y33453733D02*
X11710000Y33746267D01*
G04 #@! TO.C,G\u002A\u002A\u002A*
G36*
X31119897Y18951021D02*
G01*
X30940277Y18951021D01*
X30940277Y19840817D01*
X31119897Y19840817D01*
X31119897Y18951021D01*
G37*
G36*
X35310367Y19834694D02*
G01*
X35311409Y19468368D01*
X35312452Y19102041D01*
X35757377Y19102041D01*
X35757377Y18951021D01*
X35132787Y18951021D01*
X35132787Y19836894D01*
X35310367Y19834694D01*
G37*
G36*
X31948602Y19693878D02*
G01*
X31466892Y19693878D01*
X31466892Y19493878D01*
X31916384Y19493878D01*
X31915144Y19421429D01*
X31913903Y19348980D01*
X31690397Y19347925D01*
X31466892Y19346869D01*
X31466892Y19102041D01*
X31964931Y19102041D01*
X31964931Y18951021D01*
X31287271Y18951021D01*
X31287271Y19840817D01*
X31948602Y19840817D01*
X31948602Y19693878D01*
G37*
G36*
X34173642Y22243479D02*
G01*
X34183666Y22236178D01*
X34193538Y22224934D01*
X34204132Y22208768D01*
X34214293Y22190000D01*
X34222860Y22170950D01*
X34228676Y22153939D01*
X34230601Y22142151D01*
X34226574Y22124501D01*
X34214519Y22105651D01*
X34194481Y22085645D01*
X34166501Y22064523D01*
X34130624Y22042327D01*
X34125221Y22039275D01*
X34086944Y22019068D01*
X34054351Y22004475D01*
X34027256Y21995434D01*
X34005470Y21991886D01*
X33988808Y21993771D01*
X33986685Y21994540D01*
X33981923Y22000336D01*
X33983313Y22011298D01*
X33990790Y22027300D01*
X34004288Y22048217D01*
X34023743Y22073923D01*
X34034710Y22087364D01*
X34047378Y22104217D01*
X34055220Y22119280D01*
X34059617Y22134303D01*
X34065924Y22155656D01*
X34075437Y22177878D01*
X34086885Y22198596D01*
X34098996Y22215436D01*
X34107670Y22224029D01*
X34128229Y22238516D01*
X34145310Y22246464D01*
X34160064Y22248057D01*
X34173642Y22243479D01*
G37*
G36*
X38261577Y20909447D02*
G01*
X38287641Y20908901D01*
X38306866Y20908239D01*
X38320576Y20907301D01*
X38330096Y20905930D01*
X38336751Y20903968D01*
X38341864Y20901256D01*
X38344243Y20899580D01*
X38356469Y20886089D01*
X38365104Y20868106D01*
X38368841Y20848976D01*
X38368180Y20838293D01*
X38363450Y20826218D01*
X38354698Y20813430D01*
X38343880Y20802046D01*
X38332953Y20794179D01*
X38325206Y20791837D01*
X38317313Y20790036D01*
X38315084Y20786086D01*
X38319511Y20782163D01*
X38320617Y20781772D01*
X38327470Y20776426D01*
X38337671Y20763700D01*
X38351184Y20743645D01*
X38367975Y20716309D01*
X38369462Y20713804D01*
X38376074Y20701594D01*
X38377490Y20694373D01*
X38372879Y20690994D01*
X38361412Y20690307D01*
X38352702Y20690622D01*
X38327196Y20691837D01*
X38309927Y20724070D01*
X38301277Y20739622D01*
X38293169Y20753179D01*
X38286953Y20762514D01*
X38285424Y20764429D01*
X38274276Y20773160D01*
X38259553Y20780204D01*
X38245513Y20783600D01*
X38243622Y20783674D01*
X38240059Y20783203D01*
X38237695Y20780868D01*
X38236284Y20775288D01*
X38235583Y20765078D01*
X38235347Y20748856D01*
X38235327Y20736735D01*
X38235327Y20689796D01*
X38190421Y20689796D01*
X38190421Y20878575D01*
X38235327Y20878575D01*
X38235327Y20815489D01*
X38270387Y20816929D01*
X38287902Y20817890D01*
X38299258Y20819374D01*
X38306460Y20821898D01*
X38311514Y20825981D01*
X38313251Y20828004D01*
X38319857Y20841284D01*
X38319986Y20855028D01*
X38313670Y20866596D01*
X38312774Y20867452D01*
X38305760Y20871659D01*
X38294676Y20874478D01*
X38277795Y20876283D01*
X38269910Y20876760D01*
X38235327Y20878575D01*
X38190421Y20878575D01*
X38190421Y20910731D01*
X38261577Y20909447D01*
G37*
G36*
X38324415Y21005332D02*
G01*
X38362336Y20994302D01*
X38396853Y20976523D01*
X38427218Y20952590D01*
X38452684Y20923097D01*
X38472504Y20888638D01*
X38485931Y20849807D01*
X38486365Y20848001D01*
X38491733Y20813247D01*
X38490637Y20779526D01*
X38486225Y20755482D01*
X38473222Y20717197D01*
X38453677Y20683021D01*
X38428408Y20653597D01*
X38398233Y20629568D01*
X38363970Y20611576D01*
X38326436Y20600263D01*
X38286450Y20596272D01*
X38283594Y20596284D01*
X38264627Y20597143D01*
X38246000Y20599073D01*
X38231384Y20601680D01*
X38229970Y20602048D01*
X38193461Y20616027D01*
X38160852Y20636288D01*
X38132714Y20661868D01*
X38109618Y20691807D01*
X38092136Y20725142D01*
X38080841Y20760911D01*
X38077025Y20792225D01*
X38118091Y20792225D01*
X38123546Y20760013D01*
X38135217Y20729374D01*
X38152847Y20701266D01*
X38176180Y20676648D01*
X38204958Y20656480D01*
X38237368Y20642228D01*
X38251972Y20639307D01*
X38272388Y20637916D01*
X38290437Y20637992D01*
X38311289Y20639189D01*
X38327206Y20641655D01*
X38341394Y20646038D01*
X38351387Y20650305D01*
X38383231Y20669042D01*
X38409221Y20692648D01*
X38429160Y20720134D01*
X38442853Y20750510D01*
X38450105Y20782788D01*
X38450718Y20815979D01*
X38444499Y20849093D01*
X38431251Y20881141D01*
X38410777Y20911134D01*
X38404415Y20918294D01*
X38378121Y20940741D01*
X38348184Y20956642D01*
X38315835Y20966001D01*
X38282304Y20968821D01*
X38248825Y20965107D01*
X38216626Y20954861D01*
X38186940Y20938087D01*
X38163577Y20917614D01*
X38141596Y20888704D01*
X38126859Y20857529D01*
X38119110Y20825050D01*
X38118091Y20792225D01*
X38077025Y20792225D01*
X38076303Y20798154D01*
X38079094Y20835908D01*
X38082272Y20850482D01*
X38096462Y20889972D01*
X38116867Y20924727D01*
X38142817Y20954218D01*
X38173640Y20977918D01*
X38208665Y20995298D01*
X38247222Y21005832D01*
X38283838Y21009020D01*
X38324415Y21005332D01*
G37*
G36*
X33289941Y19840778D02*
G01*
X33335358Y19840653D01*
X33374011Y19840425D01*
X33406600Y19840078D01*
X33433827Y19839597D01*
X33456390Y19838965D01*
X33474990Y19838168D01*
X33490328Y19837188D01*
X33503103Y19836012D01*
X33514017Y19834621D01*
X33514389Y19834566D01*
X33552518Y19827606D01*
X33584204Y19818677D01*
X33611074Y19807047D01*
X33634753Y19791988D01*
X33656870Y19772767D01*
X33660837Y19768782D01*
X33682872Y19741682D01*
X33701978Y19709267D01*
X33716593Y19674273D01*
X33718796Y19667347D01*
X33723859Y19642914D01*
X33726405Y19613520D01*
X33726472Y19581957D01*
X33724095Y19551019D01*
X33719312Y19523500D01*
X33716798Y19514286D01*
X33700411Y19474135D01*
X33677773Y19439223D01*
X33648877Y19409543D01*
X33613713Y19385087D01*
X33572275Y19365849D01*
X33532402Y19353666D01*
X33495484Y19344611D01*
X33523192Y19326399D01*
X33553548Y19303329D01*
X33584407Y19274094D01*
X33614094Y19240398D01*
X33634587Y19213213D01*
X33642746Y19201245D01*
X33653775Y19184563D01*
X33667090Y19164095D01*
X33682106Y19140770D01*
X33698240Y19115514D01*
X33714905Y19089256D01*
X33731517Y19062924D01*
X33747493Y19037447D01*
X33762246Y19013751D01*
X33775193Y18992766D01*
X33785749Y18975418D01*
X33793329Y18962637D01*
X33797348Y18955350D01*
X33797841Y18954082D01*
X33793949Y18953258D01*
X33782968Y18952517D01*
X33765973Y18951892D01*
X33744042Y18951414D01*
X33718248Y18951113D01*
X33692592Y18951021D01*
X33587305Y18951021D01*
X33513992Y19060050D01*
X33482853Y19106234D01*
X33455759Y19146089D01*
X33432303Y19180127D01*
X33412075Y19208863D01*
X33394669Y19232808D01*
X33379675Y19252476D01*
X33366686Y19268379D01*
X33355293Y19281031D01*
X33345088Y19290944D01*
X33335664Y19298631D01*
X33326612Y19304605D01*
X33317524Y19309379D01*
X33314479Y19310764D01*
X33304318Y19314691D01*
X33293387Y19317480D01*
X33279835Y19319395D01*
X33261811Y19320698D01*
X33237627Y19321645D01*
X33181537Y19323373D01*
X33180475Y19138217D01*
X33179412Y18953062D01*
X33090622Y18951962D01*
X33001833Y18950862D01*
X33001833Y19695199D01*
X33181453Y19695199D01*
X33181453Y19465306D01*
X33272284Y19465399D01*
X33302639Y19465617D01*
X33333867Y19466169D01*
X33363781Y19466994D01*
X33390196Y19468030D01*
X33410927Y19469216D01*
X33413160Y19469383D01*
X33444770Y19472756D01*
X33469669Y19477696D01*
X33489240Y19484698D01*
X33504867Y19494256D01*
X33517932Y19506866D01*
X33517937Y19506873D01*
X33531833Y19529029D01*
X33539789Y19556265D01*
X33541961Y19586444D01*
X33538025Y19615753D01*
X33527196Y19641332D01*
X33510075Y19662384D01*
X33487260Y19678111D01*
X33467354Y19685770D01*
X33459858Y19686823D01*
X33445284Y19687938D01*
X33424719Y19689067D01*
X33399251Y19690160D01*
X33369966Y19691170D01*
X33337951Y19692046D01*
X33317189Y19692502D01*
X33181453Y19695199D01*
X33001833Y19695199D01*
X33001833Y19840817D01*
X33237061Y19840817D01*
X33289941Y19840778D01*
G37*
G36*
X38166253Y19869846D02*
G01*
X38222653Y19860286D01*
X38275854Y19844665D01*
X38324800Y19823210D01*
X38357190Y19804023D01*
X38401789Y19769612D01*
X38440039Y19730306D01*
X38471976Y19686027D01*
X38497637Y19636696D01*
X38517060Y19582234D01*
X38530279Y19522562D01*
X38537333Y19457600D01*
X38538628Y19412245D01*
X38536002Y19346512D01*
X38528028Y19286556D01*
X38514515Y19231829D01*
X38495271Y19181778D01*
X38470106Y19135856D01*
X38438830Y19093510D01*
X38421334Y19074024D01*
X38381164Y19037734D01*
X38335941Y19007848D01*
X38285685Y18984376D01*
X38230418Y18967328D01*
X38170162Y18956713D01*
X38155722Y18955194D01*
X38135651Y18953369D01*
X38120580Y18952242D01*
X38108024Y18951819D01*
X38095500Y18952107D01*
X38080523Y18953113D01*
X38060608Y18954843D01*
X38053665Y18955471D01*
X37995430Y18964472D01*
X37940593Y18980448D01*
X37889644Y19003099D01*
X37843077Y19032126D01*
X37801383Y19067231D01*
X37765054Y19108115D01*
X37739081Y19146641D01*
X37716767Y19191510D01*
X37699368Y19241263D01*
X37686863Y19294690D01*
X37679231Y19350584D01*
X37676884Y19398843D01*
X37862702Y19398843D01*
X37866399Y19345369D01*
X37875526Y19297008D01*
X37890166Y19253199D01*
X37896637Y19238776D01*
X37919046Y19201077D01*
X37947117Y19168912D01*
X37980226Y19142788D01*
X38017747Y19123209D01*
X38053665Y19111854D01*
X38078669Y19108281D01*
X38108090Y19107437D01*
X38138705Y19109167D01*
X38167294Y19113314D01*
X38186511Y19118260D01*
X38203449Y19125185D01*
X38222824Y19135047D01*
X38240618Y19145789D01*
X38241622Y19146467D01*
X38273338Y19172449D01*
X38299656Y19203703D01*
X38320900Y19240727D01*
X38337396Y19284017D01*
X38341915Y19300000D01*
X38345281Y19313661D01*
X38347753Y19326197D01*
X38349457Y19339241D01*
X38350523Y19354427D01*
X38351079Y19373391D01*
X38351254Y19397765D01*
X38351219Y19418368D01*
X38351003Y19447909D01*
X38350508Y19470869D01*
X38349606Y19488830D01*
X38348173Y19503372D01*
X38346083Y19516076D01*
X38343209Y19528524D01*
X38342119Y19532653D01*
X38327494Y19575984D01*
X38308531Y19613029D01*
X38284731Y19644709D01*
X38276492Y19653385D01*
X38245065Y19679808D01*
X38210477Y19699184D01*
X38172113Y19711752D01*
X38129357Y19717749D01*
X38108776Y19718368D01*
X38064561Y19715397D01*
X38025179Y19706253D01*
X37989741Y19690582D01*
X37957359Y19668034D01*
X37939361Y19651396D01*
X37914713Y19622340D01*
X37895311Y19590031D01*
X37880775Y19553489D01*
X37870725Y19511733D01*
X37864779Y19463780D01*
X37864353Y19457993D01*
X37862702Y19398843D01*
X37676884Y19398843D01*
X37676452Y19407733D01*
X37678506Y19464930D01*
X37685373Y19520966D01*
X37697032Y19574630D01*
X37713463Y19624713D01*
X37734645Y19670008D01*
X37748254Y19692352D01*
X37782670Y19737993D01*
X37820188Y19776449D01*
X37861350Y19808041D01*
X37906694Y19833088D01*
X37956763Y19851911D01*
X38012097Y19864829D01*
X38048088Y19869884D01*
X38107713Y19873120D01*
X38166253Y19869846D01*
G37*
G36*
X34367591Y19775511D02*
G01*
X34374394Y19758376D01*
X34383750Y19734766D01*
X34395217Y19705798D01*
X34408353Y19672591D01*
X34422714Y19636263D01*
X34437859Y19597932D01*
X34453347Y19558718D01*
X34464441Y19530613D01*
X34481666Y19486978D01*
X34501139Y19437666D01*
X34522104Y19384588D01*
X34543806Y19329657D01*
X34565488Y19274787D01*
X34586395Y19221889D01*
X34605772Y19172876D01*
X34614013Y19152035D01*
X34629003Y19114095D01*
X34643044Y19078481D01*
X34655857Y19045908D01*
X34667162Y19017092D01*
X34676679Y18992747D01*
X34684129Y18973589D01*
X34689231Y18960331D01*
X34691706Y18953690D01*
X34691900Y18953056D01*
X34688006Y18952482D01*
X34677078Y18951970D01*
X34660244Y18951546D01*
X34638636Y18951232D01*
X34613383Y18951053D01*
X34596388Y18951021D01*
X34500876Y18951021D01*
X34486345Y18988776D01*
X34479614Y19006319D01*
X34470936Y19029014D01*
X34461258Y19054382D01*
X34451528Y19079940D01*
X34447782Y19089796D01*
X34423749Y19153062D01*
X34248000Y19154125D01*
X34072252Y19155188D01*
X34061567Y19125554D01*
X34056608Y19111798D01*
X34049583Y19092312D01*
X34041196Y19069046D01*
X34032149Y19043949D01*
X34025134Y19024490D01*
X33999387Y18953062D01*
X33906797Y18951965D01*
X33875744Y18951690D01*
X33852036Y18951721D01*
X33834858Y18952091D01*
X33823395Y18952839D01*
X33816833Y18953999D01*
X33814356Y18955608D01*
X33814279Y18956046D01*
X33815726Y18960460D01*
X33819927Y18972009D01*
X33826697Y18990209D01*
X33835854Y19014578D01*
X33847214Y19044634D01*
X33860594Y19079895D01*
X33875809Y19119877D01*
X33892677Y19164098D01*
X33911014Y19212075D01*
X33930636Y19263327D01*
X33947993Y19308590D01*
X34128544Y19308590D01*
X34132458Y19307963D01*
X34143522Y19307395D01*
X34160726Y19306906D01*
X34183055Y19306518D01*
X34209496Y19306252D01*
X34239036Y19306129D01*
X34247367Y19306123D01*
X34281624Y19306149D01*
X34308560Y19306261D01*
X34329022Y19306512D01*
X34343855Y19306953D01*
X34353902Y19307636D01*
X34360010Y19308614D01*
X34363024Y19309939D01*
X34363787Y19311662D01*
X34363384Y19313266D01*
X34361397Y19318579D01*
X34356927Y19330689D01*
X34350292Y19348726D01*
X34341812Y19371820D01*
X34331806Y19399100D01*
X34320594Y19429698D01*
X34308496Y19462742D01*
X34305317Y19471429D01*
X34293057Y19504872D01*
X34281597Y19536013D01*
X34271257Y19563994D01*
X34262355Y19587958D01*
X34255209Y19607048D01*
X34250138Y19620407D01*
X34247461Y19627180D01*
X34247194Y19627759D01*
X34245443Y19624872D01*
X34241283Y19615257D01*
X34235069Y19599869D01*
X34227154Y19579660D01*
X34217894Y19555584D01*
X34207643Y19528596D01*
X34196756Y19499649D01*
X34185587Y19469697D01*
X34174491Y19439693D01*
X34163822Y19410591D01*
X34153936Y19383345D01*
X34145185Y19358909D01*
X34137926Y19338236D01*
X34132512Y19322280D01*
X34129298Y19311995D01*
X34128544Y19308590D01*
X33947993Y19308590D01*
X33951360Y19317371D01*
X33973003Y19373723D01*
X33983106Y19400000D01*
X34151862Y19838776D01*
X34342425Y19838776D01*
X34367591Y19775511D01*
G37*
G36*
X36313280Y19869639D02*
G01*
X36372241Y19859137D01*
X36428326Y19841918D01*
X36480489Y19818187D01*
X36493800Y19810670D01*
X36515290Y19795887D01*
X36539104Y19776045D01*
X36563297Y19753044D01*
X36585927Y19728787D01*
X36605048Y19705174D01*
X36612346Y19694726D01*
X36635855Y19652721D01*
X36655437Y19605020D01*
X36670467Y19553392D01*
X36679697Y19504217D01*
X36682053Y19480092D01*
X36683438Y19450284D01*
X36683872Y19417211D01*
X36683379Y19383294D01*
X36681979Y19350951D01*
X36679695Y19322601D01*
X36677953Y19308812D01*
X36665365Y19249460D01*
X36646309Y19194545D01*
X36621055Y19144395D01*
X36589871Y19099338D01*
X36553025Y19059702D01*
X36510787Y19025817D01*
X36463424Y18998009D01*
X36411206Y18976609D01*
X36404420Y18974422D01*
X36356147Y18962532D01*
X36303478Y18955354D01*
X36248844Y18953122D01*
X36204388Y18955138D01*
X36144068Y18964011D01*
X36088140Y18979673D01*
X36036850Y19001882D01*
X35990443Y19030393D01*
X35949164Y19064965D01*
X35913259Y19105355D01*
X35882973Y19151319D01*
X35858551Y19202614D01*
X35840239Y19258999D01*
X35828281Y19320229D01*
X35827202Y19328572D01*
X35823498Y19375665D01*
X35823294Y19408075D01*
X36007680Y19408075D01*
X36010114Y19365112D01*
X36016973Y19317001D01*
X36027519Y19275288D01*
X36042208Y19238875D01*
X36061499Y19206663D01*
X36085847Y19177554D01*
X36089881Y19173470D01*
X36123225Y19145908D01*
X36160279Y19125430D01*
X36200392Y19112217D01*
X36242914Y19106451D01*
X36287194Y19108314D01*
X36309537Y19112109D01*
X36346520Y19123922D01*
X36381740Y19142780D01*
X36413742Y19167570D01*
X36441072Y19197178D01*
X36461005Y19228030D01*
X36469172Y19245747D01*
X36477613Y19267609D01*
X36484885Y19289778D01*
X36486911Y19296985D01*
X36490702Y19311969D01*
X36493474Y19325300D01*
X36495388Y19338741D01*
X36496606Y19354054D01*
X36497291Y19373002D01*
X36497602Y19397348D01*
X36497675Y19414286D01*
X36497630Y19443170D01*
X36497229Y19465635D01*
X36496336Y19483421D01*
X36494816Y19498268D01*
X36492534Y19511917D01*
X36489353Y19526109D01*
X36488786Y19528407D01*
X36473903Y19574517D01*
X36453752Y19614463D01*
X36428386Y19648186D01*
X36397857Y19675632D01*
X36362218Y19696743D01*
X36321521Y19711462D01*
X36318855Y19712157D01*
X36296783Y19715957D01*
X36269846Y19717853D01*
X36241117Y19717844D01*
X36213671Y19715928D01*
X36191079Y19712222D01*
X36153545Y19699344D01*
X36118192Y19679393D01*
X36086507Y19653430D01*
X36059977Y19622517D01*
X36054924Y19615071D01*
X36038044Y19582959D01*
X36024623Y19544770D01*
X36014917Y19501938D01*
X36009184Y19455895D01*
X36007680Y19408075D01*
X35823294Y19408075D01*
X35823182Y19425907D01*
X35826088Y19476726D01*
X35832052Y19525549D01*
X35840909Y19569803D01*
X35843222Y19578645D01*
X35859380Y19624547D01*
X35882120Y19670332D01*
X35910119Y19713853D01*
X35942051Y19752961D01*
X35964279Y19774989D01*
X36003434Y19805720D01*
X36046344Y19830396D01*
X36093746Y19849324D01*
X36146376Y19862812D01*
X36190905Y19869683D01*
X36252487Y19873223D01*
X36313280Y19869639D01*
G37*
G36*
X37066771Y19839741D02*
G01*
X37121122Y19839394D01*
X37167990Y19839045D01*
X37208056Y19838630D01*
X37242003Y19838088D01*
X37270510Y19837354D01*
X37294261Y19836368D01*
X37313937Y19835065D01*
X37330218Y19833385D01*
X37343786Y19831263D01*
X37355323Y19828637D01*
X37365511Y19825446D01*
X37375030Y19821625D01*
X37384563Y19817114D01*
X37394790Y19811848D01*
X37399949Y19809138D01*
X37433719Y19786973D01*
X37463136Y19758763D01*
X37487156Y19725823D01*
X37504732Y19689470D01*
X37511082Y19669248D01*
X37515465Y19641259D01*
X37515875Y19609746D01*
X37512485Y19578223D01*
X37505465Y19550201D01*
X37505252Y19549599D01*
X37489358Y19515588D01*
X37467301Y19483996D01*
X37440640Y19456732D01*
X37413175Y19436986D01*
X37393830Y19425689D01*
X37418743Y19416374D01*
X37456382Y19398155D01*
X37489072Y19373919D01*
X37516281Y19344497D01*
X37537480Y19310722D01*
X37552139Y19273426D01*
X37559726Y19233440D01*
X37559989Y19194774D01*
X37552677Y19149330D01*
X37538578Y19107149D01*
X37518229Y19068893D01*
X37492167Y19035224D01*
X37460930Y19006803D01*
X37425055Y18984293D01*
X37385079Y18968356D01*
X37373604Y18965254D01*
X37360046Y18962823D01*
X37340129Y18960649D01*
X37313419Y18958699D01*
X37279480Y18956943D01*
X37237876Y18955351D01*
X37231084Y18955128D01*
X37199998Y18954245D01*
X37165652Y18953470D01*
X37128920Y18952806D01*
X37090677Y18952256D01*
X37051796Y18951824D01*
X37013153Y18951511D01*
X36975621Y18951322D01*
X36940075Y18951259D01*
X36907391Y18951324D01*
X36878441Y18951522D01*
X36854101Y18951854D01*
X36835245Y18952324D01*
X36822747Y18952935D01*
X36817482Y18953689D01*
X36817412Y18953742D01*
X36817046Y18958107D01*
X36816695Y18970106D01*
X36816362Y18989209D01*
X36816050Y19014889D01*
X36815761Y19046615D01*
X36815500Y19083859D01*
X36815270Y19126090D01*
X36815074Y19172781D01*
X36814914Y19223401D01*
X36814795Y19277423D01*
X36814719Y19334315D01*
X36814716Y19339429D01*
X36994311Y19339429D01*
X36994311Y19102041D01*
X37111677Y19102072D01*
X37143845Y19102218D01*
X37175132Y19102614D01*
X37204090Y19103223D01*
X37229269Y19104007D01*
X37249221Y19104928D01*
X37262498Y19105950D01*
X37262759Y19105979D01*
X37297403Y19112712D01*
X37325459Y19124242D01*
X37347007Y19140661D01*
X37362132Y19162061D01*
X37370916Y19188533D01*
X37373440Y19220169D01*
X37373124Y19228532D01*
X37368549Y19258256D01*
X37358307Y19282607D01*
X37341944Y19302492D01*
X37332200Y19310417D01*
X37322937Y19316842D01*
X37313999Y19322106D01*
X37304463Y19326335D01*
X37293408Y19329658D01*
X37279914Y19332201D01*
X37263059Y19334092D01*
X37241921Y19335459D01*
X37215580Y19336428D01*
X37183114Y19337126D01*
X37143603Y19337682D01*
X37134129Y19337795D01*
X36994311Y19339429D01*
X36814716Y19339429D01*
X36814690Y19393550D01*
X36814690Y19694464D01*
X36994311Y19694464D01*
X36994311Y19489284D01*
X37125965Y19490744D01*
X37163042Y19491199D01*
X37192914Y19491693D01*
X37216542Y19492282D01*
X37234884Y19493025D01*
X37248900Y19493978D01*
X37259550Y19495199D01*
X37267794Y19496745D01*
X37274592Y19498673D01*
X37277754Y19499801D01*
X37297299Y19510195D01*
X37315120Y19525090D01*
X37329036Y19542333D01*
X37336285Y19557617D01*
X37341415Y19586504D01*
X37339724Y19614351D01*
X37331511Y19639679D01*
X37317074Y19661012D01*
X37314853Y19663318D01*
X37307534Y19670362D01*
X37300489Y19676109D01*
X37292818Y19680703D01*
X37283621Y19684287D01*
X37271997Y19687005D01*
X37257047Y19689001D01*
X37237870Y19690418D01*
X37213567Y19691401D01*
X37183236Y19692094D01*
X37145979Y19692639D01*
X37130047Y19692835D01*
X36994311Y19694464D01*
X36814690Y19694464D01*
X36814690Y19841322D01*
X37066771Y19839741D01*
G37*
G36*
X30490051Y19870407D02*
G01*
X30534906Y19864729D01*
X30575167Y19855806D01*
X30585696Y19852608D01*
X30630861Y19834054D01*
X30670174Y19809867D01*
X30703450Y19780270D01*
X30730505Y19745487D01*
X30751154Y19705742D01*
X30765213Y19661259D01*
X30770965Y19627986D01*
X30773735Y19604952D01*
X30721270Y19602405D01*
X30696784Y19601172D01*
X30670892Y19599796D01*
X30646984Y19598459D01*
X30631214Y19597520D01*
X30593623Y19595182D01*
X30591128Y19606775D01*
X30580984Y19641031D01*
X30566431Y19668941D01*
X30547066Y19690798D01*
X30522487Y19706896D01*
X30492289Y19717528D01*
X30456070Y19722987D01*
X30429991Y19723902D01*
X30391549Y19721723D01*
X30357848Y19715472D01*
X30329423Y19705448D01*
X30306808Y19691951D01*
X30290540Y19675281D01*
X30281151Y19655738D01*
X30278946Y19639204D01*
X30280267Y19623093D01*
X30284627Y19608794D01*
X30292624Y19595945D01*
X30304856Y19584190D01*
X30321921Y19573168D01*
X30344415Y19562520D01*
X30372938Y19551888D01*
X30408086Y19540913D01*
X30450457Y19529235D01*
X30470723Y19523990D01*
X30527176Y19508848D01*
X30576151Y19493969D01*
X30618309Y19478969D01*
X30654312Y19463468D01*
X30684820Y19447082D01*
X30710494Y19429429D01*
X30731997Y19410127D01*
X30749988Y19388793D01*
X30765129Y19365045D01*
X30773357Y19348980D01*
X30785695Y19315246D01*
X30793603Y19277055D01*
X30796933Y19236870D01*
X30795540Y19197158D01*
X30789278Y19160382D01*
X30785341Y19146939D01*
X30767067Y19103949D01*
X30742901Y19066438D01*
X30712730Y19034308D01*
X30676444Y19007465D01*
X30633931Y18985811D01*
X30585080Y18969250D01*
X30576842Y18967110D01*
X30563456Y18964435D01*
X30544649Y18961558D01*
X30522402Y18958686D01*
X30498691Y18956029D01*
X30475495Y18953796D01*
X30454795Y18952196D01*
X30438566Y18951438D01*
X30429991Y18951592D01*
X30423383Y18952183D01*
X30410837Y18953303D01*
X30394549Y18954755D01*
X30386133Y18955504D01*
X30329211Y18963726D01*
X30278019Y18977754D01*
X30232526Y18997615D01*
X30192699Y19023333D01*
X30158506Y19054933D01*
X30129916Y19092439D01*
X30106895Y19135876D01*
X30089863Y19183674D01*
X30084884Y19202237D01*
X30080534Y19220425D01*
X30077596Y19234926D01*
X30077181Y19237530D01*
X30074399Y19256692D01*
X30087883Y19258911D01*
X30097074Y19260132D01*
X30112292Y19261843D01*
X30131781Y19263876D01*
X30153788Y19266063D01*
X30176559Y19268239D01*
X30198340Y19270234D01*
X30217377Y19271882D01*
X30231915Y19273016D01*
X30240203Y19273468D01*
X30240482Y19273470D01*
X30246171Y19272170D01*
X30250130Y19267022D01*
X30253591Y19256153D01*
X30254590Y19252041D01*
X30267318Y19212984D01*
X30285716Y19179424D01*
X30309497Y19151679D01*
X30338371Y19130065D01*
X30372049Y19114899D01*
X30382377Y19111831D01*
X30408709Y19107219D01*
X30439142Y19105742D01*
X30471248Y19107192D01*
X30502603Y19111360D01*
X30530778Y19118037D01*
X30552214Y19126425D01*
X30567690Y19136788D01*
X30583964Y19151551D01*
X30598351Y19167986D01*
X30608138Y19183298D01*
X30614299Y19202329D01*
X30617019Y19224284D01*
X30615996Y19245274D01*
X30613729Y19254995D01*
X30608498Y19267651D01*
X30601227Y19278857D01*
X30591176Y19288987D01*
X30577605Y19298417D01*
X30559772Y19307520D01*
X30536938Y19316671D01*
X30508363Y19326245D01*
X30473305Y19336616D01*
X30431025Y19348159D01*
X30427950Y19348975D01*
X30378713Y19362412D01*
X30336647Y19374859D01*
X30300875Y19386713D01*
X30270521Y19398367D01*
X30244709Y19410217D01*
X30222564Y19422660D01*
X30203208Y19436089D01*
X30185766Y19450900D01*
X30172291Y19464340D01*
X30144841Y19498308D01*
X30125167Y19533986D01*
X30112924Y19572224D01*
X30107771Y19613873D01*
X30107550Y19624653D01*
X30111114Y19667491D01*
X30122078Y19707055D01*
X30140587Y19743691D01*
X30166786Y19777740D01*
X30176498Y19787829D01*
X30203494Y19811511D01*
X30232340Y19830362D01*
X30264990Y19845433D01*
X30303400Y19857774D01*
X30310090Y19859534D01*
X30350622Y19867404D01*
X30395640Y19871801D01*
X30442872Y19872783D01*
X30490051Y19870407D01*
G37*
G36*
X32493964Y19839972D02*
G01*
X32532612Y19839385D01*
X32565787Y19838409D01*
X32594163Y19836989D01*
X32618412Y19835068D01*
X32639206Y19832590D01*
X32657219Y19829497D01*
X32673123Y19825734D01*
X32687591Y19821244D01*
X32701295Y19815970D01*
X32714909Y19809857D01*
X32718661Y19808052D01*
X32740291Y19794514D01*
X32762593Y19775352D01*
X32783557Y19752657D01*
X32801174Y19728515D01*
X32809658Y19713488D01*
X32825956Y19672343D01*
X32835239Y19630304D01*
X32837769Y19588260D01*
X32833808Y19547102D01*
X32823619Y19507720D01*
X32807461Y19471005D01*
X32785598Y19437847D01*
X32758291Y19409136D01*
X32725802Y19385763D01*
X32710995Y19377905D01*
X32691375Y19369549D01*
X32668191Y19361237D01*
X32645897Y19354543D01*
X32642131Y19353584D01*
X32604881Y19344448D01*
X32632734Y19326306D01*
X32668464Y19298983D01*
X32703489Y19264184D01*
X32737129Y19222598D01*
X32743097Y19214286D01*
X32751209Y19202436D01*
X32762214Y19185853D01*
X32775531Y19165462D01*
X32790573Y19142184D01*
X32806759Y19116945D01*
X32823502Y19090666D01*
X32840220Y19064273D01*
X32856329Y19038687D01*
X32871244Y19014833D01*
X32884382Y18993634D01*
X32895158Y18976014D01*
X32902989Y18962895D01*
X32907290Y18955202D01*
X32907940Y18953620D01*
X32904036Y18952922D01*
X32893041Y18952295D01*
X32876027Y18951765D01*
X32854066Y18951359D01*
X32828231Y18951102D01*
X32801963Y18951021D01*
X32695986Y18951021D01*
X32621685Y19062245D01*
X32591320Y19107594D01*
X32564987Y19146632D01*
X32542266Y19179891D01*
X32522735Y19207903D01*
X32505975Y19231201D01*
X32491565Y19250317D01*
X32479086Y19265782D01*
X32468117Y19278129D01*
X32458237Y19287889D01*
X32449027Y19295596D01*
X32440066Y19301781D01*
X32430934Y19306976D01*
X32426710Y19309106D01*
X32416713Y19313684D01*
X32407400Y19316890D01*
X32396893Y19319028D01*
X32383310Y19320399D01*
X32364771Y19321307D01*
X32347679Y19321833D01*
X32324585Y19322324D01*
X32308523Y19322259D01*
X32298379Y19321560D01*
X32293033Y19320146D01*
X32291370Y19317938D01*
X32291364Y19317810D01*
X32291335Y19312660D01*
X32291316Y19300219D01*
X32291305Y19281360D01*
X32291302Y19256955D01*
X32291309Y19227877D01*
X32291324Y19194999D01*
X32291347Y19159194D01*
X32291364Y19138091D01*
X32291340Y19100980D01*
X32291208Y19066272D01*
X32290980Y19034845D01*
X32290667Y19007577D01*
X32290281Y18985347D01*
X32289833Y18969032D01*
X32289333Y18959512D01*
X32289037Y18957478D01*
X32287312Y18955315D01*
X32283348Y18953686D01*
X32276131Y18952520D01*
X32264651Y18951744D01*
X32247895Y18951284D01*
X32224850Y18951068D01*
X32199467Y18951021D01*
X32173623Y18951185D01*
X32150615Y18951644D01*
X32131668Y18952347D01*
X32118006Y18953245D01*
X32110854Y18954288D01*
X32110114Y18954679D01*
X32109819Y18959173D01*
X32109553Y18971297D01*
X32109318Y18990521D01*
X32109116Y19016313D01*
X32108947Y19048139D01*
X32108814Y19085468D01*
X32108718Y19127769D01*
X32108660Y19174508D01*
X32108643Y19225155D01*
X32108667Y19279176D01*
X32108734Y19336041D01*
X32108845Y19395217D01*
X32108853Y19398557D01*
X32109101Y19508010D01*
X32290201Y19508010D01*
X32290292Y19489689D01*
X32290498Y19477296D01*
X32290793Y19472081D01*
X32291924Y19469865D01*
X32295000Y19468189D01*
X32301017Y19466982D01*
X32310967Y19466172D01*
X32325846Y19465685D01*
X32346648Y19465449D01*
X32374366Y19465393D01*
X32382645Y19465399D01*
X32412985Y19465618D01*
X32444228Y19466175D01*
X32474173Y19467007D01*
X32500622Y19468051D01*
X32521377Y19469245D01*
X32523431Y19469399D01*
X32556472Y19472982D01*
X32582618Y19478391D01*
X32603046Y19486218D01*
X32618930Y19497055D01*
X32631446Y19511491D01*
X32641050Y19528572D01*
X32647321Y19548051D01*
X32650580Y19571533D01*
X32650717Y19595809D01*
X32647624Y19617671D01*
X32644433Y19627682D01*
X32632101Y19647960D01*
X32613943Y19665867D01*
X32592297Y19679230D01*
X32586371Y19681697D01*
X32579686Y19683960D01*
X32572314Y19685810D01*
X32563302Y19687311D01*
X32551696Y19688529D01*
X32536541Y19689530D01*
X32516885Y19690379D01*
X32491773Y19691140D01*
X32460252Y19691881D01*
X32428149Y19692533D01*
X32291779Y19695194D01*
X32290626Y19587025D01*
X32290366Y19557830D01*
X32290225Y19531107D01*
X32290201Y19508010D01*
X32109101Y19508010D01*
X32109852Y19838776D01*
X32338461Y19839969D01*
X32397561Y19840207D01*
X32449171Y19840227D01*
X32493964Y19839972D01*
G37*
G36*
X34209851Y23466884D02*
G01*
X34247785Y23417640D01*
X34284346Y23370217D01*
X34319224Y23325016D01*
X34352111Y23282434D01*
X34382697Y23242873D01*
X34410671Y23206731D01*
X34435725Y23174408D01*
X34457549Y23146304D01*
X34475833Y23122818D01*
X34490268Y23104349D01*
X34500544Y23091297D01*
X34506352Y23084061D01*
X34507581Y23082668D01*
X34510692Y23085429D01*
X34519047Y23093736D01*
X34532276Y23107203D01*
X34550011Y23125447D01*
X34571882Y23148084D01*
X34597522Y23174729D01*
X34626560Y23205000D01*
X34658628Y23238511D01*
X34693357Y23274879D01*
X34730378Y23313720D01*
X34769323Y23354649D01*
X34808245Y23395623D01*
X34848690Y23438214D01*
X34887554Y23479105D01*
X34924471Y23517911D01*
X34959072Y23554246D01*
X34990988Y23587725D01*
X35019851Y23617961D01*
X35045294Y23644570D01*
X35066947Y23667167D01*
X35084442Y23685364D01*
X35097412Y23698778D01*
X35105487Y23707023D01*
X35108293Y23709716D01*
X35111305Y23706695D01*
X35118598Y23698166D01*
X35129419Y23685047D01*
X35143014Y23668254D01*
X35158630Y23648707D01*
X35165831Y23639617D01*
X35206136Y23588634D01*
X35248474Y23535119D01*
X35292583Y23479405D01*
X35338200Y23421819D01*
X35385062Y23362693D01*
X35432906Y23302357D01*
X35481471Y23241140D01*
X35530493Y23179373D01*
X35579709Y23117386D01*
X35628858Y23055509D01*
X35677676Y22994071D01*
X35725901Y22933403D01*
X35773270Y22873836D01*
X35819521Y22815698D01*
X35864391Y22759320D01*
X35907617Y22705032D01*
X35948937Y22653165D01*
X35988088Y22604047D01*
X36024807Y22558010D01*
X36058833Y22515383D01*
X36089901Y22476496D01*
X36117750Y22441680D01*
X36142118Y22411264D01*
X36162740Y22385579D01*
X36179355Y22364954D01*
X36191701Y22349720D01*
X36199513Y22340206D01*
X36202531Y22336743D01*
X36202552Y22336735D01*
X36205773Y22339762D01*
X36213698Y22348433D01*
X36225795Y22362129D01*
X36241528Y22380233D01*
X36260364Y22402126D01*
X36281768Y22427192D01*
X36305205Y22454813D01*
X36327165Y22480831D01*
X36351911Y22510080D01*
X36375089Y22537198D01*
X36396171Y22561587D01*
X36414624Y22582643D01*
X36429919Y22599768D01*
X36441525Y22612360D01*
X36448911Y22619818D01*
X36451510Y22621647D01*
X36454364Y22618025D01*
X36461860Y22608360D01*
X36473667Y22593081D01*
X36489454Y22572620D01*
X36508888Y22547407D01*
X36531638Y22517872D01*
X36557374Y22484446D01*
X36585763Y22447560D01*
X36616473Y22407642D01*
X36649175Y22365125D01*
X36683535Y22320438D01*
X36713365Y22281633D01*
X36762739Y22217398D01*
X36814488Y22150075D01*
X36868395Y22079946D01*
X36924241Y22007297D01*
X36981808Y21932410D01*
X37040878Y21855570D01*
X37101233Y21777058D01*
X37162656Y21697161D01*
X37224927Y21616160D01*
X37287829Y21534339D01*
X37351144Y21451983D01*
X37414655Y21369374D01*
X37478141Y21286797D01*
X37541387Y21204535D01*
X37604173Y21122871D01*
X37666282Y21042089D01*
X37727495Y20962474D01*
X37787594Y20884307D01*
X37846362Y20807874D01*
X37903581Y20733457D01*
X37959032Y20661341D01*
X38012496Y20591808D01*
X38063757Y20525143D01*
X38112597Y20461628D01*
X38158796Y20401549D01*
X38202137Y20345188D01*
X38242402Y20292829D01*
X38279373Y20244755D01*
X38312832Y20201250D01*
X38342560Y20162598D01*
X38368341Y20129083D01*
X38389954Y20100987D01*
X38407184Y20078595D01*
X38419811Y20062190D01*
X38425866Y20054327D01*
X38443535Y20031315D01*
X38459444Y20010437D01*
X38472945Y19992558D01*
X38483388Y19978542D01*
X38490127Y19969251D01*
X38492511Y19965552D01*
X38488469Y19965408D01*
X38476507Y19965266D01*
X38456869Y19965127D01*
X38429800Y19964990D01*
X38395543Y19964857D01*
X38354343Y19964727D01*
X38306444Y19964601D01*
X38252090Y19964479D01*
X38191527Y19964361D01*
X38124997Y19964248D01*
X38052746Y19964139D01*
X37975017Y19964035D01*
X37892055Y19963937D01*
X37804104Y19963844D01*
X37711409Y19963757D01*
X37614214Y19963676D01*
X37512763Y19963602D01*
X37407300Y19963534D01*
X37298069Y19963473D01*
X37185316Y19963420D01*
X37069284Y19963374D01*
X36950217Y19963336D01*
X36828361Y19963305D01*
X36703958Y19963283D01*
X36577254Y19963270D01*
X36449197Y19963266D01*
X36289727Y19963269D01*
X36138241Y19963280D01*
X35994558Y19963299D01*
X35858497Y19963326D01*
X35729878Y19963361D01*
X35608519Y19963406D01*
X35494241Y19963460D01*
X35386862Y19963525D01*
X35286201Y19963600D01*
X35192078Y19963686D01*
X35104313Y19963783D01*
X35022724Y19963892D01*
X34947130Y19964014D01*
X34877351Y19964148D01*
X34813206Y19964295D01*
X34754515Y19964456D01*
X34701096Y19964632D01*
X34652769Y19964821D01*
X34609353Y19965026D01*
X34570667Y19965247D01*
X34536531Y19965483D01*
X34506764Y19965735D01*
X34481184Y19966005D01*
X34459612Y19966291D01*
X34441867Y19966596D01*
X34427768Y19966918D01*
X34417133Y19967259D01*
X34409783Y19967620D01*
X34405536Y19967999D01*
X34404215Y19968368D01*
X34403436Y19974014D01*
X34402273Y19986849D01*
X34400789Y20005909D01*
X34399046Y20030232D01*
X34397108Y20058854D01*
X34395037Y20090813D01*
X34392896Y20125145D01*
X34390748Y20160889D01*
X34388656Y20197081D01*
X34386681Y20232758D01*
X34385391Y20257143D01*
X34384151Y20286951D01*
X34383163Y20322448D01*
X34382467Y20361163D01*
X34382100Y20400627D01*
X34382101Y20438368D01*
X34382267Y20457143D01*
X34383687Y20569388D01*
X34395934Y20593624D01*
X34407267Y20612029D01*
X34420259Y20623925D01*
X34436799Y20630420D01*
X34458772Y20632624D01*
X34462336Y20632653D01*
X34476050Y20632075D01*
X34489910Y20630077D01*
X34504999Y20626266D01*
X34522405Y20620247D01*
X34543212Y20611626D01*
X34568506Y20600009D01*
X34599371Y20585000D01*
X34615166Y20577136D01*
X34638149Y20565718D01*
X34658541Y20555745D01*
X34675264Y20547733D01*
X34687240Y20542195D01*
X34693391Y20539645D01*
X34693969Y20539556D01*
X34694020Y20543929D01*
X34692904Y20553890D01*
X34691502Y20563266D01*
X34686436Y20602886D01*
X34683107Y20647279D01*
X34681644Y20693216D01*
X34682177Y20737465D01*
X34683517Y20761968D01*
X34690152Y20824959D01*
X34700453Y20882071D01*
X34714821Y20934906D01*
X34733656Y20985068D01*
X34745736Y21011429D01*
X34776164Y21065427D01*
X34812117Y21113675D01*
X34853731Y21156278D01*
X34901142Y21193337D01*
X34954484Y21224956D01*
X35013894Y21251238D01*
X35079509Y21272286D01*
X35094005Y21276030D01*
X35112246Y21280155D01*
X35130249Y21283228D01*
X35150037Y21285469D01*
X35173631Y21287100D01*
X35203050Y21288342D01*
X35208310Y21288515D01*
X35246046Y21289119D01*
X35285774Y21288678D01*
X35325751Y21287291D01*
X35364236Y21285055D01*
X35399487Y21282068D01*
X35429762Y21278426D01*
X35449711Y21275009D01*
X35487994Y21270237D01*
X35518710Y21270117D01*
X35538661Y21271402D01*
X35553648Y21273693D01*
X35566867Y21277730D01*
X35581515Y21284249D01*
X35582955Y21284955D01*
X35612987Y21304272D01*
X35638981Y21330636D01*
X35660878Y21363965D01*
X35678619Y21404178D01*
X35685691Y21426077D01*
X35691820Y21448866D01*
X35695071Y21466024D01*
X35695571Y21479510D01*
X35693447Y21491284D01*
X35690469Y21499553D01*
X35677817Y21519427D01*
X35658398Y21534985D01*
X35632446Y21546111D01*
X35600199Y21552686D01*
X35581282Y21554255D01*
X35541475Y21556172D01*
X35534719Y21572984D01*
X35530879Y21582764D01*
X35524868Y21598343D01*
X35517390Y21617883D01*
X35509152Y21639543D01*
X35505577Y21648980D01*
X35497649Y21669618D01*
X35490519Y21687574D01*
X35484764Y21701443D01*
X35480960Y21709821D01*
X35479920Y21711567D01*
X35477171Y21709122D01*
X35471284Y21700388D01*
X35462837Y21686344D01*
X35452410Y21667970D01*
X35440581Y21646243D01*
X35434618Y21634991D01*
X35392588Y21555012D01*
X35364263Y21546577D01*
X35332998Y21537776D01*
X35304832Y21531151D01*
X35277657Y21526425D01*
X35249363Y21523323D01*
X35217839Y21521569D01*
X35180977Y21520887D01*
X35167487Y21520850D01*
X35138162Y21520921D01*
X35115426Y21521213D01*
X35097705Y21521861D01*
X35083424Y21522998D01*
X35071008Y21524759D01*
X35058883Y21527277D01*
X35045473Y21530687D01*
X35042492Y21531489D01*
X34987156Y21550240D01*
X34937262Y21575074D01*
X34892798Y21605995D01*
X34871125Y21625146D01*
X34855061Y21645678D01*
X34842420Y21672530D01*
X34833420Y21704510D01*
X34828282Y21740428D01*
X34827223Y21779096D01*
X34830463Y21819322D01*
X34832707Y21833859D01*
X34845523Y21886100D01*
X34865740Y21937868D01*
X34893528Y21989465D01*
X34929056Y22041192D01*
X34972491Y22093350D01*
X34986179Y22108164D01*
X35000360Y22123655D01*
X35018255Y22143917D01*
X35038482Y22167341D01*
X35059656Y22192322D01*
X35080396Y22217251D01*
X35087440Y22225843D01*
X35105099Y22247314D01*
X35121237Y22266628D01*
X35135086Y22282891D01*
X35145881Y22295210D01*
X35152854Y22302692D01*
X35155049Y22304574D01*
X35159885Y22303224D01*
X35170763Y22298413D01*
X35186605Y22290677D01*
X35206332Y22280550D01*
X35228866Y22268566D01*
X35241265Y22261817D01*
X35264601Y22249094D01*
X35285432Y22237886D01*
X35302736Y22228730D01*
X35315491Y22222164D01*
X35322673Y22218727D01*
X35323873Y22218359D01*
X35323224Y22222455D01*
X35320747Y22233394D01*
X35316700Y22250126D01*
X35311342Y22271601D01*
X35304931Y22296770D01*
X35298254Y22322550D01*
X35271376Y22425574D01*
X35293128Y22448501D01*
X35320472Y22480766D01*
X35342089Y22513561D01*
X35357644Y22546045D01*
X35366800Y22577381D01*
X35369221Y22606730D01*
X35365730Y22629494D01*
X35361464Y22639397D01*
X35353358Y22653934D01*
X35342525Y22671246D01*
X35330076Y22689478D01*
X35328384Y22691837D01*
X35310348Y22717975D01*
X35294358Y22743369D01*
X35281047Y22766843D01*
X35271048Y22787223D01*
X35264996Y22803334D01*
X35263420Y22812362D01*
X35264199Y22820196D01*
X35266346Y22834362D01*
X35269583Y22853197D01*
X35273629Y22875038D01*
X35276234Y22888420D01*
X35283740Y22931295D01*
X35288375Y22969359D01*
X35290124Y23002007D01*
X35288968Y23028631D01*
X35284892Y23048627D01*
X35280870Y23057463D01*
X35268409Y23071491D01*
X35251960Y23079603D01*
X35231248Y23081776D01*
X35205993Y23077986D01*
X35175919Y23068208D01*
X35140748Y23052421D01*
X35124804Y23044212D01*
X35107269Y23034483D01*
X35086542Y23022201D01*
X35062262Y23007126D01*
X35034070Y22989017D01*
X35001605Y22967635D01*
X34964509Y22942738D01*
X34922420Y22914087D01*
X34874979Y22881440D01*
X34821826Y22844558D01*
X34762601Y22803201D01*
X34734764Y22783690D01*
X34672286Y22739886D01*
X34616066Y22700546D01*
X34565701Y22665417D01*
X34520787Y22634245D01*
X34480921Y22606773D01*
X34445699Y22582750D01*
X34414717Y22561919D01*
X34387573Y22544026D01*
X34363861Y22528818D01*
X34343180Y22516039D01*
X34325124Y22505435D01*
X34309292Y22496753D01*
X34295278Y22489736D01*
X34282680Y22484132D01*
X34271094Y22479686D01*
X34260116Y22476142D01*
X34249343Y22473248D01*
X34238371Y22470747D01*
X34238329Y22470738D01*
X34219621Y22467391D01*
X34200005Y22465353D01*
X34177172Y22464475D01*
X34148809Y22464608D01*
X34144873Y22464685D01*
X34105089Y22465503D01*
X34072568Y22466095D01*
X34046412Y22466432D01*
X34025721Y22466480D01*
X34009595Y22466210D01*
X33997138Y22465590D01*
X33987448Y22464587D01*
X33979627Y22463172D01*
X33972777Y22461313D01*
X33965997Y22458977D01*
X33964404Y22458388D01*
X33948051Y22450975D01*
X33927113Y22439486D01*
X33903335Y22424997D01*
X33878463Y22408588D01*
X33854242Y22391337D01*
X33846866Y22385778D01*
X33837786Y22379051D01*
X33823070Y22368416D01*
X33803784Y22354631D01*
X33780992Y22338453D01*
X33755758Y22320640D01*
X33729148Y22301949D01*
X33721839Y22296833D01*
X33640815Y22239707D01*
X33566213Y22186171D01*
X33497386Y22135731D01*
X33433688Y22087896D01*
X33374469Y22042171D01*
X33319084Y21998065D01*
X33266884Y21955084D01*
X33218194Y21913580D01*
X33170156Y21871074D01*
X33128680Y21832526D01*
X33093424Y21797540D01*
X33064041Y21765724D01*
X33040187Y21736681D01*
X33021519Y21710018D01*
X33007691Y21685340D01*
X32998359Y21662253D01*
X32998132Y21661538D01*
X32992844Y21646050D01*
X32987903Y21636067D01*
X32981660Y21629177D01*
X32972465Y21622971D01*
X32971258Y21622258D01*
X32964997Y21619434D01*
X32951598Y21614037D01*
X32931602Y21606269D01*
X32905548Y21596333D01*
X32873978Y21584429D01*
X32837431Y21570760D01*
X32796448Y21555527D01*
X32751570Y21538933D01*
X32703338Y21521178D01*
X32652291Y21502464D01*
X32598970Y21482993D01*
X32562292Y21469643D01*
X32507863Y21449851D01*
X32455410Y21430765D01*
X32405466Y21412581D01*
X32358564Y21395492D01*
X32315238Y21379694D01*
X32276021Y21365380D01*
X32241446Y21352747D01*
X32212047Y21341988D01*
X32188357Y21333299D01*
X32170908Y21326873D01*
X32160235Y21322906D01*
X32157109Y21321708D01*
X32153737Y21320218D01*
X32151796Y21318757D01*
X32151944Y21317079D01*
X32154833Y21314940D01*
X32161120Y21312094D01*
X32171459Y21308295D01*
X32186504Y21303300D01*
X32206912Y21296862D01*
X32233336Y21288738D01*
X32266431Y21278680D01*
X32295907Y21269758D01*
X32343695Y21255286D01*
X32384295Y21242954D01*
X32418340Y21232556D01*
X32446462Y21223886D01*
X32469295Y21216740D01*
X32487471Y21210911D01*
X32501623Y21206195D01*
X32512383Y21202385D01*
X32520384Y21199276D01*
X32526259Y21196662D01*
X32530640Y21194338D01*
X32533406Y21192609D01*
X32544648Y21185122D01*
X32532263Y21166427D01*
X32524094Y21155990D01*
X32510384Y21140762D01*
X32491735Y21121327D01*
X32468749Y21098273D01*
X32442029Y21072183D01*
X32412177Y21043644D01*
X32379794Y21013241D01*
X32345483Y20981559D01*
X32309847Y20949184D01*
X32296421Y20937125D01*
X32273678Y20916677D01*
X32253113Y20898025D01*
X32235459Y20881848D01*
X32221451Y20868824D01*
X32211821Y20859632D01*
X32207304Y20854950D01*
X32207066Y20854503D01*
X32211281Y20854325D01*
X32222956Y20854287D01*
X32241389Y20854381D01*
X32265877Y20854599D01*
X32295717Y20854933D01*
X32330207Y20855375D01*
X32368643Y20855917D01*
X32410324Y20856551D01*
X32454546Y20857269D01*
X32458888Y20857342D01*
X32503669Y20858054D01*
X32546250Y20858647D01*
X32585891Y20859118D01*
X32621852Y20859462D01*
X32653393Y20859673D01*
X32679773Y20859746D01*
X32700253Y20859678D01*
X32714091Y20859462D01*
X32720547Y20859095D01*
X32720675Y20859070D01*
X32734784Y20853518D01*
X32746028Y20844659D01*
X32752230Y20834425D01*
X32752813Y20830508D01*
X32752254Y20822497D01*
X32750298Y20814186D01*
X32746522Y20805065D01*
X32740506Y20794627D01*
X32731827Y20782363D01*
X32720064Y20767764D01*
X32704796Y20750323D01*
X32685601Y20729530D01*
X32662058Y20704877D01*
X32633745Y20675856D01*
X32600241Y20641958D01*
X32577975Y20619572D01*
X32541978Y20583282D01*
X32511402Y20552119D01*
X32486325Y20526165D01*
X32466826Y20505503D01*
X32452983Y20490217D01*
X32444873Y20480390D01*
X32442576Y20476105D01*
X32442765Y20475935D01*
X32448432Y20474841D01*
X32460919Y20472911D01*
X32478944Y20470327D01*
X32501225Y20467270D01*
X32526482Y20463923D01*
X32535355Y20462773D01*
X32561217Y20459338D01*
X32584428Y20456067D01*
X32603734Y20453151D01*
X32617878Y20450782D01*
X32625606Y20449154D01*
X32626552Y20448801D01*
X32627999Y20443340D01*
X32624072Y20432554D01*
X32615071Y20416984D01*
X32601296Y20397173D01*
X32588971Y20381068D01*
X32568376Y20355761D01*
X32542734Y20325523D01*
X32512792Y20291173D01*
X32479295Y20253533D01*
X32442989Y20213425D01*
X32404621Y20171667D01*
X32364936Y20129083D01*
X32324681Y20086492D01*
X32284602Y20044715D01*
X32263966Y20023470D01*
X32213183Y19971429D01*
X30142495Y19971429D01*
X30211878Y20041837D01*
X30223808Y20053955D01*
X30236379Y20066750D01*
X30249911Y20080549D01*
X30264722Y20095680D01*
X30281133Y20112473D01*
X30299463Y20131256D01*
X30320031Y20152357D01*
X30343159Y20176105D01*
X30369164Y20202828D01*
X30398367Y20232855D01*
X30431088Y20266513D01*
X30467646Y20304132D01*
X30508360Y20346040D01*
X30553551Y20392566D01*
X30603538Y20444037D01*
X30658641Y20500782D01*
X30705439Y20548980D01*
X30736660Y20581123D01*
X30768497Y20613877D01*
X30800037Y20646304D01*
X30830368Y20677469D01*
X30858577Y20706432D01*
X30883752Y20732258D01*
X30904981Y20754009D01*
X30920020Y20769388D01*
X30932604Y20782266D01*
X30950367Y20800484D01*
X30972806Y20823523D01*
X30999413Y20850864D01*
X31029686Y20881988D01*
X31063118Y20916375D01*
X31099205Y20953505D01*
X31137443Y20992860D01*
X31177325Y21033920D01*
X31218348Y21076165D01*
X31260006Y21119077D01*
X31277144Y21136735D01*
X31318918Y21179770D01*
X31360264Y21222352D01*
X31400678Y21263961D01*
X31439654Y21304078D01*
X31476688Y21342183D01*
X31511274Y21377757D01*
X31542908Y21410281D01*
X31571085Y21439235D01*
X31595299Y21464100D01*
X31615047Y21484356D01*
X31629821Y21499485D01*
X31634321Y21504082D01*
X31643150Y21513096D01*
X31652738Y21522897D01*
X31663309Y21533715D01*
X31675088Y21545782D01*
X31688300Y21559328D01*
X31703168Y21574583D01*
X31719917Y21591779D01*
X31738772Y21611147D01*
X31759957Y21632916D01*
X31783696Y21657319D01*
X31810214Y21684585D01*
X31839735Y21714946D01*
X31872483Y21748632D01*
X31908684Y21785874D01*
X31948560Y21826903D01*
X31992338Y21871950D01*
X32040240Y21921244D01*
X32092492Y21975019D01*
X32149318Y22033503D01*
X32210942Y22096927D01*
X32277588Y22165524D01*
X32349482Y22239522D01*
X32424137Y22316364D01*
X32467550Y22361045D01*
X32512280Y22407072D01*
X32557611Y22453710D01*
X32602825Y22500221D01*
X32647206Y22545867D01*
X32690037Y22589912D01*
X32730601Y22631618D01*
X32768181Y22670247D01*
X32802060Y22705064D01*
X32831521Y22735330D01*
X32850776Y22755102D01*
X32873433Y22778371D01*
X32901216Y22806920D01*
X32933565Y22840172D01*
X32969920Y22877551D01*
X33009719Y22918480D01*
X33052401Y22962381D01*
X33097407Y23008680D01*
X33144175Y23056798D01*
X33192145Y23106158D01*
X33240755Y23156185D01*
X33289446Y23206301D01*
X33337656Y23255929D01*
X33354694Y23273470D01*
X33400631Y23320758D01*
X33445952Y23367404D01*
X33490225Y23412961D01*
X33533016Y23456984D01*
X33573891Y23499026D01*
X33612417Y23538643D01*
X33648161Y23575388D01*
X33680688Y23608817D01*
X33709566Y23638482D01*
X33734361Y23663940D01*
X33754639Y23684743D01*
X33769967Y23700446D01*
X33777517Y23708164D01*
X33799244Y23730376D01*
X33821403Y23753105D01*
X33842574Y23774888D01*
X33861335Y23794263D01*
X33876266Y23809767D01*
X33880148Y23813823D01*
X33914778Y23850095D01*
X34209851Y23466884D01*
G37*
G04 #@! TO.C,C6*
X12790000Y33453733D02*
X12790000Y33746267D01*
X13810000Y33453733D02*
X13810000Y33746267D01*
G04 #@! TO.C,G\u002A\u002A\u002A*
G36*
X3677127Y22181290D02*
G01*
X3674620Y22178784D01*
X3672114Y22181290D01*
X3674620Y22183797D01*
X3677127Y22181290D01*
G37*
G36*
X4850129Y21424353D02*
G01*
X4847622Y21421847D01*
X4845116Y21424353D01*
X4847622Y21426860D01*
X4850129Y21424353D01*
G37*
G36*
X4988223Y20812600D02*
G01*
X5016507Y20794677D01*
X5041826Y20778349D01*
X5062979Y20764414D01*
X5078762Y20753671D01*
X5087973Y20746918D01*
X5089856Y20745086D01*
X5087835Y20739144D01*
X5081353Y20728785D01*
X5072643Y20716966D01*
X5063934Y20706644D01*
X5057460Y20700775D01*
X5056069Y20700325D01*
X5050755Y20702838D01*
X5038827Y20709334D01*
X5022299Y20718700D01*
X5010748Y20725388D01*
X4993287Y20735829D01*
X4969481Y20750429D01*
X4941401Y20767897D01*
X4911119Y20786943D01*
X4880706Y20806277D01*
X4876411Y20809027D01*
X4844639Y20829425D01*
X4821011Y20845019D01*
X4805267Y20856468D01*
X4797146Y20864431D01*
X4796387Y20869569D01*
X4802728Y20872540D01*
X4815910Y20874004D01*
X4835671Y20874621D01*
X4850371Y20874855D01*
X4888209Y20875448D01*
X4988223Y20812600D01*
G37*
G36*
X5242622Y22326662D02*
G01*
X5239010Y22267595D01*
X5240810Y22215010D01*
X5248137Y22166876D01*
X5252561Y22148707D01*
X5258400Y22127426D01*
X5263559Y22109257D01*
X5267306Y22096754D01*
X5268533Y22093127D01*
X5267984Y22088570D01*
X5262068Y22083141D01*
X5249545Y22076043D01*
X5229175Y22066477D01*
X5222555Y22063537D01*
X5193321Y22050697D01*
X5172005Y22041474D01*
X5157371Y22035403D01*
X5148180Y22032017D01*
X5143195Y22030848D01*
X5141180Y22031430D01*
X5140873Y22032714D01*
X5142441Y22039777D01*
X5146405Y22052483D01*
X5148695Y22059099D01*
X5153722Y22074847D01*
X5159617Y22095803D01*
X5165775Y22119478D01*
X5171587Y22143380D01*
X5176448Y22165016D01*
X5179751Y22181895D01*
X5180892Y22191316D01*
X5178558Y22203532D01*
X5176192Y22208661D01*
X5171740Y22212876D01*
X5165581Y22210387D01*
X5160497Y22206155D01*
X5148072Y22192197D01*
X5132940Y22170420D01*
X5116066Y22142335D01*
X5098418Y22109449D01*
X5097941Y22108512D01*
X5087913Y22089078D01*
X5078519Y22071411D01*
X5071492Y22058759D01*
X5070448Y22056990D01*
X5061998Y22042973D01*
X5033618Y22101544D01*
X5023157Y22123390D01*
X5014653Y22141633D01*
X5008880Y22154580D01*
X5006609Y22160539D01*
X5006636Y22160740D01*
X5011117Y22163601D01*
X5022151Y22170855D01*
X5037952Y22181323D01*
X5052340Y22190896D01*
X5091057Y22218774D01*
X5130514Y22251503D01*
X5172275Y22290444D01*
X5207532Y22326089D01*
X5246622Y22366765D01*
X5242622Y22326662D01*
G37*
G36*
X5683244Y22483026D02*
G01*
X5704857Y22477353D01*
X5714588Y22472593D01*
X5729747Y22464376D01*
X5748593Y22453735D01*
X5769383Y22441698D01*
X5790376Y22429296D01*
X5809830Y22417561D01*
X5826001Y22407522D01*
X5837149Y22400209D01*
X5841531Y22396654D01*
X5841513Y22396522D01*
X5836330Y22396843D01*
X5823594Y22398864D01*
X5805561Y22402209D01*
X5795025Y22404307D01*
X5758336Y22411419D01*
X5730439Y22415954D01*
X5710457Y22417985D01*
X5697513Y22417585D01*
X5690729Y22414825D01*
X5689510Y22412992D01*
X5690382Y22405431D01*
X5695132Y22391453D01*
X5702876Y22373463D01*
X5707670Y22363567D01*
X5723558Y22326837D01*
X5731330Y22295400D01*
X5730897Y22268540D01*
X5722172Y22245545D01*
X5705067Y22225702D01*
X5689246Y22214048D01*
X5662739Y22201475D01*
X5629301Y22192046D01*
X5591612Y22186065D01*
X5552357Y22183837D01*
X5514216Y22185665D01*
X5484044Y22190789D01*
X5447290Y22202569D01*
X5418676Y22218711D01*
X5396795Y22240516D01*
X5380240Y22269281D01*
X5370688Y22295496D01*
X5364295Y22320959D01*
X5362108Y22344151D01*
X5362953Y22365976D01*
X5364775Y22385366D01*
X5366898Y22401866D01*
X5368865Y22411939D01*
X5368885Y22412007D01*
X5367850Y22424652D01*
X5358958Y22441440D01*
X5345874Y22460721D01*
X5357580Y22457783D01*
X5367897Y22455865D01*
X5384990Y22453361D01*
X5405665Y22450728D01*
X5411963Y22449995D01*
X5443702Y22447734D01*
X5475036Y22448596D01*
X5508502Y22452875D01*
X5546639Y22460865D01*
X5579495Y22469377D01*
X5621208Y22479245D01*
X5655462Y22483774D01*
X5683244Y22483026D01*
G37*
G36*
X4835617Y22688459D02*
G01*
X4855958Y22687818D01*
X4881246Y22686743D01*
X4902246Y22685693D01*
X4936016Y22683778D01*
X4961759Y22681497D01*
X4981459Y22677933D01*
X4997099Y22672168D01*
X5010663Y22663286D01*
X5024133Y22650368D01*
X5039495Y22632498D01*
X5052858Y22616025D01*
X5068898Y22597241D01*
X5084958Y22580276D01*
X5098726Y22567491D01*
X5105100Y22562696D01*
X5124443Y22551403D01*
X5149716Y22537920D01*
X5177594Y22523921D01*
X5204755Y22511078D01*
X5225748Y22501931D01*
X5252976Y22490776D01*
X5235774Y22487259D01*
X5212067Y22482130D01*
X5195848Y22477430D01*
X5184726Y22471868D01*
X5176312Y22464154D01*
X5168217Y22452996D01*
X5165985Y22449551D01*
X5145706Y22422951D01*
X5120726Y22397777D01*
X5093784Y22376417D01*
X5067620Y22361260D01*
X5062094Y22358939D01*
X5039906Y22352834D01*
X5011224Y22348407D01*
X4979266Y22345813D01*
X4947251Y22345211D01*
X4918397Y22346757D01*
X4895921Y22350607D01*
X4895244Y22350799D01*
X4853274Y22367073D01*
X4819237Y22389428D01*
X4793043Y22417936D01*
X4779518Y22441185D01*
X4773025Y22455207D01*
X4769539Y22465765D01*
X4769685Y22474994D01*
X4774090Y22485025D01*
X4783381Y22497994D01*
X4798185Y22516032D01*
X4803303Y22522163D01*
X4816985Y22537924D01*
X4829249Y22549947D01*
X4842628Y22560112D01*
X4859650Y22570295D01*
X4882846Y22582376D01*
X4887725Y22584823D01*
X4909025Y22595491D01*
X4926863Y22604459D01*
X4939437Y22610819D01*
X4944944Y22613662D01*
X4945007Y22613699D01*
X4943311Y22617716D01*
X4936446Y22626101D01*
X4933790Y22628947D01*
X4923135Y22636997D01*
X4905393Y22647099D01*
X4882934Y22657978D01*
X4867531Y22664615D01*
X4846819Y22673339D01*
X4830254Y22680736D01*
X4819595Y22685990D01*
X4816528Y22688240D01*
X4821912Y22688617D01*
X4835617Y22688459D01*
G37*
G36*
X3686657Y22153365D02*
G01*
X3695217Y22138537D01*
X3706601Y22117794D01*
X3720238Y22092144D01*
X3731233Y22071008D01*
X3778739Y21980459D01*
X3823502Y21898490D01*
X3866112Y21824224D01*
X3907156Y21756783D01*
X3947220Y21695292D01*
X3986895Y21638872D01*
X4026766Y21586648D01*
X4067423Y21537742D01*
X4109452Y21491278D01*
X4143058Y21456675D01*
X4162878Y21437429D01*
X4186265Y21415612D01*
X4211046Y21393165D01*
X4235045Y21372035D01*
X4256090Y21354165D01*
X4271147Y21342143D01*
X4283313Y21332269D01*
X4298598Y21318949D01*
X4308743Y21309672D01*
X4321522Y21298048D01*
X4339657Y21282012D01*
X4361599Y21262890D01*
X4385799Y21242004D01*
X4410707Y21220681D01*
X4434774Y21200244D01*
X4456450Y21182020D01*
X4474187Y21167331D01*
X4486434Y21157503D01*
X4488951Y21155594D01*
X4505170Y21143635D01*
X4483402Y21140247D01*
X4458717Y21136967D01*
X4440508Y21136695D01*
X4425472Y21140230D01*
X4410305Y21148373D01*
X4391705Y21161923D01*
X4390720Y21162685D01*
X4345737Y21197836D01*
X4307126Y21228891D01*
X4273011Y21257459D01*
X4241520Y21285147D01*
X4210778Y21313564D01*
X4178911Y21344318D01*
X4177743Y21345466D01*
X4154969Y21367720D01*
X4134078Y21387883D01*
X4116319Y21404771D01*
X4102939Y21417199D01*
X4095186Y21423983D01*
X4094437Y21424546D01*
X4087177Y21431096D01*
X4074691Y21443882D01*
X4058239Y21461496D01*
X4039080Y21482526D01*
X4018473Y21505564D01*
X3997677Y21529199D01*
X3977951Y21552022D01*
X3960554Y21572622D01*
X3946745Y21589591D01*
X3944635Y21592283D01*
X3895713Y21660661D01*
X3850463Y21735449D01*
X3808263Y21817772D01*
X3768491Y21908754D01*
X3765557Y21916036D01*
X3753768Y21946233D01*
X3741067Y21980077D01*
X3728084Y22015763D01*
X3715446Y22051486D01*
X3703780Y22085442D01*
X3693714Y22115826D01*
X3685875Y22140833D01*
X3680892Y22158659D01*
X3680285Y22161239D01*
X3681490Y22161269D01*
X3686657Y22153365D01*
G37*
G36*
X6290857Y21431365D02*
G01*
X6279274Y21420727D01*
X6260439Y21405981D01*
X6235764Y21388061D01*
X6206662Y21367901D01*
X6174545Y21346437D01*
X6140824Y21324602D01*
X6106914Y21303333D01*
X6074226Y21283562D01*
X6044172Y21266226D01*
X6027738Y21257246D01*
X5959687Y21224012D01*
X5881668Y21191382D01*
X5793718Y21159369D01*
X5695877Y21127985D01*
X5588183Y21097244D01*
X5470677Y21067156D01*
X5346399Y21038397D01*
X5328029Y21034488D01*
X5309706Y21030944D01*
X5290672Y21027704D01*
X5270172Y21024704D01*
X5247450Y21021884D01*
X5221750Y21019181D01*
X5192316Y21016533D01*
X5158393Y21013879D01*
X5119225Y21011157D01*
X5074055Y21008304D01*
X5022129Y21005259D01*
X4962689Y21001960D01*
X4894980Y20998344D01*
X4818247Y20994351D01*
X4792481Y20993026D01*
X4742043Y20990717D01*
X4686507Y20988672D01*
X4627307Y20986906D01*
X4565874Y20985438D01*
X4503643Y20984285D01*
X4442047Y20983462D01*
X4382518Y20982988D01*
X4326490Y20982880D01*
X4275397Y20983154D01*
X4230670Y20983828D01*
X4193743Y20984919D01*
X4177387Y20985697D01*
X4150975Y20987382D01*
X4128017Y20989207D01*
X4110430Y20990992D01*
X4100131Y20992556D01*
X4098435Y20993108D01*
X4095539Y20999545D01*
X4093634Y21012690D01*
X4093192Y21024089D01*
X4093192Y21051830D01*
X4187182Y21048046D01*
X4228783Y21046680D01*
X4276999Y21045619D01*
X4330273Y21044859D01*
X4387047Y21044393D01*
X4445765Y21044217D01*
X4504869Y21044325D01*
X4562803Y21044712D01*
X4618009Y21045372D01*
X4668930Y21046300D01*
X4714010Y21047490D01*
X4751690Y21048938D01*
X4772430Y21050075D01*
X4896506Y21058695D01*
X5011289Y21067929D01*
X5117500Y21077885D01*
X5215858Y21088671D01*
X5307084Y21100394D01*
X5391897Y21113160D01*
X5471019Y21127079D01*
X5545169Y21142256D01*
X5615067Y21158799D01*
X5681433Y21176816D01*
X5737399Y21193947D01*
X5786909Y21210954D01*
X5843362Y21232132D01*
X5904972Y21256721D01*
X5969954Y21283961D01*
X6036522Y21313089D01*
X6102891Y21343347D01*
X6167276Y21373973D01*
X6212184Y21396220D01*
X6238199Y21409133D01*
X6260302Y21419679D01*
X6277292Y21427319D01*
X6287971Y21431520D01*
X6291137Y21431744D01*
X6290857Y21431365D01*
G37*
G36*
X3233364Y21163686D02*
G01*
X3245054Y21142417D01*
X3259007Y21126380D01*
X3273440Y21117373D01*
X3280624Y21116064D01*
X3290639Y21119037D01*
X3303580Y21128566D01*
X3320688Y21145573D01*
X3321216Y21146141D01*
X3335296Y21160174D01*
X3347875Y21170712D01*
X3356733Y21175948D01*
X3358196Y21176218D01*
X3363490Y21174786D01*
X3365982Y21168917D01*
X3366387Y21156254D01*
X3366173Y21149901D01*
X3365513Y21128865D01*
X3365993Y21115899D01*
X3368123Y21109065D01*
X3372410Y21106428D01*
X3377692Y21106039D01*
X3386388Y21108908D01*
X3395692Y21118507D01*
X3404863Y21132470D01*
X3420286Y21155700D01*
X3433499Y21169847D01*
X3445079Y21175459D01*
X3449923Y21175343D01*
X3455191Y21172381D01*
X3458747Y21164540D01*
X3461331Y21149727D01*
X3462392Y21140041D01*
X3464856Y21118859D01*
X3467743Y21105781D01*
X3471990Y21098899D01*
X3478531Y21096305D01*
X3483959Y21096013D01*
X3493877Y21099367D01*
X3505324Y21110190D01*
X3513731Y21121077D01*
X3523891Y21134260D01*
X3532205Y21143339D01*
X3536314Y21146141D01*
X3542058Y21142574D01*
X3550903Y21133648D01*
X3554112Y21129850D01*
X3570724Y21110188D01*
X3582934Y21098403D01*
X3592056Y21094129D01*
X3599403Y21097007D01*
X3606289Y21106673D01*
X3610183Y21114386D01*
X3624706Y21134558D01*
X3646313Y21151260D01*
X3666289Y21160380D01*
X3683022Y21165979D01*
X3679357Y21122223D01*
X3676550Y21080719D01*
X3676063Y21047060D01*
X3678213Y21019266D01*
X3683319Y20995360D01*
X3691700Y20973363D01*
X3703674Y20951294D01*
X3707976Y20944424D01*
X3715446Y20932847D01*
X3719393Y20924694D01*
X3719199Y20917631D01*
X3714247Y20909327D01*
X3703922Y20897451D01*
X3692165Y20884672D01*
X3679633Y20870989D01*
X3664595Y20883314D01*
X3641692Y20899919D01*
X3612678Y20917771D01*
X3580949Y20934942D01*
X3549902Y20949501D01*
X3543214Y20952278D01*
X3529369Y20957753D01*
X3517663Y20961798D01*
X3506212Y20964645D01*
X3493132Y20966524D01*
X3476541Y20967669D01*
X3454554Y20968311D01*
X3425287Y20968684D01*
X3408941Y20968828D01*
X3373765Y20969271D01*
X3346731Y20970035D01*
X3325955Y20971286D01*
X3309555Y20973188D01*
X3295647Y20975908D01*
X3282349Y20979612D01*
X3280786Y20980105D01*
X3248619Y20994137D01*
X3223515Y21013138D01*
X3206486Y21036214D01*
X3200766Y21050897D01*
X3197850Y21073844D01*
X3199348Y21101927D01*
X3204784Y21131525D01*
X3213687Y21159022D01*
X3215449Y21163090D01*
X3224784Y21183737D01*
X3233364Y21163686D01*
G37*
G36*
X5479855Y20634833D02*
G01*
X5475026Y20602599D01*
X5474600Y20576180D01*
X5478456Y20556563D01*
X5486475Y20544733D01*
X5491176Y20542284D01*
X5499426Y20540998D01*
X5509082Y20542877D01*
X5522198Y20548694D01*
X5540829Y20559217D01*
X5548344Y20563737D01*
X5567574Y20574105D01*
X5579909Y20577365D01*
X5585753Y20573284D01*
X5585509Y20561629D01*
X5580626Y20545054D01*
X5575554Y20528623D01*
X5572441Y20514402D01*
X5571976Y20509466D01*
X5573372Y20501742D01*
X5579552Y20500046D01*
X5586327Y20501103D01*
X5598043Y20505175D01*
X5614416Y20512958D01*
X5630189Y20521768D01*
X5651340Y20532708D01*
X5669536Y20538703D01*
X5683280Y20539551D01*
X5691075Y20535048D01*
X5692284Y20530218D01*
X5689295Y20521632D01*
X5681492Y20508448D01*
X5671551Y20494808D01*
X5659636Y20478354D01*
X5654970Y20467867D01*
X5656008Y20463578D01*
X5664187Y20460532D01*
X5676584Y20464308D01*
X5694004Y20475256D01*
X5708502Y20486466D01*
X5730204Y20503274D01*
X5746417Y20513753D01*
X5758625Y20518777D01*
X5764640Y20519538D01*
X5771142Y20515724D01*
X5772038Y20505326D01*
X5767565Y20489906D01*
X5757960Y20471027D01*
X5757088Y20469594D01*
X5748783Y20453755D01*
X5743917Y20439779D01*
X5743302Y20433175D01*
X5747338Y20423456D01*
X5756042Y20420890D01*
X5769953Y20425600D01*
X5789610Y20437712D01*
X5801815Y20446621D01*
X5819977Y20459938D01*
X5832332Y20467640D01*
X5840703Y20470618D01*
X5846912Y20469762D01*
X5848068Y20469202D01*
X5855244Y20464942D01*
X5857107Y20460370D01*
X5854487Y20451575D01*
X5852766Y20447040D01*
X5843939Y20431918D01*
X5828421Y20413251D01*
X5808070Y20392728D01*
X5784744Y20372040D01*
X5760301Y20352876D01*
X5736599Y20336928D01*
X5723814Y20329761D01*
X5695802Y20320878D01*
X5664886Y20320372D01*
X5633706Y20328267D01*
X5632130Y20328907D01*
X5618624Y20334880D01*
X5598904Y20344083D01*
X5575704Y20355223D01*
X5553565Y20366105D01*
X5518804Y20382703D01*
X5488548Y20395222D01*
X5460127Y20404314D01*
X5430869Y20410634D01*
X5398100Y20414835D01*
X5359150Y20417573D01*
X5339671Y20418470D01*
X5308333Y20419863D01*
X5285503Y20421216D01*
X5269666Y20422747D01*
X5259309Y20424674D01*
X5252917Y20427214D01*
X5248976Y20430586D01*
X5248164Y20431628D01*
X5243207Y20445579D01*
X5248204Y20460187D01*
X5263105Y20475404D01*
X5287865Y20491180D01*
X5322208Y20507372D01*
X5339217Y20514702D01*
X5352787Y20521409D01*
X5364714Y20528885D01*
X5376793Y20538517D01*
X5390818Y20551695D01*
X5408586Y20569811D01*
X5424815Y20586808D01*
X5446992Y20609784D01*
X5463088Y20625616D01*
X5473593Y20634730D01*
X5478996Y20637555D01*
X5479855Y20634833D01*
G37*
G36*
X5353760Y18877345D02*
G01*
X5407509Y18869445D01*
X5467703Y18854239D01*
X5482751Y18849612D01*
X5508673Y18840879D01*
X5528437Y18833181D01*
X5541222Y18826935D01*
X5546208Y18822557D01*
X5542574Y18820463D01*
X5540446Y18820348D01*
X5523092Y18815906D01*
X5503241Y18804373D01*
X5482899Y18787616D01*
X5464072Y18767499D01*
X5448766Y18745890D01*
X5439597Y18726530D01*
X5432208Y18689646D01*
X5434007Y18650705D01*
X5444748Y18611039D01*
X5464182Y18571976D01*
X5470080Y18562886D01*
X5487235Y18541066D01*
X5510719Y18516022D01*
X5538353Y18489836D01*
X5567959Y18464590D01*
X5592904Y18445527D01*
X5655256Y18404105D01*
X5715361Y18370996D01*
X5772873Y18346275D01*
X5827445Y18330016D01*
X5878734Y18322294D01*
X5926392Y18323182D01*
X5970075Y18332755D01*
X6009436Y18351088D01*
X6015054Y18354668D01*
X6031153Y18367242D01*
X6046468Y18382427D01*
X6058997Y18397859D01*
X6066734Y18411175D01*
X6068246Y18417408D01*
X6065446Y18421146D01*
X6056056Y18423296D01*
X6038590Y18424137D01*
X6032041Y18424176D01*
X6013588Y18424291D01*
X6003736Y18424964D01*
X6001064Y18426680D01*
X6004147Y18429927D01*
X6007724Y18432502D01*
X6020022Y18438080D01*
X6036854Y18442237D01*
X6043492Y18443124D01*
X6058187Y18444034D01*
X6066566Y18442057D01*
X6072248Y18435629D01*
X6075771Y18429177D01*
X6083773Y18409522D01*
X6091892Y18382156D01*
X6099625Y18349373D01*
X6106469Y18313470D01*
X6111918Y18276740D01*
X6114568Y18252486D01*
X6117169Y18169457D01*
X6110101Y18085533D01*
X6093589Y18001435D01*
X6067859Y17917884D01*
X6033135Y17835598D01*
X5989644Y17755300D01*
X5937611Y17677710D01*
X5932660Y17671075D01*
X5869648Y17592830D01*
X5805769Y17524485D01*
X5740883Y17465941D01*
X5674852Y17417097D01*
X5607537Y17377855D01*
X5538799Y17348116D01*
X5468499Y17327779D01*
X5446655Y17323420D01*
X5413856Y17319381D01*
X5374912Y17317461D01*
X5333476Y17317643D01*
X5293200Y17319913D01*
X5257955Y17324218D01*
X5205986Y17335700D01*
X5150901Y17353375D01*
X5091330Y17377724D01*
X5051414Y17396444D01*
X5026318Y17408462D01*
X5003881Y17418715D01*
X4985856Y17426440D01*
X4973996Y17430873D01*
X4970595Y17431636D01*
X4962642Y17428644D01*
X4949587Y17420714D01*
X4933952Y17409419D01*
X4930374Y17406603D01*
X4901327Y17386726D01*
X4874567Y17376034D01*
X4848672Y17374400D01*
X4822218Y17381697D01*
X4798304Y17394777D01*
X4780373Y17410182D01*
X4768478Y17429869D01*
X4762103Y17455284D01*
X4760966Y17482305D01*
X5192512Y17482305D01*
X5193243Y17480614D01*
X5193357Y17480545D01*
X5215911Y17471923D01*
X5247460Y17466326D01*
X5288207Y17463729D01*
X5331360Y17463893D01*
X5362858Y17465028D01*
X5387110Y17466695D01*
X5406893Y17469269D01*
X5424986Y17473123D01*
X5444167Y17478633D01*
X5446655Y17479417D01*
X5500825Y17499865D01*
X5552477Y17526424D01*
X5604370Y17560555D01*
X5616056Y17569197D01*
X5669862Y17615247D01*
X5715416Y17666324D01*
X5753110Y17723028D01*
X5783335Y17785963D01*
X5806482Y17855730D01*
X5809261Y17866398D01*
X5817648Y17905423D01*
X5824321Y17947961D01*
X5828973Y17990980D01*
X5831300Y18031448D01*
X5830996Y18066334D01*
X5830318Y18075567D01*
X5826699Y18114193D01*
X5802507Y18110866D01*
X5781190Y18110040D01*
X5761835Y18114945D01*
X5756604Y18117131D01*
X5736738Y18125442D01*
X5721089Y18129982D01*
X5707892Y18130062D01*
X5695386Y18124995D01*
X5681806Y18114094D01*
X5665389Y18096672D01*
X5646045Y18074032D01*
X5631241Y18056494D01*
X5618800Y18041889D01*
X5610136Y18031870D01*
X5606764Y18028162D01*
X5602405Y18023132D01*
X5592797Y18011350D01*
X5578855Y17993973D01*
X5561490Y17972159D01*
X5541616Y17947065D01*
X5520145Y17919848D01*
X5497991Y17891666D01*
X5476065Y17863677D01*
X5455282Y17837037D01*
X5436553Y17812905D01*
X5420791Y17792436D01*
X5418968Y17790053D01*
X5375319Y17732900D01*
X5337416Y17683178D01*
X5304887Y17640377D01*
X5277359Y17603985D01*
X5254460Y17573492D01*
X5235819Y17548388D01*
X5221062Y17528161D01*
X5209817Y17512300D01*
X5201712Y17500294D01*
X5196374Y17491634D01*
X5193432Y17485808D01*
X5192512Y17482305D01*
X4760966Y17482305D01*
X4760732Y17487873D01*
X4761195Y17498834D01*
X4763778Y17544135D01*
X4744853Y17572005D01*
X4727110Y17598977D01*
X4708221Y17629122D01*
X4689673Y17659938D01*
X4672954Y17688927D01*
X4669439Y17695394D01*
X4884253Y17695394D01*
X4884826Y17689673D01*
X4887456Y17684623D01*
X4890658Y17680366D01*
X4898710Y17672764D01*
X4913695Y17661013D01*
X4934023Y17646239D01*
X4958100Y17629567D01*
X4984335Y17612122D01*
X5011135Y17595029D01*
X5013443Y17593594D01*
X5021699Y17589074D01*
X5025755Y17589118D01*
X5025604Y17594871D01*
X5021234Y17607479D01*
X5013174Y17626836D01*
X5000202Y17657869D01*
X4991858Y17680753D01*
X4988520Y17696419D01*
X4990567Y17705800D01*
X4998377Y17709826D01*
X5012329Y17709429D01*
X5032802Y17705541D01*
X5044096Y17702936D01*
X5066147Y17697731D01*
X5085434Y17693183D01*
X5099267Y17689927D01*
X5103824Y17688858D01*
X5114397Y17686391D01*
X5104916Y17723183D01*
X5099446Y17748117D01*
X5094800Y17775777D01*
X5092366Y17796319D01*
X5089297Y17832662D01*
X5111325Y17832575D01*
X5131685Y17831016D01*
X5158960Y17826767D01*
X5190543Y17820282D01*
X5212389Y17815020D01*
X5226259Y17811482D01*
X5207719Y17847974D01*
X5194136Y17879258D01*
X5187203Y17906106D01*
X5187024Y17927659D01*
X5193702Y17943058D01*
X5196017Y17945458D01*
X5201860Y17949697D01*
X5209681Y17952677D01*
X5221374Y17954693D01*
X5238829Y17956040D01*
X5263939Y17957012D01*
X5271727Y17957233D01*
X5295863Y17958009D01*
X5315903Y17958884D01*
X5329980Y17959759D01*
X5336225Y17960534D01*
X5336373Y17960650D01*
X5334763Y17965786D01*
X5330476Y17978018D01*
X5324325Y17995041D01*
X5321956Y18001503D01*
X5310611Y18034193D01*
X5304080Y18058880D01*
X5302764Y18076560D01*
X5307063Y18088232D01*
X5317377Y18094892D01*
X5334106Y18097539D01*
X5357650Y18097170D01*
X5360264Y18097013D01*
X5380661Y18095926D01*
X5392820Y18095967D01*
X5398491Y18097392D01*
X5399424Y18100458D01*
X5398682Y18102635D01*
X5393540Y18116890D01*
X5387886Y18135891D01*
X5382588Y18156249D01*
X5378517Y18174573D01*
X5376542Y18187474D01*
X5376476Y18189162D01*
X5379903Y18206515D01*
X5390644Y18218408D01*
X5409391Y18225365D01*
X5427187Y18227550D01*
X5448277Y18227807D01*
X5468980Y18226429D01*
X5480492Y18224603D01*
X5493318Y18222499D01*
X5500909Y18222876D01*
X5501796Y18223851D01*
X5497889Y18228789D01*
X5487429Y18237765D01*
X5472310Y18249414D01*
X5454425Y18262373D01*
X5435668Y18275276D01*
X5417934Y18286760D01*
X5403114Y18295461D01*
X5400453Y18296857D01*
X5385108Y18303768D01*
X5372080Y18308115D01*
X5367217Y18308881D01*
X5360055Y18304949D01*
X5347432Y18293561D01*
X5329845Y18275325D01*
X5307788Y18250847D01*
X5281758Y18220738D01*
X5252250Y18185604D01*
X5219759Y18146054D01*
X5184780Y18102696D01*
X5147810Y18056138D01*
X5109343Y18006989D01*
X5069875Y17955857D01*
X5029902Y17903349D01*
X4989918Y17850074D01*
X4955106Y17803024D01*
X4931675Y17771072D01*
X4913633Y17746136D01*
X4900426Y17727157D01*
X4891497Y17713079D01*
X4886291Y17702844D01*
X4884253Y17695394D01*
X4669439Y17695394D01*
X4659551Y17713587D01*
X4653899Y17724886D01*
X4643240Y17754195D01*
X4639525Y17781300D01*
X4642364Y17804937D01*
X4651367Y17823846D01*
X4666143Y17836762D01*
X4686304Y17842425D01*
X4690250Y17842576D01*
X4709127Y17838221D01*
X4729994Y17825766D01*
X4751193Y17806449D01*
X4769923Y17783162D01*
X4779524Y17769875D01*
X4786876Y17760649D01*
X4790022Y17757704D01*
X4794280Y17761246D01*
X4799227Y17768120D01*
X4804029Y17775060D01*
X4813898Y17788764D01*
X4827907Y17807963D01*
X4845126Y17831386D01*
X4864627Y17857764D01*
X4877155Y17874642D01*
X4900461Y17905997D01*
X4924745Y17938682D01*
X4948382Y17970506D01*
X4969744Y17999279D01*
X4987205Y18022811D01*
X4991173Y18028162D01*
X5003742Y18045091D01*
X5021375Y18068806D01*
X5043140Y18098057D01*
X5068106Y18131593D01*
X5095344Y18168163D01*
X5123921Y18206518D01*
X5152907Y18245408D01*
X5160113Y18255072D01*
X5286312Y18424335D01*
X5256390Y18475637D01*
X5233269Y18518099D01*
X5212424Y18561835D01*
X5194993Y18604197D01*
X5182112Y18642538D01*
X5178060Y18657960D01*
X5173294Y18686957D01*
X5171404Y18718641D01*
X5172268Y18750167D01*
X5175761Y18778686D01*
X5181758Y18801352D01*
X5184573Y18807657D01*
X5204862Y18836114D01*
X5232008Y18857323D01*
X5265927Y18871272D01*
X5306539Y18877950D01*
X5353760Y18877345D01*
G37*
G36*
X4260659Y24078259D02*
G01*
X4401638Y24065567D01*
X4543857Y24044909D01*
X4645147Y24025609D01*
X4742673Y24003089D01*
X4847013Y23974924D01*
X4956994Y23941524D01*
X5071440Y23903300D01*
X5189177Y23860665D01*
X5309030Y23814028D01*
X5429824Y23763800D01*
X5550386Y23710393D01*
X5564457Y23703940D01*
X5596275Y23688973D01*
X5635278Y23670110D01*
X5679816Y23648189D01*
X5728235Y23624049D01*
X5778886Y23598528D01*
X5830117Y23572464D01*
X5880275Y23546696D01*
X5927709Y23522063D01*
X5970768Y23499403D01*
X6007800Y23479555D01*
X6025637Y23469789D01*
X6042417Y23460792D01*
X6066445Y23448298D01*
X6095948Y23433194D01*
X6129159Y23416366D01*
X6164305Y23398701D01*
X6199618Y23381086D01*
X6233327Y23364406D01*
X6263662Y23349548D01*
X6288853Y23337399D01*
X6306355Y23329198D01*
X6416110Y23282294D01*
X6528736Y23240165D01*
X6642459Y23203326D01*
X6755506Y23172292D01*
X6866102Y23147581D01*
X6972473Y23129707D01*
X7008151Y23125187D01*
X7033443Y23123042D01*
X7066903Y23121352D01*
X7106685Y23120118D01*
X7150943Y23119338D01*
X7197830Y23119013D01*
X7245499Y23119143D01*
X7292104Y23119727D01*
X7335798Y23120765D01*
X7374736Y23122256D01*
X7407069Y23124201D01*
X7419203Y23125247D01*
X7570253Y23143770D01*
X7724786Y23169940D01*
X7880480Y23203230D01*
X8035017Y23243110D01*
X8186075Y23289054D01*
X8277624Y23320590D01*
X8369083Y23353606D01*
X8381210Y23394052D01*
X8384758Y23406145D01*
X8390757Y23426906D01*
X8398927Y23455356D01*
X8408990Y23490514D01*
X8420664Y23531402D01*
X8433671Y23577040D01*
X8447732Y23626450D01*
X8462566Y23678652D01*
X8477546Y23731443D01*
X8492484Y23783868D01*
X8506684Y23833224D01*
X8519904Y23878699D01*
X8531902Y23919485D01*
X8542437Y23954770D01*
X8551265Y23983745D01*
X8558145Y24005598D01*
X8562834Y24019521D01*
X8565091Y24024702D01*
X8565191Y24024694D01*
X8567709Y24017923D01*
X8571375Y24002492D01*
X8575979Y23979671D01*
X8581313Y23950734D01*
X8587166Y23916952D01*
X8593330Y23879598D01*
X8599594Y23839943D01*
X8605750Y23799260D01*
X8611588Y23758821D01*
X8616899Y23719898D01*
X8621473Y23683763D01*
X8621909Y23680126D01*
X8628753Y23618218D01*
X8634952Y23553421D01*
X8640416Y23487289D01*
X8645058Y23421382D01*
X8648789Y23357254D01*
X8651521Y23296464D01*
X8653166Y23240567D01*
X8653635Y23191121D01*
X8652841Y23149682D01*
X8652460Y23141247D01*
X8644269Y23038347D01*
X8630009Y22928527D01*
X8609888Y22812684D01*
X8584115Y22691718D01*
X8552897Y22566525D01*
X8516442Y22438005D01*
X8474957Y22307055D01*
X8429263Y22176247D01*
X8413904Y22134712D01*
X8400709Y22101088D01*
X8388542Y22073820D01*
X8376271Y22051352D01*
X8362763Y22032126D01*
X8346884Y22014587D01*
X8327500Y21997178D01*
X8303479Y21978343D01*
X8273687Y21956525D01*
X8264400Y21949844D01*
X8266746Y21945861D01*
X8274660Y21936294D01*
X8286749Y21922777D01*
X8295553Y21913315D01*
X8311039Y21896180D01*
X8324579Y21879903D01*
X8334103Y21867027D01*
X8336588Y21862903D01*
X8339946Y21855618D01*
X8341187Y21848802D01*
X8339857Y21840266D01*
X8335505Y21827821D01*
X8327679Y21809277D01*
X8323561Y21799860D01*
X8312610Y21775845D01*
X8297516Y21744168D01*
X8278880Y21706002D01*
X8257299Y21662519D01*
X8233373Y21614890D01*
X8207701Y21564288D01*
X8180882Y21511886D01*
X8153514Y21458855D01*
X8126197Y21406367D01*
X8099530Y21355595D01*
X8074112Y21307711D01*
X8050541Y21263887D01*
X8036903Y21238879D01*
X7977855Y21132003D01*
X7922526Y21033437D01*
X7870401Y20942403D01*
X7820960Y20858124D01*
X7773687Y20779825D01*
X7728065Y20706726D01*
X7683576Y20638053D01*
X7639704Y20573027D01*
X7595929Y20510873D01*
X7551736Y20450812D01*
X7506607Y20392068D01*
X7460024Y20333865D01*
X7411471Y20275424D01*
X7360429Y20215970D01*
X7340936Y20193704D01*
X7305463Y20154304D01*
X7264598Y20110472D01*
X7220475Y20064401D01*
X7175226Y20018282D01*
X7130987Y19974307D01*
X7089891Y19934670D01*
X7077485Y19923011D01*
X7065915Y19911659D01*
X7053366Y19898122D01*
X7039205Y19881590D01*
X7022798Y19861251D01*
X7003513Y19836296D01*
X6980717Y19805912D01*
X6953776Y19769288D01*
X6922058Y19725614D01*
X6905338Y19702447D01*
X6876149Y19661942D01*
X6847149Y19621711D01*
X6819211Y19582964D01*
X6793207Y19546907D01*
X6770008Y19514751D01*
X6750486Y19487705D01*
X6735514Y19466977D01*
X6729980Y19459325D01*
X6712407Y19435006D01*
X6690948Y19405265D01*
X6667566Y19372823D01*
X6644222Y19340403D01*
X6626999Y19316459D01*
X6613952Y19298316D01*
X6595695Y19272936D01*
X6572876Y19241219D01*
X6546143Y19204067D01*
X6516143Y19162378D01*
X6483524Y19117052D01*
X6448933Y19068990D01*
X6413019Y19019092D01*
X6376429Y18968257D01*
X6354642Y18937990D01*
X6317222Y18886006D01*
X6279535Y18833649D01*
X6242301Y18781923D01*
X6206244Y18731831D01*
X6172086Y18684376D01*
X6140548Y18640561D01*
X6112353Y18601389D01*
X6088222Y18567864D01*
X6068879Y18540988D01*
X6061473Y18530698D01*
X5981200Y18419163D01*
X5928226Y18419774D01*
X5902218Y18420473D01*
X5876276Y18421842D01*
X5854329Y18423648D01*
X5845600Y18424710D01*
X5783126Y18437782D01*
X5727528Y18457957D01*
X5678266Y18485594D01*
X5634798Y18521049D01*
X5596584Y18564680D01*
X5567878Y18608379D01*
X5552292Y18637763D01*
X5539702Y18666380D01*
X5530983Y18691937D01*
X5527011Y18712146D01*
X5526860Y18715777D01*
X5529124Y18727819D01*
X5535087Y18745053D01*
X5535982Y18747061D01*
X5739042Y18747061D01*
X5739517Y18736582D01*
X5745697Y18722018D01*
X5755868Y18705610D01*
X5768314Y18689598D01*
X5781318Y18676224D01*
X5793166Y18667728D01*
X5801089Y18666025D01*
X5805818Y18670238D01*
X5815555Y18681273D01*
X5829308Y18697922D01*
X5846082Y18718975D01*
X5864885Y18743223D01*
X5870066Y18750009D01*
X5889207Y18775175D01*
X5913038Y18806521D01*
X5940189Y18842246D01*
X5969288Y18880543D01*
X5998965Y18919610D01*
X6027848Y18957641D01*
X6037669Y18970574D01*
X6065061Y19006646D01*
X6092955Y19043370D01*
X6120149Y19079165D01*
X6145440Y19112448D01*
X6167625Y19141635D01*
X6185503Y19165145D01*
X6191931Y19173593D01*
X6208909Y19195916D01*
X6230463Y19224276D01*
X6255111Y19256721D01*
X6281372Y19291302D01*
X6307762Y19326066D01*
X6327100Y19351549D01*
X6352295Y19384751D01*
X6378224Y19418908D01*
X6403469Y19452155D01*
X6426616Y19482630D01*
X6446248Y19508466D01*
X6458433Y19524491D01*
X6478020Y19550936D01*
X6490995Y19570072D01*
X6497329Y19581850D01*
X6497053Y19586209D01*
X6489778Y19586308D01*
X6475758Y19585459D01*
X6457649Y19583933D01*
X6438102Y19581996D01*
X6419772Y19579919D01*
X6405312Y19577968D01*
X6397376Y19576412D01*
X6396656Y19576053D01*
X6393411Y19571974D01*
X6384498Y19560774D01*
X6370492Y19543176D01*
X6351969Y19519904D01*
X6329504Y19491681D01*
X6303673Y19459230D01*
X6275052Y19423274D01*
X6244216Y19384537D01*
X6227932Y19364081D01*
X6193320Y19320599D01*
X6158308Y19276611D01*
X6123830Y19233290D01*
X6090821Y19191813D01*
X6060215Y19153353D01*
X6032948Y19119084D01*
X6009953Y19090181D01*
X5992166Y19067819D01*
X5990575Y19065818D01*
X5967421Y19036715D01*
X5939860Y19002095D01*
X5909738Y18964275D01*
X5878900Y18925574D01*
X5849195Y18888309D01*
X5831092Y18865608D01*
X5807950Y18836490D01*
X5786860Y18809750D01*
X5768636Y18786437D01*
X5754089Y18767597D01*
X5744033Y18754277D01*
X5739282Y18747524D01*
X5739042Y18747061D01*
X5535982Y18747061D01*
X5543509Y18763944D01*
X5544405Y18765723D01*
X5552836Y18783197D01*
X5559052Y18797852D01*
X5561888Y18806906D01*
X5561950Y18807663D01*
X5564718Y18814329D01*
X5567075Y18815176D01*
X5575437Y18819146D01*
X5589044Y18830638D01*
X5607300Y18849026D01*
X5629608Y18873686D01*
X5655373Y18903990D01*
X5676947Y18930471D01*
X5699733Y18959085D01*
X5727389Y18994110D01*
X5758702Y19033988D01*
X5792460Y19077160D01*
X5827449Y19122068D01*
X5862458Y19167154D01*
X5896273Y19210860D01*
X5927681Y19251626D01*
X5955470Y19287895D01*
X5971488Y19308940D01*
X5990845Y19334403D01*
X6011226Y19361113D01*
X6030393Y19386143D01*
X6046109Y19406567D01*
X6048142Y19409196D01*
X6079423Y19449809D01*
X6104614Y19482926D01*
X6123666Y19508482D01*
X6136532Y19526415D01*
X6143165Y19536659D01*
X6144129Y19539110D01*
X6139144Y19539970D01*
X6125382Y19540877D01*
X6104092Y19541789D01*
X6076522Y19542661D01*
X6043922Y19543450D01*
X6007539Y19544113D01*
X5996814Y19544270D01*
X5797109Y19551910D01*
X5599584Y19569280D01*
X5404039Y19596418D01*
X5210278Y19633366D01*
X5018099Y19680163D01*
X4827307Y19736849D01*
X4637701Y19803463D01*
X4564301Y19832036D01*
X4475748Y19868074D01*
X4393300Y19903031D01*
X4315234Y19937766D01*
X4239826Y19973135D01*
X4165353Y20009998D01*
X4090089Y20049212D01*
X4012311Y20091636D01*
X3930296Y20138128D01*
X3842319Y20189546D01*
X3822499Y20201304D01*
X3748641Y20244910D01*
X3681794Y20283657D01*
X3620617Y20318228D01*
X3563767Y20349307D01*
X3509904Y20377579D01*
X3457685Y20403727D01*
X3405768Y20428437D01*
X3352813Y20452392D01*
X3297476Y20476277D01*
X3238417Y20500776D01*
X3223057Y20507019D01*
X3089664Y20557603D01*
X2960942Y20599402D01*
X2836765Y20632432D01*
X2717007Y20656710D01*
X2601540Y20672254D01*
X2490239Y20679081D01*
X2382977Y20677207D01*
X2279626Y20666649D01*
X2180798Y20647603D01*
X2081066Y20618707D01*
X1984336Y20580625D01*
X1890436Y20533249D01*
X1799191Y20476472D01*
X1710429Y20410186D01*
X1623976Y20334282D01*
X1540316Y20249367D01*
X1465723Y20162938D01*
X1399153Y20074456D01*
X1341055Y19984637D01*
X1291881Y19894195D01*
X1252079Y19803845D01*
X1241128Y19774311D01*
X1223127Y19723362D01*
X1202112Y19751754D01*
X1163038Y19810423D01*
X1125920Y19877779D01*
X1091189Y19952597D01*
X1059270Y20033656D01*
X1030594Y20119733D01*
X1005588Y20209604D01*
X984680Y20302048D01*
X968300Y20395841D01*
X963002Y20434320D01*
X955108Y20504295D01*
X1091415Y20504295D01*
X1093609Y20463559D01*
X1098977Y20426106D01*
X1107932Y20388705D01*
X1116288Y20361634D01*
X1123459Y20342889D01*
X1132849Y20322339D01*
X1143357Y20301937D01*
X1153882Y20283638D01*
X1163324Y20269396D01*
X1170583Y20261165D01*
X1173548Y20259948D01*
X1178877Y20264208D01*
X1188951Y20274707D01*
X1202285Y20289826D01*
X1216211Y20306493D01*
X1239267Y20334327D01*
X1265305Y20365040D01*
X1293261Y20397439D01*
X1322069Y20430331D01*
X1350663Y20462525D01*
X1377977Y20492827D01*
X1402947Y20520046D01*
X1424506Y20542989D01*
X1441590Y20560463D01*
X1451811Y20570140D01*
X1529350Y20631816D01*
X1613209Y20686191D01*
X1703709Y20733440D01*
X1801171Y20773738D01*
X1867322Y20795952D01*
X1946545Y20818111D01*
X2026225Y20835716D01*
X2108150Y20849006D01*
X2194108Y20858220D01*
X2285887Y20863595D01*
X2385273Y20865369D01*
X2388279Y20865369D01*
X2470072Y20864232D01*
X2544520Y20860702D01*
X2614076Y20854499D01*
X2681196Y20845339D01*
X2748335Y20832940D01*
X2817949Y20817019D01*
X2826153Y20814967D01*
X2884081Y20799541D01*
X2942017Y20782376D01*
X3000582Y20763183D01*
X3060398Y20741670D01*
X3122089Y20717550D01*
X3186274Y20690531D01*
X3253578Y20660323D01*
X3324620Y20626637D01*
X3400025Y20589182D01*
X3480413Y20547669D01*
X3566407Y20501808D01*
X3658628Y20451308D01*
X3757699Y20395880D01*
X3864242Y20335233D01*
X3903110Y20312894D01*
X4001221Y20256705D01*
X4091150Y20205884D01*
X4173109Y20160316D01*
X4247310Y20119888D01*
X4313966Y20084484D01*
X4373288Y20053992D01*
X4425488Y20028297D01*
X4469154Y20008011D01*
X4617159Y19946793D01*
X4765728Y19895511D01*
X4915193Y19854080D01*
X5065886Y19822412D01*
X5218138Y19800421D01*
X5293764Y19793124D01*
X5320135Y19791538D01*
X5354773Y19790284D01*
X5395922Y19789363D01*
X5441831Y19788777D01*
X5490743Y19788526D01*
X5540906Y19788611D01*
X5590566Y19789033D01*
X5637968Y19789794D01*
X5681359Y19790893D01*
X5718984Y19792332D01*
X5729880Y19792885D01*
X5805673Y19797703D01*
X5872684Y19803568D01*
X5932129Y19810787D01*
X5985225Y19819671D01*
X6033188Y19830526D01*
X6077234Y19843663D01*
X6118580Y19859390D01*
X6158442Y19878015D01*
X6198036Y19899847D01*
X6230475Y19919919D01*
X6265267Y19941651D01*
X6298354Y19960610D01*
X6331481Y19977549D01*
X6366390Y19993220D01*
X6404825Y20008377D01*
X6448529Y20023771D01*
X6499245Y20040155D01*
X6533186Y20050598D01*
X6541785Y20051661D01*
X6544465Y20049661D01*
X6541930Y20044096D01*
X6534945Y20031657D01*
X6524442Y20013932D01*
X6511351Y19992506D01*
X6504183Y19980993D01*
X6490357Y19958540D01*
X6478893Y19939187D01*
X6470654Y19924456D01*
X6466507Y19915867D01*
X6466251Y19914336D01*
X6472112Y19914097D01*
X6483388Y19916595D01*
X6485228Y19917148D01*
X6496097Y19920507D01*
X6514236Y19926096D01*
X6537332Y19933203D01*
X6563072Y19941116D01*
X6569529Y19943099D01*
X6645615Y19966719D01*
X6717568Y19989543D01*
X6784710Y20011338D01*
X6846362Y20031870D01*
X6901849Y20050908D01*
X6950492Y20068218D01*
X6991613Y20083566D01*
X7024534Y20096720D01*
X7048579Y20107446D01*
X7051388Y20108836D01*
X7074316Y20123334D01*
X7095421Y20143571D01*
X7104643Y20154611D01*
X7116799Y20170651D01*
X7133461Y20193683D01*
X7153661Y20222299D01*
X7176433Y20255089D01*
X7200812Y20290645D01*
X7225829Y20327557D01*
X7250520Y20364418D01*
X7273918Y20399818D01*
X7293613Y20430105D01*
X7309970Y20455510D01*
X7326453Y20481111D01*
X7341316Y20504199D01*
X7352815Y20522063D01*
X7354417Y20524551D01*
X7379590Y20564001D01*
X7408688Y20610182D01*
X7441051Y20662009D01*
X7476020Y20718400D01*
X7512937Y20778272D01*
X7551143Y20840540D01*
X7589980Y20904121D01*
X7628788Y20967933D01*
X7666908Y21030892D01*
X7703683Y21091915D01*
X7738453Y21149918D01*
X7770560Y21203818D01*
X7799344Y21252532D01*
X7824147Y21294976D01*
X7844311Y21330067D01*
X7845189Y21331616D01*
X7902078Y21435702D01*
X7960111Y21549140D01*
X8019020Y21671354D01*
X8078537Y21801771D01*
X8138394Y21939815D01*
X8198324Y22084913D01*
X8209493Y22112721D01*
X8230435Y22165729D01*
X8250992Y22218972D01*
X8270833Y22271505D01*
X8289626Y22322386D01*
X8307043Y22370670D01*
X8322751Y22415415D01*
X8336421Y22455677D01*
X8347721Y22490512D01*
X8356321Y22518977D01*
X8361890Y22540129D01*
X8364098Y22553024D01*
X8364121Y22553916D01*
X8363504Y22562784D01*
X8359979Y22567644D01*
X8351038Y22570196D01*
X8337804Y22571770D01*
X8324830Y22572695D01*
X8303790Y22573717D01*
X8276641Y22574761D01*
X8245341Y22575754D01*
X8211846Y22576623D01*
X8203711Y22576805D01*
X8165409Y22577773D01*
X8135038Y22578953D01*
X8110503Y22580540D01*
X8089708Y22582729D01*
X8070559Y22585717D01*
X8050960Y22589698D01*
X8040794Y22592016D01*
X8000906Y22602020D01*
X7955159Y22614625D01*
X7906245Y22629000D01*
X7856853Y22644316D01*
X7809675Y22659743D01*
X7767401Y22674450D01*
X7738575Y22685275D01*
X7706347Y22698307D01*
X7682940Y22708658D01*
X7667632Y22716726D01*
X7659701Y22722907D01*
X7658426Y22727598D01*
X7659345Y22728890D01*
X7664947Y22729678D01*
X7679632Y22730531D01*
X7702456Y22731426D01*
X7732478Y22732336D01*
X7768755Y22733238D01*
X7810345Y22734106D01*
X7856304Y22734916D01*
X7905691Y22735643D01*
X7927166Y22735917D01*
X7979588Y22736650D01*
X8030497Y22737544D01*
X8078720Y22738564D01*
X8123084Y22739678D01*
X8162413Y22740854D01*
X8195535Y22742057D01*
X8221275Y22743257D01*
X8238460Y22744419D01*
X8241307Y22744702D01*
X8287451Y22750581D01*
X8328297Y22757293D01*
X8362453Y22764567D01*
X8388526Y22772128D01*
X8396274Y22775126D01*
X8424182Y22792508D01*
X8448313Y22818985D01*
X8468494Y22854297D01*
X8484556Y22898186D01*
X8489515Y22916937D01*
X8495263Y22946527D01*
X8500250Y22982910D01*
X8504234Y23022980D01*
X8506972Y23063632D01*
X8508225Y23101760D01*
X8507750Y23134261D01*
X8507136Y23143675D01*
X8503642Y23185622D01*
X8482757Y23178199D01*
X8471665Y23174400D01*
X8452843Y23168108D01*
X8428095Y23159920D01*
X8399230Y23150435D01*
X8368053Y23140248D01*
X8361615Y23138151D01*
X8336766Y23130034D01*
X8303789Y23119214D01*
X8264070Y23106148D01*
X8218995Y23091293D01*
X8169950Y23075107D01*
X8118322Y23058047D01*
X8065497Y23040571D01*
X8012861Y23023134D01*
X8005589Y23020723D01*
X7940912Y22999378D01*
X7884627Y22981055D01*
X7835660Y22965467D01*
X7792940Y22952322D01*
X7755395Y22941332D01*
X7721953Y22932207D01*
X7691541Y22924659D01*
X7663088Y22918396D01*
X7635522Y22913131D01*
X7607770Y22908574D01*
X7578762Y22904435D01*
X7571075Y22903417D01*
X7476811Y22893974D01*
X7375125Y22889133D01*
X7267453Y22888794D01*
X7155227Y22892858D01*
X7039881Y22901224D01*
X6922851Y22913794D01*
X6805569Y22930468D01*
X6689469Y22951146D01*
X6596285Y22970992D01*
X6557579Y22980124D01*
X6521251Y22989298D01*
X6486440Y22998864D01*
X6452290Y23009172D01*
X6417942Y23020571D01*
X6382539Y23033412D01*
X6345221Y23048042D01*
X6305130Y23064813D01*
X6261410Y23084074D01*
X6213201Y23106173D01*
X6159645Y23131462D01*
X6099885Y23160289D01*
X6033061Y23193003D01*
X5958317Y23229956D01*
X5947938Y23235107D01*
X5855641Y23280821D01*
X5771463Y23322267D01*
X5694624Y23359798D01*
X5624346Y23393770D01*
X5559852Y23424536D01*
X5500363Y23452450D01*
X5445100Y23477867D01*
X5393286Y23501141D01*
X5344142Y23522627D01*
X5296889Y23542678D01*
X5250750Y23561648D01*
X5204946Y23579892D01*
X5158699Y23597765D01*
X5114948Y23614237D01*
X5022089Y23647010D01*
X4926780Y23677240D01*
X4830264Y23704672D01*
X4733780Y23729053D01*
X4638569Y23750129D01*
X4545874Y23767646D01*
X4456935Y23781350D01*
X4372993Y23790986D01*
X4295289Y23796302D01*
X4225064Y23797042D01*
X4221924Y23796959D01*
X4167688Y23795421D01*
X4190259Y23761076D01*
X4203527Y23741861D01*
X4217396Y23723324D01*
X4229056Y23709206D01*
X4229952Y23708225D01*
X4243590Y23692212D01*
X4256800Y23674756D01*
X4260131Y23669884D01*
X4266987Y23657737D01*
X4275222Y23640599D01*
X4283974Y23620628D01*
X4292381Y23599982D01*
X4299581Y23580818D01*
X4304714Y23565293D01*
X4306916Y23555565D01*
X4306612Y23553509D01*
X4301192Y23553534D01*
X4286979Y23554809D01*
X4265111Y23557199D01*
X4236722Y23560569D01*
X4202951Y23564785D01*
X4164934Y23569712D01*
X4127118Y23574766D01*
X4083143Y23580711D01*
X4039710Y23586556D01*
X3998474Y23592080D01*
X3961090Y23597062D01*
X3929212Y23601282D01*
X3904495Y23604519D01*
X3892678Y23606039D01*
X3869742Y23608276D01*
X3837680Y23610379D01*
X3797396Y23612308D01*
X3749789Y23614028D01*
X3695760Y23615499D01*
X3637582Y23616662D01*
X3440133Y23619972D01*
X3552364Y23694785D01*
X3585761Y23717088D01*
X3611593Y23734510D01*
X3630660Y23747696D01*
X3643757Y23757295D01*
X3651685Y23763954D01*
X3655240Y23768320D01*
X3655221Y23771041D01*
X3652425Y23772765D01*
X3649556Y23773641D01*
X3628701Y23776067D01*
X3599417Y23774682D01*
X3562452Y23769715D01*
X3518552Y23761395D01*
X3468464Y23749952D01*
X3412935Y23735614D01*
X3352713Y23718611D01*
X3288544Y23699170D01*
X3221175Y23677523D01*
X3151354Y23653897D01*
X3079827Y23628521D01*
X3007341Y23601625D01*
X2934644Y23573438D01*
X2862481Y23544189D01*
X2791601Y23514106D01*
X2764792Y23502342D01*
X2728626Y23485780D01*
X2687280Y23465948D01*
X2642947Y23443972D01*
X2597823Y23420979D01*
X2554102Y23398094D01*
X2513980Y23376445D01*
X2479651Y23357157D01*
X2464510Y23348249D01*
X2432358Y23328389D01*
X2399463Y23307124D01*
X2367343Y23285520D01*
X2337517Y23264644D01*
X2311502Y23245562D01*
X2290818Y23229340D01*
X2276982Y23217044D01*
X2275566Y23215577D01*
X2261003Y23200011D01*
X2276041Y23203011D01*
X2285309Y23205037D01*
X2302644Y23208991D01*
X2326362Y23214481D01*
X2354777Y23221117D01*
X2386202Y23228508D01*
X2396349Y23230905D01*
X2486832Y23251630D01*
X2571852Y23269747D01*
X2650979Y23285201D01*
X2723785Y23297937D01*
X2789839Y23307898D01*
X2848713Y23315030D01*
X2899978Y23319275D01*
X2943204Y23320578D01*
X2977962Y23318885D01*
X3003823Y23314138D01*
X3012585Y23310927D01*
X3024568Y23300399D01*
X3030059Y23283399D01*
X3029318Y23260867D01*
X3022604Y23233740D01*
X3010177Y23202960D01*
X2992296Y23169464D01*
X2969221Y23134194D01*
X2960483Y23122289D01*
X2936159Y23092418D01*
X2906198Y23059322D01*
X2873129Y23025592D01*
X2839483Y22993817D01*
X2810843Y22969070D01*
X2751872Y22926353D01*
X2684565Y22887606D01*
X2609980Y22853287D01*
X2529171Y22823855D01*
X2443194Y22799769D01*
X2398287Y22789811D01*
X2376711Y22785295D01*
X2359069Y22781336D01*
X2347500Y22778430D01*
X2344080Y22777229D01*
X2345723Y22772682D01*
X2352482Y22763951D01*
X2354725Y22761473D01*
X2362930Y22752100D01*
X2375425Y22737136D01*
X2391094Y22717983D01*
X2408824Y22696041D01*
X2427500Y22672711D01*
X2446009Y22649394D01*
X2463235Y22627492D01*
X2478065Y22608405D01*
X2489384Y22593533D01*
X2496079Y22584279D01*
X2497376Y22582118D01*
X2494873Y22575795D01*
X2485454Y22565437D01*
X2470749Y22552257D01*
X2452384Y22537468D01*
X2431986Y22522281D01*
X2411185Y22507909D01*
X2391606Y22495565D01*
X2374879Y22486462D01*
X2362761Y22481839D01*
X2349816Y22481399D01*
X2336912Y22486639D01*
X2322613Y22498541D01*
X2305485Y22518090D01*
X2300341Y22524611D01*
X2281232Y22546560D01*
X2263177Y22560410D01*
X2243557Y22567392D01*
X2219753Y22568737D01*
X2208163Y22567944D01*
X2185794Y22564940D01*
X2155466Y22559485D01*
X2118842Y22551939D01*
X2077586Y22542665D01*
X2033360Y22532023D01*
X1987830Y22520375D01*
X1981617Y22518730D01*
X1922796Y22503090D01*
X1965044Y22463562D01*
X2015860Y22411146D01*
X2058519Y22356218D01*
X2093519Y22297719D01*
X2121358Y22234588D01*
X2142531Y22165765D01*
X2157537Y22090190D01*
X2163983Y22039263D01*
X2167342Y21983720D01*
X2166485Y21926972D01*
X2161655Y21871531D01*
X2153096Y21819913D01*
X2141050Y21774632D01*
X2137362Y21764166D01*
X2121864Y21732095D01*
X2097903Y21695694D01*
X2065856Y21655358D01*
X2026101Y21611482D01*
X1979015Y21564464D01*
X1924978Y21514697D01*
X1864366Y21462579D01*
X1798374Y21409147D01*
X1779348Y21393959D01*
X1763538Y21380951D01*
X1752437Y21371380D01*
X1747536Y21366501D01*
X1747427Y21366246D01*
X1751978Y21362755D01*
X1765343Y21358122D01*
X1786406Y21352577D01*
X1814049Y21346347D01*
X1847157Y21339659D01*
X1884612Y21332742D01*
X1925296Y21325824D01*
X1968094Y21319132D01*
X2002842Y21314131D01*
X2059347Y21306080D01*
X2107309Y21298613D01*
X2148164Y21291359D01*
X2183351Y21283948D01*
X2214305Y21276011D01*
X2242464Y21267176D01*
X2269266Y21257075D01*
X2296146Y21245336D01*
X2324542Y21231591D01*
X2325776Y21230971D01*
X2348450Y21218877D01*
X2372072Y21205109D01*
X2395181Y21190666D01*
X2416311Y21176547D01*
X2434000Y21163753D01*
X2446784Y21153282D01*
X2453200Y21146135D01*
X2453357Y21143831D01*
X2447098Y21141611D01*
X2431703Y21137922D01*
X2407933Y21132907D01*
X2376547Y21126709D01*
X2338306Y21119470D01*
X2293970Y21111334D01*
X2244298Y21102442D01*
X2190051Y21092938D01*
X2131989Y21082964D01*
X2103099Y21078071D01*
X2058160Y21070378D01*
X2014475Y21062687D01*
X1973472Y21055262D01*
X1936573Y21048371D01*
X1905206Y21042280D01*
X1880794Y21037255D01*
X1864763Y21033563D01*
X1864077Y21033384D01*
X1771473Y21003960D01*
X1681756Y20965548D01*
X1596117Y20918812D01*
X1515750Y20864414D01*
X1441845Y20803019D01*
X1429541Y20791487D01*
X1414197Y20777362D01*
X1405167Y20770366D01*
X1402476Y20770609D01*
X1406146Y20778198D01*
X1416201Y20793239D01*
X1432667Y20815843D01*
X1435903Y20820175D01*
X1468899Y20861140D01*
X1508004Y20904606D01*
X1550686Y20947987D01*
X1594418Y20988693D01*
X1630304Y21019079D01*
X1681230Y21057024D01*
X1738520Y21094633D01*
X1798869Y21129953D01*
X1858973Y21161029D01*
X1906148Y21182136D01*
X1928712Y21191469D01*
X1943134Y21197841D01*
X1950548Y21202087D01*
X1952089Y21205047D01*
X1948894Y21207557D01*
X1943653Y21209820D01*
X1913107Y21218656D01*
X1874886Y21223905D01*
X1830621Y21225710D01*
X1781946Y21224211D01*
X1730491Y21219549D01*
X1677888Y21211865D01*
X1625770Y21201300D01*
X1575768Y21187997D01*
X1535905Y21174549D01*
X1459523Y21140596D01*
X1389032Y21098680D01*
X1324852Y21049242D01*
X1267407Y20992722D01*
X1217119Y20929559D01*
X1174409Y20860193D01*
X1139700Y20785064D01*
X1126182Y20747621D01*
X1113221Y20705407D01*
X1103928Y20667185D01*
X1097657Y20629256D01*
X1093762Y20587920D01*
X1091981Y20551545D01*
X1091415Y20504295D01*
X955108Y20504295D01*
X954224Y20512127D01*
X948794Y20581901D01*
X946787Y20645083D01*
X948274Y20703114D01*
X953329Y20757436D01*
X962024Y20809490D01*
X974432Y20860718D01*
X986564Y20900513D01*
X1015893Y20974620D01*
X1054645Y21048567D01*
X1102225Y21121768D01*
X1158039Y21193635D01*
X1221493Y21263583D01*
X1291993Y21331026D01*
X1368945Y21395377D01*
X1451755Y21456050D01*
X1539828Y21512460D01*
X1632571Y21564019D01*
X1685593Y21590210D01*
X1725744Y21609238D01*
X1757992Y21624696D01*
X1783535Y21637220D01*
X1803574Y21647443D01*
X1819306Y21655999D01*
X1831930Y21663523D01*
X1842646Y21670650D01*
X1852652Y21678013D01*
X1855124Y21679920D01*
X1898250Y21719369D01*
X1932887Y21763823D01*
X1958825Y21812634D01*
X1975853Y21865150D01*
X1983760Y21920720D01*
X1982334Y21978695D01*
X1971366Y22038423D01*
X1971365Y22038425D01*
X1953807Y22093194D01*
X1929005Y22152355D01*
X1897859Y22214447D01*
X1861267Y22278011D01*
X1820127Y22341588D01*
X1775339Y22403719D01*
X1727800Y22462944D01*
X1678410Y22517803D01*
X1672257Y22524171D01*
X1653829Y22543649D01*
X1642303Y22557286D01*
X1637079Y22565888D01*
X1637554Y22570264D01*
X1637833Y22570463D01*
X1647018Y22574327D01*
X1649752Y22574720D01*
X1658238Y22576140D01*
X1675185Y22580071D01*
X1699435Y22586189D01*
X1729834Y22594167D01*
X1765224Y22603682D01*
X1804451Y22614407D01*
X1846358Y22626018D01*
X1889790Y22638190D01*
X1933589Y22650597D01*
X1976601Y22662915D01*
X2017669Y22674818D01*
X2055637Y22685982D01*
X2089350Y22696080D01*
X2117651Y22704788D01*
X2139385Y22711782D01*
X2149467Y22715263D01*
X2170416Y22723168D01*
X2183521Y22729177D01*
X2190513Y22734366D01*
X2193123Y22739812D01*
X2193330Y22742558D01*
X2190403Y22752329D01*
X2182200Y22768607D01*
X2169581Y22789974D01*
X2153410Y22815012D01*
X2134550Y22842303D01*
X2122819Y22858470D01*
X2112823Y22872208D01*
X2105732Y22882347D01*
X2103112Y22886632D01*
X2107889Y22887081D01*
X2121252Y22887520D01*
X2141762Y22887921D01*
X2167980Y22888259D01*
X2198466Y22888509D01*
X2212141Y22888581D01*
X2248886Y22888822D01*
X2277503Y22889291D01*
X2299888Y22890150D01*
X2317940Y22891563D01*
X2333555Y22893693D01*
X2348630Y22896704D01*
X2365062Y22900759D01*
X2370724Y22902253D01*
X2410165Y22915068D01*
X2455174Y22933639D01*
X2503941Y22956936D01*
X2554654Y22983928D01*
X2605502Y23013585D01*
X2654675Y23044876D01*
X2700360Y23076771D01*
X2740747Y23108240D01*
X2756249Y23121576D01*
X2772909Y23136989D01*
X2782545Y23148002D01*
X2784623Y23155235D01*
X2778611Y23159305D01*
X2763975Y23160834D01*
X2740180Y23160439D01*
X2723436Y23159649D01*
X2659021Y23154187D01*
X2587290Y23144346D01*
X2509740Y23130532D01*
X2427866Y23113151D01*
X2343161Y23092610D01*
X2257122Y23069315D01*
X2171244Y23043674D01*
X2087020Y23016091D01*
X2005947Y22986975D01*
X1929518Y22956730D01*
X1859230Y22925765D01*
X1853702Y22923167D01*
X1834780Y22914232D01*
X1821804Y22908674D01*
X1814693Y22907295D01*
X1813361Y22910898D01*
X1817726Y22920284D01*
X1827706Y22936255D01*
X1843215Y22959613D01*
X1849017Y22968304D01*
X1923652Y23072484D01*
X2006947Y23174592D01*
X2097566Y23273305D01*
X2194172Y23367304D01*
X2295427Y23455266D01*
X2399994Y23535870D01*
X2476936Y23588838D01*
X2517803Y23614868D01*
X2559000Y23639616D01*
X2601687Y23663658D01*
X2647023Y23687572D01*
X2696167Y23711934D01*
X2750279Y23737321D01*
X2810518Y23764308D01*
X2878044Y23793473D01*
X2945254Y23821747D01*
X3102997Y23884096D01*
X3256396Y23937809D01*
X3406070Y23982962D01*
X3552642Y24019627D01*
X3696729Y24047881D01*
X3838955Y24067796D01*
X3979938Y24079448D01*
X4120299Y24082911D01*
X4260659Y24078259D01*
G37*
G36*
X5450444Y23284124D02*
G01*
X5538474Y23274623D01*
X5621956Y23258537D01*
X5683506Y23241191D01*
X5718515Y23228203D01*
X5758577Y23210820D01*
X5800834Y23190488D01*
X5842428Y23168649D01*
X5880503Y23146750D01*
X5912202Y23126233D01*
X5915355Y23123995D01*
X5970449Y23080726D01*
X6022968Y23032301D01*
X6071884Y22980049D01*
X6116171Y22925297D01*
X6154803Y22869374D01*
X6186752Y22813608D01*
X6210992Y22759328D01*
X6221417Y22727994D01*
X6226578Y22698853D01*
X6228113Y22661670D01*
X6226275Y22617647D01*
X6221320Y22567987D01*
X6213501Y22513892D01*
X6203074Y22456564D01*
X6190291Y22397205D01*
X6175408Y22337019D01*
X6158679Y22277206D01*
X6140359Y22218970D01*
X6120701Y22163512D01*
X6099960Y22112035D01*
X6083487Y22076021D01*
X6066907Y22044157D01*
X6050121Y22015935D01*
X6034642Y21993839D01*
X6029944Y21988160D01*
X5991798Y21948939D01*
X5944164Y21907380D01*
X5887265Y21863641D01*
X5821323Y21817880D01*
X5746561Y21770258D01*
X5663200Y21720931D01*
X5626227Y21700050D01*
X5549631Y21657348D01*
X5533169Y21588805D01*
X5525626Y21559848D01*
X5517624Y21533305D01*
X5509968Y21511651D01*
X5503468Y21497371D01*
X5495941Y21486933D01*
X5482531Y21470934D01*
X5464530Y21450814D01*
X5443236Y21428010D01*
X5419941Y21403960D01*
X5413698Y21397662D01*
X5337168Y21320843D01*
X5358075Y21324144D01*
X5432894Y21337928D01*
X5514196Y21356484D01*
X5600000Y21379204D01*
X5688330Y21405482D01*
X5777205Y21434711D01*
X5864648Y21466284D01*
X5948679Y21499593D01*
X5995560Y21519684D01*
X6093599Y21565666D01*
X6187931Y21615544D01*
X6279931Y21670219D01*
X6370973Y21730590D01*
X6462431Y21797558D01*
X6555680Y21872023D01*
X6629683Y21935139D01*
X6654847Y21957784D01*
X6685477Y21986365D01*
X6720249Y22019563D01*
X6757840Y22056062D01*
X6796926Y22094544D01*
X6836184Y22133693D01*
X6874290Y22172190D01*
X6909920Y22208721D01*
X6941753Y22241966D01*
X6968463Y22270609D01*
X6983087Y22286855D01*
X7038228Y22349415D01*
X7039806Y22275378D01*
X7037232Y22172685D01*
X7025407Y22069675D01*
X7004710Y21967465D01*
X6975520Y21867168D01*
X6938218Y21769899D01*
X6893181Y21676775D01*
X6840790Y21588909D01*
X6781424Y21507416D01*
X6776434Y21501265D01*
X6760186Y21482548D01*
X6738320Y21458996D01*
X6712683Y21432469D01*
X6685120Y21404826D01*
X6657479Y21377924D01*
X6631606Y21353624D01*
X6614644Y21338376D01*
X6527654Y21266353D01*
X6431983Y21194851D01*
X6328973Y21124675D01*
X6219964Y21056629D01*
X6106297Y20991517D01*
X5989314Y20930144D01*
X5870356Y20873315D01*
X5759579Y20825431D01*
X5733449Y20814719D01*
X5709998Y20805103D01*
X5691060Y20797335D01*
X5678470Y20792168D01*
X5674739Y20790635D01*
X5671522Y20788085D01*
X5673654Y20784446D01*
X5682242Y20778915D01*
X5698394Y20770690D01*
X5709829Y20765234D01*
X5824840Y20715866D01*
X5927887Y20679850D01*
X5972185Y20665188D01*
X6007500Y20651345D01*
X6034760Y20637630D01*
X6054892Y20623350D01*
X6068825Y20607813D01*
X6077486Y20590328D01*
X6081803Y20570202D01*
X6082312Y20564680D01*
X6082718Y20552218D01*
X6081745Y20539687D01*
X6078948Y20525121D01*
X6073880Y20506557D01*
X6066096Y20482027D01*
X6058246Y20458648D01*
X6040874Y20409895D01*
X6024478Y20369345D01*
X6008164Y20335348D01*
X5991040Y20306257D01*
X5972210Y20280424D01*
X5950782Y20256201D01*
X5945581Y20250874D01*
X5901917Y20212554D01*
X5853568Y20181314D01*
X5799270Y20156485D01*
X5737761Y20137402D01*
X5724867Y20134304D01*
X5685402Y20126577D01*
X5640870Y20120098D01*
X5594415Y20115161D01*
X5549179Y20112061D01*
X5508304Y20111090D01*
X5484251Y20111818D01*
X5408731Y20121237D01*
X5336865Y20139872D01*
X5269159Y20167434D01*
X5206115Y20203632D01*
X5148237Y20248177D01*
X5096027Y20300778D01*
X5049989Y20361147D01*
X5049206Y20362324D01*
X5035212Y20383882D01*
X5022463Y20404363D01*
X5012509Y20421229D01*
X5007445Y20430736D01*
X5004756Y20436035D01*
X5001471Y20441042D01*
X4996821Y20446252D01*
X4990037Y20452161D01*
X4980351Y20459262D01*
X4975251Y20462618D01*
X5111723Y20462618D01*
X5116499Y20441448D01*
X5120361Y20431813D01*
X5136050Y20407427D01*
X5160142Y20382104D01*
X5191189Y20356767D01*
X5227741Y20332335D01*
X5268350Y20309730D01*
X5311567Y20289872D01*
X5355942Y20273681D01*
X5380219Y20266699D01*
X5431589Y20256851D01*
X5489053Y20251856D01*
X5549906Y20251766D01*
X5611442Y20256630D01*
X5646140Y20261701D01*
X5701673Y20273066D01*
X5748878Y20287078D01*
X5789329Y20304809D01*
X5824601Y20327333D01*
X5856267Y20355722D01*
X5885901Y20391048D01*
X5915077Y20434386D01*
X5925918Y20452405D01*
X5929441Y20456718D01*
X5933404Y20455849D01*
X5939338Y20448589D01*
X5948003Y20434987D01*
X5964539Y20408113D01*
X5976268Y20427482D01*
X5984530Y20443874D01*
X5990424Y20460432D01*
X5991247Y20464017D01*
X5992215Y20477319D01*
X5987669Y20486259D01*
X5983194Y20490334D01*
X5971424Y20497153D01*
X5961885Y20499486D01*
X5954715Y20501852D01*
X5954638Y20505752D01*
X5970212Y20542854D01*
X5980733Y20572181D01*
X5986388Y20594503D01*
X5987366Y20610592D01*
X5983855Y20621219D01*
X5983068Y20622253D01*
X5971566Y20629323D01*
X5957475Y20628048D01*
X5943072Y20618846D01*
X5938588Y20614080D01*
X5916207Y20589138D01*
X5897282Y20572042D01*
X5880610Y20561763D01*
X5874826Y20559500D01*
X5862627Y20556233D01*
X5854541Y20557736D01*
X5845937Y20565318D01*
X5842981Y20568517D01*
X5828369Y20579238D01*
X5807593Y20588046D01*
X5784501Y20593562D01*
X5769747Y20594730D01*
X5762123Y20597967D01*
X5750749Y20606221D01*
X5743914Y20612249D01*
X5727510Y20624873D01*
X5708666Y20635509D01*
X5702546Y20638061D01*
X5648230Y20661452D01*
X5619598Y20677483D01*
X5606019Y20684475D01*
X5586096Y20693015D01*
X5563085Y20701756D01*
X5550313Y20706154D01*
X5528034Y20713750D01*
X5513799Y20719404D01*
X5506036Y20724000D01*
X5503169Y20728421D01*
X5503364Y20732513D01*
X5505812Y20742476D01*
X5509939Y20758471D01*
X5514342Y20775129D01*
X5518814Y20795937D01*
X5521059Y20818209D01*
X5521332Y20845325D01*
X5520816Y20861556D01*
X5519647Y20883828D01*
X5518207Y20902211D01*
X5516700Y20914503D01*
X5515598Y20918459D01*
X5509817Y20918594D01*
X5496313Y20916735D01*
X5477113Y20913214D01*
X5454748Y20908478D01*
X5432060Y20903419D01*
X5413244Y20899283D01*
X5400282Y20896499D01*
X5395163Y20895500D01*
X5394549Y20890764D01*
X5393956Y20877668D01*
X5393434Y20857876D01*
X5393028Y20833053D01*
X5392843Y20814041D01*
X5390691Y20752826D01*
X5385164Y20700892D01*
X5376224Y20658067D01*
X5363833Y20624180D01*
X5347953Y20599057D01*
X5345012Y20595760D01*
X5324535Y20579126D01*
X5294170Y20562236D01*
X5254049Y20545151D01*
X5204303Y20527930D01*
X5175962Y20519316D01*
X5153872Y20512302D01*
X5135101Y20505302D01*
X5121946Y20499233D01*
X5117062Y20495743D01*
X5111854Y20481810D01*
X5111723Y20462618D01*
X4975251Y20462618D01*
X4966992Y20468052D01*
X4949192Y20479025D01*
X4926181Y20492677D01*
X4897191Y20509502D01*
X4861452Y20529995D01*
X4818195Y20554652D01*
X4789975Y20570705D01*
X4735146Y20601806D01*
X4688119Y20628257D01*
X4648031Y20650457D01*
X4614022Y20668806D01*
X4585233Y20683702D01*
X4560802Y20695545D01*
X4539869Y20704735D01*
X4521574Y20711671D01*
X4505056Y20716752D01*
X4489454Y20720379D01*
X4473908Y20722949D01*
X4457957Y20724823D01*
X4432167Y20727056D01*
X4397298Y20729474D01*
X4354293Y20732028D01*
X4304096Y20734672D01*
X4247651Y20737358D01*
X4185902Y20740040D01*
X4119793Y20742669D01*
X4055116Y20745029D01*
X3919291Y20749779D01*
X3874655Y20732144D01*
X3805242Y20708284D01*
X3736146Y20692059D01*
X3664886Y20683058D01*
X3588985Y20680874D01*
X3566922Y20681416D01*
X3481612Y20689140D01*
X3399982Y20706152D01*
X3322247Y20732357D01*
X3248626Y20767660D01*
X3179335Y20811965D01*
X3114591Y20865175D01*
X3085208Y20893836D01*
X3037727Y20948252D01*
X3000057Y21003626D01*
X2972251Y21059858D01*
X2954358Y21116845D01*
X2946954Y21166193D01*
X2947813Y21216330D01*
X2951582Y21233866D01*
X3098145Y21233866D01*
X3129475Y21232373D01*
X3145709Y21230999D01*
X3157032Y21228893D01*
X3160806Y21226758D01*
X3159707Y21220479D01*
X3156730Y21206606D01*
X3152348Y21187290D01*
X3147850Y21168096D01*
X3139698Y21132145D01*
X3134417Y21103977D01*
X3131949Y21081788D01*
X3132236Y21063772D01*
X3135219Y21048125D01*
X3140841Y21033042D01*
X3143330Y21027748D01*
X3159517Y21001545D01*
X3183498Y20972340D01*
X3214018Y20941450D01*
X3249821Y20910190D01*
X3272435Y20892467D01*
X3314220Y20862846D01*
X3352786Y20839880D01*
X3390953Y20822221D01*
X3431541Y20808524D01*
X3466588Y20799746D01*
X3501491Y20794311D01*
X3543116Y20791468D01*
X3588522Y20791134D01*
X3634769Y20793226D01*
X3678916Y20797661D01*
X3718022Y20804356D01*
X3729762Y20807162D01*
X3755547Y20814723D01*
X3781957Y20823824D01*
X3804723Y20832950D01*
X3812473Y20836575D01*
X3829521Y20845547D01*
X3839243Y20852274D01*
X3843504Y20858517D01*
X3844166Y20866038D01*
X3844138Y20866496D01*
X3841901Y20875253D01*
X3836227Y20891476D01*
X3827766Y20913474D01*
X3817170Y20939559D01*
X3805087Y20968041D01*
X3804694Y20968949D01*
X3786553Y21011221D01*
X3772338Y21045409D01*
X3761689Y21072495D01*
X3754246Y21093457D01*
X3749650Y21109278D01*
X3747541Y21120936D01*
X3747306Y21125366D01*
X3748744Y21132262D01*
X3753533Y21140662D01*
X3762385Y21151242D01*
X3776013Y21164677D01*
X3795131Y21181645D01*
X3820450Y21202822D01*
X3852684Y21228884D01*
X3875693Y21247190D01*
X3953793Y21309058D01*
X3910085Y21350414D01*
X3892880Y21366444D01*
X3878280Y21379579D01*
X3867821Y21388471D01*
X3863039Y21391770D01*
X3863028Y21391770D01*
X3858846Y21388199D01*
X3849032Y21378210D01*
X3834606Y21362890D01*
X3816586Y21343326D01*
X3795990Y21320603D01*
X3787876Y21311565D01*
X3766388Y21287894D01*
X3746847Y21266992D01*
X3730321Y21249953D01*
X3717881Y21237871D01*
X3710597Y21231839D01*
X3709443Y21231359D01*
X3701462Y21232447D01*
X3686883Y21235298D01*
X3668847Y21239300D01*
X3668665Y21239342D01*
X3625867Y21245063D01*
X3601934Y21244260D01*
X3577021Y21243415D01*
X3553407Y21246466D01*
X3534277Y21251315D01*
X3511718Y21256617D01*
X3488127Y21260281D01*
X3471148Y21261436D01*
X3449863Y21263245D01*
X3426267Y21267870D01*
X3413953Y21271462D01*
X3384320Y21278658D01*
X3352607Y21281482D01*
X3351297Y21281488D01*
X3327694Y21282736D01*
X3309278Y21287135D01*
X3295687Y21293311D01*
X3283412Y21300400D01*
X3277104Y21306968D01*
X3275792Y21315984D01*
X3278503Y21330416D01*
X3280693Y21339135D01*
X3283484Y21360138D01*
X3280231Y21375818D01*
X3274172Y21382921D01*
X3259882Y21386826D01*
X3243789Y21381551D01*
X3226551Y21367635D01*
X3208829Y21345615D01*
X3191282Y21316030D01*
X3190591Y21314692D01*
X3181036Y21297336D01*
X3171814Y21284732D01*
X3160203Y21274039D01*
X3143478Y21262418D01*
X3135741Y21257498D01*
X3098145Y21233866D01*
X2951582Y21233866D01*
X2957901Y21263269D01*
X2976815Y21306598D01*
X3004154Y21345901D01*
X3039513Y21380765D01*
X3082492Y21410776D01*
X3132686Y21435519D01*
X3189693Y21454580D01*
X3237527Y21465046D01*
X3271331Y21469115D01*
X3312060Y21471160D01*
X3356836Y21471261D01*
X3402782Y21469503D01*
X3447020Y21465966D01*
X3486674Y21460733D01*
X3504184Y21457442D01*
X3529095Y21451657D01*
X3558465Y21444103D01*
X3589363Y21435606D01*
X3618855Y21426994D01*
X3644011Y21419092D01*
X3659838Y21413536D01*
X3661528Y21415655D01*
X3657666Y21424946D01*
X3648653Y21440508D01*
X3645840Y21444963D01*
X3618430Y21489311D01*
X3588442Y21540443D01*
X3556986Y21596277D01*
X3525171Y21654731D01*
X3494105Y21713725D01*
X3464898Y21771177D01*
X3438659Y21825006D01*
X3416497Y21873129D01*
X3411072Y21885533D01*
X3373062Y21982757D01*
X3344299Y22076995D01*
X3324689Y22168905D01*
X3314138Y22259144D01*
X3314019Y22265867D01*
X3491940Y22265867D01*
X3494873Y22196604D01*
X3503620Y22131907D01*
X3508952Y22106212D01*
X3533579Y22018515D01*
X3567571Y21928558D01*
X3610647Y21836802D01*
X3662520Y21743708D01*
X3722909Y21649736D01*
X3791530Y21555346D01*
X3868099Y21460999D01*
X3952332Y21367155D01*
X3985173Y21332869D01*
X4002441Y21315481D01*
X4017377Y21301065D01*
X4028528Y21290980D01*
X4034440Y21286585D01*
X4034791Y21286500D01*
X4040172Y21283350D01*
X4051157Y21274851D01*
X4065964Y21262431D01*
X4077489Y21252310D01*
X4097931Y21234348D01*
X4122552Y21213170D01*
X4147737Y21191868D01*
X4163371Y21178863D01*
X4210993Y21139607D01*
X4133294Y21142928D01*
X4086804Y21145448D01*
X4039912Y21148966D01*
X3994689Y21153260D01*
X3953209Y21158112D01*
X3917543Y21163303D01*
X3889763Y21168613D01*
X3889023Y21168784D01*
X3856266Y21176381D01*
X3821837Y21152857D01*
X3806034Y21141572D01*
X3794052Y21132089D01*
X3787852Y21125993D01*
X3787409Y21124997D01*
X3789292Y21119308D01*
X3794565Y21105790D01*
X3802663Y21085828D01*
X3813022Y21060808D01*
X3825076Y21032112D01*
X3830858Y21018474D01*
X3874307Y20916288D01*
X3904797Y20911011D01*
X4002727Y20896187D01*
X4108433Y20884157D01*
X4220018Y20875084D01*
X4335585Y20869132D01*
X4416462Y20866933D01*
X4581828Y20864075D01*
X4637024Y20825900D01*
X4743234Y20755989D01*
X4855821Y20688479D01*
X4971140Y20625461D01*
X5080719Y20571279D01*
X5104424Y20560218D01*
X5124625Y20550839D01*
X5139720Y20543883D01*
X5148108Y20540090D01*
X5149282Y20539609D01*
X5153745Y20541881D01*
X5165755Y20548256D01*
X5184046Y20558056D01*
X5207353Y20570602D01*
X5234412Y20585215D01*
X5248286Y20592724D01*
X5346399Y20645859D01*
X5346736Y20664157D01*
X5347373Y20676388D01*
X5348848Y20695827D01*
X5350936Y20719716D01*
X5353198Y20743190D01*
X5359322Y20803925D01*
X5345664Y20790267D01*
X5330005Y20779078D01*
X5310383Y20773823D01*
X5285109Y20774250D01*
X5262770Y20777870D01*
X5241706Y20783927D01*
X5214397Y20794408D01*
X5183010Y20808283D01*
X5149714Y20824526D01*
X5116678Y20842109D01*
X5086069Y20860002D01*
X5075706Y20866553D01*
X5043122Y20887664D01*
X5100770Y20893866D01*
X5125331Y20896634D01*
X5156799Y20900370D01*
X5192147Y20904703D01*
X5228345Y20909264D01*
X5253661Y20912536D01*
X5289375Y20917194D01*
X5327226Y20922101D01*
X5363935Y20926833D01*
X5396225Y20930968D01*
X5414072Y20933234D01*
X5478321Y20942664D01*
X5547207Y20955115D01*
X5616130Y20969716D01*
X5654688Y20978919D01*
X5684614Y20987030D01*
X5721455Y20998002D01*
X5762924Y21011067D01*
X5806729Y21025454D01*
X5850583Y21040395D01*
X5892195Y21055120D01*
X5929277Y21068860D01*
X5959540Y21080845D01*
X5965483Y21083354D01*
X6072284Y21132585D01*
X6175831Y21187101D01*
X6274315Y21245844D01*
X6365931Y21307757D01*
X6424571Y21352070D01*
X6454014Y21376763D01*
X6487898Y21407386D01*
X6524358Y21442074D01*
X6561530Y21478960D01*
X6597552Y21516180D01*
X6630560Y21551867D01*
X6658689Y21584156D01*
X6669092Y21596870D01*
X6729852Y21678528D01*
X6786597Y21765696D01*
X6837813Y21855797D01*
X6881983Y21946252D01*
X6902004Y21993413D01*
X6915990Y22028529D01*
X6925944Y22054733D01*
X6931631Y22072392D01*
X6932817Y22081871D01*
X6929269Y22083537D01*
X6920751Y22077757D01*
X6907031Y22064896D01*
X6887874Y22045321D01*
X6876453Y22033412D01*
X6806998Y21963027D01*
X6733514Y21892649D01*
X6657290Y21823350D01*
X6579618Y21756199D01*
X6501789Y21692267D01*
X6425093Y21632626D01*
X6350820Y21578345D01*
X6280262Y21530495D01*
X6238682Y21504366D01*
X6152955Y21456450D01*
X6057647Y21410914D01*
X5952930Y21367813D01*
X5838976Y21327202D01*
X5715957Y21289134D01*
X5584044Y21253665D01*
X5443409Y21220850D01*
X5294224Y21190742D01*
X5198520Y21173631D01*
X5169260Y21168995D01*
X5138793Y21164936D01*
X5105963Y21161371D01*
X5069612Y21158216D01*
X5028584Y21155389D01*
X4981722Y21152806D01*
X4927870Y21150384D01*
X4865871Y21148040D01*
X4822558Y21146580D01*
X4682199Y21142024D01*
X4525115Y21260188D01*
X4480191Y21294161D01*
X4442396Y21323178D01*
X4410690Y21348096D01*
X4384033Y21369770D01*
X4361386Y21389057D01*
X4341707Y21406812D01*
X4323959Y21423892D01*
X4314032Y21433936D01*
X4248756Y21502570D01*
X4185814Y21571593D01*
X4125790Y21640249D01*
X4069271Y21707784D01*
X4016845Y21773441D01*
X3969097Y21836466D01*
X3926615Y21896103D01*
X3889985Y21951598D01*
X3859794Y22002195D01*
X3836628Y22047138D01*
X3835083Y22050493D01*
X3813087Y22105825D01*
X3793200Y22170477D01*
X3775530Y22243945D01*
X3760185Y22325725D01*
X3747272Y22415315D01*
X3737262Y22508226D01*
X3734388Y22545452D01*
X3731780Y22590412D01*
X3729502Y22640815D01*
X3727619Y22694374D01*
X3726194Y22748796D01*
X3725292Y22801794D01*
X3724977Y22851077D01*
X3725312Y22894355D01*
X3725847Y22916328D01*
X3726976Y22951488D01*
X3727346Y22976993D01*
X3726373Y22993214D01*
X3723471Y23000522D01*
X3718058Y22999285D01*
X3709547Y22989875D01*
X3697355Y22972662D01*
X3680897Y22948015D01*
X3679387Y22945745D01*
X3640244Y22879682D01*
X3604900Y22804990D01*
X3573669Y22722445D01*
X3546869Y22632818D01*
X3539184Y22602368D01*
X3518442Y22507945D01*
X3503683Y22420847D01*
X3494863Y22340384D01*
X3491940Y22265867D01*
X3314019Y22265867D01*
X3312553Y22348371D01*
X3319840Y22437244D01*
X3326570Y22480571D01*
X3342817Y22554065D01*
X3365152Y22628733D01*
X3392903Y22703403D01*
X3425400Y22776904D01*
X3461970Y22848065D01*
X3501943Y22915716D01*
X3544648Y22978684D01*
X3589413Y23035799D01*
X3635566Y23085889D01*
X3682438Y23127784D01*
X3708660Y23147169D01*
X3731214Y23161459D01*
X3754128Y23174122D01*
X3775077Y23184026D01*
X3791734Y23190039D01*
X3799369Y23191326D01*
X3805018Y23190172D01*
X3807089Y23184936D01*
X3806290Y23173074D01*
X3805702Y23168604D01*
X3803093Y23143816D01*
X3800790Y23110735D01*
X3798831Y23071092D01*
X3797253Y23026616D01*
X3796092Y22979037D01*
X3795385Y22930086D01*
X3795170Y22881491D01*
X3795482Y22834982D01*
X3796360Y22792290D01*
X3797181Y22769047D01*
X3803925Y22649563D01*
X3813816Y22538986D01*
X3827074Y22436636D01*
X3843918Y22341832D01*
X3864568Y22253892D01*
X3889244Y22172136D01*
X3918167Y22095882D01*
X3951556Y22024449D01*
X3989631Y21957156D01*
X4032612Y21893322D01*
X4080719Y21832266D01*
X4110619Y21798336D01*
X4127661Y21780839D01*
X4148772Y21760904D01*
X4172798Y21739448D01*
X4198582Y21717389D01*
X4224971Y21695644D01*
X4250808Y21675132D01*
X4274938Y21656771D01*
X4296205Y21641477D01*
X4313455Y21630170D01*
X4325532Y21623765D01*
X4331210Y21623105D01*
X4331813Y21628844D01*
X4331424Y21642295D01*
X4330143Y21661200D01*
X4329796Y21665081D01*
X4485660Y21665081D01*
X4487294Y21652500D01*
X4492370Y21637944D01*
X4500772Y21619853D01*
X4524861Y21577744D01*
X4555623Y21535111D01*
X4591456Y21493494D01*
X4630763Y21454431D01*
X4671944Y21419461D01*
X4713400Y21390123D01*
X4753531Y21367954D01*
X4769679Y21361124D01*
X4820181Y21346685D01*
X4875273Y21339411D01*
X4932397Y21339438D01*
X4988996Y21346898D01*
X4999260Y21349117D01*
X5016733Y21353592D01*
X5029610Y21357751D01*
X5035477Y21360798D01*
X5035603Y21361132D01*
X5031010Y21363549D01*
X5018491Y21367458D01*
X4999943Y21372325D01*
X4977260Y21377616D01*
X4976508Y21377782D01*
X4949414Y21384461D01*
X4922247Y21392380D01*
X4898592Y21400432D01*
X4885024Y21406027D01*
X4852635Y21421271D01*
X4887725Y21417799D01*
X4922806Y21415357D01*
X4960611Y21414473D01*
X4998509Y21415064D01*
X5033873Y21417047D01*
X5064074Y21420340D01*
X5083225Y21423979D01*
X5128248Y21438620D01*
X5168543Y21458249D01*
X5202774Y21481961D01*
X5229605Y21508846D01*
X5246097Y21534543D01*
X5254370Y21555946D01*
X5255381Y21571856D01*
X5248688Y21582679D01*
X5233850Y21588818D01*
X5210423Y21590679D01*
X5186119Y21589439D01*
X5167989Y21587324D01*
X5153665Y21583663D01*
X5141151Y21577124D01*
X5128455Y21566374D01*
X5113583Y21550079D01*
X5096820Y21529734D01*
X5080719Y21509793D01*
X5080719Y21555755D01*
X5080179Y21577214D01*
X5078712Y21593852D01*
X5076546Y21603502D01*
X5075539Y21604918D01*
X5066907Y21607348D01*
X5051372Y21609402D01*
X5032053Y21610903D01*
X5012068Y21611673D01*
X4994539Y21611533D01*
X4982585Y21610308D01*
X4982267Y21610233D01*
X4971663Y21604702D01*
X4956590Y21592845D01*
X4938873Y21576145D01*
X4933590Y21570702D01*
X4899250Y21534635D01*
X4902754Y21585362D01*
X4904225Y21608449D01*
X4904613Y21623765D01*
X4903624Y21633531D01*
X4900963Y21639971D01*
X4896335Y21645306D01*
X4894582Y21646965D01*
X4881418Y21655577D01*
X4863233Y21663137D01*
X4843766Y21668523D01*
X4826755Y21670614D01*
X4818828Y21669688D01*
X4809553Y21665175D01*
X4795039Y21656320D01*
X4778040Y21644830D01*
X4773683Y21641715D01*
X4758318Y21630933D01*
X4746598Y21623345D01*
X4740381Y21620127D01*
X4739846Y21620279D01*
X4741142Y21626407D01*
X4744483Y21639006D01*
X4747691Y21650308D01*
X4751905Y21668773D01*
X4754007Y21686147D01*
X4753957Y21693653D01*
X4752315Y21702252D01*
X4748060Y21709089D01*
X4739287Y21715917D01*
X4724089Y21724488D01*
X4715687Y21728848D01*
X4697568Y21737631D01*
X4682100Y21744199D01*
X4672005Y21747421D01*
X4670572Y21747571D01*
X4663119Y21744255D01*
X4650926Y21735561D01*
X4636338Y21723206D01*
X4632863Y21720000D01*
X4619091Y21707223D01*
X4608453Y21697613D01*
X4602769Y21692803D01*
X4602313Y21692539D01*
X4601626Y21697246D01*
X4600618Y21710162D01*
X4599407Y21729478D01*
X4598114Y21753389D01*
X4597715Y21761466D01*
X4595928Y21793924D01*
X4593808Y21819673D01*
X4590961Y21841293D01*
X4877133Y21841293D01*
X4879801Y21835893D01*
X4888101Y21829438D01*
X4902639Y21821094D01*
X4920257Y21812465D01*
X4937796Y21805158D01*
X4945372Y21802556D01*
X4955070Y21799515D01*
X4958962Y21798240D01*
X4962722Y21801138D01*
X4963861Y21802272D01*
X5016568Y21802272D01*
X5016805Y21790353D01*
X5020031Y21785606D01*
X5030194Y21781480D01*
X5046653Y21776829D01*
X5065773Y21772486D01*
X5083919Y21769284D01*
X5096602Y21768062D01*
X5110127Y21769342D01*
X5116017Y21773479D01*
X5179403Y21773479D01*
X5181092Y21770098D01*
X5192240Y21763340D01*
X5209108Y21760092D01*
X5228025Y21760352D01*
X5245317Y21764121D01*
X5256020Y21770105D01*
X5264507Y21781679D01*
X5270624Y21797004D01*
X5273402Y21812371D01*
X5271873Y21824067D01*
X5270629Y21826075D01*
X5257725Y21836593D01*
X5240628Y21844740D01*
X5225086Y21847903D01*
X5215016Y21843671D01*
X5203991Y21832743D01*
X5193463Y21817689D01*
X5184887Y21801080D01*
X5179716Y21785486D01*
X5179403Y21773479D01*
X5116017Y21773479D01*
X5119025Y21775592D01*
X5124833Y21784024D01*
X5133561Y21800662D01*
X5140957Y21818190D01*
X5141085Y21818553D01*
X5144410Y21830142D01*
X5144016Y21839474D01*
X5139203Y21850665D01*
X5134098Y21859650D01*
X5125742Y21873074D01*
X5118920Y21882574D01*
X5116368Y21885188D01*
X5108320Y21885627D01*
X5094472Y21882579D01*
X5077957Y21877102D01*
X5061911Y21870254D01*
X5049469Y21863093D01*
X5048321Y21862226D01*
X5037367Y21850515D01*
X5027793Y21834913D01*
X5020545Y21817979D01*
X5016568Y21802272D01*
X4963861Y21802272D01*
X4970353Y21808736D01*
X4970686Y21809088D01*
X4979203Y21820189D01*
X4988983Y21835865D01*
X4993817Y21844758D01*
X5006283Y21869149D01*
X4994358Y21892380D01*
X4982020Y21911806D01*
X4968467Y21922209D01*
X4951534Y21924544D01*
X4931020Y21920362D01*
X4914945Y21914481D01*
X4903484Y21906631D01*
X4894556Y21894506D01*
X4886080Y21875800D01*
X4882657Y21866791D01*
X4877671Y21851019D01*
X4877133Y21841293D01*
X4590961Y21841293D01*
X4590864Y21842027D01*
X4586603Y21864302D01*
X4580535Y21889811D01*
X4576351Y21906018D01*
X4752777Y21906018D01*
X4753252Y21900102D01*
X4759510Y21892820D01*
X4771975Y21883383D01*
X4787649Y21873566D01*
X4803534Y21865147D01*
X4816630Y21859901D01*
X4822529Y21859068D01*
X4831015Y21864313D01*
X4841690Y21876864D01*
X4848847Y21887818D01*
X4857485Y21903916D01*
X4863402Y21918042D01*
X4865167Y21925794D01*
X4860642Y21939770D01*
X4848748Y21951115D01*
X4832003Y21958850D01*
X4812927Y21961992D01*
X4794039Y21959562D01*
X4786396Y21956455D01*
X4775441Y21947613D01*
X4764934Y21934131D01*
X4756753Y21919202D01*
X4752777Y21906018D01*
X4576351Y21906018D01*
X4576176Y21906697D01*
X4570525Y21924574D01*
X4565587Y21933383D01*
X4561814Y21932928D01*
X4559655Y21923012D01*
X4559319Y21914061D01*
X4557482Y21889913D01*
X4552664Y21861846D01*
X4545672Y21833013D01*
X4537318Y21806569D01*
X4528411Y21785669D01*
X4524738Y21779361D01*
X4506531Y21746025D01*
X4493050Y21709503D01*
X4486634Y21679178D01*
X4485660Y21665081D01*
X4329796Y21665081D01*
X4328878Y21675367D01*
X4326946Y21700725D01*
X4325357Y21731960D01*
X4324286Y21764927D01*
X4323911Y21792724D01*
X4323983Y21820482D01*
X4324537Y21840487D01*
X4325894Y21855010D01*
X4328375Y21866323D01*
X4332300Y21876698D01*
X4337211Y21886868D01*
X4348278Y21905164D01*
X4363073Y21925146D01*
X4374807Y21938616D01*
X4398974Y21963822D01*
X4398974Y21967688D01*
X4652616Y21967688D01*
X4654841Y21959175D01*
X4662535Y21950780D01*
X4677224Y21939544D01*
X4694099Y21930004D01*
X4709331Y21924159D01*
X4715274Y21923244D01*
X4722278Y21927454D01*
X4729958Y21938365D01*
X4732187Y21942870D01*
X4737665Y21960052D01*
X4738143Y21974288D01*
X4737990Y21974959D01*
X4733572Y21984445D01*
X4724941Y21997825D01*
X4713944Y22012746D01*
X4702427Y22026855D01*
X4692238Y22037797D01*
X4685223Y22043219D01*
X4684252Y22043437D01*
X4679464Y22039037D01*
X4672874Y22027426D01*
X4665586Y22010989D01*
X4658700Y21992112D01*
X4655237Y21980665D01*
X4652616Y21967688D01*
X4398974Y21967688D01*
X4398974Y22000682D01*
X4394034Y22060691D01*
X4379468Y22119578D01*
X4364332Y22157939D01*
X4352747Y22185412D01*
X4344288Y22211497D01*
X4338624Y22238408D01*
X4335419Y22268359D01*
X4334491Y22298727D01*
X4467660Y22298727D01*
X4468291Y22287930D01*
X4470226Y22279582D01*
X4471727Y22275601D01*
X4484190Y22255607D01*
X4504459Y22234680D01*
X4530646Y22214448D01*
X4560864Y22196541D01*
X4566545Y22193710D01*
X4592908Y22179889D01*
X4612431Y22166431D01*
X4627860Y22150770D01*
X4641941Y22130338D01*
X4650726Y22115010D01*
X4664202Y22093880D01*
X4680513Y22075949D01*
X4702047Y22058263D01*
X4733086Y22036023D01*
X4758512Y22020148D01*
X4779795Y22009907D01*
X4798407Y22004568D01*
X4812497Y22003335D01*
X4828493Y22001322D01*
X4846000Y21996109D01*
X4862272Y21988936D01*
X4874561Y21981041D01*
X4880120Y21973663D01*
X4880206Y21972791D01*
X4884874Y21966666D01*
X4897519Y21960749D01*
X4916100Y21955673D01*
X4938578Y21952069D01*
X4950594Y21951018D01*
X4974428Y21948499D01*
X4992128Y21943353D01*
X5007544Y21933885D01*
X5024409Y21918514D01*
X5039110Y21907391D01*
X5055490Y21903250D01*
X5076273Y21905625D01*
X5085488Y21908021D01*
X5109430Y21909971D01*
X5135718Y21902605D01*
X5161398Y21888148D01*
X5178035Y21878265D01*
X5192644Y21873941D01*
X5209124Y21874641D01*
X5228176Y21878961D01*
X5240354Y21881720D01*
X5250393Y21881934D01*
X5261595Y21879020D01*
X5277261Y21872394D01*
X5284643Y21868981D01*
X5304263Y21860113D01*
X5318073Y21855184D01*
X5329259Y21853713D01*
X5341007Y21855216D01*
X5353918Y21858500D01*
X5368852Y21863656D01*
X5388030Y21871712D01*
X5408670Y21881323D01*
X5427989Y21891143D01*
X5443206Y21899827D01*
X5450993Y21905460D01*
X5453744Y21909969D01*
X5454028Y21917229D01*
X5451533Y21929155D01*
X5445945Y21947657D01*
X5442221Y21958989D01*
X5435583Y21979197D01*
X5430347Y21995675D01*
X5427202Y22006227D01*
X5426604Y22008835D01*
X5430888Y22008923D01*
X5442043Y22006185D01*
X5455428Y22001951D01*
X5483258Y21995106D01*
X5517572Y21990722D01*
X5555101Y21988924D01*
X5592581Y21989838D01*
X5626743Y21993587D01*
X5634896Y21995086D01*
X5674965Y22004555D01*
X5714243Y22016275D01*
X5750960Y22029534D01*
X5783344Y22043622D01*
X5809628Y22057827D01*
X5828039Y22071439D01*
X5830135Y22073513D01*
X5843320Y22087275D01*
X5834858Y22116384D01*
X5830512Y22135146D01*
X5828435Y22155402D01*
X5828382Y22180508D01*
X5829041Y22195975D01*
X5835927Y22255002D01*
X5850001Y22307329D01*
X5871185Y22352821D01*
X5899404Y22391345D01*
X5934581Y22422766D01*
X5971686Y22444653D01*
X5990754Y22454416D01*
X6003665Y22463694D01*
X6011881Y22474846D01*
X6016864Y22490234D01*
X6020074Y22512220D01*
X6021327Y22524865D01*
X6020997Y22565264D01*
X6013301Y22606269D01*
X5999137Y22645425D01*
X5979399Y22680277D01*
X5954983Y22708369D01*
X5954087Y22709171D01*
X5924138Y22732936D01*
X5885923Y22758720D01*
X5840808Y22785757D01*
X5790156Y22813278D01*
X5735333Y22840516D01*
X5677704Y22866704D01*
X5662207Y22873340D01*
X5637944Y22883727D01*
X5616941Y22892967D01*
X5600957Y22900266D01*
X5591748Y22904834D01*
X5590336Y22905736D01*
X5593573Y22907155D01*
X5605306Y22908625D01*
X5624005Y22910088D01*
X5648140Y22911486D01*
X5676183Y22912759D01*
X5706605Y22913850D01*
X5737874Y22914700D01*
X5768463Y22915251D01*
X5796841Y22915444D01*
X5821479Y22915221D01*
X5831395Y22914953D01*
X5852546Y22914529D01*
X5869214Y22914794D01*
X5879377Y22915677D01*
X5881523Y22916677D01*
X5877273Y22921192D01*
X5867009Y22930227D01*
X5852625Y22942139D01*
X5846225Y22947276D01*
X5806370Y22976278D01*
X5764416Y23002002D01*
X5724050Y23022218D01*
X5717700Y23024910D01*
X5698359Y23031907D01*
X5672152Y23040085D01*
X5642041Y23048640D01*
X5610987Y23056771D01*
X5581954Y23063675D01*
X5557902Y23068550D01*
X5554431Y23069134D01*
X5529367Y23073175D01*
X5554431Y23076695D01*
X5586034Y23079583D01*
X5622626Y23080497D01*
X5660201Y23079513D01*
X5694754Y23076708D01*
X5715305Y23073642D01*
X5733801Y23070393D01*
X5748114Y23068422D01*
X5755742Y23068059D01*
X5756314Y23068260D01*
X5754695Y23072726D01*
X5745676Y23080033D01*
X5731091Y23089122D01*
X5712778Y23098934D01*
X5692571Y23108411D01*
X5673290Y23116140D01*
X5629635Y23130385D01*
X5584514Y23141812D01*
X5536118Y23150716D01*
X5482642Y23157391D01*
X5422278Y23162129D01*
X5376476Y23164392D01*
X5282904Y23164932D01*
X5194771Y23158957D01*
X5112491Y23146585D01*
X5036475Y23127936D01*
X4967138Y23103127D01*
X4904891Y23072278D01*
X4850149Y23035506D01*
X4812911Y23002774D01*
X4783213Y22973317D01*
X4814124Y22970811D01*
X4845035Y22968304D01*
X4801213Y22935971D01*
X4768092Y22909851D01*
X4735362Y22880962D01*
X4704588Y22850921D01*
X4677334Y22821344D01*
X4655165Y22793848D01*
X4639643Y22770050D01*
X4638400Y22767709D01*
X4625932Y22740445D01*
X4614904Y22710521D01*
X4606231Y22680972D01*
X4600834Y22654833D01*
X4599487Y22639107D01*
X4600239Y22626047D01*
X4602912Y22618867D01*
X4608130Y22617981D01*
X4616520Y22623803D01*
X4628706Y22636748D01*
X4645314Y22657228D01*
X4664174Y22681934D01*
X4680140Y22702422D01*
X4695871Y22721308D01*
X4709396Y22736295D01*
X4717671Y22744242D01*
X4728043Y22751616D01*
X4743786Y22761458D01*
X4762706Y22772553D01*
X4782608Y22783682D01*
X4801297Y22793627D01*
X4816578Y22801170D01*
X4826255Y22805094D01*
X4827875Y22805387D01*
X4826060Y22802042D01*
X4818297Y22792841D01*
X4805708Y22779035D01*
X4789416Y22761875D01*
X4781775Y22754006D01*
X4746759Y22716757D01*
X4718796Y22683554D01*
X4696724Y22652691D01*
X4679385Y22622463D01*
X4665618Y22591166D01*
X4659702Y22574554D01*
X4648317Y22541155D01*
X4637412Y22510743D01*
X4627491Y22484596D01*
X4619061Y22463993D01*
X4612625Y22450214D01*
X4608687Y22444540D01*
X4608393Y22444464D01*
X4601901Y22447094D01*
X4590424Y22453806D01*
X4582845Y22458791D01*
X4565287Y22470072D01*
X4546353Y22481098D01*
X4528498Y22490564D01*
X4514181Y22497167D01*
X4505925Y22499605D01*
X4500775Y22496458D01*
X4495786Y22486584D01*
X4490806Y22469334D01*
X4485680Y22444057D01*
X4480256Y22410105D01*
X4474381Y22366827D01*
X4474082Y22364475D01*
X4470506Y22335134D01*
X4468381Y22313840D01*
X4467660Y22298727D01*
X4334491Y22298727D01*
X4334343Y22303566D01*
X4335061Y22346243D01*
X4335231Y22351390D01*
X4339627Y22422758D01*
X4347575Y22486022D01*
X4358997Y22540951D01*
X4373818Y22587309D01*
X4391959Y22624864D01*
X4413343Y22653383D01*
X4437893Y22672631D01*
X4442182Y22674870D01*
X4467485Y22687217D01*
X4483404Y22751658D01*
X4497347Y22802996D01*
X4513008Y22851740D01*
X4529595Y22895680D01*
X4546317Y22932604D01*
X4551934Y22943240D01*
X4575538Y22977956D01*
X4608008Y23013584D01*
X4648312Y23049456D01*
X4695416Y23084903D01*
X4748286Y23119255D01*
X4805889Y23151845D01*
X4867191Y23182003D01*
X4931160Y23209061D01*
X4996760Y23232348D01*
X5000438Y23233520D01*
X5086195Y23256660D01*
X5175741Y23273309D01*
X5267410Y23283449D01*
X5359533Y23287060D01*
X5450444Y23284124D01*
G37*
G04 #@! TD*
M02*
