M48
; DRILL file {KiCad 7.0.2} date Fri Aug 25 12:46:13 2023
; FORMAT={-:-/ absolute / inch / decimal}
; #@! TF.CreationDate,2023-08-25T12:46:13-04:00
; #@! TF.GenerationSoftware,Kicad,Pcbnew,7.0.2
; #@! TF.FileFunction,Plated,1,2,PTH
FMAT,2
INCH
; #@! TA.AperFunction,Plated,PTH,ViaDrill
T1C0.0157
; #@! TA.AperFunction,Plated,PTH,ComponentDrill
T2C0.0291
; #@! TA.AperFunction,Plated,PTH,ComponentDrill
T3C0.1063
%
G90
G05
T1
X0.1134Y0.4878
X0.3031Y0.6024
X0.3705Y0.2205
X0.378Y1.1831
X0.44Y1.3957
X0.4646Y1.1806
X0.5226Y1.3932
X0.5512Y1.1831
X0.5906Y0.9213
X0.6457Y1.4764
X0.6535Y1.2008
X0.7756Y1.3858
X0.7756Y1.2795
X0.7756Y0.9094
X0.811Y0.9488
X0.8543Y1.3858
X0.8543Y1.0591
X0.9685Y1.1875
X1.063Y1.185
X1.0906Y0.8386
X1.1575Y1.185
X1.2323Y0.1024
X1.3543Y0.5039
X1.4486Y0.4978
T2
X0.6476Y1.3189
X0.9035Y1.3189
T3
X0.2075Y0.2579
X1.3673Y0.2579
T0
M30
