G04 #@! TF.GenerationSoftware,KiCad,Pcbnew,7.0.2*
G04 #@! TF.CreationDate,2023-08-25T12:46:11-04:00*
G04 #@! TF.ProjectId,Foras Promineo CLR PCB,466f7261-7320-4507-926f-6d696e656f20,rev?*
G04 #@! TF.SameCoordinates,PX3969440PY5f5e100*
G04 #@! TF.FileFunction,Copper,L2,Bot*
G04 #@! TF.FilePolarity,Positive*
%FSLAX46Y46*%
G04 Gerber Fmt 4.6, Leading zero omitted, Abs format (unit mm)*
G04 Created by KiCad (PCBNEW 7.0.2) date 2023-08-25 12:46:11*
%MOMM*%
%LPD*%
G01*
G04 APERTURE LIST*
G04 #@! TA.AperFunction,ComponentPad*
%ADD10C,4.700000*%
G04 #@! TD*
G04 #@! TA.AperFunction,SMDPad,CuDef*
%ADD11R,0.600000X2.000000*%
G04 #@! TD*
G04 #@! TA.AperFunction,ComponentPad*
%ADD12C,1.248000*%
G04 #@! TD*
G04 #@! TA.AperFunction,SMDPad,CuDef*
%ADD13C,1.000000*%
G04 #@! TD*
G04 #@! TA.AperFunction,ViaPad*
%ADD14C,0.800000*%
G04 #@! TD*
G04 #@! TA.AperFunction,Conductor*
%ADD15C,0.600000*%
G04 #@! TD*
G04 APERTURE END LIST*
D10*
G04 #@! TO.P,H1,1,1*
G04 #@! TO.N,Net-(C1-Pad1)*
X5270700Y6550000D03*
G04 #@! TD*
G04 #@! TO.P,H2,1,1*
G04 #@! TO.N,Net-(C2-Pad1)*
X34730000Y6550000D03*
G04 #@! TD*
D11*
G04 #@! TO.P,J1,1,Pin_1*
G04 #@! TO.N,Net-(J1-Pin_1)*
X17700000Y37525000D03*
G04 #@! TO.P,J1,2,Pin_2*
X17700000Y30475000D03*
G04 #@! TO.P,J1,3,Pin_3*
G04 #@! TO.N,GND*
X18700000Y37525000D03*
G04 #@! TO.P,J1,4,Pin_4*
X18700000Y30475000D03*
G04 #@! TO.P,J1,5,Pin_5*
G04 #@! TO.N,/LED_1*
X19700000Y37525000D03*
G04 #@! TO.P,J1,6,Pin_6*
G04 #@! TO.N,/LED_2*
X19700000Y30475000D03*
G04 #@! TO.P,J1,7,Pin_7*
G04 #@! TO.N,/LED_3*
X20700000Y37525000D03*
G04 #@! TO.P,J1,8,Pin_8*
G04 #@! TO.N,/LED_4*
X20700000Y30475000D03*
G04 #@! TO.P,J1,9,Pin_9*
G04 #@! TO.N,/LED_5*
X21700000Y37525000D03*
G04 #@! TO.P,J1,10,Pin_10*
G04 #@! TO.N,/LED_6*
X21700000Y30475000D03*
D12*
G04 #@! TO.P,J1,S1*
G04 #@! TO.N,N/C*
X16450000Y33500000D03*
G04 #@! TO.P,J1,S2*
X22950000Y33500000D03*
G04 #@! TD*
D13*
G04 #@! TO.P,REF\u002A\u002A,*
G04 #@! TO.N,*
X2000000Y2000000D03*
G04 #@! TD*
G04 #@! TO.P,REF\u002A\u002A,e*
G04 #@! TO.N,N/C*
X36000000Y37000000D03*
G04 #@! TD*
G04 #@! TO.P,REF\u002A\u002A,*
G04 #@! TO.N,*
X2000000Y37000000D03*
G04 #@! TD*
D14*
G04 #@! TO.N,GND*
X36795000Y12645170D03*
X2880000Y12390170D03*
X13275000Y35387500D03*
X11175000Y35450000D03*
G04 #@! TO.N,Net-(J1-Pin_1)*
X24600000Y30162500D03*
X11800000Y29987500D03*
X16400000Y37500000D03*
X27000000Y30100000D03*
X14000000Y30050000D03*
X29400000Y30100000D03*
X16600000Y30500000D03*
X9600000Y30050000D03*
G04 #@! TO.N,/LED_6*
X15000000Y23400000D03*
G04 #@! TO.N,/LED_5*
X21700000Y35200000D03*
X21700000Y26900000D03*
X7700000Y15300000D03*
G04 #@! TO.N,/LED_4*
X9410000Y5600000D03*
G04 #@! TO.N,/LED_3*
X31300000Y2600000D03*
G04 #@! TO.N,/LED_2*
X19700000Y32500000D03*
X34400000Y12800000D03*
X19700000Y23100000D03*
G04 #@! TO.N,/LED_1*
X20600000Y24100000D03*
X19700000Y35200000D03*
X27700000Y21300000D03*
G04 #@! TD*
D15*
G04 #@! TO.N,/LED_4*
X20700000Y28400000D02*
X20700000Y30475000D01*
X17730170Y25430170D02*
X20700000Y28400000D01*
X13480000Y25430170D02*
X17730170Y25430170D01*
X5790000Y10720170D02*
X5790000Y17740170D01*
X5790000Y17740170D02*
X13480000Y25430170D01*
X9410000Y7100170D02*
X5790000Y10720170D01*
X9410000Y5600000D02*
X9410000Y7100170D01*
G04 #@! TO.N,Net-(J1-Pin_1)*
X17700000Y30475000D02*
X16625000Y30475000D01*
X17700000Y37525000D02*
X16425000Y37525000D01*
X16425000Y37525000D02*
X16400000Y37500000D01*
X16625000Y30475000D02*
X16600000Y30500000D01*
G04 #@! TO.N,/LED_6*
X16900000Y23400000D02*
X15000000Y23400000D01*
X21700000Y28200000D02*
X16900000Y23400000D01*
X21700000Y30475000D02*
X21700000Y28200000D01*
G04 #@! TO.N,/LED_5*
X17200000Y22400000D02*
X12500000Y22400000D01*
X21700000Y37525000D02*
X21700000Y35200000D01*
X7700000Y17600000D02*
X7700000Y15300000D01*
X21700000Y26900000D02*
X17200000Y22400000D01*
X12500000Y22400000D02*
X7700000Y17600000D01*
G04 #@! TO.N,/LED_3*
X34700000Y1100000D02*
X32800000Y1100000D01*
X37000000Y24200000D02*
X37000000Y14000000D01*
X20700000Y37525000D02*
X20700000Y33700000D01*
X38000000Y4400000D02*
X34700000Y1100000D01*
X38000000Y13000000D02*
X38000000Y4400000D01*
X37000000Y14000000D02*
X38000000Y13000000D01*
X29800000Y31400000D02*
X37000000Y24200000D01*
X32800000Y1100000D02*
X31300000Y2600000D01*
X20700000Y33700000D02*
X23000000Y31400000D01*
X23000000Y31400000D02*
X29800000Y31400000D01*
G04 #@! TO.N,/LED_2*
X24100000Y23100000D02*
X19700000Y23100000D01*
X34400000Y12800000D02*
X24100000Y23100000D01*
X19700000Y30475000D02*
X19700000Y32500000D01*
G04 #@! TO.N,/LED_1*
X20600000Y24100000D02*
X24900000Y24100000D01*
X19700000Y37525000D02*
X19700000Y35200000D01*
X24900000Y24100000D02*
X27700000Y21300000D01*
G04 #@! TD*
G04 #@! TA.AperFunction,Conductor*
G04 #@! TO.N,GND*
G36*
X37804487Y39545179D02*
G01*
X37825448Y39543680D01*
X38039429Y39528376D01*
X38057202Y39525821D01*
X38282970Y39476708D01*
X38300195Y39471651D01*
X38516669Y39390910D01*
X38533016Y39383444D01*
X38735782Y39272725D01*
X38750905Y39263006D01*
X38935847Y39124560D01*
X38949433Y39112787D01*
X39112786Y38949434D01*
X39124559Y38935848D01*
X39263005Y38750906D01*
X39272724Y38735783D01*
X39383443Y38533017D01*
X39390912Y38516664D01*
X39471647Y38300205D01*
X39476710Y38282961D01*
X39525818Y38057214D01*
X39528376Y38039420D01*
X39545179Y37804489D01*
X39545500Y37795500D01*
X39545500Y2004501D01*
X39545179Y1995512D01*
X39528376Y1760581D01*
X39525818Y1742787D01*
X39476710Y1517040D01*
X39471645Y1499790D01*
X39390912Y1283337D01*
X39383443Y1266984D01*
X39272724Y1064218D01*
X39263005Y1049095D01*
X39124559Y864153D01*
X39112786Y850567D01*
X38949433Y687214D01*
X38935847Y675441D01*
X38750905Y536995D01*
X38735782Y527276D01*
X38533016Y416557D01*
X38516663Y409088D01*
X38300210Y328355D01*
X38282960Y323290D01*
X38057213Y274182D01*
X38039419Y271624D01*
X37804488Y254821D01*
X37795499Y254500D01*
X2176725Y254500D01*
X2108604Y274502D01*
X2062111Y328158D01*
X2052007Y398432D01*
X2081501Y463012D01*
X2141227Y501396D01*
X2155978Y504781D01*
X2369614Y540429D01*
X2604810Y621172D01*
X2823509Y739526D01*
X3019744Y892262D01*
X3188164Y1075215D01*
X3324173Y1283393D01*
X3424063Y1511119D01*
X3485108Y1752179D01*
X3505643Y2000000D01*
X3485108Y2247821D01*
X3424063Y2488881D01*
X3324173Y2716607D01*
X3324172Y2716609D01*
X3324171Y2716611D01*
X3188166Y2924783D01*
X3019744Y3107738D01*
X2890578Y3208272D01*
X2823509Y3260474D01*
X2604810Y3378828D01*
X2604809Y3378829D01*
X2604806Y3378830D01*
X2448012Y3432657D01*
X2369614Y3459571D01*
X2124335Y3500500D01*
X1875665Y3500500D01*
X1630386Y3459571D01*
X1630383Y3459571D01*
X1630383Y3459570D01*
X1395193Y3378830D01*
X1176489Y3260473D01*
X980255Y3107738D01*
X811833Y2924783D01*
X675828Y2716611D01*
X575935Y2488877D01*
X526486Y2293606D01*
X514892Y2247821D01*
X509702Y2185199D01*
X506069Y2141348D01*
X480509Y2075112D01*
X423196Y2033209D01*
X352328Y2028944D01*
X290404Y2063670D01*
X257084Y2126362D01*
X254499Y2151745D01*
X254499Y6550000D01*
X2661440Y6550000D01*
X2680464Y6235488D01*
X2681147Y6231759D01*
X2681149Y6231746D01*
X2701317Y6121696D01*
X2737260Y5925563D01*
X2738391Y5921932D01*
X2738393Y5921926D01*
X2774225Y5806938D01*
X2831000Y5624744D01*
X2832561Y5621276D01*
X2832562Y5621273D01*
X2839776Y5605243D01*
X2960315Y5337416D01*
X3123321Y5067771D01*
X3125661Y5064784D01*
X3125664Y5064780D01*
X3315288Y4822744D01*
X3317641Y4819741D01*
X3540441Y4596941D01*
X3788471Y4402621D01*
X4058116Y4239615D01*
X4345444Y4110300D01*
X4646263Y4016560D01*
X4956188Y3959764D01*
X5270700Y3940740D01*
X5585212Y3959764D01*
X5895137Y4016560D01*
X6195956Y4110300D01*
X6483284Y4239615D01*
X6752929Y4402621D01*
X7000959Y4596941D01*
X7223759Y4819741D01*
X7418079Y5067771D01*
X7581085Y5337416D01*
X7710400Y5624744D01*
X7804140Y5925563D01*
X7860936Y6235488D01*
X7879960Y6550000D01*
X7860936Y6864512D01*
X7804140Y7174437D01*
X7710400Y7475256D01*
X7581085Y7762584D01*
X7533519Y7841267D01*
X7515396Y7909911D01*
X7537260Y7977456D01*
X7592172Y8022459D01*
X7662697Y8030629D01*
X7726444Y7999374D01*
X7730443Y7995546D01*
X8818595Y6907394D01*
X8852621Y6845082D01*
X8855500Y6818299D01*
X8855500Y6455197D01*
X8852125Y6434332D01*
X8852761Y6434252D01*
X8754142Y5645293D01*
X8753946Y5643371D01*
X8752653Y5629453D01*
X8752516Y5627517D01*
X8752564Y5628043D01*
X8752486Y5626128D01*
X8752178Y5616292D01*
X8751329Y5605243D01*
X8750692Y5600001D01*
X8769850Y5442219D01*
X8826212Y5293606D01*
X8826213Y5293605D01*
X8916502Y5162799D01*
X9035471Y5057401D01*
X9176207Y4983537D01*
X9330529Y4945500D01*
X9330531Y4945500D01*
X9489469Y4945500D01*
X9489471Y4945500D01*
X9643793Y4983537D01*
X9784529Y5057401D01*
X9903498Y5162799D01*
X9993787Y5293605D01*
X10050149Y5442218D01*
X10069307Y5600000D01*
X10066560Y5622616D01*
X10066042Y5643810D01*
X10065855Y5645301D01*
X10065856Y5645305D01*
X9992083Y6235488D01*
X9967483Y6432294D01*
X9967757Y6432329D01*
X9964500Y6454667D01*
X9964500Y7088541D01*
X9964573Y7092843D01*
X9964612Y7094002D01*
X9966779Y7157409D01*
X9956991Y7197573D01*
X9954585Y7210228D01*
X9948957Y7251179D01*
X9941792Y7267673D01*
X9934947Y7288030D01*
X9930689Y7305503D01*
X9910434Y7341527D01*
X9904696Y7353079D01*
X9892753Y7380574D01*
X9888230Y7390988D01*
X9888228Y7390991D01*
X9876880Y7404940D01*
X9864791Y7422703D01*
X9855981Y7438371D01*
X9826760Y7467592D01*
X9818116Y7477169D01*
X9816848Y7478728D01*
X9792034Y7509228D01*
X9792032Y7509229D01*
X9792031Y7509231D01*
X9777338Y7519603D01*
X9760907Y7533444D01*
X6381405Y10912946D01*
X6347379Y10975258D01*
X6344500Y11002041D01*
X6344500Y11750000D01*
X10236486Y11750000D01*
X10236551Y11747974D01*
X10256472Y11126743D01*
X10256473Y11126722D01*
X10256538Y11124706D01*
X10256730Y11122713D01*
X10256732Y11122686D01*
X10316418Y10503974D01*
X10316420Y10503952D01*
X10316611Y10501981D01*
X10316927Y10500024D01*
X10316930Y10500004D01*
X10416140Y9886361D01*
X10416143Y9886345D01*
X10416460Y9884385D01*
X10416904Y9882438D01*
X10416905Y9882435D01*
X10555225Y9276410D01*
X10555231Y9276388D01*
X10555672Y9274455D01*
X10556242Y9272534D01*
X10556244Y9272527D01*
X10702978Y8778131D01*
X10733677Y8674697D01*
X10949743Y8087576D01*
X10950556Y8085739D01*
X10950557Y8085737D01*
X11201168Y7519603D01*
X11202982Y7515506D01*
X11203910Y7513726D01*
X11203914Y7513719D01*
X11424599Y7090707D01*
X11492353Y6960835D01*
X11553046Y6860715D01*
X11815612Y6427583D01*
X11815623Y6427565D01*
X11816667Y6425844D01*
X11817820Y6424191D01*
X11817824Y6424185D01*
X12168179Y5921926D01*
X12174593Y5912732D01*
X12175849Y5911157D01*
X12175855Y5911149D01*
X12389051Y5643810D01*
X12564658Y5423606D01*
X12566013Y5422114D01*
X12566019Y5422107D01*
X12983902Y4961970D01*
X12985259Y4960476D01*
X12986709Y4959072D01*
X13364939Y4592777D01*
X13434670Y4525247D01*
X13911043Y4119705D01*
X14412419Y3745517D01*
X14936740Y3404222D01*
X15481851Y3097222D01*
X15483675Y3096344D01*
X15483680Y3096341D01*
X15839919Y2924785D01*
X16045511Y2825777D01*
X16625405Y2591004D01*
X17219149Y2393868D01*
X17824304Y2235177D01*
X18438383Y2115586D01*
X19058862Y2035584D01*
X19683192Y1995500D01*
X19685206Y1995500D01*
X20306794Y1995500D01*
X20308808Y1995500D01*
X20933138Y2035584D01*
X21553617Y2115586D01*
X22167696Y2235177D01*
X22772851Y2393868D01*
X23366595Y2591004D01*
X23946489Y2825777D01*
X24510149Y3097222D01*
X25055260Y3404222D01*
X25579581Y3745517D01*
X26080957Y4119705D01*
X26557330Y4525247D01*
X27006741Y4960476D01*
X27427342Y5423606D01*
X27817407Y5912732D01*
X28175333Y6425844D01*
X28499647Y6960835D01*
X28789018Y7515506D01*
X29042257Y8087576D01*
X29258323Y8674697D01*
X29436328Y9274455D01*
X29575540Y9884385D01*
X29675389Y10501981D01*
X29735462Y11124706D01*
X29755514Y11750000D01*
X29735462Y12375294D01*
X29675389Y12998019D01*
X29575540Y13615615D01*
X29436328Y14225545D01*
X29258323Y14825303D01*
X29042257Y15412424D01*
X28789018Y15984494D01*
X28499647Y16539165D01*
X28175333Y17074156D01*
X27849148Y17541765D01*
X27818565Y17585608D01*
X27818564Y17585610D01*
X27817407Y17587268D01*
X27733313Y17692718D01*
X27601835Y17857587D01*
X27427342Y18076394D01*
X27411899Y18093398D01*
X27008097Y18538031D01*
X27008095Y18538033D01*
X27006741Y18539524D01*
X26557330Y18974753D01*
X26080957Y19380295D01*
X25579581Y19754483D01*
X25577894Y19755582D01*
X25577887Y19755586D01*
X25317420Y19925131D01*
X25055260Y20095778D01*
X24510149Y20402778D01*
X24508336Y20403651D01*
X24508319Y20403660D01*
X23948309Y20673347D01*
X23948296Y20673353D01*
X23946489Y20674223D01*
X23944627Y20674977D01*
X23368464Y20908240D01*
X23368445Y20908247D01*
X23366595Y20908996D01*
X23098401Y20998043D01*
X22774749Y21105502D01*
X22774743Y21105504D01*
X22772851Y21106132D01*
X22635232Y21142220D01*
X22169641Y21264313D01*
X22169639Y21264314D01*
X22167696Y21264823D01*
X22165727Y21265207D01*
X22165716Y21265209D01*
X21555593Y21384030D01*
X21555568Y21384035D01*
X21553617Y21384414D01*
X21551648Y21384668D01*
X21551635Y21384670D01*
X20935138Y21464159D01*
X20935111Y21464162D01*
X20933138Y21464416D01*
X20931118Y21464546D01*
X20931115Y21464546D01*
X20310819Y21504371D01*
X20310815Y21504372D01*
X20308808Y21504500D01*
X19683192Y21504500D01*
X19681185Y21504372D01*
X19681180Y21504371D01*
X19060884Y21464546D01*
X19060878Y21464546D01*
X19058862Y21464416D01*
X19056891Y21464162D01*
X19056861Y21464159D01*
X18440364Y21384670D01*
X18440346Y21384668D01*
X18438383Y21384414D01*
X18436436Y21384035D01*
X18436406Y21384030D01*
X17826283Y21265209D01*
X17826265Y21265205D01*
X17824304Y21264823D01*
X17822366Y21264316D01*
X17822358Y21264313D01*
X17221085Y21106640D01*
X17221075Y21106638D01*
X17219149Y21106132D01*
X17217264Y21105507D01*
X17217250Y21105502D01*
X16627326Y20909634D01*
X16627320Y20909633D01*
X16625405Y20908996D01*
X16623564Y20908251D01*
X16623535Y20908240D01*
X16047372Y20674977D01*
X16047357Y20674971D01*
X16045511Y20674223D01*
X16043714Y20673358D01*
X16043690Y20673347D01*
X15483680Y20403660D01*
X15483650Y20403645D01*
X15481851Y20402778D01*
X15480089Y20401787D01*
X15480080Y20401781D01*
X14938502Y20096771D01*
X14938486Y20096762D01*
X14936740Y20095778D01*
X14935052Y20094680D01*
X14935045Y20094675D01*
X14414112Y19755586D01*
X14414090Y19755572D01*
X14412419Y19754483D01*
X14410824Y19753294D01*
X14410803Y19753278D01*
X13912656Y19381499D01*
X13911043Y19380295D01*
X13909529Y19379007D01*
X13909510Y19378991D01*
X13436208Y18976063D01*
X13436195Y18976053D01*
X13434670Y18974753D01*
X13433236Y18973365D01*
X13433217Y18973347D01*
X12986709Y18540929D01*
X12986697Y18540917D01*
X12985259Y18539524D01*
X12983919Y18538050D01*
X12983902Y18538031D01*
X12566019Y18077894D01*
X12566000Y18077872D01*
X12564658Y18076394D01*
X12563410Y18074830D01*
X12563398Y18074815D01*
X12175855Y17588852D01*
X12175837Y17588829D01*
X12174593Y17587268D01*
X12173450Y17585630D01*
X12173434Y17585608D01*
X11817824Y17075816D01*
X11817810Y17075796D01*
X11816667Y17074156D01*
X11815632Y17072450D01*
X11815612Y17072418D01*
X11493404Y16540899D01*
X11492353Y16539165D01*
X11491429Y16537396D01*
X11491420Y16537378D01*
X11203914Y15986282D01*
X11203904Y15986263D01*
X11202982Y15984494D01*
X11202169Y15982658D01*
X11202163Y15982645D01*
X10950557Y15414264D01*
X10950551Y15414251D01*
X10949743Y15412424D01*
X10949052Y15410547D01*
X10949047Y15410534D01*
X10747476Y14862800D01*
X10733677Y14825303D01*
X10733105Y14823379D01*
X10733102Y14823367D01*
X10556244Y14227474D01*
X10556240Y14227459D01*
X10555672Y14225545D01*
X10555232Y14223621D01*
X10555225Y14223591D01*
X10418147Y13623007D01*
X10416460Y13615615D01*
X10416144Y13613661D01*
X10416140Y13613640D01*
X10316930Y12999997D01*
X10316926Y12999973D01*
X10316611Y12998019D01*
X10316421Y12996053D01*
X10316418Y12996027D01*
X10256732Y12377315D01*
X10256730Y12377286D01*
X10256538Y12375294D01*
X10256473Y12373281D01*
X10256472Y12373258D01*
X10236551Y11752027D01*
X10236486Y11750000D01*
X6344500Y11750000D01*
X6344500Y17458299D01*
X6364502Y17526420D01*
X6381405Y17547394D01*
X13672776Y24838765D01*
X13735088Y24872791D01*
X13761871Y24875670D01*
X17287299Y24875670D01*
X17355420Y24855668D01*
X17401913Y24802012D01*
X17412017Y24731738D01*
X17382523Y24667158D01*
X17376394Y24660575D01*
X16707224Y23991405D01*
X16644912Y23957379D01*
X16618129Y23954500D01*
X15855195Y23954500D01*
X15834332Y23957874D01*
X15834253Y23957238D01*
X15110806Y24047669D01*
X15096282Y24050357D01*
X15079472Y24054500D01*
X15079471Y24054500D01*
X15064001Y24054500D01*
X15048373Y24055473D01*
X15045293Y24055858D01*
X15043359Y24056055D01*
X15029442Y24057347D01*
X15027526Y24057482D01*
X15028031Y24057436D01*
X15026139Y24057512D01*
X15012373Y24057957D01*
X15008370Y24057171D01*
X15006786Y24056860D01*
X14982515Y24054500D01*
X14920529Y24054500D01*
X14766207Y24016463D01*
X14766206Y24016463D01*
X14766204Y24016462D01*
X14625472Y23942600D01*
X14506501Y23837201D01*
X14416212Y23706395D01*
X14359850Y23557781D01*
X14340693Y23400000D01*
X14359850Y23242220D01*
X14404238Y23125180D01*
X14409692Y23054394D01*
X14376010Y22991895D01*
X14313885Y22957528D01*
X14286426Y22954500D01*
X12511629Y22954500D01*
X12507327Y22954573D01*
X12499257Y22954849D01*
X12442761Y22956779D01*
X12442760Y22956779D01*
X12442757Y22956779D01*
X12402596Y22946993D01*
X12389928Y22944585D01*
X12348991Y22938958D01*
X12332493Y22931792D01*
X12312140Y22924948D01*
X12294668Y22920690D01*
X12258643Y22900435D01*
X12247095Y22894700D01*
X12209178Y22878230D01*
X12195222Y22866876D01*
X12177472Y22854795D01*
X12161802Y22845983D01*
X12132574Y22816757D01*
X12123003Y22808120D01*
X12090942Y22782035D01*
X12080568Y22767339D01*
X12066729Y22750912D01*
X7316154Y18000337D01*
X7313063Y17997349D01*
X7265823Y17953229D01*
X7244348Y17917915D01*
X7237092Y17907254D01*
X7212120Y17874323D01*
X7205520Y17857587D01*
X7195967Y17838354D01*
X7186624Y17822989D01*
X7175471Y17783190D01*
X7171362Y17770971D01*
X7156200Y17732521D01*
X7154361Y17714630D01*
X7150350Y17693528D01*
X7145500Y17676217D01*
X7145500Y17634885D01*
X7144839Y17622000D01*
X7140613Y17580892D01*
X7143668Y17563173D01*
X7145500Y17541765D01*
X7145500Y16155197D01*
X7142125Y16134332D01*
X7142761Y16134252D01*
X7044142Y15345293D01*
X7043946Y15343371D01*
X7042653Y15329453D01*
X7042516Y15327517D01*
X7042564Y15328043D01*
X7042486Y15326128D01*
X7042178Y15316292D01*
X7041329Y15305243D01*
X7040692Y15300001D01*
X7059850Y15142219D01*
X7116212Y14993606D01*
X7116213Y14993605D01*
X7206502Y14862799D01*
X7325471Y14757401D01*
X7466207Y14683537D01*
X7620529Y14645500D01*
X7620531Y14645500D01*
X7779469Y14645500D01*
X7779471Y14645500D01*
X7933793Y14683537D01*
X8074529Y14757401D01*
X8193498Y14862799D01*
X8283787Y14993605D01*
X8340149Y15142218D01*
X8359307Y15300000D01*
X8356560Y15322616D01*
X8356042Y15343810D01*
X8355855Y15345301D01*
X8355856Y15345305D01*
X8276189Y15982645D01*
X8257483Y16132294D01*
X8257757Y16132329D01*
X8254500Y16154667D01*
X8254500Y17318129D01*
X8274502Y17386250D01*
X8291405Y17407224D01*
X12692776Y21808595D01*
X12755088Y21842621D01*
X12781871Y21845500D01*
X17188371Y21845500D01*
X17192673Y21845427D01*
X17193997Y21845382D01*
X17257239Y21843221D01*
X17297411Y21853012D01*
X17310053Y21855415D01*
X17351009Y21861043D01*
X17367503Y21868208D01*
X17387857Y21875053D01*
X17405333Y21879311D01*
X17441364Y21899571D01*
X17452894Y21905298D01*
X17490818Y21921770D01*
X17504763Y21933116D01*
X17522528Y21945208D01*
X17538199Y21954018D01*
X17567426Y21983247D01*
X17576999Y21991885D01*
X17609058Y22017966D01*
X17619430Y22032662D01*
X17633267Y22049088D01*
X18831778Y23247599D01*
X18894088Y23281623D01*
X18964903Y23276558D01*
X19021739Y23234011D01*
X19046550Y23167491D01*
X19045952Y23143315D01*
X19040692Y23100001D01*
X19059850Y22942220D01*
X19116212Y22793606D01*
X19140419Y22758537D01*
X19206502Y22662799D01*
X19325471Y22557401D01*
X19466207Y22483537D01*
X19620529Y22445500D01*
X19721960Y22445500D01*
X19731021Y22445174D01*
X19745304Y22444144D01*
X19748368Y22444527D01*
X19763995Y22445500D01*
X19779470Y22445500D01*
X19779471Y22445500D01*
X19796285Y22449646D01*
X19810802Y22452333D01*
X20521938Y22541223D01*
X20521940Y22541224D01*
X20532295Y22542518D01*
X20532329Y22542243D01*
X20554664Y22545500D01*
X23818129Y22545500D01*
X23886250Y22525498D01*
X23907224Y22508595D01*
X33403197Y13012622D01*
X33415566Y12995483D01*
X33416072Y12995876D01*
X33423685Y12986088D01*
X33423687Y12986084D01*
X33806724Y12493606D01*
X33888836Y12388033D01*
X33893071Y12382256D01*
X33906502Y12362799D01*
X33910598Y12359170D01*
X33919021Y12350976D01*
X33926023Y12343495D01*
X33926026Y12343493D01*
X33928422Y12341883D01*
X33941709Y12331608D01*
X34025471Y12257401D01*
X34166207Y12183537D01*
X34320529Y12145500D01*
X34320531Y12145500D01*
X34479469Y12145500D01*
X34479471Y12145500D01*
X34633793Y12183537D01*
X34774529Y12257401D01*
X34893498Y12362799D01*
X34983787Y12493605D01*
X35040149Y12642218D01*
X35059307Y12800000D01*
X35040149Y12957782D01*
X34983787Y13106395D01*
X34893498Y13237201D01*
X34852331Y13273672D01*
X34840615Y13285524D01*
X34836030Y13290821D01*
X34831724Y13295797D01*
X34831723Y13295798D01*
X34831722Y13295799D01*
X34799126Y13321152D01*
X34792930Y13326297D01*
X34774148Y13342937D01*
X34756511Y13354297D01*
X34205681Y13782718D01*
X34205851Y13782937D01*
X34187750Y13796431D01*
X27553776Y20430405D01*
X27519750Y20492717D01*
X27524815Y20563532D01*
X27567362Y20620368D01*
X27633882Y20645179D01*
X27642871Y20645500D01*
X27779469Y20645500D01*
X27779471Y20645500D01*
X27933793Y20683537D01*
X28074529Y20757401D01*
X28193498Y20862799D01*
X28283787Y20993605D01*
X28340149Y21142218D01*
X28359307Y21300000D01*
X28340149Y21457782D01*
X28283787Y21606395D01*
X28193498Y21737201D01*
X28152331Y21773672D01*
X28140615Y21785524D01*
X28131722Y21795799D01*
X28099126Y21821152D01*
X28092930Y21826297D01*
X28074148Y21842937D01*
X28056511Y21854297D01*
X27505681Y22282718D01*
X27505851Y22282937D01*
X27487750Y22296431D01*
X25300321Y24483860D01*
X25297331Y24486953D01*
X25280691Y24504770D01*
X25253228Y24534176D01*
X25253227Y24534177D01*
X25253226Y24534178D01*
X25217910Y24555655D01*
X25207246Y24562912D01*
X25174320Y24587881D01*
X25157591Y24594478D01*
X25138353Y24604034D01*
X25122992Y24613375D01*
X25083192Y24624527D01*
X25070969Y24628638D01*
X25032520Y24643800D01*
X25014630Y24645639D01*
X24993528Y24649650D01*
X24976216Y24654500D01*
X24976214Y24654500D01*
X24934884Y24654500D01*
X24921999Y24655161D01*
X24917562Y24655618D01*
X24880892Y24659388D01*
X24863173Y24656332D01*
X24841763Y24654500D01*
X21455195Y24654500D01*
X21434332Y24657874D01*
X21434253Y24657238D01*
X20710806Y24747669D01*
X20696282Y24750357D01*
X20679472Y24754500D01*
X20679471Y24754500D01*
X20664001Y24754500D01*
X20648373Y24755473D01*
X20645293Y24755858D01*
X20643359Y24756055D01*
X20633040Y24757009D01*
X20567089Y24783296D01*
X20525819Y24841065D01*
X20522333Y24911976D01*
X20555729Y24971550D01*
X21487379Y25903200D01*
X21504514Y25915563D01*
X21504120Y25916069D01*
X21515438Y25924872D01*
X22056511Y26345706D01*
X22074150Y26357066D01*
X22074526Y26357400D01*
X22074529Y26357401D01*
X22092953Y26373725D01*
X22099131Y26378855D01*
X22114949Y26391158D01*
X22131726Y26404205D01*
X22133198Y26405405D01*
X22143869Y26414256D01*
X22145323Y26415516D01*
X22144938Y26415197D01*
X22146336Y26416486D01*
X22160377Y26429643D01*
X22175202Y26446591D01*
X22193498Y26462799D01*
X22283787Y26593605D01*
X22340149Y26742218D01*
X22359307Y26900000D01*
X22340149Y27057782D01*
X22283787Y27206395D01*
X22193498Y27337201D01*
X22074529Y27442599D01*
X22026790Y27467655D01*
X21998095Y27482715D01*
X21947073Y27532084D01*
X21930841Y27601200D01*
X21954553Y27668120D01*
X21967550Y27683371D01*
X22083885Y27799706D01*
X22086952Y27802669D01*
X22134173Y27846769D01*
X22134173Y27846770D01*
X22134176Y27846772D01*
X22155656Y27882097D01*
X22162905Y27892747D01*
X22187880Y27925679D01*
X22194476Y27942407D01*
X22204037Y27961655D01*
X22213374Y27977009D01*
X22213375Y27977010D01*
X22224528Y28016819D01*
X22228634Y28029026D01*
X22243799Y28067480D01*
X22245638Y28085373D01*
X22249649Y28106475D01*
X22254500Y28123786D01*
X22254500Y28165124D01*
X22255161Y28178009D01*
X22259386Y28219109D01*
X22256332Y28236823D01*
X22254500Y28258230D01*
X22254500Y30528433D01*
X22254499Y30528443D01*
X22254499Y31057130D01*
X22274501Y31125251D01*
X22328157Y31171744D01*
X22398431Y31181848D01*
X22463011Y31152354D01*
X22469594Y31146225D01*
X22599676Y31016143D01*
X22602667Y31013049D01*
X22646772Y30965824D01*
X22682080Y30944353D01*
X22692742Y30937097D01*
X22725679Y30912120D01*
X22742407Y30905523D01*
X22761650Y30895965D01*
X22773101Y30889002D01*
X22777010Y30886625D01*
X22816810Y30875474D01*
X22829025Y30871366D01*
X22867480Y30856201D01*
X22885366Y30854363D01*
X22906469Y30850352D01*
X22923786Y30845500D01*
X22965115Y30845500D01*
X22977998Y30844840D01*
X23019109Y30840614D01*
X23034639Y30843292D01*
X23036823Y30843668D01*
X23058230Y30845500D01*
X24051717Y30845500D01*
X24119838Y30825498D01*
X24166331Y30771842D01*
X24176435Y30701568D01*
X24146941Y30636988D01*
X24135271Y30625188D01*
X24106501Y30599701D01*
X24016212Y30468895D01*
X23959850Y30320281D01*
X23940693Y30162501D01*
X23959850Y30004720D01*
X24016212Y29856106D01*
X24093866Y29743606D01*
X24106502Y29725299D01*
X24225471Y29619901D01*
X24366207Y29546037D01*
X24520529Y29508000D01*
X24520531Y29508000D01*
X24679469Y29508000D01*
X24679471Y29508000D01*
X24833793Y29546037D01*
X24974529Y29619901D01*
X25093498Y29725299D01*
X25183787Y29856105D01*
X25240149Y30004718D01*
X25259307Y30162500D01*
X25240149Y30320282D01*
X25183787Y30468895D01*
X25093498Y30599701D01*
X25064728Y30625189D01*
X25027004Y30685332D01*
X25027784Y30756324D01*
X25066822Y30815625D01*
X25131723Y30844407D01*
X25148283Y30845500D01*
X26522265Y30845500D01*
X26590386Y30825498D01*
X26636879Y30771842D01*
X26646983Y30701568D01*
X26617489Y30636988D01*
X26605824Y30625194D01*
X26569034Y30592600D01*
X26506501Y30537201D01*
X26416212Y30406395D01*
X26359850Y30257781D01*
X26340693Y30100000D01*
X26359850Y29942220D01*
X26416212Y29793606D01*
X26493866Y29681106D01*
X26506502Y29662799D01*
X26625471Y29557401D01*
X26766207Y29483537D01*
X26920529Y29445500D01*
X26920531Y29445500D01*
X27079469Y29445500D01*
X27079471Y29445500D01*
X27233793Y29483537D01*
X27374529Y29557401D01*
X27493498Y29662799D01*
X27583787Y29793605D01*
X27640149Y29942218D01*
X27659307Y30100000D01*
X27640149Y30257782D01*
X27583787Y30406395D01*
X27493498Y30537201D01*
X27394179Y30625190D01*
X27356456Y30685332D01*
X27357236Y30756324D01*
X27396274Y30815625D01*
X27461174Y30844407D01*
X27477735Y30845500D01*
X28922265Y30845500D01*
X28990386Y30825498D01*
X29036879Y30771842D01*
X29046983Y30701568D01*
X29017489Y30636988D01*
X29005824Y30625194D01*
X28969034Y30592600D01*
X28906501Y30537201D01*
X28816212Y30406395D01*
X28759850Y30257781D01*
X28740693Y30100001D01*
X28759850Y29942220D01*
X28816212Y29793606D01*
X28893866Y29681106D01*
X28906502Y29662799D01*
X29025471Y29557401D01*
X29166207Y29483537D01*
X29320529Y29445500D01*
X29320531Y29445500D01*
X29479469Y29445500D01*
X29479471Y29445500D01*
X29633793Y29483537D01*
X29774529Y29557401D01*
X29893498Y29662799D01*
X29983787Y29793605D01*
X30040149Y29942218D01*
X30055888Y30071850D01*
X30083954Y30137060D01*
X30142823Y30176747D01*
X30213802Y30178307D01*
X30270064Y30145755D01*
X36408595Y24007224D01*
X36442621Y23944912D01*
X36445500Y23918129D01*
X36445500Y14011630D01*
X36445427Y14007328D01*
X36443221Y13942759D01*
X36453007Y13902598D01*
X36455415Y13889928D01*
X36461042Y13848991D01*
X36468205Y13832500D01*
X36475052Y13812141D01*
X36479311Y13794666D01*
X36499563Y13758648D01*
X36505301Y13747095D01*
X36521770Y13709182D01*
X36533120Y13695231D01*
X36545205Y13677475D01*
X36554018Y13661801D01*
X36583243Y13632576D01*
X36591878Y13623008D01*
X36617966Y13590942D01*
X36632656Y13580573D01*
X36649089Y13566730D01*
X37408594Y12807225D01*
X37442620Y12744913D01*
X37445499Y12718130D01*
X37445499Y7418059D01*
X37425497Y7349938D01*
X37371841Y7303445D01*
X37301567Y7293341D01*
X37236987Y7322835D01*
X37199204Y7380574D01*
X37191611Y7404940D01*
X37169700Y7475256D01*
X37040385Y7762584D01*
X36877379Y8032229D01*
X36683059Y8280259D01*
X36460259Y8503059D01*
X36243594Y8672806D01*
X36215220Y8695036D01*
X36215216Y8695039D01*
X36212229Y8697379D01*
X35942584Y8860385D01*
X35749172Y8947432D01*
X35658727Y8988138D01*
X35658724Y8988139D01*
X35655256Y8989700D01*
X35590933Y9009744D01*
X35358074Y9082307D01*
X35358068Y9082309D01*
X35354437Y9083440D01*
X35350691Y9084127D01*
X35350685Y9084128D01*
X35048254Y9139551D01*
X35048241Y9139553D01*
X35044512Y9140236D01*
X35040718Y9140466D01*
X35040714Y9140466D01*
X34733802Y9159030D01*
X34730000Y9159260D01*
X34726198Y9159030D01*
X34419285Y9140466D01*
X34419279Y9140466D01*
X34415488Y9140236D01*
X34411760Y9139553D01*
X34411745Y9139551D01*
X34109314Y9084128D01*
X34109304Y9084126D01*
X34105563Y9083440D01*
X34101935Y9082310D01*
X34101925Y9082307D01*
X33808379Y8990833D01*
X33808374Y8990832D01*
X33804744Y8989700D01*
X33801280Y8988142D01*
X33801272Y8988138D01*
X33520883Y8861946D01*
X33520874Y8861942D01*
X33517416Y8860385D01*
X33514165Y8858420D01*
X33514156Y8858415D01*
X33251024Y8699346D01*
X33251018Y8699343D01*
X33247771Y8697379D01*
X33244790Y8695045D01*
X33244779Y8695036D01*
X33002743Y8505412D01*
X33002732Y8505403D01*
X32999741Y8503059D01*
X32997046Y8500365D01*
X32997038Y8500357D01*
X32779643Y8282962D01*
X32779635Y8282954D01*
X32776941Y8280259D01*
X32774597Y8277268D01*
X32774588Y8277257D01*
X32584964Y8035221D01*
X32584955Y8035210D01*
X32582621Y8032229D01*
X32580657Y8028982D01*
X32580654Y8028976D01*
X32421585Y7765844D01*
X32421580Y7765835D01*
X32419615Y7762584D01*
X32418058Y7759126D01*
X32418054Y7759117D01*
X32291862Y7478728D01*
X32291858Y7478720D01*
X32290300Y7475256D01*
X32289168Y7471626D01*
X32289167Y7471621D01*
X32197693Y7178075D01*
X32197690Y7178065D01*
X32196560Y7174437D01*
X32195874Y7170696D01*
X32195872Y7170686D01*
X32140449Y6868255D01*
X32140447Y6868240D01*
X32139764Y6864512D01*
X32139534Y6860721D01*
X32139534Y6860715D01*
X32124579Y6613475D01*
X32120740Y6550000D01*
X32139764Y6235488D01*
X32140447Y6231759D01*
X32140449Y6231746D01*
X32160617Y6121696D01*
X32196560Y5925563D01*
X32197691Y5921932D01*
X32197693Y5921926D01*
X32233525Y5806938D01*
X32290300Y5624744D01*
X32291861Y5621276D01*
X32291862Y5621273D01*
X32299076Y5605243D01*
X32419615Y5337416D01*
X32582621Y5067771D01*
X32584961Y5064784D01*
X32584964Y5064780D01*
X32774588Y4822744D01*
X32776941Y4819741D01*
X32999741Y4596941D01*
X33247771Y4402621D01*
X33517416Y4239615D01*
X33804744Y4110300D01*
X34105563Y4016560D01*
X34415488Y3959764D01*
X34730000Y3940740D01*
X35044512Y3959764D01*
X35354437Y4016560D01*
X35655256Y4110300D01*
X35942584Y4239615D01*
X36212229Y4402621D01*
X36460259Y4596941D01*
X36683059Y4819741D01*
X36877379Y5067771D01*
X37040385Y5337416D01*
X37169700Y5624744D01*
X37199205Y5719430D01*
X37238566Y5778512D01*
X37303624Y5806938D01*
X37373722Y5795678D01*
X37426604Y5748308D01*
X37445499Y5681942D01*
X37445500Y4681872D01*
X37425498Y4613751D01*
X37408595Y4592777D01*
X34507224Y1691405D01*
X34444912Y1657379D01*
X34418129Y1654500D01*
X33081873Y1654500D01*
X33013752Y1674502D01*
X32992778Y1691404D01*
X32296802Y2387379D01*
X32284437Y2404516D01*
X32283931Y2404121D01*
X32254300Y2442218D01*
X31811162Y3011968D01*
X31806936Y3017732D01*
X31793498Y3037201D01*
X31789399Y3040832D01*
X31780977Y3049026D01*
X31773976Y3056506D01*
X31771577Y3058118D01*
X31758292Y3068391D01*
X31674529Y3142599D01*
X31533793Y3216463D01*
X31379471Y3254500D01*
X31220529Y3254500D01*
X31066207Y3216463D01*
X31066206Y3216463D01*
X31066204Y3216462D01*
X30925472Y3142600D01*
X30806501Y3037201D01*
X30716212Y2906395D01*
X30659850Y2757781D01*
X30640693Y2600001D01*
X30659850Y2442220D01*
X30716212Y2293606D01*
X30806503Y2162798D01*
X30847663Y2126333D01*
X30859382Y2114479D01*
X30868275Y2104204D01*
X30900863Y2078858D01*
X30907061Y2073710D01*
X30925852Y2057063D01*
X30943497Y2045698D01*
X31494318Y1617282D01*
X31494148Y1617065D01*
X31512247Y1603571D01*
X32399691Y716127D01*
X32402681Y713034D01*
X32446772Y665824D01*
X32482083Y644351D01*
X32492749Y637092D01*
X32525679Y612121D01*
X32542402Y605526D01*
X32561647Y595967D01*
X32573906Y588513D01*
X32577010Y586625D01*
X32616805Y575475D01*
X32629024Y571366D01*
X32667479Y556201D01*
X32685370Y554362D01*
X32706467Y550353D01*
X32723786Y545500D01*
X32765115Y545500D01*
X32777998Y544840D01*
X32819109Y540614D01*
X32836821Y543668D01*
X32858230Y545500D01*
X34688371Y545500D01*
X34692673Y545427D01*
X34693997Y545382D01*
X34757239Y543221D01*
X34797411Y553012D01*
X34810053Y555415D01*
X34851009Y561043D01*
X34867503Y568208D01*
X34887857Y575053D01*
X34905333Y579311D01*
X34941364Y599571D01*
X34952894Y605298D01*
X34990818Y621770D01*
X35004763Y633116D01*
X35022528Y645208D01*
X35038199Y654018D01*
X35067426Y683247D01*
X35076999Y691885D01*
X35109058Y717966D01*
X35119430Y732662D01*
X35133267Y749088D01*
X38383885Y3999706D01*
X38386952Y4002669D01*
X38434174Y4046770D01*
X38434174Y4046771D01*
X38434176Y4046772D01*
X38455655Y4082095D01*
X38462901Y4092743D01*
X38487880Y4125680D01*
X38494474Y4142404D01*
X38504030Y4161644D01*
X38513375Y4177010D01*
X38524527Y4216816D01*
X38528633Y4229026D01*
X38543799Y4267480D01*
X38545637Y4285370D01*
X38549649Y4306477D01*
X38554500Y4323786D01*
X38554500Y4365117D01*
X38555161Y4378002D01*
X38559387Y4419109D01*
X38556332Y4436829D01*
X38554500Y4458236D01*
X38554500Y12988360D01*
X38554573Y12992661D01*
X38554763Y12998214D01*
X38556779Y13057239D01*
X38546991Y13097403D01*
X38544585Y13110058D01*
X38538957Y13151009D01*
X38531792Y13167503D01*
X38524947Y13187860D01*
X38520689Y13205333D01*
X38500434Y13241357D01*
X38494696Y13252909D01*
X38485678Y13273671D01*
X38478230Y13290818D01*
X38478228Y13290821D01*
X38466880Y13304770D01*
X38454791Y13322533D01*
X38445981Y13338201D01*
X38416760Y13367422D01*
X38408116Y13376999D01*
X38382034Y13409058D01*
X38382032Y13409059D01*
X38382031Y13409061D01*
X38367338Y13419433D01*
X38350907Y13433274D01*
X37591405Y14192776D01*
X37557379Y14255088D01*
X37554500Y14281871D01*
X37554500Y24188360D01*
X37554573Y24192661D01*
X37556779Y24257239D01*
X37546991Y24297403D01*
X37544585Y24310058D01*
X37538957Y24351009D01*
X37531792Y24367503D01*
X37524947Y24387860D01*
X37520689Y24405333D01*
X37500434Y24441357D01*
X37494696Y24452909D01*
X37480586Y24485393D01*
X37478230Y24490818D01*
X37478228Y24490821D01*
X37466880Y24504770D01*
X37454791Y24522533D01*
X37445981Y24538201D01*
X37416760Y24567422D01*
X37408116Y24576999D01*
X37382034Y24609058D01*
X37382032Y24609059D01*
X37382031Y24609061D01*
X37367338Y24619433D01*
X37350907Y24633274D01*
X30200321Y31783860D01*
X30197331Y31786953D01*
X30153226Y31834178D01*
X30117910Y31855655D01*
X30107246Y31862912D01*
X30074320Y31887881D01*
X30057591Y31894478D01*
X30038353Y31904034D01*
X30022992Y31913375D01*
X29983192Y31924527D01*
X29970969Y31928638D01*
X29932520Y31943800D01*
X29914630Y31945639D01*
X29893528Y31949650D01*
X29876216Y31954500D01*
X29876214Y31954500D01*
X29834884Y31954500D01*
X29821999Y31955161D01*
X29817562Y31955618D01*
X29780892Y31959388D01*
X29763173Y31956332D01*
X29741763Y31954500D01*
X23281871Y31954500D01*
X23213750Y31974502D01*
X23192776Y31991405D01*
X22777776Y32406405D01*
X22743750Y32468717D01*
X22748815Y32539532D01*
X22791362Y32596368D01*
X22857882Y32621179D01*
X22866871Y32621500D01*
X23042332Y32621500D01*
X23042334Y32621500D01*
X23222967Y32659895D01*
X23391670Y32735006D01*
X23541069Y32843551D01*
X23664636Y32980786D01*
X23756970Y33140714D01*
X23814036Y33316343D01*
X23833339Y33500000D01*
X23814036Y33683657D01*
X23756970Y33859286D01*
X23756970Y33859287D01*
X23664637Y34019213D01*
X23541068Y34156450D01*
X23391671Y34264993D01*
X23391670Y34264994D01*
X23222967Y34340105D01*
X23042334Y34378500D01*
X22857666Y34378500D01*
X22737243Y34352904D01*
X22677032Y34340105D01*
X22508329Y34264993D01*
X22358931Y34156450D01*
X22235362Y34019213D01*
X22143029Y33859287D01*
X22085964Y33683659D01*
X22066661Y33500000D01*
X22074390Y33426461D01*
X22061618Y33356623D01*
X22013115Y33304776D01*
X21944282Y33287382D01*
X21876973Y33309964D01*
X21859985Y33324196D01*
X21291404Y33892777D01*
X21257378Y33955089D01*
X21254499Y33981864D01*
X21254499Y34486223D01*
X21274501Y34554342D01*
X21328157Y34600835D01*
X21398431Y34610939D01*
X21439054Y34597788D01*
X21466207Y34583537D01*
X21620529Y34545500D01*
X21620531Y34545500D01*
X21779469Y34545500D01*
X21779471Y34545500D01*
X21933793Y34583537D01*
X22074529Y34657401D01*
X22193498Y34762799D01*
X22283787Y34893605D01*
X22340149Y35042218D01*
X22359307Y35200000D01*
X22356560Y35222616D01*
X22356042Y35243810D01*
X22355855Y35245301D01*
X22355856Y35245305D01*
X22292518Y35752009D01*
X22257483Y36032294D01*
X22257757Y36032329D01*
X22254500Y36054667D01*
X22254500Y36065551D01*
X23754500Y36065551D01*
X23794920Y35901561D01*
X23834165Y35826786D01*
X23873411Y35752008D01*
X23985411Y35625587D01*
X24124411Y35529642D01*
X24282334Y35469750D01*
X24407931Y35454500D01*
X24411741Y35454500D01*
X24488259Y35454500D01*
X24492069Y35454500D01*
X24617666Y35469750D01*
X24775589Y35529642D01*
X24914589Y35625587D01*
X25026589Y35752009D01*
X25105080Y35901561D01*
X25145500Y36065551D01*
X25145500Y36234449D01*
X25105080Y36398439D01*
X25026589Y36547991D01*
X25026588Y36547993D01*
X24914588Y36674414D01*
X24775588Y36770359D01*
X24617665Y36830251D01*
X24495854Y36845041D01*
X24495844Y36845042D01*
X24492069Y36845500D01*
X24407931Y36845500D01*
X24404156Y36845042D01*
X24404145Y36845041D01*
X24282334Y36830251D01*
X24124411Y36770359D01*
X23985411Y36674414D01*
X23873411Y36547993D01*
X23809227Y36425699D01*
X23794920Y36398439D01*
X23754500Y36234449D01*
X23754500Y36065551D01*
X22254500Y36065551D01*
X22254500Y37000000D01*
X34494357Y37000000D01*
X34514892Y36752179D01*
X34514892Y36752176D01*
X34514893Y36752175D01*
X34575935Y36511124D01*
X34675828Y36283390D01*
X34811833Y36075218D01*
X34860881Y36021938D01*
X34980256Y35892262D01*
X35176491Y35739526D01*
X35395190Y35621172D01*
X35630386Y35540429D01*
X35875665Y35499500D01*
X35875668Y35499500D01*
X36124332Y35499500D01*
X36124335Y35499500D01*
X36369614Y35540429D01*
X36604810Y35621172D01*
X36823509Y35739526D01*
X37019744Y35892262D01*
X37188164Y36075215D01*
X37324173Y36283393D01*
X37424063Y36511119D01*
X37485108Y36752179D01*
X37505643Y37000000D01*
X37485108Y37247821D01*
X37424063Y37488881D01*
X37324173Y37716607D01*
X37324172Y37716609D01*
X37324171Y37716611D01*
X37188166Y37924783D01*
X37019744Y38107738D01*
X36956632Y38156860D01*
X36823509Y38260474D01*
X36604810Y38378828D01*
X36604809Y38378829D01*
X36604806Y38378830D01*
X36448012Y38432657D01*
X36369614Y38459571D01*
X36124335Y38500500D01*
X35875665Y38500500D01*
X35630386Y38459571D01*
X35630383Y38459571D01*
X35630383Y38459570D01*
X35395193Y38378830D01*
X35176489Y38260473D01*
X34980255Y38107738D01*
X34811833Y37924783D01*
X34675828Y37716611D01*
X34575935Y37488877D01*
X34514893Y37247826D01*
X34514892Y37247821D01*
X34494357Y37000000D01*
X22254500Y37000000D01*
X22254500Y37578434D01*
X22254499Y37578442D01*
X22254499Y38550069D01*
X22239734Y38624301D01*
X22183484Y38708485D01*
X22099301Y38764734D01*
X22099296Y38764735D01*
X22025067Y38779500D01*
X22025066Y38779500D01*
X21374931Y38779500D01*
X21300699Y38764735D01*
X21270000Y38744222D01*
X21202247Y38723008D01*
X21133780Y38741792D01*
X21129997Y38744223D01*
X21119995Y38750906D01*
X21099301Y38764734D01*
X21025067Y38779500D01*
X21025066Y38779500D01*
X20374931Y38779500D01*
X20300699Y38764735D01*
X20270000Y38744222D01*
X20202247Y38723008D01*
X20133780Y38741792D01*
X20129997Y38744223D01*
X20119995Y38750906D01*
X20099301Y38764734D01*
X20025067Y38779500D01*
X20025066Y38779500D01*
X19374931Y38779500D01*
X19300699Y38764735D01*
X19216515Y38708485D01*
X19160266Y38624302D01*
X19145500Y38550067D01*
X19145500Y36055197D01*
X19142125Y36034332D01*
X19142761Y36034252D01*
X19044142Y35245293D01*
X19043946Y35243371D01*
X19042653Y35229453D01*
X19042516Y35227517D01*
X19042564Y35228043D01*
X19042486Y35226128D01*
X19042178Y35216292D01*
X19041329Y35205243D01*
X19040692Y35200001D01*
X19059850Y35042219D01*
X19116212Y34893606D01*
X19116213Y34893605D01*
X19206502Y34762799D01*
X19325471Y34657401D01*
X19466207Y34583537D01*
X19620529Y34545500D01*
X19620531Y34545500D01*
X19779469Y34545500D01*
X19779471Y34545500D01*
X19933793Y34583537D01*
X19960947Y34597789D01*
X20030557Y34611735D01*
X20096660Y34585832D01*
X20138265Y34528304D01*
X20145500Y34486221D01*
X20145500Y33711630D01*
X20145427Y33707328D01*
X20143221Y33642759D01*
X20153007Y33602598D01*
X20155415Y33589928D01*
X20161042Y33548991D01*
X20168205Y33532500D01*
X20175052Y33512141D01*
X20179311Y33494666D01*
X20199563Y33458648D01*
X20205301Y33447095D01*
X20221770Y33409182D01*
X20233120Y33395231D01*
X20245205Y33377475D01*
X20254018Y33361801D01*
X20283243Y33332576D01*
X20291878Y33323008D01*
X20317966Y33290942D01*
X20332656Y33280573D01*
X20349089Y33266730D01*
X21671224Y31944595D01*
X21705250Y31882283D01*
X21700185Y31811468D01*
X21657638Y31754632D01*
X21591118Y31729821D01*
X21582130Y31729500D01*
X21374932Y31729500D01*
X21300699Y31714735D01*
X21270000Y31694222D01*
X21202247Y31673008D01*
X21133780Y31691792D01*
X21129997Y31694223D01*
X21099301Y31714734D01*
X21099296Y31714735D01*
X21025067Y31729500D01*
X21025066Y31729500D01*
X20407936Y31729500D01*
X20339815Y31749502D01*
X20293322Y31803158D01*
X20282909Y31871125D01*
X20355856Y32454696D01*
X20355857Y32454710D01*
X20356050Y32456608D01*
X20357342Y32470492D01*
X20357477Y32472407D01*
X20357432Y32471914D01*
X20357510Y32473835D01*
X20357819Y32483699D01*
X20358670Y32494757D01*
X20359307Y32500004D01*
X20340149Y32657782D01*
X20283787Y32806395D01*
X20193498Y32937201D01*
X20144301Y32980786D01*
X20074529Y33042599D01*
X19933793Y33116463D01*
X19779471Y33154500D01*
X19620529Y33154500D01*
X19466207Y33116463D01*
X19466206Y33116463D01*
X19466204Y33116462D01*
X19325472Y33042600D01*
X19206501Y32937201D01*
X19116212Y32806395D01*
X19059850Y32657781D01*
X19040692Y32500000D01*
X19043438Y32477392D01*
X19043956Y32456191D01*
X19093615Y32058918D01*
X19134793Y31729499D01*
X19142518Y31667705D01*
X19142242Y31667671D01*
X19145500Y31645337D01*
X19145500Y29449932D01*
X19160265Y29375700D01*
X19216515Y29291516D01*
X19254499Y29266136D01*
X19300699Y29235266D01*
X19374933Y29220500D01*
X20019500Y29220501D01*
X20087621Y29200499D01*
X20134114Y29146843D01*
X20145500Y29094501D01*
X20145500Y28681872D01*
X20125498Y28613751D01*
X20108595Y28592777D01*
X17537394Y26021575D01*
X17475082Y25987550D01*
X17448299Y25984670D01*
X13491611Y25984670D01*
X13487310Y25984743D01*
X13471606Y25985280D01*
X13422761Y25986948D01*
X13422760Y25986948D01*
X13422758Y25986948D01*
X13382603Y25977163D01*
X13369932Y25974755D01*
X13328988Y25969127D01*
X13312489Y25961961D01*
X13292134Y25955116D01*
X13274666Y25950859D01*
X13238648Y25930608D01*
X13227101Y25924872D01*
X13189181Y25908400D01*
X13175230Y25897050D01*
X13157473Y25884965D01*
X13141802Y25876154D01*
X13112574Y25846927D01*
X13103003Y25838290D01*
X13070942Y25812205D01*
X13060568Y25797509D01*
X13046729Y25781082D01*
X5406154Y18140507D01*
X5403063Y18137519D01*
X5355823Y18093399D01*
X5334348Y18058085D01*
X5327092Y18047424D01*
X5302120Y18014493D01*
X5295520Y17997757D01*
X5285967Y17978524D01*
X5276624Y17963159D01*
X5265471Y17923360D01*
X5261362Y17911141D01*
X5246200Y17872691D01*
X5244361Y17854800D01*
X5240350Y17833698D01*
X5235500Y17816387D01*
X5235500Y17775055D01*
X5234839Y17762170D01*
X5230613Y17721062D01*
X5233668Y17703343D01*
X5235500Y17681935D01*
X5235500Y10731800D01*
X5235427Y10727498D01*
X5233221Y10662929D01*
X5243007Y10622768D01*
X5245415Y10610098D01*
X5251042Y10569161D01*
X5258205Y10552670D01*
X5265052Y10532311D01*
X5269311Y10514836D01*
X5289563Y10478818D01*
X5295301Y10467265D01*
X5311770Y10429352D01*
X5323120Y10415401D01*
X5335205Y10397645D01*
X5344018Y10381971D01*
X5373243Y10352746D01*
X5381878Y10343178D01*
X5407966Y10311112D01*
X5422656Y10300743D01*
X5439089Y10286900D01*
X6716245Y9009744D01*
X6750271Y8947432D01*
X6745206Y8876617D01*
X6702659Y8819781D01*
X6636139Y8794970D01*
X6566765Y8810061D01*
X6561966Y8812820D01*
X6486538Y8858418D01*
X6486536Y8858419D01*
X6483284Y8860385D01*
X6289872Y8947432D01*
X6199427Y8988138D01*
X6199424Y8988139D01*
X6195956Y8989700D01*
X6131633Y9009744D01*
X5898774Y9082307D01*
X5898768Y9082309D01*
X5895137Y9083440D01*
X5891391Y9084127D01*
X5891385Y9084128D01*
X5588954Y9139551D01*
X5588941Y9139553D01*
X5585212Y9140236D01*
X5581418Y9140466D01*
X5581414Y9140466D01*
X5274502Y9159030D01*
X5270700Y9159260D01*
X5266898Y9159030D01*
X4959985Y9140466D01*
X4959979Y9140466D01*
X4956188Y9140236D01*
X4952460Y9139553D01*
X4952445Y9139551D01*
X4650014Y9084128D01*
X4650004Y9084126D01*
X4646263Y9083440D01*
X4642635Y9082310D01*
X4642625Y9082307D01*
X4349079Y8990833D01*
X4349074Y8990832D01*
X4345444Y8989700D01*
X4341980Y8988142D01*
X4341972Y8988138D01*
X4061583Y8861946D01*
X4061574Y8861942D01*
X4058116Y8860385D01*
X4054865Y8858420D01*
X4054856Y8858415D01*
X3791724Y8699346D01*
X3791718Y8699343D01*
X3788471Y8697379D01*
X3785490Y8695045D01*
X3785479Y8695036D01*
X3543443Y8505412D01*
X3543432Y8505403D01*
X3540441Y8503059D01*
X3537746Y8500365D01*
X3537738Y8500357D01*
X3320343Y8282962D01*
X3320335Y8282954D01*
X3317641Y8280259D01*
X3315297Y8277268D01*
X3315288Y8277257D01*
X3125664Y8035221D01*
X3125655Y8035210D01*
X3123321Y8032229D01*
X3121357Y8028982D01*
X3121354Y8028976D01*
X2962285Y7765844D01*
X2962280Y7765835D01*
X2960315Y7762584D01*
X2958758Y7759126D01*
X2958754Y7759117D01*
X2832562Y7478728D01*
X2832558Y7478720D01*
X2831000Y7475256D01*
X2829868Y7471626D01*
X2829867Y7471621D01*
X2738393Y7178075D01*
X2738390Y7178065D01*
X2737260Y7174437D01*
X2736574Y7170696D01*
X2736572Y7170686D01*
X2681149Y6868255D01*
X2681147Y6868240D01*
X2680464Y6864512D01*
X2680234Y6860721D01*
X2680234Y6860715D01*
X2665279Y6613475D01*
X2661440Y6550000D01*
X254499Y6550000D01*
X254499Y30050000D01*
X8940693Y30050000D01*
X8959850Y29892220D01*
X9016212Y29743606D01*
X9071989Y29662800D01*
X9106502Y29612799D01*
X9225471Y29507401D01*
X9366207Y29433537D01*
X9520529Y29395500D01*
X9520531Y29395500D01*
X9679469Y29395500D01*
X9679471Y29395500D01*
X9833793Y29433537D01*
X9974529Y29507401D01*
X10093498Y29612799D01*
X10183787Y29743605D01*
X10240149Y29892218D01*
X10251718Y29987500D01*
X11140693Y29987500D01*
X11159850Y29829720D01*
X11216212Y29681106D01*
X11263361Y29612800D01*
X11306502Y29550299D01*
X11425471Y29444901D01*
X11566207Y29371037D01*
X11720529Y29333000D01*
X11720531Y29333000D01*
X11879469Y29333000D01*
X11879471Y29333000D01*
X12033793Y29371037D01*
X12174529Y29444901D01*
X12293498Y29550299D01*
X12383787Y29681105D01*
X12440149Y29829718D01*
X12459307Y29987500D01*
X12451718Y30050000D01*
X13340693Y30050000D01*
X13359850Y29892220D01*
X13416212Y29743606D01*
X13471989Y29662800D01*
X13506502Y29612799D01*
X13625471Y29507401D01*
X13766207Y29433537D01*
X13920529Y29395500D01*
X13920531Y29395500D01*
X14079469Y29395500D01*
X14079471Y29395500D01*
X14233793Y29433537D01*
X14374529Y29507401D01*
X14493498Y29612799D01*
X14583787Y29743605D01*
X14640149Y29892218D01*
X14659307Y30050000D01*
X14640149Y30207782D01*
X14583787Y30356395D01*
X14493498Y30487201D01*
X14479051Y30500000D01*
X15940693Y30500000D01*
X15959850Y30342220D01*
X16016212Y30193606D01*
X16100257Y30071847D01*
X16106502Y30062799D01*
X16225471Y29957401D01*
X16366207Y29883537D01*
X16520529Y29845500D01*
X16604883Y29845500D01*
X16617742Y29844842D01*
X16619571Y29844655D01*
X16637138Y29842852D01*
X16659303Y29844943D01*
X16671137Y29845500D01*
X16679560Y29845500D01*
X16697575Y29848554D01*
X17007668Y29877807D01*
X17077365Y29864291D01*
X17128691Y29815239D01*
X17145500Y29752364D01*
X17145500Y29449932D01*
X17160265Y29375700D01*
X17216515Y29291516D01*
X17254499Y29266136D01*
X17300699Y29235266D01*
X17374933Y29220500D01*
X18025066Y29220501D01*
X18025068Y29220501D01*
X18074555Y29230345D01*
X18099301Y29235266D01*
X18183484Y29291516D01*
X18239734Y29375699D01*
X18254500Y29449933D01*
X18254499Y30451755D01*
X18254793Y30460353D01*
X18255377Y30468895D01*
X18258408Y30513196D01*
X18257135Y30519322D01*
X18254499Y30544959D01*
X18254499Y31500069D01*
X18239734Y31574301D01*
X18183484Y31658485D01*
X18099301Y31714734D01*
X18099296Y31714735D01*
X18025067Y31729500D01*
X18025066Y31729500D01*
X17374931Y31729500D01*
X17300699Y31714735D01*
X17216515Y31658485D01*
X17160266Y31574302D01*
X17145500Y31500067D01*
X17145500Y31224280D01*
X17125498Y31156159D01*
X17071842Y31109666D01*
X17001568Y31099562D01*
X16999929Y31099809D01*
X16733060Y31141769D01*
X16722481Y31143900D01*
X16688178Y31152354D01*
X16679471Y31154500D01*
X16679470Y31154500D01*
X16658934Y31154500D01*
X16644157Y31155370D01*
X16633987Y31156571D01*
X16631581Y31156784D01*
X16632209Y31156711D01*
X16629810Y31156832D01*
X16612384Y31157531D01*
X16608967Y31156860D01*
X16584694Y31154500D01*
X16520529Y31154500D01*
X16366207Y31116463D01*
X16366206Y31116463D01*
X16366204Y31116462D01*
X16225472Y31042600D01*
X16106501Y30937201D01*
X16016212Y30806395D01*
X15959850Y30657781D01*
X15940693Y30500000D01*
X14479051Y30500000D01*
X14374529Y30592599D01*
X14233793Y30666463D01*
X14079471Y30704500D01*
X13920529Y30704500D01*
X13766207Y30666463D01*
X13766206Y30666463D01*
X13766204Y30666462D01*
X13625472Y30592600D01*
X13506501Y30487201D01*
X13416212Y30356395D01*
X13359850Y30207781D01*
X13340693Y30050000D01*
X12451718Y30050000D01*
X12440149Y30145282D01*
X12383787Y30293895D01*
X12293498Y30424701D01*
X12174529Y30530099D01*
X12033793Y30603963D01*
X11879471Y30642000D01*
X11720529Y30642000D01*
X11566207Y30603963D01*
X11566206Y30603963D01*
X11566204Y30603962D01*
X11425472Y30530100D01*
X11306501Y30424701D01*
X11216212Y30293895D01*
X11159850Y30145281D01*
X11140693Y29987500D01*
X10251718Y29987500D01*
X10259307Y30050000D01*
X10240149Y30207782D01*
X10183787Y30356395D01*
X10093498Y30487201D01*
X9974529Y30592599D01*
X9833793Y30666463D01*
X9679471Y30704500D01*
X9520529Y30704500D01*
X9366207Y30666463D01*
X9366206Y30666463D01*
X9366204Y30666462D01*
X9225472Y30592600D01*
X9106501Y30487201D01*
X9016212Y30356395D01*
X8959850Y30207781D01*
X8940693Y30050000D01*
X254499Y30050000D01*
X254499Y33500000D01*
X15566661Y33500000D01*
X15585964Y33316342D01*
X15643029Y33140714D01*
X15735362Y32980788D01*
X15735364Y32980786D01*
X15858931Y32843551D01*
X16008330Y32735006D01*
X16177033Y32659895D01*
X16357666Y32621500D01*
X16357668Y32621500D01*
X16542332Y32621500D01*
X16542334Y32621500D01*
X16722967Y32659895D01*
X16891670Y32735006D01*
X17041069Y32843551D01*
X17164636Y32980786D01*
X17256970Y33140714D01*
X17314036Y33316343D01*
X17333339Y33500000D01*
X17314036Y33683657D01*
X17256970Y33859286D01*
X17256970Y33859287D01*
X17164637Y34019213D01*
X17041068Y34156450D01*
X16891671Y34264993D01*
X16891670Y34264994D01*
X16722967Y34340105D01*
X16542334Y34378500D01*
X16357666Y34378500D01*
X16237243Y34352904D01*
X16177032Y34340105D01*
X16008329Y34264993D01*
X15858931Y34156450D01*
X15735362Y34019213D01*
X15643029Y33859287D01*
X15585964Y33683659D01*
X15566661Y33500000D01*
X254499Y33500000D01*
X254499Y36848260D01*
X274501Y36916380D01*
X328157Y36962873D01*
X398431Y36972977D01*
X463011Y36943483D01*
X501395Y36883757D01*
X506067Y36858670D01*
X514892Y36752179D01*
X514892Y36752176D01*
X514893Y36752175D01*
X575935Y36511124D01*
X675828Y36283390D01*
X811833Y36075218D01*
X860881Y36021938D01*
X980256Y35892262D01*
X1176491Y35739526D01*
X1395190Y35621172D01*
X1630386Y35540429D01*
X1875665Y35499500D01*
X1875668Y35499500D01*
X2124332Y35499500D01*
X2124335Y35499500D01*
X2369614Y35540429D01*
X2604810Y35621172D01*
X2823509Y35739526D01*
X3019744Y35892262D01*
X3179268Y36065551D01*
X14254500Y36065551D01*
X14294920Y35901561D01*
X14334165Y35826786D01*
X14373411Y35752008D01*
X14485411Y35625587D01*
X14624411Y35529642D01*
X14782334Y35469750D01*
X14907931Y35454500D01*
X14911741Y35454500D01*
X14988259Y35454500D01*
X14992069Y35454500D01*
X15117666Y35469750D01*
X15275589Y35529642D01*
X15414589Y35625587D01*
X15526589Y35752009D01*
X15605080Y35901561D01*
X15645500Y36065551D01*
X15645500Y36234449D01*
X15605080Y36398439D01*
X15526589Y36547991D01*
X15526588Y36547993D01*
X15414588Y36674414D01*
X15275588Y36770359D01*
X15117665Y36830251D01*
X14995854Y36845041D01*
X14995844Y36845042D01*
X14992069Y36845500D01*
X14907931Y36845500D01*
X14904156Y36845042D01*
X14904145Y36845041D01*
X14782334Y36830251D01*
X14624411Y36770359D01*
X14485411Y36674414D01*
X14373411Y36547993D01*
X14309227Y36425699D01*
X14294920Y36398439D01*
X14254500Y36234449D01*
X14254500Y36065551D01*
X3179268Y36065551D01*
X3188164Y36075215D01*
X3324173Y36283393D01*
X3424063Y36511119D01*
X3485108Y36752179D01*
X3505643Y37000000D01*
X3485108Y37247821D01*
X3424063Y37488881D01*
X3419186Y37500000D01*
X15740693Y37500000D01*
X15759850Y37342220D01*
X15816212Y37193606D01*
X15905910Y37063657D01*
X15906502Y37062799D01*
X16025471Y36957401D01*
X16166207Y36883537D01*
X16320529Y36845500D01*
X16320531Y36845500D01*
X16479470Y36845500D01*
X16479471Y36845500D01*
X16522498Y36856106D01*
X16533050Y36858232D01*
X16999932Y36931639D01*
X17070330Y36922460D01*
X17124593Y36876677D01*
X17145489Y36808825D01*
X17145500Y36807168D01*
X17145500Y36499932D01*
X17160265Y36425700D01*
X17216515Y36341516D01*
X17272764Y36303932D01*
X17300699Y36285266D01*
X17374933Y36270500D01*
X18025066Y36270501D01*
X18025068Y36270501D01*
X18074555Y36280345D01*
X18099301Y36285266D01*
X18183484Y36341516D01*
X18239734Y36425699D01*
X18254500Y36499933D01*
X18254499Y37501755D01*
X18254793Y37510353D01*
X18254917Y37512181D01*
X18258408Y37563196D01*
X18257135Y37569322D01*
X18254499Y37594959D01*
X18254499Y38550069D01*
X18239734Y38624301D01*
X18183484Y38708485D01*
X18099301Y38764734D01*
X18099296Y38764735D01*
X18025067Y38779500D01*
X18025066Y38779500D01*
X17374931Y38779500D01*
X17300699Y38764735D01*
X17216515Y38708485D01*
X17160266Y38624302D01*
X17145500Y38550067D01*
X17145500Y38228771D01*
X17125498Y38160650D01*
X17071842Y38114157D01*
X17007666Y38103328D01*
X16497578Y38151449D01*
X16479568Y38154500D01*
X16479471Y38154500D01*
X16471152Y38154500D01*
X16459318Y38155057D01*
X16437131Y38157150D01*
X16435701Y38157259D01*
X16425195Y38157999D01*
X16423735Y38158077D01*
X16424132Y38158050D01*
X16422690Y38158095D01*
X16412362Y38158352D01*
X16404765Y38156860D01*
X16380493Y38154500D01*
X16320529Y38154500D01*
X16166207Y38116463D01*
X16166206Y38116463D01*
X16166204Y38116462D01*
X16025472Y38042600D01*
X15906501Y37937201D01*
X15816212Y37806395D01*
X15759850Y37657781D01*
X15740693Y37500000D01*
X3419186Y37500000D01*
X3324173Y37716607D01*
X3324172Y37716609D01*
X3324171Y37716611D01*
X3188166Y37924783D01*
X3019744Y38107738D01*
X2956632Y38156860D01*
X2823509Y38260474D01*
X2604810Y38378828D01*
X2604809Y38378829D01*
X2604806Y38378830D01*
X2448012Y38432657D01*
X2369614Y38459571D01*
X2124335Y38500500D01*
X1875665Y38500500D01*
X1630386Y38459571D01*
X1630383Y38459571D01*
X1630383Y38459570D01*
X1395193Y38378830D01*
X1176489Y38260473D01*
X980255Y38107738D01*
X811833Y37924783D01*
X675828Y37716611D01*
X575935Y37488877D01*
X514893Y37247826D01*
X514892Y37247821D01*
X506068Y37141336D01*
X480509Y37075100D01*
X423197Y37033197D01*
X352329Y37028931D01*
X290405Y37063657D01*
X257084Y37126349D01*
X254499Y37151742D01*
X254499Y37795499D01*
X254820Y37804488D01*
X264253Y37936372D01*
X271624Y38039433D01*
X274179Y38057201D01*
X323292Y38282975D01*
X328348Y38300192D01*
X409092Y38516676D01*
X416556Y38533017D01*
X425866Y38550066D01*
X527274Y38735783D01*
X536990Y38750901D01*
X675446Y38935856D01*
X687206Y38949427D01*
X850573Y39112794D01*
X864144Y39124554D01*
X1049099Y39263010D01*
X1064217Y39272725D01*
X1266983Y39383444D01*
X1283324Y39390908D01*
X1499808Y39471652D01*
X1517025Y39476708D01*
X1742799Y39525821D01*
X1760568Y39528376D01*
X1976134Y39543794D01*
X1995513Y39545179D01*
X2004501Y39545500D01*
X2044875Y39545500D01*
X37755125Y39545500D01*
X37795499Y39545500D01*
X37804487Y39545179D01*
G37*
G04 #@! TD.AperFunction*
G04 #@! TD*
G04 #@! TA.AperFunction,Conductor*
G04 #@! TO.N,/LED_4*
G36*
X9707944Y6396573D02*
G01*
X9711281Y6389751D01*
X9808360Y5613118D01*
X9805985Y5604484D01*
X9798201Y5600057D01*
X9796779Y5599967D01*
X9410000Y5599000D01*
X9023220Y5599967D01*
X9014955Y5603415D01*
X9011549Y5611696D01*
X9011638Y5613106D01*
X9108718Y6389751D01*
X9113146Y6397535D01*
X9120329Y6400000D01*
X9699671Y6400000D01*
X9707944Y6396573D01*
G37*
G04 #@! TD.AperFunction*
G04 #@! TD*
G04 #@! TA.AperFunction,Conductor*
G04 #@! TO.N,Net-(J1-Pin_1)*
G36*
X16613472Y30897882D02*
G01*
X17385144Y30776554D01*
X17392785Y30771884D01*
X17395027Y30764996D01*
X17395027Y30185648D01*
X17391600Y30177375D01*
X17384426Y30174000D01*
X16612766Y30101205D01*
X16604207Y30103839D01*
X16600019Y30111754D01*
X16599967Y30112804D01*
X16599000Y30500000D01*
X16599965Y30886355D01*
X16603413Y30894617D01*
X16611694Y30898023D01*
X16613472Y30897882D01*
G37*
G04 #@! TD.AperFunction*
G04 #@! TD*
G04 #@! TA.AperFunction,Conductor*
G04 #@! TO.N,Net-(J1-Pin_1)*
G36*
X16412759Y37898797D02*
G01*
X17184428Y37826000D01*
X17192341Y37821813D01*
X17195027Y37814353D01*
X17195027Y37235005D01*
X17191600Y37226732D01*
X17185144Y37223447D01*
X16413482Y37102120D01*
X16404777Y37104220D01*
X16400107Y37111861D01*
X16399965Y37113638D01*
X16399000Y37500000D01*
X16399967Y37887180D01*
X16403415Y37895442D01*
X16411696Y37898848D01*
X16412759Y37898797D01*
G37*
G04 #@! TD.AperFunction*
G04 #@! TD*
G04 #@! TA.AperFunction,Conductor*
G04 #@! TO.N,/LED_6*
G36*
X15013106Y23798362D02*
G01*
X15789752Y23701281D01*
X15797535Y23696855D01*
X15800000Y23689672D01*
X15800000Y23110329D01*
X15796573Y23102056D01*
X15789751Y23098719D01*
X15013117Y23001640D01*
X15004483Y23004015D01*
X15000056Y23011799D01*
X14999966Y23013206D01*
X14999000Y23400000D01*
X14999966Y23786783D01*
X15003414Y23795045D01*
X15011695Y23798451D01*
X15013106Y23798362D01*
G37*
G04 #@! TD.AperFunction*
G04 #@! TD*
G04 #@! TA.AperFunction,Conductor*
G04 #@! TO.N,/LED_5*
G36*
X21997944Y35996573D02*
G01*
X22001281Y35989751D01*
X22098360Y35213118D01*
X22095985Y35204484D01*
X22088201Y35200057D01*
X22086779Y35199967D01*
X21700000Y35199000D01*
X21313220Y35199967D01*
X21304955Y35203415D01*
X21301549Y35211696D01*
X21301638Y35213106D01*
X21398718Y35989751D01*
X21403146Y35997535D01*
X21410329Y36000000D01*
X21989671Y36000000D01*
X21997944Y35996573D01*
G37*
G04 #@! TD.AperFunction*
G04 #@! TD*
G04 #@! TA.AperFunction,Conductor*
G04 #@! TO.N,/LED_5*
G36*
X7997944Y16096573D02*
G01*
X8001281Y16089751D01*
X8098360Y15313118D01*
X8095985Y15304484D01*
X8088201Y15300057D01*
X8086779Y15299967D01*
X7700000Y15299000D01*
X7313220Y15299967D01*
X7304955Y15303415D01*
X7301549Y15311696D01*
X7301638Y15313106D01*
X7398718Y16089751D01*
X7403146Y16097535D01*
X7410329Y16100000D01*
X7989671Y16100000D01*
X7997944Y16096573D01*
G37*
G04 #@! TD.AperFunction*
G04 #@! TD*
G04 #@! TA.AperFunction,Conductor*
G04 #@! TO.N,/LED_5*
G36*
X21425458Y27174460D02*
G01*
X21426527Y27173519D01*
X21700707Y26900707D01*
X21973518Y26626528D01*
X21976924Y26618247D01*
X21973476Y26609982D01*
X21972407Y26609041D01*
X21354599Y26128525D01*
X21345965Y26126150D01*
X21339143Y26129487D01*
X20929486Y26539144D01*
X20926059Y26547417D01*
X20928524Y26554600D01*
X20971599Y26609982D01*
X21409041Y27172409D01*
X21416824Y27176835D01*
X21425458Y27174460D01*
G37*
G04 #@! TD.AperFunction*
G04 #@! TD*
G04 #@! TA.AperFunction,Conductor*
G04 #@! TO.N,/LED_3*
G36*
X31590018Y2873477D02*
G01*
X31590959Y2872408D01*
X32071475Y2254600D01*
X32073850Y2245966D01*
X32070513Y2239144D01*
X31660856Y1829487D01*
X31652583Y1826060D01*
X31645400Y1828525D01*
X31027592Y2309041D01*
X31023165Y2316825D01*
X31025540Y2325459D01*
X31026481Y2326528D01*
X31299293Y2600707D01*
X31299293Y2600708D01*
X31573472Y2873520D01*
X31581753Y2876925D01*
X31590018Y2873477D01*
G37*
G04 #@! TD.AperFunction*
G04 #@! TD*
G04 #@! TA.AperFunction,Conductor*
G04 #@! TO.N,/LED_2*
G36*
X19713106Y23498362D02*
G01*
X20489752Y23401281D01*
X20497535Y23396855D01*
X20500000Y23389672D01*
X20500000Y22810329D01*
X20496573Y22802056D01*
X20489751Y22798719D01*
X19713117Y22701640D01*
X19704483Y22704015D01*
X19700056Y22711799D01*
X19699966Y22713206D01*
X19699000Y23100000D01*
X19699966Y23486783D01*
X19703414Y23495045D01*
X19711695Y23498451D01*
X19713106Y23498362D01*
G37*
G04 #@! TD.AperFunction*
G04 #@! TD*
G04 #@! TA.AperFunction,Conductor*
G04 #@! TO.N,/LED_2*
G36*
X34054599Y13571476D02*
G01*
X34672407Y13090960D01*
X34676834Y13083176D01*
X34674459Y13074542D01*
X34673518Y13073473D01*
X34400707Y12799293D01*
X34126527Y12526482D01*
X34118246Y12523076D01*
X34109981Y12526524D01*
X34109040Y12527593D01*
X33628524Y13145401D01*
X33626149Y13154035D01*
X33629485Y13160856D01*
X34039144Y13570515D01*
X34047416Y13573941D01*
X34054599Y13571476D01*
G37*
G04 #@! TD.AperFunction*
G04 #@! TD*
G04 #@! TA.AperFunction,Conductor*
G04 #@! TO.N,/LED_2*
G36*
X20086781Y32500034D02*
G01*
X20095044Y32496586D01*
X20098450Y32488305D01*
X20098360Y32486883D01*
X20001281Y31710249D01*
X19996854Y31702465D01*
X19989671Y31700000D01*
X19410329Y31700000D01*
X19402056Y31703427D01*
X19398719Y31710249D01*
X19382538Y31839689D01*
X19301639Y32486885D01*
X19304014Y32495517D01*
X19311798Y32499944D01*
X19313204Y32500034D01*
X19700000Y32501000D01*
X20086781Y32500034D01*
G37*
G04 #@! TD.AperFunction*
G04 #@! TD*
G04 #@! TA.AperFunction,Conductor*
G04 #@! TO.N,/LED_1*
G36*
X20613106Y24498362D02*
G01*
X21389752Y24401281D01*
X21397535Y24396855D01*
X21400000Y24389672D01*
X21400000Y23810329D01*
X21396573Y23802056D01*
X21389751Y23798719D01*
X20613117Y23701640D01*
X20604483Y23704015D01*
X20600056Y23711799D01*
X20599966Y23713206D01*
X20599000Y24100000D01*
X20599966Y24486783D01*
X20603414Y24495045D01*
X20611695Y24498451D01*
X20613106Y24498362D01*
G37*
G04 #@! TD.AperFunction*
G04 #@! TD*
G04 #@! TA.AperFunction,Conductor*
G04 #@! TO.N,/LED_1*
G36*
X19997944Y35996573D02*
G01*
X20001281Y35989751D01*
X20098360Y35213118D01*
X20095985Y35204484D01*
X20088201Y35200057D01*
X20086779Y35199967D01*
X19700000Y35199000D01*
X19313220Y35199967D01*
X19304955Y35203415D01*
X19301549Y35211696D01*
X19301638Y35213106D01*
X19398718Y35989751D01*
X19403146Y35997535D01*
X19410329Y36000000D01*
X19989671Y36000000D01*
X19997944Y35996573D01*
G37*
G04 #@! TD.AperFunction*
G04 #@! TD*
G04 #@! TA.AperFunction,Conductor*
G04 #@! TO.N,/LED_1*
G36*
X27354599Y22071476D02*
G01*
X27972407Y21590960D01*
X27976834Y21583176D01*
X27974459Y21574542D01*
X27973518Y21573473D01*
X27700707Y21299293D01*
X27426527Y21026482D01*
X27418246Y21023076D01*
X27409981Y21026524D01*
X27409040Y21027593D01*
X26928524Y21645401D01*
X26926149Y21654035D01*
X26929485Y21660856D01*
X27339144Y22070515D01*
X27347416Y22073941D01*
X27354599Y22071476D01*
G37*
G04 #@! TD.AperFunction*
G04 #@! TD*
M02*
