G04 #@! TF.GenerationSoftware,KiCad,Pcbnew,(6.0.2)*
G04 #@! TF.CreationDate,2022-09-07T09:27:56-04:00*
G04 #@! TF.ProjectId,Foras Promineo CLR PCB,466f7261-7320-4507-926f-6d696e656f20,rev?*
G04 #@! TF.SameCoordinates,PX4c4b400PY6a92b70*
G04 #@! TF.FileFunction,Soldermask,Top*
G04 #@! TF.FilePolarity,Negative*
%FSLAX46Y46*%
G04 Gerber Fmt 4.6, Leading zero omitted, Abs format (unit mm)*
G04 Created by KiCad (PCBNEW (6.0.2)) date 2022-09-07 09:27:56*
%MOMM*%
%LPD*%
G01*
G04 APERTURE LIST*
G04 Aperture macros list*
%AMRoundRect*
0 Rectangle with rounded corners*
0 $1 Rounding radius*
0 $2 $3 $4 $5 $6 $7 $8 $9 X,Y pos of 4 corners*
0 Add a 4 corners polygon primitive as box body*
4,1,4,$2,$3,$4,$5,$6,$7,$8,$9,$2,$3,0*
0 Add four circle primitives for the rounded corners*
1,1,$1+$1,$2,$3*
1,1,$1+$1,$4,$5*
1,1,$1+$1,$6,$7*
1,1,$1+$1,$8,$9*
0 Add four rect primitives between the rounded corners*
20,1,$1+$1,$2,$3,$4,$5,0*
20,1,$1+$1,$4,$5,$6,$7,0*
20,1,$1+$1,$6,$7,$8,$9,0*
20,1,$1+$1,$8,$9,$2,$3,0*%
%AMRotRect*
0 Rectangle, with rotation*
0 The origin of the aperture is its center*
0 $1 length*
0 $2 width*
0 $3 Rotation angle, in degrees counterclockwise*
0 Add horizontal line*
21,1,$1,$2,0,0,$3*%
G04 Aperture macros list end*
%ADD10RotRect,1.750000X3.500000X280.000000*%
%ADD11RotRect,1.750000X3.500000X45.000000*%
%ADD12RotRect,1.750000X3.500000X330.857000*%
%ADD13RotRect,1.750000X3.500000X80.000000*%
%ADD14RotRect,1.750000X3.500000X30.000000*%
%ADD15RotRect,1.750000X3.500000X135.000000*%
%ADD16RoundRect,0.237500X-0.237500X0.300000X-0.237500X-0.300000X0.237500X-0.300000X0.237500X0.300000X0*%
%ADD17C,0.800000*%
%ADD18C,7.000000*%
%ADD19RoundRect,0.237500X0.237500X-0.300000X0.237500X0.300000X-0.237500X0.300000X-0.237500X-0.300000X0*%
%ADD20C,0.890000*%
%ADD21C,1.248000*%
G04 APERTURE END LIST*
D10*
G04 #@! TO.C,D2*
X12487989Y24591572D03*
X12132011Y26610428D03*
G04 #@! TD*
D11*
G04 #@! TO.C,D3*
X10013784Y15790784D03*
X8564216Y14341216D03*
G04 #@! TD*
D12*
G04 #@! TO.C,D1*
X6982242Y33848834D03*
X5191758Y34847166D03*
G04 #@! TD*
D13*
G04 #@! TO.C,D5*
X-12243011Y25839428D03*
X-12598989Y23820572D03*
G04 #@! TD*
D14*
G04 #@! TO.C,D6*
X-5762324Y34526500D03*
X-7537676Y33501500D03*
G04 #@! TD*
D15*
G04 #@! TO.C,D4*
X-9563784Y15315784D03*
X-8114216Y13866216D03*
G04 #@! TD*
D16*
G04 #@! TO.C,C1*
X-16600000Y40212500D03*
X-16600000Y38487500D03*
G04 #@! TD*
G04 #@! TO.C,C2*
X16800000Y40212500D03*
X16800000Y38487500D03*
G04 #@! TD*
D17*
G04 #@! TO.C,H1*
X-12873845Y43343845D03*
X-14730000Y47825000D03*
X-14730000Y42575000D03*
D18*
X-14730000Y45200000D03*
D17*
X-17355000Y45200000D03*
X-16586155Y47056155D03*
X-12873845Y47056155D03*
X-12105000Y45200000D03*
X-16586155Y43343845D03*
G04 #@! TD*
G04 #@! TO.C,H2*
X16586155Y43343845D03*
X12873845Y47056155D03*
X12873845Y43343845D03*
X12105000Y45200000D03*
X14730000Y47825000D03*
D18*
X14730000Y45200000D03*
D17*
X16586155Y47056155D03*
X17355000Y45200000D03*
X14730000Y42575000D03*
G04 #@! TD*
D19*
G04 #@! TO.C,R2*
X4800000Y39337500D03*
X4800000Y41062500D03*
G04 #@! TD*
G04 #@! TO.C,R4*
X7200000Y39337500D03*
X7200000Y41062500D03*
G04 #@! TD*
G04 #@! TO.C,R6*
X9600000Y39337500D03*
X9600000Y41062500D03*
G04 #@! TD*
G04 #@! TO.C,R8*
X-10200000Y39287500D03*
X-10200000Y41012500D03*
G04 #@! TD*
G04 #@! TO.C,R10*
X-8000000Y39287500D03*
X-8000000Y41012500D03*
G04 #@! TD*
G04 #@! TO.C,R12*
X-5800000Y39287500D03*
X-5800000Y41012500D03*
G04 #@! TD*
G04 #@! TO.C,C5*
X-8600000Y44487500D03*
X-8600000Y46212500D03*
G04 #@! TD*
G04 #@! TO.C,C6*
X-6500000Y44487500D03*
X-6500000Y46212500D03*
G04 #@! TD*
D20*
G04 #@! TO.C,J1*
X4650000Y47900000D03*
X-4850000Y47900000D03*
D21*
X-3350000Y45250000D03*
X3150000Y45250000D03*
G04 #@! TD*
M02*
