%FSLAX45Y45*%
G04 Gerber Fmt 4.5, Leading zero omitted, Abs format (unit mm)*
G04 Created by KiCad (PCBNEW (6.0.2)) date 2022-09-07 09:28:02*
%MOMM*%
%LPD*%
G01*
G04 APERTURE LIST*
%TA.AperFunction,Profile*%
%ADD10C,0.100000*%
%TD*%
%TA.AperFunction,Profile*%
%ADD11C,0.200000*%
%TD*%
%ADD12C,0.200000*%
%ADD13C,0.089000*%
G04 APERTURE END LIST*
D10*
X-2000000Y4975000D02*
X-2000000Y1375000D01*
D11*
X1000000Y2343017D02*
G75*
G03*
X1000000Y2343017I-1000000J0D01*
G01*
D10*
X-1800000Y5175000D02*
G75*
G03*
X-2000000Y4975000I0J-200000D01*
G01*
X1800000Y1175000D02*
G75*
G03*
X2000000Y1375000I0J200000D01*
G01*
X-2000000Y1375000D02*
G75*
G03*
X-1800000Y1175000I200000J0D01*
G01*
X-1800000Y1175000D02*
X1800000Y1175000D01*
X2000000Y1375000D02*
X2000000Y4975000D01*
X1800000Y5175000D02*
X-1800000Y5175000D01*
X2000000Y4975000D02*
G75*
G03*
X1800000Y5175000I-200000J0D01*
G01*
D12*
D13*
X-529500Y4834500D02*
X-440500Y4745500D01*
X-440500Y4834500D02*
X-529500Y4745500D01*
X420500Y4834500D02*
X509500Y4745500D01*
X509500Y4834500D02*
X420500Y4745500D01*
D12*
X-1747381Y859524D02*
X-1747381Y1059524D01*
X-1699762Y1059524D01*
X-1671190Y1050000D01*
X-1652143Y1030952D01*
X-1642619Y1011905D01*
X-1633095Y973810D01*
X-1633095Y945238D01*
X-1642619Y907143D01*
X-1652143Y888095D01*
X-1671190Y869048D01*
X-1699762Y859524D01*
X-1747381Y859524D01*
X-1547381Y859524D02*
X-1547381Y992857D01*
X-1547381Y954762D02*
X-1537857Y973810D01*
X-1528333Y983333D01*
X-1509286Y992857D01*
X-1490238Y992857D01*
X-1423571Y859524D02*
X-1423571Y992857D01*
X-1423571Y1059524D02*
X-1433095Y1050000D01*
X-1423571Y1040476D01*
X-1414048Y1050000D01*
X-1423571Y1059524D01*
X-1423571Y1040476D01*
X-1299762Y859524D02*
X-1318810Y869048D01*
X-1328333Y888095D01*
X-1328333Y1059524D01*
X-1195000Y859524D02*
X-1214048Y869048D01*
X-1223572Y888095D01*
X-1223572Y1059524D01*
X-966429Y859524D02*
X-966429Y1059524D01*
X-899762Y916667D01*
X-833095Y1059524D01*
X-833095Y859524D01*
X-652143Y859524D02*
X-652143Y964286D01*
X-661667Y983333D01*
X-680714Y992857D01*
X-718810Y992857D01*
X-737857Y983333D01*
X-652143Y869048D02*
X-671191Y859524D01*
X-718810Y859524D01*
X-737857Y869048D01*
X-747381Y888095D01*
X-747381Y907143D01*
X-737857Y926190D01*
X-718810Y935714D01*
X-671191Y935714D01*
X-652143Y945238D01*
X-556905Y992857D02*
X-556905Y792857D01*
X-556905Y983333D02*
X-537857Y992857D01*
X-499762Y992857D01*
X-480714Y983333D01*
X-471190Y973810D01*
X-461667Y954762D01*
X-461667Y897619D01*
X-471190Y878571D01*
X-480714Y869048D01*
X-499762Y859524D01*
X-537857Y859524D01*
X-556905Y869048D01*
X-375952Y878571D02*
X-366429Y869048D01*
X-375952Y859524D01*
X-385476Y869048D01*
X-375952Y878571D01*
X-375952Y859524D01*
X-375952Y983333D02*
X-366429Y973810D01*
X-375952Y964286D01*
X-385476Y973810D01*
X-375952Y983333D01*
X-375952Y964286D01*
D13*
X-2094000Y574500D02*
X-2005000Y485500D01*
X-2005000Y574500D02*
X-2094000Y485500D01*
D12*
X-1709286Y639524D02*
X-1690238Y639524D01*
X-1671190Y630000D01*
X-1661667Y620476D01*
X-1652143Y601429D01*
X-1642619Y563333D01*
X-1642619Y515714D01*
X-1652143Y477619D01*
X-1661667Y458571D01*
X-1671190Y449048D01*
X-1690238Y439524D01*
X-1709286Y439524D01*
X-1728333Y449048D01*
X-1737857Y458571D01*
X-1747381Y477619D01*
X-1756905Y515714D01*
X-1756905Y563333D01*
X-1747381Y601429D01*
X-1737857Y620476D01*
X-1728333Y630000D01*
X-1709286Y639524D01*
X-1556905Y458571D02*
X-1547381Y449048D01*
X-1556905Y439524D01*
X-1566429Y449048D01*
X-1556905Y458571D01*
X-1556905Y439524D01*
X-1433095Y553810D02*
X-1452143Y563333D01*
X-1461667Y572857D01*
X-1471190Y591905D01*
X-1471190Y601429D01*
X-1461667Y620476D01*
X-1452143Y630000D01*
X-1433095Y639524D01*
X-1395000Y639524D01*
X-1375952Y630000D01*
X-1366429Y620476D01*
X-1356905Y601429D01*
X-1356905Y591905D01*
X-1366429Y572857D01*
X-1375952Y563333D01*
X-1395000Y553810D01*
X-1433095Y553810D01*
X-1452143Y544286D01*
X-1461667Y534762D01*
X-1471190Y515714D01*
X-1471190Y477619D01*
X-1461667Y458571D01*
X-1452143Y449048D01*
X-1433095Y439524D01*
X-1395000Y439524D01*
X-1375952Y449048D01*
X-1366429Y458571D01*
X-1356905Y477619D01*
X-1356905Y515714D01*
X-1366429Y534762D01*
X-1375952Y544286D01*
X-1395000Y553810D01*
X-1261667Y439524D02*
X-1223572Y439524D01*
X-1204524Y449048D01*
X-1195000Y458571D01*
X-1175952Y487143D01*
X-1166429Y525238D01*
X-1166429Y601429D01*
X-1175952Y620476D01*
X-1185476Y630000D01*
X-1204524Y639524D01*
X-1242619Y639524D01*
X-1261667Y630000D01*
X-1271191Y620476D01*
X-1280714Y601429D01*
X-1280714Y553810D01*
X-1271191Y534762D01*
X-1261667Y525238D01*
X-1242619Y515714D01*
X-1204524Y515714D01*
X-1185476Y525238D01*
X-1175952Y534762D01*
X-1166429Y553810D01*
X-1042619Y639524D02*
X-1023571Y639524D01*
X-1004524Y630000D01*
X-995000Y620476D01*
X-985476Y601429D01*
X-975952Y563333D01*
X-975952Y515714D01*
X-985476Y477619D01*
X-995000Y458571D01*
X-1004524Y449048D01*
X-1023571Y439524D01*
X-1042619Y439524D01*
X-1061667Y449048D01*
X-1071191Y458571D01*
X-1080714Y477619D01*
X-1090238Y515714D01*
X-1090238Y563333D01*
X-1080714Y601429D01*
X-1071191Y620476D01*
X-1061667Y630000D01*
X-1042619Y639524D01*
X-890238Y439524D02*
X-890238Y572857D01*
X-890238Y553810D02*
X-880714Y563333D01*
X-861667Y572857D01*
X-833095Y572857D01*
X-814048Y563333D01*
X-804524Y544286D01*
X-804524Y439524D01*
X-804524Y544286D02*
X-795000Y563333D01*
X-775952Y572857D01*
X-747381Y572857D01*
X-728333Y563333D01*
X-718810Y544286D01*
X-718810Y439524D01*
X-623572Y439524D02*
X-623572Y572857D01*
X-623572Y553810D02*
X-614048Y563333D01*
X-595000Y572857D01*
X-566429Y572857D01*
X-547381Y563333D01*
X-537857Y544286D01*
X-537857Y439524D01*
X-537857Y544286D02*
X-528333Y563333D01*
X-509286Y572857D01*
X-480714Y572857D01*
X-461667Y563333D01*
X-452143Y544286D01*
X-452143Y439524D01*
X-61667Y649048D02*
X-233095Y391905D01*
X195476Y639524D02*
X214524Y639524D01*
X233571Y630000D01*
X243095Y620476D01*
X252619Y601429D01*
X262143Y563333D01*
X262143Y515714D01*
X252619Y477619D01*
X243095Y458571D01*
X233571Y449048D01*
X214524Y439524D01*
X195476Y439524D01*
X176428Y449048D01*
X166905Y458571D01*
X157381Y477619D01*
X147857Y515714D01*
X147857Y563333D01*
X157381Y601429D01*
X166905Y620476D01*
X176428Y630000D01*
X195476Y639524D01*
X347857Y458571D02*
X357381Y449048D01*
X347857Y439524D01*
X338333Y449048D01*
X347857Y458571D01*
X347857Y439524D01*
X481190Y639524D02*
X500238Y639524D01*
X519286Y630000D01*
X528810Y620476D01*
X538333Y601429D01*
X547857Y563333D01*
X547857Y515714D01*
X538333Y477619D01*
X528810Y458571D01*
X519286Y449048D01*
X500238Y439524D01*
X481190Y439524D01*
X462143Y449048D01*
X452619Y458571D01*
X443095Y477619D01*
X433571Y515714D01*
X433571Y563333D01*
X443095Y601429D01*
X452619Y620476D01*
X462143Y630000D01*
X481190Y639524D01*
X614524Y639524D02*
X738333Y639524D01*
X671667Y563333D01*
X700238Y563333D01*
X719286Y553810D01*
X728809Y544286D01*
X738333Y525238D01*
X738333Y477619D01*
X728809Y458571D01*
X719286Y449048D01*
X700238Y439524D01*
X643095Y439524D01*
X624048Y449048D01*
X614524Y458571D01*
X919286Y639524D02*
X824048Y639524D01*
X814524Y544286D01*
X824048Y553810D01*
X843095Y563333D01*
X890714Y563333D01*
X909762Y553810D01*
X919286Y544286D01*
X928809Y525238D01*
X928809Y477619D01*
X919286Y458571D01*
X909762Y449048D01*
X890714Y439524D01*
X843095Y439524D01*
X824048Y449048D01*
X814524Y458571D01*
X1052619Y639524D02*
X1071667Y639524D01*
X1090714Y630000D01*
X1100238Y620476D01*
X1109762Y601429D01*
X1119286Y563333D01*
X1119286Y515714D01*
X1109762Y477619D01*
X1100238Y458571D01*
X1090714Y449048D01*
X1071667Y439524D01*
X1052619Y439524D01*
X1033571Y449048D01*
X1024048Y458571D01*
X1014524Y477619D01*
X1005000Y515714D01*
X1005000Y563333D01*
X1014524Y601429D01*
X1024048Y620476D01*
X1033571Y630000D01*
X1052619Y639524D01*
X1195476Y639524D02*
X1195476Y601429D01*
X1271667Y639524D02*
X1271667Y601429D01*
X1566905Y363333D02*
X1557381Y372857D01*
X1538333Y401429D01*
X1528809Y420476D01*
X1519286Y449048D01*
X1509762Y496667D01*
X1509762Y534762D01*
X1519286Y582381D01*
X1528809Y610952D01*
X1538333Y630000D01*
X1557381Y658572D01*
X1566905Y668095D01*
X1633571Y620476D02*
X1643095Y630000D01*
X1662143Y639524D01*
X1709762Y639524D01*
X1728809Y630000D01*
X1738333Y620476D01*
X1747857Y601429D01*
X1747857Y582381D01*
X1738333Y553810D01*
X1624048Y439524D01*
X1747857Y439524D01*
X1985952Y439524D02*
X1985952Y639524D01*
X2071667Y439524D02*
X2071667Y544286D01*
X2062143Y563333D01*
X2043095Y572857D01*
X2014524Y572857D01*
X1995476Y563333D01*
X1985952Y553810D01*
X2195476Y439524D02*
X2176429Y449048D01*
X2166905Y458571D01*
X2157381Y477619D01*
X2157381Y534762D01*
X2166905Y553810D01*
X2176429Y563333D01*
X2195476Y572857D01*
X2224048Y572857D01*
X2243095Y563333D01*
X2252619Y553810D01*
X2262143Y534762D01*
X2262143Y477619D01*
X2252619Y458571D01*
X2243095Y449048D01*
X2224048Y439524D01*
X2195476Y439524D01*
X2376429Y439524D02*
X2357381Y449048D01*
X2347857Y468095D01*
X2347857Y639524D01*
X2528810Y449048D02*
X2509762Y439524D01*
X2471667Y439524D01*
X2452619Y449048D01*
X2443095Y468095D01*
X2443095Y544286D01*
X2452619Y563333D01*
X2471667Y572857D01*
X2509762Y572857D01*
X2528810Y563333D01*
X2538333Y544286D01*
X2538333Y525238D01*
X2443095Y506190D01*
X2614524Y449048D02*
X2633571Y439524D01*
X2671667Y439524D01*
X2690714Y449048D01*
X2700238Y468095D01*
X2700238Y477619D01*
X2690714Y496667D01*
X2671667Y506190D01*
X2643095Y506190D01*
X2624048Y515714D01*
X2614524Y534762D01*
X2614524Y544286D01*
X2624048Y563333D01*
X2643095Y572857D01*
X2671667Y572857D01*
X2690714Y563333D01*
X2766905Y363333D02*
X2776429Y372857D01*
X2795476Y401429D01*
X2805000Y420476D01*
X2814524Y449048D01*
X2824048Y496667D01*
X2824048Y534762D01*
X2814524Y582381D01*
X2805000Y610952D01*
X2795476Y630000D01*
X2776429Y658572D01*
X2766905Y668095D01*
X3128809Y363333D02*
X3119286Y372857D01*
X3100238Y401429D01*
X3090714Y420476D01*
X3081190Y449048D01*
X3071667Y496667D01*
X3071667Y534762D01*
X3081190Y582381D01*
X3090714Y610952D01*
X3100238Y630000D01*
X3119286Y658572D01*
X3128809Y668095D01*
X3205000Y572857D02*
X3205000Y439524D01*
X3205000Y553810D02*
X3214524Y563333D01*
X3233571Y572857D01*
X3262143Y572857D01*
X3281190Y563333D01*
X3290714Y544286D01*
X3290714Y439524D01*
X3414524Y439524D02*
X3395476Y449048D01*
X3385952Y458571D01*
X3376428Y477619D01*
X3376428Y534762D01*
X3385952Y553810D01*
X3395476Y563333D01*
X3414524Y572857D01*
X3443095Y572857D01*
X3462143Y563333D01*
X3471667Y553810D01*
X3481190Y534762D01*
X3481190Y477619D01*
X3471667Y458571D01*
X3462143Y449048D01*
X3443095Y439524D01*
X3414524Y439524D01*
X3538333Y572857D02*
X3614524Y572857D01*
X3566905Y639524D02*
X3566905Y468095D01*
X3576428Y449048D01*
X3595476Y439524D01*
X3614524Y439524D01*
X3833571Y572857D02*
X3833571Y372857D01*
X3833571Y563333D02*
X3852619Y572857D01*
X3890714Y572857D01*
X3909762Y563333D01*
X3919286Y553810D01*
X3928809Y534762D01*
X3928809Y477619D01*
X3919286Y458571D01*
X3909762Y449048D01*
X3890714Y439524D01*
X3852619Y439524D01*
X3833571Y449048D01*
X4043095Y439524D02*
X4024048Y449048D01*
X4014524Y468095D01*
X4014524Y639524D01*
X4205000Y439524D02*
X4205000Y544286D01*
X4195476Y563333D01*
X4176428Y572857D01*
X4138333Y572857D01*
X4119286Y563333D01*
X4205000Y449048D02*
X4185952Y439524D01*
X4138333Y439524D01*
X4119286Y449048D01*
X4109762Y468095D01*
X4109762Y487143D01*
X4119286Y506190D01*
X4138333Y515714D01*
X4185952Y515714D01*
X4205000Y525238D01*
X4271667Y572857D02*
X4347857Y572857D01*
X4300238Y639524D02*
X4300238Y468095D01*
X4309762Y449048D01*
X4328810Y439524D01*
X4347857Y439524D01*
X4490714Y449048D02*
X4471667Y439524D01*
X4433571Y439524D01*
X4414524Y449048D01*
X4405000Y468095D01*
X4405000Y544286D01*
X4414524Y563333D01*
X4433571Y572857D01*
X4471667Y572857D01*
X4490714Y563333D01*
X4500238Y544286D01*
X4500238Y525238D01*
X4405000Y506190D01*
X4671667Y439524D02*
X4671667Y639524D01*
X4671667Y449048D02*
X4652619Y439524D01*
X4614524Y439524D01*
X4595476Y449048D01*
X4585952Y458571D01*
X4576429Y477619D01*
X4576429Y534762D01*
X4585952Y553810D01*
X4595476Y563333D01*
X4614524Y572857D01*
X4652619Y572857D01*
X4671667Y563333D01*
X4747857Y363333D02*
X4757381Y372857D01*
X4776429Y401429D01*
X4785952Y420476D01*
X4795476Y449048D01*
X4805000Y496667D01*
X4805000Y534762D01*
X4795476Y582381D01*
X4785952Y610952D01*
X4776429Y630000D01*
X4757381Y658572D01*
X4747857Y668095D01*
M02*
