G04 #@! TF.GenerationSoftware,KiCad,Pcbnew,(6.0.2)*
G04 #@! TF.CreationDate,2022-09-07T09:27:56-04:00*
G04 #@! TF.ProjectId,Foras Promineo CLR PCB,466f7261-7320-4507-926f-6d696e656f20,rev?*
G04 #@! TF.SameCoordinates,PX4c4b400PY6a92b70*
G04 #@! TF.FileFunction,Copper,L2,Bot*
G04 #@! TF.FilePolarity,Positive*
%FSLAX46Y46*%
G04 Gerber Fmt 4.6, Leading zero omitted, Abs format (unit mm)*
G04 Created by KiCad (PCBNEW (6.0.2)) date 2022-09-07 09:27:56*
%MOMM*%
%LPD*%
G01*
G04 APERTURE LIST*
G04 #@! TA.AperFunction,ComponentPad*
%ADD10C,0.800000*%
G04 #@! TD*
G04 #@! TA.AperFunction,ComponentPad*
%ADD11C,7.000000*%
G04 #@! TD*
G04 #@! TA.AperFunction,SMDPad,CuDef*
%ADD12R,0.600000X2.000000*%
G04 #@! TD*
G04 #@! TA.AperFunction,ComponentPad*
%ADD13C,1.248000*%
G04 #@! TD*
G04 #@! TA.AperFunction,ViaPad*
%ADD14C,0.800000*%
G04 #@! TD*
G04 #@! TA.AperFunction,Conductor*
%ADD15C,0.600000*%
G04 #@! TD*
G04 APERTURE END LIST*
D10*
G04 #@! TO.P,H1,1,1*
G04 #@! TO.N,Net-(C1-Pad1)*
X-12873845Y43343845D03*
X-14730000Y47825000D03*
X-14730000Y42575000D03*
D11*
X-14730000Y45200000D03*
D10*
X-17355000Y45200000D03*
X-16586155Y47056155D03*
X-12873845Y47056155D03*
X-12105000Y45200000D03*
X-16586155Y43343845D03*
G04 #@! TD*
G04 #@! TO.P,H2,1,1*
G04 #@! TO.N,Net-(C2-Pad1)*
X16586155Y43343845D03*
X12873845Y47056155D03*
X12873845Y43343845D03*
X12105000Y45200000D03*
X14730000Y47825000D03*
D11*
X14730000Y45200000D03*
D10*
X16586155Y47056155D03*
X17355000Y45200000D03*
X14730000Y42575000D03*
G04 #@! TD*
D12*
G04 #@! TO.P,J1,1,Pin_1*
G04 #@! TO.N,Net-(C5-Pad1)*
X-2100000Y49275000D03*
G04 #@! TO.P,J1,2,Pin_2*
X-2100000Y42225000D03*
G04 #@! TO.P,J1,3,Pin_3*
G04 #@! TO.N,GND*
X-1100000Y49275000D03*
G04 #@! TO.P,J1,4,Pin_4*
X-1100000Y42225000D03*
G04 #@! TO.P,J1,5,Pin_5*
G04 #@! TO.N,/LED_1*
X-100000Y49275000D03*
G04 #@! TO.P,J1,6,Pin_6*
G04 #@! TO.N,/LED_2*
X-100000Y42225000D03*
G04 #@! TO.P,J1,7,Pin_7*
G04 #@! TO.N,/LED_3*
X900000Y49275000D03*
G04 #@! TO.P,J1,8,Pin_8*
G04 #@! TO.N,/LED_4*
X900000Y42225000D03*
G04 #@! TO.P,J1,9,Pin_9*
G04 #@! TO.N,/LED_5*
X1900000Y49275000D03*
G04 #@! TO.P,J1,10,Pin_10*
G04 #@! TO.N,/LED_6*
X1900000Y42225000D03*
D13*
G04 #@! TO.P,J1,S1*
G04 #@! TO.N,N/C*
X-3350000Y45250000D03*
G04 #@! TO.P,J1,S2*
X3150000Y45250000D03*
G04 #@! TD*
D14*
G04 #@! TO.N,GND*
X16800000Y37650000D03*
X-16600000Y37650000D03*
X-6525000Y47137500D03*
X-8625000Y47200000D03*
G04 #@! TO.N,/LED_6*
X-4800000Y35150000D03*
G04 #@! TO.N,/LED_5*
X1900000Y46950000D03*
X1900000Y38650000D03*
X-12100000Y27050000D03*
G04 #@! TO.N,/LED_4*
X-11000000Y13850000D03*
G04 #@! TO.N,/LED_3*
X11500000Y14350000D03*
G04 #@! TO.N,/LED_2*
X-100000Y44250000D03*
X14600000Y24550000D03*
X-100000Y34850000D03*
G04 #@! TO.N,/LED_1*
X800000Y35850000D03*
X-100000Y46950000D03*
X7900000Y33050000D03*
G04 #@! TO.N,Net-(C5-Pad1)*
X4800000Y41912500D03*
X-8000000Y41737500D03*
X-3400000Y49250000D03*
X7200000Y41850000D03*
X-5800000Y41800000D03*
X9600000Y41850000D03*
X-3200000Y42250000D03*
X-10200000Y41800000D03*
G04 #@! TD*
D15*
G04 #@! TO.N,/LED_6*
X-2900000Y35150000D02*
X-4800000Y35150000D01*
X1900000Y39950000D02*
X-2900000Y35150000D01*
X1900000Y42225000D02*
X1900000Y39950000D01*
G04 #@! TO.N,/LED_5*
X-2600000Y34150000D02*
X-7300000Y34150000D01*
X1900000Y49275000D02*
X1900000Y46950000D01*
X-12100000Y29350000D02*
X-12100000Y27050000D01*
X1900000Y38650000D02*
X-2600000Y34150000D01*
X-7300000Y34150000D02*
X-12100000Y29350000D01*
G04 #@! TO.N,/LED_4*
X-2900000Y36350000D02*
X900000Y40150000D01*
X-10500000Y36350000D02*
X-2900000Y36350000D01*
X-11000000Y13850000D02*
X-11600000Y13250000D01*
X-17200000Y13250000D02*
X-19100000Y15150000D01*
X-19100000Y15150000D02*
X-19100000Y27750000D01*
X900000Y40150000D02*
X900000Y42225000D01*
X-19100000Y27750000D02*
X-10500000Y36350000D01*
X-11600000Y13250000D02*
X-17200000Y13250000D01*
G04 #@! TO.N,/LED_3*
X1500000Y50950000D02*
X800000Y50250000D01*
X11500000Y14350000D02*
X13000000Y12850000D01*
X17200000Y50950000D02*
X1500000Y50950000D01*
X19200000Y48950000D02*
X17200000Y50950000D01*
X16400000Y12850000D02*
X19200000Y15650000D01*
X13000000Y12850000D02*
X16400000Y12850000D01*
X19200000Y15650000D02*
X19200000Y48950000D01*
G04 #@! TO.N,/LED_2*
X4300000Y34850000D02*
X-100000Y34850000D01*
X14600000Y24550000D02*
X4300000Y34850000D01*
X-100000Y42225000D02*
X-100000Y44250000D01*
G04 #@! TO.N,/LED_1*
X800000Y35850000D02*
X5100000Y35850000D01*
X-100000Y49275000D02*
X-100000Y46950000D01*
X5100000Y35850000D02*
X7900000Y33050000D01*
G04 #@! TO.N,Net-(C5-Pad1)*
X-2100000Y42225000D02*
X-3175000Y42225000D01*
X-2100000Y49275000D02*
X-3375000Y49275000D01*
X-3375000Y49275000D02*
X-3400000Y49250000D01*
X-3175000Y42225000D02*
X-3200000Y42250000D01*
G04 #@! TD*
G04 #@! TA.AperFunction,Conductor*
G04 #@! TO.N,GND*
G36*
X1025750Y51475998D02*
G01*
X1072243Y51422342D01*
X1082347Y51352068D01*
X1052853Y51287488D01*
X1046724Y51280905D01*
X380999Y50615180D01*
X378404Y50611761D01*
X378403Y50611760D01*
X351689Y50576566D01*
X294572Y50534399D01*
X237526Y50530001D01*
X237298Y50527686D01*
X231135Y50528293D01*
X225067Y50529500D01*
X-99947Y50529500D01*
X-425066Y50529499D01*
X-460818Y50522388D01*
X-487126Y50517156D01*
X-487128Y50517155D01*
X-499301Y50514734D01*
X-509621Y50507839D01*
X-509622Y50507838D01*
X-558295Y50475315D01*
X-583484Y50458484D01*
X-639734Y50374301D01*
X-654500Y50300067D01*
X-654500Y47339181D01*
X-674696Y47275323D01*
X-673093Y47274464D01*
X-676680Y47267774D01*
X-681050Y47261556D01*
X-738594Y47113963D01*
X-759271Y46956904D01*
X-741887Y46799447D01*
X-739277Y46792316D01*
X-739277Y46792314D01*
X-697433Y46677970D01*
X-687447Y46650681D01*
X-599092Y46519195D01*
X-593473Y46514082D01*
X-593472Y46514081D01*
X-582097Y46503731D01*
X-481924Y46412581D01*
X-342707Y46336992D01*
X-189478Y46296793D01*
X-105523Y46295474D01*
X-38681Y46294424D01*
X-38678Y46294424D01*
X-31084Y46294305D01*
X123332Y46329671D01*
X193742Y46365083D01*
X258072Y46397437D01*
X258075Y46397439D01*
X264855Y46400849D01*
X270626Y46405778D01*
X270629Y46405780D01*
X379536Y46498796D01*
X379536Y46498797D01*
X385314Y46503731D01*
X477755Y46632376D01*
X536842Y46779359D01*
X559162Y46936193D01*
X559307Y46950000D01*
X540276Y47107267D01*
X484280Y47255454D01*
X476661Y47266540D01*
X454500Y47337908D01*
X454500Y47894500D01*
X474502Y47962621D01*
X528158Y48009114D01*
X580500Y48020500D01*
X900029Y48020501D01*
X1219500Y48020501D01*
X1287621Y48000499D01*
X1334114Y47946843D01*
X1345500Y47894501D01*
X1345500Y47339181D01*
X1325304Y47275323D01*
X1326907Y47274464D01*
X1323320Y47267774D01*
X1318950Y47261556D01*
X1261406Y47113963D01*
X1240729Y46956904D01*
X1258113Y46799447D01*
X1260723Y46792316D01*
X1260723Y46792314D01*
X1302567Y46677970D01*
X1312553Y46650681D01*
X1400908Y46519195D01*
X1406527Y46514082D01*
X1406528Y46514081D01*
X1417903Y46503731D01*
X1518076Y46412581D01*
X1657293Y46336992D01*
X1810522Y46296793D01*
X1894477Y46295474D01*
X1961319Y46294424D01*
X1961322Y46294424D01*
X1968916Y46294305D01*
X2123332Y46329671D01*
X2193742Y46365083D01*
X2258072Y46397437D01*
X2258075Y46397439D01*
X2264855Y46400849D01*
X2270626Y46405778D01*
X2270629Y46405780D01*
X2379536Y46498796D01*
X2379536Y46498797D01*
X2385314Y46503731D01*
X2477755Y46632376D01*
X2536842Y46779359D01*
X2559162Y46936193D01*
X2559307Y46950000D01*
X2540276Y47107267D01*
X2484280Y47255454D01*
X2476661Y47266540D01*
X2454500Y47337908D01*
X2454500Y47819011D01*
X3950032Y47819011D01*
X3951804Y47811632D01*
X3951804Y47811628D01*
X3987782Y47661768D01*
X3989555Y47654383D01*
X4067208Y47503935D01*
X4178505Y47376352D01*
X4207093Y47356260D01*
X4310806Y47283369D01*
X4310808Y47283368D01*
X4317023Y47279000D01*
X4395633Y47248351D01*
X4467684Y47220259D01*
X4467687Y47220258D01*
X4474764Y47217499D01*
X4482297Y47216507D01*
X4482298Y47216507D01*
X4599802Y47201038D01*
X4603889Y47200500D01*
X4692458Y47200500D01*
X4818080Y47215702D01*
X4976456Y47275547D01*
X5011065Y47299333D01*
X5109726Y47367141D01*
X5109728Y47367142D01*
X5115985Y47371443D01*
X5125460Y47382077D01*
X5223560Y47492182D01*
X5223562Y47492185D01*
X5228613Y47497854D01*
X5307836Y47647480D01*
X5349082Y47811685D01*
X5349968Y47980989D01*
X5346441Y47995684D01*
X5312218Y48138232D01*
X5310445Y48145617D01*
X5232792Y48296065D01*
X5121495Y48423648D01*
X4982977Y48521000D01*
X4853360Y48571536D01*
X4832316Y48579741D01*
X4832313Y48579742D01*
X4825236Y48582501D01*
X4817703Y48583493D01*
X4817702Y48583493D01*
X4700198Y48598962D01*
X4700197Y48598962D01*
X4696111Y48599500D01*
X4607542Y48599500D01*
X4481920Y48584298D01*
X4323544Y48524453D01*
X4184015Y48428557D01*
X4178964Y48422887D01*
X4178962Y48422886D01*
X4076440Y48307818D01*
X4076438Y48307815D01*
X4071387Y48302146D01*
X4067832Y48295433D01*
X4067832Y48295432D01*
X4004437Y48175699D01*
X3992164Y48152520D01*
X3950918Y47988315D01*
X3950878Y47980717D01*
X3950878Y47980715D01*
X3950701Y47946843D01*
X3950032Y47819011D01*
X2454500Y47819011D01*
X2454500Y49313057D01*
X2454499Y49313061D01*
X2454499Y50269500D01*
X2474501Y50337621D01*
X2528157Y50384114D01*
X2580499Y50395500D01*
X16918129Y50395500D01*
X16986250Y50375498D01*
X17007224Y50358595D01*
X18608595Y48757224D01*
X18642621Y48694912D01*
X18645500Y48668129D01*
X18645500Y46045578D01*
X18625498Y45977457D01*
X18571842Y45930964D01*
X18501568Y45920860D01*
X18436988Y45950354D01*
X18397513Y46014030D01*
X18318097Y46321112D01*
X18318094Y46321120D01*
X18317300Y46324192D01*
X18316195Y46327180D01*
X18186433Y46677970D01*
X18186430Y46677977D01*
X18185328Y46680956D01*
X18133434Y46786885D01*
X18019381Y47019698D01*
X18019378Y47019704D01*
X18017980Y47022557D01*
X17816967Y47345498D01*
X17584348Y47646472D01*
X17348977Y47894500D01*
X17324703Y47920080D01*
X17324700Y47920082D01*
X17322504Y47922397D01*
X17208448Y48020501D01*
X17036532Y48168372D01*
X17036529Y48168374D01*
X17034117Y48170449D01*
X16722139Y48388088D01*
X16389764Y48573086D01*
X16386844Y48574344D01*
X16386839Y48574346D01*
X16043330Y48722285D01*
X16043320Y48722289D01*
X16040396Y48723548D01*
X15677611Y48837933D01*
X15412443Y48892847D01*
X15308248Y48914425D01*
X15308245Y48914425D01*
X15305123Y48915072D01*
X14960540Y48950681D01*
X14929904Y48953847D01*
X14929901Y48953847D01*
X14926748Y48954173D01*
X14923581Y48954179D01*
X14923572Y48954179D01*
X14736195Y48954506D01*
X14546358Y48954837D01*
X14358900Y48936126D01*
X14171032Y48917375D01*
X14171028Y48917374D01*
X14167848Y48917057D01*
X14164708Y48916418D01*
X14164707Y48916418D01*
X13798228Y48841857D01*
X13798221Y48841855D01*
X13795094Y48841219D01*
X13431912Y48728100D01*
X13360021Y48697436D01*
X13084950Y48580109D01*
X13084946Y48580107D01*
X13082020Y48578859D01*
X13079241Y48577325D01*
X13079235Y48577322D01*
X12969296Y48516632D01*
X12749002Y48395023D01*
X12746381Y48393208D01*
X12746376Y48393205D01*
X12449841Y48187874D01*
X12436266Y48178474D01*
X12147015Y47931430D01*
X12144818Y47929131D01*
X12144817Y47929130D01*
X11886415Y47658728D01*
X11886410Y47658722D01*
X11884210Y47656420D01*
X11650541Y47356260D01*
X11448402Y47034023D01*
X11279862Y46693008D01*
X11278748Y46690027D01*
X11278747Y46690026D01*
X11254884Y46626202D01*
X11146646Y46336707D01*
X11050119Y45968767D01*
X11049626Y45965618D01*
X11049624Y45965609D01*
X11018870Y45769214D01*
X10991269Y45592956D01*
X10991098Y45589790D01*
X10991097Y45589785D01*
X10990562Y45579903D01*
X10970698Y45213122D01*
X10970848Y45209941D01*
X10987140Y44864476D01*
X10988617Y44833154D01*
X11044842Y44456942D01*
X11045628Y44453860D01*
X11045628Y44453858D01*
X11096544Y44254108D01*
X11138798Y44088337D01*
X11269523Y43731115D01*
X11435678Y43388931D01*
X11437350Y43386224D01*
X11437351Y43386222D01*
X11525264Y43243880D01*
X11635563Y43065291D01*
X11637495Y43062773D01*
X11637502Y43062763D01*
X11849597Y42786356D01*
X11867130Y42763507D01*
X12128009Y42486669D01*
X12211943Y42413963D01*
X12413118Y42239698D01*
X12413125Y42239692D01*
X12415528Y42237611D01*
X12726745Y42018885D01*
X12729507Y42017335D01*
X12729515Y42017330D01*
X13052297Y41836193D01*
X13058472Y41832728D01*
X13061386Y41831461D01*
X13061390Y41831459D01*
X13165495Y41786193D01*
X13407313Y41681048D01*
X13528683Y41642314D01*
X13766652Y41566368D01*
X13766660Y41566366D01*
X13769696Y41565397D01*
X13955690Y41526202D01*
X14138793Y41487616D01*
X14138798Y41487615D01*
X14141912Y41486959D01*
X14520149Y41446537D01*
X14523337Y41446520D01*
X14523342Y41446520D01*
X14695776Y41445617D01*
X14900534Y41444545D01*
X15044142Y41458373D01*
X15276009Y41480699D01*
X15276014Y41480700D01*
X15279174Y41481004D01*
X15282293Y41481627D01*
X15282298Y41481628D01*
X15466028Y41518341D01*
X15652190Y41555540D01*
X15982203Y41657065D01*
X16012723Y41666454D01*
X16012726Y41666455D01*
X16015765Y41667390D01*
X16018693Y41668627D01*
X16018699Y41668629D01*
X16215911Y41751935D01*
X16366175Y41815409D01*
X16368978Y41816943D01*
X16368983Y41816946D01*
X16611511Y41949727D01*
X16699833Y41998082D01*
X17013323Y42213537D01*
X17071720Y42263061D01*
X17301005Y42457509D01*
X17301007Y42457511D01*
X17303435Y42459570D01*
X17305640Y42461862D01*
X17305646Y42461867D01*
X17564984Y42731359D01*
X17564986Y42731362D01*
X17567199Y42733661D01*
X17801913Y43033004D01*
X17935224Y43243880D01*
X18003474Y43351840D01*
X18003478Y43351847D01*
X18005176Y43354533D01*
X18006593Y43357376D01*
X18006598Y43357384D01*
X18173485Y43692110D01*
X18174905Y43694958D01*
X18309364Y44050792D01*
X18320176Y44091424D01*
X18397737Y44382921D01*
X18434582Y44443608D01*
X18498389Y44474741D01*
X18568898Y44466435D01*
X18623723Y44421328D01*
X18645500Y44350522D01*
X18645500Y15931871D01*
X18625498Y15863750D01*
X18608595Y15842776D01*
X16207224Y13441405D01*
X16144912Y13407379D01*
X16118129Y13404500D01*
X13281871Y13404500D01*
X13213750Y13424502D01*
X13192776Y13441405D01*
X12167575Y14466606D01*
X12138804Y14511162D01*
X12135070Y14521043D01*
X12084280Y14655454D01*
X12032382Y14730966D01*
X11998855Y14779749D01*
X11998854Y14779751D01*
X11994553Y14786008D01*
X11975647Y14802853D01*
X11881946Y14886336D01*
X11876275Y14891389D01*
X11868889Y14895300D01*
X11830565Y14915591D01*
X11736274Y14965516D01*
X11582633Y15004108D01*
X11575034Y15004148D01*
X11575033Y15004148D01*
X11509181Y15004493D01*
X11424221Y15004938D01*
X11416841Y15003166D01*
X11416839Y15003166D01*
X11277563Y14969729D01*
X11277560Y14969728D01*
X11270184Y14967957D01*
X11129414Y14895300D01*
X11010039Y14791162D01*
X10918950Y14661556D01*
X10861406Y14513963D01*
X10860414Y14506430D01*
X10860414Y14506429D01*
X10842265Y14368568D01*
X10840729Y14356904D01*
X10858113Y14199447D01*
X10860723Y14192316D01*
X10860723Y14192314D01*
X10882898Y14131719D01*
X10912553Y14050681D01*
X10916789Y14044378D01*
X10916789Y14044377D01*
X10969368Y13966132D01*
X11000908Y13919195D01*
X11006527Y13914082D01*
X11006528Y13914081D01*
X11096615Y13832109D01*
X11118076Y13812581D01*
X11257293Y13736992D01*
X11264635Y13735066D01*
X11264637Y13735065D01*
X11321270Y13720208D01*
X11378392Y13687427D01*
X12597244Y12468574D01*
X12600897Y12464766D01*
X12643226Y12418734D01*
X12680505Y12395620D01*
X12690268Y12388911D01*
X12691604Y12387897D01*
X12718393Y12367562D01*
X12718396Y12367560D01*
X12725234Y12362370D01*
X12739396Y12356763D01*
X12759410Y12346697D01*
X12772344Y12338677D01*
X12780591Y12336281D01*
X12780593Y12336280D01*
X12802720Y12329852D01*
X12814476Y12326436D01*
X12825701Y12322592D01*
X12858498Y12309607D01*
X12858505Y12309605D01*
X12866490Y12306444D01*
X12875033Y12305546D01*
X12875034Y12305546D01*
X12881620Y12304854D01*
X12903610Y12300540D01*
X12911890Y12298134D01*
X12911894Y12298133D01*
X12918235Y12296291D01*
X12924819Y12295808D01*
X12924822Y12295807D01*
X12925521Y12295756D01*
X12929007Y12295500D01*
X12964012Y12295500D01*
X12977182Y12294810D01*
X13017581Y12290564D01*
X13026048Y12291996D01*
X13026049Y12291996D01*
X13036336Y12293736D01*
X13057348Y12295500D01*
X16384925Y12295500D01*
X16390201Y12295390D01*
X16452674Y12292772D01*
X16495376Y12302788D01*
X16507051Y12304951D01*
X16522754Y12307102D01*
X16550518Y12310905D01*
X16564493Y12316953D01*
X16585763Y12323987D01*
X16592222Y12325502D01*
X16600583Y12327463D01*
X16639037Y12348603D01*
X16649683Y12353818D01*
X16682063Y12367830D01*
X16682067Y12367832D01*
X16689946Y12371242D01*
X16701775Y12380821D01*
X16720363Y12393312D01*
X16733715Y12400652D01*
X16739245Y12405426D01*
X16740140Y12406198D01*
X16740147Y12406204D01*
X16741891Y12407710D01*
X16766634Y12432453D01*
X16776435Y12441279D01*
X16801338Y12461444D01*
X16801341Y12461447D01*
X16808013Y12466850D01*
X16819038Y12482364D01*
X16832645Y12498464D01*
X19530905Y15196724D01*
X19593217Y15230750D01*
X19664032Y15225685D01*
X19720868Y15183138D01*
X19745679Y15116618D01*
X19746000Y15107629D01*
X19746000Y13787425D01*
X19743579Y13762847D01*
X19741024Y13750000D01*
X19743445Y13737829D01*
X19743445Y13725419D01*
X19742802Y13725419D01*
X19743473Y13714674D01*
X19728871Y13510509D01*
X19726313Y13492715D01*
X19677190Y13266899D01*
X19672125Y13249650D01*
X19591367Y13033127D01*
X19583898Y13016774D01*
X19473148Y12813951D01*
X19463431Y12798830D01*
X19382383Y12690563D01*
X19324937Y12613824D01*
X19313164Y12600238D01*
X19149762Y12436836D01*
X19136176Y12425063D01*
X19121674Y12414207D01*
X18957707Y12291462D01*
X18951173Y12286571D01*
X18936049Y12276852D01*
X18733226Y12166102D01*
X18716877Y12158635D01*
X18583148Y12108757D01*
X18500350Y12077875D01*
X18483101Y12072810D01*
X18257285Y12023687D01*
X18239491Y12021129D01*
X18035326Y12006527D01*
X18024581Y12007198D01*
X18024581Y12006555D01*
X18012171Y12006555D01*
X18000000Y12008976D01*
X17987153Y12006421D01*
X17962575Y12004000D01*
X-17962575Y12004000D01*
X-17987153Y12006421D01*
X-18000000Y12008976D01*
X-18012171Y12006555D01*
X-18024581Y12006555D01*
X-18024581Y12007198D01*
X-18035326Y12006527D01*
X-18239491Y12021129D01*
X-18257285Y12023687D01*
X-18483101Y12072810D01*
X-18500350Y12077875D01*
X-18583148Y12108757D01*
X-18716877Y12158635D01*
X-18733226Y12166102D01*
X-18936049Y12276852D01*
X-18951173Y12286571D01*
X-18957706Y12291462D01*
X-19121674Y12414207D01*
X-19136176Y12425063D01*
X-19149762Y12436836D01*
X-19313164Y12600238D01*
X-19324937Y12613824D01*
X-19382383Y12690563D01*
X-19463431Y12798830D01*
X-19473148Y12813951D01*
X-19583898Y13016774D01*
X-19591367Y13033127D01*
X-19672125Y13249650D01*
X-19677190Y13266899D01*
X-19726313Y13492715D01*
X-19728871Y13510509D01*
X-19743473Y13714674D01*
X-19742802Y13725419D01*
X-19743445Y13725419D01*
X-19743445Y13737829D01*
X-19741024Y13750000D01*
X-19743579Y13762847D01*
X-19746000Y13787425D01*
X-19746000Y14707629D01*
X-19725998Y14775750D01*
X-19672342Y14822243D01*
X-19602068Y14832347D01*
X-19537488Y14802853D01*
X-19530905Y14796724D01*
X-19517547Y14783366D01*
X-19508721Y14773565D01*
X-19488556Y14748662D01*
X-19488553Y14748659D01*
X-19483150Y14741987D01*
X-19467636Y14730962D01*
X-19451536Y14717355D01*
X-17602768Y12868587D01*
X-17599115Y12864779D01*
X-17569389Y12832453D01*
X-17556774Y12818734D01*
X-17549479Y12814211D01*
X-17549478Y12814210D01*
X-17519494Y12795619D01*
X-17509712Y12788896D01*
X-17474765Y12762370D01*
X-17466780Y12759209D01*
X-17466781Y12759209D01*
X-17460604Y12756763D01*
X-17440598Y12746700D01*
X-17434963Y12743206D01*
X-17434954Y12743202D01*
X-17427656Y12738677D01*
X-17419409Y12736281D01*
X-17385520Y12726435D01*
X-17374298Y12722593D01*
X-17333510Y12706444D01*
X-17319902Y12705013D01*
X-17318367Y12704852D01*
X-17296395Y12700541D01*
X-17281765Y12696291D01*
X-17270993Y12695500D01*
X-17235995Y12695500D01*
X-17222825Y12694810D01*
X-17208773Y12693333D01*
X-17190963Y12691461D01*
X-17182419Y12690563D01*
X-17163654Y12693737D01*
X-17142652Y12695500D01*
X-11615075Y12695500D01*
X-11609799Y12695390D01*
X-11547326Y12692772D01*
X-11524469Y12698133D01*
X-11504622Y12702788D01*
X-11492949Y12704951D01*
X-11477246Y12707102D01*
X-11449482Y12710905D01*
X-11435507Y12716953D01*
X-11414237Y12723987D01*
X-11407778Y12725502D01*
X-11399417Y12727463D01*
X-11360963Y12748603D01*
X-11350317Y12753818D01*
X-11317937Y12767830D01*
X-11317933Y12767832D01*
X-11310054Y12771242D01*
X-11298225Y12780821D01*
X-11279637Y12793312D01*
X-11266285Y12800652D01*
X-11260042Y12806041D01*
X-11259860Y12806198D01*
X-11259853Y12806204D01*
X-11258109Y12807710D01*
X-11233366Y12832453D01*
X-11223565Y12841279D01*
X-11198662Y12861444D01*
X-11198659Y12861447D01*
X-11191987Y12866850D01*
X-11180962Y12882364D01*
X-11167355Y12898464D01*
X-10879451Y13186368D01*
X-10818487Y13220093D01*
X-10817155Y13220398D01*
X-10776668Y13229671D01*
X-10702648Y13266899D01*
X-10641928Y13297437D01*
X-10641925Y13297439D01*
X-10635145Y13300849D01*
X-10629374Y13305778D01*
X-10629371Y13305780D01*
X-10520464Y13398796D01*
X-10520464Y13398797D01*
X-10514686Y13403731D01*
X-10422245Y13532376D01*
X-10363158Y13679359D01*
X-10343091Y13820361D01*
X-10341419Y13832109D01*
X-10341419Y13832112D01*
X-10340838Y13836193D01*
X-10340693Y13850000D01*
X-10359724Y14007267D01*
X-10415720Y14155454D01*
X-10505447Y14286008D01*
X-10623725Y14391389D01*
X-10631111Y14395300D01*
X-10757012Y14461961D01*
X-10757011Y14461961D01*
X-10763726Y14465516D01*
X-10917367Y14504108D01*
X-10924966Y14504148D01*
X-10924967Y14504148D01*
X-10990819Y14504493D01*
X-11075779Y14504938D01*
X-11083159Y14503166D01*
X-11083161Y14503166D01*
X-11222437Y14469729D01*
X-11222440Y14469728D01*
X-11229816Y14467957D01*
X-11370586Y14395300D01*
X-11489961Y14291162D01*
X-11581050Y14161556D01*
X-11638594Y14013963D01*
X-11640371Y14014656D01*
X-11668049Y13966132D01*
X-11792776Y13841405D01*
X-11855088Y13807379D01*
X-11881871Y13804500D01*
X-16918128Y13804500D01*
X-16986249Y13824502D01*
X-17007223Y13841405D01*
X-18508595Y15342776D01*
X-18542620Y15405088D01*
X-18545500Y15431871D01*
X-18545500Y27468129D01*
X-18525498Y27536250D01*
X-18508595Y27557224D01*
X-10307224Y35758595D01*
X-10244912Y35792621D01*
X-10218129Y35795500D01*
X-5387747Y35795500D01*
X-5319626Y35775498D01*
X-5273133Y35721842D01*
X-5263029Y35651568D01*
X-5290980Y35591878D01*
X-5289961Y35591162D01*
X-5294019Y35585389D01*
X-5294020Y35585386D01*
X-5294326Y35584952D01*
X-5294329Y35584948D01*
X-5350628Y35504842D01*
X-5381050Y35461556D01*
X-5438594Y35313963D01*
X-5459271Y35156904D01*
X-5458437Y35149354D01*
X-5444824Y35026053D01*
X-5441887Y34999447D01*
X-5439277Y34992314D01*
X-5439276Y34992311D01*
X-5395908Y34873800D01*
X-5391282Y34802955D01*
X-5425692Y34740854D01*
X-5488214Y34707216D01*
X-5514234Y34704500D01*
X-7284925Y34704500D01*
X-7290201Y34704610D01*
X-7352674Y34707228D01*
X-7361039Y34705266D01*
X-7395378Y34697212D01*
X-7407052Y34695049D01*
X-7450518Y34689095D01*
X-7463233Y34683593D01*
X-7464494Y34683047D01*
X-7485763Y34676013D01*
X-7500583Y34672537D01*
X-7539037Y34651397D01*
X-7549683Y34646182D01*
X-7582063Y34632170D01*
X-7582067Y34632168D01*
X-7589946Y34628758D01*
X-7596619Y34623354D01*
X-7596621Y34623353D01*
X-7601775Y34619179D01*
X-7620363Y34606688D01*
X-7633715Y34599348D01*
X-7638719Y34595028D01*
X-7640140Y34593802D01*
X-7640147Y34593796D01*
X-7641891Y34592290D01*
X-7666634Y34567547D01*
X-7676435Y34558721D01*
X-7701338Y34538556D01*
X-7701341Y34538553D01*
X-7708013Y34533150D01*
X-7719038Y34517636D01*
X-7732645Y34501536D01*
X-12481413Y29752768D01*
X-12485221Y29749115D01*
X-12531266Y29706774D01*
X-12535789Y29699479D01*
X-12535790Y29699478D01*
X-12554381Y29669494D01*
X-12561104Y29659712D01*
X-12587630Y29624765D01*
X-12590791Y29616781D01*
X-12593237Y29610604D01*
X-12603300Y29590598D01*
X-12606794Y29584963D01*
X-12606798Y29584954D01*
X-12611323Y29577656D01*
X-12613719Y29569409D01*
X-12623565Y29535520D01*
X-12627407Y29524298D01*
X-12643556Y29483510D01*
X-12644454Y29474965D01*
X-12645148Y29468367D01*
X-12649459Y29446395D01*
X-12653709Y29431765D01*
X-12654500Y29420993D01*
X-12654500Y29385995D01*
X-12655190Y29372825D01*
X-12659437Y29332419D01*
X-12656263Y29313654D01*
X-12654500Y29292652D01*
X-12654500Y27439181D01*
X-12674696Y27375323D01*
X-12673093Y27374464D01*
X-12676680Y27367774D01*
X-12681050Y27361556D01*
X-12738594Y27213963D01*
X-12759271Y27056904D01*
X-12741887Y26899447D01*
X-12739277Y26892316D01*
X-12739277Y26892314D01*
X-12693883Y26768269D01*
X-12687447Y26750681D01*
X-12599092Y26619195D01*
X-12593473Y26614082D01*
X-12593472Y26614081D01*
X-12582097Y26603731D01*
X-12481924Y26512581D01*
X-12342707Y26436992D01*
X-12189478Y26396793D01*
X-12105523Y26395474D01*
X-12038681Y26394424D01*
X-12038678Y26394424D01*
X-12031084Y26394305D01*
X-11876668Y26429671D01*
X-11806258Y26465083D01*
X-11741928Y26497437D01*
X-11741925Y26497439D01*
X-11735145Y26500849D01*
X-11729374Y26505778D01*
X-11729371Y26505780D01*
X-11620464Y26598796D01*
X-11620464Y26598797D01*
X-11614686Y26603731D01*
X-11522245Y26732376D01*
X-11463158Y26879359D01*
X-11457035Y26922385D01*
X-11441419Y27032109D01*
X-11441419Y27032112D01*
X-11440838Y27036193D01*
X-11440693Y27050000D01*
X-11459724Y27207267D01*
X-11515720Y27355454D01*
X-11523339Y27366540D01*
X-11545500Y27437908D01*
X-11545500Y29068129D01*
X-11525498Y29136250D01*
X-11508595Y29157224D01*
X-7107224Y33558595D01*
X-7044912Y33592621D01*
X-7018129Y33595500D01*
X-2652727Y33595500D01*
X-2584606Y33575498D01*
X-2538113Y33521842D01*
X-2528009Y33451568D01*
X-2557503Y33386988D01*
X-2623848Y33346854D01*
X-2653335Y33339911D01*
X-2653341Y33339909D01*
X-2655190Y33339474D01*
X-3255186Y33158895D01*
X-3256975Y33158235D01*
X-3256984Y33158232D01*
X-3841224Y32942695D01*
X-3841236Y32942690D01*
X-3843039Y32942025D01*
X-4416556Y32689671D01*
X-4973597Y32402776D01*
X-5512085Y32082410D01*
X-6030010Y31729767D01*
X-6525441Y31346163D01*
X-6526884Y31344898D01*
X-6526898Y31344886D01*
X-6995065Y30934315D01*
X-6996530Y30933030D01*
X-7441518Y30491907D01*
X-7858747Y30024442D01*
X-8246660Y29532377D01*
X-8603809Y29017549D01*
X-8604798Y29015919D01*
X-8604802Y29015913D01*
X-8927854Y28483539D01*
X-8927861Y28483526D01*
X-8928862Y28481877D01*
X-9220608Y27927361D01*
X-9221398Y27925607D01*
X-9221403Y27925597D01*
X-9441090Y27437908D01*
X-9477956Y27356068D01*
X-9699948Y26770130D01*
X-9700525Y26768273D01*
X-9700526Y26768269D01*
X-9816608Y26394424D01*
X-9885756Y26171733D01*
X-10034685Y25563108D01*
X-10035026Y25561222D01*
X-10140173Y24979749D01*
X-10146181Y24946527D01*
X-10219828Y24324289D01*
X-10219938Y24322350D01*
X-10242042Y23933084D01*
X-10255351Y23698716D01*
X-10254179Y23430170D01*
X-10252617Y23072141D01*
X-10211636Y22446901D01*
X-10132562Y21825330D01*
X-10015690Y21209745D01*
X-9861455Y20602443D01*
X-9860877Y20600636D01*
X-9860874Y20600627D01*
X-9805913Y20428930D01*
X-9670433Y20005690D01*
X-9669737Y20003901D01*
X-9669732Y20003886D01*
X-9605004Y19837439D01*
X-9443336Y19421712D01*
X-9442543Y19419993D01*
X-9442538Y19419980D01*
X-9298958Y19108531D01*
X-9181012Y18852686D01*
X-9180105Y18850997D01*
X-9180100Y18850988D01*
X-9096220Y18694881D01*
X-8884439Y18300737D01*
X-8554723Y17767922D01*
X-8193095Y17256230D01*
X-7800903Y16767569D01*
X-7799597Y16766131D01*
X-7799590Y16766123D01*
X-7385302Y16310029D01*
X-7379611Y16303763D01*
X-7378218Y16302406D01*
X-7249935Y16177439D01*
X-6930789Y15866541D01*
X-6456114Y15457534D01*
X-5957354Y15078268D01*
X-5955752Y15077198D01*
X-5955747Y15077194D01*
X-5510589Y14779749D01*
X-5436371Y14730158D01*
X-4895108Y14414503D01*
X-4893374Y14413629D01*
X-4337319Y14133354D01*
X-4337305Y14133348D01*
X-4335584Y14132480D01*
X-3759887Y13885141D01*
X-3170164Y13673409D01*
X-2568615Y13498073D01*
X-1957484Y13359788D01*
X-1339051Y13259070D01*
X-1337147Y13258878D01*
X-1337145Y13258878D01*
X-717540Y13196487D01*
X-717536Y13196487D01*
X-715622Y13196294D01*
X-713714Y13196219D01*
X-713699Y13196218D01*
X-91436Y13171770D01*
X-91432Y13171770D01*
X-89524Y13171695D01*
X380786Y13181957D01*
X534986Y13185321D01*
X534988Y13185321D01*
X536908Y13185363D01*
X1111213Y13233084D01*
X1159424Y13237090D01*
X1159425Y13237090D01*
X1161337Y13237249D01*
X1781433Y13327159D01*
X1783318Y13327551D01*
X2392998Y13454364D01*
X2393014Y13454368D01*
X2394885Y13454757D01*
X2999402Y13619568D01*
X3592731Y13820976D01*
X4172657Y14058230D01*
X4737017Y14330445D01*
X5283707Y14636606D01*
X5770027Y14949417D01*
X5809071Y14974531D01*
X5809075Y14974534D01*
X5810686Y14975570D01*
X6315989Y15346073D01*
X6317468Y15347303D01*
X6796246Y15745499D01*
X6796260Y15745512D01*
X6797730Y15746734D01*
X7254114Y16176056D01*
X7683436Y16632440D01*
X7684658Y16633910D01*
X7684671Y16633924D01*
X8082867Y17112702D01*
X8082868Y17112703D01*
X8084097Y17114181D01*
X8454600Y17619484D01*
X8507429Y17701615D01*
X8792532Y18144859D01*
X8793564Y18146463D01*
X9099725Y18693153D01*
X9371940Y19257513D01*
X9609194Y19837439D01*
X9810602Y20430768D01*
X9975413Y21035285D01*
X9975802Y21037156D01*
X9975806Y21037172D01*
X10102619Y21646852D01*
X10102619Y21646855D01*
X10103011Y21648737D01*
X10192921Y22268833D01*
X10244807Y22893262D01*
X10258866Y23430170D01*
X10239731Y24056459D01*
X10223567Y24232376D01*
X10182576Y24678479D01*
X10182574Y24678494D01*
X10182398Y24680411D01*
X10105548Y25179711D01*
X10087371Y25297810D01*
X10087370Y25297813D01*
X10087080Y25299700D01*
X10029484Y25564971D01*
X9954542Y25910136D01*
X9954540Y25910144D01*
X9954134Y25912014D01*
X9784054Y26515071D01*
X9783140Y26517691D01*
X9578110Y27104804D01*
X9578108Y27104809D01*
X9577476Y27106619D01*
X9335171Y27684452D01*
X9058041Y28246416D01*
X8747121Y28790413D01*
X8599277Y29015913D01*
X8404622Y29312812D01*
X8404611Y29312827D01*
X8403571Y29314414D01*
X8158574Y29642504D01*
X8029827Y29814918D01*
X8029818Y29814929D01*
X8028672Y29816464D01*
X7623823Y30294691D01*
X7394067Y30534698D01*
X7191855Y30745931D01*
X7190534Y30747311D01*
X7189131Y30748608D01*
X6731833Y31171330D01*
X6731827Y31171335D01*
X6730422Y31172634D01*
X6245202Y31569076D01*
X6120304Y31658990D01*
X5738252Y31934027D01*
X5738250Y31934028D01*
X5736685Y31935155D01*
X5501734Y32083398D01*
X5208404Y32268476D01*
X5208398Y32268479D01*
X5206768Y32269508D01*
X4657428Y32570887D01*
X4587789Y32603731D01*
X4092460Y32837342D01*
X4090713Y32838166D01*
X3508739Y33070351D01*
X2913675Y33266573D01*
X2911826Y33267060D01*
X2911822Y33267061D01*
X2635118Y33339911D01*
X2307743Y33426102D01*
X2305857Y33426477D01*
X2305849Y33426479D01*
X1981182Y33491059D01*
X1693201Y33548342D01*
X1691314Y33548599D01*
X1691301Y33548601D01*
X1156241Y33621419D01*
X1072343Y33632837D01*
X1070437Y33632979D01*
X1070424Y33632980D01*
X607699Y33667366D01*
X447485Y33679272D01*
X92020Y33683925D01*
X-177110Y33687449D01*
X-177120Y33687449D01*
X-179042Y33687474D01*
X-180952Y33687382D01*
X-180967Y33687382D01*
X-802991Y33657503D01*
X-802999Y33657502D01*
X-804901Y33657411D01*
X-1427758Y33589197D01*
X-2045289Y33483086D01*
X-2047153Y33482647D01*
X-2213934Y33443376D01*
X-2284826Y33447233D01*
X-2342379Y33488804D01*
X-2368320Y33554891D01*
X-2354414Y33624513D01*
X-2310783Y33670926D01*
X-2310054Y33671242D01*
X-2303380Y33676647D01*
X-2303376Y33676649D01*
X-2298225Y33680821D01*
X-2279637Y33693312D01*
X-2266285Y33700652D01*
X-2260755Y33705426D01*
X-2259860Y33706198D01*
X-2259853Y33706204D01*
X-2258109Y33707710D01*
X-2233366Y33732453D01*
X-2223565Y33741279D01*
X-2198662Y33761444D01*
X-2198659Y33761447D01*
X-2191987Y33766850D01*
X-2180962Y33782364D01*
X-2167355Y33798464D01*
X-968727Y34997092D01*
X-906415Y35031118D01*
X-835600Y35026053D01*
X-778764Y34983506D01*
X-753953Y34916986D01*
X-754710Y34891552D01*
X-758280Y34864437D01*
X-758280Y34864431D01*
X-759271Y34856904D01*
X-758437Y34849354D01*
X-742746Y34707228D01*
X-741887Y34699447D01*
X-739277Y34692316D01*
X-739277Y34692314D01*
X-690389Y34558721D01*
X-687447Y34550681D01*
X-599092Y34419195D01*
X-481924Y34312581D01*
X-342707Y34236992D01*
X-189478Y34196793D01*
X-105523Y34195474D01*
X-38681Y34194424D01*
X-38678Y34194424D01*
X-31084Y34194305D01*
X123332Y34229671D01*
X227507Y34282065D01*
X284121Y34295500D01*
X4018129Y34295500D01*
X4086250Y34275498D01*
X4107224Y34258595D01*
X13933675Y24432144D01*
X13962905Y24386351D01*
X14012553Y24250681D01*
X14100908Y24119195D01*
X14106527Y24114082D01*
X14106528Y24114081D01*
X14185606Y24042126D01*
X14218076Y24012581D01*
X14357293Y23936992D01*
X14510522Y23896793D01*
X14594477Y23895474D01*
X14661319Y23894424D01*
X14661322Y23894424D01*
X14668916Y23894305D01*
X14823332Y23929671D01*
X14893742Y23965083D01*
X14958072Y23997437D01*
X14958075Y23997439D01*
X14964855Y24000849D01*
X14970626Y24005778D01*
X14970629Y24005780D01*
X15079536Y24098796D01*
X15079536Y24098797D01*
X15085314Y24103731D01*
X15177755Y24232376D01*
X15236842Y24379359D01*
X15259162Y24536193D01*
X15259307Y24550000D01*
X15240276Y24707267D01*
X15184280Y24855454D01*
X15122999Y24944619D01*
X15098855Y24979749D01*
X15098854Y24979751D01*
X15094553Y24986008D01*
X14976275Y25091389D01*
X14836274Y25165516D01*
X14779761Y25179711D01*
X14721362Y25212820D01*
X7752995Y32181187D01*
X7718969Y32243499D01*
X7724034Y32314314D01*
X7766581Y32371150D01*
X7833101Y32395961D01*
X7844069Y32396266D01*
X7961318Y32394424D01*
X7961321Y32394424D01*
X7968916Y32394305D01*
X8123332Y32429671D01*
X8193742Y32465083D01*
X8258072Y32497437D01*
X8258075Y32497439D01*
X8264855Y32500849D01*
X8270626Y32505778D01*
X8270629Y32505780D01*
X8379536Y32598796D01*
X8379536Y32598797D01*
X8385314Y32603731D01*
X8477755Y32732376D01*
X8536842Y32879359D01*
X8559162Y33036193D01*
X8559307Y33050000D01*
X8540276Y33207267D01*
X8484280Y33355454D01*
X8394553Y33486008D01*
X8276275Y33591389D01*
X8136274Y33665516D01*
X8103298Y33673799D01*
X8079759Y33679712D01*
X8021360Y33712821D01*
X5502768Y36231413D01*
X5499115Y36235221D01*
X5462584Y36274948D01*
X5462583Y36274949D01*
X5456774Y36281266D01*
X5419494Y36304381D01*
X5409712Y36311104D01*
X5381605Y36332438D01*
X5381606Y36332438D01*
X5374765Y36337630D01*
X5365053Y36341475D01*
X5360604Y36343237D01*
X5340598Y36353300D01*
X5334963Y36356794D01*
X5334954Y36356798D01*
X5327656Y36361323D01*
X5285521Y36373565D01*
X5274298Y36377407D01*
X5233510Y36393556D01*
X5219902Y36394987D01*
X5218367Y36395148D01*
X5196394Y36399459D01*
X5181765Y36403709D01*
X5170993Y36404500D01*
X5135995Y36404500D01*
X5122824Y36405190D01*
X5112607Y36406264D01*
X5108773Y36406667D01*
X5090963Y36408539D01*
X5082419Y36409437D01*
X5063654Y36406263D01*
X5042652Y36404500D01*
X1182811Y36404500D01*
X1123855Y36419144D01*
X1036274Y36465516D01*
X882633Y36504108D01*
X875034Y36504148D01*
X875033Y36504148D01*
X842029Y36504321D01*
X774014Y36524680D01*
X727803Y36578579D01*
X718068Y36648905D01*
X747900Y36713330D01*
X753595Y36719414D01*
X2020549Y37986368D01*
X2081513Y38020093D01*
X2082845Y38020398D01*
X2123332Y38029671D01*
X2193742Y38065083D01*
X2258072Y38097437D01*
X2258075Y38097439D01*
X2264855Y38100849D01*
X2270626Y38105778D01*
X2270629Y38105780D01*
X2379536Y38198796D01*
X2379536Y38198797D01*
X2385314Y38203731D01*
X2477755Y38332376D01*
X2536842Y38479359D01*
X2559162Y38636193D01*
X2559307Y38650000D01*
X2540276Y38807267D01*
X2484280Y38955454D01*
X2394553Y39086008D01*
X2276275Y39191389D01*
X2197735Y39232974D01*
X2146895Y39282524D01*
X2130913Y39351699D01*
X2154867Y39418532D01*
X2167602Y39433421D01*
X2281413Y39547232D01*
X2285221Y39550885D01*
X2324948Y39587416D01*
X2324949Y39587417D01*
X2331266Y39593226D01*
X2354381Y39630506D01*
X2361104Y39640288D01*
X2382433Y39668387D01*
X2382434Y39668388D01*
X2387630Y39675234D01*
X2393237Y39689396D01*
X2403303Y39709409D01*
X2406795Y39715041D01*
X2406795Y39715042D01*
X2411323Y39722344D01*
X2423564Y39764476D01*
X2427408Y39775701D01*
X2440393Y39808498D01*
X2440395Y39808505D01*
X2443556Y39816490D01*
X2445148Y39831633D01*
X2449459Y39853606D01*
X2451867Y39861896D01*
X2453709Y39868235D01*
X2454500Y39879007D01*
X2454500Y39914005D01*
X2455190Y39927176D01*
X2458539Y39959037D01*
X2459437Y39967581D01*
X2456263Y39986346D01*
X2454500Y40007348D01*
X2454500Y41919404D01*
X4140729Y41919404D01*
X4146798Y41864435D01*
X4154981Y41790318D01*
X4158113Y41761947D01*
X4160723Y41754816D01*
X4160723Y41754814D01*
X4206633Y41629359D01*
X4212553Y41613181D01*
X4216789Y41606878D01*
X4216789Y41606877D01*
X4271001Y41526202D01*
X4300908Y41481695D01*
X4306527Y41476582D01*
X4306528Y41476581D01*
X4369595Y41419195D01*
X4418076Y41375081D01*
X4557293Y41299492D01*
X4710522Y41259293D01*
X4794477Y41257974D01*
X4861319Y41256924D01*
X4861322Y41256924D01*
X4868916Y41256805D01*
X5023332Y41292171D01*
X5093742Y41327583D01*
X5158072Y41359937D01*
X5158075Y41359939D01*
X5164855Y41363349D01*
X5170626Y41368278D01*
X5170629Y41368280D01*
X5279536Y41461296D01*
X5279536Y41461297D01*
X5285314Y41466231D01*
X5377755Y41594876D01*
X5436842Y41741859D01*
X5443151Y41786193D01*
X5453215Y41856904D01*
X6540729Y41856904D01*
X6547083Y41799354D01*
X6556099Y41717691D01*
X6558113Y41699447D01*
X6560723Y41692316D01*
X6560723Y41692314D01*
X6607409Y41564739D01*
X6612553Y41550681D01*
X6616789Y41544378D01*
X6616789Y41544377D01*
X6683669Y41444850D01*
X6700908Y41419195D01*
X6706527Y41414082D01*
X6706528Y41414081D01*
X6756863Y41368280D01*
X6818076Y41312581D01*
X6957293Y41236992D01*
X7110522Y41196793D01*
X7194477Y41195474D01*
X7261319Y41194424D01*
X7261322Y41194424D01*
X7268916Y41194305D01*
X7423332Y41229671D01*
X7498927Y41267691D01*
X7558072Y41297437D01*
X7558075Y41297439D01*
X7564855Y41300849D01*
X7570626Y41305778D01*
X7570629Y41305780D01*
X7679536Y41398796D01*
X7679536Y41398797D01*
X7685314Y41403731D01*
X7777755Y41532376D01*
X7836842Y41679359D01*
X7843151Y41723693D01*
X7858581Y41832109D01*
X7858581Y41832112D01*
X7859162Y41836193D01*
X7859307Y41850000D01*
X7858472Y41856904D01*
X8940729Y41856904D01*
X8947083Y41799354D01*
X8956099Y41717691D01*
X8958113Y41699447D01*
X8960723Y41692316D01*
X8960723Y41692314D01*
X9007409Y41564739D01*
X9012553Y41550681D01*
X9016789Y41544378D01*
X9016789Y41544377D01*
X9083669Y41444850D01*
X9100908Y41419195D01*
X9106527Y41414082D01*
X9106528Y41414081D01*
X9156863Y41368280D01*
X9218076Y41312581D01*
X9357293Y41236992D01*
X9510522Y41196793D01*
X9594477Y41195474D01*
X9661319Y41194424D01*
X9661322Y41194424D01*
X9668916Y41194305D01*
X9823332Y41229671D01*
X9898927Y41267691D01*
X9958072Y41297437D01*
X9958075Y41297439D01*
X9964855Y41300849D01*
X9970626Y41305778D01*
X9970629Y41305780D01*
X10079536Y41398796D01*
X10079536Y41398797D01*
X10085314Y41403731D01*
X10177755Y41532376D01*
X10236842Y41679359D01*
X10243151Y41723693D01*
X10258581Y41832109D01*
X10258581Y41832112D01*
X10259162Y41836193D01*
X10259307Y41850000D01*
X10240276Y42007267D01*
X10184280Y42155454D01*
X10132859Y42230272D01*
X10098855Y42279749D01*
X10098854Y42279751D01*
X10094553Y42286008D01*
X9976275Y42391389D01*
X9968889Y42395300D01*
X9851517Y42457445D01*
X9836274Y42465516D01*
X9682633Y42504108D01*
X9675034Y42504148D01*
X9675033Y42504148D01*
X9609181Y42504493D01*
X9524221Y42504938D01*
X9516841Y42503166D01*
X9516839Y42503166D01*
X9377563Y42469729D01*
X9377560Y42469728D01*
X9370184Y42467957D01*
X9229414Y42395300D01*
X9110039Y42291162D01*
X9018950Y42161556D01*
X8991954Y42092314D01*
X8969940Y42035851D01*
X8961406Y42013963D01*
X8960414Y42006430D01*
X8960414Y42006429D01*
X8945714Y41894767D01*
X8940729Y41856904D01*
X7858472Y41856904D01*
X7840276Y42007267D01*
X7784280Y42155454D01*
X7732859Y42230272D01*
X7698855Y42279749D01*
X7698854Y42279751D01*
X7694553Y42286008D01*
X7576275Y42391389D01*
X7568889Y42395300D01*
X7451517Y42457445D01*
X7436274Y42465516D01*
X7282633Y42504108D01*
X7275034Y42504148D01*
X7275033Y42504148D01*
X7209181Y42504493D01*
X7124221Y42504938D01*
X7116841Y42503166D01*
X7116839Y42503166D01*
X6977563Y42469729D01*
X6977560Y42469728D01*
X6970184Y42467957D01*
X6829414Y42395300D01*
X6710039Y42291162D01*
X6618950Y42161556D01*
X6591954Y42092314D01*
X6569940Y42035851D01*
X6561406Y42013963D01*
X6560414Y42006430D01*
X6560414Y42006429D01*
X6545714Y41894767D01*
X6540729Y41856904D01*
X5453215Y41856904D01*
X5458581Y41894609D01*
X5458581Y41894612D01*
X5459162Y41898693D01*
X5459307Y41912500D01*
X5440276Y42069767D01*
X5384280Y42217954D01*
X5364899Y42246154D01*
X5298855Y42342249D01*
X5298854Y42342251D01*
X5294553Y42348508D01*
X5176275Y42453889D01*
X5168889Y42457800D01*
X5079936Y42504898D01*
X5036274Y42528016D01*
X4882633Y42566608D01*
X4875034Y42566648D01*
X4875033Y42566648D01*
X4809181Y42566993D01*
X4724221Y42567438D01*
X4716841Y42565666D01*
X4716839Y42565666D01*
X4577563Y42532229D01*
X4577560Y42532228D01*
X4570184Y42530457D01*
X4429414Y42457800D01*
X4310039Y42353662D01*
X4218950Y42224056D01*
X4199242Y42173508D01*
X4169940Y42098351D01*
X4161406Y42076463D01*
X4160414Y42068930D01*
X4160414Y42068929D01*
X4144017Y41944377D01*
X4140729Y41919404D01*
X2454500Y41919404D01*
X2454500Y42263057D01*
X2454499Y42263061D01*
X2454499Y43250066D01*
X2439734Y43324301D01*
X2419534Y43354533D01*
X2390377Y43398168D01*
X2383484Y43408484D01*
X2344835Y43434309D01*
X2309620Y43457839D01*
X2299301Y43464734D01*
X2225067Y43479500D01*
X1900053Y43479500D01*
X1574934Y43479499D01*
X1539182Y43472388D01*
X1512874Y43467156D01*
X1512872Y43467155D01*
X1500699Y43464734D01*
X1490379Y43457839D01*
X1490378Y43457838D01*
X1470002Y43444223D01*
X1402249Y43423008D01*
X1329998Y43444223D01*
X1309621Y43457839D01*
X1309618Y43457840D01*
X1299301Y43464734D01*
X1225067Y43479500D01*
X1218880Y43479500D01*
X882825Y43479499D01*
X580500Y43479499D01*
X512379Y43499501D01*
X465886Y43553157D01*
X454500Y43605499D01*
X454500Y43859618D01*
X470085Y43920318D01*
X473324Y43926209D01*
X477755Y43932376D01*
X536842Y44079359D01*
X559162Y44236193D01*
X559307Y44250000D01*
X540276Y44407267D01*
X484280Y44555454D01*
X475814Y44567772D01*
X398855Y44679749D01*
X398854Y44679751D01*
X394553Y44686008D01*
X276275Y44791389D01*
X268889Y44795300D01*
X142988Y44861961D01*
X142989Y44861961D01*
X136274Y44865516D01*
X-17367Y44904108D01*
X-24966Y44904148D01*
X-24967Y44904148D01*
X-90819Y44904493D01*
X-175779Y44904938D01*
X-183159Y44903166D01*
X-183161Y44903166D01*
X-322437Y44869729D01*
X-322440Y44869728D01*
X-329816Y44867957D01*
X-470586Y44795300D01*
X-589961Y44691162D01*
X-681050Y44561556D01*
X-738594Y44413963D01*
X-739586Y44406430D01*
X-739586Y44406429D01*
X-744184Y44371500D01*
X-759271Y44256904D01*
X-741887Y44099447D01*
X-739277Y44092316D01*
X-739277Y44092314D01*
X-737290Y44086885D01*
X-687447Y43950681D01*
X-675918Y43933525D01*
X-654500Y43863250D01*
X-654500Y42186943D01*
X-654499Y42186939D01*
X-654499Y41199934D01*
X-647388Y41164182D01*
X-643458Y41144424D01*
X-639734Y41125699D01*
X-583484Y41041516D01*
X-499301Y40985266D01*
X-425067Y40970500D01*
X-418880Y40970500D01*
X-82825Y40970501D01*
X219500Y40970501D01*
X287621Y40950499D01*
X334114Y40896843D01*
X345500Y40844501D01*
X345500Y40431872D01*
X325498Y40363751D01*
X308595Y40342777D01*
X-3092776Y36941405D01*
X-3155088Y36907379D01*
X-3181871Y36904500D01*
X-10484902Y36904500D01*
X-10490178Y36904610D01*
X-10552674Y36907229D01*
X-10561036Y36905268D01*
X-10561043Y36905267D01*
X-10595387Y36897211D01*
X-10607040Y36895050D01*
X-10650518Y36889095D01*
X-10658405Y36885682D01*
X-10658408Y36885681D01*
X-10664495Y36883047D01*
X-10685758Y36876014D01*
X-10700583Y36872537D01*
X-10739037Y36851397D01*
X-10749683Y36846182D01*
X-10782063Y36832170D01*
X-10782067Y36832168D01*
X-10789946Y36828758D01*
X-10796619Y36823354D01*
X-10796621Y36823353D01*
X-10801775Y36819179D01*
X-10820363Y36806688D01*
X-10833715Y36799348D01*
X-10841891Y36792291D01*
X-10866639Y36767543D01*
X-10876440Y36758717D01*
X-10901339Y36738555D01*
X-10901341Y36738553D01*
X-10908013Y36733150D01*
X-10912987Y36726151D01*
X-10912988Y36726150D01*
X-10919034Y36717642D01*
X-10932645Y36701537D01*
X-19481414Y28152767D01*
X-19485222Y28149114D01*
X-19531266Y28106774D01*
X-19532756Y28108394D01*
X-19581745Y28075303D01*
X-19652723Y28073678D01*
X-19713312Y28110685D01*
X-19744275Y28174574D01*
X-19746000Y28195355D01*
X-19746000Y45213122D01*
X-18489302Y45213122D01*
X-18489152Y45209941D01*
X-18472860Y44864476D01*
X-18471383Y44833154D01*
X-18415158Y44456942D01*
X-18414372Y44453860D01*
X-18414372Y44453858D01*
X-18363456Y44254108D01*
X-18321202Y44088337D01*
X-18190477Y43731115D01*
X-18024322Y43388931D01*
X-18022650Y43386224D01*
X-18022649Y43386222D01*
X-17934736Y43243880D01*
X-17824437Y43065291D01*
X-17822505Y43062773D01*
X-17822498Y43062763D01*
X-17610403Y42786356D01*
X-17592870Y42763507D01*
X-17331991Y42486669D01*
X-17248057Y42413963D01*
X-17046882Y42239698D01*
X-17046875Y42239692D01*
X-17044472Y42237611D01*
X-16733255Y42018885D01*
X-16730493Y42017335D01*
X-16730485Y42017330D01*
X-16407703Y41836193D01*
X-16401528Y41832728D01*
X-16398614Y41831461D01*
X-16398610Y41831459D01*
X-16294505Y41786193D01*
X-16052687Y41681048D01*
X-15931317Y41642314D01*
X-15693348Y41566368D01*
X-15693340Y41566366D01*
X-15690304Y41565397D01*
X-15504310Y41526202D01*
X-15321207Y41487616D01*
X-15321202Y41487615D01*
X-15318088Y41486959D01*
X-14939851Y41446537D01*
X-14936663Y41446520D01*
X-14936658Y41446520D01*
X-14764224Y41445617D01*
X-14559466Y41444545D01*
X-14415858Y41458373D01*
X-14183991Y41480699D01*
X-14183986Y41480700D01*
X-14180826Y41481004D01*
X-14177707Y41481627D01*
X-14177702Y41481628D01*
X-13993972Y41518341D01*
X-13807810Y41555540D01*
X-13477797Y41657065D01*
X-13447277Y41666454D01*
X-13447274Y41666455D01*
X-13444235Y41667390D01*
X-13441307Y41668627D01*
X-13441301Y41668629D01*
X-13244089Y41751935D01*
X-13113959Y41806904D01*
X-10859271Y41806904D01*
X-10852371Y41744404D01*
X-10842728Y41657065D01*
X-10841887Y41649447D01*
X-10839277Y41642316D01*
X-10839277Y41642314D01*
X-10796786Y41526202D01*
X-10787447Y41500681D01*
X-10783211Y41494378D01*
X-10783211Y41494377D01*
X-10728999Y41413702D01*
X-10699092Y41369195D01*
X-10693473Y41364082D01*
X-10693472Y41364081D01*
X-10607987Y41286296D01*
X-10581924Y41262581D01*
X-10442707Y41186992D01*
X-10289478Y41146793D01*
X-10205523Y41145474D01*
X-10138681Y41144424D01*
X-10138678Y41144424D01*
X-10131084Y41144305D01*
X-9976668Y41179671D01*
X-9866526Y41235066D01*
X-9841928Y41247437D01*
X-9841925Y41247439D01*
X-9835145Y41250849D01*
X-9829374Y41255778D01*
X-9829371Y41255780D01*
X-9720464Y41348796D01*
X-9720464Y41348797D01*
X-9714686Y41353731D01*
X-9622245Y41482376D01*
X-9563158Y41629359D01*
X-9546785Y41744404D01*
X-8659271Y41744404D01*
X-8652417Y41682321D01*
X-8642762Y41594876D01*
X-8641887Y41586947D01*
X-8639277Y41579816D01*
X-8639277Y41579814D01*
X-8601499Y41476581D01*
X-8587447Y41438181D01*
X-8583211Y41431878D01*
X-8583211Y41431877D01*
X-8540475Y41368280D01*
X-8499092Y41306695D01*
X-8493473Y41301582D01*
X-8493472Y41301581D01*
X-8388563Y41206122D01*
X-8381924Y41200081D01*
X-8242707Y41124492D01*
X-8089478Y41084293D01*
X-8005523Y41082974D01*
X-7938681Y41081924D01*
X-7938678Y41081924D01*
X-7931084Y41081805D01*
X-7776668Y41117171D01*
X-7706258Y41152583D01*
X-7641928Y41184937D01*
X-7641925Y41184939D01*
X-7635145Y41188349D01*
X-7629374Y41193278D01*
X-7629371Y41193280D01*
X-7520464Y41286296D01*
X-7520464Y41286297D01*
X-7514686Y41291231D01*
X-7422245Y41419876D01*
X-7363158Y41566859D01*
X-7352661Y41640615D01*
X-7341419Y41719609D01*
X-7341419Y41719612D01*
X-7340838Y41723693D01*
X-7340693Y41737500D01*
X-7349092Y41806904D01*
X-6459271Y41806904D01*
X-6452371Y41744404D01*
X-6442728Y41657065D01*
X-6441887Y41649447D01*
X-6439277Y41642316D01*
X-6439277Y41642314D01*
X-6396786Y41526202D01*
X-6387447Y41500681D01*
X-6383211Y41494378D01*
X-6383211Y41494377D01*
X-6328999Y41413702D01*
X-6299092Y41369195D01*
X-6293473Y41364082D01*
X-6293472Y41364081D01*
X-6207987Y41286296D01*
X-6181924Y41262581D01*
X-6042707Y41186992D01*
X-5889478Y41146793D01*
X-5805523Y41145474D01*
X-5738681Y41144424D01*
X-5738678Y41144424D01*
X-5731084Y41144305D01*
X-5576668Y41179671D01*
X-5466526Y41235066D01*
X-5441928Y41247437D01*
X-5441925Y41247439D01*
X-5435145Y41250849D01*
X-5429374Y41255778D01*
X-5429371Y41255780D01*
X-5320464Y41348796D01*
X-5320464Y41348797D01*
X-5314686Y41353731D01*
X-5222245Y41482376D01*
X-5163158Y41629359D01*
X-5145304Y41754814D01*
X-5141419Y41782109D01*
X-5141419Y41782112D01*
X-5140838Y41786193D01*
X-5140693Y41800000D01*
X-5159724Y41957267D01*
X-5215720Y42105454D01*
X-5258550Y42167772D01*
X-5301145Y42229749D01*
X-5301146Y42229751D01*
X-5305447Y42236008D01*
X-5328900Y42256904D01*
X-3859271Y42256904D01*
X-3851546Y42186935D01*
X-3843241Y42111712D01*
X-3841887Y42099447D01*
X-3839277Y42092316D01*
X-3839277Y42092314D01*
X-3792307Y41963963D01*
X-3787447Y41950681D01*
X-3783211Y41944378D01*
X-3783211Y41944377D01*
X-3724431Y41856904D01*
X-3699092Y41819195D01*
X-3693473Y41814082D01*
X-3693472Y41814081D01*
X-3594136Y41723693D01*
X-3581924Y41712581D01*
X-3442707Y41636992D01*
X-3289478Y41596793D01*
X-3205523Y41595474D01*
X-3138681Y41594424D01*
X-3138678Y41594424D01*
X-3131084Y41594305D01*
X-2976668Y41629671D01*
X-2922200Y41657065D01*
X-2865587Y41670500D01*
X-2780499Y41670500D01*
X-2712378Y41650498D01*
X-2665885Y41596842D01*
X-2654499Y41544500D01*
X-2654499Y41199934D01*
X-2647388Y41164182D01*
X-2643458Y41144424D01*
X-2639734Y41125699D01*
X-2583484Y41041516D01*
X-2499301Y40985266D01*
X-2425067Y40970500D01*
X-2100053Y40970500D01*
X-1774934Y40970501D01*
X-1739182Y40977612D01*
X-1712874Y40982844D01*
X-1712872Y40982845D01*
X-1700699Y40985266D01*
X-1690379Y40992161D01*
X-1690378Y40992162D01*
X-1626832Y41034623D01*
X-1616516Y41041516D01*
X-1560266Y41125699D01*
X-1545500Y41199933D01*
X-1545500Y42199562D01*
X-1545162Y42208789D01*
X-1543241Y42234948D01*
X-1541391Y42260145D01*
X-1543088Y42268563D01*
X-1543153Y42269588D01*
X-1545501Y42293106D01*
X-1545501Y43250066D01*
X-1560266Y43324301D01*
X-1580466Y43354533D01*
X-1609623Y43398168D01*
X-1616516Y43408484D01*
X-1655165Y43434309D01*
X-1690380Y43457839D01*
X-1700699Y43464734D01*
X-1774933Y43479500D01*
X-2099947Y43479500D01*
X-2425066Y43479499D01*
X-2460818Y43472388D01*
X-2487126Y43467156D01*
X-2487128Y43467155D01*
X-2499301Y43464734D01*
X-2509621Y43457839D01*
X-2509622Y43457838D01*
X-2545501Y43433864D01*
X-2583484Y43408484D01*
X-2639734Y43324301D01*
X-2654500Y43250067D01*
X-2654500Y42911074D01*
X-2674502Y42842953D01*
X-2728158Y42796460D01*
X-2798432Y42786356D01*
X-2839459Y42799720D01*
X-2957011Y42861961D01*
X-2957014Y42861962D01*
X-2963726Y42865516D01*
X-3117367Y42904108D01*
X-3124966Y42904148D01*
X-3124967Y42904148D01*
X-3190819Y42904493D01*
X-3275779Y42904938D01*
X-3283159Y42903166D01*
X-3283161Y42903166D01*
X-3422437Y42869729D01*
X-3422440Y42869728D01*
X-3429816Y42867957D01*
X-3570586Y42795300D01*
X-3689961Y42691162D01*
X-3781050Y42561556D01*
X-3794532Y42526976D01*
X-3823309Y42453166D01*
X-3838594Y42413963D01*
X-3839586Y42406430D01*
X-3839586Y42406429D01*
X-3857601Y42269588D01*
X-3859271Y42256904D01*
X-5328900Y42256904D01*
X-5423725Y42341389D01*
X-5431111Y42345300D01*
X-5520064Y42392398D01*
X-5563726Y42415516D01*
X-5717367Y42454108D01*
X-5724966Y42454148D01*
X-5724967Y42454148D01*
X-5790819Y42454493D01*
X-5875779Y42454938D01*
X-5883159Y42453166D01*
X-5883161Y42453166D01*
X-6022437Y42419729D01*
X-6022440Y42419728D01*
X-6029816Y42417957D01*
X-6170586Y42345300D01*
X-6289961Y42241162D01*
X-6381050Y42111556D01*
X-6402994Y42055272D01*
X-6416339Y42021043D01*
X-6438594Y41963963D01*
X-6439586Y41956430D01*
X-6439586Y41956429D01*
X-6458151Y41815409D01*
X-6459271Y41806904D01*
X-7349092Y41806904D01*
X-7359724Y41894767D01*
X-7415720Y42042954D01*
X-7488157Y42148351D01*
X-7501145Y42167249D01*
X-7501146Y42167251D01*
X-7505447Y42173508D01*
X-7623725Y42278889D01*
X-7631111Y42282800D01*
X-7757012Y42349461D01*
X-7757011Y42349461D01*
X-7763726Y42353016D01*
X-7917367Y42391608D01*
X-7924966Y42391648D01*
X-7924967Y42391648D01*
X-7990819Y42391993D01*
X-8075779Y42392438D01*
X-8083159Y42390666D01*
X-8083161Y42390666D01*
X-8222437Y42357229D01*
X-8222440Y42357228D01*
X-8229816Y42355457D01*
X-8370586Y42282800D01*
X-8489961Y42178662D01*
X-8581050Y42049056D01*
X-8609822Y41975259D01*
X-8632689Y41916608D01*
X-8638594Y41901463D01*
X-8639586Y41893930D01*
X-8639586Y41893929D01*
X-8656961Y41761947D01*
X-8659271Y41744404D01*
X-9546785Y41744404D01*
X-9545304Y41754814D01*
X-9541419Y41782109D01*
X-9541419Y41782112D01*
X-9540838Y41786193D01*
X-9540693Y41800000D01*
X-9559724Y41957267D01*
X-9615720Y42105454D01*
X-9658550Y42167772D01*
X-9701145Y42229749D01*
X-9701146Y42229751D01*
X-9705447Y42236008D01*
X-9823725Y42341389D01*
X-9831111Y42345300D01*
X-9920064Y42392398D01*
X-9963726Y42415516D01*
X-10117367Y42454108D01*
X-10124966Y42454148D01*
X-10124967Y42454148D01*
X-10190819Y42454493D01*
X-10275779Y42454938D01*
X-10283159Y42453166D01*
X-10283161Y42453166D01*
X-10422437Y42419729D01*
X-10422440Y42419728D01*
X-10429816Y42417957D01*
X-10570586Y42345300D01*
X-10689961Y42241162D01*
X-10781050Y42111556D01*
X-10802994Y42055272D01*
X-10816339Y42021043D01*
X-10838594Y41963963D01*
X-10839586Y41956430D01*
X-10839586Y41956429D01*
X-10858151Y41815409D01*
X-10859271Y41806904D01*
X-13113959Y41806904D01*
X-13093825Y41815409D01*
X-13091022Y41816943D01*
X-13091017Y41816946D01*
X-12848489Y41949727D01*
X-12760167Y41998082D01*
X-12446677Y42213537D01*
X-12388280Y42263061D01*
X-12158995Y42457509D01*
X-12158993Y42457511D01*
X-12156565Y42459570D01*
X-12154360Y42461862D01*
X-12154354Y42461867D01*
X-11895016Y42731359D01*
X-11895014Y42731362D01*
X-11892801Y42733661D01*
X-11658087Y43033004D01*
X-11524776Y43243880D01*
X-11456526Y43351840D01*
X-11456522Y43351847D01*
X-11454824Y43354533D01*
X-11453407Y43357376D01*
X-11453402Y43357384D01*
X-11286515Y43692110D01*
X-11285095Y43694958D01*
X-11150636Y44050792D01*
X-11139824Y44091424D01*
X-11062263Y44382921D01*
X-11052825Y44418392D01*
X-11045129Y44466435D01*
X-11003574Y44725878D01*
X-10992663Y44793995D01*
X-10988432Y44867366D01*
X-10970865Y45172060D01*
X-10970767Y45173755D01*
X-10970675Y45200000D01*
X-10970760Y45201683D01*
X-10973208Y45250000D01*
X-4233339Y45250000D01*
X-4232649Y45243435D01*
X-4225325Y45173755D01*
X-4214036Y45066343D01*
X-4156970Y44890714D01*
X-4064636Y44730786D01*
X-4060218Y44725879D01*
X-4060217Y44725878D01*
X-4028866Y44691059D01*
X-3941069Y44593551D01*
X-3935727Y44589670D01*
X-3935725Y44589668D01*
X-3887287Y44554476D01*
X-3791670Y44485006D01*
X-3785642Y44482322D01*
X-3785640Y44482321D01*
X-3649127Y44421542D01*
X-3622967Y44409895D01*
X-3532651Y44390698D01*
X-3448791Y44372872D01*
X-3448786Y44372872D01*
X-3442334Y44371500D01*
X-3257666Y44371500D01*
X-3251214Y44372872D01*
X-3251209Y44372872D01*
X-3167349Y44390698D01*
X-3077033Y44409895D01*
X-3050873Y44421542D01*
X-2914360Y44482321D01*
X-2914358Y44482322D01*
X-2908330Y44485006D01*
X-2812713Y44554476D01*
X-2764275Y44589668D01*
X-2764273Y44589670D01*
X-2758931Y44593551D01*
X-2671134Y44691059D01*
X-2639783Y44725878D01*
X-2639782Y44725879D01*
X-2635364Y44730786D01*
X-2543030Y44890714D01*
X-2485964Y45066343D01*
X-2474674Y45173755D01*
X-2467351Y45243435D01*
X-2466661Y45250000D01*
X2266661Y45250000D01*
X2267351Y45243435D01*
X2274675Y45173755D01*
X2285964Y45066343D01*
X2343030Y44890714D01*
X2435364Y44730786D01*
X2439782Y44725879D01*
X2439783Y44725878D01*
X2471134Y44691059D01*
X2558931Y44593551D01*
X2564273Y44589670D01*
X2564275Y44589668D01*
X2612713Y44554476D01*
X2708330Y44485006D01*
X2714358Y44482322D01*
X2714360Y44482321D01*
X2850873Y44421542D01*
X2877033Y44409895D01*
X2967349Y44390698D01*
X3051209Y44372872D01*
X3051214Y44372872D01*
X3057666Y44371500D01*
X3242334Y44371500D01*
X3248786Y44372872D01*
X3248791Y44372872D01*
X3332651Y44390698D01*
X3422967Y44409895D01*
X3449127Y44421542D01*
X3585640Y44482321D01*
X3585642Y44482322D01*
X3591670Y44485006D01*
X3687287Y44554476D01*
X3735725Y44589668D01*
X3735727Y44589670D01*
X3741069Y44593551D01*
X3828866Y44691059D01*
X3860217Y44725878D01*
X3860218Y44725879D01*
X3864636Y44730786D01*
X3956970Y44890714D01*
X4014036Y45066343D01*
X4025326Y45173755D01*
X4032649Y45243435D01*
X4033339Y45250000D01*
X4014036Y45433657D01*
X3962276Y45592956D01*
X3959011Y45603005D01*
X3959010Y45603006D01*
X3956970Y45609286D01*
X3864636Y45769214D01*
X3741069Y45906449D01*
X3707328Y45930964D01*
X3597012Y46011113D01*
X3597011Y46011114D01*
X3591670Y46014994D01*
X3585642Y46017678D01*
X3585640Y46017679D01*
X3428998Y46087420D01*
X3428997Y46087420D01*
X3422967Y46090105D01*
X3332650Y46109303D01*
X3248791Y46127128D01*
X3248786Y46127128D01*
X3242334Y46128500D01*
X3057666Y46128500D01*
X3051214Y46127128D01*
X3051209Y46127128D01*
X2967350Y46109303D01*
X2877033Y46090105D01*
X2871003Y46087420D01*
X2871002Y46087420D01*
X2714361Y46017679D01*
X2714359Y46017678D01*
X2708331Y46014994D01*
X2702990Y46011114D01*
X2702989Y46011113D01*
X2564275Y45910332D01*
X2564273Y45910330D01*
X2558931Y45906449D01*
X2435364Y45769214D01*
X2343030Y45609286D01*
X2340990Y45603006D01*
X2340989Y45603005D01*
X2337724Y45592956D01*
X2285964Y45433657D01*
X2266661Y45250000D01*
X-2466661Y45250000D01*
X-2485964Y45433657D01*
X-2537724Y45592956D01*
X-2540989Y45603005D01*
X-2540990Y45603006D01*
X-2543030Y45609286D01*
X-2635364Y45769214D01*
X-2758931Y45906449D01*
X-2792672Y45930964D01*
X-2902988Y46011113D01*
X-2902989Y46011114D01*
X-2908330Y46014994D01*
X-2914358Y46017678D01*
X-2914360Y46017679D01*
X-3071002Y46087420D01*
X-3071003Y46087420D01*
X-3077033Y46090105D01*
X-3167350Y46109303D01*
X-3251209Y46127128D01*
X-3251214Y46127128D01*
X-3257666Y46128500D01*
X-3442334Y46128500D01*
X-3448786Y46127128D01*
X-3448791Y46127128D01*
X-3532650Y46109303D01*
X-3622967Y46090105D01*
X-3628997Y46087420D01*
X-3628998Y46087420D01*
X-3785639Y46017679D01*
X-3785641Y46017678D01*
X-3791669Y46014994D01*
X-3797010Y46011114D01*
X-3797011Y46011113D01*
X-3935725Y45910332D01*
X-3935727Y45910330D01*
X-3941069Y45906449D01*
X-4064636Y45769214D01*
X-4156970Y45609286D01*
X-4159010Y45603006D01*
X-4159011Y45603005D01*
X-4162276Y45592956D01*
X-4214036Y45433657D01*
X-4233339Y45250000D01*
X-10973208Y45250000D01*
X-10989759Y45576730D01*
X-10989760Y45576735D01*
X-10989920Y45579903D01*
X-11039888Y45906449D01*
X-11046974Y45952757D01*
X-11046976Y45952766D01*
X-11047458Y45955917D01*
X-11092091Y46128500D01*
X-11141903Y46321112D01*
X-11141906Y46321120D01*
X-11142700Y46324192D01*
X-11143805Y46327180D01*
X-11273567Y46677970D01*
X-11273570Y46677977D01*
X-11274672Y46680956D01*
X-11326566Y46786885D01*
X-11440619Y47019698D01*
X-11440622Y47019704D01*
X-11442020Y47022557D01*
X-11643033Y47345498D01*
X-11875652Y47646472D01*
X-12039386Y47819011D01*
X-5549968Y47819011D01*
X-5548196Y47811632D01*
X-5548196Y47811628D01*
X-5512218Y47661768D01*
X-5510445Y47654383D01*
X-5432792Y47503935D01*
X-5321495Y47376352D01*
X-5292907Y47356260D01*
X-5189194Y47283369D01*
X-5189192Y47283368D01*
X-5182977Y47279000D01*
X-5104367Y47248351D01*
X-5032316Y47220259D01*
X-5032313Y47220258D01*
X-5025236Y47217499D01*
X-5017703Y47216507D01*
X-5017702Y47216507D01*
X-4900198Y47201038D01*
X-4896111Y47200500D01*
X-4807542Y47200500D01*
X-4681920Y47215702D01*
X-4523544Y47275547D01*
X-4488935Y47299333D01*
X-4390274Y47367141D01*
X-4390272Y47367142D01*
X-4384015Y47371443D01*
X-4374540Y47382077D01*
X-4276440Y47492182D01*
X-4276438Y47492185D01*
X-4271387Y47497854D01*
X-4192164Y47647480D01*
X-4150918Y47811685D01*
X-4150032Y47980989D01*
X-4153559Y47995684D01*
X-4187782Y48138232D01*
X-4189555Y48145617D01*
X-4267208Y48296065D01*
X-4378505Y48423648D01*
X-4517023Y48521000D01*
X-4646640Y48571536D01*
X-4667684Y48579741D01*
X-4667687Y48579742D01*
X-4674764Y48582501D01*
X-4682297Y48583493D01*
X-4682298Y48583493D01*
X-4799802Y48598962D01*
X-4799803Y48598962D01*
X-4803889Y48599500D01*
X-4892458Y48599500D01*
X-5018080Y48584298D01*
X-5176456Y48524453D01*
X-5315985Y48428557D01*
X-5321036Y48422887D01*
X-5321038Y48422886D01*
X-5423560Y48307818D01*
X-5423562Y48307815D01*
X-5428613Y48302146D01*
X-5432168Y48295433D01*
X-5432168Y48295432D01*
X-5495563Y48175699D01*
X-5507836Y48152520D01*
X-5549082Y47988315D01*
X-5549122Y47980717D01*
X-5549122Y47980715D01*
X-5549299Y47946843D01*
X-5549968Y47819011D01*
X-12039386Y47819011D01*
X-12111023Y47894500D01*
X-12135297Y47920080D01*
X-12135300Y47920082D01*
X-12137496Y47922397D01*
X-12251552Y48020501D01*
X-12423468Y48168372D01*
X-12423471Y48168374D01*
X-12425883Y48170449D01*
X-12737861Y48388088D01*
X-13070236Y48573086D01*
X-13073156Y48574344D01*
X-13073161Y48574346D01*
X-13416670Y48722285D01*
X-13416680Y48722289D01*
X-13419604Y48723548D01*
X-13782389Y48837933D01*
X-14047557Y48892847D01*
X-14151752Y48914425D01*
X-14151755Y48914425D01*
X-14154877Y48915072D01*
X-14499460Y48950681D01*
X-14530096Y48953847D01*
X-14530099Y48953847D01*
X-14533252Y48954173D01*
X-14536419Y48954179D01*
X-14536428Y48954179D01*
X-14723805Y48954506D01*
X-14913642Y48954837D01*
X-15101100Y48936126D01*
X-15288968Y48917375D01*
X-15288972Y48917374D01*
X-15292152Y48917057D01*
X-15295292Y48916418D01*
X-15295293Y48916418D01*
X-15661772Y48841857D01*
X-15661779Y48841855D01*
X-15664906Y48841219D01*
X-16028088Y48728100D01*
X-16099979Y48697436D01*
X-16375050Y48580109D01*
X-16375054Y48580107D01*
X-16377980Y48578859D01*
X-16380759Y48577325D01*
X-16380765Y48577322D01*
X-16490704Y48516632D01*
X-16710998Y48395023D01*
X-16713619Y48393208D01*
X-16713624Y48393205D01*
X-17010159Y48187874D01*
X-17023734Y48178474D01*
X-17312985Y47931430D01*
X-17315182Y47929131D01*
X-17315183Y47929130D01*
X-17573585Y47658728D01*
X-17573590Y47658722D01*
X-17575790Y47656420D01*
X-17809459Y47356260D01*
X-18011598Y47034023D01*
X-18180138Y46693008D01*
X-18181252Y46690027D01*
X-18181253Y46690026D01*
X-18205116Y46626202D01*
X-18313354Y46336707D01*
X-18409881Y45968767D01*
X-18410374Y45965618D01*
X-18410376Y45965609D01*
X-18441130Y45769214D01*
X-18468731Y45592956D01*
X-18468902Y45589790D01*
X-18468903Y45589785D01*
X-18469438Y45579903D01*
X-18489302Y45213122D01*
X-19746000Y45213122D01*
X-19746000Y49256904D01*
X-4059271Y49256904D01*
X-4041887Y49099447D01*
X-4039277Y49092316D01*
X-4039277Y49092314D01*
X-4024216Y49051159D01*
X-3987447Y48950681D01*
X-3983211Y48944378D01*
X-3983211Y48944377D01*
X-3911683Y48837933D01*
X-3899092Y48819195D01*
X-3893473Y48814082D01*
X-3893472Y48814081D01*
X-3800020Y48729047D01*
X-3781924Y48712581D01*
X-3642707Y48636992D01*
X-3489478Y48596793D01*
X-3405523Y48595474D01*
X-3338681Y48594424D01*
X-3338678Y48594424D01*
X-3331084Y48594305D01*
X-3176668Y48629671D01*
X-3100202Y48668129D01*
X-3041930Y48697436D01*
X-3041927Y48697438D01*
X-3036471Y48700182D01*
X-3036468Y48700183D01*
X-3035145Y48700849D01*
X-3035029Y48700618D01*
X-2969175Y48720500D01*
X-2780499Y48720500D01*
X-2712378Y48700498D01*
X-2665885Y48646842D01*
X-2654499Y48594500D01*
X-2654499Y48249934D01*
X-2639734Y48175699D01*
X-2583484Y48091516D01*
X-2499301Y48035266D01*
X-2425067Y48020500D01*
X-2100053Y48020500D01*
X-1774934Y48020501D01*
X-1739182Y48027612D01*
X-1712874Y48032844D01*
X-1712872Y48032845D01*
X-1700699Y48035266D01*
X-1690379Y48042161D01*
X-1690378Y48042162D01*
X-1626832Y48084623D01*
X-1616516Y48091516D01*
X-1560266Y48175699D01*
X-1545500Y48249933D01*
X-1545500Y49249562D01*
X-1545162Y49258789D01*
X-1543332Y49283715D01*
X-1541391Y49310145D01*
X-1543088Y49318563D01*
X-1543153Y49319588D01*
X-1545501Y49343106D01*
X-1545501Y50300066D01*
X-1552612Y50335818D01*
X-1557844Y50362126D01*
X-1557845Y50362128D01*
X-1560266Y50374301D01*
X-1616516Y50458484D01*
X-1700699Y50514734D01*
X-1774933Y50529500D01*
X-2099947Y50529500D01*
X-2425066Y50529499D01*
X-2460818Y50522388D01*
X-2487126Y50517156D01*
X-2487128Y50517155D01*
X-2499301Y50514734D01*
X-2509621Y50507839D01*
X-2509622Y50507838D01*
X-2558295Y50475315D01*
X-2583484Y50458484D01*
X-2639734Y50374301D01*
X-2654500Y50300067D01*
X-2654500Y49955500D01*
X-2674502Y49887379D01*
X-2728158Y49840886D01*
X-2780500Y49829500D01*
X-3064406Y49829500D01*
X-3123362Y49844144D01*
X-3163726Y49865516D01*
X-3317367Y49904108D01*
X-3324966Y49904148D01*
X-3324967Y49904148D01*
X-3390819Y49904493D01*
X-3475779Y49904938D01*
X-3483159Y49903166D01*
X-3483161Y49903166D01*
X-3622437Y49869729D01*
X-3622440Y49869728D01*
X-3629816Y49867957D01*
X-3770586Y49795300D01*
X-3889961Y49691162D01*
X-3981050Y49561556D01*
X-3983810Y49554476D01*
X-4034583Y49424250D01*
X-4038594Y49413963D01*
X-4039586Y49406430D01*
X-4039586Y49406429D01*
X-4055741Y49283715D01*
X-4059271Y49256904D01*
X-19746000Y49256904D01*
X-19746000Y49712575D01*
X-19743579Y49737156D01*
X-19743445Y49737830D01*
X-19741024Y49750000D01*
X-19743445Y49762171D01*
X-19743445Y49774581D01*
X-19742802Y49774581D01*
X-19743473Y49785326D01*
X-19728871Y49989491D01*
X-19726313Y50007285D01*
X-19677190Y50233101D01*
X-19672125Y50250350D01*
X-19617987Y50395500D01*
X-19591365Y50466877D01*
X-19583898Y50483226D01*
X-19473148Y50686049D01*
X-19463429Y50701173D01*
X-19324937Y50886176D01*
X-19313164Y50899762D01*
X-19149762Y51063164D01*
X-19136176Y51074937D01*
X-18951173Y51213429D01*
X-18936049Y51223148D01*
X-18733226Y51333898D01*
X-18716877Y51341365D01*
X-18561418Y51399348D01*
X-18500350Y51422125D01*
X-18483101Y51427190D01*
X-18257285Y51476313D01*
X-18239491Y51478871D01*
X-18035326Y51493473D01*
X-18024581Y51492802D01*
X-18024581Y51493445D01*
X-18012171Y51493445D01*
X-18000000Y51491024D01*
X-17987153Y51493579D01*
X-17962575Y51496000D01*
X957629Y51496000D01*
X1025750Y51475998D01*
G37*
G04 #@! TD.AperFunction*
G04 #@! TD*
M02*
