%FSLAX45Y45*%
G04 Gerber Fmt 4.5, Leading zero omitted, Abs format (unit mm)*
G04 Created by KiCad (PCBNEW (6.0.2)) date 2022-09-07 09:28:02*
%MOMM*%
%LPD*%
G01*
G04 APERTURE LIST*
%TA.AperFunction,Profile*%
%ADD10C,0.100000*%
%TD*%
%TA.AperFunction,Profile*%
%ADD11C,0.200000*%
%TD*%
%ADD12C,0.200000*%
%ADD13C,0.040000*%
%ADD14C,0.050000*%
%ADD15C,0.074000*%
%ADD16C,0.350000*%
G04 APERTURE END LIST*
D10*
X-2000000Y4975000D02*
X-2000000Y1375000D01*
D11*
X1000000Y2343017D02*
G75*
G03*
X1000000Y2343017I-1000000J0D01*
G01*
D10*
X-1800000Y5175000D02*
G75*
G03*
X-2000000Y4975000I0J-200000D01*
G01*
X1800000Y1175000D02*
G75*
G03*
X2000000Y1375000I0J200000D01*
G01*
X-2000000Y1375000D02*
G75*
G03*
X-1800000Y1175000I200000J0D01*
G01*
X-1800000Y1175000D02*
X1800000Y1175000D01*
X2000000Y1375000D02*
X2000000Y4975000D01*
X1800000Y5175000D02*
X-1800000Y5175000D01*
X2000000Y4975000D02*
G75*
G03*
X1800000Y5175000I-200000J0D01*
G01*
D12*
D13*
X-1680000Y3785000D02*
X-1640000Y3745000D01*
X-1640000Y3785000D02*
X-1680000Y3745000D01*
X-1230000Y2725000D02*
X-1190000Y2685000D01*
X-1190000Y2725000D02*
X-1230000Y2685000D01*
X-1120000Y1405000D02*
X-1080000Y1365000D01*
X-1080000Y1405000D02*
X-1120000Y1365000D01*
X-1040000Y4200000D02*
X-1000000Y4160000D01*
X-1000000Y4200000D02*
X-1040000Y4160000D01*
X-882500Y4740000D02*
X-842500Y4700000D01*
X-842500Y4740000D02*
X-882500Y4700000D01*
X-820000Y4193750D02*
X-780000Y4153750D01*
X-780000Y4193750D02*
X-820000Y4153750D01*
X-672500Y4733750D02*
X-632500Y4693750D01*
X-632500Y4733750D02*
X-672500Y4693750D01*
X-600000Y4200000D02*
X-560000Y4160000D01*
X-560000Y4200000D02*
X-600000Y4160000D01*
X-500000Y3535000D02*
X-460000Y3495000D01*
X-460000Y3535000D02*
X-500000Y3495000D01*
X-360000Y4945000D02*
X-320000Y4905000D01*
X-320000Y4945000D02*
X-360000Y4905000D01*
X-340000Y4245000D02*
X-300000Y4205000D01*
X-300000Y4245000D02*
X-340000Y4205000D01*
X-30000Y4715000D02*
X10000Y4675000D01*
X10000Y4715000D02*
X-30000Y4675000D01*
X-30000Y4445000D02*
X10000Y4405000D01*
X10000Y4445000D02*
X-30000Y4405000D01*
X-30000Y3505000D02*
X10000Y3465000D01*
X10000Y3505000D02*
X-30000Y3465000D01*
X60000Y3605000D02*
X100000Y3565000D01*
X100000Y3605000D02*
X60000Y3565000D01*
X170000Y4715000D02*
X210000Y4675000D01*
X210000Y4715000D02*
X170000Y4675000D01*
X170000Y3885000D02*
X210000Y3845000D01*
X210000Y3885000D02*
X170000Y3845000D01*
X460000Y4211250D02*
X500000Y4171250D01*
X500000Y4211250D02*
X460000Y4171250D01*
X700000Y4205000D02*
X740000Y4165000D01*
X740000Y4205000D02*
X700000Y4165000D01*
X770000Y3325000D02*
X810000Y3285000D01*
X810000Y3325000D02*
X770000Y3285000D01*
X940000Y4205000D02*
X980000Y4165000D01*
X980000Y4205000D02*
X940000Y4165000D01*
X1130000Y1455000D02*
X1170000Y1415000D01*
X1170000Y1455000D02*
X1130000Y1415000D01*
X1440000Y2475000D02*
X1480000Y2435000D01*
X1480000Y2475000D02*
X1440000Y2435000D01*
X1660000Y3785000D02*
X1700000Y3745000D01*
X1700000Y3785000D02*
X1660000Y3745000D01*
D14*
X-1710500Y4520000D02*
G75*
G03*
X-1710500Y4520000I-25000J0D01*
G01*
X-1633615Y4705616D02*
G75*
G03*
X-1633615Y4705616I-25000J0D01*
G01*
X-1633615Y4334385D02*
G75*
G03*
X-1633615Y4334385I-25000J0D01*
G01*
X-1448000Y4782500D02*
G75*
G03*
X-1448000Y4782500I-25000J0D01*
G01*
X-1448000Y4257500D02*
G75*
G03*
X-1448000Y4257500I-25000J0D01*
G01*
X-1262385Y4705616D02*
G75*
G03*
X-1262385Y4705616I-25000J0D01*
G01*
X-1262385Y4334385D02*
G75*
G03*
X-1262385Y4334385I-25000J0D01*
G01*
X-1185500Y4520000D02*
G75*
G03*
X-1185500Y4520000I-25000J0D01*
G01*
X1235500Y4520000D02*
G75*
G03*
X1235500Y4520000I-25000J0D01*
G01*
X1312385Y4705616D02*
G75*
G03*
X1312385Y4705616I-25000J0D01*
G01*
X1312385Y4334385D02*
G75*
G03*
X1312385Y4334385I-25000J0D01*
G01*
X1498000Y4782500D02*
G75*
G03*
X1498000Y4782500I-25000J0D01*
G01*
X1498000Y4257500D02*
G75*
G03*
X1498000Y4257500I-25000J0D01*
G01*
X1683615Y4705616D02*
G75*
G03*
X1683615Y4705616I-25000J0D01*
G01*
X1683615Y4334385D02*
G75*
G03*
X1683615Y4334385I-25000J0D01*
G01*
X1760500Y4520000D02*
G75*
G03*
X1760500Y4520000I-25000J0D01*
G01*
D15*
X-335000Y4562000D02*
X-335000Y4488000D01*
X-372000Y4525000D02*
X-298000Y4525000D01*
X315000Y4562000D02*
X315000Y4488000D01*
X278000Y4525000D02*
X352000Y4525000D01*
D16*
X-1349255Y4396255D02*
X-1349255Y4643745D01*
X-1596745Y4643745D01*
X-1596745Y4396255D01*
X-1349255Y4396255D01*
X1596745Y4396255D02*
X1596745Y4643745D01*
X1349255Y4643745D01*
X1349255Y4396255D01*
X1596745Y4396255D01*
D12*
X-1747381Y859524D02*
X-1747381Y1059524D01*
X-1699762Y1059524D01*
X-1671190Y1050000D01*
X-1652143Y1030952D01*
X-1642619Y1011905D01*
X-1633095Y973810D01*
X-1633095Y945238D01*
X-1642619Y907143D01*
X-1652143Y888095D01*
X-1671190Y869048D01*
X-1699762Y859524D01*
X-1747381Y859524D01*
X-1547381Y859524D02*
X-1547381Y992857D01*
X-1547381Y954762D02*
X-1537857Y973810D01*
X-1528333Y983333D01*
X-1509286Y992857D01*
X-1490238Y992857D01*
X-1423571Y859524D02*
X-1423571Y992857D01*
X-1423571Y1059524D02*
X-1433095Y1050000D01*
X-1423571Y1040476D01*
X-1414048Y1050000D01*
X-1423571Y1059524D01*
X-1423571Y1040476D01*
X-1299762Y859524D02*
X-1318810Y869048D01*
X-1328333Y888095D01*
X-1328333Y1059524D01*
X-1195000Y859524D02*
X-1214048Y869048D01*
X-1223572Y888095D01*
X-1223572Y1059524D01*
X-966429Y859524D02*
X-966429Y1059524D01*
X-899762Y916667D01*
X-833095Y1059524D01*
X-833095Y859524D01*
X-652143Y859524D02*
X-652143Y964286D01*
X-661667Y983333D01*
X-680714Y992857D01*
X-718810Y992857D01*
X-737857Y983333D01*
X-652143Y869048D02*
X-671191Y859524D01*
X-718810Y859524D01*
X-737857Y869048D01*
X-747381Y888095D01*
X-747381Y907143D01*
X-737857Y926190D01*
X-718810Y935714D01*
X-671191Y935714D01*
X-652143Y945238D01*
X-556905Y992857D02*
X-556905Y792857D01*
X-556905Y983333D02*
X-537857Y992857D01*
X-499762Y992857D01*
X-480714Y983333D01*
X-471190Y973810D01*
X-461667Y954762D01*
X-461667Y897619D01*
X-471190Y878571D01*
X-480714Y869048D01*
X-499762Y859524D01*
X-537857Y859524D01*
X-556905Y869048D01*
X-375952Y878571D02*
X-366429Y869048D01*
X-375952Y859524D01*
X-385476Y869048D01*
X-375952Y878571D01*
X-375952Y859524D01*
X-375952Y983333D02*
X-366429Y973810D01*
X-375952Y964286D01*
X-385476Y973810D01*
X-375952Y983333D01*
X-375952Y964286D01*
D13*
X-2045000Y550000D02*
X-2005000Y510000D01*
X-2005000Y550000D02*
X-2045000Y510000D01*
D12*
X-1709286Y639524D02*
X-1690238Y639524D01*
X-1671190Y630000D01*
X-1661667Y620476D01*
X-1652143Y601429D01*
X-1642619Y563333D01*
X-1642619Y515714D01*
X-1652143Y477619D01*
X-1661667Y458571D01*
X-1671190Y449048D01*
X-1690238Y439524D01*
X-1709286Y439524D01*
X-1728333Y449048D01*
X-1737857Y458571D01*
X-1747381Y477619D01*
X-1756905Y515714D01*
X-1756905Y563333D01*
X-1747381Y601429D01*
X-1737857Y620476D01*
X-1728333Y630000D01*
X-1709286Y639524D01*
X-1556905Y458571D02*
X-1547381Y449048D01*
X-1556905Y439524D01*
X-1566429Y449048D01*
X-1556905Y458571D01*
X-1556905Y439524D01*
X-1375952Y572857D02*
X-1375952Y439524D01*
X-1423571Y649048D02*
X-1471190Y506190D01*
X-1347381Y506190D01*
X-1233095Y639524D02*
X-1214048Y639524D01*
X-1195000Y630000D01*
X-1185476Y620476D01*
X-1175952Y601429D01*
X-1166429Y563333D01*
X-1166429Y515714D01*
X-1175952Y477619D01*
X-1185476Y458571D01*
X-1195000Y449048D01*
X-1214048Y439524D01*
X-1233095Y439524D01*
X-1252143Y449048D01*
X-1261667Y458571D01*
X-1271191Y477619D01*
X-1280714Y515714D01*
X-1280714Y563333D01*
X-1271191Y601429D01*
X-1261667Y620476D01*
X-1252143Y630000D01*
X-1233095Y639524D01*
X-1042619Y639524D02*
X-1023571Y639524D01*
X-1004524Y630000D01*
X-995000Y620476D01*
X-985476Y601429D01*
X-975952Y563333D01*
X-975952Y515714D01*
X-985476Y477619D01*
X-995000Y458571D01*
X-1004524Y449048D01*
X-1023571Y439524D01*
X-1042619Y439524D01*
X-1061667Y449048D01*
X-1071191Y458571D01*
X-1080714Y477619D01*
X-1090238Y515714D01*
X-1090238Y563333D01*
X-1080714Y601429D01*
X-1071191Y620476D01*
X-1061667Y630000D01*
X-1042619Y639524D01*
X-890238Y439524D02*
X-890238Y572857D01*
X-890238Y553810D02*
X-880714Y563333D01*
X-861667Y572857D01*
X-833095Y572857D01*
X-814048Y563333D01*
X-804524Y544286D01*
X-804524Y439524D01*
X-804524Y544286D02*
X-795000Y563333D01*
X-775952Y572857D01*
X-747381Y572857D01*
X-728333Y563333D01*
X-718810Y544286D01*
X-718810Y439524D01*
X-623572Y439524D02*
X-623572Y572857D01*
X-623572Y553810D02*
X-614048Y563333D01*
X-595000Y572857D01*
X-566429Y572857D01*
X-547381Y563333D01*
X-537857Y544286D01*
X-537857Y439524D01*
X-537857Y544286D02*
X-528333Y563333D01*
X-509286Y572857D01*
X-480714Y572857D01*
X-461667Y563333D01*
X-452143Y544286D01*
X-452143Y439524D01*
X-61667Y649048D02*
X-233095Y391905D01*
X195476Y639524D02*
X214524Y639524D01*
X233571Y630000D01*
X243095Y620476D01*
X252619Y601429D01*
X262143Y563333D01*
X262143Y515714D01*
X252619Y477619D01*
X243095Y458571D01*
X233571Y449048D01*
X214524Y439524D01*
X195476Y439524D01*
X176428Y449048D01*
X166905Y458571D01*
X157381Y477619D01*
X147857Y515714D01*
X147857Y563333D01*
X157381Y601429D01*
X166905Y620476D01*
X176428Y630000D01*
X195476Y639524D01*
X347857Y458571D02*
X357381Y449048D01*
X347857Y439524D01*
X338333Y449048D01*
X347857Y458571D01*
X347857Y439524D01*
X481190Y639524D02*
X500238Y639524D01*
X519286Y630000D01*
X528810Y620476D01*
X538333Y601429D01*
X547857Y563333D01*
X547857Y515714D01*
X538333Y477619D01*
X528810Y458571D01*
X519286Y449048D01*
X500238Y439524D01*
X481190Y439524D01*
X462143Y449048D01*
X452619Y458571D01*
X443095Y477619D01*
X433571Y515714D01*
X433571Y563333D01*
X443095Y601429D01*
X452619Y620476D01*
X462143Y630000D01*
X481190Y639524D01*
X738333Y439524D02*
X624048Y439524D01*
X681190Y439524D02*
X681190Y639524D01*
X662143Y610952D01*
X643095Y591905D01*
X624048Y582381D01*
X919286Y639524D02*
X824048Y639524D01*
X814524Y544286D01*
X824048Y553810D01*
X843095Y563333D01*
X890714Y563333D01*
X909762Y553810D01*
X919286Y544286D01*
X928809Y525238D01*
X928809Y477619D01*
X919286Y458571D01*
X909762Y449048D01*
X890714Y439524D01*
X843095Y439524D01*
X824048Y449048D01*
X814524Y458571D01*
X995476Y639524D02*
X1128810Y639524D01*
X1043095Y439524D01*
X1195476Y639524D02*
X1195476Y601429D01*
X1271667Y639524D02*
X1271667Y601429D01*
X1566905Y363333D02*
X1557381Y372857D01*
X1538333Y401429D01*
X1528809Y420476D01*
X1519286Y449048D01*
X1509762Y496667D01*
X1509762Y534762D01*
X1519286Y582381D01*
X1528809Y610952D01*
X1538333Y630000D01*
X1557381Y658572D01*
X1566905Y668095D01*
X1633571Y620476D02*
X1643095Y630000D01*
X1662143Y639524D01*
X1709762Y639524D01*
X1728809Y630000D01*
X1738333Y620476D01*
X1747857Y601429D01*
X1747857Y582381D01*
X1738333Y553810D01*
X1624048Y439524D01*
X1747857Y439524D01*
X1919286Y572857D02*
X1919286Y439524D01*
X1871667Y649048D02*
X1824048Y506190D01*
X1947857Y506190D01*
X2176429Y439524D02*
X2176429Y639524D01*
X2262143Y439524D02*
X2262143Y544286D01*
X2252619Y563333D01*
X2233571Y572857D01*
X2205000Y572857D01*
X2185952Y563333D01*
X2176429Y553810D01*
X2385952Y439524D02*
X2366905Y449048D01*
X2357381Y458571D01*
X2347857Y477619D01*
X2347857Y534762D01*
X2357381Y553810D01*
X2366905Y563333D01*
X2385952Y572857D01*
X2414524Y572857D01*
X2433571Y563333D01*
X2443095Y553810D01*
X2452619Y534762D01*
X2452619Y477619D01*
X2443095Y458571D01*
X2433571Y449048D01*
X2414524Y439524D01*
X2385952Y439524D01*
X2566905Y439524D02*
X2547857Y449048D01*
X2538333Y468095D01*
X2538333Y639524D01*
X2719286Y449048D02*
X2700238Y439524D01*
X2662143Y439524D01*
X2643095Y449048D01*
X2633571Y468095D01*
X2633571Y544286D01*
X2643095Y563333D01*
X2662143Y572857D01*
X2700238Y572857D01*
X2719286Y563333D01*
X2728810Y544286D01*
X2728810Y525238D01*
X2633571Y506190D01*
X2805000Y449048D02*
X2824048Y439524D01*
X2862143Y439524D01*
X2881190Y449048D01*
X2890714Y468095D01*
X2890714Y477619D01*
X2881190Y496667D01*
X2862143Y506190D01*
X2833571Y506190D01*
X2814524Y515714D01*
X2805000Y534762D01*
X2805000Y544286D01*
X2814524Y563333D01*
X2833571Y572857D01*
X2862143Y572857D01*
X2881190Y563333D01*
X2957381Y363333D02*
X2966905Y372857D01*
X2985952Y401429D01*
X2995476Y420476D01*
X3005000Y449048D01*
X3014524Y496667D01*
X3014524Y534762D01*
X3005000Y582381D01*
X2995476Y610952D01*
X2985952Y630000D01*
X2966905Y658572D01*
X2957381Y668095D01*
D14*
X-2005000Y266000D02*
G75*
G03*
X-2005000Y266000I-25000J0D01*
G01*
D12*
X-1709286Y375524D02*
X-1690238Y375524D01*
X-1671190Y366000D01*
X-1661667Y356476D01*
X-1652143Y337429D01*
X-1642619Y299333D01*
X-1642619Y251714D01*
X-1652143Y213619D01*
X-1661667Y194571D01*
X-1671190Y185048D01*
X-1690238Y175524D01*
X-1709286Y175524D01*
X-1728333Y185048D01*
X-1737857Y194571D01*
X-1747381Y213619D01*
X-1756905Y251714D01*
X-1756905Y299333D01*
X-1747381Y337429D01*
X-1737857Y356476D01*
X-1728333Y366000D01*
X-1709286Y375524D01*
X-1556905Y194571D02*
X-1547381Y185048D01*
X-1556905Y175524D01*
X-1566429Y185048D01*
X-1556905Y194571D01*
X-1556905Y175524D01*
X-1366429Y375524D02*
X-1461667Y375524D01*
X-1471190Y280286D01*
X-1461667Y289810D01*
X-1442619Y299333D01*
X-1395000Y299333D01*
X-1375952Y289810D01*
X-1366429Y280286D01*
X-1356905Y261238D01*
X-1356905Y213619D01*
X-1366429Y194571D01*
X-1375952Y185048D01*
X-1395000Y175524D01*
X-1442619Y175524D01*
X-1461667Y185048D01*
X-1471190Y194571D01*
X-1233095Y375524D02*
X-1214048Y375524D01*
X-1195000Y366000D01*
X-1185476Y356476D01*
X-1175952Y337429D01*
X-1166429Y299333D01*
X-1166429Y251714D01*
X-1175952Y213619D01*
X-1185476Y194571D01*
X-1195000Y185048D01*
X-1214048Y175524D01*
X-1233095Y175524D01*
X-1252143Y185048D01*
X-1261667Y194571D01*
X-1271191Y213619D01*
X-1280714Y251714D01*
X-1280714Y299333D01*
X-1271191Y337429D01*
X-1261667Y356476D01*
X-1252143Y366000D01*
X-1233095Y375524D01*
X-1042619Y375524D02*
X-1023571Y375524D01*
X-1004524Y366000D01*
X-995000Y356476D01*
X-985476Y337429D01*
X-975952Y299333D01*
X-975952Y251714D01*
X-985476Y213619D01*
X-995000Y194571D01*
X-1004524Y185048D01*
X-1023571Y175524D01*
X-1042619Y175524D01*
X-1061667Y185048D01*
X-1071191Y194571D01*
X-1080714Y213619D01*
X-1090238Y251714D01*
X-1090238Y299333D01*
X-1080714Y337429D01*
X-1071191Y356476D01*
X-1061667Y366000D01*
X-1042619Y375524D01*
X-890238Y175524D02*
X-890238Y308857D01*
X-890238Y289810D02*
X-880714Y299333D01*
X-861667Y308857D01*
X-833095Y308857D01*
X-814048Y299333D01*
X-804524Y280286D01*
X-804524Y175524D01*
X-804524Y280286D02*
X-795000Y299333D01*
X-775952Y308857D01*
X-747381Y308857D01*
X-728333Y299333D01*
X-718810Y280286D01*
X-718810Y175524D01*
X-623572Y175524D02*
X-623572Y308857D01*
X-623572Y289810D02*
X-614048Y299333D01*
X-595000Y308857D01*
X-566429Y308857D01*
X-547381Y299333D01*
X-537857Y280286D01*
X-537857Y175524D01*
X-537857Y280286D02*
X-528333Y299333D01*
X-509286Y308857D01*
X-480714Y308857D01*
X-461667Y299333D01*
X-452143Y280286D01*
X-452143Y175524D01*
X-61667Y385048D02*
X-233095Y127905D01*
X195476Y375524D02*
X214524Y375524D01*
X233571Y366000D01*
X243095Y356476D01*
X252619Y337429D01*
X262143Y299333D01*
X262143Y251714D01*
X252619Y213619D01*
X243095Y194571D01*
X233571Y185048D01*
X214524Y175524D01*
X195476Y175524D01*
X176428Y185048D01*
X166905Y194571D01*
X157381Y213619D01*
X147857Y251714D01*
X147857Y299333D01*
X157381Y337429D01*
X166905Y356476D01*
X176428Y366000D01*
X195476Y375524D01*
X347857Y194571D02*
X357381Y185048D01*
X347857Y175524D01*
X338333Y185048D01*
X347857Y194571D01*
X347857Y175524D01*
X481190Y375524D02*
X500238Y375524D01*
X519286Y366000D01*
X528810Y356476D01*
X538333Y337429D01*
X547857Y299333D01*
X547857Y251714D01*
X538333Y213619D01*
X528810Y194571D01*
X519286Y185048D01*
X500238Y175524D01*
X481190Y175524D01*
X462143Y185048D01*
X452619Y194571D01*
X443095Y213619D01*
X433571Y251714D01*
X433571Y299333D01*
X443095Y337429D01*
X452619Y356476D01*
X462143Y366000D01*
X481190Y375524D01*
X738333Y175524D02*
X624048Y175524D01*
X681190Y175524D02*
X681190Y375524D01*
X662143Y346952D01*
X643095Y327905D01*
X624048Y318381D01*
X833571Y175524D02*
X871667Y175524D01*
X890714Y185048D01*
X900238Y194571D01*
X919286Y223143D01*
X928809Y261238D01*
X928809Y337429D01*
X919286Y356476D01*
X909762Y366000D01*
X890714Y375524D01*
X852619Y375524D01*
X833571Y366000D01*
X824048Y356476D01*
X814524Y337429D01*
X814524Y289810D01*
X824048Y270762D01*
X833571Y261238D01*
X852619Y251714D01*
X890714Y251714D01*
X909762Y261238D01*
X919286Y270762D01*
X928809Y289810D01*
X995476Y375524D02*
X1128810Y375524D01*
X1043095Y175524D01*
X1195476Y375524D02*
X1195476Y337429D01*
X1271667Y375524D02*
X1271667Y337429D01*
X1566905Y99333D02*
X1557381Y108857D01*
X1538333Y137429D01*
X1528809Y156476D01*
X1519286Y185048D01*
X1509762Y232667D01*
X1509762Y270762D01*
X1519286Y318381D01*
X1528809Y346952D01*
X1538333Y366000D01*
X1557381Y394571D01*
X1566905Y404095D01*
X1747857Y175524D02*
X1633571Y175524D01*
X1690714Y175524D02*
X1690714Y375524D01*
X1671667Y346952D01*
X1652619Y327905D01*
X1633571Y318381D01*
X1919286Y375524D02*
X1881190Y375524D01*
X1862143Y366000D01*
X1852619Y356476D01*
X1833571Y327905D01*
X1824048Y289810D01*
X1824048Y213619D01*
X1833571Y194571D01*
X1843095Y185048D01*
X1862143Y175524D01*
X1900238Y175524D01*
X1919286Y185048D01*
X1928809Y194571D01*
X1938333Y213619D01*
X1938333Y261238D01*
X1928809Y280286D01*
X1919286Y289810D01*
X1900238Y299333D01*
X1862143Y299333D01*
X1843095Y289810D01*
X1833571Y280286D01*
X1824048Y261238D01*
X2176429Y175524D02*
X2176429Y375524D01*
X2262143Y175524D02*
X2262143Y280286D01*
X2252619Y299333D01*
X2233571Y308857D01*
X2205000Y308857D01*
X2185952Y299333D01*
X2176429Y289810D01*
X2385952Y175524D02*
X2366905Y185048D01*
X2357381Y194571D01*
X2347857Y213619D01*
X2347857Y270762D01*
X2357381Y289810D01*
X2366905Y299333D01*
X2385952Y308857D01*
X2414524Y308857D01*
X2433571Y299333D01*
X2443095Y289810D01*
X2452619Y270762D01*
X2452619Y213619D01*
X2443095Y194571D01*
X2433571Y185048D01*
X2414524Y175524D01*
X2385952Y175524D01*
X2566905Y175524D02*
X2547857Y185048D01*
X2538333Y204095D01*
X2538333Y375524D01*
X2719286Y185048D02*
X2700238Y175524D01*
X2662143Y175524D01*
X2643095Y185048D01*
X2633571Y204095D01*
X2633571Y280286D01*
X2643095Y299333D01*
X2662143Y308857D01*
X2700238Y308857D01*
X2719286Y299333D01*
X2728810Y280286D01*
X2728810Y261238D01*
X2633571Y242190D01*
X2805000Y185048D02*
X2824048Y175524D01*
X2862143Y175524D01*
X2881190Y185048D01*
X2890714Y204095D01*
X2890714Y213619D01*
X2881190Y232667D01*
X2862143Y242190D01*
X2833571Y242190D01*
X2814524Y251714D01*
X2805000Y270762D01*
X2805000Y280286D01*
X2814524Y299333D01*
X2833571Y308857D01*
X2862143Y308857D01*
X2881190Y299333D01*
X2957381Y99333D02*
X2966905Y108857D01*
X2985952Y137429D01*
X2995476Y156476D01*
X3005000Y185048D01*
X3014524Y232667D01*
X3014524Y270762D01*
X3005000Y318381D01*
X2995476Y346952D01*
X2985952Y366000D01*
X2966905Y394571D01*
X2957381Y404095D01*
D15*
X-2042000Y39000D02*
X-2042000Y-35000D01*
X-2079000Y2000D02*
X-2005000Y2000D01*
D12*
X-1709286Y111524D02*
X-1690238Y111524D01*
X-1671190Y102000D01*
X-1661667Y92476D01*
X-1652143Y73429D01*
X-1642619Y35333D01*
X-1642619Y-12286D01*
X-1652143Y-50381D01*
X-1661667Y-69429D01*
X-1671190Y-78952D01*
X-1690238Y-88476D01*
X-1709286Y-88476D01*
X-1728333Y-78952D01*
X-1737857Y-69429D01*
X-1747381Y-50381D01*
X-1756905Y-12286D01*
X-1756905Y35333D01*
X-1747381Y73429D01*
X-1737857Y92476D01*
X-1728333Y102000D01*
X-1709286Y111524D01*
X-1556905Y-69429D02*
X-1547381Y-78952D01*
X-1556905Y-88476D01*
X-1566429Y-78952D01*
X-1556905Y-69429D01*
X-1556905Y-88476D01*
X-1480714Y111524D02*
X-1347381Y111524D01*
X-1433095Y-88476D01*
X-1185476Y44857D02*
X-1185476Y-88476D01*
X-1233095Y121048D02*
X-1280714Y-21810D01*
X-1156905Y-21810D01*
X-1042619Y111524D02*
X-1023571Y111524D01*
X-1004524Y102000D01*
X-995000Y92476D01*
X-985476Y73429D01*
X-975952Y35333D01*
X-975952Y-12286D01*
X-985476Y-50381D01*
X-995000Y-69429D01*
X-1004524Y-78952D01*
X-1023571Y-88476D01*
X-1042619Y-88476D01*
X-1061667Y-78952D01*
X-1071191Y-69429D01*
X-1080714Y-50381D01*
X-1090238Y-12286D01*
X-1090238Y35333D01*
X-1080714Y73429D01*
X-1071191Y92476D01*
X-1061667Y102000D01*
X-1042619Y111524D01*
X-890238Y-88476D02*
X-890238Y44857D01*
X-890238Y25810D02*
X-880714Y35333D01*
X-861667Y44857D01*
X-833095Y44857D01*
X-814048Y35333D01*
X-804524Y16286D01*
X-804524Y-88476D01*
X-804524Y16286D02*
X-795000Y35333D01*
X-775952Y44857D01*
X-747381Y44857D01*
X-728333Y35333D01*
X-718810Y16286D01*
X-718810Y-88476D01*
X-623572Y-88476D02*
X-623572Y44857D01*
X-623572Y25810D02*
X-614048Y35333D01*
X-595000Y44857D01*
X-566429Y44857D01*
X-547381Y35333D01*
X-537857Y16286D01*
X-537857Y-88476D01*
X-537857Y16286D02*
X-528333Y35333D01*
X-509286Y44857D01*
X-480714Y44857D01*
X-461667Y35333D01*
X-452143Y16286D01*
X-452143Y-88476D01*
X-61667Y121048D02*
X-233095Y-136095D01*
X195476Y111524D02*
X214524Y111524D01*
X233571Y102000D01*
X243095Y92476D01*
X252619Y73429D01*
X262143Y35333D01*
X262143Y-12286D01*
X252619Y-50381D01*
X243095Y-69429D01*
X233571Y-78952D01*
X214524Y-88476D01*
X195476Y-88476D01*
X176428Y-78952D01*
X166905Y-69429D01*
X157381Y-50381D01*
X147857Y-12286D01*
X147857Y35333D01*
X157381Y73429D01*
X166905Y92476D01*
X176428Y102000D01*
X195476Y111524D01*
X347857Y-69429D02*
X357381Y-78952D01*
X347857Y-88476D01*
X338333Y-78952D01*
X347857Y-69429D01*
X347857Y-88476D01*
X481190Y111524D02*
X500238Y111524D01*
X519286Y102000D01*
X528810Y92476D01*
X538333Y73429D01*
X547857Y35333D01*
X547857Y-12286D01*
X538333Y-50381D01*
X528810Y-69429D01*
X519286Y-78952D01*
X500238Y-88476D01*
X481190Y-88476D01*
X462143Y-78952D01*
X452619Y-69429D01*
X443095Y-50381D01*
X433571Y-12286D01*
X433571Y35333D01*
X443095Y73429D01*
X452619Y92476D01*
X462143Y102000D01*
X481190Y111524D01*
X624048Y92476D02*
X633571Y102000D01*
X652619Y111524D01*
X700238Y111524D01*
X719286Y102000D01*
X728809Y92476D01*
X738333Y73429D01*
X738333Y54381D01*
X728809Y25810D01*
X614524Y-88476D01*
X738333Y-88476D01*
X833571Y-88476D02*
X871667Y-88476D01*
X890714Y-78952D01*
X900238Y-69429D01*
X919286Y-40857D01*
X928809Y-2762D01*
X928809Y73429D01*
X919286Y92476D01*
X909762Y102000D01*
X890714Y111524D01*
X852619Y111524D01*
X833571Y102000D01*
X824048Y92476D01*
X814524Y73429D01*
X814524Y25810D01*
X824048Y6762D01*
X833571Y-2762D01*
X852619Y-12286D01*
X890714Y-12286D01*
X909762Y-2762D01*
X919286Y6762D01*
X928809Y25810D01*
X1119286Y-88476D02*
X1005000Y-88476D01*
X1062143Y-88476D02*
X1062143Y111524D01*
X1043095Y82952D01*
X1024048Y63905D01*
X1005000Y54381D01*
X1195476Y111524D02*
X1195476Y73429D01*
X1271667Y111524D02*
X1271667Y73429D01*
X1566905Y-164667D02*
X1557381Y-155143D01*
X1538333Y-126571D01*
X1528809Y-107524D01*
X1519286Y-78952D01*
X1509762Y-31333D01*
X1509762Y6762D01*
X1519286Y54381D01*
X1528809Y82952D01*
X1538333Y102000D01*
X1557381Y130571D01*
X1566905Y140095D01*
X1633571Y92476D02*
X1643095Y102000D01*
X1662143Y111524D01*
X1709762Y111524D01*
X1728809Y102000D01*
X1738333Y92476D01*
X1747857Y73429D01*
X1747857Y54381D01*
X1738333Y25810D01*
X1624048Y-88476D01*
X1747857Y-88476D01*
X1985952Y-88476D02*
X1985952Y111524D01*
X2071667Y-88476D02*
X2071667Y16286D01*
X2062143Y35333D01*
X2043095Y44857D01*
X2014524Y44857D01*
X1995476Y35333D01*
X1985952Y25810D01*
X2195476Y-88476D02*
X2176429Y-78952D01*
X2166905Y-69429D01*
X2157381Y-50381D01*
X2157381Y6762D01*
X2166905Y25810D01*
X2176429Y35333D01*
X2195476Y44857D01*
X2224048Y44857D01*
X2243095Y35333D01*
X2252619Y25810D01*
X2262143Y6762D01*
X2262143Y-50381D01*
X2252619Y-69429D01*
X2243095Y-78952D01*
X2224048Y-88476D01*
X2195476Y-88476D01*
X2376429Y-88476D02*
X2357381Y-78952D01*
X2347857Y-59905D01*
X2347857Y111524D01*
X2528810Y-78952D02*
X2509762Y-88476D01*
X2471667Y-88476D01*
X2452619Y-78952D01*
X2443095Y-59905D01*
X2443095Y16286D01*
X2452619Y35333D01*
X2471667Y44857D01*
X2509762Y44857D01*
X2528810Y35333D01*
X2538333Y16286D01*
X2538333Y-2762D01*
X2443095Y-21810D01*
X2614524Y-78952D02*
X2633571Y-88476D01*
X2671667Y-88476D01*
X2690714Y-78952D01*
X2700238Y-59905D01*
X2700238Y-50381D01*
X2690714Y-31333D01*
X2671667Y-21810D01*
X2643095Y-21810D01*
X2624048Y-12286D01*
X2614524Y6762D01*
X2614524Y16286D01*
X2624048Y35333D01*
X2643095Y44857D01*
X2671667Y44857D01*
X2690714Y35333D01*
X2766905Y-164667D02*
X2776429Y-155143D01*
X2795476Y-126571D01*
X2805000Y-107524D01*
X2814524Y-78952D01*
X2824048Y-31333D01*
X2824048Y6762D01*
X2814524Y54381D01*
X2805000Y82952D01*
X2795476Y102000D01*
X2776429Y130571D01*
X2766905Y140095D01*
X-2034289Y-332711D02*
X-2034289Y-191289D01*
X-2175711Y-191289D01*
X-2175711Y-332711D01*
X-2034289Y-332711D01*
X-1766429Y-152476D02*
X-1642619Y-152476D01*
X-1709286Y-228667D01*
X-1680714Y-228667D01*
X-1661667Y-238190D01*
X-1652143Y-247714D01*
X-1642619Y-266762D01*
X-1642619Y-314381D01*
X-1652143Y-333429D01*
X-1661667Y-342952D01*
X-1680714Y-352476D01*
X-1737857Y-352476D01*
X-1756905Y-342952D01*
X-1766429Y-333429D01*
X-1556905Y-333429D02*
X-1547381Y-342952D01*
X-1556905Y-352476D01*
X-1566429Y-342952D01*
X-1556905Y-333429D01*
X-1556905Y-352476D01*
X-1366429Y-152476D02*
X-1461667Y-152476D01*
X-1471190Y-247714D01*
X-1461667Y-238190D01*
X-1442619Y-228667D01*
X-1395000Y-228667D01*
X-1375952Y-238190D01*
X-1366429Y-247714D01*
X-1356905Y-266762D01*
X-1356905Y-314381D01*
X-1366429Y-333429D01*
X-1375952Y-342952D01*
X-1395000Y-352476D01*
X-1442619Y-352476D01*
X-1461667Y-342952D01*
X-1471190Y-333429D01*
X-1233095Y-152476D02*
X-1214048Y-152476D01*
X-1195000Y-162000D01*
X-1185476Y-171524D01*
X-1175952Y-190571D01*
X-1166429Y-228667D01*
X-1166429Y-276286D01*
X-1175952Y-314381D01*
X-1185476Y-333429D01*
X-1195000Y-342952D01*
X-1214048Y-352476D01*
X-1233095Y-352476D01*
X-1252143Y-342952D01*
X-1261667Y-333429D01*
X-1271191Y-314381D01*
X-1280714Y-276286D01*
X-1280714Y-228667D01*
X-1271191Y-190571D01*
X-1261667Y-171524D01*
X-1252143Y-162000D01*
X-1233095Y-152476D01*
X-1042619Y-152476D02*
X-1023571Y-152476D01*
X-1004524Y-162000D01*
X-995000Y-171524D01*
X-985476Y-190571D01*
X-975952Y-228667D01*
X-975952Y-276286D01*
X-985476Y-314381D01*
X-995000Y-333429D01*
X-1004524Y-342952D01*
X-1023571Y-352476D01*
X-1042619Y-352476D01*
X-1061667Y-342952D01*
X-1071191Y-333429D01*
X-1080714Y-314381D01*
X-1090238Y-276286D01*
X-1090238Y-228667D01*
X-1080714Y-190571D01*
X-1071191Y-171524D01*
X-1061667Y-162000D01*
X-1042619Y-152476D01*
X-890238Y-352476D02*
X-890238Y-219143D01*
X-890238Y-238190D02*
X-880714Y-228667D01*
X-861667Y-219143D01*
X-833095Y-219143D01*
X-814048Y-228667D01*
X-804524Y-247714D01*
X-804524Y-352476D01*
X-804524Y-247714D02*
X-795000Y-228667D01*
X-775952Y-219143D01*
X-747381Y-219143D01*
X-728333Y-228667D01*
X-718810Y-247714D01*
X-718810Y-352476D01*
X-623572Y-352476D02*
X-623572Y-219143D01*
X-623572Y-238190D02*
X-614048Y-228667D01*
X-595000Y-219143D01*
X-566429Y-219143D01*
X-547381Y-228667D01*
X-537857Y-247714D01*
X-537857Y-352476D01*
X-537857Y-247714D02*
X-528333Y-228667D01*
X-509286Y-219143D01*
X-480714Y-219143D01*
X-461667Y-228667D01*
X-452143Y-247714D01*
X-452143Y-352476D01*
X-61667Y-142952D02*
X-233095Y-400095D01*
X195476Y-152476D02*
X214524Y-152476D01*
X233571Y-162000D01*
X243095Y-171524D01*
X252619Y-190571D01*
X262143Y-228667D01*
X262143Y-276286D01*
X252619Y-314381D01*
X243095Y-333429D01*
X233571Y-342952D01*
X214524Y-352476D01*
X195476Y-352476D01*
X176428Y-342952D01*
X166905Y-333429D01*
X157381Y-314381D01*
X147857Y-276286D01*
X147857Y-228667D01*
X157381Y-190571D01*
X166905Y-171524D01*
X176428Y-162000D01*
X195476Y-152476D01*
X347857Y-333429D02*
X357381Y-342952D01*
X347857Y-352476D01*
X338333Y-342952D01*
X347857Y-333429D01*
X347857Y-352476D01*
X547857Y-352476D02*
X433571Y-352476D01*
X490714Y-352476D02*
X490714Y-152476D01*
X471667Y-181048D01*
X452619Y-200095D01*
X433571Y-209619D01*
X614524Y-152476D02*
X738333Y-152476D01*
X671667Y-228667D01*
X700238Y-228667D01*
X719286Y-238190D01*
X728809Y-247714D01*
X738333Y-266762D01*
X738333Y-314381D01*
X728809Y-333429D01*
X719286Y-342952D01*
X700238Y-352476D01*
X643095Y-352476D01*
X624048Y-342952D01*
X614524Y-333429D01*
X805000Y-152476D02*
X938333Y-152476D01*
X852619Y-352476D01*
X1043095Y-238190D02*
X1024048Y-228667D01*
X1014524Y-219143D01*
X1005000Y-200095D01*
X1005000Y-190571D01*
X1014524Y-171524D01*
X1024048Y-162000D01*
X1043095Y-152476D01*
X1081190Y-152476D01*
X1100238Y-162000D01*
X1109762Y-171524D01*
X1119286Y-190571D01*
X1119286Y-200095D01*
X1109762Y-219143D01*
X1100238Y-228667D01*
X1081190Y-238190D01*
X1043095Y-238190D01*
X1024048Y-247714D01*
X1014524Y-257238D01*
X1005000Y-276286D01*
X1005000Y-314381D01*
X1014524Y-333429D01*
X1024048Y-342952D01*
X1043095Y-352476D01*
X1081190Y-352476D01*
X1100238Y-342952D01*
X1109762Y-333429D01*
X1119286Y-314381D01*
X1119286Y-276286D01*
X1109762Y-257238D01*
X1100238Y-247714D01*
X1081190Y-238190D01*
X1195476Y-152476D02*
X1195476Y-190571D01*
X1271667Y-152476D02*
X1271667Y-190571D01*
X1566905Y-428667D02*
X1557381Y-419143D01*
X1538333Y-390571D01*
X1528809Y-371524D01*
X1519286Y-342952D01*
X1509762Y-295333D01*
X1509762Y-257238D01*
X1519286Y-209619D01*
X1528809Y-181048D01*
X1538333Y-162000D01*
X1557381Y-133429D01*
X1566905Y-123905D01*
X1633571Y-171524D02*
X1643095Y-162000D01*
X1662143Y-152476D01*
X1709762Y-152476D01*
X1728809Y-162000D01*
X1738333Y-171524D01*
X1747857Y-190571D01*
X1747857Y-209619D01*
X1738333Y-238190D01*
X1624048Y-352476D01*
X1747857Y-352476D01*
X1985952Y-352476D02*
X1985952Y-152476D01*
X2071667Y-352476D02*
X2071667Y-247714D01*
X2062143Y-228667D01*
X2043095Y-219143D01*
X2014524Y-219143D01*
X1995476Y-228667D01*
X1985952Y-238190D01*
X2195476Y-352476D02*
X2176429Y-342952D01*
X2166905Y-333429D01*
X2157381Y-314381D01*
X2157381Y-257238D01*
X2166905Y-238190D01*
X2176429Y-228667D01*
X2195476Y-219143D01*
X2224048Y-219143D01*
X2243095Y-228667D01*
X2252619Y-238190D01*
X2262143Y-257238D01*
X2262143Y-314381D01*
X2252619Y-333429D01*
X2243095Y-342952D01*
X2224048Y-352476D01*
X2195476Y-352476D01*
X2376429Y-352476D02*
X2357381Y-342952D01*
X2347857Y-323905D01*
X2347857Y-152476D01*
X2528810Y-342952D02*
X2509762Y-352476D01*
X2471667Y-352476D01*
X2452619Y-342952D01*
X2443095Y-323905D01*
X2443095Y-247714D01*
X2452619Y-228667D01*
X2471667Y-219143D01*
X2509762Y-219143D01*
X2528810Y-228667D01*
X2538333Y-247714D01*
X2538333Y-266762D01*
X2443095Y-285810D01*
X2614524Y-342952D02*
X2633571Y-352476D01*
X2671667Y-352476D01*
X2690714Y-342952D01*
X2700238Y-323905D01*
X2700238Y-314381D01*
X2690714Y-295333D01*
X2671667Y-285810D01*
X2643095Y-285810D01*
X2624048Y-276286D01*
X2614524Y-257238D01*
X2614524Y-247714D01*
X2624048Y-228667D01*
X2643095Y-219143D01*
X2671667Y-219143D01*
X2690714Y-228667D01*
X2766905Y-428667D02*
X2776429Y-419143D01*
X2795476Y-390571D01*
X2805000Y-371524D01*
X2814524Y-342952D01*
X2824048Y-295333D01*
X2824048Y-257238D01*
X2814524Y-209619D01*
X2805000Y-181048D01*
X2795476Y-162000D01*
X2776429Y-133429D01*
X2766905Y-123905D01*
M02*
