  0
SECTION
  2
HEADER
  9
$ANGBASE
  50
0.0
  9
$ANGDIR
  70
1
  9
$MEASUREMENT
  70
0
  0
ENDSEC
  0
SECTION
  2
TABLES
  0
TABLE
  2
LTYPE
  70
4
  0
LTYPE
  5
40F
  2
CONTINUOUS
  70
0
  3
Solid line
  72
65
  73
0
  40
0.0
  0
LTYPE
  5
410
  2
DASHDOT
 70
0
  3
Dash Dot ____ _ ____ _
 72
65
 73
4
 40
2.0
 49
1.25
 49
-0.25
 49
0.25
 49
-0.25
  0
LTYPE
  5
411
  2
DASHED
 70
0
  3
Dashed __ __ __ __ __
 72
65
 73
2
 40
0.75
 49
0.5
 49
-0.25
  0
LTYPE
  5
43B
  2
DOTTED
 70
0
  3
Dotted .  .  .  .
 72
65
 73
2
 40
0.2
 49
0.0
 49
-0.2
  0
ENDTAB
  0
TABLE
  2
STYLE
  70
4
  0
STYLE
  2
KICAD
  70
0
  40
0
  41
1
  42
1
  50
0
  71
0
  3
isocp.shx
  0
STYLE
  2
KICADB
  70
0
  40
0
  41
1
  42
1
  50
0
  71
0
  3
isocp.shx
  0
STYLE
  2
KICADI
  70
0
  40
0
  41
1
  42
1
  50
15
  71
0
  3
isocp.shx
  0
STYLE
  2
KICADBI
  70
0
  40
0
  41
1
  42
1
  50
15
  71
0
  3
isocp.shx
  0
ENDTAB
  0
TABLE
  2
LAYER
  70
1
  0
LAYER
  2
BLACK
  70
0
  62
7
  6
CONTINUOUS
  0
ENDTAB
  0
ENDSEC
  0
SECTION
  2
ENTITIES
0
LINE
8
BLACK
6
CONTINUOUS
10
0
20
1.48819
11
0
21
0.0787402
0
CIRCLE
8
BLACK
10
0.787244
20
0.462598
40
0.374016
0
ARC
8
BLACK
10
0.0787402
20
1.48819
40
0.0787402
50
90
51
180
0
ARC
8
BLACK
10
1.48819
20
0.0787402
40
0.0787402
50
-90
51
-0
0
ARC
8
BLACK
10
0.0787402
20
0.0787402
40
0.0787402
50
-180
51
-90
0
LINE
8
BLACK
6
CONTINUOUS
10
0.0787402
20
0
11
1.48819
21
0
0
LINE
8
BLACK
6
CONTINUOUS
10
1.56693
20
0.0787402
11
1.56693
21
1.48819
0
LINE
8
BLACK
6
CONTINUOUS
10
1.48819
20
1.56693
11
0.0787402
21
1.56693
0
ARC
8
BLACK
10
1.48819
20
1.48819
40
0.0787402
50
-0
51
90
0
LINE
8
BLACK
6
CONTINUOUS
10
0.105512
20
0.495676
11
0.12126
21
0.479928
0
LINE
8
BLACK
6
CONTINUOUS
10
0.12126
20
0.495676
11
0.105512
21
0.479928
0
LINE
8
BLACK
6
CONTINUOUS
10
0.295276
20
0.610236
11
0.311024
21
0.594488
0
LINE
8
BLACK
6
CONTINUOUS
10
0.311024
20
0.610236
11
0.295276
21
0.594488
0
LINE
8
BLACK
6
CONTINUOUS
10
0.362598
20
0.228346
11
0.378346
21
0.212598
0
LINE
8
BLACK
6
CONTINUOUS
10
0.378346
20
0.228346
11
0.362598
21
0.212598
0
LINE
8
BLACK
6
CONTINUOUS
10
0.370079
20
1.19094
11
0.385827
21
1.1752
0
LINE
8
BLACK
6
CONTINUOUS
10
0.385827
20
1.19094
11
0.370079
21
1.1752
0
LINE
8
BLACK
6
CONTINUOUS
10
0.432087
20
1.40354
11
0.447835
21
1.3878
0
LINE
8
BLACK
6
CONTINUOUS
10
0.447835
20
1.40354
11
0.432087
21
1.3878
0
LINE
8
BLACK
6
CONTINUOUS
10
0.456693
20
1.18848
11
0.472441
21
1.17274
0
LINE
8
BLACK
6
CONTINUOUS
10
0.472441
20
1.18848
11
0.456693
21
1.17274
0
LINE
8
BLACK
6
CONTINUOUS
10
0.514764
20
1.40108
11
0.530512
21
1.38533
0
LINE
8
BLACK
6
CONTINUOUS
10
0.530512
20
1.40108
11
0.514764
21
1.38533
0
LINE
8
BLACK
6
CONTINUOUS
10
0.543307
20
1.19094
11
0.559055
21
1.1752
0
LINE
8
BLACK
6
CONTINUOUS
10
0.559055
20
1.19094
11
0.543307
21
1.1752
0
LINE
8
BLACK
6
CONTINUOUS
10
0.582677
20
0.929134
11
0.598425
21
0.913386
0
LINE
8
BLACK
6
CONTINUOUS
10
0.598425
20
0.929134
11
0.582677
21
0.913386
0
LINE
8
BLACK
6
CONTINUOUS
10
0.637795
20
1.48425
11
0.653543
21
1.4685
0
LINE
8
BLACK
6
CONTINUOUS
10
0.653543
20
1.48425
11
0.637795
21
1.4685
0
LINE
8
BLACK
6
CONTINUOUS
10
0.645669
20
1.20866
11
0.661417
21
1.19291
0
LINE
8
BLACK
6
CONTINUOUS
10
0.661417
20
1.20866
11
0.645669
21
1.19291
0
LINE
8
BLACK
6
CONTINUOUS
10
0.767717
20
1.3937
11
0.783465
21
1.37795
0
LINE
8
BLACK
6
CONTINUOUS
10
0.783465
20
1.3937
11
0.767717
21
1.37795
0
LINE
8
BLACK
6
CONTINUOUS
10
0.767717
20
1.2874
11
0.783465
21
1.27165
0
LINE
8
BLACK
6
CONTINUOUS
10
0.783465
20
1.2874
11
0.767717
21
1.27165
0
LINE
8
BLACK
6
CONTINUOUS
10
0.767717
20
0.917323
11
0.783465
21
0.901575
0
LINE
8
BLACK
6
CONTINUOUS
10
0.783465
20
0.917323
11
0.767717
21
0.901575
0
LINE
8
BLACK
6
CONTINUOUS
10
0.80315
20
0.956693
11
0.818898
21
0.940945
0
LINE
8
BLACK
6
CONTINUOUS
10
0.818898
20
0.956693
11
0.80315
21
0.940945
0
LINE
8
BLACK
6
CONTINUOUS
10
0.846457
20
1.3937
11
0.862205
21
1.37795
0
LINE
8
BLACK
6
CONTINUOUS
10
0.862205
20
1.3937
11
0.846457
21
1.37795
0
LINE
8
BLACK
6
CONTINUOUS
10
0.846457
20
1.06693
11
0.862205
21
1.05118
0
LINE
8
BLACK
6
CONTINUOUS
10
0.862205
20
1.06693
11
0.846457
21
1.05118
0
LINE
8
BLACK
6
CONTINUOUS
10
0.96063
20
1.19537
11
0.976378
21
1.17963
0
LINE
8
BLACK
6
CONTINUOUS
10
0.976378
20
1.19537
11
0.96063
21
1.17963
0
LINE
8
BLACK
6
CONTINUOUS
10
1.05512
20
1.19291
11
1.07087
21
1.17717
0
LINE
8
BLACK
6
CONTINUOUS
10
1.07087
20
1.19291
11
1.05512
21
1.17717
0
LINE
8
BLACK
6
CONTINUOUS
10
1.08268
20
0.846457
11
1.09843
21
0.830709
0
LINE
8
BLACK
6
CONTINUOUS
10
1.09843
20
0.846457
11
1.08268
21
0.830709
0
LINE
8
BLACK
6
CONTINUOUS
10
1.14961
20
1.19291
11
1.16535
21
1.17717
0
LINE
8
BLACK
6
CONTINUOUS
10
1.16535
20
1.19291
11
1.14961
21
1.17717
0
LINE
8
BLACK
6
CONTINUOUS
10
1.22441
20
0.110236
11
1.24016
21
0.0944882
0
LINE
8
BLACK
6
CONTINUOUS
10
1.24016
20
0.110236
11
1.22441
21
0.0944882
0
LINE
8
BLACK
6
CONTINUOUS
10
1.34646
20
0.511811
11
1.3622
21
0.496063
0
LINE
8
BLACK
6
CONTINUOUS
10
1.3622
20
0.511811
11
1.34646
21
0.496063
0
LINE
8
BLACK
6
CONTINUOUS
10
1.44075
20
0.505715
11
1.4565
21
0.489967
0
LINE
8
BLACK
6
CONTINUOUS
10
1.4565
20
0.505715
11
1.44075
21
0.489967
0
CIRCLE
8
BLACK
10
0.647638
20
1.3189
40
0.0145669
0
CIRCLE
8
BLACK
10
0.903543
20
1.3189
40
0.0145669
0
LINE
8
BLACK
6
CONTINUOUS
10
0.207508
20
0.311024
11
0.207508
21
0.204724
0
LINE
8
BLACK
6
CONTINUOUS
10
0.154358
20
0.257874
11
0.260657
21
0.257874
0
LINE
8
BLACK
6
CONTINUOUS
10
1.36732
20
0.311024
11
1.36732
21
0.204724
0
LINE
8
BLACK
6
CONTINUOUS
10
1.31417
20
0.257874
11
1.42047
21
0.257874
0
LINE
8
BLACK
6
CONTINUOUS
10
0.0955193
20
-0.125009
11
0.0955193
21
-0.0462692
0
LINE
8
BLACK
6
CONTINUOUS
10
0.0955193
20
-0.0462692
11
0.114267
21
-0.0462692
0
LINE
8
BLACK
6
CONTINUOUS
10
0.114267
20
-0.0462692
11
0.125516
21
-0.0500187
0
LINE
8
BLACK
6
CONTINUOUS
10
0.125516
20
-0.0500187
11
0.133015
21
-0.0575178
0
LINE
8
BLACK
6
CONTINUOUS
10
0.133015
20
-0.0575178
11
0.136764
21
-0.0650169
0
LINE
8
BLACK
6
CONTINUOUS
10
0.136764
20
-0.0650169
11
0.140514
21
-0.080015
0
LINE
8
BLACK
6
CONTINUOUS
10
0.140514
20
-0.080015
11
0.140514
21
-0.0912636
0
LINE
8
BLACK
6
CONTINUOUS
10
0.140514
20
-0.0912636
11
0.136764
21
-0.106262
0
LINE
8
BLACK
6
CONTINUOUS
10
0.136764
20
-0.106262
11
0.133015
21
-0.113761
0
LINE
8
BLACK
6
CONTINUOUS
10
0.133015
20
-0.113761
11
0.125516
21
-0.12126
0
LINE
8
BLACK
6
CONTINUOUS
10
0.125516
20
-0.12126
11
0.114267
21
-0.125009
0
LINE
8
BLACK
6
CONTINUOUS
10
0.114267
20
-0.125009
11
0.0955193
21
-0.125009
0
LINE
8
BLACK
6
CONTINUOUS
10
0.174259
20
-0.125009
11
0.174259
21
-0.0725159
0
LINE
8
BLACK
6
CONTINUOUS
10
0.174259
20
-0.0875141
11
0.178009
21
-0.080015
0
LINE
8
BLACK
6
CONTINUOUS
10
0.178009
20
-0.080015
11
0.181759
21
-0.0762654
0
LINE
8
BLACK
6
CONTINUOUS
10
0.181759
20
-0.0762654
11
0.189258
21
-0.0725159
0
LINE
8
BLACK
6
CONTINUOUS
10
0.189258
20
-0.0725159
11
0.196757
21
-0.0725159
0
LINE
8
BLACK
6
CONTINUOUS
10
0.223003
20
-0.125009
11
0.223003
21
-0.0725159
0
LINE
8
BLACK
6
CONTINUOUS
10
0.223003
20
-0.0462692
11
0.219254
21
-0.0500187
0
LINE
8
BLACK
6
CONTINUOUS
10
0.219254
20
-0.0500187
11
0.223003
21
-0.0537683
0
LINE
8
BLACK
6
CONTINUOUS
10
0.223003
20
-0.0537683
11
0.226753
21
-0.0500187
0
LINE
8
BLACK
6
CONTINUOUS
10
0.226753
20
-0.0500187
11
0.223003
21
-0.0462692
0
LINE
8
BLACK
6
CONTINUOUS
10
0.223003
20
-0.0462692
11
0.223003
21
-0.0537683
0
LINE
8
BLACK
6
CONTINUOUS
10
0.271747
20
-0.125009
11
0.264248
21
-0.12126
0
LINE
8
BLACK
6
CONTINUOUS
10
0.264248
20
-0.12126
11
0.260499
21
-0.113761
0
LINE
8
BLACK
6
CONTINUOUS
10
0.260499
20
-0.113761
11
0.260499
21
-0.0462692
0
LINE
8
BLACK
6
CONTINUOUS
10
0.312992
20
-0.125009
11
0.305493
21
-0.12126
0
LINE
8
BLACK
6
CONTINUOUS
10
0.305493
20
-0.12126
11
0.301744
21
-0.113761
0
LINE
8
BLACK
6
CONTINUOUS
10
0.301744
20
-0.113761
11
0.301744
21
-0.0462692
0
LINE
8
BLACK
6
CONTINUOUS
10
0.402981
20
-0.125009
11
0.402981
21
-0.0462692
0
LINE
8
BLACK
6
CONTINUOUS
10
0.402981
20
-0.0462692
11
0.429228
21
-0.102512
0
LINE
8
BLACK
6
CONTINUOUS
10
0.429228
20
-0.102512
11
0.455474
21
-0.0462692
0
LINE
8
BLACK
6
CONTINUOUS
10
0.455474
20
-0.0462692
11
0.455474
21
-0.125009
0
LINE
8
BLACK
6
CONTINUOUS
10
0.526715
20
-0.125009
11
0.526715
21
-0.0837645
0
LINE
8
BLACK
6
CONTINUOUS
10
0.526715
20
-0.0837645
11
0.522966
21
-0.0762654
0
LINE
8
BLACK
6
CONTINUOUS
10
0.522966
20
-0.0762654
11
0.515467
21
-0.0725159
0
LINE
8
BLACK
6
CONTINUOUS
10
0.515467
20
-0.0725159
11
0.500469
21
-0.0725159
0
LINE
8
BLACK
6
CONTINUOUS
10
0.500469
20
-0.0725159
11
0.49297
21
-0.0762654
0
LINE
8
BLACK
6
CONTINUOUS
10
0.526715
20
-0.12126
11
0.519216
21
-0.125009
0
LINE
8
BLACK
6
CONTINUOUS
10
0.519216
20
-0.125009
11
0.500469
21
-0.125009
0
LINE
8
BLACK
6
CONTINUOUS
10
0.500469
20
-0.125009
11
0.49297
21
-0.12126
0
LINE
8
BLACK
6
CONTINUOUS
10
0.49297
20
-0.12126
11
0.48922
21
-0.113761
0
LINE
8
BLACK
6
CONTINUOUS
10
0.48922
20
-0.113761
11
0.48922
21
-0.106262
0
LINE
8
BLACK
6
CONTINUOUS
10
0.48922
20
-0.106262
11
0.49297
21
-0.0987626
0
LINE
8
BLACK
6
CONTINUOUS
10
0.49297
20
-0.0987626
11
0.500469
21
-0.0950131
0
LINE
8
BLACK
6
CONTINUOUS
10
0.500469
20
-0.0950131
11
0.519216
21
-0.0950131
0
LINE
8
BLACK
6
CONTINUOUS
10
0.519216
20
-0.0950131
11
0.526715
21
-0.0912636
0
LINE
8
BLACK
6
CONTINUOUS
10
0.564211
20
-0.0725159
11
0.564211
21
-0.151256
0
LINE
8
BLACK
6
CONTINUOUS
10
0.564211
20
-0.0762654
11
0.57171
21
-0.0725159
0
LINE
8
BLACK
6
CONTINUOUS
10
0.57171
20
-0.0725159
11
0.586708
21
-0.0725159
0
LINE
8
BLACK
6
CONTINUOUS
10
0.586708
20
-0.0725159
11
0.594207
21
-0.0762654
0
LINE
8
BLACK
6
CONTINUOUS
10
0.594207
20
-0.0762654
11
0.597956
21
-0.080015
0
LINE
8
BLACK
6
CONTINUOUS
10
0.597956
20
-0.080015
11
0.601706
21
-0.0875141
0
LINE
8
BLACK
6
CONTINUOUS
10
0.601706
20
-0.0875141
11
0.601706
21
-0.110011
0
LINE
8
BLACK
6
CONTINUOUS
10
0.601706
20
-0.110011
11
0.597956
21
-0.11751
0
LINE
8
BLACK
6
CONTINUOUS
10
0.597956
20
-0.11751
11
0.594207
21
-0.12126
0
LINE
8
BLACK
6
CONTINUOUS
10
0.594207
20
-0.12126
11
0.586708
21
-0.125009
0
LINE
8
BLACK
6
CONTINUOUS
10
0.586708
20
-0.125009
11
0.57171
21
-0.125009
0
LINE
8
BLACK
6
CONTINUOUS
10
0.57171
20
-0.125009
11
0.564211
21
-0.12126
0
LINE
8
BLACK
6
CONTINUOUS
10
0.635452
20
-0.11751
11
0.639201
21
-0.12126
0
LINE
8
BLACK
6
CONTINUOUS
10
0.639201
20
-0.12126
11
0.635452
21
-0.125009
0
LINE
8
BLACK
6
CONTINUOUS
10
0.635452
20
-0.125009
11
0.631702
21
-0.12126
0
LINE
8
BLACK
6
CONTINUOUS
10
0.631702
20
-0.12126
11
0.635452
21
-0.11751
0
LINE
8
BLACK
6
CONTINUOUS
10
0.635452
20
-0.11751
11
0.635452
21
-0.125009
0
LINE
8
BLACK
6
CONTINUOUS
10
0.635452
20
-0.0762654
11
0.639201
21
-0.080015
0
LINE
8
BLACK
6
CONTINUOUS
10
0.639201
20
-0.080015
11
0.635452
21
-0.0837645
0
LINE
8
BLACK
6
CONTINUOUS
10
0.635452
20
-0.0837645
11
0.631702
21
-0.080015
0
LINE
8
BLACK
6
CONTINUOUS
10
0.631702
20
-0.080015
11
0.635452
21
-0.0762654
0
LINE
8
BLACK
6
CONTINUOUS
10
0.635452
20
-0.0762654
11
0.635452
21
-0.0837645
0
LINE
8
BLACK
6
CONTINUOUS
10
-0.0177165
20
-0.246063
11
-0.0019685
21
-0.261811
0
LINE
8
BLACK
6
CONTINUOUS
10
-0.0019685
20
-0.246063
11
-0.0177165
21
-0.261811
0
LINE
8
BLACK
6
CONTINUOUS
10
0.110517
20
-0.211624
11
0.118016
21
-0.211624
0
LINE
8
BLACK
6
CONTINUOUS
10
0.118016
20
-0.211624
11
0.125516
21
-0.215373
0
LINE
8
BLACK
6
CONTINUOUS
10
0.125516
20
-0.215373
11
0.129265
21
-0.219123
0
LINE
8
BLACK
6
CONTINUOUS
10
0.129265
20
-0.219123
11
0.133015
21
-0.226622
0
LINE
8
BLACK
6
CONTINUOUS
10
0.133015
20
-0.226622
11
0.136764
21
-0.24162
0
LINE
8
BLACK
6
CONTINUOUS
10
0.136764
20
-0.24162
11
0.136764
21
-0.260367
0
LINE
8
BLACK
6
CONTINUOUS
10
0.136764
20
-0.260367
11
0.133015
21
-0.275366
0
LINE
8
BLACK
6
CONTINUOUS
10
0.133015
20
-0.275366
11
0.129265
21
-0.282865
0
LINE
8
BLACK
6
CONTINUOUS
10
0.129265
20
-0.282865
11
0.125516
21
-0.286614
0
LINE
8
BLACK
6
CONTINUOUS
10
0.125516
20
-0.286614
11
0.118016
21
-0.290364
0
LINE
8
BLACK
6
CONTINUOUS
10
0.118016
20
-0.290364
11
0.110517
21
-0.290364
0
LINE
8
BLACK
6
CONTINUOUS
10
0.110517
20
-0.290364
11
0.103018
21
-0.286614
0
LINE
8
BLACK
6
CONTINUOUS
10
0.103018
20
-0.286614
11
0.0992688
21
-0.282865
0
LINE
8
BLACK
6
CONTINUOUS
10
0.0992688
20
-0.282865
11
0.0955193
21
-0.275366
0
LINE
8
BLACK
6
CONTINUOUS
10
0.0955193
20
-0.275366
11
0.0917698
21
-0.260367
0
LINE
8
BLACK
6
CONTINUOUS
10
0.0917698
20
-0.260367
11
0.0917698
21
-0.24162
0
LINE
8
BLACK
6
CONTINUOUS
10
0.0917698
20
-0.24162
11
0.0955193
21
-0.226622
0
LINE
8
BLACK
6
CONTINUOUS
10
0.0955193
20
-0.226622
11
0.0992688
21
-0.219123
0
LINE
8
BLACK
6
CONTINUOUS
10
0.0992688
20
-0.219123
11
0.103018
21
-0.215373
0
LINE
8
BLACK
6
CONTINUOUS
10
0.103018
20
-0.215373
11
0.110517
21
-0.211624
0
LINE
8
BLACK
6
CONTINUOUS
10
0.17051
20
-0.282865
11
0.174259
21
-0.286614
0
LINE
8
BLACK
6
CONTINUOUS
10
0.174259
20
-0.286614
11
0.17051
21
-0.290364
0
LINE
8
BLACK
6
CONTINUOUS
10
0.17051
20
-0.290364
11
0.16676
21
-0.286614
0
LINE
8
BLACK
6
CONTINUOUS
10
0.16676
20
-0.286614
11
0.17051
21
-0.282865
0
LINE
8
BLACK
6
CONTINUOUS
10
0.17051
20
-0.282865
11
0.17051
21
-0.290364
0
LINE
8
BLACK
6
CONTINUOUS
10
0.241751
20
-0.23787
11
0.241751
21
-0.290364
0
LINE
8
BLACK
6
CONTINUOUS
10
0.223003
20
-0.207874
11
0.204256
21
-0.264117
0
LINE
8
BLACK
6
CONTINUOUS
10
0.204256
20
-0.264117
11
0.253
21
-0.264117
0
LINE
8
BLACK
6
CONTINUOUS
10
0.297994
20
-0.211624
11
0.305493
21
-0.211624
0
LINE
8
BLACK
6
CONTINUOUS
10
0.305493
20
-0.211624
11
0.312992
21
-0.215373
0
LINE
8
BLACK
6
CONTINUOUS
10
0.312992
20
-0.215373
11
0.316742
21
-0.219123
0
LINE
8
BLACK
6
CONTINUOUS
10
0.316742
20
-0.219123
11
0.320491
21
-0.226622
0
LINE
8
BLACK
6
CONTINUOUS
10
0.320491
20
-0.226622
11
0.324241
21
-0.24162
0
LINE
8
BLACK
6
CONTINUOUS
10
0.324241
20
-0.24162
11
0.324241
21
-0.260367
0
LINE
8
BLACK
6
CONTINUOUS
10
0.324241
20
-0.260367
11
0.320491
21
-0.275366
0
LINE
8
BLACK
6
CONTINUOUS
10
0.320491
20
-0.275366
11
0.316742
21
-0.282865
0
LINE
8
BLACK
6
CONTINUOUS
10
0.316742
20
-0.282865
11
0.312992
21
-0.286614
0
LINE
8
BLACK
6
CONTINUOUS
10
0.312992
20
-0.286614
11
0.305493
21
-0.290364
0
LINE
8
BLACK
6
CONTINUOUS
10
0.305493
20
-0.290364
11
0.297994
21
-0.290364
0
LINE
8
BLACK
6
CONTINUOUS
10
0.297994
20
-0.290364
11
0.290495
21
-0.286614
0
LINE
8
BLACK
6
CONTINUOUS
10
0.290495
20
-0.286614
11
0.286745
21
-0.282865
0
LINE
8
BLACK
6
CONTINUOUS
10
0.286745
20
-0.282865
11
0.282996
21
-0.275366
0
LINE
8
BLACK
6
CONTINUOUS
10
0.282996
20
-0.275366
11
0.279246
21
-0.260367
0
LINE
8
BLACK
6
CONTINUOUS
10
0.279246
20
-0.260367
11
0.279246
21
-0.24162
0
LINE
8
BLACK
6
CONTINUOUS
10
0.279246
20
-0.24162
11
0.282996
21
-0.226622
0
LINE
8
BLACK
6
CONTINUOUS
10
0.282996
20
-0.226622
11
0.286745
21
-0.219123
0
LINE
8
BLACK
6
CONTINUOUS
10
0.286745
20
-0.219123
11
0.290495
21
-0.215373
0
LINE
8
BLACK
6
CONTINUOUS
10
0.290495
20
-0.215373
11
0.297994
21
-0.211624
0
LINE
8
BLACK
6
CONTINUOUS
10
0.372985
20
-0.211624
11
0.380484
21
-0.211624
0
LINE
8
BLACK
6
CONTINUOUS
10
0.380484
20
-0.211624
11
0.387983
21
-0.215373
0
LINE
8
BLACK
6
CONTINUOUS
10
0.387983
20
-0.215373
11
0.391732
21
-0.219123
0
LINE
8
BLACK
6
CONTINUOUS
10
0.391732
20
-0.219123
11
0.395482
21
-0.226622
0
LINE
8
BLACK
6
CONTINUOUS
10
0.395482
20
-0.226622
11
0.399231
21
-0.24162
0
LINE
8
BLACK
6
CONTINUOUS
10
0.399231
20
-0.24162
11
0.399231
21
-0.260367
0
LINE
8
BLACK
6
CONTINUOUS
10
0.399231
20
-0.260367
11
0.395482
21
-0.275366
0
LINE
8
BLACK
6
CONTINUOUS
10
0.395482
20
-0.275366
11
0.391732
21
-0.282865
0
LINE
8
BLACK
6
CONTINUOUS
10
0.391732
20
-0.282865
11
0.387983
21
-0.286614
0
LINE
8
BLACK
6
CONTINUOUS
10
0.387983
20
-0.286614
11
0.380484
21
-0.290364
0
LINE
8
BLACK
6
CONTINUOUS
10
0.380484
20
-0.290364
11
0.372985
21
-0.290364
0
LINE
8
BLACK
6
CONTINUOUS
10
0.372985
20
-0.290364
11
0.365486
21
-0.286614
0
LINE
8
BLACK
6
CONTINUOUS
10
0.365486
20
-0.286614
11
0.361736
21
-0.282865
0
LINE
8
BLACK
6
CONTINUOUS
10
0.361736
20
-0.282865
11
0.357986
21
-0.275366
0
LINE
8
BLACK
6
CONTINUOUS
10
0.357986
20
-0.275366
11
0.354237
21
-0.260367
0
LINE
8
BLACK
6
CONTINUOUS
10
0.354237
20
-0.260367
11
0.354237
21
-0.24162
0
LINE
8
BLACK
6
CONTINUOUS
10
0.354237
20
-0.24162
11
0.357986
21
-0.226622
0
LINE
8
BLACK
6
CONTINUOUS
10
0.357986
20
-0.226622
11
0.361736
21
-0.219123
0
LINE
8
BLACK
6
CONTINUOUS
10
0.361736
20
-0.219123
11
0.365486
21
-0.215373
0
LINE
8
BLACK
6
CONTINUOUS
10
0.365486
20
-0.215373
11
0.372985
21
-0.211624
0
LINE
8
BLACK
6
CONTINUOUS
10
0.432977
20
-0.290364
11
0.432977
21
-0.23787
0
LINE
8
BLACK
6
CONTINUOUS
10
0.432977
20
-0.245369
11
0.436727
21
-0.24162
0
LINE
8
BLACK
6
CONTINUOUS
10
0.436727
20
-0.24162
11
0.444226
21
-0.23787
0
LINE
8
BLACK
6
CONTINUOUS
10
0.444226
20
-0.23787
11
0.455474
21
-0.23787
0
LINE
8
BLACK
6
CONTINUOUS
10
0.455474
20
-0.23787
11
0.462973
21
-0.24162
0
LINE
8
BLACK
6
CONTINUOUS
10
0.462973
20
-0.24162
11
0.466723
21
-0.249119
0
LINE
8
BLACK
6
CONTINUOUS
10
0.466723
20
-0.249119
11
0.466723
21
-0.290364
0
LINE
8
BLACK
6
CONTINUOUS
10
0.466723
20
-0.249119
11
0.470472
21
-0.24162
0
LINE
8
BLACK
6
CONTINUOUS
10
0.470472
20
-0.24162
11
0.477971
21
-0.23787
0
LINE
8
BLACK
6
CONTINUOUS
10
0.477971
20
-0.23787
11
0.48922
21
-0.23787
0
LINE
8
BLACK
6
CONTINUOUS
10
0.48922
20
-0.23787
11
0.496719
21
-0.24162
0
LINE
8
BLACK
6
CONTINUOUS
10
0.496719
20
-0.24162
11
0.500469
21
-0.249119
0
LINE
8
BLACK
6
CONTINUOUS
10
0.500469
20
-0.249119
11
0.500469
21
-0.290364
0
LINE
8
BLACK
6
CONTINUOUS
10
0.537964
20
-0.290364
11
0.537964
21
-0.23787
0
LINE
8
BLACK
6
CONTINUOUS
10
0.537964
20
-0.245369
11
0.541714
21
-0.24162
0
LINE
8
BLACK
6
CONTINUOUS
10
0.541714
20
-0.24162
11
0.549213
21
-0.23787
0
LINE
8
BLACK
6
CONTINUOUS
10
0.549213
20
-0.23787
11
0.560461
21
-0.23787
0
LINE
8
BLACK
6
CONTINUOUS
10
0.560461
20
-0.23787
11
0.56796
21
-0.24162
0
LINE
8
BLACK
6
CONTINUOUS
10
0.56796
20
-0.24162
11
0.57171
21
-0.249119
0
LINE
8
BLACK
6
CONTINUOUS
10
0.57171
20
-0.249119
11
0.57171
21
-0.290364
0
LINE
8
BLACK
6
CONTINUOUS
10
0.57171
20
-0.249119
11
0.575459
21
-0.24162
0
LINE
8
BLACK
6
CONTINUOUS
10
0.575459
20
-0.24162
11
0.582958
21
-0.23787
0
LINE
8
BLACK
6
CONTINUOUS
10
0.582958
20
-0.23787
11
0.594207
21
-0.23787
0
LINE
8
BLACK
6
CONTINUOUS
10
0.594207
20
-0.23787
11
0.601706
21
-0.24162
0
LINE
8
BLACK
6
CONTINUOUS
10
0.601706
20
-0.24162
11
0.605456
21
-0.249119
0
LINE
8
BLACK
6
CONTINUOUS
10
0.605456
20
-0.249119
11
0.605456
21
-0.290364
0
LINE
8
BLACK
6
CONTINUOUS
10
0.759186
20
-0.207874
11
0.691695
21
-0.309111
0
LINE
8
BLACK
6
CONTINUOUS
10
0.860424
20
-0.211624
11
0.867923
21
-0.211624
0
LINE
8
BLACK
6
CONTINUOUS
10
0.867923
20
-0.211624
11
0.875422
21
-0.215373
0
LINE
8
BLACK
6
CONTINUOUS
10
0.875422
20
-0.215373
11
0.879171
21
-0.219123
0
LINE
8
BLACK
6
CONTINUOUS
10
0.879171
20
-0.219123
11
0.882921
21
-0.226622
0
LINE
8
BLACK
6
CONTINUOUS
10
0.882921
20
-0.226622
11
0.88667
21
-0.24162
0
LINE
8
BLACK
6
CONTINUOUS
10
0.88667
20
-0.24162
11
0.88667
21
-0.260367
0
LINE
8
BLACK
6
CONTINUOUS
10
0.88667
20
-0.260367
11
0.882921
21
-0.275366
0
LINE
8
BLACK
6
CONTINUOUS
10
0.882921
20
-0.275366
11
0.879171
21
-0.282865
0
LINE
8
BLACK
6
CONTINUOUS
10
0.879171
20
-0.282865
11
0.875422
21
-0.286614
0
LINE
8
BLACK
6
CONTINUOUS
10
0.875422
20
-0.286614
11
0.867923
21
-0.290364
0
LINE
8
BLACK
6
CONTINUOUS
10
0.867923
20
-0.290364
11
0.860424
21
-0.290364
0
LINE
8
BLACK
6
CONTINUOUS
10
0.860424
20
-0.290364
11
0.852925
21
-0.286614
0
LINE
8
BLACK
6
CONTINUOUS
10
0.852925
20
-0.286614
11
0.849175
21
-0.282865
0
LINE
8
BLACK
6
CONTINUOUS
10
0.849175
20
-0.282865
11
0.845426
21
-0.275366
0
LINE
8
BLACK
6
CONTINUOUS
10
0.845426
20
-0.275366
11
0.841676
21
-0.260367
0
LINE
8
BLACK
6
CONTINUOUS
10
0.841676
20
-0.260367
11
0.841676
21
-0.24162
0
LINE
8
BLACK
6
CONTINUOUS
10
0.841676
20
-0.24162
11
0.845426
21
-0.226622
0
LINE
8
BLACK
6
CONTINUOUS
10
0.845426
20
-0.226622
11
0.849175
21
-0.219123
0
LINE
8
BLACK
6
CONTINUOUS
10
0.849175
20
-0.219123
11
0.852925
21
-0.215373
0
LINE
8
BLACK
6
CONTINUOUS
10
0.852925
20
-0.215373
11
0.860424
21
-0.211624
0
LINE
8
BLACK
6
CONTINUOUS
10
0.920416
20
-0.282865
11
0.924166
21
-0.286614
0
LINE
8
BLACK
6
CONTINUOUS
10
0.924166
20
-0.286614
11
0.920416
21
-0.290364
0
LINE
8
BLACK
6
CONTINUOUS
10
0.920416
20
-0.290364
11
0.916667
21
-0.286614
0
LINE
8
BLACK
6
CONTINUOUS
10
0.916667
20
-0.286614
11
0.920416
21
-0.282865
0
LINE
8
BLACK
6
CONTINUOUS
10
0.920416
20
-0.282865
11
0.920416
21
-0.290364
0
LINE
8
BLACK
6
CONTINUOUS
10
0.97291
20
-0.211624
11
0.980409
21
-0.211624
0
LINE
8
BLACK
6
CONTINUOUS
10
0.980409
20
-0.211624
11
0.987908
21
-0.215373
0
LINE
8
BLACK
6
CONTINUOUS
10
0.987908
20
-0.215373
11
0.991657
21
-0.219123
0
LINE
8
BLACK
6
CONTINUOUS
10
0.991657
20
-0.219123
11
0.995407
21
-0.226622
0
LINE
8
BLACK
6
CONTINUOUS
10
0.995407
20
-0.226622
11
0.999156
21
-0.24162
0
LINE
8
BLACK
6
CONTINUOUS
10
0.999156
20
-0.24162
11
0.999156
21
-0.260367
0
LINE
8
BLACK
6
CONTINUOUS
10
0.999156
20
-0.260367
11
0.995407
21
-0.275366
0
LINE
8
BLACK
6
CONTINUOUS
10
0.995407
20
-0.275366
11
0.991657
21
-0.282865
0
LINE
8
BLACK
6
CONTINUOUS
10
0.991657
20
-0.282865
11
0.987908
21
-0.286614
0
LINE
8
BLACK
6
CONTINUOUS
10
0.987908
20
-0.286614
11
0.980409
21
-0.290364
0
LINE
8
BLACK
6
CONTINUOUS
10
0.980409
20
-0.290364
11
0.97291
21
-0.290364
0
LINE
8
BLACK
6
CONTINUOUS
10
0.97291
20
-0.290364
11
0.965411
21
-0.286614
0
LINE
8
BLACK
6
CONTINUOUS
10
0.965411
20
-0.286614
11
0.961661
21
-0.282865
0
LINE
8
BLACK
6
CONTINUOUS
10
0.961661
20
-0.282865
11
0.957912
21
-0.275366
0
LINE
8
BLACK
6
CONTINUOUS
10
0.957912
20
-0.275366
11
0.954162
21
-0.260367
0
LINE
8
BLACK
6
CONTINUOUS
10
0.954162
20
-0.260367
11
0.954162
21
-0.24162
0
LINE
8
BLACK
6
CONTINUOUS
10
0.954162
20
-0.24162
11
0.957912
21
-0.226622
0
LINE
8
BLACK
6
CONTINUOUS
10
0.957912
20
-0.226622
11
0.961661
21
-0.219123
0
LINE
8
BLACK
6
CONTINUOUS
10
0.961661
20
-0.219123
11
0.965411
21
-0.215373
0
LINE
8
BLACK
6
CONTINUOUS
10
0.965411
20
-0.215373
11
0.97291
21
-0.211624
0
LINE
8
BLACK
6
CONTINUOUS
10
1.07415
20
-0.290364
11
1.02915
21
-0.290364
0
LINE
8
BLACK
6
CONTINUOUS
10
1.05165
20
-0.290364
11
1.05165
21
-0.211624
0
LINE
8
BLACK
6
CONTINUOUS
10
1.05165
20
-0.211624
11
1.04415
21
-0.222872
0
LINE
8
BLACK
6
CONTINUOUS
10
1.04415
20
-0.222872
11
1.03665
21
-0.230371
0
LINE
8
BLACK
6
CONTINUOUS
10
1.03665
20
-0.230371
11
1.02915
21
-0.234121
0
LINE
8
BLACK
6
CONTINUOUS
10
1.14539
20
-0.211624
11
1.10789
21
-0.211624
0
LINE
8
BLACK
6
CONTINUOUS
10
1.10789
20
-0.211624
11
1.10414
21
-0.249119
0
LINE
8
BLACK
6
CONTINUOUS
10
1.10414
20
-0.249119
11
1.10789
21
-0.245369
0
LINE
8
BLACK
6
CONTINUOUS
10
1.10789
20
-0.245369
11
1.11539
21
-0.24162
0
LINE
8
BLACK
6
CONTINUOUS
10
1.11539
20
-0.24162
11
1.13414
21
-0.24162
0
LINE
8
BLACK
6
CONTINUOUS
10
1.13414
20
-0.24162
11
1.14164
21
-0.245369
0
LINE
8
BLACK
6
CONTINUOUS
10
1.14164
20
-0.245369
11
1.14539
21
-0.249119
0
LINE
8
BLACK
6
CONTINUOUS
10
1.14539
20
-0.249119
11
1.14914
21
-0.256618
0
LINE
8
BLACK
6
CONTINUOUS
10
1.14914
20
-0.256618
11
1.14914
21
-0.275366
0
LINE
8
BLACK
6
CONTINUOUS
10
1.14914
20
-0.275366
11
1.14539
21
-0.282865
0
LINE
8
BLACK
6
CONTINUOUS
10
1.14539
20
-0.282865
11
1.14164
21
-0.286614
0
LINE
8
BLACK
6
CONTINUOUS
10
1.14164
20
-0.286614
11
1.13414
21
-0.290364
0
LINE
8
BLACK
6
CONTINUOUS
10
1.13414
20
-0.290364
11
1.11539
21
-0.290364
0
LINE
8
BLACK
6
CONTINUOUS
10
1.11539
20
-0.290364
11
1.10789
21
-0.286614
0
LINE
8
BLACK
6
CONTINUOUS
10
1.10789
20
-0.286614
11
1.10414
21
-0.282865
0
LINE
8
BLACK
6
CONTINUOUS
10
1.17538
20
-0.211624
11
1.22788
21
-0.211624
0
LINE
8
BLACK
6
CONTINUOUS
10
1.22788
20
-0.211624
11
1.19413
21
-0.290364
0
LINE
8
BLACK
6
CONTINUOUS
10
1.25412
20
-0.211624
11
1.25412
21
-0.226622
0
LINE
8
BLACK
6
CONTINUOUS
10
1.28412
20
-0.211624
11
1.28412
21
-0.226622
0
LINE
8
BLACK
6
CONTINUOUS
10
1.40036
20
-0.32036
11
1.39661
21
-0.31661
0
LINE
8
BLACK
6
CONTINUOUS
10
1.39661
20
-0.31661
11
1.38911
21
-0.305362
0
LINE
8
BLACK
6
CONTINUOUS
10
1.38911
20
-0.305362
11
1.38536
21
-0.297863
0
LINE
8
BLACK
6
CONTINUOUS
10
1.38536
20
-0.297863
11
1.38161
21
-0.286614
0
LINE
8
BLACK
6
CONTINUOUS
10
1.38161
20
-0.286614
11
1.37786
21
-0.267866
0
LINE
8
BLACK
6
CONTINUOUS
10
1.37786
20
-0.267866
11
1.37786
21
-0.252868
0
LINE
8
BLACK
6
CONTINUOUS
10
1.37786
20
-0.252868
11
1.38161
21
-0.234121
0
LINE
8
BLACK
6
CONTINUOUS
10
1.38161
20
-0.234121
11
1.38536
21
-0.222872
0
LINE
8
BLACK
6
CONTINUOUS
10
1.38536
20
-0.222872
11
1.38911
21
-0.215373
0
LINE
8
BLACK
6
CONTINUOUS
10
1.38911
20
-0.215373
11
1.39661
21
-0.204124
0
LINE
8
BLACK
6
CONTINUOUS
10
1.39661
20
-0.204124
11
1.40036
21
-0.200375
0
LINE
8
BLACK
6
CONTINUOUS
10
1.4266
20
-0.219123
11
1.43035
21
-0.215373
0
LINE
8
BLACK
6
CONTINUOUS
10
1.43035
20
-0.215373
11
1.43785
21
-0.211624
0
LINE
8
BLACK
6
CONTINUOUS
10
1.43785
20
-0.211624
11
1.4566
21
-0.211624
0
LINE
8
BLACK
6
CONTINUOUS
10
1.4566
20
-0.211624
11
1.4641
21
-0.215373
0
LINE
8
BLACK
6
CONTINUOUS
10
1.4641
20
-0.215373
11
1.46785
21
-0.219123
0
LINE
8
BLACK
6
CONTINUOUS
10
1.46785
20
-0.219123
11
1.4716
21
-0.226622
0
LINE
8
BLACK
6
CONTINUOUS
10
1.4716
20
-0.226622
11
1.4716
21
-0.234121
0
LINE
8
BLACK
6
CONTINUOUS
10
1.4716
20
-0.234121
11
1.46785
21
-0.245369
0
LINE
8
BLACK
6
CONTINUOUS
10
1.46785
20
-0.245369
11
1.42285
21
-0.290364
0
LINE
8
BLACK
6
CONTINUOUS
10
1.42285
20
-0.290364
11
1.4716
21
-0.290364
0
LINE
8
BLACK
6
CONTINUOUS
10
1.53909
20
-0.23787
11
1.53909
21
-0.290364
0
LINE
8
BLACK
6
CONTINUOUS
10
1.52034
20
-0.207874
11
1.50159
21
-0.264117
0
LINE
8
BLACK
6
CONTINUOUS
10
1.50159
20
-0.264117
11
1.55034
21
-0.264117
0
LINE
8
BLACK
6
CONTINUOUS
10
1.64033
20
-0.290364
11
1.64033
21
-0.211624
0
LINE
8
BLACK
6
CONTINUOUS
10
1.67407
20
-0.290364
11
1.67407
21
-0.249119
0
LINE
8
BLACK
6
CONTINUOUS
10
1.67407
20
-0.249119
11
1.67032
21
-0.24162
0
LINE
8
BLACK
6
CONTINUOUS
10
1.67032
20
-0.24162
11
1.66282
21
-0.23787
0
LINE
8
BLACK
6
CONTINUOUS
10
1.66282
20
-0.23787
11
1.65157
21
-0.23787
0
LINE
8
BLACK
6
CONTINUOUS
10
1.65157
20
-0.23787
11
1.64408
21
-0.24162
0
LINE
8
BLACK
6
CONTINUOUS
10
1.64408
20
-0.24162
11
1.64033
21
-0.245369
0
LINE
8
BLACK
6
CONTINUOUS
10
1.72282
20
-0.290364
11
1.71532
21
-0.286614
0
LINE
8
BLACK
6
CONTINUOUS
10
1.71532
20
-0.286614
11
1.71157
21
-0.282865
0
LINE
8
BLACK
6
CONTINUOUS
10
1.71157
20
-0.282865
11
1.70782
21
-0.275366
0
LINE
8
BLACK
6
CONTINUOUS
10
1.70782
20
-0.275366
11
1.70782
21
-0.252868
0
LINE
8
BLACK
6
CONTINUOUS
10
1.70782
20
-0.252868
11
1.71157
21
-0.245369
0
LINE
8
BLACK
6
CONTINUOUS
10
1.71157
20
-0.245369
11
1.71532
21
-0.24162
0
LINE
8
BLACK
6
CONTINUOUS
10
1.71532
20
-0.24162
11
1.72282
21
-0.23787
0
LINE
8
BLACK
6
CONTINUOUS
10
1.72282
20
-0.23787
11
1.73406
21
-0.23787
0
LINE
8
BLACK
6
CONTINUOUS
10
1.73406
20
-0.23787
11
1.74156
21
-0.24162
0
LINE
8
BLACK
6
CONTINUOUS
10
1.74156
20
-0.24162
11
1.74531
21
-0.245369
0
LINE
8
BLACK
6
CONTINUOUS
10
1.74531
20
-0.245369
11
1.74906
21
-0.252868
0
LINE
8
BLACK
6
CONTINUOUS
10
1.74906
20
-0.252868
11
1.74906
21
-0.275366
0
LINE
8
BLACK
6
CONTINUOUS
10
1.74906
20
-0.275366
11
1.74531
21
-0.282865
0
LINE
8
BLACK
6
CONTINUOUS
10
1.74531
20
-0.282865
11
1.74156
21
-0.286614
0
LINE
8
BLACK
6
CONTINUOUS
10
1.74156
20
-0.286614
11
1.73406
21
-0.290364
0
LINE
8
BLACK
6
CONTINUOUS
10
1.73406
20
-0.290364
11
1.72282
21
-0.290364
0
LINE
8
BLACK
6
CONTINUOUS
10
1.79406
20
-0.290364
11
1.78656
21
-0.286614
0
LINE
8
BLACK
6
CONTINUOUS
10
1.78656
20
-0.286614
11
1.78281
21
-0.279115
0
LINE
8
BLACK
6
CONTINUOUS
10
1.78281
20
-0.279115
11
1.78281
21
-0.211624
0
LINE
8
BLACK
6
CONTINUOUS
10
1.85405
20
-0.286614
11
1.84655
21
-0.290364
0
LINE
8
BLACK
6
CONTINUOUS
10
1.84655
20
-0.290364
11
1.83155
21
-0.290364
0
LINE
8
BLACK
6
CONTINUOUS
10
1.83155
20
-0.290364
11
1.82405
21
-0.286614
0
LINE
8
BLACK
6
CONTINUOUS
10
1.82405
20
-0.286614
11
1.8203
21
-0.279115
0
LINE
8
BLACK
6
CONTINUOUS
10
1.8203
20
-0.279115
11
1.8203
21
-0.249119
0
LINE
8
BLACK
6
CONTINUOUS
10
1.8203
20
-0.249119
11
1.82405
21
-0.24162
0
LINE
8
BLACK
6
CONTINUOUS
10
1.82405
20
-0.24162
11
1.83155
21
-0.23787
0
LINE
8
BLACK
6
CONTINUOUS
10
1.83155
20
-0.23787
11
1.84655
21
-0.23787
0
LINE
8
BLACK
6
CONTINUOUS
10
1.84655
20
-0.23787
11
1.85405
21
-0.24162
0
LINE
8
BLACK
6
CONTINUOUS
10
1.85405
20
-0.24162
11
1.8578
21
-0.249119
0
LINE
8
BLACK
6
CONTINUOUS
10
1.8578
20
-0.249119
11
1.8578
21
-0.256618
0
LINE
8
BLACK
6
CONTINUOUS
10
1.8578
20
-0.256618
11
1.8203
21
-0.264117
0
LINE
8
BLACK
6
CONTINUOUS
10
1.8878
20
-0.286614
11
1.89529
21
-0.290364
0
LINE
8
BLACK
6
CONTINUOUS
10
1.89529
20
-0.290364
11
1.91029
21
-0.290364
0
LINE
8
BLACK
6
CONTINUOUS
10
1.91029
20
-0.290364
11
1.91779
21
-0.286614
0
LINE
8
BLACK
6
CONTINUOUS
10
1.91779
20
-0.286614
11
1.92154
21
-0.279115
0
LINE
8
BLACK
6
CONTINUOUS
10
1.92154
20
-0.279115
11
1.92154
21
-0.275366
0
LINE
8
BLACK
6
CONTINUOUS
10
1.92154
20
-0.275366
11
1.91779
21
-0.267866
0
LINE
8
BLACK
6
CONTINUOUS
10
1.91779
20
-0.267866
11
1.91029
21
-0.264117
0
LINE
8
BLACK
6
CONTINUOUS
10
1.91029
20
-0.264117
11
1.89904
21
-0.264117
0
LINE
8
BLACK
6
CONTINUOUS
10
1.89904
20
-0.264117
11
1.89154
21
-0.260367
0
LINE
8
BLACK
6
CONTINUOUS
10
1.89154
20
-0.260367
11
1.8878
21
-0.252868
0
LINE
8
BLACK
6
CONTINUOUS
10
1.8878
20
-0.252868
11
1.8878
21
-0.249119
0
LINE
8
BLACK
6
CONTINUOUS
10
1.8878
20
-0.249119
11
1.89154
21
-0.24162
0
LINE
8
BLACK
6
CONTINUOUS
10
1.89154
20
-0.24162
11
1.89904
21
-0.23787
0
LINE
8
BLACK
6
CONTINUOUS
10
1.89904
20
-0.23787
11
1.91029
21
-0.23787
0
LINE
8
BLACK
6
CONTINUOUS
10
1.91029
20
-0.23787
11
1.91779
21
-0.24162
0
LINE
8
BLACK
6
CONTINUOUS
10
1.94779
20
-0.32036
11
1.95154
21
-0.31661
0
LINE
8
BLACK
6
CONTINUOUS
10
1.95154
20
-0.31661
11
1.95904
21
-0.305362
0
LINE
8
BLACK
6
CONTINUOUS
10
1.95904
20
-0.305362
11
1.96279
21
-0.297863
0
LINE
8
BLACK
6
CONTINUOUS
10
1.96279
20
-0.297863
11
1.96654
21
-0.286614
0
LINE
8
BLACK
6
CONTINUOUS
10
1.96654
20
-0.286614
11
1.97029
21
-0.267866
0
LINE
8
BLACK
6
CONTINUOUS
10
1.97029
20
-0.267866
11
1.97029
21
-0.252868
0
LINE
8
BLACK
6
CONTINUOUS
10
1.97029
20
-0.252868
11
1.96654
21
-0.234121
0
LINE
8
BLACK
6
CONTINUOUS
10
1.96654
20
-0.234121
11
1.96279
21
-0.222872
0
LINE
8
BLACK
6
CONTINUOUS
10
1.96279
20
-0.222872
11
1.95904
21
-0.215373
0
LINE
8
BLACK
6
CONTINUOUS
10
1.95904
20
-0.215373
11
1.95154
21
-0.204124
0
LINE
8
BLACK
6
CONTINUOUS
10
1.95154
20
-0.204124
11
1.94779
21
-0.200375
0
CIRCLE
8
BLACK
10
-0.0165354
20
-0.357874
40
0.0145669
0
LINE
8
BLACK
6
CONTINUOUS
10
0.110517
20
-0.315561
11
0.118016
21
-0.315561
0
LINE
8
BLACK
6
CONTINUOUS
10
0.118016
20
-0.315561
11
0.125516
21
-0.31931
0
LINE
8
BLACK
6
CONTINUOUS
10
0.125516
20
-0.31931
11
0.129265
21
-0.32306
0
LINE
8
BLACK
6
CONTINUOUS
10
0.129265
20
-0.32306
11
0.133015
21
-0.330559
0
LINE
8
BLACK
6
CONTINUOUS
10
0.133015
20
-0.330559
11
0.136764
21
-0.345557
0
LINE
8
BLACK
6
CONTINUOUS
10
0.136764
20
-0.345557
11
0.136764
21
-0.364304
0
LINE
8
BLACK
6
CONTINUOUS
10
0.136764
20
-0.364304
11
0.133015
21
-0.379303
0
LINE
8
BLACK
6
CONTINUOUS
10
0.133015
20
-0.379303
11
0.129265
21
-0.386802
0
LINE
8
BLACK
6
CONTINUOUS
10
0.129265
20
-0.386802
11
0.125516
21
-0.390551
0
LINE
8
BLACK
6
CONTINUOUS
10
0.125516
20
-0.390551
11
0.118016
21
-0.394301
0
LINE
8
BLACK
6
CONTINUOUS
10
0.118016
20
-0.394301
11
0.110517
21
-0.394301
0
LINE
8
BLACK
6
CONTINUOUS
10
0.110517
20
-0.394301
11
0.103018
21
-0.390551
0
LINE
8
BLACK
6
CONTINUOUS
10
0.103018
20
-0.390551
11
0.0992688
21
-0.386802
0
LINE
8
BLACK
6
CONTINUOUS
10
0.0992688
20
-0.386802
11
0.0955193
21
-0.379303
0
LINE
8
BLACK
6
CONTINUOUS
10
0.0955193
20
-0.379303
11
0.0917698
21
-0.364304
0
LINE
8
BLACK
6
CONTINUOUS
10
0.0917698
20
-0.364304
11
0.0917698
21
-0.345557
0
LINE
8
BLACK
6
CONTINUOUS
10
0.0917698
20
-0.345557
11
0.0955193
21
-0.330559
0
LINE
8
BLACK
6
CONTINUOUS
10
0.0955193
20
-0.330559
11
0.0992688
21
-0.32306
0
LINE
8
BLACK
6
CONTINUOUS
10
0.0992688
20
-0.32306
11
0.103018
21
-0.31931
0
LINE
8
BLACK
6
CONTINUOUS
10
0.103018
20
-0.31931
11
0.110517
21
-0.315561
0
LINE
8
BLACK
6
CONTINUOUS
10
0.17051
20
-0.386802
11
0.174259
21
-0.390551
0
LINE
8
BLACK
6
CONTINUOUS
10
0.174259
20
-0.390551
11
0.17051
21
-0.394301
0
LINE
8
BLACK
6
CONTINUOUS
10
0.17051
20
-0.394301
11
0.16676
21
-0.390551
0
LINE
8
BLACK
6
CONTINUOUS
10
0.16676
20
-0.390551
11
0.17051
21
-0.386802
0
LINE
8
BLACK
6
CONTINUOUS
10
0.17051
20
-0.386802
11
0.17051
21
-0.394301
0
LINE
8
BLACK
6
CONTINUOUS
10
0.200506
20
-0.315561
11
0.253
21
-0.315561
0
LINE
8
BLACK
6
CONTINUOUS
10
0.253
20
-0.315561
11
0.219254
21
-0.394301
0
LINE
8
BLACK
6
CONTINUOUS
10
0.316742
20
-0.341807
11
0.316742
21
-0.394301
0
LINE
8
BLACK
6
CONTINUOUS
10
0.297994
20
-0.311811
11
0.279246
21
-0.368054
0
LINE
8
BLACK
6
CONTINUOUS
10
0.279246
20
-0.368054
11
0.32799
21
-0.368054
0
LINE
8
BLACK
6
CONTINUOUS
10
0.372985
20
-0.315561
11
0.380484
21
-0.315561
0
LINE
8
BLACK
6
CONTINUOUS
10
0.380484
20
-0.315561
11
0.387983
21
-0.31931
0
LINE
8
BLACK
6
CONTINUOUS
10
0.387983
20
-0.31931
11
0.391732
21
-0.32306
0
LINE
8
BLACK
6
CONTINUOUS
10
0.391732
20
-0.32306
11
0.395482
21
-0.330559
0
LINE
8
BLACK
6
CONTINUOUS
10
0.395482
20
-0.330559
11
0.399231
21
-0.345557
0
LINE
8
BLACK
6
CONTINUOUS
10
0.399231
20
-0.345557
11
0.399231
21
-0.364304
0
LINE
8
BLACK
6
CONTINUOUS
10
0.399231
20
-0.364304
11
0.395482
21
-0.379303
0
LINE
8
BLACK
6
CONTINUOUS
10
0.395482
20
-0.379303
11
0.391732
21
-0.386802
0
LINE
8
BLACK
6
CONTINUOUS
10
0.391732
20
-0.386802
11
0.387983
21
-0.390551
0
LINE
8
BLACK
6
CONTINUOUS
10
0.387983
20
-0.390551
11
0.380484
21
-0.394301
0
LINE
8
BLACK
6
CONTINUOUS
10
0.380484
20
-0.394301
11
0.372985
21
-0.394301
0
LINE
8
BLACK
6
CONTINUOUS
10
0.372985
20
-0.394301
11
0.365486
21
-0.390551
0
LINE
8
BLACK
6
CONTINUOUS
10
0.365486
20
-0.390551
11
0.361736
21
-0.386802
0
LINE
8
BLACK
6
CONTINUOUS
10
0.361736
20
-0.386802
11
0.357986
21
-0.379303
0
LINE
8
BLACK
6
CONTINUOUS
10
0.357986
20
-0.379303
11
0.354237
21
-0.364304
0
LINE
8
BLACK
6
CONTINUOUS
10
0.354237
20
-0.364304
11
0.354237
21
-0.345557
0
LINE
8
BLACK
6
CONTINUOUS
10
0.354237
20
-0.345557
11
0.357986
21
-0.330559
0
LINE
8
BLACK
6
CONTINUOUS
10
0.357986
20
-0.330559
11
0.361736
21
-0.32306
0
LINE
8
BLACK
6
CONTINUOUS
10
0.361736
20
-0.32306
11
0.365486
21
-0.31931
0
LINE
8
BLACK
6
CONTINUOUS
10
0.365486
20
-0.31931
11
0.372985
21
-0.315561
0
LINE
8
BLACK
6
CONTINUOUS
10
0.432977
20
-0.394301
11
0.432977
21
-0.341807
0
LINE
8
BLACK
6
CONTINUOUS
10
0.432977
20
-0.349306
11
0.436727
21
-0.345557
0
LINE
8
BLACK
6
CONTINUOUS
10
0.436727
20
-0.345557
11
0.444226
21
-0.341807
0
LINE
8
BLACK
6
CONTINUOUS
10
0.444226
20
-0.341807
11
0.455474
21
-0.341807
0
LINE
8
BLACK
6
CONTINUOUS
10
0.455474
20
-0.341807
11
0.462973
21
-0.345557
0
LINE
8
BLACK
6
CONTINUOUS
10
0.462973
20
-0.345557
11
0.466723
21
-0.353056
0
LINE
8
BLACK
6
CONTINUOUS
10
0.466723
20
-0.353056
11
0.466723
21
-0.394301
0
LINE
8
BLACK
6
CONTINUOUS
10
0.466723
20
-0.353056
11
0.470472
21
-0.345557
0
LINE
8
BLACK
6
CONTINUOUS
10
0.470472
20
-0.345557
11
0.477971
21
-0.341807
0
LINE
8
BLACK
6
CONTINUOUS
10
0.477971
20
-0.341807
11
0.48922
21
-0.341807
0
LINE
8
BLACK
6
CONTINUOUS
10
0.48922
20
-0.341807
11
0.496719
21
-0.345557
0
LINE
8
BLACK
6
CONTINUOUS
10
0.496719
20
-0.345557
11
0.500469
21
-0.353056
0
LINE
8
BLACK
6
CONTINUOUS
10
0.500469
20
-0.353056
11
0.500469
21
-0.394301
0
LINE
8
BLACK
6
CONTINUOUS
10
0.537964
20
-0.394301
11
0.537964
21
-0.341807
0
LINE
8
BLACK
6
CONTINUOUS
10
0.537964
20
-0.349306
11
0.541714
21
-0.345557
0
LINE
8
BLACK
6
CONTINUOUS
10
0.541714
20
-0.345557
11
0.549213
21
-0.341807
0
LINE
8
BLACK
6
CONTINUOUS
10
0.549213
20
-0.341807
11
0.560461
21
-0.341807
0
LINE
8
BLACK
6
CONTINUOUS
10
0.560461
20
-0.341807
11
0.56796
21
-0.345557
0
LINE
8
BLACK
6
CONTINUOUS
10
0.56796
20
-0.345557
11
0.57171
21
-0.353056
0
LINE
8
BLACK
6
CONTINUOUS
10
0.57171
20
-0.353056
11
0.57171
21
-0.394301
0
LINE
8
BLACK
6
CONTINUOUS
10
0.57171
20
-0.353056
11
0.575459
21
-0.345557
0
LINE
8
BLACK
6
CONTINUOUS
10
0.575459
20
-0.345557
11
0.582958
21
-0.341807
0
LINE
8
BLACK
6
CONTINUOUS
10
0.582958
20
-0.341807
11
0.594207
21
-0.341807
0
LINE
8
BLACK
6
CONTINUOUS
10
0.594207
20
-0.341807
11
0.601706
21
-0.345557
0
LINE
8
BLACK
6
CONTINUOUS
10
0.601706
20
-0.345557
11
0.605456
21
-0.353056
0
LINE
8
BLACK
6
CONTINUOUS
10
0.605456
20
-0.353056
11
0.605456
21
-0.394301
0
LINE
8
BLACK
6
CONTINUOUS
10
0.759186
20
-0.311811
11
0.691695
21
-0.413048
0
LINE
8
BLACK
6
CONTINUOUS
10
0.860424
20
-0.315561
11
0.867923
21
-0.315561
0
LINE
8
BLACK
6
CONTINUOUS
10
0.867923
20
-0.315561
11
0.875422
21
-0.31931
0
LINE
8
BLACK
6
CONTINUOUS
10
0.875422
20
-0.31931
11
0.879171
21
-0.32306
0
LINE
8
BLACK
6
CONTINUOUS
10
0.879171
20
-0.32306
11
0.882921
21
-0.330559
0
LINE
8
BLACK
6
CONTINUOUS
10
0.882921
20
-0.330559
11
0.88667
21
-0.345557
0
LINE
8
BLACK
6
CONTINUOUS
10
0.88667
20
-0.345557
11
0.88667
21
-0.364304
0
LINE
8
BLACK
6
CONTINUOUS
10
0.88667
20
-0.364304
11
0.882921
21
-0.379303
0
LINE
8
BLACK
6
CONTINUOUS
10
0.882921
20
-0.379303
11
0.879171
21
-0.386802
0
LINE
8
BLACK
6
CONTINUOUS
10
0.879171
20
-0.386802
11
0.875422
21
-0.390551
0
LINE
8
BLACK
6
CONTINUOUS
10
0.875422
20
-0.390551
11
0.867923
21
-0.394301
0
LINE
8
BLACK
6
CONTINUOUS
10
0.867923
20
-0.394301
11
0.860424
21
-0.394301
0
LINE
8
BLACK
6
CONTINUOUS
10
0.860424
20
-0.394301
11
0.852925
21
-0.390551
0
LINE
8
BLACK
6
CONTINUOUS
10
0.852925
20
-0.390551
11
0.849175
21
-0.386802
0
LINE
8
BLACK
6
CONTINUOUS
10
0.849175
20
-0.386802
11
0.845426
21
-0.379303
0
LINE
8
BLACK
6
CONTINUOUS
10
0.845426
20
-0.379303
11
0.841676
21
-0.364304
0
LINE
8
BLACK
6
CONTINUOUS
10
0.841676
20
-0.364304
11
0.841676
21
-0.345557
0
LINE
8
BLACK
6
CONTINUOUS
10
0.841676
20
-0.345557
11
0.845426
21
-0.330559
0
LINE
8
BLACK
6
CONTINUOUS
10
0.845426
20
-0.330559
11
0.849175
21
-0.32306
0
LINE
8
BLACK
6
CONTINUOUS
10
0.849175
20
-0.32306
11
0.852925
21
-0.31931
0
LINE
8
BLACK
6
CONTINUOUS
10
0.852925
20
-0.31931
11
0.860424
21
-0.315561
0
LINE
8
BLACK
6
CONTINUOUS
10
0.920416
20
-0.386802
11
0.924166
21
-0.390551
0
LINE
8
BLACK
6
CONTINUOUS
10
0.924166
20
-0.390551
11
0.920416
21
-0.394301
0
LINE
8
BLACK
6
CONTINUOUS
10
0.920416
20
-0.394301
11
0.916667
21
-0.390551
0
LINE
8
BLACK
6
CONTINUOUS
10
0.916667
20
-0.390551
11
0.920416
21
-0.386802
0
LINE
8
BLACK
6
CONTINUOUS
10
0.920416
20
-0.386802
11
0.920416
21
-0.394301
0
LINE
8
BLACK
6
CONTINUOUS
10
0.97291
20
-0.315561
11
0.980409
21
-0.315561
0
LINE
8
BLACK
6
CONTINUOUS
10
0.980409
20
-0.315561
11
0.987908
21
-0.31931
0
LINE
8
BLACK
6
CONTINUOUS
10
0.987908
20
-0.31931
11
0.991657
21
-0.32306
0
LINE
8
BLACK
6
CONTINUOUS
10
0.991657
20
-0.32306
11
0.995407
21
-0.330559
0
LINE
8
BLACK
6
CONTINUOUS
10
0.995407
20
-0.330559
11
0.999156
21
-0.345557
0
LINE
8
BLACK
6
CONTINUOUS
10
0.999156
20
-0.345557
11
0.999156
21
-0.364304
0
LINE
8
BLACK
6
CONTINUOUS
10
0.999156
20
-0.364304
11
0.995407
21
-0.379303
0
LINE
8
BLACK
6
CONTINUOUS
10
0.995407
20
-0.379303
11
0.991657
21
-0.386802
0
LINE
8
BLACK
6
CONTINUOUS
10
0.991657
20
-0.386802
11
0.987908
21
-0.390551
0
LINE
8
BLACK
6
CONTINUOUS
10
0.987908
20
-0.390551
11
0.980409
21
-0.394301
0
LINE
8
BLACK
6
CONTINUOUS
10
0.980409
20
-0.394301
11
0.97291
21
-0.394301
0
LINE
8
BLACK
6
CONTINUOUS
10
0.97291
20
-0.394301
11
0.965411
21
-0.390551
0
LINE
8
BLACK
6
CONTINUOUS
10
0.965411
20
-0.390551
11
0.961661
21
-0.386802
0
LINE
8
BLACK
6
CONTINUOUS
10
0.961661
20
-0.386802
11
0.957912
21
-0.379303
0
LINE
8
BLACK
6
CONTINUOUS
10
0.957912
20
-0.379303
11
0.954162
21
-0.364304
0
LINE
8
BLACK
6
CONTINUOUS
10
0.954162
20
-0.364304
11
0.954162
21
-0.345557
0
LINE
8
BLACK
6
CONTINUOUS
10
0.954162
20
-0.345557
11
0.957912
21
-0.330559
0
LINE
8
BLACK
6
CONTINUOUS
10
0.957912
20
-0.330559
11
0.961661
21
-0.32306
0
LINE
8
BLACK
6
CONTINUOUS
10
0.961661
20
-0.32306
11
0.965411
21
-0.31931
0
LINE
8
BLACK
6
CONTINUOUS
10
0.965411
20
-0.31931
11
0.97291
21
-0.315561
0
LINE
8
BLACK
6
CONTINUOUS
10
1.02915
20
-0.32306
11
1.0329
21
-0.31931
0
LINE
8
BLACK
6
CONTINUOUS
10
1.0329
20
-0.31931
11
1.0404
21
-0.315561
0
LINE
8
BLACK
6
CONTINUOUS
10
1.0404
20
-0.315561
11
1.05915
21
-0.315561
0
LINE
8
BLACK
6
CONTINUOUS
10
1.05915
20
-0.315561
11
1.06665
21
-0.31931
0
LINE
8
BLACK
6
CONTINUOUS
10
1.06665
20
-0.31931
11
1.0704
21
-0.32306
0
LINE
8
BLACK
6
CONTINUOUS
10
1.0704
20
-0.32306
11
1.07415
21
-0.330559
0
LINE
8
BLACK
6
CONTINUOUS
10
1.07415
20
-0.330559
11
1.07415
21
-0.338058
0
LINE
8
BLACK
6
CONTINUOUS
10
1.07415
20
-0.338058
11
1.0704
21
-0.349306
0
LINE
8
BLACK
6
CONTINUOUS
10
1.0704
20
-0.349306
11
1.0254
21
-0.394301
0
LINE
8
BLACK
6
CONTINUOUS
10
1.0254
20
-0.394301
11
1.07415
21
-0.394301
0
LINE
8
BLACK
6
CONTINUOUS
10
1.11164
20
-0.394301
11
1.12664
21
-0.394301
0
LINE
8
BLACK
6
CONTINUOUS
10
1.12664
20
-0.394301
11
1.13414
21
-0.390551
0
LINE
8
BLACK
6
CONTINUOUS
10
1.13414
20
-0.390551
11
1.13789
21
-0.386802
0
LINE
8
BLACK
6
CONTINUOUS
10
1.13789
20
-0.386802
11
1.14539
21
-0.375553
0
LINE
8
BLACK
6
CONTINUOUS
10
1.14539
20
-0.375553
11
1.14914
21
-0.360555
0
LINE
8
BLACK
6
CONTINUOUS
10
1.14914
20
-0.360555
11
1.14914
21
-0.330559
0
LINE
8
BLACK
6
CONTINUOUS
10
1.14914
20
-0.330559
11
1.14539
21
-0.32306
0
LINE
8
BLACK
6
CONTINUOUS
10
1.14539
20
-0.32306
11
1.14164
21
-0.31931
0
LINE
8
BLACK
6
CONTINUOUS
10
1.14164
20
-0.31931
11
1.13414
21
-0.315561
0
LINE
8
BLACK
6
CONTINUOUS
10
1.13414
20
-0.315561
11
1.11914
21
-0.315561
0
LINE
8
BLACK
6
CONTINUOUS
10
1.11914
20
-0.315561
11
1.11164
21
-0.31931
0
LINE
8
BLACK
6
CONTINUOUS
10
1.11164
20
-0.31931
11
1.10789
21
-0.32306
0
LINE
8
BLACK
6
CONTINUOUS
10
1.10789
20
-0.32306
11
1.10414
21
-0.330559
0
LINE
8
BLACK
6
CONTINUOUS
10
1.10414
20
-0.330559
11
1.10414
21
-0.349306
0
LINE
8
BLACK
6
CONTINUOUS
10
1.10414
20
-0.349306
11
1.10789
21
-0.356805
0
LINE
8
BLACK
6
CONTINUOUS
10
1.10789
20
-0.356805
11
1.11164
21
-0.360555
0
LINE
8
BLACK
6
CONTINUOUS
10
1.11164
20
-0.360555
11
1.11914
21
-0.364304
0
LINE
8
BLACK
6
CONTINUOUS
10
1.11914
20
-0.364304
11
1.13414
21
-0.364304
0
LINE
8
BLACK
6
CONTINUOUS
10
1.13414
20
-0.364304
11
1.14164
21
-0.360555
0
LINE
8
BLACK
6
CONTINUOUS
10
1.14164
20
-0.360555
11
1.14539
21
-0.356805
0
LINE
8
BLACK
6
CONTINUOUS
10
1.14539
20
-0.356805
11
1.14914
21
-0.349306
0
LINE
8
BLACK
6
CONTINUOUS
10
1.22413
20
-0.394301
11
1.17913
21
-0.394301
0
LINE
8
BLACK
6
CONTINUOUS
10
1.20163
20
-0.394301
11
1.20163
21
-0.315561
0
LINE
8
BLACK
6
CONTINUOUS
10
1.20163
20
-0.315561
11
1.19413
21
-0.326809
0
LINE
8
BLACK
6
CONTINUOUS
10
1.19413
20
-0.326809
11
1.18663
21
-0.334308
0
LINE
8
BLACK
6
CONTINUOUS
10
1.18663
20
-0.334308
11
1.17913
21
-0.338058
0
LINE
8
BLACK
6
CONTINUOUS
10
1.25412
20
-0.315561
11
1.25412
21
-0.330559
0
LINE
8
BLACK
6
CONTINUOUS
10
1.28412
20
-0.315561
11
1.28412
21
-0.330559
0
LINE
8
BLACK
6
CONTINUOUS
10
1.40036
20
-0.424297
11
1.39661
21
-0.420547
0
LINE
8
BLACK
6
CONTINUOUS
10
1.39661
20
-0.420547
11
1.38911
21
-0.409299
0
LINE
8
BLACK
6
CONTINUOUS
10
1.38911
20
-0.409299
11
1.38536
21
-0.4018
0
LINE
8
BLACK
6
CONTINUOUS
10
1.38536
20
-0.4018
11
1.38161
21
-0.390551
0
LINE
8
BLACK
6
CONTINUOUS
10
1.38161
20
-0.390551
11
1.37786
21
-0.371804
0
LINE
8
BLACK
6
CONTINUOUS
10
1.37786
20
-0.371804
11
1.37786
21
-0.356805
0
LINE
8
BLACK
6
CONTINUOUS
10
1.37786
20
-0.356805
11
1.38161
21
-0.338058
0
LINE
8
BLACK
6
CONTINUOUS
10
1.38161
20
-0.338058
11
1.38536
21
-0.326809
0
LINE
8
BLACK
6
CONTINUOUS
10
1.38536
20
-0.326809
11
1.38911
21
-0.31931
0
LINE
8
BLACK
6
CONTINUOUS
10
1.38911
20
-0.31931
11
1.39661
21
-0.308061
0
LINE
8
BLACK
6
CONTINUOUS
10
1.39661
20
-0.308061
11
1.40036
21
-0.304312
0
LINE
8
BLACK
6
CONTINUOUS
10
1.4266
20
-0.32306
11
1.43035
21
-0.31931
0
LINE
8
BLACK
6
CONTINUOUS
10
1.43035
20
-0.31931
11
1.43785
21
-0.315561
0
LINE
8
BLACK
6
CONTINUOUS
10
1.43785
20
-0.315561
11
1.4566
21
-0.315561
0
LINE
8
BLACK
6
CONTINUOUS
10
1.4566
20
-0.315561
11
1.4641
21
-0.31931
0
LINE
8
BLACK
6
CONTINUOUS
10
1.4641
20
-0.31931
11
1.46785
21
-0.32306
0
LINE
8
BLACK
6
CONTINUOUS
10
1.46785
20
-0.32306
11
1.4716
21
-0.330559
0
LINE
8
BLACK
6
CONTINUOUS
10
1.4716
20
-0.330559
11
1.4716
21
-0.338058
0
LINE
8
BLACK
6
CONTINUOUS
10
1.4716
20
-0.338058
11
1.46785
21
-0.349306
0
LINE
8
BLACK
6
CONTINUOUS
10
1.46785
20
-0.349306
11
1.42285
21
-0.394301
0
LINE
8
BLACK
6
CONTINUOUS
10
1.42285
20
-0.394301
11
1.4716
21
-0.394301
0
LINE
8
BLACK
6
CONTINUOUS
10
1.56534
20
-0.394301
11
1.56534
21
-0.315561
0
LINE
8
BLACK
6
CONTINUOUS
10
1.59908
20
-0.394301
11
1.59908
21
-0.353056
0
LINE
8
BLACK
6
CONTINUOUS
10
1.59908
20
-0.353056
11
1.59533
21
-0.345557
0
LINE
8
BLACK
6
CONTINUOUS
10
1.59533
20
-0.345557
11
1.58783
21
-0.341807
0
LINE
8
BLACK
6
CONTINUOUS
10
1.58783
20
-0.341807
11
1.57658
21
-0.341807
0
LINE
8
BLACK
6
CONTINUOUS
10
1.57658
20
-0.341807
11
1.56909
21
-0.345557
0
LINE
8
BLACK
6
CONTINUOUS
10
1.56909
20
-0.345557
11
1.56534
21
-0.349306
0
LINE
8
BLACK
6
CONTINUOUS
10
1.64783
20
-0.394301
11
1.64033
21
-0.390551
0
LINE
8
BLACK
6
CONTINUOUS
10
1.64033
20
-0.390551
11
1.63658
21
-0.386802
0
LINE
8
BLACK
6
CONTINUOUS
10
1.63658
20
-0.386802
11
1.63283
21
-0.379303
0
LINE
8
BLACK
6
CONTINUOUS
10
1.63283
20
-0.379303
11
1.63283
21
-0.356805
0
LINE
8
BLACK
6
CONTINUOUS
10
1.63283
20
-0.356805
11
1.63658
21
-0.349306
0
LINE
8
BLACK
6
CONTINUOUS
10
1.63658
20
-0.349306
11
1.64033
21
-0.345557
0
LINE
8
BLACK
6
CONTINUOUS
10
1.64033
20
-0.345557
11
1.64783
21
-0.341807
0
LINE
8
BLACK
6
CONTINUOUS
10
1.64783
20
-0.341807
11
1.65907
21
-0.341807
0
LINE
8
BLACK
6
CONTINUOUS
10
1.65907
20
-0.341807
11
1.66657
21
-0.345557
0
LINE
8
BLACK
6
CONTINUOUS
10
1.66657
20
-0.345557
11
1.67032
21
-0.349306
0
LINE
8
BLACK
6
CONTINUOUS
10
1.67032
20
-0.349306
11
1.67407
21
-0.356805
0
LINE
8
BLACK
6
CONTINUOUS
10
1.67407
20
-0.356805
11
1.67407
21
-0.379303
0
LINE
8
BLACK
6
CONTINUOUS
10
1.67407
20
-0.379303
11
1.67032
21
-0.386802
0
LINE
8
BLACK
6
CONTINUOUS
10
1.67032
20
-0.386802
11
1.66657
21
-0.390551
0
LINE
8
BLACK
6
CONTINUOUS
10
1.66657
20
-0.390551
11
1.65907
21
-0.394301
0
LINE
8
BLACK
6
CONTINUOUS
10
1.65907
20
-0.394301
11
1.64783
21
-0.394301
0
LINE
8
BLACK
6
CONTINUOUS
10
1.71907
20
-0.394301
11
1.71157
21
-0.390551
0
LINE
8
BLACK
6
CONTINUOUS
10
1.71157
20
-0.390551
11
1.70782
21
-0.383052
0
LINE
8
BLACK
6
CONTINUOUS
10
1.70782
20
-0.383052
11
1.70782
21
-0.315561
0
LINE
8
BLACK
6
CONTINUOUS
10
1.77906
20
-0.390551
11
1.77156
21
-0.394301
0
LINE
8
BLACK
6
CONTINUOUS
10
1.77156
20
-0.394301
11
1.75656
21
-0.394301
0
LINE
8
BLACK
6
CONTINUOUS
10
1.75656
20
-0.394301
11
1.74906
21
-0.390551
0
LINE
8
BLACK
6
CONTINUOUS
10
1.74906
20
-0.390551
11
1.74531
21
-0.383052
0
LINE
8
BLACK
6
CONTINUOUS
10
1.74531
20
-0.383052
11
1.74531
21
-0.353056
0
LINE
8
BLACK
6
CONTINUOUS
10
1.74531
20
-0.353056
11
1.74906
21
-0.345557
0
LINE
8
BLACK
6
CONTINUOUS
10
1.74906
20
-0.345557
11
1.75656
21
-0.341807
0
LINE
8
BLACK
6
CONTINUOUS
10
1.75656
20
-0.341807
11
1.77156
21
-0.341807
0
LINE
8
BLACK
6
CONTINUOUS
10
1.77156
20
-0.341807
11
1.77906
21
-0.345557
0
LINE
8
BLACK
6
CONTINUOUS
10
1.77906
20
-0.345557
11
1.78281
21
-0.353056
0
LINE
8
BLACK
6
CONTINUOUS
10
1.78281
20
-0.353056
11
1.78281
21
-0.360555
0
LINE
8
BLACK
6
CONTINUOUS
10
1.78281
20
-0.360555
11
1.74531
21
-0.368054
0
LINE
8
BLACK
6
CONTINUOUS
10
1.8128
20
-0.390551
11
1.8203
21
-0.394301
0
LINE
8
BLACK
6
CONTINUOUS
10
1.8203
20
-0.394301
11
1.8353
21
-0.394301
0
LINE
8
BLACK
6
CONTINUOUS
10
1.8353
20
-0.394301
11
1.8428
21
-0.390551
0
LINE
8
BLACK
6
CONTINUOUS
10
1.8428
20
-0.390551
11
1.84655
21
-0.383052
0
LINE
8
BLACK
6
CONTINUOUS
10
1.84655
20
-0.383052
11
1.84655
21
-0.379303
0
LINE
8
BLACK
6
CONTINUOUS
10
1.84655
20
-0.379303
11
1.8428
21
-0.371804
0
LINE
8
BLACK
6
CONTINUOUS
10
1.8428
20
-0.371804
11
1.8353
21
-0.368054
0
LINE
8
BLACK
6
CONTINUOUS
10
1.8353
20
-0.368054
11
1.82405
21
-0.368054
0
LINE
8
BLACK
6
CONTINUOUS
10
1.82405
20
-0.368054
11
1.81655
21
-0.364304
0
LINE
8
BLACK
6
CONTINUOUS
10
1.81655
20
-0.364304
11
1.8128
21
-0.356805
0
LINE
8
BLACK
6
CONTINUOUS
10
1.8128
20
-0.356805
11
1.8128
21
-0.353056
0
LINE
8
BLACK
6
CONTINUOUS
10
1.8128
20
-0.353056
11
1.81655
21
-0.345557
0
LINE
8
BLACK
6
CONTINUOUS
10
1.81655
20
-0.345557
11
1.82405
21
-0.341807
0
LINE
8
BLACK
6
CONTINUOUS
10
1.82405
20
-0.341807
11
1.8353
21
-0.341807
0
LINE
8
BLACK
6
CONTINUOUS
10
1.8353
20
-0.341807
11
1.8428
21
-0.345557
0
LINE
8
BLACK
6
CONTINUOUS
10
1.8728
20
-0.424297
11
1.87655
21
-0.420547
0
LINE
8
BLACK
6
CONTINUOUS
10
1.87655
20
-0.420547
11
1.88405
21
-0.409299
0
LINE
8
BLACK
6
CONTINUOUS
10
1.88405
20
-0.409299
11
1.8878
21
-0.4018
0
LINE
8
BLACK
6
CONTINUOUS
10
1.8878
20
-0.4018
11
1.89154
21
-0.390551
0
LINE
8
BLACK
6
CONTINUOUS
10
1.89154
20
-0.390551
11
1.89529
21
-0.371804
0
LINE
8
BLACK
6
CONTINUOUS
10
1.89529
20
-0.371804
11
1.89529
21
-0.356805
0
LINE
8
BLACK
6
CONTINUOUS
10
1.89529
20
-0.356805
11
1.89154
21
-0.338058
0
LINE
8
BLACK
6
CONTINUOUS
10
1.89154
20
-0.338058
11
1.8878
21
-0.326809
0
LINE
8
BLACK
6
CONTINUOUS
10
1.8878
20
-0.326809
11
1.88405
21
-0.31931
0
LINE
8
BLACK
6
CONTINUOUS
10
1.88405
20
-0.31931
11
1.87655
21
-0.308061
0
LINE
8
BLACK
6
CONTINUOUS
10
1.87655
20
-0.308061
11
1.8728
21
-0.304312
0
LINE
8
BLACK
6
CONTINUOUS
10
-0.0413386
20
-0.422441
11
-0.0413386
21
-0.501181
0
LINE
8
BLACK
6
CONTINUOUS
10
-0.0807087
20
-0.461811
11
-0.0019685
21
-0.461811
0
LINE
8
BLACK
6
CONTINUOUS
10
0.0917698
20
-0.426997
11
0.0955193
21
-0.423247
0
LINE
8
BLACK
6
CONTINUOUS
10
0.0955193
20
-0.423247
11
0.103018
21
-0.419498
0
LINE
8
BLACK
6
CONTINUOUS
10
0.103018
20
-0.419498
11
0.121766
21
-0.419498
0
LINE
8
BLACK
6
CONTINUOUS
10
0.121766
20
-0.419498
11
0.129265
21
-0.423247
0
LINE
8
BLACK
6
CONTINUOUS
10
0.129265
20
-0.423247
11
0.133015
21
-0.426997
0
LINE
8
BLACK
6
CONTINUOUS
10
0.133015
20
-0.426997
11
0.136764
21
-0.434496
0
LINE
8
BLACK
6
CONTINUOUS
10
0.136764
20
-0.434496
11
0.136764
21
-0.441995
0
LINE
8
BLACK
6
CONTINUOUS
10
0.136764
20
-0.441995
11
0.133015
21
-0.453243
0
LINE
8
BLACK
6
CONTINUOUS
10
0.133015
20
-0.453243
11
0.0880202
21
-0.498238
0
LINE
8
BLACK
6
CONTINUOUS
10
0.0880202
20
-0.498238
11
0.136764
21
-0.498238
0
LINE
8
BLACK
6
CONTINUOUS
10
0.17051
20
-0.490739
11
0.174259
21
-0.494488
0
LINE
8
BLACK
6
CONTINUOUS
10
0.174259
20
-0.494488
11
0.17051
21
-0.498238
0
LINE
8
BLACK
6
CONTINUOUS
10
0.17051
20
-0.498238
11
0.16676
21
-0.494488
0
LINE
8
BLACK
6
CONTINUOUS
10
0.16676
20
-0.494488
11
0.17051
21
-0.490739
0
LINE
8
BLACK
6
CONTINUOUS
10
0.17051
20
-0.490739
11
0.17051
21
-0.498238
0
LINE
8
BLACK
6
CONTINUOUS
10
0.200506
20
-0.419498
11
0.253
21
-0.419498
0
LINE
8
BLACK
6
CONTINUOUS
10
0.253
20
-0.419498
11
0.219254
21
-0.498238
0
LINE
8
BLACK
6
CONTINUOUS
10
0.297994
20
-0.419498
11
0.305493
21
-0.419498
0
LINE
8
BLACK
6
CONTINUOUS
10
0.305493
20
-0.419498
11
0.312992
21
-0.423247
0
LINE
8
BLACK
6
CONTINUOUS
10
0.312992
20
-0.423247
11
0.316742
21
-0.426997
0
LINE
8
BLACK
6
CONTINUOUS
10
0.316742
20
-0.426997
11
0.320491
21
-0.434496
0
LINE
8
BLACK
6
CONTINUOUS
10
0.320491
20
-0.434496
11
0.324241
21
-0.449494
0
LINE
8
BLACK
6
CONTINUOUS
10
0.324241
20
-0.449494
11
0.324241
21
-0.468241
0
LINE
8
BLACK
6
CONTINUOUS
10
0.324241
20
-0.468241
11
0.320491
21
-0.48324
0
LINE
8
BLACK
6
CONTINUOUS
10
0.320491
20
-0.48324
11
0.316742
21
-0.490739
0
LINE
8
BLACK
6
CONTINUOUS
10
0.316742
20
-0.490739
11
0.312992
21
-0.494488
0
LINE
8
BLACK
6
CONTINUOUS
10
0.312992
20
-0.494488
11
0.305493
21
-0.498238
0
LINE
8
BLACK
6
CONTINUOUS
10
0.305493
20
-0.498238
11
0.297994
21
-0.498238
0
LINE
8
BLACK
6
CONTINUOUS
10
0.297994
20
-0.498238
11
0.290495
21
-0.494488
0
LINE
8
BLACK
6
CONTINUOUS
10
0.290495
20
-0.494488
11
0.286745
21
-0.490739
0
LINE
8
BLACK
6
CONTINUOUS
10
0.286745
20
-0.490739
11
0.282996
21
-0.48324
0
LINE
8
BLACK
6
CONTINUOUS
10
0.282996
20
-0.48324
11
0.279246
21
-0.468241
0
LINE
8
BLACK
6
CONTINUOUS
10
0.279246
20
-0.468241
11
0.279246
21
-0.449494
0
LINE
8
BLACK
6
CONTINUOUS
10
0.279246
20
-0.449494
11
0.282996
21
-0.434496
0
LINE
8
BLACK
6
CONTINUOUS
10
0.282996
20
-0.434496
11
0.286745
21
-0.426997
0
LINE
8
BLACK
6
CONTINUOUS
10
0.286745
20
-0.426997
11
0.290495
21
-0.423247
0
LINE
8
BLACK
6
CONTINUOUS
10
0.290495
20
-0.423247
11
0.297994
21
-0.419498
0
LINE
8
BLACK
6
CONTINUOUS
10
0.372985
20
-0.419498
11
0.380484
21
-0.419498
0
LINE
8
BLACK
6
CONTINUOUS
10
0.380484
20
-0.419498
11
0.387983
21
-0.423247
0
LINE
8
BLACK
6
CONTINUOUS
10
0.387983
20
-0.423247
11
0.391732
21
-0.426997
0
LINE
8
BLACK
6
CONTINUOUS
10
0.391732
20
-0.426997
11
0.395482
21
-0.434496
0
LINE
8
BLACK
6
CONTINUOUS
10
0.395482
20
-0.434496
11
0.399231
21
-0.449494
0
LINE
8
BLACK
6
CONTINUOUS
10
0.399231
20
-0.449494
11
0.399231
21
-0.468241
0
LINE
8
BLACK
6
CONTINUOUS
10
0.399231
20
-0.468241
11
0.395482
21
-0.48324
0
LINE
8
BLACK
6
CONTINUOUS
10
0.395482
20
-0.48324
11
0.391732
21
-0.490739
0
LINE
8
BLACK
6
CONTINUOUS
10
0.391732
20
-0.490739
11
0.387983
21
-0.494488
0
LINE
8
BLACK
6
CONTINUOUS
10
0.387983
20
-0.494488
11
0.380484
21
-0.498238
0
LINE
8
BLACK
6
CONTINUOUS
10
0.380484
20
-0.498238
11
0.372985
21
-0.498238
0
LINE
8
BLACK
6
CONTINUOUS
10
0.372985
20
-0.498238
11
0.365486
21
-0.494488
0
LINE
8
BLACK
6
CONTINUOUS
10
0.365486
20
-0.494488
11
0.361736
21
-0.490739
0
LINE
8
BLACK
6
CONTINUOUS
10
0.361736
20
-0.490739
11
0.357986
21
-0.48324
0
LINE
8
BLACK
6
CONTINUOUS
10
0.357986
20
-0.48324
11
0.354237
21
-0.468241
0
LINE
8
BLACK
6
CONTINUOUS
10
0.354237
20
-0.468241
11
0.354237
21
-0.449494
0
LINE
8
BLACK
6
CONTINUOUS
10
0.354237
20
-0.449494
11
0.357986
21
-0.434496
0
LINE
8
BLACK
6
CONTINUOUS
10
0.357986
20
-0.434496
11
0.361736
21
-0.426997
0
LINE
8
BLACK
6
CONTINUOUS
10
0.361736
20
-0.426997
11
0.365486
21
-0.423247
0
LINE
8
BLACK
6
CONTINUOUS
10
0.365486
20
-0.423247
11
0.372985
21
-0.419498
0
LINE
8
BLACK
6
CONTINUOUS
10
0.432977
20
-0.498238
11
0.432977
21
-0.445744
0
LINE
8
BLACK
6
CONTINUOUS
10
0.432977
20
-0.453243
11
0.436727
21
-0.449494
0
LINE
8
BLACK
6
CONTINUOUS
10
0.436727
20
-0.449494
11
0.444226
21
-0.445744
0
LINE
8
BLACK
6
CONTINUOUS
10
0.444226
20
-0.445744
11
0.455474
21
-0.445744
0
LINE
8
BLACK
6
CONTINUOUS
10
0.455474
20
-0.445744
11
0.462973
21
-0.449494
0
LINE
8
BLACK
6
CONTINUOUS
10
0.462973
20
-0.449494
11
0.466723
21
-0.456993
0
LINE
8
BLACK
6
CONTINUOUS
10
0.466723
20
-0.456993
11
0.466723
21
-0.498238
0
LINE
8
BLACK
6
CONTINUOUS
10
0.466723
20
-0.456993
11
0.470472
21
-0.449494
0
LINE
8
BLACK
6
CONTINUOUS
10
0.470472
20
-0.449494
11
0.477971
21
-0.445744
0
LINE
8
BLACK
6
CONTINUOUS
10
0.477971
20
-0.445744
11
0.48922
21
-0.445744
0
LINE
8
BLACK
6
CONTINUOUS
10
0.48922
20
-0.445744
11
0.496719
21
-0.449494
0
LINE
8
BLACK
6
CONTINUOUS
10
0.496719
20
-0.449494
11
0.500469
21
-0.456993
0
LINE
8
BLACK
6
CONTINUOUS
10
0.500469
20
-0.456993
11
0.500469
21
-0.498238
0
LINE
8
BLACK
6
CONTINUOUS
10
0.537964
20
-0.498238
11
0.537964
21
-0.445744
0
LINE
8
BLACK
6
CONTINUOUS
10
0.537964
20
-0.453243
11
0.541714
21
-0.449494
0
LINE
8
BLACK
6
CONTINUOUS
10
0.541714
20
-0.449494
11
0.549213
21
-0.445744
0
LINE
8
BLACK
6
CONTINUOUS
10
0.549213
20
-0.445744
11
0.560461
21
-0.445744
0
LINE
8
BLACK
6
CONTINUOUS
10
0.560461
20
-0.445744
11
0.56796
21
-0.449494
0
LINE
8
BLACK
6
CONTINUOUS
10
0.56796
20
-0.449494
11
0.57171
21
-0.456993
0
LINE
8
BLACK
6
CONTINUOUS
10
0.57171
20
-0.456993
11
0.57171
21
-0.498238
0
LINE
8
BLACK
6
CONTINUOUS
10
0.57171
20
-0.456993
11
0.575459
21
-0.449494
0
LINE
8
BLACK
6
CONTINUOUS
10
0.575459
20
-0.449494
11
0.582958
21
-0.445744
0
LINE
8
BLACK
6
CONTINUOUS
10
0.582958
20
-0.445744
11
0.594207
21
-0.445744
0
LINE
8
BLACK
6
CONTINUOUS
10
0.594207
20
-0.445744
11
0.601706
21
-0.449494
0
LINE
8
BLACK
6
CONTINUOUS
10
0.601706
20
-0.449494
11
0.605456
21
-0.456993
0
LINE
8
BLACK
6
CONTINUOUS
10
0.605456
20
-0.456993
11
0.605456
21
-0.498238
0
LINE
8
BLACK
6
CONTINUOUS
10
0.759186
20
-0.415748
11
0.691695
21
-0.516985
0
LINE
8
BLACK
6
CONTINUOUS
10
0.860424
20
-0.419498
11
0.867923
21
-0.419498
0
LINE
8
BLACK
6
CONTINUOUS
10
0.867923
20
-0.419498
11
0.875422
21
-0.423247
0
LINE
8
BLACK
6
CONTINUOUS
10
0.875422
20
-0.423247
11
0.879171
21
-0.426997
0
LINE
8
BLACK
6
CONTINUOUS
10
0.879171
20
-0.426997
11
0.882921
21
-0.434496
0
LINE
8
BLACK
6
CONTINUOUS
10
0.882921
20
-0.434496
11
0.88667
21
-0.449494
0
LINE
8
BLACK
6
CONTINUOUS
10
0.88667
20
-0.449494
11
0.88667
21
-0.468241
0
LINE
8
BLACK
6
CONTINUOUS
10
0.88667
20
-0.468241
11
0.882921
21
-0.48324
0
LINE
8
BLACK
6
CONTINUOUS
10
0.882921
20
-0.48324
11
0.879171
21
-0.490739
0
LINE
8
BLACK
6
CONTINUOUS
10
0.879171
20
-0.490739
11
0.875422
21
-0.494488
0
LINE
8
BLACK
6
CONTINUOUS
10
0.875422
20
-0.494488
11
0.867923
21
-0.498238
0
LINE
8
BLACK
6
CONTINUOUS
10
0.867923
20
-0.498238
11
0.860424
21
-0.498238
0
LINE
8
BLACK
6
CONTINUOUS
10
0.860424
20
-0.498238
11
0.852925
21
-0.494488
0
LINE
8
BLACK
6
CONTINUOUS
10
0.852925
20
-0.494488
11
0.849175
21
-0.490739
0
LINE
8
BLACK
6
CONTINUOUS
10
0.849175
20
-0.490739
11
0.845426
21
-0.48324
0
LINE
8
BLACK
6
CONTINUOUS
10
0.845426
20
-0.48324
11
0.841676
21
-0.468241
0
LINE
8
BLACK
6
CONTINUOUS
10
0.841676
20
-0.468241
11
0.841676
21
-0.449494
0
LINE
8
BLACK
6
CONTINUOUS
10
0.841676
20
-0.449494
11
0.845426
21
-0.434496
0
LINE
8
BLACK
6
CONTINUOUS
10
0.845426
20
-0.434496
11
0.849175
21
-0.426997
0
LINE
8
BLACK
6
CONTINUOUS
10
0.849175
20
-0.426997
11
0.852925
21
-0.423247
0
LINE
8
BLACK
6
CONTINUOUS
10
0.852925
20
-0.423247
11
0.860424
21
-0.419498
0
LINE
8
BLACK
6
CONTINUOUS
10
0.920416
20
-0.490739
11
0.924166
21
-0.494488
0
LINE
8
BLACK
6
CONTINUOUS
10
0.924166
20
-0.494488
11
0.920416
21
-0.498238
0
LINE
8
BLACK
6
CONTINUOUS
10
0.920416
20
-0.498238
11
0.916667
21
-0.494488
0
LINE
8
BLACK
6
CONTINUOUS
10
0.916667
20
-0.494488
11
0.920416
21
-0.490739
0
LINE
8
BLACK
6
CONTINUOUS
10
0.920416
20
-0.490739
11
0.920416
21
-0.498238
0
LINE
8
BLACK
6
CONTINUOUS
10
0.999156
20
-0.498238
11
0.954162
21
-0.498238
0
LINE
8
BLACK
6
CONTINUOUS
10
0.976659
20
-0.498238
11
0.976659
21
-0.419498
0
LINE
8
BLACK
6
CONTINUOUS
10
0.976659
20
-0.419498
11
0.96916
21
-0.430746
0
LINE
8
BLACK
6
CONTINUOUS
10
0.96916
20
-0.430746
11
0.961661
21
-0.438245
0
LINE
8
BLACK
6
CONTINUOUS
10
0.961661
20
-0.438245
11
0.954162
21
-0.441995
0
LINE
8
BLACK
6
CONTINUOUS
10
1.0479
20
-0.419498
11
1.0554
21
-0.419498
0
LINE
8
BLACK
6
CONTINUOUS
10
1.0554
20
-0.419498
11
1.0629
21
-0.423247
0
LINE
8
BLACK
6
CONTINUOUS
10
1.0629
20
-0.423247
11
1.06665
21
-0.426997
0
LINE
8
BLACK
6
CONTINUOUS
10
1.06665
20
-0.426997
11
1.0704
21
-0.434496
0
LINE
8
BLACK
6
CONTINUOUS
10
1.0704
20
-0.434496
11
1.07415
21
-0.449494
0
LINE
8
BLACK
6
CONTINUOUS
10
1.07415
20
-0.449494
11
1.07415
21
-0.468241
0
LINE
8
BLACK
6
CONTINUOUS
10
1.07415
20
-0.468241
11
1.0704
21
-0.48324
0
LINE
8
BLACK
6
CONTINUOUS
10
1.0704
20
-0.48324
11
1.06665
21
-0.490739
0
LINE
8
BLACK
6
CONTINUOUS
10
1.06665
20
-0.490739
11
1.0629
21
-0.494488
0
LINE
8
BLACK
6
CONTINUOUS
10
1.0629
20
-0.494488
11
1.0554
21
-0.498238
0
LINE
8
BLACK
6
CONTINUOUS
10
1.0554
20
-0.498238
11
1.0479
21
-0.498238
0
LINE
8
BLACK
6
CONTINUOUS
10
1.0479
20
-0.498238
11
1.0404
21
-0.494488
0
LINE
8
BLACK
6
CONTINUOUS
10
1.0404
20
-0.494488
11
1.03665
21
-0.490739
0
LINE
8
BLACK
6
CONTINUOUS
10
1.03665
20
-0.490739
11
1.0329
21
-0.48324
0
LINE
8
BLACK
6
CONTINUOUS
10
1.0329
20
-0.48324
11
1.02915
21
-0.468241
0
LINE
8
BLACK
6
CONTINUOUS
10
1.02915
20
-0.468241
11
1.02915
21
-0.449494
0
LINE
8
BLACK
6
CONTINUOUS
10
1.02915
20
-0.449494
11
1.0329
21
-0.434496
0
LINE
8
BLACK
6
CONTINUOUS
10
1.0329
20
-0.434496
11
1.03665
21
-0.426997
0
LINE
8
BLACK
6
CONTINUOUS
10
1.03665
20
-0.426997
11
1.0404
21
-0.423247
0
LINE
8
BLACK
6
CONTINUOUS
10
1.0404
20
-0.423247
11
1.0479
21
-0.419498
0
LINE
8
BLACK
6
CONTINUOUS
10
1.14164
20
-0.419498
11
1.12664
21
-0.419498
0
LINE
8
BLACK
6
CONTINUOUS
10
1.12664
20
-0.419498
11
1.11914
21
-0.423247
0
LINE
8
BLACK
6
CONTINUOUS
10
1.11914
20
-0.423247
11
1.11539
21
-0.426997
0
LINE
8
BLACK
6
CONTINUOUS
10
1.11539
20
-0.426997
11
1.10789
21
-0.438245
0
LINE
8
BLACK
6
CONTINUOUS
10
1.10789
20
-0.438245
11
1.10414
21
-0.453243
0
LINE
8
BLACK
6
CONTINUOUS
10
1.10414
20
-0.453243
11
1.10414
21
-0.48324
0
LINE
8
BLACK
6
CONTINUOUS
10
1.10414
20
-0.48324
11
1.10789
21
-0.490739
0
LINE
8
BLACK
6
CONTINUOUS
10
1.10789
20
-0.490739
11
1.11164
21
-0.494488
0
LINE
8
BLACK
6
CONTINUOUS
10
1.11164
20
-0.494488
11
1.11914
21
-0.498238
0
LINE
8
BLACK
6
CONTINUOUS
10
1.11914
20
-0.498238
11
1.13414
21
-0.498238
0
LINE
8
BLACK
6
CONTINUOUS
10
1.13414
20
-0.498238
11
1.14164
21
-0.494488
0
LINE
8
BLACK
6
CONTINUOUS
10
1.14164
20
-0.494488
11
1.14539
21
-0.490739
0
LINE
8
BLACK
6
CONTINUOUS
10
1.14539
20
-0.490739
11
1.14914
21
-0.48324
0
LINE
8
BLACK
6
CONTINUOUS
10
1.14914
20
-0.48324
11
1.14914
21
-0.464492
0
LINE
8
BLACK
6
CONTINUOUS
10
1.14914
20
-0.464492
11
1.14539
21
-0.456993
0
LINE
8
BLACK
6
CONTINUOUS
10
1.14539
20
-0.456993
11
1.14164
21
-0.453243
0
LINE
8
BLACK
6
CONTINUOUS
10
1.14164
20
-0.453243
11
1.13414
21
-0.449494
0
LINE
8
BLACK
6
CONTINUOUS
10
1.13414
20
-0.449494
11
1.11914
21
-0.449494
0
LINE
8
BLACK
6
CONTINUOUS
10
1.11914
20
-0.449494
11
1.11164
21
-0.453243
0
LINE
8
BLACK
6
CONTINUOUS
10
1.11164
20
-0.453243
11
1.10789
21
-0.456993
0
LINE
8
BLACK
6
CONTINUOUS
10
1.10789
20
-0.456993
11
1.10414
21
-0.464492
0
LINE
8
BLACK
6
CONTINUOUS
10
1.17538
20
-0.419498
11
1.22413
21
-0.419498
0
LINE
8
BLACK
6
CONTINUOUS
10
1.22413
20
-0.419498
11
1.19788
21
-0.449494
0
LINE
8
BLACK
6
CONTINUOUS
10
1.19788
20
-0.449494
11
1.20913
21
-0.449494
0
LINE
8
BLACK
6
CONTINUOUS
10
1.20913
20
-0.449494
11
1.21663
21
-0.453243
0
LINE
8
BLACK
6
CONTINUOUS
10
1.21663
20
-0.453243
11
1.22038
21
-0.456993
0
LINE
8
BLACK
6
CONTINUOUS
10
1.22038
20
-0.456993
11
1.22413
21
-0.464492
0
LINE
8
BLACK
6
CONTINUOUS
10
1.22413
20
-0.464492
11
1.22413
21
-0.48324
0
LINE
8
BLACK
6
CONTINUOUS
10
1.22413
20
-0.48324
11
1.22038
21
-0.490739
0
LINE
8
BLACK
6
CONTINUOUS
10
1.22038
20
-0.490739
11
1.21663
21
-0.494488
0
LINE
8
BLACK
6
CONTINUOUS
10
1.21663
20
-0.494488
11
1.20913
21
-0.498238
0
LINE
8
BLACK
6
CONTINUOUS
10
1.20913
20
-0.498238
11
1.18663
21
-0.498238
0
LINE
8
BLACK
6
CONTINUOUS
10
1.18663
20
-0.498238
11
1.17913
21
-0.494488
0
LINE
8
BLACK
6
CONTINUOUS
10
1.17913
20
-0.494488
11
1.17538
21
-0.490739
0
LINE
8
BLACK
6
CONTINUOUS
10
1.25412
20
-0.419498
11
1.25412
21
-0.434496
0
LINE
8
BLACK
6
CONTINUOUS
10
1.28412
20
-0.419498
11
1.28412
21
-0.434496
0
LINE
8
BLACK
6
CONTINUOUS
10
1.40036
20
-0.528234
11
1.39661
21
-0.524484
0
LINE
8
BLACK
6
CONTINUOUS
10
1.39661
20
-0.524484
11
1.38911
21
-0.513236
0
LINE
8
BLACK
6
CONTINUOUS
10
1.38911
20
-0.513236
11
1.38536
21
-0.505737
0
LINE
8
BLACK
6
CONTINUOUS
10
1.38536
20
-0.505737
11
1.38161
21
-0.494488
0
LINE
8
BLACK
6
CONTINUOUS
10
1.38161
20
-0.494488
11
1.37786
21
-0.475741
0
LINE
8
BLACK
6
CONTINUOUS
10
1.37786
20
-0.475741
11
1.37786
21
-0.460742
0
LINE
8
BLACK
6
CONTINUOUS
10
1.37786
20
-0.460742
11
1.38161
21
-0.441995
0
LINE
8
BLACK
6
CONTINUOUS
10
1.38161
20
-0.441995
11
1.38536
21
-0.430746
0
LINE
8
BLACK
6
CONTINUOUS
10
1.38536
20
-0.430746
11
1.38911
21
-0.423247
0
LINE
8
BLACK
6
CONTINUOUS
10
1.38911
20
-0.423247
11
1.39661
21
-0.411998
0
LINE
8
BLACK
6
CONTINUOUS
10
1.39661
20
-0.411998
11
1.40036
21
-0.408249
0
LINE
8
BLACK
6
CONTINUOUS
10
1.4266
20
-0.426997
11
1.43035
21
-0.423247
0
LINE
8
BLACK
6
CONTINUOUS
10
1.43035
20
-0.423247
11
1.43785
21
-0.419498
0
LINE
8
BLACK
6
CONTINUOUS
10
1.43785
20
-0.419498
11
1.4566
21
-0.419498
0
LINE
8
BLACK
6
CONTINUOUS
10
1.4566
20
-0.419498
11
1.4641
21
-0.423247
0
LINE
8
BLACK
6
CONTINUOUS
10
1.4641
20
-0.423247
11
1.46785
21
-0.426997
0
LINE
8
BLACK
6
CONTINUOUS
10
1.46785
20
-0.426997
11
1.4716
21
-0.434496
0
LINE
8
BLACK
6
CONTINUOUS
10
1.4716
20
-0.434496
11
1.4716
21
-0.441995
0
LINE
8
BLACK
6
CONTINUOUS
10
1.4716
20
-0.441995
11
1.46785
21
-0.453243
0
LINE
8
BLACK
6
CONTINUOUS
10
1.46785
20
-0.453243
11
1.42285
21
-0.498238
0
LINE
8
BLACK
6
CONTINUOUS
10
1.42285
20
-0.498238
11
1.4716
21
-0.498238
0
LINE
8
BLACK
6
CONTINUOUS
10
1.56534
20
-0.498238
11
1.56534
21
-0.419498
0
LINE
8
BLACK
6
CONTINUOUS
10
1.59908
20
-0.498238
11
1.59908
21
-0.456993
0
LINE
8
BLACK
6
CONTINUOUS
10
1.59908
20
-0.456993
11
1.59533
21
-0.449494
0
LINE
8
BLACK
6
CONTINUOUS
10
1.59533
20
-0.449494
11
1.58783
21
-0.445744
0
LINE
8
BLACK
6
CONTINUOUS
10
1.58783
20
-0.445744
11
1.57658
21
-0.445744
0
LINE
8
BLACK
6
CONTINUOUS
10
1.57658
20
-0.445744
11
1.56909
21
-0.449494
0
LINE
8
BLACK
6
CONTINUOUS
10
1.56909
20
-0.449494
11
1.56534
21
-0.453243
0
LINE
8
BLACK
6
CONTINUOUS
10
1.64783
20
-0.498238
11
1.64033
21
-0.494488
0
LINE
8
BLACK
6
CONTINUOUS
10
1.64033
20
-0.494488
11
1.63658
21
-0.490739
0
LINE
8
BLACK
6
CONTINUOUS
10
1.63658
20
-0.490739
11
1.63283
21
-0.48324
0
LINE
8
BLACK
6
CONTINUOUS
10
1.63283
20
-0.48324
11
1.63283
21
-0.460742
0
LINE
8
BLACK
6
CONTINUOUS
10
1.63283
20
-0.460742
11
1.63658
21
-0.453243
0
LINE
8
BLACK
6
CONTINUOUS
10
1.63658
20
-0.453243
11
1.64033
21
-0.449494
0
LINE
8
BLACK
6
CONTINUOUS
10
1.64033
20
-0.449494
11
1.64783
21
-0.445744
0
LINE
8
BLACK
6
CONTINUOUS
10
1.64783
20
-0.445744
11
1.65907
21
-0.445744
0
LINE
8
BLACK
6
CONTINUOUS
10
1.65907
20
-0.445744
11
1.66657
21
-0.449494
0
LINE
8
BLACK
6
CONTINUOUS
10
1.66657
20
-0.449494
11
1.67032
21
-0.453243
0
LINE
8
BLACK
6
CONTINUOUS
10
1.67032
20
-0.453243
11
1.67407
21
-0.460742
0
LINE
8
BLACK
6
CONTINUOUS
10
1.67407
20
-0.460742
11
1.67407
21
-0.48324
0
LINE
8
BLACK
6
CONTINUOUS
10
1.67407
20
-0.48324
11
1.67032
21
-0.490739
0
LINE
8
BLACK
6
CONTINUOUS
10
1.67032
20
-0.490739
11
1.66657
21
-0.494488
0
LINE
8
BLACK
6
CONTINUOUS
10
1.66657
20
-0.494488
11
1.65907
21
-0.498238
0
LINE
8
BLACK
6
CONTINUOUS
10
1.65907
20
-0.498238
11
1.64783
21
-0.498238
0
LINE
8
BLACK
6
CONTINUOUS
10
1.71907
20
-0.498238
11
1.71157
21
-0.494488
0
LINE
8
BLACK
6
CONTINUOUS
10
1.71157
20
-0.494488
11
1.70782
21
-0.486989
0
LINE
8
BLACK
6
CONTINUOUS
10
1.70782
20
-0.486989
11
1.70782
21
-0.419498
0
LINE
8
BLACK
6
CONTINUOUS
10
1.77906
20
-0.494488
11
1.77156
21
-0.498238
0
LINE
8
BLACK
6
CONTINUOUS
10
1.77156
20
-0.498238
11
1.75656
21
-0.498238
0
LINE
8
BLACK
6
CONTINUOUS
10
1.75656
20
-0.498238
11
1.74906
21
-0.494488
0
LINE
8
BLACK
6
CONTINUOUS
10
1.74906
20
-0.494488
11
1.74531
21
-0.486989
0
LINE
8
BLACK
6
CONTINUOUS
10
1.74531
20
-0.486989
11
1.74531
21
-0.456993
0
LINE
8
BLACK
6
CONTINUOUS
10
1.74531
20
-0.456993
11
1.74906
21
-0.449494
0
LINE
8
BLACK
6
CONTINUOUS
10
1.74906
20
-0.449494
11
1.75656
21
-0.445744
0
LINE
8
BLACK
6
CONTINUOUS
10
1.75656
20
-0.445744
11
1.77156
21
-0.445744
0
LINE
8
BLACK
6
CONTINUOUS
10
1.77156
20
-0.445744
11
1.77906
21
-0.449494
0
LINE
8
BLACK
6
CONTINUOUS
10
1.77906
20
-0.449494
11
1.78281
21
-0.456993
0
LINE
8
BLACK
6
CONTINUOUS
10
1.78281
20
-0.456993
11
1.78281
21
-0.464492
0
LINE
8
BLACK
6
CONTINUOUS
10
1.78281
20
-0.464492
11
1.74531
21
-0.471991
0
LINE
8
BLACK
6
CONTINUOUS
10
1.8128
20
-0.494488
11
1.8203
21
-0.498238
0
LINE
8
BLACK
6
CONTINUOUS
10
1.8203
20
-0.498238
11
1.8353
21
-0.498238
0
LINE
8
BLACK
6
CONTINUOUS
10
1.8353
20
-0.498238
11
1.8428
21
-0.494488
0
LINE
8
BLACK
6
CONTINUOUS
10
1.8428
20
-0.494488
11
1.84655
21
-0.486989
0
LINE
8
BLACK
6
CONTINUOUS
10
1.84655
20
-0.486989
11
1.84655
21
-0.48324
0
LINE
8
BLACK
6
CONTINUOUS
10
1.84655
20
-0.48324
11
1.8428
21
-0.475741
0
LINE
8
BLACK
6
CONTINUOUS
10
1.8428
20
-0.475741
11
1.8353
21
-0.471991
0
LINE
8
BLACK
6
CONTINUOUS
10
1.8353
20
-0.471991
11
1.82405
21
-0.471991
0
LINE
8
BLACK
6
CONTINUOUS
10
1.82405
20
-0.471991
11
1.81655
21
-0.468241
0
LINE
8
BLACK
6
CONTINUOUS
10
1.81655
20
-0.468241
11
1.8128
21
-0.460742
0
LINE
8
BLACK
6
CONTINUOUS
10
1.8128
20
-0.460742
11
1.8128
21
-0.456993
0
LINE
8
BLACK
6
CONTINUOUS
10
1.8128
20
-0.456993
11
1.81655
21
-0.449494
0
LINE
8
BLACK
6
CONTINUOUS
10
1.81655
20
-0.449494
11
1.82405
21
-0.445744
0
LINE
8
BLACK
6
CONTINUOUS
10
1.82405
20
-0.445744
11
1.8353
21
-0.445744
0
LINE
8
BLACK
6
CONTINUOUS
10
1.8353
20
-0.445744
11
1.8428
21
-0.449494
0
LINE
8
BLACK
6
CONTINUOUS
10
1.8728
20
-0.528234
11
1.87655
21
-0.524484
0
LINE
8
BLACK
6
CONTINUOUS
10
1.87655
20
-0.524484
11
1.88405
21
-0.513236
0
LINE
8
BLACK
6
CONTINUOUS
10
1.88405
20
-0.513236
11
1.8878
21
-0.505737
0
LINE
8
BLACK
6
CONTINUOUS
10
1.8878
20
-0.505737
11
1.89154
21
-0.494488
0
LINE
8
BLACK
6
CONTINUOUS
10
1.89154
20
-0.494488
11
1.89529
21
-0.475741
0
LINE
8
BLACK
6
CONTINUOUS
10
1.89529
20
-0.475741
11
1.89529
21
-0.460742
0
LINE
8
BLACK
6
CONTINUOUS
10
1.89529
20
-0.460742
11
1.89154
21
-0.441995
0
LINE
8
BLACK
6
CONTINUOUS
10
1.89154
20
-0.441995
11
1.8878
21
-0.430746
0
LINE
8
BLACK
6
CONTINUOUS
10
1.8878
20
-0.430746
11
1.88405
21
-0.423247
0
LINE
8
BLACK
6
CONTINUOUS
10
1.88405
20
-0.423247
11
1.87655
21
-0.411998
0
LINE
8
BLACK
6
CONTINUOUS
10
1.87655
20
-0.411998
11
1.8728
21
-0.408249
  0
ENDSEC
  0
EOF
