G04 -- output software:jlccam v1.3.0 *
G04 -- dbname:*
G04 -- stepname:set*
G04 -- layer:bo*
*
G04 -- format*
%FSLAX26Y26*%
%MOIN*%
*
G04 -- apertures*
%ADD10C,0.005904*%
%ADD11C,0.007874*%
%ADD12C,0.197096*%
%ADD13R,0.035669X0.090787*%
%ADD14C,0.061190*%
%ADD15C,0.127166*%
%ADD16C,0.054332*%
%ADD17C,0.014958*%
%ADD18C,0.044096*%
%ADD19C,0.018898*%
%ADD20C,0.031496*%
%ADD21C,0.108268*%
%ADD22C,0.033464*%
%ADD23C,0.049292*%
*
G75*
G90*
*
G54D10*
%LPD*%
G01*
D10*
X989479Y1525093D02*
Y1496972D01*
X991354Y1491347D01*
X995103Y1487598D01*
X1000728Y1485723D01*
X1004477D01*
X950109D02*
X972606D01*
X961358D02*
Y1525093D01*
X965107Y1519469D01*
X968857Y1515719D01*
X972606Y1513845D01*
D11*
X931080Y1461614D02*
Y1215551D01*
Y1461614D02*
X1064938D01*
X931080Y1215551D02*
X1064938D01*
X1273600Y1461614D02*
X1407458D01*
X1273600Y1215551D02*
X1407458D01*
Y1461614D01*
X1063757Y1495275D02*
G03Y1495275I-3936D01*
G01*
D10*
X989479Y3092022D02*
Y3063901D01*
X991354Y3058276D01*
X995103Y3054527D01*
X1000728Y3052652D01*
X1004477D01*
X950109D02*
X972606D01*
X961358D02*
Y3092022D01*
X965107Y3086398D01*
X968857Y3082648D01*
X972606Y3080774D01*
D11*
X931080Y3028543D02*
Y2782480D01*
Y3028543D02*
X1064938D01*
X931080Y2782480D02*
X1064938D01*
X1273600Y3028543D02*
X1407458D01*
X1273600Y2782480D02*
X1407458D01*
Y3028543D01*
X1063757Y3062204D02*
G03Y3062204I-3936D01*
G01*
D10*
X989479Y4658951D02*
Y4630830D01*
X991354Y4625205D01*
X995103Y4621456D01*
X1000728Y4619581D01*
X1004477D01*
X950109D02*
X972606D01*
X961358D02*
Y4658951D01*
X965107Y4653327D01*
X968857Y4649577D01*
X972606Y4647703D01*
D11*
X931080Y4595472D02*
Y4349409D01*
Y4595472D02*
X1064938D01*
X931080Y4349409D02*
X1064938D01*
X1273600Y4595472D02*
X1407458D01*
X1273600Y4349409D02*
X1407458D01*
Y4595472D01*
X1063757Y4629133D02*
G03Y4629133I-3936D01*
G01*
D10*
X989479Y6225880D02*
Y6197759D01*
X991354Y6192134D01*
X995103Y6188385D01*
X1000728Y6186510D01*
X1004477D01*
X950109D02*
X972606D01*
X961358D02*
Y6225880D01*
X965107Y6220256D01*
X968857Y6216506D01*
X972606Y6214632D01*
D11*
X931080Y6162401D02*
Y5916338D01*
Y6162401D02*
X1064938D01*
X931080Y5916338D02*
X1064938D01*
X1273600Y6162401D02*
X1407458D01*
X1273600Y5916338D02*
X1407458D01*
Y6162401D01*
X1063757Y6196062D02*
G03Y6196062I-3936D01*
G01*
D10*
X989479Y7792809D02*
Y7764688D01*
X991354Y7759063D01*
X995103Y7755314D01*
X1000728Y7753439D01*
X1004477D01*
X950109D02*
X972606D01*
X961358D02*
Y7792809D01*
X965107Y7787185D01*
X968857Y7783435D01*
X972606Y7781561D01*
D11*
X931080Y7729330D02*
Y7483267D01*
Y7729330D02*
X1064938D01*
X931080Y7483267D02*
X1064938D01*
X1273600Y7729330D02*
X1407458D01*
X1273600Y7483267D02*
X1407458D01*
Y7729330D01*
X1063757Y7762991D02*
G03Y7762991I-3936D01*
G01*
D10*
X989479Y9359738D02*
Y9331617D01*
X991354Y9325992D01*
X995103Y9322243D01*
X1000728Y9320368D01*
X1004477D01*
X950109D02*
X972606D01*
X961358D02*
Y9359738D01*
X965107Y9354114D01*
X968857Y9350364D01*
X972606Y9348490D01*
D11*
X931080Y9296259D02*
Y9050196D01*
Y9296259D02*
X1064938D01*
X931080Y9050196D02*
X1064938D01*
X1273600Y9296259D02*
X1407458D01*
X1273600Y9050196D02*
X1407458D01*
Y9296259D01*
X1063757Y9329920D02*
G03Y9329920I-3936D01*
G01*
D10*
X2556386Y1525093D02*
Y1496972D01*
X2558261Y1491347D01*
X2562010Y1487598D01*
X2567635Y1485723D01*
X2571384D01*
X2517016D02*
X2539513D01*
X2528265D02*
Y1525093D01*
X2532014Y1519469D01*
X2535764Y1515719D01*
X2539513Y1513845D01*
D11*
X2497987Y1461614D02*
Y1215551D01*
Y1461614D02*
X2631845D01*
X2497987Y1215551D02*
X2631845D01*
X2840507Y1461614D02*
X2974365D01*
X2840507Y1215551D02*
X2974365D01*
Y1461614D01*
X2630664Y1495275D02*
G03Y1495275I-3936D01*
G01*
D10*
X2556386Y3092022D02*
Y3063901D01*
X2558261Y3058276D01*
X2562010Y3054527D01*
X2567635Y3052652D01*
X2571384D01*
X2517016D02*
X2539513D01*
X2528265D02*
Y3092022D01*
X2532014Y3086398D01*
X2535764Y3082648D01*
X2539513Y3080774D01*
D11*
X2497987Y3028543D02*
Y2782480D01*
Y3028543D02*
X2631845D01*
X2497987Y2782480D02*
X2631845D01*
X2840507Y3028543D02*
X2974365D01*
X2840507Y2782480D02*
X2974365D01*
Y3028543D01*
X2630664Y3062204D02*
G03Y3062204I-3936D01*
G01*
D10*
X2556386Y4658951D02*
Y4630830D01*
X2558261Y4625205D01*
X2562010Y4621456D01*
X2567635Y4619581D01*
X2571384D01*
X2517016D02*
X2539513D01*
X2528265D02*
Y4658951D01*
X2532014Y4653327D01*
X2535764Y4649577D01*
X2539513Y4647703D01*
D11*
X2497987Y4595472D02*
Y4349409D01*
Y4595472D02*
X2631845D01*
X2497987Y4349409D02*
X2631845D01*
X2840507Y4595472D02*
X2974365D01*
X2840507Y4349409D02*
X2974365D01*
Y4595472D01*
X2630664Y4629133D02*
G03Y4629133I-3936D01*
G01*
D10*
X2556386Y6225880D02*
Y6197759D01*
X2558261Y6192134D01*
X2562010Y6188385D01*
X2567635Y6186510D01*
X2571384D01*
X2517016D02*
X2539513D01*
X2528265D02*
Y6225880D01*
X2532014Y6220256D01*
X2535764Y6216506D01*
X2539513Y6214632D01*
D11*
X2497987Y6162401D02*
Y5916338D01*
Y6162401D02*
X2631845D01*
X2497987Y5916338D02*
X2631845D01*
X2840507Y6162401D02*
X2974365D01*
X2840507Y5916338D02*
X2974365D01*
Y6162401D01*
X2630664Y6196062D02*
G03Y6196062I-3936D01*
G01*
D10*
X2556386Y7792809D02*
Y7764688D01*
X2558261Y7759063D01*
X2562010Y7755314D01*
X2567635Y7753439D01*
X2571384D01*
X2517016D02*
X2539513D01*
X2528265D02*
Y7792809D01*
X2532014Y7787185D01*
X2535764Y7783435D01*
X2539513Y7781561D01*
D11*
X2497987Y7729330D02*
Y7483267D01*
Y7729330D02*
X2631845D01*
X2497987Y7483267D02*
X2631845D01*
X2840507Y7729330D02*
X2974365D01*
X2840507Y7483267D02*
X2974365D01*
Y7729330D01*
X2630664Y7762991D02*
G03Y7762991I-3936D01*
G01*
D10*
X2556386Y9359738D02*
Y9331617D01*
X2558261Y9325992D01*
X2562010Y9322243D01*
X2567635Y9320368D01*
X2571384D01*
X2517016D02*
X2539513D01*
X2528265D02*
Y9359738D01*
X2532014Y9354114D01*
X2535764Y9350364D01*
X2539513Y9348490D01*
D11*
X2497987Y9296259D02*
Y9050196D01*
Y9296259D02*
X2631845D01*
X2497987Y9050196D02*
X2631845D01*
X2840507Y9296259D02*
X2974365D01*
X2840507Y9050196D02*
X2974365D01*
Y9296259D01*
X2630664Y9329920D02*
G03Y9329920I-3936D01*
G01*
D10*
X4123293Y1525093D02*
Y1496972D01*
X4125168Y1491347D01*
X4128917Y1487598D01*
X4134542Y1485723D01*
X4138291D01*
X4083923D02*
X4106420D01*
X4095172D02*
Y1525093D01*
X4098921Y1519469D01*
X4102671Y1515719D01*
X4106420Y1513845D01*
D11*
X4064894Y1461614D02*
Y1215551D01*
Y1461614D02*
X4198752D01*
X4064894Y1215551D02*
X4198752D01*
X4407414Y1461614D02*
X4541272D01*
X4407414Y1215551D02*
X4541272D01*
Y1461614D01*
X4197571Y1495275D02*
G03Y1495275I-3936D01*
G01*
D10*
X4123293Y3092022D02*
Y3063901D01*
X4125168Y3058276D01*
X4128917Y3054527D01*
X4134542Y3052652D01*
X4138291D01*
X4083923D02*
X4106420D01*
X4095172D02*
Y3092022D01*
X4098921Y3086398D01*
X4102671Y3082648D01*
X4106420Y3080774D01*
D11*
X4064894Y3028543D02*
Y2782480D01*
Y3028543D02*
X4198752D01*
X4064894Y2782480D02*
X4198752D01*
X4407414Y3028543D02*
X4541272D01*
X4407414Y2782480D02*
X4541272D01*
Y3028543D01*
X4197571Y3062204D02*
G03Y3062204I-3936D01*
G01*
D10*
X4123293Y4658951D02*
Y4630830D01*
X4125168Y4625205D01*
X4128917Y4621456D01*
X4134542Y4619581D01*
X4138291D01*
X4083923D02*
X4106420D01*
X4095172D02*
Y4658951D01*
X4098921Y4653327D01*
X4102671Y4649577D01*
X4106420Y4647703D01*
D11*
X4064894Y4595472D02*
Y4349409D01*
Y4595472D02*
X4198752D01*
X4064894Y4349409D02*
X4198752D01*
X4407414Y4595472D02*
X4541272D01*
X4407414Y4349409D02*
X4541272D01*
Y4595472D01*
X4197571Y4629133D02*
G03Y4629133I-3936D01*
G01*
D10*
X4123293Y6225880D02*
Y6197759D01*
X4125168Y6192134D01*
X4128917Y6188385D01*
X4134542Y6186510D01*
X4138291D01*
X4083923D02*
X4106420D01*
X4095172D02*
Y6225880D01*
X4098921Y6220256D01*
X4102671Y6216506D01*
X4106420Y6214632D01*
D11*
X4064894Y6162401D02*
Y5916338D01*
Y6162401D02*
X4198752D01*
X4064894Y5916338D02*
X4198752D01*
X4407414Y6162401D02*
X4541272D01*
X4407414Y5916338D02*
X4541272D01*
Y6162401D01*
X4197571Y6196062D02*
G03Y6196062I-3936D01*
G01*
D10*
X4123293Y7792809D02*
Y7764688D01*
X4125168Y7759063D01*
X4128917Y7755314D01*
X4134542Y7753439D01*
X4138291D01*
X4083923D02*
X4106420D01*
X4095172D02*
Y7792809D01*
X4098921Y7787185D01*
X4102671Y7783435D01*
X4106420Y7781561D01*
D11*
X4064894Y7729330D02*
Y7483267D01*
Y7729330D02*
X4198752D01*
X4064894Y7483267D02*
X4198752D01*
X4407414Y7729330D02*
X4541272D01*
X4407414Y7483267D02*
X4541272D01*
Y7729330D01*
X4197571Y7762991D02*
G03Y7762991I-3936D01*
G01*
D10*
X4123293Y9359738D02*
Y9331617D01*
X4125168Y9325992D01*
X4128917Y9322243D01*
X4134542Y9320368D01*
X4138291D01*
X4083923D02*
X4106420D01*
X4095172D02*
Y9359738D01*
X4098921Y9354114D01*
X4102671Y9350364D01*
X4106420Y9348490D01*
D11*
X4064894Y9296259D02*
Y9050196D01*
Y9296259D02*
X4198752D01*
X4064894Y9050196D02*
X4198752D01*
X4407414Y9296259D02*
X4541272D01*
X4407414Y9050196D02*
X4541272D01*
Y9296259D01*
X4197571Y9329920D02*
G03Y9329920I-3936D01*
%LPC*%
D12*
X601186Y257874D03*
D13*
X1090527Y1199801D03*
X1129897Y1477360D03*
Y1199801D03*
X1169267Y1477360D03*
Y1199801D03*
X1208637Y1477360D03*
Y1199801D03*
X1248007Y1477360D03*
Y1199801D03*
D14*
X1041316Y1318897D03*
X1297222D03*
D15*
X472419Y78740D03*
X1811001Y1456692D03*
X472419D03*
D16*
X982279Y1423200D03*
X1356279D03*
D17*
X1554938Y462598D02*
G03Y462598I-374014D01*
X472419Y1566929D02*
G03X393679Y1488188J-78740D01*
X1881867Y0D02*
G03X1960608Y78740J78740D01*
X393679D02*
G03X472419Y0I78740D01*
D18*
X1356277Y1423228D03*
D17*
X1960608Y1488188D02*
G03X1881867Y1566929I-78740D01*
D13*
X1090527Y1477360D03*
D18*
X982261Y1423228D03*
G01*
D17*
X393679Y1488188D02*
Y78740D01*
D12*
X1761001Y257874D03*
D19*
X507079Y487800D03*
X771679Y1183100D03*
D17*
X1881867Y1566929D02*
X472419D01*
X1960608Y78740D02*
Y1488188D01*
D19*
X696779Y602400D03*
X944879Y1183100D03*
X984279Y921300D03*
X858279Y1180600D03*
X1362179Y1187500D03*
X1456679Y1185000D03*
X1551179D03*
X1842279Y497800D03*
D17*
X472419Y0D02*
X1881867D01*
D20*
X1041279Y1318900D03*
X1297179D03*
D21*
X601179Y257900D03*
X1760979D03*
D22*
X982279Y1423200D03*
X1356279D03*
D12*
X601186Y1824803D03*
D13*
X1090527Y2766730D03*
X1129897Y3044289D03*
Y2766730D03*
X1169267Y3044289D03*
Y2766730D03*
X1208637Y3044289D03*
Y2766730D03*
X1248007Y3044289D03*
Y2766730D03*
D14*
X1041316Y2885826D03*
X1297222D03*
D15*
X472419Y1645669D03*
X1811001Y3023621D03*
X472419D03*
D16*
X982279Y2990129D03*
X1356279D03*
D17*
X1554938Y2029527D02*
G03Y2029527I-374014D01*
X472419Y3133858D02*
G03X393679Y3055117J-78740D01*
X1881867Y1566929D02*
G03X1960608Y1645669J78740D01*
X393679D02*
G03X472419Y1566929I78740D01*
D18*
X1356277Y2990157D03*
D17*
X1960608Y3055117D02*
G03X1881867Y3133858I-78740D01*
D13*
X1090527Y3044289D03*
D18*
X982261Y2990157D03*
G01*
D17*
X393679Y3055117D02*
Y1645669D01*
D12*
X1761001Y1824803D03*
D19*
X507079Y2054729D03*
X771679Y2750029D03*
D17*
X1881867Y3133858D02*
X472419D01*
X1960608Y1645669D02*
Y3055117D01*
D19*
X696779Y2169329D03*
X944879Y2750029D03*
X984279Y2488229D03*
X858279Y2747529D03*
X1362179Y2754429D03*
X1456679Y2751929D03*
X1551179D03*
X1842279Y2064729D03*
D17*
X472419Y1566929D02*
X1881867D01*
D20*
X1041279Y2885829D03*
X1297179D03*
D21*
X601179Y1824829D03*
X1760979D03*
D22*
X982279Y2990129D03*
X1356279D03*
D12*
X601186Y3391732D03*
D13*
X1090527Y4333659D03*
X1129897Y4611218D03*
Y4333659D03*
X1169267Y4611218D03*
Y4333659D03*
X1208637Y4611218D03*
Y4333659D03*
X1248007Y4611218D03*
Y4333659D03*
D14*
X1041316Y4452755D03*
X1297222D03*
D15*
X472419Y3212598D03*
X1811001Y4590550D03*
X472419D03*
D16*
X982279Y4557058D03*
X1356279D03*
D17*
X1554938Y3596456D02*
G03Y3596456I-374014D01*
X472419Y4700787D02*
G03X393679Y4622046J-78740D01*
X1881867Y3133858D02*
G03X1960608Y3212598J78740D01*
X393679D02*
G03X472419Y3133858I78740D01*
D18*
X1356277Y4557086D03*
D17*
X1960608Y4622046D02*
G03X1881867Y4700787I-78740D01*
D13*
X1090527Y4611218D03*
D18*
X982261Y4557086D03*
G01*
D17*
X393679Y4622046D02*
Y3212598D01*
D12*
X1761001Y3391732D03*
D19*
X507079Y3621658D03*
X771679Y4316958D03*
D17*
X1881867Y4700787D02*
X472419D01*
X1960608Y3212598D02*
Y4622046D01*
D19*
X696779Y3736258D03*
X944879Y4316958D03*
X984279Y4055158D03*
X858279Y4314458D03*
X1362179Y4321358D03*
X1456679Y4318858D03*
X1551179D03*
X1842279Y3631658D03*
D17*
X472419Y3133858D02*
X1881867D01*
D20*
X1041279Y4452758D03*
X1297179D03*
D21*
X601179Y3391758D03*
X1760979D03*
D22*
X982279Y4557058D03*
X1356279D03*
D12*
X601186Y4958661D03*
D13*
X1090527Y5900588D03*
X1129897Y6178147D03*
Y5900588D03*
X1169267Y6178147D03*
Y5900588D03*
X1208637Y6178147D03*
Y5900588D03*
X1248007Y6178147D03*
Y5900588D03*
D14*
X1041316Y6019684D03*
X1297222D03*
D15*
X472419Y4779527D03*
X1811001Y6157479D03*
X472419D03*
D16*
X982279Y6123987D03*
X1356279D03*
D17*
X1554938Y5163385D02*
G03Y5163385I-374014D01*
X472419Y6267716D02*
G03X393679Y6188975J-78740D01*
X1881867Y4700787D02*
G03X1960608Y4779527J78740D01*
X393679D02*
G03X472419Y4700787I78740D01*
D18*
X1356277Y6124015D03*
D17*
X1960608Y6188975D02*
G03X1881867Y6267716I-78740D01*
D13*
X1090527Y6178147D03*
D18*
X982261Y6124015D03*
G01*
D17*
X393679Y6188975D02*
Y4779527D01*
D12*
X1761001Y4958661D03*
D19*
X507079Y5188587D03*
X771679Y5883887D03*
D17*
X1881867Y6267716D02*
X472419D01*
X1960608Y4779527D02*
Y6188975D01*
D19*
X696779Y5303187D03*
X944879Y5883887D03*
X984279Y5622087D03*
X858279Y5881387D03*
X1362179Y5888287D03*
X1456679Y5885787D03*
X1551179D03*
X1842279Y5198587D03*
D17*
X472419Y4700787D02*
X1881867D01*
D20*
X1041279Y6019687D03*
X1297179D03*
D21*
X601179Y4958687D03*
X1760979D03*
D22*
X982279Y6123987D03*
X1356279D03*
D12*
X601186Y6525590D03*
D13*
X1090527Y7467517D03*
X1129897Y7745076D03*
Y7467517D03*
X1169267Y7745076D03*
Y7467517D03*
X1208637Y7745076D03*
Y7467517D03*
X1248007Y7745076D03*
Y7467517D03*
D14*
X1041316Y7586613D03*
X1297222D03*
D15*
X472419Y6346456D03*
X1811001Y7724408D03*
X472419D03*
D16*
X982279Y7690916D03*
X1356279D03*
D17*
X1554938Y6730314D02*
G03Y6730314I-374014D01*
X472419Y7834645D02*
G03X393679Y7755904J-78740D01*
X1881867Y6267716D02*
G03X1960608Y6346456J78740D01*
X393679D02*
G03X472419Y6267716I78740D01*
D18*
X1356277Y7690944D03*
D17*
X1960608Y7755904D02*
G03X1881867Y7834645I-78740D01*
D13*
X1090527Y7745076D03*
D18*
X982261Y7690944D03*
G01*
D17*
X393679Y7755904D02*
Y6346456D01*
D12*
X1761001Y6525590D03*
D19*
X507079Y6755516D03*
X771679Y7450816D03*
D17*
X1881867Y7834645D02*
X472419D01*
X1960608Y6346456D02*
Y7755904D01*
D19*
X696779Y6870116D03*
X944879Y7450816D03*
X984279Y7189016D03*
X858279Y7448316D03*
X1362179Y7455216D03*
X1456679Y7452716D03*
X1551179D03*
X1842279Y6765516D03*
D17*
X472419Y6267716D02*
X1881867D01*
D20*
X1041279Y7586616D03*
X1297179D03*
D21*
X601179Y6525616D03*
X1760979D03*
D22*
X982279Y7690916D03*
X1356279D03*
D12*
X601186Y8092519D03*
D13*
X1090527Y9034446D03*
X1129897Y9312005D03*
Y9034446D03*
X1169267Y9312005D03*
Y9034446D03*
X1208637Y9312005D03*
Y9034446D03*
X1248007Y9312005D03*
Y9034446D03*
D14*
X1041316Y9153542D03*
X1297222D03*
D15*
X472419Y7913385D03*
X1811001Y9291337D03*
X472419D03*
D16*
X982279Y9257845D03*
X1356279D03*
D17*
X1554938Y8297243D02*
G03Y8297243I-374014D01*
X472419Y9401574D02*
G03X393679Y9322833J-78740D01*
X1881867Y7834645D02*
G03X1960608Y7913385J78740D01*
X393679D02*
G03X472419Y7834645I78740D01*
D18*
X1356277Y9257873D03*
D17*
X1960608Y9322833D02*
G03X1881867Y9401574I-78740D01*
D13*
X1090527Y9312005D03*
D18*
X982261Y9257873D03*
G01*
D17*
X393679Y9322833D02*
Y7913385D01*
D12*
X1761001Y8092519D03*
D19*
X507079Y8322445D03*
X771679Y9017745D03*
D17*
X1881867Y9401574D02*
X472419D01*
X1960608Y7913385D02*
Y9322833D01*
D19*
X696779Y8437045D03*
X944879Y9017745D03*
X984279Y8755945D03*
X858279Y9015245D03*
X1362179Y9022145D03*
X1456679Y9019645D03*
X1551179D03*
X1842279Y8332445D03*
D17*
X472419Y7834645D02*
X1881867D01*
D20*
X1041279Y9153545D03*
X1297179D03*
D21*
X601179Y8092545D03*
X1760979D03*
D22*
X982279Y9257845D03*
X1356279D03*
D12*
X2168093Y257874D03*
D13*
X2657434Y1199801D03*
X2696804Y1477360D03*
Y1199801D03*
X2736174Y1477360D03*
Y1199801D03*
X2775544Y1477360D03*
Y1199801D03*
X2814914Y1477360D03*
Y1199801D03*
D14*
X2608223Y1318897D03*
X2864129D03*
D15*
X2039326Y78740D03*
X3377908Y1456692D03*
X2039326D03*
D16*
X2549186Y1423200D03*
X2923186D03*
D17*
X3121845Y462598D02*
G03Y462598I-374014D01*
X2039326Y1566929D02*
G03X1960586Y1488188J-78740D01*
X3448774Y0D02*
G03X3527515Y78740J78740D01*
X1960586D02*
G03X2039326Y0I78740D01*
D18*
X2923184Y1423228D03*
D17*
X3527515Y1488188D02*
G03X3448774Y1566929I-78740D01*
D13*
X2657434Y1477360D03*
D18*
X2549168Y1423228D03*
G01*
D17*
X1960586Y1488188D02*
Y78740D01*
D12*
X3327908Y257874D03*
D19*
X2073986Y487800D03*
X2338586Y1183100D03*
D17*
X3448774Y1566929D02*
X2039326D01*
X3527515Y78740D02*
Y1488188D01*
D19*
X2263686Y602400D03*
X2511786Y1183100D03*
X2551186Y921300D03*
X2425186Y1180600D03*
X2929086Y1187500D03*
X3023586Y1185000D03*
X3118086D03*
X3409186Y497800D03*
D17*
X2039326Y0D02*
X3448774D01*
D20*
X2608186Y1318900D03*
X2864086D03*
D21*
X2168086Y257900D03*
X3327886D03*
D22*
X2549186Y1423200D03*
X2923186D03*
D12*
X2168093Y1824803D03*
D13*
X2657434Y2766730D03*
X2696804Y3044289D03*
Y2766730D03*
X2736174Y3044289D03*
Y2766730D03*
X2775544Y3044289D03*
Y2766730D03*
X2814914Y3044289D03*
Y2766730D03*
D14*
X2608223Y2885826D03*
X2864129D03*
D15*
X2039326Y1645669D03*
X3377908Y3023621D03*
X2039326D03*
D16*
X2549186Y2990129D03*
X2923186D03*
D17*
X3121845Y2029527D02*
G03Y2029527I-374014D01*
X2039326Y3133858D02*
G03X1960586Y3055117J-78740D01*
X3448774Y1566929D02*
G03X3527515Y1645669J78740D01*
X1960586D02*
G03X2039326Y1566929I78740D01*
D18*
X2923184Y2990157D03*
D17*
X3527515Y3055117D02*
G03X3448774Y3133858I-78740D01*
D13*
X2657434Y3044289D03*
D18*
X2549168Y2990157D03*
G01*
D17*
X1960586Y3055117D02*
Y1645669D01*
D12*
X3327908Y1824803D03*
D19*
X2073986Y2054729D03*
X2338586Y2750029D03*
D17*
X3448774Y3133858D02*
X2039326D01*
X3527515Y1645669D02*
Y3055117D01*
D19*
X2263686Y2169329D03*
X2511786Y2750029D03*
X2551186Y2488229D03*
X2425186Y2747529D03*
X2929086Y2754429D03*
X3023586Y2751929D03*
X3118086D03*
X3409186Y2064729D03*
D17*
X2039326Y1566929D02*
X3448774D01*
D20*
X2608186Y2885829D03*
X2864086D03*
D21*
X2168086Y1824829D03*
X3327886D03*
D22*
X2549186Y2990129D03*
X2923186D03*
D12*
X2168093Y3391732D03*
D13*
X2657434Y4333659D03*
X2696804Y4611218D03*
Y4333659D03*
X2736174Y4611218D03*
Y4333659D03*
X2775544Y4611218D03*
Y4333659D03*
X2814914Y4611218D03*
Y4333659D03*
D14*
X2608223Y4452755D03*
X2864129D03*
D15*
X2039326Y3212598D03*
X3377908Y4590550D03*
X2039326D03*
D16*
X2549186Y4557058D03*
X2923186D03*
D17*
X3121845Y3596456D02*
G03Y3596456I-374014D01*
X2039326Y4700787D02*
G03X1960586Y4622046J-78740D01*
X3448774Y3133858D02*
G03X3527515Y3212598J78740D01*
X1960586D02*
G03X2039326Y3133858I78740D01*
D18*
X2923184Y4557086D03*
D17*
X3527515Y4622046D02*
G03X3448774Y4700787I-78740D01*
D13*
X2657434Y4611218D03*
D18*
X2549168Y4557086D03*
G01*
D17*
X1960586Y4622046D02*
Y3212598D01*
D12*
X3327908Y3391732D03*
D19*
X2073986Y3621658D03*
X2338586Y4316958D03*
D17*
X3448774Y4700787D02*
X2039326D01*
X3527515Y3212598D02*
Y4622046D01*
D19*
X2263686Y3736258D03*
X2511786Y4316958D03*
X2551186Y4055158D03*
X2425186Y4314458D03*
X2929086Y4321358D03*
X3023586Y4318858D03*
X3118086D03*
X3409186Y3631658D03*
D17*
X2039326Y3133858D02*
X3448774D01*
D20*
X2608186Y4452758D03*
X2864086D03*
D21*
X2168086Y3391758D03*
X3327886D03*
D22*
X2549186Y4557058D03*
X2923186D03*
D12*
X2168093Y4958661D03*
D13*
X2657434Y5900588D03*
X2696804Y6178147D03*
Y5900588D03*
X2736174Y6178147D03*
Y5900588D03*
X2775544Y6178147D03*
Y5900588D03*
X2814914Y6178147D03*
Y5900588D03*
D14*
X2608223Y6019684D03*
X2864129D03*
D15*
X2039326Y4779527D03*
X3377908Y6157479D03*
X2039326D03*
D16*
X2549186Y6123987D03*
X2923186D03*
D17*
X3121845Y5163385D02*
G03Y5163385I-374014D01*
X2039326Y6267716D02*
G03X1960586Y6188975J-78740D01*
X3448774Y4700787D02*
G03X3527515Y4779527J78740D01*
X1960586D02*
G03X2039326Y4700787I78740D01*
D18*
X2923184Y6124015D03*
D17*
X3527515Y6188975D02*
G03X3448774Y6267716I-78740D01*
D13*
X2657434Y6178147D03*
D18*
X2549168Y6124015D03*
G01*
D17*
X1960586Y6188975D02*
Y4779527D01*
D12*
X3327908Y4958661D03*
D19*
X2073986Y5188587D03*
X2338586Y5883887D03*
D17*
X3448774Y6267716D02*
X2039326D01*
X3527515Y4779527D02*
Y6188975D01*
D19*
X2263686Y5303187D03*
X2511786Y5883887D03*
X2551186Y5622087D03*
X2425186Y5881387D03*
X2929086Y5888287D03*
X3023586Y5885787D03*
X3118086D03*
X3409186Y5198587D03*
D17*
X2039326Y4700787D02*
X3448774D01*
D20*
X2608186Y6019687D03*
X2864086D03*
D21*
X2168086Y4958687D03*
X3327886D03*
D22*
X2549186Y6123987D03*
X2923186D03*
D12*
X2168093Y6525590D03*
D13*
X2657434Y7467517D03*
X2696804Y7745076D03*
Y7467517D03*
X2736174Y7745076D03*
Y7467517D03*
X2775544Y7745076D03*
Y7467517D03*
X2814914Y7745076D03*
Y7467517D03*
D14*
X2608223Y7586613D03*
X2864129D03*
D15*
X2039326Y6346456D03*
X3377908Y7724408D03*
X2039326D03*
D16*
X2549186Y7690916D03*
X2923186D03*
D17*
X3121845Y6730314D02*
G03Y6730314I-374014D01*
X2039326Y7834645D02*
G03X1960586Y7755904J-78740D01*
X3448774Y6267716D02*
G03X3527515Y6346456J78740D01*
X1960586D02*
G03X2039326Y6267716I78740D01*
D18*
X2923184Y7690944D03*
D17*
X3527515Y7755904D02*
G03X3448774Y7834645I-78740D01*
D13*
X2657434Y7745076D03*
D18*
X2549168Y7690944D03*
G01*
D17*
X1960586Y7755904D02*
Y6346456D01*
D12*
X3327908Y6525590D03*
D19*
X2073986Y6755516D03*
X2338586Y7450816D03*
D17*
X3448774Y7834645D02*
X2039326D01*
X3527515Y6346456D02*
Y7755904D01*
D19*
X2263686Y6870116D03*
X2511786Y7450816D03*
X2551186Y7189016D03*
X2425186Y7448316D03*
X2929086Y7455216D03*
X3023586Y7452716D03*
X3118086D03*
X3409186Y6765516D03*
D17*
X2039326Y6267716D02*
X3448774D01*
D20*
X2608186Y7586616D03*
X2864086D03*
D21*
X2168086Y6525616D03*
X3327886D03*
D22*
X2549186Y7690916D03*
X2923186D03*
D12*
X2168093Y8092519D03*
D13*
X2657434Y9034446D03*
X2696804Y9312005D03*
Y9034446D03*
X2736174Y9312005D03*
Y9034446D03*
X2775544Y9312005D03*
Y9034446D03*
X2814914Y9312005D03*
Y9034446D03*
D14*
X2608223Y9153542D03*
X2864129D03*
D15*
X2039326Y7913385D03*
X3377908Y9291337D03*
X2039326D03*
D16*
X2549186Y9257845D03*
X2923186D03*
D17*
X3121845Y8297243D02*
G03Y8297243I-374014D01*
X2039326Y9401574D02*
G03X1960586Y9322833J-78740D01*
X3448774Y7834645D02*
G03X3527515Y7913385J78740D01*
X1960586D02*
G03X2039326Y7834645I78740D01*
D18*
X2923184Y9257873D03*
D17*
X3527515Y9322833D02*
G03X3448774Y9401574I-78740D01*
D13*
X2657434Y9312005D03*
D18*
X2549168Y9257873D03*
G01*
D17*
X1960586Y9322833D02*
Y7913385D01*
D12*
X3327908Y8092519D03*
D19*
X2073986Y8322445D03*
X2338586Y9017745D03*
D17*
X3448774Y9401574D02*
X2039326D01*
X3527515Y7913385D02*
Y9322833D01*
D19*
X2263686Y8437045D03*
X2511786Y9017745D03*
X2551186Y8755945D03*
X2425186Y9015245D03*
X2929086Y9022145D03*
X3023586Y9019645D03*
X3118086D03*
X3409186Y8332445D03*
D17*
X2039326Y7834645D02*
X3448774D01*
D20*
X2608186Y9153545D03*
X2864086D03*
D21*
X2168086Y8092545D03*
X3327886D03*
D22*
X2549186Y9257845D03*
X2923186D03*
D12*
X3735000Y257874D03*
D13*
X4224341Y1199801D03*
X4263711Y1477360D03*
Y1199801D03*
X4303081Y1477360D03*
Y1199801D03*
X4342451Y1477360D03*
Y1199801D03*
X4381821Y1477360D03*
Y1199801D03*
D14*
X4175130Y1318897D03*
X4431036D03*
D15*
X3606233Y78740D03*
X4944815Y1456692D03*
X3606233D03*
D16*
X4116093Y1423200D03*
X4490093D03*
D17*
X4688752Y462598D02*
G03Y462598I-374014D01*
X3606233Y1566929D02*
G03X3527493Y1488188J-78740D01*
X5015681Y0D02*
G03X5094422Y78740J78740D01*
X3527493D02*
G03X3606233Y0I78740D01*
D18*
X4490091Y1423228D03*
D17*
X5094422Y1488188D02*
G03X5015681Y1566929I-78740D01*
D13*
X4224341Y1477360D03*
D18*
X4116075Y1423228D03*
G01*
D17*
X3527493Y1488188D02*
Y78740D01*
D12*
X4894815Y257874D03*
D19*
X3640893Y487800D03*
X3905493Y1183100D03*
D17*
X5015681Y1566929D02*
X3606233D01*
X5094422Y78740D02*
Y1488188D01*
D19*
X3830593Y602400D03*
X4078693Y1183100D03*
X4118093Y921300D03*
X3992093Y1180600D03*
X4495993Y1187500D03*
X4590493Y1185000D03*
X4684993D03*
X4976093Y497800D03*
D17*
X3606233Y0D02*
X5015681D01*
D20*
X4175093Y1318900D03*
X4430993D03*
D21*
X3734993Y257900D03*
X4894793D03*
D22*
X4116093Y1423200D03*
X4490093D03*
D12*
X3735000Y1824803D03*
D13*
X4224341Y2766730D03*
X4263711Y3044289D03*
Y2766730D03*
X4303081Y3044289D03*
Y2766730D03*
X4342451Y3044289D03*
Y2766730D03*
X4381821Y3044289D03*
Y2766730D03*
D14*
X4175130Y2885826D03*
X4431036D03*
D15*
X3606233Y1645669D03*
X4944815Y3023621D03*
X3606233D03*
D16*
X4116093Y2990129D03*
X4490093D03*
D17*
X4688752Y2029527D02*
G03Y2029527I-374014D01*
X3606233Y3133858D02*
G03X3527493Y3055117J-78740D01*
X5015681Y1566929D02*
G03X5094422Y1645669J78740D01*
X3527493D02*
G03X3606233Y1566929I78740D01*
D18*
X4490091Y2990157D03*
D17*
X5094422Y3055117D02*
G03X5015681Y3133858I-78740D01*
D13*
X4224341Y3044289D03*
D18*
X4116075Y2990157D03*
G01*
D17*
X3527493Y3055117D02*
Y1645669D01*
D12*
X4894815Y1824803D03*
D19*
X3640893Y2054729D03*
X3905493Y2750029D03*
D17*
X5015681Y3133858D02*
X3606233D01*
X5094422Y1645669D02*
Y3055117D01*
D19*
X3830593Y2169329D03*
X4078693Y2750029D03*
X4118093Y2488229D03*
X3992093Y2747529D03*
X4495993Y2754429D03*
X4590493Y2751929D03*
X4684993D03*
X4976093Y2064729D03*
D17*
X3606233Y1566929D02*
X5015681D01*
D20*
X4175093Y2885829D03*
X4430993D03*
D21*
X3734993Y1824829D03*
X4894793D03*
D22*
X4116093Y2990129D03*
X4490093D03*
D12*
X3735000Y3391732D03*
D13*
X4224341Y4333659D03*
X4263711Y4611218D03*
Y4333659D03*
X4303081Y4611218D03*
Y4333659D03*
X4342451Y4611218D03*
Y4333659D03*
X4381821Y4611218D03*
Y4333659D03*
D14*
X4175130Y4452755D03*
X4431036D03*
D15*
X3606233Y3212598D03*
X4944815Y4590550D03*
X3606233D03*
D16*
X4116093Y4557058D03*
X4490093D03*
D17*
X4688752Y3596456D02*
G03Y3596456I-374014D01*
X3606233Y4700787D02*
G03X3527493Y4622046J-78740D01*
X5015681Y3133858D02*
G03X5094422Y3212598J78740D01*
X3527493D02*
G03X3606233Y3133858I78740D01*
D18*
X4490091Y4557086D03*
D17*
X5094422Y4622046D02*
G03X5015681Y4700787I-78740D01*
D13*
X4224341Y4611218D03*
D18*
X4116075Y4557086D03*
G01*
D17*
X3527493Y4622046D02*
Y3212598D01*
D12*
X4894815Y3391732D03*
D19*
X3640893Y3621658D03*
X3905493Y4316958D03*
D17*
X5015681Y4700787D02*
X3606233D01*
X5094422Y3212598D02*
Y4622046D01*
D19*
X3830593Y3736258D03*
X4078693Y4316958D03*
X4118093Y4055158D03*
X3992093Y4314458D03*
X4495993Y4321358D03*
X4590493Y4318858D03*
X4684993D03*
X4976093Y3631658D03*
D17*
X3606233Y3133858D02*
X5015681D01*
D20*
X4175093Y4452758D03*
X4430993D03*
D21*
X3734993Y3391758D03*
X4894793D03*
D22*
X4116093Y4557058D03*
X4490093D03*
D12*
X3735000Y4958661D03*
D13*
X4224341Y5900588D03*
X4263711Y6178147D03*
Y5900588D03*
X4303081Y6178147D03*
Y5900588D03*
X4342451Y6178147D03*
Y5900588D03*
X4381821Y6178147D03*
Y5900588D03*
D14*
X4175130Y6019684D03*
X4431036D03*
D15*
X3606233Y4779527D03*
X4944815Y6157479D03*
X3606233D03*
D16*
X4116093Y6123987D03*
X4490093D03*
D17*
X4688752Y5163385D02*
G03Y5163385I-374014D01*
X3606233Y6267716D02*
G03X3527493Y6188975J-78740D01*
X5015681Y4700787D02*
G03X5094422Y4779527J78740D01*
X3527493D02*
G03X3606233Y4700787I78740D01*
D18*
X4490091Y6124015D03*
D17*
X5094422Y6188975D02*
G03X5015681Y6267716I-78740D01*
D13*
X4224341Y6178147D03*
D18*
X4116075Y6124015D03*
G01*
D17*
X3527493Y6188975D02*
Y4779527D01*
D12*
X4894815Y4958661D03*
D19*
X3640893Y5188587D03*
X3905493Y5883887D03*
D17*
X5015681Y6267716D02*
X3606233D01*
X5094422Y4779527D02*
Y6188975D01*
D19*
X3830593Y5303187D03*
X4078693Y5883887D03*
X4118093Y5622087D03*
X3992093Y5881387D03*
X4495993Y5888287D03*
X4590493Y5885787D03*
X4684993D03*
X4976093Y5198587D03*
D17*
X3606233Y4700787D02*
X5015681D01*
D20*
X4175093Y6019687D03*
X4430993D03*
D21*
X3734993Y4958687D03*
X4894793D03*
D22*
X4116093Y6123987D03*
X4490093D03*
D12*
X3735000Y6525590D03*
D13*
X4224341Y7467517D03*
X4263711Y7745076D03*
Y7467517D03*
X4303081Y7745076D03*
Y7467517D03*
X4342451Y7745076D03*
Y7467517D03*
X4381821Y7745076D03*
Y7467517D03*
D14*
X4175130Y7586613D03*
X4431036D03*
D15*
X3606233Y6346456D03*
X4944815Y7724408D03*
X3606233D03*
D16*
X4116093Y7690916D03*
X4490093D03*
D17*
X4688752Y6730314D02*
G03Y6730314I-374014D01*
X3606233Y7834645D02*
G03X3527493Y7755904J-78740D01*
X5015681Y6267716D02*
G03X5094422Y6346456J78740D01*
X3527493D02*
G03X3606233Y6267716I78740D01*
D18*
X4490091Y7690944D03*
D17*
X5094422Y7755904D02*
G03X5015681Y7834645I-78740D01*
D13*
X4224341Y7745076D03*
D18*
X4116075Y7690944D03*
G01*
D17*
X3527493Y7755904D02*
Y6346456D01*
D12*
X4894815Y6525590D03*
D19*
X3640893Y6755516D03*
X3905493Y7450816D03*
D17*
X5015681Y7834645D02*
X3606233D01*
X5094422Y6346456D02*
Y7755904D01*
D19*
X3830593Y6870116D03*
X4078693Y7450816D03*
X4118093Y7189016D03*
X3992093Y7448316D03*
X4495993Y7455216D03*
X4590493Y7452716D03*
X4684993D03*
X4976093Y6765516D03*
D17*
X3606233Y6267716D02*
X5015681D01*
D20*
X4175093Y7586616D03*
X4430993D03*
D21*
X3734993Y6525616D03*
X4894793D03*
D22*
X4116093Y7690916D03*
X4490093D03*
D12*
X3735000Y8092519D03*
D13*
X4224341Y9034446D03*
X4263711Y9312005D03*
Y9034446D03*
X4303081Y9312005D03*
Y9034446D03*
X4342451Y9312005D03*
Y9034446D03*
X4381821Y9312005D03*
Y9034446D03*
D14*
X4175130Y9153542D03*
X4431036D03*
D15*
X3606233Y7913385D03*
X4944815Y9291337D03*
X3606233D03*
D16*
X4116093Y9257845D03*
X4490093D03*
D17*
X4688752Y8297243D02*
G03Y8297243I-374014D01*
X3606233Y9401574D02*
G03X3527493Y9322833J-78740D01*
X5015681Y7834645D02*
G03X5094422Y7913385J78740D01*
X3527493D02*
G03X3606233Y7834645I78740D01*
D18*
X4490091Y9257873D03*
D17*
X5094422Y9322833D02*
G03X5015681Y9401574I-78740D01*
D13*
X4224341Y9312005D03*
D18*
X4116075Y9257873D03*
G01*
D17*
X3527493Y9322833D02*
Y7913385D01*
D12*
X4894815Y8092519D03*
D19*
X3640893Y8322445D03*
X3905493Y9017745D03*
D17*
X5015681Y9401574D02*
X3606233D01*
X5094422Y7913385D02*
Y9322833D01*
D19*
X3830593Y8437045D03*
X4078693Y9017745D03*
X4118093Y8755945D03*
X3992093Y9015245D03*
X4495993Y9022145D03*
X4590493Y9019645D03*
X4684993D03*
X4976093Y8332445D03*
D17*
X3606233Y7834645D02*
X5015681D01*
D20*
X4175093Y9153545D03*
X4430993D03*
D21*
X3734993Y8092545D03*
X4894793D03*
D22*
X4116093Y9257845D03*
X4490093D03*
%LPC*%
D23*
X406530Y15282D03*
X1960594Y31977D03*
X3527501D03*
X5081585Y15192D03*
X5081584Y9386271D03*
X3527501Y9369595D03*
X1960594D03*
X406529Y9386400D03*
X5107255Y12834D03*
X5107254Y9388737D03*
X380860Y12834D03*
X381232Y9388723D03*
X1928608Y7834643D03*
X1960594Y7866622D03*
X1992580Y7834643D03*
X3495515D03*
X3527501Y7866622D03*
X3559487Y7834643D03*
X5081584Y7819334D03*
X5062422Y7834643D03*
X5081584Y7849836D03*
X406513Y7849945D03*
X425673Y7834643D03*
X406513Y7819454D03*
X1928608Y6267714D03*
X1960594Y6299693D03*
X1992580Y6267714D03*
X3495515D03*
X3527501Y6299693D03*
X3559487Y6267714D03*
X5081584Y6252405D03*
X5062422Y6267714D03*
X5081584Y6282907D03*
X406513Y6283016D03*
X425673Y6267714D03*
X406513Y6252525D03*
X1928608Y4700785D03*
X1960594Y4732764D03*
X1992580Y4700785D03*
X3495515D03*
X3527501Y4732764D03*
X3559487Y4700785D03*
X5081584Y4685476D03*
X5062422Y4700785D03*
X5081584Y4715978D03*
X406513Y4716087D03*
X425673Y4700785D03*
X406513Y4685596D03*
X3495515Y3133856D03*
X3527501Y3165835D03*
X3559487Y3133856D03*
X1928608D03*
X1960594Y3165835D03*
X1992580Y3133856D03*
X5081584Y3118547D03*
X5062422Y3133856D03*
X5081584Y3149049D03*
X406513Y3149158D03*
X425673Y3133856D03*
X406513Y3118667D03*
X1928608Y1566927D03*
X1960594Y1598906D03*
X1992580Y1566927D03*
X3495515D03*
X3527501Y1598906D03*
X3559487Y1566927D03*
X5081584Y1551618D03*
X5062422Y1566927D03*
X5081584Y1582120D03*
X406513Y1582229D03*
X425673Y1566927D03*
X406513Y1551738D03*
X1960778Y7801734D03*
X3527685D03*
Y6234805D03*
Y4667876D03*
Y3100947D03*
Y1534018D03*
X1960778D03*
Y3100947D03*
Y4667876D03*
Y6234805D03*
M02*
