G04 -- output software:jlccam v1.3.0 *
G04 -- dbname:*
G04 -- stepname:set*
G04 -- layer:bs*
*
G04 -- format*
%FSLAX26Y26*%
%MOIN*%
*
G04 -- apertures*
%ADD10C,0.188040*%
%ADD11C,0.035040*%
%ADD12R,0.026614X0.081732*%
%ADD13C,0.052134*%
%ADD14C,0.118110*%
%ADD15C,0.045276*%
%ADD16C,0.005904*%
%ADD17C,0.009842*%
%ADD18C,0.092520*%
%ADD19C,0.006000*%
%ADD20C,0.078740*%
%ADD21C,0.007874*%
%ADD22C,0.033544*%
*
G75*
G90*
*
G54D10*
%LPD*%
D10*
X601186Y257874D03*
X1761001D03*
D11*
X982261Y1423228D03*
X1356277D03*
D12*
X1090528Y1477361D03*
Y1199802D03*
X1129898Y1477361D03*
Y1199802D03*
X1169268Y1477361D03*
Y1199802D03*
X1208638Y1477361D03*
Y1199802D03*
X1248008Y1477361D03*
Y1199802D03*
D13*
X1041316Y1318897D03*
X1297222D03*
D14*
X472419Y78740D03*
X1811001Y1456692D03*
X472419D03*
D15*
X982279Y1423200D03*
X1356279D03*
D16*
X1554938Y462598D02*
G03Y462598I-374014D01*
X472419Y1566929D02*
G03X393679Y1488188J-78740D01*
X1881867Y0D02*
G03X1960608Y78740J78740D01*
X393679D02*
G03X472419Y0I78740D01*
X1960608Y1488188D02*
G03X1881867Y1566929I-78740D01*
G01*
X393679Y1488188D02*
Y78740D01*
X472419Y0D02*
X1881867D01*
X1960608Y78740D02*
Y1488188D01*
X1881867Y1566929D02*
X472419D01*
D17*
X507079Y487800D03*
X696779Y602400D03*
X771679Y1183100D03*
X858279Y1180600D03*
X944879Y1183100D03*
X984279Y921300D03*
X1362179Y1187500D03*
X1456679Y1185000D03*
X1551179D03*
X1842279Y497800D03*
D10*
X601186Y1824803D03*
X1761001D03*
D11*
X982261Y2990157D03*
X1356277D03*
D12*
X1090528Y3044290D03*
Y2766731D03*
X1129898Y3044290D03*
Y2766731D03*
X1169268Y3044290D03*
Y2766731D03*
X1208638Y3044290D03*
Y2766731D03*
X1248008Y3044290D03*
Y2766731D03*
D13*
X1041316Y2885826D03*
X1297222D03*
D14*
X472419Y1645669D03*
X1811001Y3023621D03*
X472419D03*
D15*
X982279Y2990129D03*
X1356279D03*
D16*
X1554938Y2029527D02*
G03Y2029527I-374014D01*
X472419Y3133858D02*
G03X393679Y3055117J-78740D01*
X1881867Y1566929D02*
G03X1960608Y1645669J78740D01*
X393679D02*
G03X472419Y1566929I78740D01*
X1960608Y3055117D02*
G03X1881867Y3133858I-78740D01*
G01*
X393679Y3055117D02*
Y1645669D01*
X472419Y1566929D02*
X1881867D01*
X1960608Y1645669D02*
Y3055117D01*
X1881867Y3133858D02*
X472419D01*
D17*
X507079Y2054729D03*
X696779Y2169329D03*
X771679Y2750029D03*
X858279Y2747529D03*
X944879Y2750029D03*
X984279Y2488229D03*
X1362179Y2754429D03*
X1456679Y2751929D03*
X1551179D03*
X1842279Y2064729D03*
D10*
X601186Y3391732D03*
X1761001D03*
D11*
X982261Y4557086D03*
X1356277D03*
D12*
X1090528Y4611219D03*
Y4333660D03*
X1129898Y4611219D03*
Y4333660D03*
X1169268Y4611219D03*
Y4333660D03*
X1208638Y4611219D03*
Y4333660D03*
X1248008Y4611219D03*
Y4333660D03*
D13*
X1041316Y4452755D03*
X1297222D03*
D14*
X472419Y3212598D03*
X1811001Y4590550D03*
X472419D03*
D15*
X982279Y4557058D03*
X1356279D03*
D16*
X1554938Y3596456D02*
G03Y3596456I-374014D01*
X472419Y4700787D02*
G03X393679Y4622046J-78740D01*
X1881867Y3133858D02*
G03X1960608Y3212598J78740D01*
X393679D02*
G03X472419Y3133858I78740D01*
X1960608Y4622046D02*
G03X1881867Y4700787I-78740D01*
G01*
X393679Y4622046D02*
Y3212598D01*
X472419Y3133858D02*
X1881867D01*
X1960608Y3212598D02*
Y4622046D01*
X1881867Y4700787D02*
X472419D01*
D17*
X507079Y3621658D03*
X696779Y3736258D03*
X771679Y4316958D03*
X858279Y4314458D03*
X944879Y4316958D03*
X984279Y4055158D03*
X1362179Y4321358D03*
X1456679Y4318858D03*
X1551179D03*
X1842279Y3631658D03*
D10*
X601186Y4958661D03*
X1761001D03*
D11*
X982261Y6124015D03*
X1356277D03*
D12*
X1090528Y6178148D03*
Y5900589D03*
X1129898Y6178148D03*
Y5900589D03*
X1169268Y6178148D03*
Y5900589D03*
X1208638Y6178148D03*
Y5900589D03*
X1248008Y6178148D03*
Y5900589D03*
D13*
X1041316Y6019684D03*
X1297222D03*
D14*
X472419Y4779527D03*
X1811001Y6157479D03*
X472419D03*
D15*
X982279Y6123987D03*
X1356279D03*
D16*
X1554938Y5163385D02*
G03Y5163385I-374014D01*
X472419Y6267716D02*
G03X393679Y6188975J-78740D01*
X1881867Y4700787D02*
G03X1960608Y4779527J78740D01*
X393679D02*
G03X472419Y4700787I78740D01*
X1960608Y6188975D02*
G03X1881867Y6267716I-78740D01*
G01*
X393679Y6188975D02*
Y4779527D01*
X472419Y4700787D02*
X1881867D01*
X1960608Y4779527D02*
Y6188975D01*
X1881867Y6267716D02*
X472419D01*
D17*
X507079Y5188587D03*
X696779Y5303187D03*
X771679Y5883887D03*
X858279Y5881387D03*
X944879Y5883887D03*
X984279Y5622087D03*
X1362179Y5888287D03*
X1456679Y5885787D03*
X1551179D03*
X1842279Y5198587D03*
D10*
X601186Y6525590D03*
X1761001D03*
D11*
X982261Y7690944D03*
X1356277D03*
D12*
X1090528Y7745077D03*
Y7467518D03*
X1129898Y7745077D03*
Y7467518D03*
X1169268Y7745077D03*
Y7467518D03*
X1208638Y7745077D03*
Y7467518D03*
X1248008Y7745077D03*
Y7467518D03*
D13*
X1041316Y7586613D03*
X1297222D03*
D14*
X472419Y6346456D03*
X1811001Y7724408D03*
X472419D03*
D15*
X982279Y7690916D03*
X1356279D03*
D16*
X1554938Y6730314D02*
G03Y6730314I-374014D01*
X472419Y7834645D02*
G03X393679Y7755904J-78740D01*
X1881867Y6267716D02*
G03X1960608Y6346456J78740D01*
X393679D02*
G03X472419Y6267716I78740D01*
X1960608Y7755904D02*
G03X1881867Y7834645I-78740D01*
G01*
X393679Y7755904D02*
Y6346456D01*
X472419Y6267716D02*
X1881867D01*
X1960608Y6346456D02*
Y7755904D01*
X1881867Y7834645D02*
X472419D01*
D17*
X507079Y6755516D03*
X696779Y6870116D03*
X771679Y7450816D03*
X858279Y7448316D03*
X944879Y7450816D03*
X984279Y7189016D03*
X1362179Y7455216D03*
X1456679Y7452716D03*
X1551179D03*
X1842279Y6765516D03*
D10*
X601186Y8092519D03*
X1761001D03*
D11*
X982261Y9257873D03*
X1356277D03*
D12*
X1090528Y9312006D03*
Y9034447D03*
X1129898Y9312006D03*
Y9034447D03*
X1169268Y9312006D03*
Y9034447D03*
X1208638Y9312006D03*
Y9034447D03*
X1248008Y9312006D03*
Y9034447D03*
D13*
X1041316Y9153542D03*
X1297222D03*
D14*
X472419Y7913385D03*
X1811001Y9291337D03*
X472419D03*
D15*
X982279Y9257845D03*
X1356279D03*
D16*
X1554938Y8297243D02*
G03Y8297243I-374014D01*
X472419Y9401574D02*
G03X393679Y9322833J-78740D01*
X1881867Y7834645D02*
G03X1960608Y7913385J78740D01*
X393679D02*
G03X472419Y7834645I78740D01*
X1960608Y9322833D02*
G03X1881867Y9401574I-78740D01*
G01*
X393679Y9322833D02*
Y7913385D01*
X472419Y7834645D02*
X1881867D01*
X1960608Y7913385D02*
Y9322833D01*
X1881867Y9401574D02*
X472419D01*
D17*
X507079Y8322445D03*
X696779Y8437045D03*
X771679Y9017745D03*
X858279Y9015245D03*
X944879Y9017745D03*
X984279Y8755945D03*
X1362179Y9022145D03*
X1456679Y9019645D03*
X1551179D03*
X1842279Y8332445D03*
D10*
X2168093Y257874D03*
X3327908D03*
D11*
X2549168Y1423228D03*
X2923184D03*
D12*
X2657435Y1477361D03*
Y1199802D03*
X2696805Y1477361D03*
Y1199802D03*
X2736175Y1477361D03*
Y1199802D03*
X2775545Y1477361D03*
Y1199802D03*
X2814915Y1477361D03*
Y1199802D03*
D13*
X2608223Y1318897D03*
X2864129D03*
D14*
X2039326Y78740D03*
X3377908Y1456692D03*
X2039326D03*
D15*
X2549186Y1423200D03*
X2923186D03*
D16*
X3121845Y462598D02*
G03Y462598I-374014D01*
X2039326Y1566929D02*
G03X1960586Y1488188J-78740D01*
X3448774Y0D02*
G03X3527515Y78740J78740D01*
X1960586D02*
G03X2039326Y0I78740D01*
X3527515Y1488188D02*
G03X3448774Y1566929I-78740D01*
G01*
X1960586Y1488188D02*
Y78740D01*
X2039326Y0D02*
X3448774D01*
X3527515Y78740D02*
Y1488188D01*
X3448774Y1566929D02*
X2039326D01*
D17*
X2073986Y487800D03*
X2263686Y602400D03*
X2338586Y1183100D03*
X2425186Y1180600D03*
X2511786Y1183100D03*
X2551186Y921300D03*
X2929086Y1187500D03*
X3023586Y1185000D03*
X3118086D03*
X3409186Y497800D03*
D10*
X2168093Y1824803D03*
X3327908D03*
D11*
X2549168Y2990157D03*
X2923184D03*
D12*
X2657435Y3044290D03*
Y2766731D03*
X2696805Y3044290D03*
Y2766731D03*
X2736175Y3044290D03*
Y2766731D03*
X2775545Y3044290D03*
Y2766731D03*
X2814915Y3044290D03*
Y2766731D03*
D13*
X2608223Y2885826D03*
X2864129D03*
D14*
X2039326Y1645669D03*
X3377908Y3023621D03*
X2039326D03*
D15*
X2549186Y2990129D03*
X2923186D03*
D16*
X3121845Y2029527D02*
G03Y2029527I-374014D01*
X2039326Y3133858D02*
G03X1960586Y3055117J-78740D01*
X3448774Y1566929D02*
G03X3527515Y1645669J78740D01*
X1960586D02*
G03X2039326Y1566929I78740D01*
X3527515Y3055117D02*
G03X3448774Y3133858I-78740D01*
G01*
X1960586Y3055117D02*
Y1645669D01*
X2039326Y1566929D02*
X3448774D01*
X3527515Y1645669D02*
Y3055117D01*
X3448774Y3133858D02*
X2039326D01*
D17*
X2073986Y2054729D03*
X2263686Y2169329D03*
X2338586Y2750029D03*
X2425186Y2747529D03*
X2511786Y2750029D03*
X2551186Y2488229D03*
X2929086Y2754429D03*
X3023586Y2751929D03*
X3118086D03*
X3409186Y2064729D03*
D10*
X2168093Y3391732D03*
X3327908D03*
D11*
X2549168Y4557086D03*
X2923184D03*
D12*
X2657435Y4611219D03*
Y4333660D03*
X2696805Y4611219D03*
Y4333660D03*
X2736175Y4611219D03*
Y4333660D03*
X2775545Y4611219D03*
Y4333660D03*
X2814915Y4611219D03*
Y4333660D03*
D13*
X2608223Y4452755D03*
X2864129D03*
D14*
X2039326Y3212598D03*
X3377908Y4590550D03*
X2039326D03*
D15*
X2549186Y4557058D03*
X2923186D03*
D16*
X3121845Y3596456D02*
G03Y3596456I-374014D01*
X2039326Y4700787D02*
G03X1960586Y4622046J-78740D01*
X3448774Y3133858D02*
G03X3527515Y3212598J78740D01*
X1960586D02*
G03X2039326Y3133858I78740D01*
X3527515Y4622046D02*
G03X3448774Y4700787I-78740D01*
G01*
X1960586Y4622046D02*
Y3212598D01*
X2039326Y3133858D02*
X3448774D01*
X3527515Y3212598D02*
Y4622046D01*
X3448774Y4700787D02*
X2039326D01*
D17*
X2073986Y3621658D03*
X2263686Y3736258D03*
X2338586Y4316958D03*
X2425186Y4314458D03*
X2511786Y4316958D03*
X2551186Y4055158D03*
X2929086Y4321358D03*
X3023586Y4318858D03*
X3118086D03*
X3409186Y3631658D03*
D10*
X2168093Y4958661D03*
X3327908D03*
D11*
X2549168Y6124015D03*
X2923184D03*
D12*
X2657435Y6178148D03*
Y5900589D03*
X2696805Y6178148D03*
Y5900589D03*
X2736175Y6178148D03*
Y5900589D03*
X2775545Y6178148D03*
Y5900589D03*
X2814915Y6178148D03*
Y5900589D03*
D13*
X2608223Y6019684D03*
X2864129D03*
D14*
X2039326Y4779527D03*
X3377908Y6157479D03*
X2039326D03*
D15*
X2549186Y6123987D03*
X2923186D03*
D16*
X3121845Y5163385D02*
G03Y5163385I-374014D01*
X2039326Y6267716D02*
G03X1960586Y6188975J-78740D01*
X3448774Y4700787D02*
G03X3527515Y4779527J78740D01*
X1960586D02*
G03X2039326Y4700787I78740D01*
X3527515Y6188975D02*
G03X3448774Y6267716I-78740D01*
G01*
X1960586Y6188975D02*
Y4779527D01*
X2039326Y4700787D02*
X3448774D01*
X3527515Y4779527D02*
Y6188975D01*
X3448774Y6267716D02*
X2039326D01*
D17*
X2073986Y5188587D03*
X2263686Y5303187D03*
X2338586Y5883887D03*
X2425186Y5881387D03*
X2511786Y5883887D03*
X2551186Y5622087D03*
X2929086Y5888287D03*
X3023586Y5885787D03*
X3118086D03*
X3409186Y5198587D03*
D10*
X2168093Y6525590D03*
X3327908D03*
D11*
X2549168Y7690944D03*
X2923184D03*
D12*
X2657435Y7745077D03*
Y7467518D03*
X2696805Y7745077D03*
Y7467518D03*
X2736175Y7745077D03*
Y7467518D03*
X2775545Y7745077D03*
Y7467518D03*
X2814915Y7745077D03*
Y7467518D03*
D13*
X2608223Y7586613D03*
X2864129D03*
D14*
X2039326Y6346456D03*
X3377908Y7724408D03*
X2039326D03*
D15*
X2549186Y7690916D03*
X2923186D03*
D16*
X3121845Y6730314D02*
G03Y6730314I-374014D01*
X2039326Y7834645D02*
G03X1960586Y7755904J-78740D01*
X3448774Y6267716D02*
G03X3527515Y6346456J78740D01*
X1960586D02*
G03X2039326Y6267716I78740D01*
X3527515Y7755904D02*
G03X3448774Y7834645I-78740D01*
G01*
X1960586Y7755904D02*
Y6346456D01*
X2039326Y6267716D02*
X3448774D01*
X3527515Y6346456D02*
Y7755904D01*
X3448774Y7834645D02*
X2039326D01*
D17*
X2073986Y6755516D03*
X2263686Y6870116D03*
X2338586Y7450816D03*
X2425186Y7448316D03*
X2511786Y7450816D03*
X2551186Y7189016D03*
X2929086Y7455216D03*
X3023586Y7452716D03*
X3118086D03*
X3409186Y6765516D03*
D10*
X2168093Y8092519D03*
X3327908D03*
D11*
X2549168Y9257873D03*
X2923184D03*
D12*
X2657435Y9312006D03*
Y9034447D03*
X2696805Y9312006D03*
Y9034447D03*
X2736175Y9312006D03*
Y9034447D03*
X2775545Y9312006D03*
Y9034447D03*
X2814915Y9312006D03*
Y9034447D03*
D13*
X2608223Y9153542D03*
X2864129D03*
D14*
X2039326Y7913385D03*
X3377908Y9291337D03*
X2039326D03*
D15*
X2549186Y9257845D03*
X2923186D03*
D16*
X3121845Y8297243D02*
G03Y8297243I-374014D01*
X2039326Y9401574D02*
G03X1960586Y9322833J-78740D01*
X3448774Y7834645D02*
G03X3527515Y7913385J78740D01*
X1960586D02*
G03X2039326Y7834645I78740D01*
X3527515Y9322833D02*
G03X3448774Y9401574I-78740D01*
G01*
X1960586Y9322833D02*
Y7913385D01*
X2039326Y7834645D02*
X3448774D01*
X3527515Y7913385D02*
Y9322833D01*
X3448774Y9401574D02*
X2039326D01*
D17*
X2073986Y8322445D03*
X2263686Y8437045D03*
X2338586Y9017745D03*
X2425186Y9015245D03*
X2511786Y9017745D03*
X2551186Y8755945D03*
X2929086Y9022145D03*
X3023586Y9019645D03*
X3118086D03*
X3409186Y8332445D03*
D10*
X3735000Y257874D03*
X4894815D03*
D11*
X4116075Y1423228D03*
X4490091D03*
D12*
X4224342Y1477361D03*
Y1199802D03*
X4263712Y1477361D03*
Y1199802D03*
X4303082Y1477361D03*
Y1199802D03*
X4342452Y1477361D03*
Y1199802D03*
X4381822Y1477361D03*
Y1199802D03*
D13*
X4175130Y1318897D03*
X4431036D03*
D14*
X3606233Y78740D03*
X4944815Y1456692D03*
X3606233D03*
D15*
X4116093Y1423200D03*
X4490093D03*
D16*
X4688752Y462598D02*
G03Y462598I-374014D01*
X3606233Y1566929D02*
G03X3527493Y1488188J-78740D01*
X5015681Y0D02*
G03X5094422Y78740J78740D01*
X3527493D02*
G03X3606233Y0I78740D01*
X5094422Y1488188D02*
G03X5015681Y1566929I-78740D01*
G01*
X3527493Y1488188D02*
Y78740D01*
X3606233Y0D02*
X5015681D01*
X5094422Y78740D02*
Y1488188D01*
X5015681Y1566929D02*
X3606233D01*
D17*
X3640893Y487800D03*
X3830593Y602400D03*
X3905493Y1183100D03*
X3992093Y1180600D03*
X4078693Y1183100D03*
X4118093Y921300D03*
X4495993Y1187500D03*
X4590493Y1185000D03*
X4684993D03*
X4976093Y497800D03*
D10*
X3735000Y1824803D03*
X4894815D03*
D11*
X4116075Y2990157D03*
X4490091D03*
D12*
X4224342Y3044290D03*
Y2766731D03*
X4263712Y3044290D03*
Y2766731D03*
X4303082Y3044290D03*
Y2766731D03*
X4342452Y3044290D03*
Y2766731D03*
X4381822Y3044290D03*
Y2766731D03*
D13*
X4175130Y2885826D03*
X4431036D03*
D14*
X3606233Y1645669D03*
X4944815Y3023621D03*
X3606233D03*
D15*
X4116093Y2990129D03*
X4490093D03*
D16*
X4688752Y2029527D02*
G03Y2029527I-374014D01*
X3606233Y3133858D02*
G03X3527493Y3055117J-78740D01*
X5015681Y1566929D02*
G03X5094422Y1645669J78740D01*
X3527493D02*
G03X3606233Y1566929I78740D01*
X5094422Y3055117D02*
G03X5015681Y3133858I-78740D01*
G01*
X3527493Y3055117D02*
Y1645669D01*
X3606233Y1566929D02*
X5015681D01*
X5094422Y1645669D02*
Y3055117D01*
X5015681Y3133858D02*
X3606233D01*
D17*
X3640893Y2054729D03*
X3830593Y2169329D03*
X3905493Y2750029D03*
X3992093Y2747529D03*
X4078693Y2750029D03*
X4118093Y2488229D03*
X4495993Y2754429D03*
X4590493Y2751929D03*
X4684993D03*
X4976093Y2064729D03*
D10*
X3735000Y3391732D03*
X4894815D03*
D11*
X4116075Y4557086D03*
X4490091D03*
D12*
X4224342Y4611219D03*
Y4333660D03*
X4263712Y4611219D03*
Y4333660D03*
X4303082Y4611219D03*
Y4333660D03*
X4342452Y4611219D03*
Y4333660D03*
X4381822Y4611219D03*
Y4333660D03*
D13*
X4175130Y4452755D03*
X4431036D03*
D14*
X3606233Y3212598D03*
X4944815Y4590550D03*
X3606233D03*
D15*
X4116093Y4557058D03*
X4490093D03*
D16*
X4688752Y3596456D02*
G03Y3596456I-374014D01*
X3606233Y4700787D02*
G03X3527493Y4622046J-78740D01*
X5015681Y3133858D02*
G03X5094422Y3212598J78740D01*
X3527493D02*
G03X3606233Y3133858I78740D01*
X5094422Y4622046D02*
G03X5015681Y4700787I-78740D01*
G01*
X3527493Y4622046D02*
Y3212598D01*
X3606233Y3133858D02*
X5015681D01*
X5094422Y3212598D02*
Y4622046D01*
X5015681Y4700787D02*
X3606233D01*
D17*
X3640893Y3621658D03*
X3830593Y3736258D03*
X3905493Y4316958D03*
X3992093Y4314458D03*
X4078693Y4316958D03*
X4118093Y4055158D03*
X4495993Y4321358D03*
X4590493Y4318858D03*
X4684993D03*
X4976093Y3631658D03*
D10*
X3735000Y4958661D03*
X4894815D03*
D11*
X4116075Y6124015D03*
X4490091D03*
D12*
X4224342Y6178148D03*
Y5900589D03*
X4263712Y6178148D03*
Y5900589D03*
X4303082Y6178148D03*
Y5900589D03*
X4342452Y6178148D03*
Y5900589D03*
X4381822Y6178148D03*
Y5900589D03*
D13*
X4175130Y6019684D03*
X4431036D03*
D14*
X3606233Y4779527D03*
X4944815Y6157479D03*
X3606233D03*
D15*
X4116093Y6123987D03*
X4490093D03*
D16*
X4688752Y5163385D02*
G03Y5163385I-374014D01*
X3606233Y6267716D02*
G03X3527493Y6188975J-78740D01*
X5015681Y4700787D02*
G03X5094422Y4779527J78740D01*
X3527493D02*
G03X3606233Y4700787I78740D01*
X5094422Y6188975D02*
G03X5015681Y6267716I-78740D01*
G01*
X3527493Y6188975D02*
Y4779527D01*
X3606233Y4700787D02*
X5015681D01*
X5094422Y4779527D02*
Y6188975D01*
X5015681Y6267716D02*
X3606233D01*
D17*
X3640893Y5188587D03*
X3830593Y5303187D03*
X3905493Y5883887D03*
X3992093Y5881387D03*
X4078693Y5883887D03*
X4118093Y5622087D03*
X4495993Y5888287D03*
X4590493Y5885787D03*
X4684993D03*
X4976093Y5198587D03*
D10*
X3735000Y6525590D03*
X4894815D03*
D11*
X4116075Y7690944D03*
X4490091D03*
D12*
X4224342Y7745077D03*
Y7467518D03*
X4263712Y7745077D03*
Y7467518D03*
X4303082Y7745077D03*
Y7467518D03*
X4342452Y7745077D03*
Y7467518D03*
X4381822Y7745077D03*
Y7467518D03*
D13*
X4175130Y7586613D03*
X4431036D03*
D14*
X3606233Y6346456D03*
X4944815Y7724408D03*
X3606233D03*
D15*
X4116093Y7690916D03*
X4490093D03*
D16*
X4688752Y6730314D02*
G03Y6730314I-374014D01*
X3606233Y7834645D02*
G03X3527493Y7755904J-78740D01*
X5015681Y6267716D02*
G03X5094422Y6346456J78740D01*
X3527493D02*
G03X3606233Y6267716I78740D01*
X5094422Y7755904D02*
G03X5015681Y7834645I-78740D01*
G01*
X3527493Y7755904D02*
Y6346456D01*
X3606233Y6267716D02*
X5015681D01*
X5094422Y6346456D02*
Y7755904D01*
X5015681Y7834645D02*
X3606233D01*
D17*
X3640893Y6755516D03*
X3830593Y6870116D03*
X3905493Y7450816D03*
X3992093Y7448316D03*
X4078693Y7450816D03*
X4118093Y7189016D03*
X4495993Y7455216D03*
X4590493Y7452716D03*
X4684993D03*
X4976093Y6765516D03*
D10*
X3735000Y8092519D03*
X4894815D03*
D11*
X4116075Y9257873D03*
X4490091D03*
D12*
X4224342Y9312006D03*
Y9034447D03*
X4263712Y9312006D03*
Y9034447D03*
X4303082Y9312006D03*
Y9034447D03*
X4342452Y9312006D03*
Y9034447D03*
X4381822Y9312006D03*
Y9034447D03*
D13*
X4175130Y9153542D03*
X4431036D03*
D14*
X3606233Y7913385D03*
X4944815Y9291337D03*
X3606233D03*
D15*
X4116093Y9257845D03*
X4490093D03*
D16*
X4688752Y8297243D02*
G03Y8297243I-374014D01*
X3606233Y9401574D02*
G03X3527493Y9322833J-78740D01*
X5015681Y7834645D02*
G03X5094422Y7913385J78740D01*
X3527493D02*
G03X3606233Y7834645I78740D01*
X5094422Y9322833D02*
G03X5015681Y9401574I-78740D01*
G01*
X3527493Y9322833D02*
Y7913385D01*
X3606233Y7834645D02*
X5015681D01*
X5094422Y7913385D02*
Y9322833D01*
X5015681Y9401574D02*
X3606233D01*
D17*
X3640893Y8322445D03*
X3830593Y8437045D03*
X3905493Y9017745D03*
X3992093Y9015245D03*
X4078693Y9017745D03*
X4118093Y8755945D03*
X4495993Y9022145D03*
X4590493Y9019645D03*
X4684993D03*
X4976093Y8332445D03*
%LPD*%
D18*
X196850Y590551D03*
X5291271D03*
Y8811022D03*
X196850Y8417322D03*
G01*
D19*
X393700Y0D02*
X393679Y78740D01*
Y78740D01*
Y1488188D02*
Y1488188D01*
Y1645669D01*
Y1645669D01*
Y3055117D02*
Y3055117D01*
Y3212598D01*
Y3212598D01*
Y4622046D02*
Y4622046D01*
Y4779527D01*
Y4779527D01*
Y6188975D02*
Y6188975D01*
Y6346456D01*
Y6346456D01*
Y7755904D02*
Y7755904D01*
Y7913385D01*
Y7913385D01*
Y9322833D02*
Y9322833D01*
X393700Y9401574D01*
X78740D01*
G03X0Y9322833J-78740D01*
G01*
Y78740D01*
G03X78740Y0I78740D01*
G01*
X393700D01*
X5094421D02*
Y78740D01*
Y78740D01*
Y1488188D02*
Y1488188D01*
Y1645669D01*
Y1645669D01*
Y3055117D02*
Y3055117D01*
Y3212598D01*
Y3212598D01*
Y4622046D02*
Y4622046D01*
Y4779527D01*
Y4779527D01*
Y6188975D02*
Y6188975D01*
Y6346456D01*
Y6346456D01*
Y7755904D02*
Y7755904D01*
Y7913385D01*
Y7913385D01*
Y9322833D02*
Y9322833D01*
Y9401574D01*
X5409381D01*
G02X5488121Y9322833J-78740D01*
G01*
Y78740D01*
G02X5409381Y0I-78739D01*
G01*
X5094421D01*
D20*
X151575Y787401D03*
X5336546D03*
Y8614172D03*
X151575Y8220471D03*
D21*
X0Y1566929D02*
X393700D01*
X5488122D02*
X5094421D01*
X0Y3133858D02*
X393700D01*
X5488122D02*
X5094421D01*
X0Y4700787D02*
X393700D01*
X5488122D02*
X5094421D01*
X0Y6267716D02*
X393700D01*
X5488122D02*
X5094421D01*
X0Y7834645D02*
X393700D01*
X5488122D02*
X5094421D01*
D22*
X406530Y15282D03*
X1960594Y31977D03*
X3527501D03*
X5081585Y15192D03*
X5081584Y9386271D03*
X3527501Y9369595D03*
X1960594D03*
X406529Y9386400D03*
X5107255Y12834D03*
X5107254Y9388737D03*
X380860Y12834D03*
X381232Y9388723D03*
X1928608Y7834643D03*
X1960594Y7866622D03*
X1992580Y7834643D03*
X3495515D03*
X3527501Y7866622D03*
X3559487Y7834643D03*
X5081584Y7819334D03*
X5062422Y7834643D03*
X5081584Y7849836D03*
X406513Y7849945D03*
X425673Y7834643D03*
X406513Y7819454D03*
X1928608Y6267714D03*
X1960594Y6299693D03*
X1992580Y6267714D03*
X3495515D03*
X3527501Y6299693D03*
X3559487Y6267714D03*
X5081584Y6252405D03*
X5062422Y6267714D03*
X5081584Y6282907D03*
X406513Y6283016D03*
X425673Y6267714D03*
X406513Y6252525D03*
X1928608Y4700785D03*
X1960594Y4732764D03*
X1992580Y4700785D03*
X3495515D03*
X3527501Y4732764D03*
X3559487Y4700785D03*
X5081584Y4685476D03*
X5062422Y4700785D03*
X5081584Y4715978D03*
X406513Y4716087D03*
X425673Y4700785D03*
X406513Y4685596D03*
X3495515Y3133856D03*
X3527501Y3165835D03*
X3559487Y3133856D03*
X1928608D03*
X1960594Y3165835D03*
X1992580Y3133856D03*
X5081584Y3118547D03*
X5062422Y3133856D03*
X5081584Y3149049D03*
X406513Y3149158D03*
X425673Y3133856D03*
X406513Y3118667D03*
X1928608Y1566927D03*
X1960594Y1598906D03*
X1992580Y1566927D03*
X3495515D03*
X3527501Y1598906D03*
X3559487Y1566927D03*
X5081584Y1551618D03*
X5062422Y1566927D03*
X5081584Y1582120D03*
X406513Y1582229D03*
X425673Y1566927D03*
X406513Y1551738D03*
X1960778Y7801734D03*
X3527685D03*
Y6234805D03*
Y4667876D03*
Y3100947D03*
Y1534018D03*
X1960778D03*
Y3100947D03*
Y4667876D03*
Y6234805D03*
M02*
